%MOIN*%
%OFA0B0*%
%FSLAX46Y46*%
%IPPOS*%
%LPD*%
%ADD10C,0.011811023622047244*%
%ADD11C,0.005905511811023622*%
%ADD12C,0.0047244094488188976*%
%ADD23C,0.011811023622047244*%
%ADD24C,0.005905511811023622*%
%ADD25C,0.0047244094488188976*%
%ADD26C,0.011811023622047244*%
%ADD27C,0.005905511811023622*%
%ADD28C,0.0047244094488188976*%
%ADD29C,0.011811023622047244*%
%ADD30C,0.005905511811023622*%
%ADD31C,0.0047244094488188976*%
%ADD32C,0.011811023622047244*%
%ADD33C,0.005905511811023622*%
%ADD34C,0.0047244094488188976*%
%ADD35C,0.011811023622047244*%
%ADD36C,0.005905511811023622*%
%ADD37C,0.0047244094488188976*%
%ADD38C,0.011811023622047244*%
%ADD39C,0.005905511811023622*%
%ADD40C,0.0047244094488188976*%
%ADD41C,0.011811023622047244*%
%ADD42C,0.005905511811023622*%
%ADD43C,0.0047244094488188976*%
%ADD44C,0.011811023622047244*%
%ADD45C,0.005905511811023622*%
%ADD46C,0.0047244094488188976*%
%ADD47C,0.011811023622047244*%
%ADD48C,0.005905511811023622*%
%ADD49C,0.0047244094488188976*%
G01G01*
D10*
X0000516571Y0000353638D02*
X0000516571Y0000404819D01*
X0000492199Y0000353638D02*
X0000492199Y0000404819D01*
X0000462952Y0000353638D01*
X0000462952Y0000404819D01*
X0000445892Y0000404819D02*
X0000416646Y0000404819D01*
X0000431269Y0000353638D02*
X0000431269Y0000404819D01*
X0000389837Y0000404819D02*
X0000380088Y0000404819D01*
X0000375213Y0000402382D01*
X0000370339Y0000397507D01*
X0000367902Y0000387758D01*
X0000367902Y0000370698D01*
X0000370339Y0000360949D01*
X0000375213Y0000356075D01*
X0000380088Y0000353638D01*
X0000389837Y0000353638D01*
X0000394711Y0000356075D01*
X0000399585Y0000360949D01*
X0000402022Y0000370698D01*
X0000402022Y0000387758D01*
X0000399585Y0000397507D01*
X0000394711Y0000402382D01*
X0000389837Y0000404819D01*
X0000314283Y0000404819D02*
X0000285037Y0000404819D01*
X0000299660Y0000353638D02*
X0000299660Y0000404819D01*
X0000267977Y0000353638D02*
X0000267977Y0000404819D01*
X0000267977Y0000380447D02*
X0000238730Y0000380447D01*
X0000238730Y0000353638D02*
X0000238730Y0000404819D01*
X0000214358Y0000380447D02*
X0000197298Y0000380447D01*
X0000189986Y0000353638D02*
X0000214358Y0000353638D01*
X0000214358Y0000404819D01*
X0000189986Y0000404819D01*
X0000554347Y0000316236D02*
X0000542161Y0000265055D01*
X0000532412Y0000301613D01*
X0000522664Y0000265055D01*
X0000510478Y0000316236D01*
X0000481231Y0000316236D02*
X0000471483Y0000316236D01*
X0000466608Y0000313799D01*
X0000461734Y0000308925D01*
X0000459297Y0000299176D01*
X0000459297Y0000282115D01*
X0000461734Y0000272367D01*
X0000466608Y0000267492D01*
X0000471483Y0000265055D01*
X0000481231Y0000265055D01*
X0000486106Y0000267492D01*
X0000490980Y0000272367D01*
X0000493417Y0000282115D01*
X0000493417Y0000299176D01*
X0000490980Y0000308925D01*
X0000486106Y0000313799D01*
X0000481231Y0000316236D01*
X0000437362Y0000265055D02*
X0000437362Y0000316236D01*
X0000408115Y0000265055D01*
X0000408115Y0000316236D01*
X0000383744Y0000265055D02*
X0000383744Y0000316236D01*
X0000371558Y0000316236D01*
X0000364246Y0000313799D01*
X0000359372Y0000308925D01*
X0000356934Y0000304050D01*
X0000354497Y0000294301D01*
X0000354497Y0000286990D01*
X0000356934Y0000277241D01*
X0000359372Y0000272367D01*
X0000364246Y0000267492D01*
X0000371558Y0000265055D01*
X0000383744Y0000265055D01*
X0000332562Y0000291864D02*
X0000315502Y0000291864D01*
X0000308190Y0000265055D02*
X0000332562Y0000265055D01*
X0000332562Y0000316236D01*
X0000308190Y0000316236D01*
X0000257009Y0000265055D02*
X0000274070Y0000289427D01*
X0000286256Y0000265055D02*
X0000286256Y0000316236D01*
X0000266758Y0000316236D01*
X0000261884Y0000313799D01*
X0000259447Y0000311362D01*
X0000257009Y0000306487D01*
X0000257009Y0000299176D01*
X0000259447Y0000294301D01*
X0000261884Y0000291864D01*
X0000266758Y0000289427D01*
X0000286256Y0000289427D01*
X0000218014Y0000291864D02*
X0000235075Y0000291864D01*
X0000235075Y0000265055D02*
X0000235075Y0000316236D01*
X0000210703Y0000316236D01*
X0000191205Y0000316236D02*
X0000191205Y0000274804D01*
X0000188768Y0000269929D01*
X0000186331Y0000267492D01*
X0000181456Y0000265055D01*
X0000171707Y0000265055D01*
X0000166833Y0000267492D01*
X0000164396Y0000269929D01*
X0000161959Y0000274804D01*
X0000161959Y0000316236D01*
X0000113215Y0000265055D02*
X0000137587Y0000265055D01*
X0000137587Y0000316236D01*
D11*
X0000055750Y0000728462D02*
X0000076748Y0000720963D01*
X0000055750Y0000713464D01*
X0000076748Y0000684968D02*
X0000076748Y0000702966D01*
X0000076748Y0000693967D02*
X0000045252Y0000693967D01*
X0000049751Y0000696966D01*
X0000052751Y0000699966D01*
X0000054251Y0000702966D01*
X0000073748Y0000671470D02*
X0000075248Y0000669970D01*
X0000076748Y0000671470D01*
X0000075248Y0000672969D01*
X0000073748Y0000671470D01*
X0000076748Y0000671470D01*
X0000076748Y0000639973D02*
X0000076748Y0000657971D01*
X0000076748Y0000648972D02*
X0000045252Y0000648972D01*
X0000049751Y0000651972D01*
X0000052751Y0000654972D01*
X0000054251Y0000657971D01*
X0000052751Y0000576981D02*
X0000051251Y0000579981D01*
X0000051251Y0000585980D01*
X0000052751Y0000588980D01*
X0000055750Y0000591979D01*
X0000058750Y0000593479D01*
X0000064749Y0000593479D01*
X0000067749Y0000591979D01*
X0000070749Y0000588980D01*
X0000072248Y0000585980D01*
X0000072248Y0000579981D01*
X0000070749Y0000576981D01*
X0000040752Y0000582981D02*
X0000042252Y0000590480D01*
X0000046752Y0000597979D01*
X0000054251Y0000602478D01*
X0000061750Y0000603978D01*
X0000069249Y0000602478D01*
X0000076748Y0000597979D01*
X0000081247Y0000590480D01*
X0000082747Y0000582981D01*
X0000081247Y0000575482D01*
X0000076748Y0000567982D01*
X0000069249Y0000563483D01*
X0000061750Y0000561983D01*
X0000054251Y0000563483D01*
X0000046752Y0000567982D01*
X0000042252Y0000575482D01*
X0000040752Y0000582981D01*
X0000048251Y0000525988D02*
X0000046752Y0000524488D01*
X0000045252Y0000521488D01*
X0000045252Y0000513989D01*
X0000046752Y0000510990D01*
X0000048251Y0000509490D01*
X0000051251Y0000507990D01*
X0000054251Y0000507990D01*
X0000058750Y0000509490D01*
X0000076748Y0000527488D01*
X0000076748Y0000507990D01*
X0000045252Y0000488492D02*
X0000045252Y0000485493D01*
X0000046752Y0000482493D01*
X0000048251Y0000480993D01*
X0000051251Y0000479494D01*
X0000057250Y0000477994D01*
X0000064749Y0000477994D01*
X0000070749Y0000479494D01*
X0000073748Y0000480993D01*
X0000075248Y0000482493D01*
X0000076748Y0000485493D01*
X0000076748Y0000488492D01*
X0000075248Y0000491492D01*
X0000073748Y0000492992D01*
X0000070749Y0000494492D01*
X0000064749Y0000495991D01*
X0000057250Y0000495991D01*
X0000051251Y0000494492D01*
X0000048251Y0000492992D01*
X0000046752Y0000491492D01*
X0000045252Y0000488492D01*
X0000076748Y0000447997D02*
X0000076748Y0000465995D01*
X0000076748Y0000456996D02*
X0000045252Y0000456996D01*
X0000049751Y0000459996D01*
X0000052751Y0000462996D01*
X0000054251Y0000465995D01*
X0000058750Y0000430000D02*
X0000057250Y0000432999D01*
X0000055750Y0000434499D01*
X0000052751Y0000435999D01*
X0000051251Y0000435999D01*
X0000048251Y0000434499D01*
X0000046752Y0000432999D01*
X0000045252Y0000430000D01*
X0000045252Y0000424000D01*
X0000046752Y0000421001D01*
X0000048251Y0000419501D01*
X0000051251Y0000418001D01*
X0000052751Y0000418001D01*
X0000055750Y0000419501D01*
X0000057250Y0000421001D01*
X0000058750Y0000424000D01*
X0000058750Y0000430000D01*
X0000060250Y0000432999D01*
X0000061750Y0000434499D01*
X0000064749Y0000435999D01*
X0000070749Y0000435999D01*
X0000073748Y0000434499D01*
X0000075248Y0000432999D01*
X0000076748Y0000430000D01*
X0000076748Y0000424000D01*
X0000075248Y0000421001D01*
X0000073748Y0000419501D01*
X0000070749Y0000418001D01*
X0000064749Y0000418001D01*
X0000061750Y0000419501D01*
X0000060250Y0000421001D01*
X0000058750Y0000424000D01*
X0000064749Y0000404503D02*
X0000064749Y0000380506D01*
X0000076748Y0000349010D02*
X0000076748Y0000367008D01*
X0000076748Y0000358009D02*
X0000045252Y0000358009D01*
X0000049751Y0000361008D01*
X0000052751Y0000364008D01*
X0000054251Y0000367008D01*
X0000076748Y0000334012D02*
X0000076748Y0000328012D01*
X0000075248Y0000325013D01*
X0000073748Y0000323513D01*
X0000069249Y0000320513D01*
X0000063250Y0000319014D01*
X0000051251Y0000319014D01*
X0000048251Y0000320513D01*
X0000046752Y0000322013D01*
X0000045252Y0000325013D01*
X0000045252Y0000331012D01*
X0000046752Y0000334012D01*
X0000048251Y0000335512D01*
X0000051251Y0000337011D01*
X0000058750Y0000337011D01*
X0000061750Y0000335512D01*
X0000063250Y0000334012D01*
X0000064749Y0000331012D01*
X0000064749Y0000325013D01*
X0000063250Y0000322013D01*
X0000061750Y0000320513D01*
X0000058750Y0000319014D01*
X0000076748Y0000281518D02*
X0000045252Y0000281518D01*
X0000057250Y0000281518D02*
X0000055750Y0000278519D01*
X0000055750Y0000272519D01*
X0000057250Y0000269520D01*
X0000058750Y0000268020D01*
X0000061750Y0000266520D01*
X0000070749Y0000266520D01*
X0000073748Y0000268020D01*
X0000075248Y0000269520D01*
X0000076748Y0000272519D01*
X0000076748Y0000278519D01*
X0000075248Y0000281518D01*
X0000055750Y0000256021D02*
X0000076748Y0000248522D01*
X0000055750Y0000241023D02*
X0000076748Y0000248522D01*
X0000084247Y0000251522D01*
X0000085747Y0000253022D01*
X0000087247Y0000256021D01*
X0000045252Y0000209527D02*
X0000045252Y0000191530D01*
X0000076748Y0000200528D02*
X0000045252Y0000200528D01*
X0000075248Y0000182531D02*
X0000076748Y0000178031D01*
X0000076748Y0000170532D01*
X0000075248Y0000167533D01*
X0000073748Y0000166033D01*
X0000070749Y0000164533D01*
X0000067749Y0000164533D01*
X0000064749Y0000166033D01*
X0000063250Y0000167533D01*
X0000061750Y0000170532D01*
X0000060250Y0000176531D01*
X0000058750Y0000179531D01*
X0000057250Y0000181031D01*
X0000054251Y0000182531D01*
X0000051251Y0000182531D01*
X0000048251Y0000181031D01*
X0000046752Y0000179531D01*
X0000045252Y0000176531D01*
X0000045252Y0000169032D01*
X0000046752Y0000164533D01*
X0000060250Y0000140536D02*
X0000061750Y0000136036D01*
X0000063250Y0000134537D01*
X0000066249Y0000133037D01*
X0000070749Y0000133037D01*
X0000073748Y0000134537D01*
X0000075248Y0000136036D01*
X0000076748Y0000139036D01*
X0000076748Y0000151035D01*
X0000045252Y0000151035D01*
X0000045252Y0000140536D01*
X0000046752Y0000137536D01*
X0000048251Y0000136036D01*
X0000051251Y0000134537D01*
X0000054251Y0000134537D01*
X0000057250Y0000136036D01*
X0000058750Y0000137536D01*
X0000060250Y0000140536D01*
X0000060250Y0000151035D01*
X0000175000Y0000772500D02*
X0000205000Y0000772500D01*
X0000205000Y0000772500D02*
X0000205000Y0000832500D01*
X0000205000Y0000832500D02*
X0000175000Y0000832500D01*
X0000615000Y0000712500D02*
X0000615000Y0000892500D01*
X0000615000Y0000892500D02*
X0000175000Y0000892500D01*
X0000175000Y0000892500D02*
X0000175000Y0000712500D01*
X0000175000Y0000712500D02*
X0000615000Y0000712500D01*
D12*
X0000128838Y0001329094D02*
X0000128838Y0001128307D01*
X0000128838Y0001128307D02*
X0000544193Y0001128307D01*
X0000544193Y0001128307D02*
X0000544193Y0001327126D01*
X0000386378Y0000485354D02*
X0000433622Y0000485354D01*
X0000433622Y0000554645D02*
X0000386378Y0000554645D01*
X0000186378Y0000487854D02*
X0000233622Y0000487854D01*
X0000233622Y0000557145D02*
X0000186378Y0000557145D01*
X0000450295Y0000207421D02*
X0000486909Y0000207421D01*
X0000574704Y0000207421D02*
X0000538090Y0000207421D01*
X0000574704Y0000207421D02*
X0000574704Y0000122382D01*
X0000450295Y0000207421D02*
X0000450295Y0000149941D01*
X0000150295Y0000207421D02*
X0000186909Y0000207421D01*
X0000274704Y0000207421D02*
X0000238090Y0000207421D01*
X0000274704Y0000207421D02*
X0000274704Y0000122382D01*
X0000150295Y0000207421D02*
X0000150295Y0000149941D01*
D11*
X0000172496Y0000959060D02*
X0000172496Y0000927189D01*
X0000170621Y0000923439D01*
X0000168746Y0000921564D01*
X0000164997Y0000919689D01*
X0000157498Y0000919689D01*
X0000153748Y0000921564D01*
X0000151873Y0000923439D01*
X0000149999Y0000927189D01*
X0000149999Y0000959060D01*
X0000133126Y0000955310D02*
X0000131251Y0000957185D01*
X0000127501Y0000959060D01*
X0000118128Y0000959060D01*
X0000114378Y0000957185D01*
X0000112503Y0000955310D01*
X0000110629Y0000951560D01*
X0000110629Y0000947811D01*
X0000112503Y0000942187D01*
X0000135001Y0000919689D01*
X0000110629Y0000919689D01*
X0000416561Y0000569119D02*
X0000429685Y0000587866D01*
X0000439058Y0000569119D02*
X0000439058Y0000608489D01*
X0000424060Y0000608489D01*
X0000420311Y0000606614D01*
X0000418436Y0000604739D01*
X0000416561Y0000600990D01*
X0000416561Y0000595365D01*
X0000418436Y0000591616D01*
X0000420311Y0000589741D01*
X0000424060Y0000587866D01*
X0000439058Y0000587866D01*
X0000379066Y0000569119D02*
X0000401563Y0000569119D01*
X0000390315Y0000569119D02*
X0000390315Y0000608489D01*
X0000394064Y0000602864D01*
X0000397814Y0000599115D01*
X0000401563Y0000597240D01*
X0000216561Y0000571619D02*
X0000229685Y0000590366D01*
X0000239058Y0000571619D02*
X0000239058Y0000610989D01*
X0000224060Y0000610989D01*
X0000220311Y0000609114D01*
X0000218436Y0000607239D01*
X0000216561Y0000603490D01*
X0000216561Y0000597865D01*
X0000218436Y0000594116D01*
X0000220311Y0000592241D01*
X0000224060Y0000590366D01*
X0000239058Y0000590366D01*
X0000203438Y0000610989D02*
X0000179066Y0000610989D01*
X0000192189Y0000595991D01*
X0000186565Y0000595991D01*
X0000182815Y0000594116D01*
X0000180941Y0000592241D01*
X0000179066Y0000588491D01*
X0000179066Y0000579118D01*
X0000180941Y0000575368D01*
X0000182815Y0000573493D01*
X0000186565Y0000571619D01*
X0000197814Y0000571619D01*
X0000201563Y0000573493D01*
X0000203438Y0000575368D01*
X0000632485Y0000181249D02*
X0000630610Y0000184999D01*
X0000626860Y0000188748D01*
X0000621236Y0000194373D01*
X0000619361Y0000198122D01*
X0000619361Y0000201872D01*
X0000628735Y0000199997D02*
X0000626860Y0000203746D01*
X0000623111Y0000207496D01*
X0000615612Y0000209371D01*
X0000602488Y0000209371D01*
X0000594989Y0000207496D01*
X0000591240Y0000203746D01*
X0000589365Y0000199997D01*
X0000589365Y0000192498D01*
X0000591240Y0000188748D01*
X0000594989Y0000184999D01*
X0000602488Y0000183124D01*
X0000615612Y0000183124D01*
X0000623111Y0000184999D01*
X0000626860Y0000188748D01*
X0000628735Y0000192498D01*
X0000628735Y0000199997D01*
X0000593115Y0000168126D02*
X0000591240Y0000166251D01*
X0000589365Y0000162502D01*
X0000589365Y0000153128D01*
X0000591240Y0000149378D01*
X0000593115Y0000147503D01*
X0000596864Y0000145629D01*
X0000600614Y0000145629D01*
X0000606238Y0000147503D01*
X0000628735Y0000170001D01*
X0000628735Y0000145629D01*
X0000332485Y0000181249D02*
X0000330610Y0000184999D01*
X0000326860Y0000188748D01*
X0000321236Y0000194373D01*
X0000319361Y0000198122D01*
X0000319361Y0000201872D01*
X0000328735Y0000199997D02*
X0000326860Y0000203746D01*
X0000323111Y0000207496D01*
X0000315612Y0000209371D01*
X0000302488Y0000209371D01*
X0000294989Y0000207496D01*
X0000291240Y0000203746D01*
X0000289365Y0000199997D01*
X0000289365Y0000192498D01*
X0000291240Y0000188748D01*
X0000294989Y0000184999D01*
X0000302488Y0000183124D01*
X0000315612Y0000183124D01*
X0000323111Y0000184999D01*
X0000326860Y0000188748D01*
X0000328735Y0000192498D01*
X0000328735Y0000199997D01*
X0000328735Y0000145629D02*
X0000328735Y0000168126D01*
X0000328735Y0000156877D02*
X0000289365Y0000156877D01*
X0000294989Y0000160627D01*
X0000298739Y0000164376D01*
X0000300614Y0000168126D01*
G04 next file*
G04 #@! TF.GenerationSoftware,KiCad,Pcbnew,(5.0.2)-1*
G04 #@! TF.CreationDate,2019-07-10T16:32:42+02:00*
G04 #@! TF.ProjectId,joystick tester systest,6a6f7973-7469-4636-9b20-746573746572,rev?*
G04 #@! TF.SameCoordinates,Original*
G04 #@! TF.FileFunction,Legend,Bot*
G04 #@! TF.FilePolarity,Positive*
G04 Gerber Fmt 4.6, Leading zero omitted, Abs format (unit mm)*
G04 Created by KiCad (PCBNEW (5.0.2)-1) date 10-7-2019 16:32:42*
G01G01*
G04 APERTURE LIST*
G04 APERTURE END LIST*
D23*
X0000524779Y0001811571D02*
X0000524779Y0001862752D01*
X0000500407Y0001811571D02*
X0000500407Y0001862752D01*
X0000471161Y0001811571D01*
X0000471161Y0001862752D01*
X0000454100Y0001862752D02*
X0000424854Y0001862752D01*
X0000439477Y0001811571D02*
X0000439477Y0001862752D01*
X0000398045Y0001862752D02*
X0000388296Y0001862752D01*
X0000383422Y0001860314D01*
X0000378547Y0001855440D01*
X0000376110Y0001845691D01*
X0000376110Y0001828631D01*
X0000378547Y0001818882D01*
X0000383422Y0001814008D01*
X0000388296Y0001811571D01*
X0000398045Y0001811571D01*
X0000402919Y0001814008D01*
X0000407794Y0001818882D01*
X0000410231Y0001828631D01*
X0000410231Y0001845691D01*
X0000407794Y0001855440D01*
X0000402919Y0001860314D01*
X0000398045Y0001862752D01*
X0000322492Y0001862752D02*
X0000293246Y0001862752D01*
X0000307869Y0001811571D02*
X0000307869Y0001862752D01*
X0000276185Y0001811571D02*
X0000276185Y0001862752D01*
X0000276185Y0001838380D02*
X0000246939Y0001838380D01*
X0000246939Y0001811571D02*
X0000246939Y0001862752D01*
X0000222567Y0001838380D02*
X0000205507Y0001838380D01*
X0000198195Y0001811571D02*
X0000222567Y0001811571D01*
X0000222567Y0001862752D01*
X0000198195Y0001862752D01*
X0000562556Y0001774169D02*
X0000550370Y0001722988D01*
X0000540621Y0001759546D01*
X0000530872Y0001722988D01*
X0000518686Y0001774169D01*
X0000489440Y0001774169D02*
X0000479691Y0001774169D01*
X0000474817Y0001771732D01*
X0000469942Y0001766857D01*
X0000467505Y0001757109D01*
X0000467505Y0001740048D01*
X0000469942Y0001730299D01*
X0000474817Y0001725425D01*
X0000479691Y0001722988D01*
X0000489440Y0001722988D01*
X0000494314Y0001725425D01*
X0000499189Y0001730299D01*
X0000501626Y0001740048D01*
X0000501626Y0001757109D01*
X0000499189Y0001766857D01*
X0000494314Y0001771732D01*
X0000489440Y0001774169D01*
X0000445570Y0001722988D02*
X0000445570Y0001774169D01*
X0000416324Y0001722988D01*
X0000416324Y0001774169D01*
X0000391952Y0001722988D02*
X0000391952Y0001774169D01*
X0000379766Y0001774169D01*
X0000372454Y0001771732D01*
X0000367580Y0001766857D01*
X0000365143Y0001761983D01*
X0000362706Y0001752234D01*
X0000362706Y0001744923D01*
X0000365143Y0001735174D01*
X0000367580Y0001730299D01*
X0000372454Y0001725425D01*
X0000379766Y0001722988D01*
X0000391952Y0001722988D01*
X0000340771Y0001749797D02*
X0000323711Y0001749797D01*
X0000316399Y0001722988D02*
X0000340771Y0001722988D01*
X0000340771Y0001774169D01*
X0000316399Y0001774169D01*
X0000265218Y0001722988D02*
X0000282278Y0001747360D01*
X0000294464Y0001722988D02*
X0000294464Y0001774169D01*
X0000274967Y0001774169D01*
X0000270092Y0001771732D01*
X0000267655Y0001769295D01*
X0000265218Y0001764420D01*
X0000265218Y0001757109D01*
X0000267655Y0001752234D01*
X0000270092Y0001749797D01*
X0000274967Y0001747360D01*
X0000294464Y0001747360D01*
X0000226223Y0001749797D02*
X0000243283Y0001749797D01*
X0000243283Y0001722988D02*
X0000243283Y0001774169D01*
X0000218911Y0001774169D01*
X0000199414Y0001774169D02*
X0000199414Y0001732737D01*
X0000196976Y0001727862D01*
X0000194539Y0001725425D01*
X0000189665Y0001722988D01*
X0000179916Y0001722988D01*
X0000175042Y0001725425D01*
X0000172604Y0001727862D01*
X0000170167Y0001732737D01*
X0000170167Y0001774169D01*
X0000121423Y0001722988D02*
X0000145795Y0001722988D01*
X0000145795Y0001774169D01*
D24*
X0000063959Y0002186395D02*
X0000084956Y0002178896D01*
X0000063959Y0002171397D01*
X0000084956Y0002142901D02*
X0000084956Y0002160898D01*
X0000084956Y0002151900D02*
X0000053460Y0002151900D01*
X0000057960Y0002154899D01*
X0000060959Y0002157899D01*
X0000062459Y0002160898D01*
X0000081957Y0002129402D02*
X0000083457Y0002127903D01*
X0000084956Y0002129402D01*
X0000083457Y0002130902D01*
X0000081957Y0002129402D01*
X0000084956Y0002129402D01*
X0000084956Y0002097906D02*
X0000084956Y0002115904D01*
X0000084956Y0002106905D02*
X0000053460Y0002106905D01*
X0000057960Y0002109905D01*
X0000060959Y0002112904D01*
X0000062459Y0002115904D01*
X0000060959Y0002034914D02*
X0000059460Y0002037914D01*
X0000059460Y0002043913D01*
X0000060959Y0002046913D01*
X0000063959Y0002049912D01*
X0000066959Y0002051412D01*
X0000072958Y0002051412D01*
X0000075957Y0002049912D01*
X0000078957Y0002046913D01*
X0000080457Y0002043913D01*
X0000080457Y0002037914D01*
X0000078957Y0002034914D01*
X0000048961Y0002040913D02*
X0000050461Y0002048413D01*
X0000054960Y0002055912D01*
X0000062459Y0002060411D01*
X0000069958Y0002061911D01*
X0000077457Y0002060411D01*
X0000084956Y0002055912D01*
X0000089456Y0002048413D01*
X0000090956Y0002040913D01*
X0000089456Y0002033414D01*
X0000084956Y0002025915D01*
X0000077457Y0002021416D01*
X0000069958Y0002019916D01*
X0000062459Y0002021416D01*
X0000054960Y0002025915D01*
X0000050461Y0002033414D01*
X0000048961Y0002040913D01*
X0000056460Y0001983921D02*
X0000054960Y0001982421D01*
X0000053460Y0001979421D01*
X0000053460Y0001971922D01*
X0000054960Y0001968922D01*
X0000056460Y0001967423D01*
X0000059460Y0001965923D01*
X0000062459Y0001965923D01*
X0000066959Y0001967423D01*
X0000084956Y0001985420D01*
X0000084956Y0001965923D01*
X0000053460Y0001946425D02*
X0000053460Y0001943426D01*
X0000054960Y0001940426D01*
X0000056460Y0001938926D01*
X0000059460Y0001937426D01*
X0000065459Y0001935927D01*
X0000072958Y0001935927D01*
X0000078957Y0001937426D01*
X0000081957Y0001938926D01*
X0000083457Y0001940426D01*
X0000084956Y0001943426D01*
X0000084956Y0001946425D01*
X0000083457Y0001949425D01*
X0000081957Y0001950925D01*
X0000078957Y0001952425D01*
X0000072958Y0001953924D01*
X0000065459Y0001953924D01*
X0000059460Y0001952425D01*
X0000056460Y0001950925D01*
X0000054960Y0001949425D01*
X0000053460Y0001946425D01*
X0000084956Y0001905930D02*
X0000084956Y0001923928D01*
X0000084956Y0001914929D02*
X0000053460Y0001914929D01*
X0000057960Y0001917929D01*
X0000060959Y0001920928D01*
X0000062459Y0001923928D01*
X0000066959Y0001887933D02*
X0000065459Y0001890932D01*
X0000063959Y0001892432D01*
X0000060959Y0001893932D01*
X0000059460Y0001893932D01*
X0000056460Y0001892432D01*
X0000054960Y0001890932D01*
X0000053460Y0001887933D01*
X0000053460Y0001881933D01*
X0000054960Y0001878934D01*
X0000056460Y0001877434D01*
X0000059460Y0001875934D01*
X0000060959Y0001875934D01*
X0000063959Y0001877434D01*
X0000065459Y0001878934D01*
X0000066959Y0001881933D01*
X0000066959Y0001887933D01*
X0000068458Y0001890932D01*
X0000069958Y0001892432D01*
X0000072958Y0001893932D01*
X0000078957Y0001893932D01*
X0000081957Y0001892432D01*
X0000083457Y0001890932D01*
X0000084956Y0001887933D01*
X0000084956Y0001881933D01*
X0000083457Y0001878934D01*
X0000081957Y0001877434D01*
X0000078957Y0001875934D01*
X0000072958Y0001875934D01*
X0000069958Y0001877434D01*
X0000068458Y0001878934D01*
X0000066959Y0001881933D01*
X0000072958Y0001862436D02*
X0000072958Y0001838439D01*
X0000084956Y0001806943D02*
X0000084956Y0001824940D01*
X0000084956Y0001815942D02*
X0000053460Y0001815942D01*
X0000057960Y0001818941D01*
X0000060959Y0001821941D01*
X0000062459Y0001824940D01*
X0000084956Y0001791945D02*
X0000084956Y0001785945D01*
X0000083457Y0001782946D01*
X0000081957Y0001781446D01*
X0000077457Y0001778446D01*
X0000071458Y0001776946D01*
X0000059460Y0001776946D01*
X0000056460Y0001778446D01*
X0000054960Y0001779946D01*
X0000053460Y0001782946D01*
X0000053460Y0001788945D01*
X0000054960Y0001791945D01*
X0000056460Y0001793444D01*
X0000059460Y0001794944D01*
X0000066959Y0001794944D01*
X0000069958Y0001793444D01*
X0000071458Y0001791945D01*
X0000072958Y0001788945D01*
X0000072958Y0001782946D01*
X0000071458Y0001779946D01*
X0000069958Y0001778446D01*
X0000066959Y0001776946D01*
X0000084956Y0001739451D02*
X0000053460Y0001739451D01*
X0000065459Y0001739451D02*
X0000063959Y0001736452D01*
X0000063959Y0001730452D01*
X0000065459Y0001727453D01*
X0000066959Y0001725953D01*
X0000069958Y0001724453D01*
X0000078957Y0001724453D01*
X0000081957Y0001725953D01*
X0000083457Y0001727453D01*
X0000084956Y0001730452D01*
X0000084956Y0001736452D01*
X0000083457Y0001739451D01*
X0000063959Y0001713954D02*
X0000084956Y0001706455D01*
X0000063959Y0001698956D02*
X0000084956Y0001706455D01*
X0000092455Y0001709455D01*
X0000093955Y0001710955D01*
X0000095455Y0001713954D01*
X0000053460Y0001667460D02*
X0000053460Y0001649462D01*
X0000084956Y0001658461D02*
X0000053460Y0001658461D01*
X0000083457Y0001640464D02*
X0000084956Y0001635964D01*
X0000084956Y0001628465D01*
X0000083457Y0001625465D01*
X0000081957Y0001623966D01*
X0000078957Y0001622466D01*
X0000075957Y0001622466D01*
X0000072958Y0001623966D01*
X0000071458Y0001625465D01*
X0000069958Y0001628465D01*
X0000068458Y0001634464D01*
X0000066959Y0001637464D01*
X0000065459Y0001638964D01*
X0000062459Y0001640464D01*
X0000059460Y0001640464D01*
X0000056460Y0001638964D01*
X0000054960Y0001637464D01*
X0000053460Y0001634464D01*
X0000053460Y0001626965D01*
X0000054960Y0001622466D01*
X0000068458Y0001598469D02*
X0000069958Y0001593969D01*
X0000071458Y0001592470D01*
X0000074458Y0001590970D01*
X0000078957Y0001590970D01*
X0000081957Y0001592470D01*
X0000083457Y0001593969D01*
X0000084956Y0001596969D01*
X0000084956Y0001608967D01*
X0000053460Y0001608967D01*
X0000053460Y0001598469D01*
X0000054960Y0001595469D01*
X0000056460Y0001593969D01*
X0000059460Y0001592470D01*
X0000062459Y0001592470D01*
X0000065459Y0001593969D01*
X0000066959Y0001595469D01*
X0000068458Y0001598469D01*
X0000068458Y0001608967D01*
G04 #@! TO.C,U2*
X0000183208Y0002230433D02*
X0000213208Y0002230433D01*
X0000213208Y0002230433D02*
X0000213208Y0002290433D01*
X0000213208Y0002290433D02*
X0000183208Y0002290433D01*
X0000623208Y0002170433D02*
X0000623208Y0002350433D01*
X0000623208Y0002350433D02*
X0000183208Y0002350433D01*
X0000183208Y0002350433D02*
X0000183208Y0002170433D01*
X0000183208Y0002170433D02*
X0000623208Y0002170433D01*
D25*
G04 #@! TO.C,J1*
X0000137047Y0002787027D02*
X0000137047Y0002586240D01*
X0000137047Y0002586240D02*
X0000552401Y0002586240D01*
X0000552401Y0002586240D02*
X0000552401Y0002785059D01*
G04 #@! TO.C,R1*
X0000394586Y0001943287D02*
X0000441830Y0001943287D01*
X0000441830Y0002012578D02*
X0000394586Y0002012578D01*
G04 #@! TO.C,R3*
X0000194586Y0001945787D02*
X0000241830Y0001945787D01*
X0000241830Y0002015078D02*
X0000194586Y0002015078D01*
G04 #@! TO.C,Q2*
X0000458503Y0001665354D02*
X0000495118Y0001665354D01*
X0000582913Y0001665354D02*
X0000546299Y0001665354D01*
X0000582913Y0001665354D02*
X0000582913Y0001580314D01*
X0000458503Y0001665354D02*
X0000458503Y0001607874D01*
G04 #@! TO.C,Q1*
X0000158503Y0001665354D02*
X0000195118Y0001665354D01*
X0000282913Y0001665354D02*
X0000246299Y0001665354D01*
X0000282913Y0001665354D02*
X0000282913Y0001580314D01*
X0000158503Y0001665354D02*
X0000158503Y0001607874D01*
G04 #@! TO.C,U2*
D24*
X0000180704Y0002416992D02*
X0000180704Y0002385121D01*
X0000178830Y0002381372D01*
X0000176955Y0002379497D01*
X0000173205Y0002377622D01*
X0000165706Y0002377622D01*
X0000161957Y0002379497D01*
X0000160082Y0002381372D01*
X0000158207Y0002385121D01*
X0000158207Y0002416992D01*
X0000141334Y0002413243D02*
X0000139460Y0002415118D01*
X0000135710Y0002416992D01*
X0000126336Y0002416992D01*
X0000122587Y0002415118D01*
X0000120712Y0002413243D01*
X0000118837Y0002409493D01*
X0000118837Y0002405744D01*
X0000120712Y0002400120D01*
X0000143209Y0002377622D01*
X0000118837Y0002377622D01*
G04 #@! TO.C,R1*
X0000424770Y0002027051D02*
X0000437893Y0002045799D01*
X0000447267Y0002027051D02*
X0000447267Y0002066422D01*
X0000432269Y0002066422D01*
X0000428519Y0002064547D01*
X0000426645Y0002062672D01*
X0000424770Y0002058922D01*
X0000424770Y0002053298D01*
X0000426645Y0002049549D01*
X0000428519Y0002047674D01*
X0000432269Y0002045799D01*
X0000447267Y0002045799D01*
X0000387274Y0002027051D02*
X0000409772Y0002027051D01*
X0000398523Y0002027051D02*
X0000398523Y0002066422D01*
X0000402273Y0002060797D01*
X0000406022Y0002057048D01*
X0000409772Y0002055173D01*
G04 #@! TO.C,R3*
X0000224770Y0002029551D02*
X0000237893Y0002048299D01*
X0000247267Y0002029551D02*
X0000247267Y0002068922D01*
X0000232269Y0002068922D01*
X0000228519Y0002067047D01*
X0000226645Y0002065172D01*
X0000224770Y0002061422D01*
X0000224770Y0002055798D01*
X0000226645Y0002052049D01*
X0000228519Y0002050174D01*
X0000232269Y0002048299D01*
X0000247267Y0002048299D01*
X0000211646Y0002068922D02*
X0000187275Y0002068922D01*
X0000200398Y0002053923D01*
X0000194774Y0002053923D01*
X0000191024Y0002052049D01*
X0000189149Y0002050174D01*
X0000187275Y0002046424D01*
X0000187275Y0002037051D01*
X0000189149Y0002033301D01*
X0000191024Y0002031426D01*
X0000194774Y0002029551D01*
X0000206022Y0002029551D01*
X0000209772Y0002031426D01*
X0000211646Y0002033301D01*
G04 #@! TO.C,Q2*
X0000640693Y0001639182D02*
X0000638818Y0001642932D01*
X0000635069Y0001646681D01*
X0000629445Y0001652305D01*
X0000627570Y0001656055D01*
X0000627570Y0001659805D01*
X0000636944Y0001657930D02*
X0000635069Y0001661679D01*
X0000631319Y0001665429D01*
X0000623820Y0001667304D01*
X0000610697Y0001667304D01*
X0000603198Y0001665429D01*
X0000599448Y0001661679D01*
X0000597574Y0001657930D01*
X0000597574Y0001650431D01*
X0000599448Y0001646681D01*
X0000603198Y0001642932D01*
X0000610697Y0001641057D01*
X0000623820Y0001641057D01*
X0000631319Y0001642932D01*
X0000635069Y0001646681D01*
X0000636944Y0001650431D01*
X0000636944Y0001657930D01*
X0000601323Y0001626059D02*
X0000599448Y0001624184D01*
X0000597574Y0001620434D01*
X0000597574Y0001611061D01*
X0000599448Y0001607311D01*
X0000601323Y0001605436D01*
X0000605073Y0001603562D01*
X0000608822Y0001603562D01*
X0000614446Y0001605436D01*
X0000636944Y0001627934D01*
X0000636944Y0001603562D01*
G04 #@! TO.C,Q1*
X0000340693Y0001639182D02*
X0000338818Y0001642932D01*
X0000335069Y0001646681D01*
X0000329445Y0001652305D01*
X0000327570Y0001656055D01*
X0000327570Y0001659805D01*
X0000336944Y0001657930D02*
X0000335069Y0001661679D01*
X0000331319Y0001665429D01*
X0000323820Y0001667304D01*
X0000310697Y0001667304D01*
X0000303198Y0001665429D01*
X0000299448Y0001661679D01*
X0000297574Y0001657930D01*
X0000297574Y0001650431D01*
X0000299448Y0001646681D01*
X0000303198Y0001642932D01*
X0000310697Y0001641057D01*
X0000323820Y0001641057D01*
X0000331319Y0001642932D01*
X0000335069Y0001646681D01*
X0000336944Y0001650431D01*
X0000336944Y0001657930D01*
X0000336944Y0001603562D02*
X0000336944Y0001626059D01*
X0000336944Y0001614810D02*
X0000297574Y0001614810D01*
X0000303198Y0001618560D01*
X0000306947Y0001622309D01*
X0000308822Y0001626059D01*
G04 #@! TD*
G04 next file*
G04 #@! TF.GenerationSoftware,KiCad,Pcbnew,(5.0.2)-1*
G04 #@! TF.CreationDate,2019-07-10T16:32:42+02:00*
G04 #@! TF.ProjectId,joystick tester systest,6a6f7973-7469-4636-9b20-746573746572,rev?*
G04 #@! TF.SameCoordinates,Original*
G04 #@! TF.FileFunction,Legend,Bot*
G04 #@! TF.FilePolarity,Positive*
G04 Gerber Fmt 4.6, Leading zero omitted, Abs format (unit mm)*
G04 Created by KiCad (PCBNEW (5.0.2)-1) date 10-7-2019 16:32:42*
G01G01*
G04 APERTURE LIST*
G04 APERTURE END LIST*
D26*
X0001272811Y0000354878D02*
X0001272811Y0000406059D01*
X0001248439Y0000354878D02*
X0001248439Y0000406059D01*
X0001219192Y0000354878D01*
X0001219192Y0000406059D01*
X0001202132Y0000406059D02*
X0001172886Y0000406059D01*
X0001187509Y0000354878D02*
X0001187509Y0000406059D01*
X0001146077Y0000406059D02*
X0001136328Y0000406059D01*
X0001131453Y0000403622D01*
X0001126579Y0000398747D01*
X0001124142Y0000388998D01*
X0001124142Y0000371938D01*
X0001126579Y0000362189D01*
X0001131453Y0000357315D01*
X0001136328Y0000354878D01*
X0001146077Y0000354878D01*
X0001150951Y0000357315D01*
X0001155825Y0000362189D01*
X0001158262Y0000371938D01*
X0001158262Y0000388998D01*
X0001155825Y0000398747D01*
X0001150951Y0000403622D01*
X0001146077Y0000406059D01*
X0001070523Y0000406059D02*
X0001041277Y0000406059D01*
X0001055900Y0000354878D02*
X0001055900Y0000406059D01*
X0001024217Y0000354878D02*
X0001024217Y0000406059D01*
X0001024217Y0000381687D02*
X0000994970Y0000381687D01*
X0000994970Y0000354878D02*
X0000994970Y0000406059D01*
X0000970598Y0000381687D02*
X0000953538Y0000381687D01*
X0000946227Y0000354878D02*
X0000970598Y0000354878D01*
X0000970598Y0000406059D01*
X0000946227Y0000406059D01*
X0001310587Y0000317476D02*
X0001298401Y0000266295D01*
X0001288652Y0000302853D01*
X0001278904Y0000266295D01*
X0001266718Y0000317476D01*
X0001237471Y0000317476D02*
X0001227723Y0000317476D01*
X0001222848Y0000315039D01*
X0001217974Y0000310165D01*
X0001215537Y0000300416D01*
X0001215537Y0000283355D01*
X0001217974Y0000273607D01*
X0001222848Y0000268732D01*
X0001227723Y0000266295D01*
X0001237471Y0000266295D01*
X0001242346Y0000268732D01*
X0001247220Y0000273607D01*
X0001249657Y0000283355D01*
X0001249657Y0000300416D01*
X0001247220Y0000310165D01*
X0001242346Y0000315039D01*
X0001237471Y0000317476D01*
X0001193602Y0000266295D02*
X0001193602Y0000317476D01*
X0001164355Y0000266295D01*
X0001164355Y0000317476D01*
X0001139984Y0000266295D02*
X0001139984Y0000317476D01*
X0001127798Y0000317476D01*
X0001120486Y0000315039D01*
X0001115612Y0000310165D01*
X0001113174Y0000305290D01*
X0001110737Y0000295541D01*
X0001110737Y0000288230D01*
X0001113174Y0000278481D01*
X0001115612Y0000273607D01*
X0001120486Y0000268732D01*
X0001127798Y0000266295D01*
X0001139984Y0000266295D01*
X0001088802Y0000293104D02*
X0001071742Y0000293104D01*
X0001064430Y0000266295D02*
X0001088802Y0000266295D01*
X0001088802Y0000317476D01*
X0001064430Y0000317476D01*
X0001013249Y0000266295D02*
X0001030310Y0000290667D01*
X0001042496Y0000266295D02*
X0001042496Y0000317476D01*
X0001022998Y0000317476D01*
X0001018124Y0000315039D01*
X0001015687Y0000312602D01*
X0001013249Y0000307727D01*
X0001013249Y0000300416D01*
X0001015687Y0000295541D01*
X0001018124Y0000293104D01*
X0001022998Y0000290667D01*
X0001042496Y0000290667D01*
X0000974254Y0000293104D02*
X0000991315Y0000293104D01*
X0000991315Y0000266295D02*
X0000991315Y0000317476D01*
X0000966943Y0000317476D01*
X0000947445Y0000317476D02*
X0000947445Y0000276044D01*
X0000945008Y0000271169D01*
X0000942571Y0000268732D01*
X0000937696Y0000266295D01*
X0000927948Y0000266295D01*
X0000923073Y0000268732D01*
X0000920636Y0000271169D01*
X0000918199Y0000276044D01*
X0000918199Y0000317476D01*
X0000869455Y0000266295D02*
X0000893827Y0000266295D01*
X0000893827Y0000317476D01*
D27*
X0000811990Y0000729702D02*
X0000832988Y0000722203D01*
X0000811990Y0000714704D01*
X0000832988Y0000686208D02*
X0000832988Y0000704206D01*
X0000832988Y0000695207D02*
X0000801492Y0000695207D01*
X0000805991Y0000698206D01*
X0000808991Y0000701206D01*
X0000810491Y0000704206D01*
X0000829988Y0000672709D02*
X0000831488Y0000671210D01*
X0000832988Y0000672709D01*
X0000831488Y0000674209D01*
X0000829988Y0000672709D01*
X0000832988Y0000672709D01*
X0000832988Y0000641213D02*
X0000832988Y0000659211D01*
X0000832988Y0000650212D02*
X0000801492Y0000650212D01*
X0000805991Y0000653212D01*
X0000808991Y0000656212D01*
X0000810491Y0000659211D01*
X0000808991Y0000578221D02*
X0000807491Y0000581221D01*
X0000807491Y0000587220D01*
X0000808991Y0000590220D01*
X0000811990Y0000593219D01*
X0000814990Y0000594719D01*
X0000820989Y0000594719D01*
X0000823989Y0000593219D01*
X0000826989Y0000590220D01*
X0000828488Y0000587220D01*
X0000828488Y0000581221D01*
X0000826989Y0000578221D01*
X0000796992Y0000584221D02*
X0000798492Y0000591720D01*
X0000802992Y0000599219D01*
X0000810491Y0000603718D01*
X0000817990Y0000605218D01*
X0000825489Y0000603718D01*
X0000832988Y0000599219D01*
X0000837487Y0000591720D01*
X0000838987Y0000584221D01*
X0000837487Y0000576722D01*
X0000832988Y0000569222D01*
X0000825489Y0000564723D01*
X0000817990Y0000563223D01*
X0000810491Y0000564723D01*
X0000802992Y0000569222D01*
X0000798492Y0000576722D01*
X0000796992Y0000584221D01*
X0000804491Y0000527228D02*
X0000802992Y0000525728D01*
X0000801492Y0000522728D01*
X0000801492Y0000515229D01*
X0000802992Y0000512230D01*
X0000804491Y0000510730D01*
X0000807491Y0000509230D01*
X0000810491Y0000509230D01*
X0000814990Y0000510730D01*
X0000832988Y0000528727D01*
X0000832988Y0000509230D01*
X0000801492Y0000489732D02*
X0000801492Y0000486733D01*
X0000802992Y0000483733D01*
X0000804491Y0000482233D01*
X0000807491Y0000480733D01*
X0000813490Y0000479234D01*
X0000820989Y0000479234D01*
X0000826989Y0000480733D01*
X0000829988Y0000482233D01*
X0000831488Y0000483733D01*
X0000832988Y0000486733D01*
X0000832988Y0000489732D01*
X0000831488Y0000492732D01*
X0000829988Y0000494232D01*
X0000826989Y0000495732D01*
X0000820989Y0000497231D01*
X0000813490Y0000497231D01*
X0000807491Y0000495732D01*
X0000804491Y0000494232D01*
X0000802992Y0000492732D01*
X0000801492Y0000489732D01*
X0000832988Y0000449237D02*
X0000832988Y0000467235D01*
X0000832988Y0000458236D02*
X0000801492Y0000458236D01*
X0000805991Y0000461236D01*
X0000808991Y0000464236D01*
X0000810491Y0000467235D01*
X0000814990Y0000431240D02*
X0000813490Y0000434239D01*
X0000811990Y0000435739D01*
X0000808991Y0000437239D01*
X0000807491Y0000437239D01*
X0000804491Y0000435739D01*
X0000802992Y0000434239D01*
X0000801492Y0000431240D01*
X0000801492Y0000425240D01*
X0000802992Y0000422241D01*
X0000804491Y0000420741D01*
X0000807491Y0000419241D01*
X0000808991Y0000419241D01*
X0000811990Y0000420741D01*
X0000813490Y0000422241D01*
X0000814990Y0000425240D01*
X0000814990Y0000431240D01*
X0000816490Y0000434239D01*
X0000817990Y0000435739D01*
X0000820989Y0000437239D01*
X0000826989Y0000437239D01*
X0000829988Y0000435739D01*
X0000831488Y0000434239D01*
X0000832988Y0000431240D01*
X0000832988Y0000425240D01*
X0000831488Y0000422241D01*
X0000829988Y0000420741D01*
X0000826989Y0000419241D01*
X0000820989Y0000419241D01*
X0000817990Y0000420741D01*
X0000816490Y0000422241D01*
X0000814990Y0000425240D01*
X0000820989Y0000405743D02*
X0000820989Y0000381746D01*
X0000832988Y0000350250D02*
X0000832988Y0000368247D01*
X0000832988Y0000359249D02*
X0000801492Y0000359249D01*
X0000805991Y0000362248D01*
X0000808991Y0000365248D01*
X0000810491Y0000368247D01*
X0000832988Y0000335252D02*
X0000832988Y0000329252D01*
X0000831488Y0000326253D01*
X0000829988Y0000324753D01*
X0000825489Y0000321753D01*
X0000819490Y0000320254D01*
X0000807491Y0000320254D01*
X0000804491Y0000321753D01*
X0000802992Y0000323253D01*
X0000801492Y0000326253D01*
X0000801492Y0000332252D01*
X0000802992Y0000335252D01*
X0000804491Y0000336751D01*
X0000807491Y0000338251D01*
X0000814990Y0000338251D01*
X0000817990Y0000336751D01*
X0000819490Y0000335252D01*
X0000820989Y0000332252D01*
X0000820989Y0000326253D01*
X0000819490Y0000323253D01*
X0000817990Y0000321753D01*
X0000814990Y0000320254D01*
X0000832988Y0000282758D02*
X0000801492Y0000282758D01*
X0000813490Y0000282758D02*
X0000811990Y0000279759D01*
X0000811990Y0000273759D01*
X0000813490Y0000270760D01*
X0000814990Y0000269260D01*
X0000817990Y0000267760D01*
X0000826989Y0000267760D01*
X0000829988Y0000269260D01*
X0000831488Y0000270760D01*
X0000832988Y0000273759D01*
X0000832988Y0000279759D01*
X0000831488Y0000282758D01*
X0000811990Y0000257261D02*
X0000832988Y0000249762D01*
X0000811990Y0000242263D02*
X0000832988Y0000249762D01*
X0000840487Y0000252762D01*
X0000841987Y0000254262D01*
X0000843487Y0000257261D01*
X0000801492Y0000210767D02*
X0000801492Y0000192770D01*
X0000832988Y0000201768D02*
X0000801492Y0000201768D01*
X0000831488Y0000183771D02*
X0000832988Y0000179271D01*
X0000832988Y0000171772D01*
X0000831488Y0000168772D01*
X0000829988Y0000167273D01*
X0000826989Y0000165773D01*
X0000823989Y0000165773D01*
X0000820989Y0000167273D01*
X0000819490Y0000168772D01*
X0000817990Y0000171772D01*
X0000816490Y0000177771D01*
X0000814990Y0000180771D01*
X0000813490Y0000182271D01*
X0000810491Y0000183771D01*
X0000807491Y0000183771D01*
X0000804491Y0000182271D01*
X0000802992Y0000180771D01*
X0000801492Y0000177771D01*
X0000801492Y0000170272D01*
X0000802992Y0000165773D01*
X0000816490Y0000141776D02*
X0000817990Y0000137276D01*
X0000819490Y0000135777D01*
X0000822489Y0000134277D01*
X0000826989Y0000134277D01*
X0000829988Y0000135777D01*
X0000831488Y0000137276D01*
X0000832988Y0000140276D01*
X0000832988Y0000152275D01*
X0000801492Y0000152275D01*
X0000801492Y0000141776D01*
X0000802992Y0000138776D01*
X0000804491Y0000137276D01*
X0000807491Y0000135777D01*
X0000810491Y0000135777D01*
X0000813490Y0000137276D01*
X0000814990Y0000138776D01*
X0000816490Y0000141776D01*
X0000816490Y0000152275D01*
G04 #@! TO.C,U2*
X0000931240Y0000773740D02*
X0000961240Y0000773740D01*
X0000961240Y0000773740D02*
X0000961240Y0000833740D01*
X0000961240Y0000833740D02*
X0000931240Y0000833740D01*
X0001371240Y0000713740D02*
X0001371240Y0000893740D01*
X0001371240Y0000893740D02*
X0000931240Y0000893740D01*
X0000931240Y0000893740D02*
X0000931240Y0000713740D01*
X0000931240Y0000713740D02*
X0001371240Y0000713740D01*
D28*
G04 #@! TO.C,J1*
X0000885078Y0001330334D02*
X0000885078Y0001129547D01*
X0000885078Y0001129547D02*
X0001300433Y0001129547D01*
X0001300433Y0001129547D02*
X0001300433Y0001328366D01*
G04 #@! TO.C,R1*
X0001142618Y0000486594D02*
X0001189862Y0000486594D01*
X0001189862Y0000555885D02*
X0001142618Y0000555885D01*
G04 #@! TO.C,R3*
X0000942618Y0000489094D02*
X0000989862Y0000489094D01*
X0000989862Y0000558385D02*
X0000942618Y0000558385D01*
G04 #@! TO.C,Q2*
X0001206535Y0000208661D02*
X0001243149Y0000208661D01*
X0001330944Y0000208661D02*
X0001294330Y0000208661D01*
X0001330944Y0000208661D02*
X0001330944Y0000123622D01*
X0001206535Y0000208661D02*
X0001206535Y0000151181D01*
G04 #@! TO.C,Q1*
X0000906535Y0000208661D02*
X0000943149Y0000208661D01*
X0001030944Y0000208661D02*
X0000994330Y0000208661D01*
X0001030944Y0000208661D02*
X0001030944Y0000123622D01*
X0000906535Y0000208661D02*
X0000906535Y0000151181D01*
G04 #@! TO.C,U2*
D27*
X0000928736Y0000960300D02*
X0000928736Y0000928428D01*
X0000926861Y0000924679D01*
X0000924986Y0000922804D01*
X0000921237Y0000920929D01*
X0000913738Y0000920929D01*
X0000909988Y0000922804D01*
X0000908113Y0000924679D01*
X0000906239Y0000928428D01*
X0000906239Y0000960300D01*
X0000889366Y0000956550D02*
X0000887491Y0000958425D01*
X0000883741Y0000960300D01*
X0000874368Y0000960300D01*
X0000870618Y0000958425D01*
X0000868743Y0000956550D01*
X0000866869Y0000952800D01*
X0000866869Y0000949051D01*
X0000868743Y0000943427D01*
X0000891241Y0000920929D01*
X0000866869Y0000920929D01*
G04 #@! TO.C,R1*
X0001172801Y0000570359D02*
X0001185925Y0000589106D01*
X0001195298Y0000570359D02*
X0001195298Y0000609729D01*
X0001180300Y0000609729D01*
X0001176551Y0000607854D01*
X0001174676Y0000605979D01*
X0001172801Y0000602230D01*
X0001172801Y0000596605D01*
X0001174676Y0000592856D01*
X0001176551Y0000590981D01*
X0001180300Y0000589106D01*
X0001195298Y0000589106D01*
X0001135306Y0000570359D02*
X0001157803Y0000570359D01*
X0001146555Y0000570359D02*
X0001146555Y0000609729D01*
X0001150304Y0000604104D01*
X0001154054Y0000600355D01*
X0001157803Y0000598480D01*
G04 #@! TO.C,R3*
X0000972801Y0000572859D02*
X0000985925Y0000591606D01*
X0000995299Y0000572859D02*
X0000995299Y0000612229D01*
X0000980300Y0000612229D01*
X0000976551Y0000610354D01*
X0000974676Y0000608479D01*
X0000972801Y0000604730D01*
X0000972801Y0000599105D01*
X0000974676Y0000595356D01*
X0000976551Y0000593481D01*
X0000980300Y0000591606D01*
X0000995299Y0000591606D01*
X0000959678Y0000612229D02*
X0000935306Y0000612229D01*
X0000948429Y0000597230D01*
X0000942805Y0000597230D01*
X0000939056Y0000595356D01*
X0000937181Y0000593481D01*
X0000935306Y0000589731D01*
X0000935306Y0000580358D01*
X0000937181Y0000576608D01*
X0000939056Y0000574733D01*
X0000942805Y0000572859D01*
X0000954054Y0000572859D01*
X0000957803Y0000574733D01*
X0000959678Y0000576608D01*
G04 #@! TO.C,Q2*
X0001388725Y0000182489D02*
X0001386850Y0000186239D01*
X0001383100Y0000189988D01*
X0001377476Y0000195613D01*
X0001375601Y0000199362D01*
X0001375601Y0000203112D01*
X0001384975Y0000201237D02*
X0001383100Y0000204986D01*
X0001379351Y0000208736D01*
X0001371852Y0000210611D01*
X0001358728Y0000210611D01*
X0001351229Y0000208736D01*
X0001347480Y0000204986D01*
X0001345605Y0000201237D01*
X0001345605Y0000193738D01*
X0001347480Y0000189988D01*
X0001351229Y0000186239D01*
X0001358728Y0000184364D01*
X0001371852Y0000184364D01*
X0001379351Y0000186239D01*
X0001383100Y0000189988D01*
X0001384975Y0000193738D01*
X0001384975Y0000201237D01*
X0001349355Y0000169366D02*
X0001347480Y0000167491D01*
X0001345605Y0000163742D01*
X0001345605Y0000154368D01*
X0001347480Y0000150618D01*
X0001349355Y0000148743D01*
X0001353104Y0000146869D01*
X0001356854Y0000146869D01*
X0001362478Y0000148743D01*
X0001384975Y0000171241D01*
X0001384975Y0000146869D01*
G04 #@! TO.C,Q1*
X0001088725Y0000182489D02*
X0001086850Y0000186239D01*
X0001083100Y0000189988D01*
X0001077476Y0000195613D01*
X0001075601Y0000199362D01*
X0001075601Y0000203112D01*
X0001084975Y0000201237D02*
X0001083100Y0000204986D01*
X0001079351Y0000208736D01*
X0001071852Y0000210611D01*
X0001058728Y0000210611D01*
X0001051229Y0000208736D01*
X0001047480Y0000204986D01*
X0001045605Y0000201237D01*
X0001045605Y0000193738D01*
X0001047480Y0000189988D01*
X0001051229Y0000186239D01*
X0001058728Y0000184364D01*
X0001071852Y0000184364D01*
X0001079351Y0000186239D01*
X0001083100Y0000189988D01*
X0001084975Y0000193738D01*
X0001084975Y0000201237D01*
X0001084975Y0000146869D02*
X0001084975Y0000169366D01*
X0001084975Y0000158117D02*
X0001045605Y0000158117D01*
X0001051229Y0000161867D01*
X0001054979Y0000165616D01*
X0001056854Y0000169366D01*
G04 #@! TD*
G04 next file*
G04 #@! TF.GenerationSoftware,KiCad,Pcbnew,(5.0.2)-1*
G04 #@! TF.CreationDate,2019-07-10T16:32:42+02:00*
G04 #@! TF.ProjectId,joystick tester systest,6a6f7973-7469-4636-9b20-746573746572,rev?*
G04 #@! TF.SameCoordinates,Original*
G04 #@! TF.FileFunction,Legend,Bot*
G04 #@! TF.FilePolarity,Positive*
G04 Gerber Fmt 4.6, Leading zero omitted, Abs format (unit mm)*
G04 Created by KiCad (PCBNEW (5.0.2)-1) date 10-7-2019 16:32:42*
G01G01*
G04 APERTURE LIST*
G04 APERTURE END LIST*
D29*
X0002020842Y0000354878D02*
X0002020842Y0000406059D01*
X0001996470Y0000354878D02*
X0001996470Y0000406059D01*
X0001967224Y0000354878D01*
X0001967224Y0000406059D01*
X0001950164Y0000406059D02*
X0001920917Y0000406059D01*
X0001935540Y0000354878D02*
X0001935540Y0000406059D01*
X0001894108Y0000406059D02*
X0001884359Y0000406059D01*
X0001879485Y0000403622D01*
X0001874610Y0000398747D01*
X0001872173Y0000388998D01*
X0001872173Y0000371938D01*
X0001874610Y0000362189D01*
X0001879485Y0000357315D01*
X0001884359Y0000354878D01*
X0001894108Y0000354878D01*
X0001898982Y0000357315D01*
X0001903857Y0000362189D01*
X0001906294Y0000371938D01*
X0001906294Y0000388998D01*
X0001903857Y0000398747D01*
X0001898982Y0000403622D01*
X0001894108Y0000406059D01*
X0001818555Y0000406059D02*
X0001789309Y0000406059D01*
X0001803932Y0000354878D02*
X0001803932Y0000406059D01*
X0001772248Y0000354878D02*
X0001772248Y0000406059D01*
X0001772248Y0000381687D02*
X0001743002Y0000381687D01*
X0001743002Y0000354878D02*
X0001743002Y0000406059D01*
X0001718630Y0000381687D02*
X0001701570Y0000381687D01*
X0001694258Y0000354878D02*
X0001718630Y0000354878D01*
X0001718630Y0000406059D01*
X0001694258Y0000406059D01*
X0002058619Y0000317476D02*
X0002046433Y0000266295D01*
X0002036684Y0000302853D01*
X0002026935Y0000266295D01*
X0002014749Y0000317476D01*
X0001985503Y0000317476D02*
X0001975754Y0000317476D01*
X0001970880Y0000315039D01*
X0001966005Y0000310165D01*
X0001963568Y0000300416D01*
X0001963568Y0000283355D01*
X0001966005Y0000273607D01*
X0001970880Y0000268732D01*
X0001975754Y0000266295D01*
X0001985503Y0000266295D01*
X0001990377Y0000268732D01*
X0001995252Y0000273607D01*
X0001997689Y0000283355D01*
X0001997689Y0000300416D01*
X0001995252Y0000310165D01*
X0001990377Y0000315039D01*
X0001985503Y0000317476D01*
X0001941633Y0000266295D02*
X0001941633Y0000317476D01*
X0001912387Y0000266295D01*
X0001912387Y0000317476D01*
X0001888015Y0000266295D02*
X0001888015Y0000317476D01*
X0001875829Y0000317476D01*
X0001868517Y0000315039D01*
X0001863643Y0000310165D01*
X0001861206Y0000305290D01*
X0001858769Y0000295541D01*
X0001858769Y0000288230D01*
X0001861206Y0000278481D01*
X0001863643Y0000273607D01*
X0001868517Y0000268732D01*
X0001875829Y0000266295D01*
X0001888015Y0000266295D01*
X0001836834Y0000293104D02*
X0001819774Y0000293104D01*
X0001812462Y0000266295D02*
X0001836834Y0000266295D01*
X0001836834Y0000317476D01*
X0001812462Y0000317476D01*
X0001761281Y0000266295D02*
X0001778341Y0000290667D01*
X0001790527Y0000266295D02*
X0001790527Y0000317476D01*
X0001771030Y0000317476D01*
X0001766155Y0000315039D01*
X0001763718Y0000312602D01*
X0001761281Y0000307727D01*
X0001761281Y0000300416D01*
X0001763718Y0000295541D01*
X0001766155Y0000293104D01*
X0001771030Y0000290667D01*
X0001790527Y0000290667D01*
X0001722286Y0000293104D02*
X0001739346Y0000293104D01*
X0001739346Y0000266295D02*
X0001739346Y0000317476D01*
X0001714974Y0000317476D01*
X0001695477Y0000317476D02*
X0001695477Y0000276044D01*
X0001693039Y0000271169D01*
X0001690602Y0000268732D01*
X0001685728Y0000266295D01*
X0001675979Y0000266295D01*
X0001671105Y0000268732D01*
X0001668667Y0000271169D01*
X0001666230Y0000276044D01*
X0001666230Y0000317476D01*
X0001617486Y0000266295D02*
X0001641858Y0000266295D01*
X0001641858Y0000317476D01*
D30*
X0001560022Y0000729702D02*
X0001581019Y0000722203D01*
X0001560022Y0000714704D01*
X0001581019Y0000686208D02*
X0001581019Y0000704206D01*
X0001581019Y0000695207D02*
X0001549523Y0000695207D01*
X0001554023Y0000698206D01*
X0001557022Y0000701206D01*
X0001558522Y0000704206D01*
X0001578020Y0000672709D02*
X0001579520Y0000671210D01*
X0001581019Y0000672709D01*
X0001579520Y0000674209D01*
X0001578020Y0000672709D01*
X0001581019Y0000672709D01*
X0001581019Y0000641213D02*
X0001581019Y0000659211D01*
X0001581019Y0000650212D02*
X0001549523Y0000650212D01*
X0001554023Y0000653212D01*
X0001557022Y0000656212D01*
X0001558522Y0000659211D01*
X0001557022Y0000578221D02*
X0001555523Y0000581221D01*
X0001555523Y0000587220D01*
X0001557022Y0000590220D01*
X0001560022Y0000593219D01*
X0001563022Y0000594719D01*
X0001569021Y0000594719D01*
X0001572020Y0000593219D01*
X0001575020Y0000590220D01*
X0001576520Y0000587220D01*
X0001576520Y0000581221D01*
X0001575020Y0000578221D01*
X0001545024Y0000584221D02*
X0001546524Y0000591720D01*
X0001551023Y0000599219D01*
X0001558522Y0000603718D01*
X0001566021Y0000605218D01*
X0001573520Y0000603718D01*
X0001581019Y0000599219D01*
X0001585519Y0000591720D01*
X0001587019Y0000584221D01*
X0001585519Y0000576722D01*
X0001581019Y0000569222D01*
X0001573520Y0000564723D01*
X0001566021Y0000563223D01*
X0001558522Y0000564723D01*
X0001551023Y0000569222D01*
X0001546524Y0000576722D01*
X0001545024Y0000584221D01*
X0001552523Y0000527228D02*
X0001551023Y0000525728D01*
X0001549523Y0000522728D01*
X0001549523Y0000515229D01*
X0001551023Y0000512230D01*
X0001552523Y0000510730D01*
X0001555523Y0000509230D01*
X0001558522Y0000509230D01*
X0001563022Y0000510730D01*
X0001581019Y0000528727D01*
X0001581019Y0000509230D01*
X0001549523Y0000489732D02*
X0001549523Y0000486733D01*
X0001551023Y0000483733D01*
X0001552523Y0000482233D01*
X0001555523Y0000480733D01*
X0001561522Y0000479234D01*
X0001569021Y0000479234D01*
X0001575020Y0000480733D01*
X0001578020Y0000482233D01*
X0001579520Y0000483733D01*
X0001581019Y0000486733D01*
X0001581019Y0000489732D01*
X0001579520Y0000492732D01*
X0001578020Y0000494232D01*
X0001575020Y0000495732D01*
X0001569021Y0000497231D01*
X0001561522Y0000497231D01*
X0001555523Y0000495732D01*
X0001552523Y0000494232D01*
X0001551023Y0000492732D01*
X0001549523Y0000489732D01*
X0001581019Y0000449237D02*
X0001581019Y0000467235D01*
X0001581019Y0000458236D02*
X0001549523Y0000458236D01*
X0001554023Y0000461236D01*
X0001557022Y0000464236D01*
X0001558522Y0000467235D01*
X0001563022Y0000431240D02*
X0001561522Y0000434239D01*
X0001560022Y0000435739D01*
X0001557022Y0000437239D01*
X0001555523Y0000437239D01*
X0001552523Y0000435739D01*
X0001551023Y0000434239D01*
X0001549523Y0000431240D01*
X0001549523Y0000425240D01*
X0001551023Y0000422241D01*
X0001552523Y0000420741D01*
X0001555523Y0000419241D01*
X0001557022Y0000419241D01*
X0001560022Y0000420741D01*
X0001561522Y0000422241D01*
X0001563022Y0000425240D01*
X0001563022Y0000431240D01*
X0001564521Y0000434239D01*
X0001566021Y0000435739D01*
X0001569021Y0000437239D01*
X0001575020Y0000437239D01*
X0001578020Y0000435739D01*
X0001579520Y0000434239D01*
X0001581019Y0000431240D01*
X0001581019Y0000425240D01*
X0001579520Y0000422241D01*
X0001578020Y0000420741D01*
X0001575020Y0000419241D01*
X0001569021Y0000419241D01*
X0001566021Y0000420741D01*
X0001564521Y0000422241D01*
X0001563022Y0000425240D01*
X0001569021Y0000405743D02*
X0001569021Y0000381746D01*
X0001581019Y0000350250D02*
X0001581019Y0000368247D01*
X0001581019Y0000359249D02*
X0001549523Y0000359249D01*
X0001554023Y0000362248D01*
X0001557022Y0000365248D01*
X0001558522Y0000368247D01*
X0001581019Y0000335252D02*
X0001581019Y0000329252D01*
X0001579520Y0000326253D01*
X0001578020Y0000324753D01*
X0001573520Y0000321753D01*
X0001567521Y0000320254D01*
X0001555523Y0000320254D01*
X0001552523Y0000321753D01*
X0001551023Y0000323253D01*
X0001549523Y0000326253D01*
X0001549523Y0000332252D01*
X0001551023Y0000335252D01*
X0001552523Y0000336751D01*
X0001555523Y0000338251D01*
X0001563022Y0000338251D01*
X0001566021Y0000336751D01*
X0001567521Y0000335252D01*
X0001569021Y0000332252D01*
X0001569021Y0000326253D01*
X0001567521Y0000323253D01*
X0001566021Y0000321753D01*
X0001563022Y0000320254D01*
X0001581019Y0000282758D02*
X0001549523Y0000282758D01*
X0001561522Y0000282758D02*
X0001560022Y0000279759D01*
X0001560022Y0000273759D01*
X0001561522Y0000270760D01*
X0001563022Y0000269260D01*
X0001566021Y0000267760D01*
X0001575020Y0000267760D01*
X0001578020Y0000269260D01*
X0001579520Y0000270760D01*
X0001581019Y0000273759D01*
X0001581019Y0000279759D01*
X0001579520Y0000282758D01*
X0001560022Y0000257261D02*
X0001581019Y0000249762D01*
X0001560022Y0000242263D02*
X0001581019Y0000249762D01*
X0001588518Y0000252762D01*
X0001590018Y0000254262D01*
X0001591518Y0000257261D01*
X0001549523Y0000210767D02*
X0001549523Y0000192770D01*
X0001581019Y0000201768D02*
X0001549523Y0000201768D01*
X0001579520Y0000183771D02*
X0001581019Y0000179271D01*
X0001581019Y0000171772D01*
X0001579520Y0000168772D01*
X0001578020Y0000167273D01*
X0001575020Y0000165773D01*
X0001572020Y0000165773D01*
X0001569021Y0000167273D01*
X0001567521Y0000168772D01*
X0001566021Y0000171772D01*
X0001564521Y0000177771D01*
X0001563022Y0000180771D01*
X0001561522Y0000182271D01*
X0001558522Y0000183771D01*
X0001555523Y0000183771D01*
X0001552523Y0000182271D01*
X0001551023Y0000180771D01*
X0001549523Y0000177771D01*
X0001549523Y0000170272D01*
X0001551023Y0000165773D01*
X0001564521Y0000141776D02*
X0001566021Y0000137276D01*
X0001567521Y0000135777D01*
X0001570521Y0000134277D01*
X0001575020Y0000134277D01*
X0001578020Y0000135777D01*
X0001579520Y0000137276D01*
X0001581019Y0000140276D01*
X0001581019Y0000152275D01*
X0001549523Y0000152275D01*
X0001549523Y0000141776D01*
X0001551023Y0000138776D01*
X0001552523Y0000137276D01*
X0001555523Y0000135777D01*
X0001558522Y0000135777D01*
X0001561522Y0000137276D01*
X0001563022Y0000138776D01*
X0001564521Y0000141776D01*
X0001564521Y0000152275D01*
G04 #@! TO.C,U2*
X0001679271Y0000773740D02*
X0001709271Y0000773740D01*
X0001709271Y0000773740D02*
X0001709271Y0000833740D01*
X0001709271Y0000833740D02*
X0001679271Y0000833740D01*
X0002119271Y0000713740D02*
X0002119271Y0000893740D01*
X0002119271Y0000893740D02*
X0001679271Y0000893740D01*
X0001679271Y0000893740D02*
X0001679271Y0000713740D01*
X0001679271Y0000713740D02*
X0002119271Y0000713740D01*
D31*
G04 #@! TO.C,J1*
X0001633110Y0001330334D02*
X0001633110Y0001129547D01*
X0001633110Y0001129547D02*
X0002048464Y0001129547D01*
X0002048464Y0001129547D02*
X0002048464Y0001328366D01*
G04 #@! TO.C,R1*
X0001890649Y0000486594D02*
X0001937893Y0000486594D01*
X0001937893Y0000555885D02*
X0001890649Y0000555885D01*
G04 #@! TO.C,R3*
X0001690649Y0000489094D02*
X0001737893Y0000489094D01*
X0001737893Y0000558385D02*
X0001690649Y0000558385D01*
G04 #@! TO.C,Q2*
X0001954566Y0000208661D02*
X0001991181Y0000208661D01*
X0002078976Y0000208661D02*
X0002042362Y0000208661D01*
X0002078976Y0000208661D02*
X0002078976Y0000123622D01*
X0001954566Y0000208661D02*
X0001954566Y0000151181D01*
G04 #@! TO.C,Q1*
X0001654566Y0000208661D02*
X0001691181Y0000208661D01*
X0001778976Y0000208661D02*
X0001742362Y0000208661D01*
X0001778976Y0000208661D02*
X0001778976Y0000123622D01*
X0001654566Y0000208661D02*
X0001654566Y0000151181D01*
G04 #@! TO.C,U2*
D30*
X0001676767Y0000960300D02*
X0001676767Y0000928428D01*
X0001674893Y0000924679D01*
X0001673018Y0000922804D01*
X0001669268Y0000920929D01*
X0001661769Y0000920929D01*
X0001658020Y0000922804D01*
X0001656145Y0000924679D01*
X0001654270Y0000928428D01*
X0001654270Y0000960300D01*
X0001637397Y0000956550D02*
X0001635522Y0000958425D01*
X0001631773Y0000960300D01*
X0001622399Y0000960300D01*
X0001618650Y0000958425D01*
X0001616775Y0000956550D01*
X0001614900Y0000952800D01*
X0001614900Y0000949051D01*
X0001616775Y0000943427D01*
X0001639272Y0000920929D01*
X0001614900Y0000920929D01*
G04 #@! TO.C,R1*
X0001920833Y0000570359D02*
X0001933956Y0000589106D01*
X0001943330Y0000570359D02*
X0001943330Y0000609729D01*
X0001928332Y0000609729D01*
X0001924582Y0000607854D01*
X0001922708Y0000605979D01*
X0001920833Y0000602230D01*
X0001920833Y0000596605D01*
X0001922708Y0000592856D01*
X0001924582Y0000590981D01*
X0001928332Y0000589106D01*
X0001943330Y0000589106D01*
X0001883337Y0000570359D02*
X0001905835Y0000570359D01*
X0001894586Y0000570359D02*
X0001894586Y0000609729D01*
X0001898336Y0000604104D01*
X0001902085Y0000600355D01*
X0001905835Y0000598480D01*
G04 #@! TO.C,R3*
X0001720833Y0000572859D02*
X0001733956Y0000591606D01*
X0001743330Y0000572859D02*
X0001743330Y0000612229D01*
X0001728332Y0000612229D01*
X0001724582Y0000610354D01*
X0001722708Y0000608479D01*
X0001720833Y0000604730D01*
X0001720833Y0000599105D01*
X0001722708Y0000595356D01*
X0001724582Y0000593481D01*
X0001728332Y0000591606D01*
X0001743330Y0000591606D01*
X0001707709Y0000612229D02*
X0001683337Y0000612229D01*
X0001696461Y0000597230D01*
X0001690837Y0000597230D01*
X0001687087Y0000595356D01*
X0001685212Y0000593481D01*
X0001683337Y0000589731D01*
X0001683337Y0000580358D01*
X0001685212Y0000576608D01*
X0001687087Y0000574733D01*
X0001690837Y0000572859D01*
X0001702085Y0000572859D01*
X0001705835Y0000574733D01*
X0001707709Y0000576608D01*
G04 #@! TO.C,Q2*
X0002136756Y0000182489D02*
X0002134881Y0000186239D01*
X0002131132Y0000189988D01*
X0002125507Y0000195613D01*
X0002123633Y0000199362D01*
X0002123633Y0000203112D01*
X0002133007Y0000201237D02*
X0002131132Y0000204986D01*
X0002127382Y0000208736D01*
X0002119883Y0000210611D01*
X0002106760Y0000210611D01*
X0002099261Y0000208736D01*
X0002095511Y0000204986D01*
X0002093637Y0000201237D01*
X0002093637Y0000193738D01*
X0002095511Y0000189988D01*
X0002099261Y0000186239D01*
X0002106760Y0000184364D01*
X0002119883Y0000184364D01*
X0002127382Y0000186239D01*
X0002131132Y0000189988D01*
X0002133007Y0000193738D01*
X0002133007Y0000201237D01*
X0002097386Y0000169366D02*
X0002095511Y0000167491D01*
X0002093637Y0000163742D01*
X0002093637Y0000154368D01*
X0002095511Y0000150618D01*
X0002097386Y0000148743D01*
X0002101136Y0000146869D01*
X0002104885Y0000146869D01*
X0002110509Y0000148743D01*
X0002133007Y0000171241D01*
X0002133007Y0000146869D01*
G04 #@! TO.C,Q1*
X0001836756Y0000182489D02*
X0001834881Y0000186239D01*
X0001831132Y0000189988D01*
X0001825508Y0000195613D01*
X0001823633Y0000199362D01*
X0001823633Y0000203112D01*
X0001833007Y0000201237D02*
X0001831132Y0000204986D01*
X0001827382Y0000208736D01*
X0001819883Y0000210611D01*
X0001806760Y0000210611D01*
X0001799261Y0000208736D01*
X0001795511Y0000204986D01*
X0001793637Y0000201237D01*
X0001793637Y0000193738D01*
X0001795511Y0000189988D01*
X0001799261Y0000186239D01*
X0001806760Y0000184364D01*
X0001819883Y0000184364D01*
X0001827382Y0000186239D01*
X0001831132Y0000189988D01*
X0001833007Y0000193738D01*
X0001833007Y0000201237D01*
X0001833007Y0000146869D02*
X0001833007Y0000169366D01*
X0001833007Y0000158117D02*
X0001793637Y0000158117D01*
X0001799261Y0000161867D01*
X0001803010Y0000165616D01*
X0001804885Y0000169366D01*
G04 #@! TD*
G04 next file*
G04 #@! TF.GenerationSoftware,KiCad,Pcbnew,(5.0.2)-1*
G04 #@! TF.CreationDate,2019-07-10T16:32:42+02:00*
G04 #@! TF.ProjectId,joystick tester systest,6a6f7973-7469-4636-9b20-746573746572,rev?*
G04 #@! TF.SameCoordinates,Original*
G04 #@! TF.FileFunction,Legend,Bot*
G04 #@! TF.FilePolarity,Positive*
G04 Gerber Fmt 4.6, Leading zero omitted, Abs format (unit mm)*
G04 Created by KiCad (PCBNEW (5.0.2)-1) date 10-7-2019 16:32:42*
G01G01*
G04 APERTURE LIST*
G04 APERTURE END LIST*
D32*
X0002768874Y0000354878D02*
X0002768874Y0000406059D01*
X0002744502Y0000354878D02*
X0002744502Y0000406059D01*
X0002715255Y0000354878D01*
X0002715255Y0000406059D01*
X0002698195Y0000406059D02*
X0002668949Y0000406059D01*
X0002683572Y0000354878D02*
X0002683572Y0000406059D01*
X0002642140Y0000406059D02*
X0002632391Y0000406059D01*
X0002627516Y0000403622D01*
X0002622642Y0000398747D01*
X0002620205Y0000388998D01*
X0002620205Y0000371938D01*
X0002622642Y0000362189D01*
X0002627516Y0000357315D01*
X0002632391Y0000354878D01*
X0002642140Y0000354878D01*
X0002647014Y0000357315D01*
X0002651888Y0000362189D01*
X0002654325Y0000371938D01*
X0002654325Y0000388998D01*
X0002651888Y0000398747D01*
X0002647014Y0000403622D01*
X0002642140Y0000406059D01*
X0002566586Y0000406059D02*
X0002537340Y0000406059D01*
X0002551963Y0000354878D02*
X0002551963Y0000406059D01*
X0002520280Y0000354878D02*
X0002520280Y0000406059D01*
X0002520280Y0000381687D02*
X0002491033Y0000381687D01*
X0002491033Y0000354878D02*
X0002491033Y0000406059D01*
X0002466661Y0000381687D02*
X0002449601Y0000381687D01*
X0002442290Y0000354878D02*
X0002466661Y0000354878D01*
X0002466661Y0000406059D01*
X0002442290Y0000406059D01*
X0002806650Y0000317476D02*
X0002794464Y0000266295D01*
X0002784715Y0000302853D01*
X0002774967Y0000266295D01*
X0002762781Y0000317476D01*
X0002733534Y0000317476D02*
X0002723786Y0000317476D01*
X0002718911Y0000315039D01*
X0002714037Y0000310165D01*
X0002711600Y0000300416D01*
X0002711600Y0000283355D01*
X0002714037Y0000273607D01*
X0002718911Y0000268732D01*
X0002723786Y0000266295D01*
X0002733534Y0000266295D01*
X0002738409Y0000268732D01*
X0002743283Y0000273607D01*
X0002745720Y0000283355D01*
X0002745720Y0000300416D01*
X0002743283Y0000310165D01*
X0002738409Y0000315039D01*
X0002733534Y0000317476D01*
X0002689665Y0000266295D02*
X0002689665Y0000317476D01*
X0002660418Y0000266295D01*
X0002660418Y0000317476D01*
X0002636047Y0000266295D02*
X0002636047Y0000317476D01*
X0002623861Y0000317476D01*
X0002616549Y0000315039D01*
X0002611675Y0000310165D01*
X0002609237Y0000305290D01*
X0002606800Y0000295541D01*
X0002606800Y0000288230D01*
X0002609237Y0000278481D01*
X0002611675Y0000273607D01*
X0002616549Y0000268732D01*
X0002623861Y0000266295D01*
X0002636047Y0000266295D01*
X0002584865Y0000293104D02*
X0002567805Y0000293104D01*
X0002560493Y0000266295D02*
X0002584865Y0000266295D01*
X0002584865Y0000317476D01*
X0002560493Y0000317476D01*
X0002509312Y0000266295D02*
X0002526373Y0000290667D01*
X0002538559Y0000266295D02*
X0002538559Y0000317476D01*
X0002519061Y0000317476D01*
X0002514187Y0000315039D01*
X0002511750Y0000312602D01*
X0002509312Y0000307727D01*
X0002509312Y0000300416D01*
X0002511750Y0000295541D01*
X0002514187Y0000293104D01*
X0002519061Y0000290667D01*
X0002538559Y0000290667D01*
X0002470317Y0000293104D02*
X0002487378Y0000293104D01*
X0002487378Y0000266295D02*
X0002487378Y0000317476D01*
X0002463006Y0000317476D01*
X0002443508Y0000317476D02*
X0002443508Y0000276044D01*
X0002441071Y0000271169D01*
X0002438634Y0000268732D01*
X0002433759Y0000266295D01*
X0002424011Y0000266295D01*
X0002419136Y0000268732D01*
X0002416699Y0000271169D01*
X0002414262Y0000276044D01*
X0002414262Y0000317476D01*
X0002365518Y0000266295D02*
X0002389890Y0000266295D01*
X0002389890Y0000317476D01*
D33*
X0002308053Y0000729702D02*
X0002329051Y0000722203D01*
X0002308053Y0000714704D01*
X0002329051Y0000686208D02*
X0002329051Y0000704206D01*
X0002329051Y0000695207D02*
X0002297555Y0000695207D01*
X0002302054Y0000698206D01*
X0002305054Y0000701206D01*
X0002306554Y0000704206D01*
X0002326051Y0000672709D02*
X0002327551Y0000671210D01*
X0002329051Y0000672709D01*
X0002327551Y0000674209D01*
X0002326051Y0000672709D01*
X0002329051Y0000672709D01*
X0002329051Y0000641213D02*
X0002329051Y0000659211D01*
X0002329051Y0000650212D02*
X0002297555Y0000650212D01*
X0002302054Y0000653212D01*
X0002305054Y0000656212D01*
X0002306554Y0000659211D01*
X0002305054Y0000578221D02*
X0002303554Y0000581221D01*
X0002303554Y0000587220D01*
X0002305054Y0000590220D01*
X0002308053Y0000593219D01*
X0002311053Y0000594719D01*
X0002317052Y0000594719D01*
X0002320052Y0000593219D01*
X0002323052Y0000590220D01*
X0002324551Y0000587220D01*
X0002324551Y0000581221D01*
X0002323052Y0000578221D01*
X0002293055Y0000584221D02*
X0002294555Y0000591720D01*
X0002299055Y0000599219D01*
X0002306554Y0000603718D01*
X0002314053Y0000605218D01*
X0002321552Y0000603718D01*
X0002329051Y0000599219D01*
X0002333550Y0000591720D01*
X0002335050Y0000584221D01*
X0002333550Y0000576722D01*
X0002329051Y0000569222D01*
X0002321552Y0000564723D01*
X0002314053Y0000563223D01*
X0002306554Y0000564723D01*
X0002299055Y0000569222D01*
X0002294555Y0000576722D01*
X0002293055Y0000584221D01*
X0002300554Y0000527228D02*
X0002299055Y0000525728D01*
X0002297555Y0000522728D01*
X0002297555Y0000515229D01*
X0002299055Y0000512230D01*
X0002300554Y0000510730D01*
X0002303554Y0000509230D01*
X0002306554Y0000509230D01*
X0002311053Y0000510730D01*
X0002329051Y0000528727D01*
X0002329051Y0000509230D01*
X0002297555Y0000489732D02*
X0002297555Y0000486733D01*
X0002299055Y0000483733D01*
X0002300554Y0000482233D01*
X0002303554Y0000480733D01*
X0002309553Y0000479234D01*
X0002317052Y0000479234D01*
X0002323052Y0000480733D01*
X0002326051Y0000482233D01*
X0002327551Y0000483733D01*
X0002329051Y0000486733D01*
X0002329051Y0000489732D01*
X0002327551Y0000492732D01*
X0002326051Y0000494232D01*
X0002323052Y0000495732D01*
X0002317052Y0000497231D01*
X0002309553Y0000497231D01*
X0002303554Y0000495732D01*
X0002300554Y0000494232D01*
X0002299055Y0000492732D01*
X0002297555Y0000489732D01*
X0002329051Y0000449237D02*
X0002329051Y0000467235D01*
X0002329051Y0000458236D02*
X0002297555Y0000458236D01*
X0002302054Y0000461236D01*
X0002305054Y0000464236D01*
X0002306554Y0000467235D01*
X0002311053Y0000431240D02*
X0002309553Y0000434239D01*
X0002308053Y0000435739D01*
X0002305054Y0000437239D01*
X0002303554Y0000437239D01*
X0002300554Y0000435739D01*
X0002299055Y0000434239D01*
X0002297555Y0000431240D01*
X0002297555Y0000425240D01*
X0002299055Y0000422241D01*
X0002300554Y0000420741D01*
X0002303554Y0000419241D01*
X0002305054Y0000419241D01*
X0002308053Y0000420741D01*
X0002309553Y0000422241D01*
X0002311053Y0000425240D01*
X0002311053Y0000431240D01*
X0002312553Y0000434239D01*
X0002314053Y0000435739D01*
X0002317052Y0000437239D01*
X0002323052Y0000437239D01*
X0002326051Y0000435739D01*
X0002327551Y0000434239D01*
X0002329051Y0000431240D01*
X0002329051Y0000425240D01*
X0002327551Y0000422241D01*
X0002326051Y0000420741D01*
X0002323052Y0000419241D01*
X0002317052Y0000419241D01*
X0002314053Y0000420741D01*
X0002312553Y0000422241D01*
X0002311053Y0000425240D01*
X0002317052Y0000405743D02*
X0002317052Y0000381746D01*
X0002329051Y0000350250D02*
X0002329051Y0000368247D01*
X0002329051Y0000359249D02*
X0002297555Y0000359249D01*
X0002302054Y0000362248D01*
X0002305054Y0000365248D01*
X0002306554Y0000368247D01*
X0002329051Y0000335252D02*
X0002329051Y0000329252D01*
X0002327551Y0000326253D01*
X0002326051Y0000324753D01*
X0002321552Y0000321753D01*
X0002315552Y0000320254D01*
X0002303554Y0000320254D01*
X0002300554Y0000321753D01*
X0002299055Y0000323253D01*
X0002297555Y0000326253D01*
X0002297555Y0000332252D01*
X0002299055Y0000335252D01*
X0002300554Y0000336751D01*
X0002303554Y0000338251D01*
X0002311053Y0000338251D01*
X0002314053Y0000336751D01*
X0002315552Y0000335252D01*
X0002317052Y0000332252D01*
X0002317052Y0000326253D01*
X0002315552Y0000323253D01*
X0002314053Y0000321753D01*
X0002311053Y0000320254D01*
X0002329051Y0000282758D02*
X0002297555Y0000282758D01*
X0002309553Y0000282758D02*
X0002308053Y0000279759D01*
X0002308053Y0000273759D01*
X0002309553Y0000270760D01*
X0002311053Y0000269260D01*
X0002314053Y0000267760D01*
X0002323052Y0000267760D01*
X0002326051Y0000269260D01*
X0002327551Y0000270760D01*
X0002329051Y0000273759D01*
X0002329051Y0000279759D01*
X0002327551Y0000282758D01*
X0002308053Y0000257261D02*
X0002329051Y0000249762D01*
X0002308053Y0000242263D02*
X0002329051Y0000249762D01*
X0002336550Y0000252762D01*
X0002338050Y0000254262D01*
X0002339550Y0000257261D01*
X0002297555Y0000210767D02*
X0002297555Y0000192770D01*
X0002329051Y0000201768D02*
X0002297555Y0000201768D01*
X0002327551Y0000183771D02*
X0002329051Y0000179271D01*
X0002329051Y0000171772D01*
X0002327551Y0000168772D01*
X0002326051Y0000167273D01*
X0002323052Y0000165773D01*
X0002320052Y0000165773D01*
X0002317052Y0000167273D01*
X0002315552Y0000168772D01*
X0002314053Y0000171772D01*
X0002312553Y0000177771D01*
X0002311053Y0000180771D01*
X0002309553Y0000182271D01*
X0002306554Y0000183771D01*
X0002303554Y0000183771D01*
X0002300554Y0000182271D01*
X0002299055Y0000180771D01*
X0002297555Y0000177771D01*
X0002297555Y0000170272D01*
X0002299055Y0000165773D01*
X0002312553Y0000141776D02*
X0002314053Y0000137276D01*
X0002315552Y0000135777D01*
X0002318552Y0000134277D01*
X0002323052Y0000134277D01*
X0002326051Y0000135777D01*
X0002327551Y0000137276D01*
X0002329051Y0000140276D01*
X0002329051Y0000152275D01*
X0002297555Y0000152275D01*
X0002297555Y0000141776D01*
X0002299055Y0000138776D01*
X0002300554Y0000137276D01*
X0002303554Y0000135777D01*
X0002306554Y0000135777D01*
X0002309553Y0000137276D01*
X0002311053Y0000138776D01*
X0002312553Y0000141776D01*
X0002312553Y0000152275D01*
G04 #@! TO.C,U2*
X0002427303Y0000773740D02*
X0002457303Y0000773740D01*
X0002457303Y0000773740D02*
X0002457303Y0000833740D01*
X0002457303Y0000833740D02*
X0002427303Y0000833740D01*
X0002867303Y0000713740D02*
X0002867303Y0000893740D01*
X0002867303Y0000893740D02*
X0002427303Y0000893740D01*
X0002427303Y0000893740D02*
X0002427303Y0000713740D01*
X0002427303Y0000713740D02*
X0002867303Y0000713740D01*
D34*
G04 #@! TO.C,J1*
X0002381141Y0001330334D02*
X0002381141Y0001129547D01*
X0002381141Y0001129547D02*
X0002796496Y0001129547D01*
X0002796496Y0001129547D02*
X0002796496Y0001328366D01*
G04 #@! TO.C,R1*
X0002638681Y0000486594D02*
X0002685925Y0000486594D01*
X0002685925Y0000555885D02*
X0002638681Y0000555885D01*
G04 #@! TO.C,R3*
X0002438681Y0000489094D02*
X0002485925Y0000489094D01*
X0002485925Y0000558385D02*
X0002438681Y0000558385D01*
G04 #@! TO.C,Q2*
X0002702598Y0000208661D02*
X0002739212Y0000208661D01*
X0002827007Y0000208661D02*
X0002790393Y0000208661D01*
X0002827007Y0000208661D02*
X0002827007Y0000123622D01*
X0002702598Y0000208661D02*
X0002702598Y0000151181D01*
G04 #@! TO.C,Q1*
X0002402598Y0000208661D02*
X0002439212Y0000208661D01*
X0002527007Y0000208661D02*
X0002490393Y0000208661D01*
X0002527007Y0000208661D02*
X0002527007Y0000123622D01*
X0002402598Y0000208661D02*
X0002402598Y0000151181D01*
G04 #@! TO.C,U2*
D33*
X0002424799Y0000960300D02*
X0002424799Y0000928428D01*
X0002422924Y0000924679D01*
X0002421049Y0000922804D01*
X0002417300Y0000920929D01*
X0002409801Y0000920929D01*
X0002406051Y0000922804D01*
X0002404176Y0000924679D01*
X0002402302Y0000928428D01*
X0002402302Y0000960300D01*
X0002385429Y0000956550D02*
X0002383554Y0000958425D01*
X0002379805Y0000960300D01*
X0002370431Y0000960300D01*
X0002366681Y0000958425D01*
X0002364806Y0000956550D01*
X0002362932Y0000952800D01*
X0002362932Y0000949051D01*
X0002364806Y0000943427D01*
X0002387304Y0000920929D01*
X0002362932Y0000920929D01*
G04 #@! TO.C,R1*
X0002668864Y0000570359D02*
X0002681988Y0000589106D01*
X0002691361Y0000570359D02*
X0002691361Y0000609729D01*
X0002676363Y0000609729D01*
X0002672614Y0000607854D01*
X0002670739Y0000605979D01*
X0002668864Y0000602230D01*
X0002668864Y0000596605D01*
X0002670739Y0000592856D01*
X0002672614Y0000590981D01*
X0002676363Y0000589106D01*
X0002691361Y0000589106D01*
X0002631369Y0000570359D02*
X0002653866Y0000570359D01*
X0002642618Y0000570359D02*
X0002642618Y0000609729D01*
X0002646367Y0000604104D01*
X0002650117Y0000600355D01*
X0002653866Y0000598480D01*
G04 #@! TO.C,R3*
X0002468864Y0000572859D02*
X0002481988Y0000591606D01*
X0002491362Y0000572859D02*
X0002491362Y0000612229D01*
X0002476363Y0000612229D01*
X0002472614Y0000610354D01*
X0002470739Y0000608479D01*
X0002468864Y0000604730D01*
X0002468864Y0000599105D01*
X0002470739Y0000595356D01*
X0002472614Y0000593481D01*
X0002476363Y0000591606D01*
X0002491362Y0000591606D01*
X0002455741Y0000612229D02*
X0002431369Y0000612229D01*
X0002444492Y0000597230D01*
X0002438868Y0000597230D01*
X0002435119Y0000595356D01*
X0002433244Y0000593481D01*
X0002431369Y0000589731D01*
X0002431369Y0000580358D01*
X0002433244Y0000576608D01*
X0002435119Y0000574733D01*
X0002438868Y0000572859D01*
X0002450117Y0000572859D01*
X0002453866Y0000574733D01*
X0002455741Y0000576608D01*
G04 #@! TO.C,Q2*
X0002884788Y0000182489D02*
X0002882913Y0000186239D01*
X0002879163Y0000189988D01*
X0002873539Y0000195613D01*
X0002871664Y0000199362D01*
X0002871664Y0000203112D01*
X0002881038Y0000201237D02*
X0002879163Y0000204986D01*
X0002875414Y0000208736D01*
X0002867915Y0000210611D01*
X0002854791Y0000210611D01*
X0002847292Y0000208736D01*
X0002843543Y0000204986D01*
X0002841668Y0000201237D01*
X0002841668Y0000193738D01*
X0002843543Y0000189988D01*
X0002847292Y0000186239D01*
X0002854791Y0000184364D01*
X0002867915Y0000184364D01*
X0002875414Y0000186239D01*
X0002879163Y0000189988D01*
X0002881038Y0000193738D01*
X0002881038Y0000201237D01*
X0002845418Y0000169366D02*
X0002843543Y0000167491D01*
X0002841668Y0000163742D01*
X0002841668Y0000154368D01*
X0002843543Y0000150618D01*
X0002845418Y0000148743D01*
X0002849167Y0000146869D01*
X0002852917Y0000146869D01*
X0002858541Y0000148743D01*
X0002881038Y0000171241D01*
X0002881038Y0000146869D01*
G04 #@! TO.C,Q1*
X0002584788Y0000182489D02*
X0002582913Y0000186239D01*
X0002579163Y0000189988D01*
X0002573539Y0000195613D01*
X0002571664Y0000199362D01*
X0002571664Y0000203112D01*
X0002581038Y0000201237D02*
X0002579163Y0000204986D01*
X0002575414Y0000208736D01*
X0002567915Y0000210611D01*
X0002554791Y0000210611D01*
X0002547292Y0000208736D01*
X0002543543Y0000204986D01*
X0002541668Y0000201237D01*
X0002541668Y0000193738D01*
X0002543543Y0000189988D01*
X0002547292Y0000186239D01*
X0002554791Y0000184364D01*
X0002567915Y0000184364D01*
X0002575414Y0000186239D01*
X0002579163Y0000189988D01*
X0002581038Y0000193738D01*
X0002581038Y0000201237D01*
X0002581038Y0000146869D02*
X0002581038Y0000169366D01*
X0002581038Y0000158117D02*
X0002541668Y0000158117D01*
X0002547292Y0000161867D01*
X0002551042Y0000165616D01*
X0002552917Y0000169366D01*
G04 #@! TD*
G04 next file*
G04 #@! TF.GenerationSoftware,KiCad,Pcbnew,(5.0.2)-1*
G04 #@! TF.CreationDate,2019-07-10T16:32:42+02:00*
G04 #@! TF.ProjectId,joystick tester systest,6a6f7973-7469-4636-9b20-746573746572,rev?*
G04 #@! TF.SameCoordinates,Original*
G04 #@! TF.FileFunction,Legend,Bot*
G04 #@! TF.FilePolarity,Positive*
G04 Gerber Fmt 4.6, Leading zero omitted, Abs format (unit mm)*
G04 Created by KiCad (PCBNEW (5.0.2)-1) date 10-7-2019 16:32:42*
G01G01*
G04 APERTURE LIST*
G04 APERTURE END LIST*
D35*
X0003516905Y0000354878D02*
X0003516905Y0000406059D01*
X0003492533Y0000354878D02*
X0003492533Y0000406059D01*
X0003463287Y0000354878D01*
X0003463287Y0000406059D01*
X0003446227Y0000406059D02*
X0003416980Y0000406059D01*
X0003431603Y0000354878D02*
X0003431603Y0000406059D01*
X0003390171Y0000406059D02*
X0003380422Y0000406059D01*
X0003375548Y0000403622D01*
X0003370673Y0000398747D01*
X0003368236Y0000388998D01*
X0003368236Y0000371938D01*
X0003370673Y0000362189D01*
X0003375548Y0000357315D01*
X0003380422Y0000354878D01*
X0003390171Y0000354878D01*
X0003395045Y0000357315D01*
X0003399920Y0000362189D01*
X0003402357Y0000371938D01*
X0003402357Y0000388998D01*
X0003399920Y0000398747D01*
X0003395045Y0000403622D01*
X0003390171Y0000406059D01*
X0003314618Y0000406059D02*
X0003285372Y0000406059D01*
X0003299995Y0000354878D02*
X0003299995Y0000406059D01*
X0003268311Y0000354878D02*
X0003268311Y0000406059D01*
X0003268311Y0000381687D02*
X0003239065Y0000381687D01*
X0003239065Y0000354878D02*
X0003239065Y0000406059D01*
X0003214693Y0000381687D02*
X0003197633Y0000381687D01*
X0003190321Y0000354878D02*
X0003214693Y0000354878D01*
X0003214693Y0000406059D01*
X0003190321Y0000406059D01*
X0003554682Y0000317476D02*
X0003542496Y0000266295D01*
X0003532747Y0000302853D01*
X0003522998Y0000266295D01*
X0003510812Y0000317476D01*
X0003481566Y0000317476D02*
X0003471817Y0000317476D01*
X0003466943Y0000315039D01*
X0003462068Y0000310165D01*
X0003459631Y0000300416D01*
X0003459631Y0000283355D01*
X0003462068Y0000273607D01*
X0003466943Y0000268732D01*
X0003471817Y0000266295D01*
X0003481566Y0000266295D01*
X0003486440Y0000268732D01*
X0003491315Y0000273607D01*
X0003493752Y0000283355D01*
X0003493752Y0000300416D01*
X0003491315Y0000310165D01*
X0003486440Y0000315039D01*
X0003481566Y0000317476D01*
X0003437696Y0000266295D02*
X0003437696Y0000317476D01*
X0003408450Y0000266295D01*
X0003408450Y0000317476D01*
X0003384078Y0000266295D02*
X0003384078Y0000317476D01*
X0003371892Y0000317476D01*
X0003364580Y0000315039D01*
X0003359706Y0000310165D01*
X0003357269Y0000305290D01*
X0003354832Y0000295541D01*
X0003354832Y0000288230D01*
X0003357269Y0000278481D01*
X0003359706Y0000273607D01*
X0003364580Y0000268732D01*
X0003371892Y0000266295D01*
X0003384078Y0000266295D01*
X0003332897Y0000293104D02*
X0003315837Y0000293104D01*
X0003308525Y0000266295D02*
X0003332897Y0000266295D01*
X0003332897Y0000317476D01*
X0003308525Y0000317476D01*
X0003257344Y0000266295D02*
X0003274404Y0000290667D01*
X0003286590Y0000266295D02*
X0003286590Y0000317476D01*
X0003267093Y0000317476D01*
X0003262218Y0000315039D01*
X0003259781Y0000312602D01*
X0003257344Y0000307727D01*
X0003257344Y0000300416D01*
X0003259781Y0000295541D01*
X0003262218Y0000293104D01*
X0003267093Y0000290667D01*
X0003286590Y0000290667D01*
X0003218349Y0000293104D02*
X0003235409Y0000293104D01*
X0003235409Y0000266295D02*
X0003235409Y0000317476D01*
X0003211037Y0000317476D01*
X0003191540Y0000317476D02*
X0003191540Y0000276044D01*
X0003189102Y0000271169D01*
X0003186665Y0000268732D01*
X0003181791Y0000266295D01*
X0003172042Y0000266295D01*
X0003167168Y0000268732D01*
X0003164730Y0000271169D01*
X0003162293Y0000276044D01*
X0003162293Y0000317476D01*
X0003113549Y0000266295D02*
X0003137921Y0000266295D01*
X0003137921Y0000317476D01*
D36*
X0003056085Y0000729702D02*
X0003077082Y0000722203D01*
X0003056085Y0000714704D01*
X0003077082Y0000686208D02*
X0003077082Y0000704206D01*
X0003077082Y0000695207D02*
X0003045586Y0000695207D01*
X0003050086Y0000698206D01*
X0003053085Y0000701206D01*
X0003054585Y0000704206D01*
X0003074083Y0000672709D02*
X0003075583Y0000671210D01*
X0003077082Y0000672709D01*
X0003075583Y0000674209D01*
X0003074083Y0000672709D01*
X0003077082Y0000672709D01*
X0003077082Y0000641213D02*
X0003077082Y0000659211D01*
X0003077082Y0000650212D02*
X0003045586Y0000650212D01*
X0003050086Y0000653212D01*
X0003053085Y0000656212D01*
X0003054585Y0000659211D01*
X0003053085Y0000578221D02*
X0003051586Y0000581221D01*
X0003051586Y0000587220D01*
X0003053085Y0000590220D01*
X0003056085Y0000593219D01*
X0003059085Y0000594719D01*
X0003065084Y0000594719D01*
X0003068083Y0000593219D01*
X0003071083Y0000590220D01*
X0003072583Y0000587220D01*
X0003072583Y0000581221D01*
X0003071083Y0000578221D01*
X0003041087Y0000584221D02*
X0003042587Y0000591720D01*
X0003047086Y0000599219D01*
X0003054585Y0000603718D01*
X0003062084Y0000605218D01*
X0003069583Y0000603718D01*
X0003077082Y0000599219D01*
X0003081582Y0000591720D01*
X0003083082Y0000584221D01*
X0003081582Y0000576722D01*
X0003077082Y0000569222D01*
X0003069583Y0000564723D01*
X0003062084Y0000563223D01*
X0003054585Y0000564723D01*
X0003047086Y0000569222D01*
X0003042587Y0000576722D01*
X0003041087Y0000584221D01*
X0003048586Y0000527228D02*
X0003047086Y0000525728D01*
X0003045586Y0000522728D01*
X0003045586Y0000515229D01*
X0003047086Y0000512230D01*
X0003048586Y0000510730D01*
X0003051586Y0000509230D01*
X0003054585Y0000509230D01*
X0003059085Y0000510730D01*
X0003077082Y0000528727D01*
X0003077082Y0000509230D01*
X0003045586Y0000489732D02*
X0003045586Y0000486733D01*
X0003047086Y0000483733D01*
X0003048586Y0000482233D01*
X0003051586Y0000480733D01*
X0003057585Y0000479234D01*
X0003065084Y0000479234D01*
X0003071083Y0000480733D01*
X0003074083Y0000482233D01*
X0003075583Y0000483733D01*
X0003077082Y0000486733D01*
X0003077082Y0000489732D01*
X0003075583Y0000492732D01*
X0003074083Y0000494232D01*
X0003071083Y0000495732D01*
X0003065084Y0000497231D01*
X0003057585Y0000497231D01*
X0003051586Y0000495732D01*
X0003048586Y0000494232D01*
X0003047086Y0000492732D01*
X0003045586Y0000489732D01*
X0003077082Y0000449237D02*
X0003077082Y0000467235D01*
X0003077082Y0000458236D02*
X0003045586Y0000458236D01*
X0003050086Y0000461236D01*
X0003053085Y0000464236D01*
X0003054585Y0000467235D01*
X0003059085Y0000431240D02*
X0003057585Y0000434239D01*
X0003056085Y0000435739D01*
X0003053085Y0000437239D01*
X0003051586Y0000437239D01*
X0003048586Y0000435739D01*
X0003047086Y0000434239D01*
X0003045586Y0000431240D01*
X0003045586Y0000425240D01*
X0003047086Y0000422241D01*
X0003048586Y0000420741D01*
X0003051586Y0000419241D01*
X0003053085Y0000419241D01*
X0003056085Y0000420741D01*
X0003057585Y0000422241D01*
X0003059085Y0000425240D01*
X0003059085Y0000431240D01*
X0003060584Y0000434239D01*
X0003062084Y0000435739D01*
X0003065084Y0000437239D01*
X0003071083Y0000437239D01*
X0003074083Y0000435739D01*
X0003075583Y0000434239D01*
X0003077082Y0000431240D01*
X0003077082Y0000425240D01*
X0003075583Y0000422241D01*
X0003074083Y0000420741D01*
X0003071083Y0000419241D01*
X0003065084Y0000419241D01*
X0003062084Y0000420741D01*
X0003060584Y0000422241D01*
X0003059085Y0000425240D01*
X0003065084Y0000405743D02*
X0003065084Y0000381746D01*
X0003077082Y0000350250D02*
X0003077082Y0000368247D01*
X0003077082Y0000359249D02*
X0003045586Y0000359249D01*
X0003050086Y0000362248D01*
X0003053085Y0000365248D01*
X0003054585Y0000368247D01*
X0003077082Y0000335252D02*
X0003077082Y0000329252D01*
X0003075583Y0000326253D01*
X0003074083Y0000324753D01*
X0003069583Y0000321753D01*
X0003063584Y0000320254D01*
X0003051586Y0000320254D01*
X0003048586Y0000321753D01*
X0003047086Y0000323253D01*
X0003045586Y0000326253D01*
X0003045586Y0000332252D01*
X0003047086Y0000335252D01*
X0003048586Y0000336751D01*
X0003051586Y0000338251D01*
X0003059085Y0000338251D01*
X0003062084Y0000336751D01*
X0003063584Y0000335252D01*
X0003065084Y0000332252D01*
X0003065084Y0000326253D01*
X0003063584Y0000323253D01*
X0003062084Y0000321753D01*
X0003059085Y0000320254D01*
X0003077082Y0000282758D02*
X0003045586Y0000282758D01*
X0003057585Y0000282758D02*
X0003056085Y0000279759D01*
X0003056085Y0000273759D01*
X0003057585Y0000270760D01*
X0003059085Y0000269260D01*
X0003062084Y0000267760D01*
X0003071083Y0000267760D01*
X0003074083Y0000269260D01*
X0003075583Y0000270760D01*
X0003077082Y0000273759D01*
X0003077082Y0000279759D01*
X0003075583Y0000282758D01*
X0003056085Y0000257261D02*
X0003077082Y0000249762D01*
X0003056085Y0000242263D02*
X0003077082Y0000249762D01*
X0003084581Y0000252762D01*
X0003086081Y0000254262D01*
X0003087581Y0000257261D01*
X0003045586Y0000210767D02*
X0003045586Y0000192770D01*
X0003077082Y0000201768D02*
X0003045586Y0000201768D01*
X0003075583Y0000183771D02*
X0003077082Y0000179271D01*
X0003077082Y0000171772D01*
X0003075583Y0000168772D01*
X0003074083Y0000167273D01*
X0003071083Y0000165773D01*
X0003068083Y0000165773D01*
X0003065084Y0000167273D01*
X0003063584Y0000168772D01*
X0003062084Y0000171772D01*
X0003060584Y0000177771D01*
X0003059085Y0000180771D01*
X0003057585Y0000182271D01*
X0003054585Y0000183771D01*
X0003051586Y0000183771D01*
X0003048586Y0000182271D01*
X0003047086Y0000180771D01*
X0003045586Y0000177771D01*
X0003045586Y0000170272D01*
X0003047086Y0000165773D01*
X0003060584Y0000141776D02*
X0003062084Y0000137276D01*
X0003063584Y0000135777D01*
X0003066584Y0000134277D01*
X0003071083Y0000134277D01*
X0003074083Y0000135777D01*
X0003075583Y0000137276D01*
X0003077082Y0000140276D01*
X0003077082Y0000152275D01*
X0003045586Y0000152275D01*
X0003045586Y0000141776D01*
X0003047086Y0000138776D01*
X0003048586Y0000137276D01*
X0003051586Y0000135777D01*
X0003054585Y0000135777D01*
X0003057585Y0000137276D01*
X0003059085Y0000138776D01*
X0003060584Y0000141776D01*
X0003060584Y0000152275D01*
G04 #@! TO.C,U2*
X0003175334Y0000773740D02*
X0003205334Y0000773740D01*
X0003205334Y0000773740D02*
X0003205334Y0000833740D01*
X0003205334Y0000833740D02*
X0003175334Y0000833740D01*
X0003615334Y0000713740D02*
X0003615334Y0000893740D01*
X0003615334Y0000893740D02*
X0003175334Y0000893740D01*
X0003175334Y0000893740D02*
X0003175334Y0000713740D01*
X0003175334Y0000713740D02*
X0003615334Y0000713740D01*
D37*
G04 #@! TO.C,J1*
X0003129173Y0001330334D02*
X0003129173Y0001129547D01*
X0003129173Y0001129547D02*
X0003544527Y0001129547D01*
X0003544527Y0001129547D02*
X0003544527Y0001328366D01*
G04 #@! TO.C,R1*
X0003386712Y0000486594D02*
X0003433956Y0000486594D01*
X0003433956Y0000555885D02*
X0003386712Y0000555885D01*
G04 #@! TO.C,R3*
X0003186712Y0000489094D02*
X0003233956Y0000489094D01*
X0003233956Y0000558385D02*
X0003186712Y0000558385D01*
G04 #@! TO.C,Q2*
X0003450629Y0000208661D02*
X0003487244Y0000208661D01*
X0003575039Y0000208661D02*
X0003538425Y0000208661D01*
X0003575039Y0000208661D02*
X0003575039Y0000123622D01*
X0003450629Y0000208661D02*
X0003450629Y0000151181D01*
G04 #@! TO.C,Q1*
X0003150629Y0000208661D02*
X0003187244Y0000208661D01*
X0003275039Y0000208661D02*
X0003238425Y0000208661D01*
X0003275039Y0000208661D02*
X0003275039Y0000123622D01*
X0003150629Y0000208661D02*
X0003150629Y0000151181D01*
G04 #@! TO.C,U2*
D36*
X0003172830Y0000960300D02*
X0003172830Y0000928428D01*
X0003170956Y0000924679D01*
X0003169081Y0000922804D01*
X0003165331Y0000920929D01*
X0003157832Y0000920929D01*
X0003154083Y0000922804D01*
X0003152208Y0000924679D01*
X0003150333Y0000928428D01*
X0003150333Y0000960300D01*
X0003133460Y0000956550D02*
X0003131586Y0000958425D01*
X0003127836Y0000960300D01*
X0003118462Y0000960300D01*
X0003114713Y0000958425D01*
X0003112838Y0000956550D01*
X0003110963Y0000952800D01*
X0003110963Y0000949051D01*
X0003112838Y0000943427D01*
X0003135335Y0000920929D01*
X0003110963Y0000920929D01*
G04 #@! TO.C,R1*
X0003416896Y0000570359D02*
X0003430019Y0000589106D01*
X0003439393Y0000570359D02*
X0003439393Y0000609729D01*
X0003424395Y0000609729D01*
X0003420645Y0000607854D01*
X0003418771Y0000605979D01*
X0003416896Y0000602230D01*
X0003416896Y0000596605D01*
X0003418771Y0000592856D01*
X0003420645Y0000590981D01*
X0003424395Y0000589106D01*
X0003439393Y0000589106D01*
X0003379400Y0000570359D02*
X0003401898Y0000570359D01*
X0003390649Y0000570359D02*
X0003390649Y0000609729D01*
X0003394399Y0000604104D01*
X0003398148Y0000600355D01*
X0003401898Y0000598480D01*
G04 #@! TO.C,R3*
X0003216896Y0000572859D02*
X0003230019Y0000591606D01*
X0003239393Y0000572859D02*
X0003239393Y0000612229D01*
X0003224395Y0000612229D01*
X0003220645Y0000610354D01*
X0003218771Y0000608479D01*
X0003216896Y0000604730D01*
X0003216896Y0000599105D01*
X0003218771Y0000595356D01*
X0003220645Y0000593481D01*
X0003224395Y0000591606D01*
X0003239393Y0000591606D01*
X0003203772Y0000612229D02*
X0003179400Y0000612229D01*
X0003192524Y0000597230D01*
X0003186900Y0000597230D01*
X0003183150Y0000595356D01*
X0003181275Y0000593481D01*
X0003179400Y0000589731D01*
X0003179400Y0000580358D01*
X0003181275Y0000576608D01*
X0003183150Y0000574733D01*
X0003186900Y0000572859D01*
X0003198148Y0000572859D01*
X0003201898Y0000574733D01*
X0003203772Y0000576608D01*
G04 #@! TO.C,Q2*
X0003632819Y0000182489D02*
X0003630944Y0000186239D01*
X0003627195Y0000189988D01*
X0003621570Y0000195613D01*
X0003619696Y0000199362D01*
X0003619696Y0000203112D01*
X0003629070Y0000201237D02*
X0003627195Y0000204986D01*
X0003623445Y0000208736D01*
X0003615946Y0000210611D01*
X0003602823Y0000210611D01*
X0003595324Y0000208736D01*
X0003591574Y0000204986D01*
X0003589700Y0000201237D01*
X0003589700Y0000193738D01*
X0003591574Y0000189988D01*
X0003595324Y0000186239D01*
X0003602823Y0000184364D01*
X0003615946Y0000184364D01*
X0003623445Y0000186239D01*
X0003627195Y0000189988D01*
X0003629070Y0000193738D01*
X0003629070Y0000201237D01*
X0003593449Y0000169366D02*
X0003591574Y0000167491D01*
X0003589700Y0000163742D01*
X0003589700Y0000154368D01*
X0003591574Y0000150618D01*
X0003593449Y0000148743D01*
X0003597199Y0000146869D01*
X0003600948Y0000146869D01*
X0003606572Y0000148743D01*
X0003629070Y0000171241D01*
X0003629070Y0000146869D01*
G04 #@! TO.C,Q1*
X0003332819Y0000182489D02*
X0003330944Y0000186239D01*
X0003327195Y0000189988D01*
X0003321571Y0000195613D01*
X0003319696Y0000199362D01*
X0003319696Y0000203112D01*
X0003329070Y0000201237D02*
X0003327195Y0000204986D01*
X0003323445Y0000208736D01*
X0003315946Y0000210611D01*
X0003302823Y0000210611D01*
X0003295324Y0000208736D01*
X0003291574Y0000204986D01*
X0003289700Y0000201237D01*
X0003289700Y0000193738D01*
X0003291574Y0000189988D01*
X0003295324Y0000186239D01*
X0003302823Y0000184364D01*
X0003315946Y0000184364D01*
X0003323445Y0000186239D01*
X0003327195Y0000189988D01*
X0003329070Y0000193738D01*
X0003329070Y0000201237D01*
X0003329070Y0000146869D02*
X0003329070Y0000169366D01*
X0003329070Y0000158117D02*
X0003289700Y0000158117D01*
X0003295324Y0000161867D01*
X0003299073Y0000165616D01*
X0003300948Y0000169366D01*
G04 #@! TD*
G04 next file*
G04 #@! TF.GenerationSoftware,KiCad,Pcbnew,(5.0.2)-1*
G04 #@! TF.CreationDate,2019-07-10T16:32:42+02:00*
G04 #@! TF.ProjectId,joystick tester systest,6a6f7973-7469-4636-9b20-746573746572,rev?*
G04 #@! TF.SameCoordinates,Original*
G04 #@! TF.FileFunction,Legend,Bot*
G04 #@! TF.FilePolarity,Positive*
G04 Gerber Fmt 4.6, Leading zero omitted, Abs format (unit mm)*
G04 Created by KiCad (PCBNEW (5.0.2)-1) date 10-7-2019 16:32:42*
G01G01*
G04 APERTURE LIST*
G04 APERTURE END LIST*
D38*
X0001272811Y0001811571D02*
X0001272811Y0001862752D01*
X0001248439Y0001811571D02*
X0001248439Y0001862752D01*
X0001219192Y0001811571D01*
X0001219192Y0001862752D01*
X0001202132Y0001862752D02*
X0001172886Y0001862752D01*
X0001187509Y0001811571D02*
X0001187509Y0001862752D01*
X0001146077Y0001862752D02*
X0001136328Y0001862752D01*
X0001131453Y0001860314D01*
X0001126579Y0001855440D01*
X0001124142Y0001845691D01*
X0001124142Y0001828631D01*
X0001126579Y0001818882D01*
X0001131453Y0001814008D01*
X0001136328Y0001811571D01*
X0001146077Y0001811571D01*
X0001150951Y0001814008D01*
X0001155825Y0001818882D01*
X0001158262Y0001828631D01*
X0001158262Y0001845691D01*
X0001155825Y0001855440D01*
X0001150951Y0001860314D01*
X0001146077Y0001862752D01*
X0001070523Y0001862752D02*
X0001041277Y0001862752D01*
X0001055900Y0001811571D02*
X0001055900Y0001862752D01*
X0001024217Y0001811571D02*
X0001024217Y0001862752D01*
X0001024217Y0001838380D02*
X0000994970Y0001838380D01*
X0000994970Y0001811571D02*
X0000994970Y0001862752D01*
X0000970598Y0001838380D02*
X0000953538Y0001838380D01*
X0000946227Y0001811571D02*
X0000970598Y0001811571D01*
X0000970598Y0001862752D01*
X0000946227Y0001862752D01*
X0001310587Y0001774169D02*
X0001298401Y0001722988D01*
X0001288652Y0001759546D01*
X0001278904Y0001722988D01*
X0001266718Y0001774169D01*
X0001237471Y0001774169D02*
X0001227723Y0001774169D01*
X0001222848Y0001771732D01*
X0001217974Y0001766857D01*
X0001215537Y0001757109D01*
X0001215537Y0001740048D01*
X0001217974Y0001730299D01*
X0001222848Y0001725425D01*
X0001227723Y0001722988D01*
X0001237471Y0001722988D01*
X0001242346Y0001725425D01*
X0001247220Y0001730299D01*
X0001249657Y0001740048D01*
X0001249657Y0001757109D01*
X0001247220Y0001766857D01*
X0001242346Y0001771732D01*
X0001237471Y0001774169D01*
X0001193602Y0001722988D02*
X0001193602Y0001774169D01*
X0001164355Y0001722988D01*
X0001164355Y0001774169D01*
X0001139984Y0001722988D02*
X0001139984Y0001774169D01*
X0001127798Y0001774169D01*
X0001120486Y0001771732D01*
X0001115612Y0001766857D01*
X0001113174Y0001761983D01*
X0001110737Y0001752234D01*
X0001110737Y0001744923D01*
X0001113174Y0001735174D01*
X0001115612Y0001730299D01*
X0001120486Y0001725425D01*
X0001127798Y0001722988D01*
X0001139984Y0001722988D01*
X0001088802Y0001749797D02*
X0001071742Y0001749797D01*
X0001064430Y0001722988D02*
X0001088802Y0001722988D01*
X0001088802Y0001774169D01*
X0001064430Y0001774169D01*
X0001013249Y0001722988D02*
X0001030310Y0001747360D01*
X0001042496Y0001722988D02*
X0001042496Y0001774169D01*
X0001022998Y0001774169D01*
X0001018124Y0001771732D01*
X0001015687Y0001769295D01*
X0001013249Y0001764420D01*
X0001013249Y0001757109D01*
X0001015687Y0001752234D01*
X0001018124Y0001749797D01*
X0001022998Y0001747360D01*
X0001042496Y0001747360D01*
X0000974254Y0001749797D02*
X0000991315Y0001749797D01*
X0000991315Y0001722988D02*
X0000991315Y0001774169D01*
X0000966943Y0001774169D01*
X0000947445Y0001774169D02*
X0000947445Y0001732737D01*
X0000945008Y0001727862D01*
X0000942571Y0001725425D01*
X0000937696Y0001722988D01*
X0000927948Y0001722988D01*
X0000923073Y0001725425D01*
X0000920636Y0001727862D01*
X0000918199Y0001732737D01*
X0000918199Y0001774169D01*
X0000869455Y0001722988D02*
X0000893827Y0001722988D01*
X0000893827Y0001774169D01*
D39*
X0000811990Y0002186395D02*
X0000832988Y0002178896D01*
X0000811990Y0002171397D01*
X0000832988Y0002142901D02*
X0000832988Y0002160898D01*
X0000832988Y0002151900D02*
X0000801492Y0002151900D01*
X0000805991Y0002154899D01*
X0000808991Y0002157899D01*
X0000810491Y0002160898D01*
X0000829988Y0002129402D02*
X0000831488Y0002127903D01*
X0000832988Y0002129402D01*
X0000831488Y0002130902D01*
X0000829988Y0002129402D01*
X0000832988Y0002129402D01*
X0000832988Y0002097906D02*
X0000832988Y0002115904D01*
X0000832988Y0002106905D02*
X0000801492Y0002106905D01*
X0000805991Y0002109905D01*
X0000808991Y0002112904D01*
X0000810491Y0002115904D01*
X0000808991Y0002034914D02*
X0000807491Y0002037914D01*
X0000807491Y0002043913D01*
X0000808991Y0002046913D01*
X0000811990Y0002049912D01*
X0000814990Y0002051412D01*
X0000820989Y0002051412D01*
X0000823989Y0002049912D01*
X0000826989Y0002046913D01*
X0000828488Y0002043913D01*
X0000828488Y0002037914D01*
X0000826989Y0002034914D01*
X0000796992Y0002040913D02*
X0000798492Y0002048413D01*
X0000802992Y0002055912D01*
X0000810491Y0002060411D01*
X0000817990Y0002061911D01*
X0000825489Y0002060411D01*
X0000832988Y0002055912D01*
X0000837487Y0002048413D01*
X0000838987Y0002040913D01*
X0000837487Y0002033414D01*
X0000832988Y0002025915D01*
X0000825489Y0002021416D01*
X0000817990Y0002019916D01*
X0000810491Y0002021416D01*
X0000802992Y0002025915D01*
X0000798492Y0002033414D01*
X0000796992Y0002040913D01*
X0000804491Y0001983921D02*
X0000802992Y0001982421D01*
X0000801492Y0001979421D01*
X0000801492Y0001971922D01*
X0000802992Y0001968922D01*
X0000804491Y0001967423D01*
X0000807491Y0001965923D01*
X0000810491Y0001965923D01*
X0000814990Y0001967423D01*
X0000832988Y0001985420D01*
X0000832988Y0001965923D01*
X0000801492Y0001946425D02*
X0000801492Y0001943426D01*
X0000802992Y0001940426D01*
X0000804491Y0001938926D01*
X0000807491Y0001937426D01*
X0000813490Y0001935927D01*
X0000820989Y0001935927D01*
X0000826989Y0001937426D01*
X0000829988Y0001938926D01*
X0000831488Y0001940426D01*
X0000832988Y0001943426D01*
X0000832988Y0001946425D01*
X0000831488Y0001949425D01*
X0000829988Y0001950925D01*
X0000826989Y0001952425D01*
X0000820989Y0001953924D01*
X0000813490Y0001953924D01*
X0000807491Y0001952425D01*
X0000804491Y0001950925D01*
X0000802992Y0001949425D01*
X0000801492Y0001946425D01*
X0000832988Y0001905930D02*
X0000832988Y0001923928D01*
X0000832988Y0001914929D02*
X0000801492Y0001914929D01*
X0000805991Y0001917929D01*
X0000808991Y0001920928D01*
X0000810491Y0001923928D01*
X0000814990Y0001887933D02*
X0000813490Y0001890932D01*
X0000811990Y0001892432D01*
X0000808991Y0001893932D01*
X0000807491Y0001893932D01*
X0000804491Y0001892432D01*
X0000802992Y0001890932D01*
X0000801492Y0001887933D01*
X0000801492Y0001881933D01*
X0000802992Y0001878934D01*
X0000804491Y0001877434D01*
X0000807491Y0001875934D01*
X0000808991Y0001875934D01*
X0000811990Y0001877434D01*
X0000813490Y0001878934D01*
X0000814990Y0001881933D01*
X0000814990Y0001887933D01*
X0000816490Y0001890932D01*
X0000817990Y0001892432D01*
X0000820989Y0001893932D01*
X0000826989Y0001893932D01*
X0000829988Y0001892432D01*
X0000831488Y0001890932D01*
X0000832988Y0001887933D01*
X0000832988Y0001881933D01*
X0000831488Y0001878934D01*
X0000829988Y0001877434D01*
X0000826989Y0001875934D01*
X0000820989Y0001875934D01*
X0000817990Y0001877434D01*
X0000816490Y0001878934D01*
X0000814990Y0001881933D01*
X0000820989Y0001862436D02*
X0000820989Y0001838439D01*
X0000832988Y0001806943D02*
X0000832988Y0001824940D01*
X0000832988Y0001815942D02*
X0000801492Y0001815942D01*
X0000805991Y0001818941D01*
X0000808991Y0001821941D01*
X0000810491Y0001824940D01*
X0000832988Y0001791945D02*
X0000832988Y0001785945D01*
X0000831488Y0001782946D01*
X0000829988Y0001781446D01*
X0000825489Y0001778446D01*
X0000819490Y0001776946D01*
X0000807491Y0001776946D01*
X0000804491Y0001778446D01*
X0000802992Y0001779946D01*
X0000801492Y0001782946D01*
X0000801492Y0001788945D01*
X0000802992Y0001791945D01*
X0000804491Y0001793444D01*
X0000807491Y0001794944D01*
X0000814990Y0001794944D01*
X0000817990Y0001793444D01*
X0000819490Y0001791945D01*
X0000820989Y0001788945D01*
X0000820989Y0001782946D01*
X0000819490Y0001779946D01*
X0000817990Y0001778446D01*
X0000814990Y0001776946D01*
X0000832988Y0001739451D02*
X0000801492Y0001739451D01*
X0000813490Y0001739451D02*
X0000811990Y0001736452D01*
X0000811990Y0001730452D01*
X0000813490Y0001727453D01*
X0000814990Y0001725953D01*
X0000817990Y0001724453D01*
X0000826989Y0001724453D01*
X0000829988Y0001725953D01*
X0000831488Y0001727453D01*
X0000832988Y0001730452D01*
X0000832988Y0001736452D01*
X0000831488Y0001739451D01*
X0000811990Y0001713954D02*
X0000832988Y0001706455D01*
X0000811990Y0001698956D02*
X0000832988Y0001706455D01*
X0000840487Y0001709455D01*
X0000841987Y0001710955D01*
X0000843487Y0001713954D01*
X0000801492Y0001667460D02*
X0000801492Y0001649462D01*
X0000832988Y0001658461D02*
X0000801492Y0001658461D01*
X0000831488Y0001640464D02*
X0000832988Y0001635964D01*
X0000832988Y0001628465D01*
X0000831488Y0001625465D01*
X0000829988Y0001623966D01*
X0000826989Y0001622466D01*
X0000823989Y0001622466D01*
X0000820989Y0001623966D01*
X0000819490Y0001625465D01*
X0000817990Y0001628465D01*
X0000816490Y0001634464D01*
X0000814990Y0001637464D01*
X0000813490Y0001638964D01*
X0000810491Y0001640464D01*
X0000807491Y0001640464D01*
X0000804491Y0001638964D01*
X0000802992Y0001637464D01*
X0000801492Y0001634464D01*
X0000801492Y0001626965D01*
X0000802992Y0001622466D01*
X0000816490Y0001598469D02*
X0000817990Y0001593969D01*
X0000819490Y0001592470D01*
X0000822489Y0001590970D01*
X0000826989Y0001590970D01*
X0000829988Y0001592470D01*
X0000831488Y0001593969D01*
X0000832988Y0001596969D01*
X0000832988Y0001608967D01*
X0000801492Y0001608967D01*
X0000801492Y0001598469D01*
X0000802992Y0001595469D01*
X0000804491Y0001593969D01*
X0000807491Y0001592470D01*
X0000810491Y0001592470D01*
X0000813490Y0001593969D01*
X0000814990Y0001595469D01*
X0000816490Y0001598469D01*
X0000816490Y0001608967D01*
G04 #@! TO.C,U2*
X0000931240Y0002230433D02*
X0000961240Y0002230433D01*
X0000961240Y0002230433D02*
X0000961240Y0002290433D01*
X0000961240Y0002290433D02*
X0000931240Y0002290433D01*
X0001371240Y0002170433D02*
X0001371240Y0002350433D01*
X0001371240Y0002350433D02*
X0000931240Y0002350433D01*
X0000931240Y0002350433D02*
X0000931240Y0002170433D01*
X0000931240Y0002170433D02*
X0001371240Y0002170433D01*
D40*
G04 #@! TO.C,J1*
X0000885078Y0002787027D02*
X0000885078Y0002586240D01*
X0000885078Y0002586240D02*
X0001300433Y0002586240D01*
X0001300433Y0002586240D02*
X0001300433Y0002785059D01*
G04 #@! TO.C,R1*
X0001142618Y0001943287D02*
X0001189862Y0001943287D01*
X0001189862Y0002012578D02*
X0001142618Y0002012578D01*
G04 #@! TO.C,R3*
X0000942618Y0001945787D02*
X0000989862Y0001945787D01*
X0000989862Y0002015078D02*
X0000942618Y0002015078D01*
G04 #@! TO.C,Q2*
X0001206535Y0001665354D02*
X0001243149Y0001665354D01*
X0001330944Y0001665354D02*
X0001294330Y0001665354D01*
X0001330944Y0001665354D02*
X0001330944Y0001580314D01*
X0001206535Y0001665354D02*
X0001206535Y0001607874D01*
G04 #@! TO.C,Q1*
X0000906535Y0001665354D02*
X0000943149Y0001665354D01*
X0001030944Y0001665354D02*
X0000994330Y0001665354D01*
X0001030944Y0001665354D02*
X0001030944Y0001580314D01*
X0000906535Y0001665354D02*
X0000906535Y0001607874D01*
G04 #@! TO.C,U2*
D39*
X0000928736Y0002416992D02*
X0000928736Y0002385121D01*
X0000926861Y0002381372D01*
X0000924986Y0002379497D01*
X0000921237Y0002377622D01*
X0000913738Y0002377622D01*
X0000909988Y0002379497D01*
X0000908113Y0002381372D01*
X0000906239Y0002385121D01*
X0000906239Y0002416992D01*
X0000889366Y0002413243D02*
X0000887491Y0002415118D01*
X0000883741Y0002416992D01*
X0000874368Y0002416992D01*
X0000870618Y0002415118D01*
X0000868743Y0002413243D01*
X0000866869Y0002409493D01*
X0000866869Y0002405744D01*
X0000868743Y0002400120D01*
X0000891241Y0002377622D01*
X0000866869Y0002377622D01*
G04 #@! TO.C,R1*
X0001172801Y0002027051D02*
X0001185925Y0002045799D01*
X0001195298Y0002027051D02*
X0001195298Y0002066422D01*
X0001180300Y0002066422D01*
X0001176551Y0002064547D01*
X0001174676Y0002062672D01*
X0001172801Y0002058922D01*
X0001172801Y0002053298D01*
X0001174676Y0002049549D01*
X0001176551Y0002047674D01*
X0001180300Y0002045799D01*
X0001195298Y0002045799D01*
X0001135306Y0002027051D02*
X0001157803Y0002027051D01*
X0001146555Y0002027051D02*
X0001146555Y0002066422D01*
X0001150304Y0002060797D01*
X0001154054Y0002057048D01*
X0001157803Y0002055173D01*
G04 #@! TO.C,R3*
X0000972801Y0002029551D02*
X0000985925Y0002048299D01*
X0000995299Y0002029551D02*
X0000995299Y0002068922D01*
X0000980300Y0002068922D01*
X0000976551Y0002067047D01*
X0000974676Y0002065172D01*
X0000972801Y0002061422D01*
X0000972801Y0002055798D01*
X0000974676Y0002052049D01*
X0000976551Y0002050174D01*
X0000980300Y0002048299D01*
X0000995299Y0002048299D01*
X0000959678Y0002068922D02*
X0000935306Y0002068922D01*
X0000948429Y0002053923D01*
X0000942805Y0002053923D01*
X0000939056Y0002052049D01*
X0000937181Y0002050174D01*
X0000935306Y0002046424D01*
X0000935306Y0002037051D01*
X0000937181Y0002033301D01*
X0000939056Y0002031426D01*
X0000942805Y0002029551D01*
X0000954054Y0002029551D01*
X0000957803Y0002031426D01*
X0000959678Y0002033301D01*
G04 #@! TO.C,Q2*
X0001388725Y0001639182D02*
X0001386850Y0001642932D01*
X0001383100Y0001646681D01*
X0001377476Y0001652305D01*
X0001375601Y0001656055D01*
X0001375601Y0001659805D01*
X0001384975Y0001657930D02*
X0001383100Y0001661679D01*
X0001379351Y0001665429D01*
X0001371852Y0001667304D01*
X0001358728Y0001667304D01*
X0001351229Y0001665429D01*
X0001347480Y0001661679D01*
X0001345605Y0001657930D01*
X0001345605Y0001650431D01*
X0001347480Y0001646681D01*
X0001351229Y0001642932D01*
X0001358728Y0001641057D01*
X0001371852Y0001641057D01*
X0001379351Y0001642932D01*
X0001383100Y0001646681D01*
X0001384975Y0001650431D01*
X0001384975Y0001657930D01*
X0001349355Y0001626059D02*
X0001347480Y0001624184D01*
X0001345605Y0001620434D01*
X0001345605Y0001611061D01*
X0001347480Y0001607311D01*
X0001349355Y0001605436D01*
X0001353104Y0001603562D01*
X0001356854Y0001603562D01*
X0001362478Y0001605436D01*
X0001384975Y0001627934D01*
X0001384975Y0001603562D01*
G04 #@! TO.C,Q1*
X0001088725Y0001639182D02*
X0001086850Y0001642932D01*
X0001083100Y0001646681D01*
X0001077476Y0001652305D01*
X0001075601Y0001656055D01*
X0001075601Y0001659805D01*
X0001084975Y0001657930D02*
X0001083100Y0001661679D01*
X0001079351Y0001665429D01*
X0001071852Y0001667304D01*
X0001058728Y0001667304D01*
X0001051229Y0001665429D01*
X0001047480Y0001661679D01*
X0001045605Y0001657930D01*
X0001045605Y0001650431D01*
X0001047480Y0001646681D01*
X0001051229Y0001642932D01*
X0001058728Y0001641057D01*
X0001071852Y0001641057D01*
X0001079351Y0001642932D01*
X0001083100Y0001646681D01*
X0001084975Y0001650431D01*
X0001084975Y0001657930D01*
X0001084975Y0001603562D02*
X0001084975Y0001626059D01*
X0001084975Y0001614810D02*
X0001045605Y0001614810D01*
X0001051229Y0001618560D01*
X0001054979Y0001622309D01*
X0001056854Y0001626059D01*
G04 #@! TD*
G04 next file*
G04 #@! TF.GenerationSoftware,KiCad,Pcbnew,(5.0.2)-1*
G04 #@! TF.CreationDate,2019-07-10T16:32:42+02:00*
G04 #@! TF.ProjectId,joystick tester systest,6a6f7973-7469-4636-9b20-746573746572,rev?*
G04 #@! TF.SameCoordinates,Original*
G04 #@! TF.FileFunction,Legend,Bot*
G04 #@! TF.FilePolarity,Positive*
G04 Gerber Fmt 4.6, Leading zero omitted, Abs format (unit mm)*
G04 Created by KiCad (PCBNEW (5.0.2)-1) date 10-7-2019 16:32:42*
G01G01*
G04 APERTURE LIST*
G04 APERTURE END LIST*
D41*
X0002020842Y0001811571D02*
X0002020842Y0001862752D01*
X0001996470Y0001811571D02*
X0001996470Y0001862752D01*
X0001967224Y0001811571D01*
X0001967224Y0001862752D01*
X0001950164Y0001862752D02*
X0001920917Y0001862752D01*
X0001935540Y0001811571D02*
X0001935540Y0001862752D01*
X0001894108Y0001862752D02*
X0001884359Y0001862752D01*
X0001879485Y0001860314D01*
X0001874610Y0001855440D01*
X0001872173Y0001845691D01*
X0001872173Y0001828631D01*
X0001874610Y0001818882D01*
X0001879485Y0001814008D01*
X0001884359Y0001811571D01*
X0001894108Y0001811571D01*
X0001898982Y0001814008D01*
X0001903857Y0001818882D01*
X0001906294Y0001828631D01*
X0001906294Y0001845691D01*
X0001903857Y0001855440D01*
X0001898982Y0001860314D01*
X0001894108Y0001862752D01*
X0001818555Y0001862752D02*
X0001789309Y0001862752D01*
X0001803932Y0001811571D02*
X0001803932Y0001862752D01*
X0001772248Y0001811571D02*
X0001772248Y0001862752D01*
X0001772248Y0001838380D02*
X0001743002Y0001838380D01*
X0001743002Y0001811571D02*
X0001743002Y0001862752D01*
X0001718630Y0001838380D02*
X0001701570Y0001838380D01*
X0001694258Y0001811571D02*
X0001718630Y0001811571D01*
X0001718630Y0001862752D01*
X0001694258Y0001862752D01*
X0002058619Y0001774169D02*
X0002046433Y0001722988D01*
X0002036684Y0001759546D01*
X0002026935Y0001722988D01*
X0002014749Y0001774169D01*
X0001985503Y0001774169D02*
X0001975754Y0001774169D01*
X0001970880Y0001771732D01*
X0001966005Y0001766857D01*
X0001963568Y0001757109D01*
X0001963568Y0001740048D01*
X0001966005Y0001730299D01*
X0001970880Y0001725425D01*
X0001975754Y0001722988D01*
X0001985503Y0001722988D01*
X0001990377Y0001725425D01*
X0001995252Y0001730299D01*
X0001997689Y0001740048D01*
X0001997689Y0001757109D01*
X0001995252Y0001766857D01*
X0001990377Y0001771732D01*
X0001985503Y0001774169D01*
X0001941633Y0001722988D02*
X0001941633Y0001774169D01*
X0001912387Y0001722988D01*
X0001912387Y0001774169D01*
X0001888015Y0001722988D02*
X0001888015Y0001774169D01*
X0001875829Y0001774169D01*
X0001868517Y0001771732D01*
X0001863643Y0001766857D01*
X0001861206Y0001761983D01*
X0001858769Y0001752234D01*
X0001858769Y0001744923D01*
X0001861206Y0001735174D01*
X0001863643Y0001730299D01*
X0001868517Y0001725425D01*
X0001875829Y0001722988D01*
X0001888015Y0001722988D01*
X0001836834Y0001749797D02*
X0001819774Y0001749797D01*
X0001812462Y0001722988D02*
X0001836834Y0001722988D01*
X0001836834Y0001774169D01*
X0001812462Y0001774169D01*
X0001761281Y0001722988D02*
X0001778341Y0001747360D01*
X0001790527Y0001722988D02*
X0001790527Y0001774169D01*
X0001771030Y0001774169D01*
X0001766155Y0001771732D01*
X0001763718Y0001769295D01*
X0001761281Y0001764420D01*
X0001761281Y0001757109D01*
X0001763718Y0001752234D01*
X0001766155Y0001749797D01*
X0001771030Y0001747360D01*
X0001790527Y0001747360D01*
X0001722286Y0001749797D02*
X0001739346Y0001749797D01*
X0001739346Y0001722988D02*
X0001739346Y0001774169D01*
X0001714974Y0001774169D01*
X0001695477Y0001774169D02*
X0001695477Y0001732737D01*
X0001693039Y0001727862D01*
X0001690602Y0001725425D01*
X0001685728Y0001722988D01*
X0001675979Y0001722988D01*
X0001671105Y0001725425D01*
X0001668667Y0001727862D01*
X0001666230Y0001732737D01*
X0001666230Y0001774169D01*
X0001617486Y0001722988D02*
X0001641858Y0001722988D01*
X0001641858Y0001774169D01*
D42*
X0001560022Y0002186395D02*
X0001581019Y0002178896D01*
X0001560022Y0002171397D01*
X0001581019Y0002142901D02*
X0001581019Y0002160898D01*
X0001581019Y0002151900D02*
X0001549523Y0002151900D01*
X0001554023Y0002154899D01*
X0001557022Y0002157899D01*
X0001558522Y0002160898D01*
X0001578020Y0002129402D02*
X0001579520Y0002127903D01*
X0001581019Y0002129402D01*
X0001579520Y0002130902D01*
X0001578020Y0002129402D01*
X0001581019Y0002129402D01*
X0001581019Y0002097906D02*
X0001581019Y0002115904D01*
X0001581019Y0002106905D02*
X0001549523Y0002106905D01*
X0001554023Y0002109905D01*
X0001557022Y0002112904D01*
X0001558522Y0002115904D01*
X0001557022Y0002034914D02*
X0001555523Y0002037914D01*
X0001555523Y0002043913D01*
X0001557022Y0002046913D01*
X0001560022Y0002049912D01*
X0001563022Y0002051412D01*
X0001569021Y0002051412D01*
X0001572020Y0002049912D01*
X0001575020Y0002046913D01*
X0001576520Y0002043913D01*
X0001576520Y0002037914D01*
X0001575020Y0002034914D01*
X0001545024Y0002040913D02*
X0001546524Y0002048413D01*
X0001551023Y0002055912D01*
X0001558522Y0002060411D01*
X0001566021Y0002061911D01*
X0001573520Y0002060411D01*
X0001581019Y0002055912D01*
X0001585519Y0002048413D01*
X0001587019Y0002040913D01*
X0001585519Y0002033414D01*
X0001581019Y0002025915D01*
X0001573520Y0002021416D01*
X0001566021Y0002019916D01*
X0001558522Y0002021416D01*
X0001551023Y0002025915D01*
X0001546524Y0002033414D01*
X0001545024Y0002040913D01*
X0001552523Y0001983921D02*
X0001551023Y0001982421D01*
X0001549523Y0001979421D01*
X0001549523Y0001971922D01*
X0001551023Y0001968922D01*
X0001552523Y0001967423D01*
X0001555523Y0001965923D01*
X0001558522Y0001965923D01*
X0001563022Y0001967423D01*
X0001581019Y0001985420D01*
X0001581019Y0001965923D01*
X0001549523Y0001946425D02*
X0001549523Y0001943426D01*
X0001551023Y0001940426D01*
X0001552523Y0001938926D01*
X0001555523Y0001937426D01*
X0001561522Y0001935927D01*
X0001569021Y0001935927D01*
X0001575020Y0001937426D01*
X0001578020Y0001938926D01*
X0001579520Y0001940426D01*
X0001581019Y0001943426D01*
X0001581019Y0001946425D01*
X0001579520Y0001949425D01*
X0001578020Y0001950925D01*
X0001575020Y0001952425D01*
X0001569021Y0001953924D01*
X0001561522Y0001953924D01*
X0001555523Y0001952425D01*
X0001552523Y0001950925D01*
X0001551023Y0001949425D01*
X0001549523Y0001946425D01*
X0001581019Y0001905930D02*
X0001581019Y0001923928D01*
X0001581019Y0001914929D02*
X0001549523Y0001914929D01*
X0001554023Y0001917929D01*
X0001557022Y0001920928D01*
X0001558522Y0001923928D01*
X0001563022Y0001887933D02*
X0001561522Y0001890932D01*
X0001560022Y0001892432D01*
X0001557022Y0001893932D01*
X0001555523Y0001893932D01*
X0001552523Y0001892432D01*
X0001551023Y0001890932D01*
X0001549523Y0001887933D01*
X0001549523Y0001881933D01*
X0001551023Y0001878934D01*
X0001552523Y0001877434D01*
X0001555523Y0001875934D01*
X0001557022Y0001875934D01*
X0001560022Y0001877434D01*
X0001561522Y0001878934D01*
X0001563022Y0001881933D01*
X0001563022Y0001887933D01*
X0001564521Y0001890932D01*
X0001566021Y0001892432D01*
X0001569021Y0001893932D01*
X0001575020Y0001893932D01*
X0001578020Y0001892432D01*
X0001579520Y0001890932D01*
X0001581019Y0001887933D01*
X0001581019Y0001881933D01*
X0001579520Y0001878934D01*
X0001578020Y0001877434D01*
X0001575020Y0001875934D01*
X0001569021Y0001875934D01*
X0001566021Y0001877434D01*
X0001564521Y0001878934D01*
X0001563022Y0001881933D01*
X0001569021Y0001862436D02*
X0001569021Y0001838439D01*
X0001581019Y0001806943D02*
X0001581019Y0001824940D01*
X0001581019Y0001815942D02*
X0001549523Y0001815942D01*
X0001554023Y0001818941D01*
X0001557022Y0001821941D01*
X0001558522Y0001824940D01*
X0001581019Y0001791945D02*
X0001581019Y0001785945D01*
X0001579520Y0001782946D01*
X0001578020Y0001781446D01*
X0001573520Y0001778446D01*
X0001567521Y0001776946D01*
X0001555523Y0001776946D01*
X0001552523Y0001778446D01*
X0001551023Y0001779946D01*
X0001549523Y0001782946D01*
X0001549523Y0001788945D01*
X0001551023Y0001791945D01*
X0001552523Y0001793444D01*
X0001555523Y0001794944D01*
X0001563022Y0001794944D01*
X0001566021Y0001793444D01*
X0001567521Y0001791945D01*
X0001569021Y0001788945D01*
X0001569021Y0001782946D01*
X0001567521Y0001779946D01*
X0001566021Y0001778446D01*
X0001563022Y0001776946D01*
X0001581019Y0001739451D02*
X0001549523Y0001739451D01*
X0001561522Y0001739451D02*
X0001560022Y0001736452D01*
X0001560022Y0001730452D01*
X0001561522Y0001727453D01*
X0001563022Y0001725953D01*
X0001566021Y0001724453D01*
X0001575020Y0001724453D01*
X0001578020Y0001725953D01*
X0001579520Y0001727453D01*
X0001581019Y0001730452D01*
X0001581019Y0001736452D01*
X0001579520Y0001739451D01*
X0001560022Y0001713954D02*
X0001581019Y0001706455D01*
X0001560022Y0001698956D02*
X0001581019Y0001706455D01*
X0001588518Y0001709455D01*
X0001590018Y0001710955D01*
X0001591518Y0001713954D01*
X0001549523Y0001667460D02*
X0001549523Y0001649462D01*
X0001581019Y0001658461D02*
X0001549523Y0001658461D01*
X0001579520Y0001640464D02*
X0001581019Y0001635964D01*
X0001581019Y0001628465D01*
X0001579520Y0001625465D01*
X0001578020Y0001623966D01*
X0001575020Y0001622466D01*
X0001572020Y0001622466D01*
X0001569021Y0001623966D01*
X0001567521Y0001625465D01*
X0001566021Y0001628465D01*
X0001564521Y0001634464D01*
X0001563022Y0001637464D01*
X0001561522Y0001638964D01*
X0001558522Y0001640464D01*
X0001555523Y0001640464D01*
X0001552523Y0001638964D01*
X0001551023Y0001637464D01*
X0001549523Y0001634464D01*
X0001549523Y0001626965D01*
X0001551023Y0001622466D01*
X0001564521Y0001598469D02*
X0001566021Y0001593969D01*
X0001567521Y0001592470D01*
X0001570521Y0001590970D01*
X0001575020Y0001590970D01*
X0001578020Y0001592470D01*
X0001579520Y0001593969D01*
X0001581019Y0001596969D01*
X0001581019Y0001608967D01*
X0001549523Y0001608967D01*
X0001549523Y0001598469D01*
X0001551023Y0001595469D01*
X0001552523Y0001593969D01*
X0001555523Y0001592470D01*
X0001558522Y0001592470D01*
X0001561522Y0001593969D01*
X0001563022Y0001595469D01*
X0001564521Y0001598469D01*
X0001564521Y0001608967D01*
G04 #@! TO.C,U2*
X0001679271Y0002230433D02*
X0001709271Y0002230433D01*
X0001709271Y0002230433D02*
X0001709271Y0002290433D01*
X0001709271Y0002290433D02*
X0001679271Y0002290433D01*
X0002119271Y0002170433D02*
X0002119271Y0002350433D01*
X0002119271Y0002350433D02*
X0001679271Y0002350433D01*
X0001679271Y0002350433D02*
X0001679271Y0002170433D01*
X0001679271Y0002170433D02*
X0002119271Y0002170433D01*
D43*
G04 #@! TO.C,J1*
X0001633110Y0002787027D02*
X0001633110Y0002586240D01*
X0001633110Y0002586240D02*
X0002048464Y0002586240D01*
X0002048464Y0002586240D02*
X0002048464Y0002785059D01*
G04 #@! TO.C,R1*
X0001890649Y0001943287D02*
X0001937893Y0001943287D01*
X0001937893Y0002012578D02*
X0001890649Y0002012578D01*
G04 #@! TO.C,R3*
X0001690649Y0001945787D02*
X0001737893Y0001945787D01*
X0001737893Y0002015078D02*
X0001690649Y0002015078D01*
G04 #@! TO.C,Q2*
X0001954566Y0001665354D02*
X0001991181Y0001665354D01*
X0002078976Y0001665354D02*
X0002042362Y0001665354D01*
X0002078976Y0001665354D02*
X0002078976Y0001580314D01*
X0001954566Y0001665354D02*
X0001954566Y0001607874D01*
G04 #@! TO.C,Q1*
X0001654566Y0001665354D02*
X0001691181Y0001665354D01*
X0001778976Y0001665354D02*
X0001742362Y0001665354D01*
X0001778976Y0001665354D02*
X0001778976Y0001580314D01*
X0001654566Y0001665354D02*
X0001654566Y0001607874D01*
G04 #@! TO.C,U2*
D42*
X0001676767Y0002416992D02*
X0001676767Y0002385121D01*
X0001674893Y0002381372D01*
X0001673018Y0002379497D01*
X0001669268Y0002377622D01*
X0001661769Y0002377622D01*
X0001658020Y0002379497D01*
X0001656145Y0002381372D01*
X0001654270Y0002385121D01*
X0001654270Y0002416992D01*
X0001637397Y0002413243D02*
X0001635522Y0002415118D01*
X0001631773Y0002416992D01*
X0001622399Y0002416992D01*
X0001618650Y0002415118D01*
X0001616775Y0002413243D01*
X0001614900Y0002409493D01*
X0001614900Y0002405744D01*
X0001616775Y0002400120D01*
X0001639272Y0002377622D01*
X0001614900Y0002377622D01*
G04 #@! TO.C,R1*
X0001920833Y0002027051D02*
X0001933956Y0002045799D01*
X0001943330Y0002027051D02*
X0001943330Y0002066422D01*
X0001928332Y0002066422D01*
X0001924582Y0002064547D01*
X0001922708Y0002062672D01*
X0001920833Y0002058922D01*
X0001920833Y0002053298D01*
X0001922708Y0002049549D01*
X0001924582Y0002047674D01*
X0001928332Y0002045799D01*
X0001943330Y0002045799D01*
X0001883337Y0002027051D02*
X0001905835Y0002027051D01*
X0001894586Y0002027051D02*
X0001894586Y0002066422D01*
X0001898336Y0002060797D01*
X0001902085Y0002057048D01*
X0001905835Y0002055173D01*
G04 #@! TO.C,R3*
X0001720833Y0002029551D02*
X0001733956Y0002048299D01*
X0001743330Y0002029551D02*
X0001743330Y0002068922D01*
X0001728332Y0002068922D01*
X0001724582Y0002067047D01*
X0001722708Y0002065172D01*
X0001720833Y0002061422D01*
X0001720833Y0002055798D01*
X0001722708Y0002052049D01*
X0001724582Y0002050174D01*
X0001728332Y0002048299D01*
X0001743330Y0002048299D01*
X0001707709Y0002068922D02*
X0001683337Y0002068922D01*
X0001696461Y0002053923D01*
X0001690837Y0002053923D01*
X0001687087Y0002052049D01*
X0001685212Y0002050174D01*
X0001683337Y0002046424D01*
X0001683337Y0002037051D01*
X0001685212Y0002033301D01*
X0001687087Y0002031426D01*
X0001690837Y0002029551D01*
X0001702085Y0002029551D01*
X0001705835Y0002031426D01*
X0001707709Y0002033301D01*
G04 #@! TO.C,Q2*
X0002136756Y0001639182D02*
X0002134881Y0001642932D01*
X0002131132Y0001646681D01*
X0002125507Y0001652305D01*
X0002123633Y0001656055D01*
X0002123633Y0001659805D01*
X0002133007Y0001657930D02*
X0002131132Y0001661679D01*
X0002127382Y0001665429D01*
X0002119883Y0001667304D01*
X0002106760Y0001667304D01*
X0002099261Y0001665429D01*
X0002095511Y0001661679D01*
X0002093637Y0001657930D01*
X0002093637Y0001650431D01*
X0002095511Y0001646681D01*
X0002099261Y0001642932D01*
X0002106760Y0001641057D01*
X0002119883Y0001641057D01*
X0002127382Y0001642932D01*
X0002131132Y0001646681D01*
X0002133007Y0001650431D01*
X0002133007Y0001657930D01*
X0002097386Y0001626059D02*
X0002095511Y0001624184D01*
X0002093637Y0001620434D01*
X0002093637Y0001611061D01*
X0002095511Y0001607311D01*
X0002097386Y0001605436D01*
X0002101136Y0001603562D01*
X0002104885Y0001603562D01*
X0002110509Y0001605436D01*
X0002133007Y0001627934D01*
X0002133007Y0001603562D01*
G04 #@! TO.C,Q1*
X0001836756Y0001639182D02*
X0001834881Y0001642932D01*
X0001831132Y0001646681D01*
X0001825508Y0001652305D01*
X0001823633Y0001656055D01*
X0001823633Y0001659805D01*
X0001833007Y0001657930D02*
X0001831132Y0001661679D01*
X0001827382Y0001665429D01*
X0001819883Y0001667304D01*
X0001806760Y0001667304D01*
X0001799261Y0001665429D01*
X0001795511Y0001661679D01*
X0001793637Y0001657930D01*
X0001793637Y0001650431D01*
X0001795511Y0001646681D01*
X0001799261Y0001642932D01*
X0001806760Y0001641057D01*
X0001819883Y0001641057D01*
X0001827382Y0001642932D01*
X0001831132Y0001646681D01*
X0001833007Y0001650431D01*
X0001833007Y0001657930D01*
X0001833007Y0001603562D02*
X0001833007Y0001626059D01*
X0001833007Y0001614810D02*
X0001793637Y0001614810D01*
X0001799261Y0001618560D01*
X0001803010Y0001622309D01*
X0001804885Y0001626059D01*
G04 #@! TD*
G04 next file*
G04 #@! TF.GenerationSoftware,KiCad,Pcbnew,(5.0.2)-1*
G04 #@! TF.CreationDate,2019-07-10T16:32:42+02:00*
G04 #@! TF.ProjectId,joystick tester systest,6a6f7973-7469-4636-9b20-746573746572,rev?*
G04 #@! TF.SameCoordinates,Original*
G04 #@! TF.FileFunction,Legend,Bot*
G04 #@! TF.FilePolarity,Positive*
G04 Gerber Fmt 4.6, Leading zero omitted, Abs format (unit mm)*
G04 Created by KiCad (PCBNEW (5.0.2)-1) date 10-7-2019 16:32:42*
G01G01*
G04 APERTURE LIST*
G04 APERTURE END LIST*
D44*
X0002768874Y0001811571D02*
X0002768874Y0001862752D01*
X0002744502Y0001811571D02*
X0002744502Y0001862752D01*
X0002715255Y0001811571D01*
X0002715255Y0001862752D01*
X0002698195Y0001862752D02*
X0002668949Y0001862752D01*
X0002683572Y0001811571D02*
X0002683572Y0001862752D01*
X0002642140Y0001862752D02*
X0002632391Y0001862752D01*
X0002627516Y0001860314D01*
X0002622642Y0001855440D01*
X0002620205Y0001845691D01*
X0002620205Y0001828631D01*
X0002622642Y0001818882D01*
X0002627516Y0001814008D01*
X0002632391Y0001811571D01*
X0002642140Y0001811571D01*
X0002647014Y0001814008D01*
X0002651888Y0001818882D01*
X0002654325Y0001828631D01*
X0002654325Y0001845691D01*
X0002651888Y0001855440D01*
X0002647014Y0001860314D01*
X0002642140Y0001862752D01*
X0002566586Y0001862752D02*
X0002537340Y0001862752D01*
X0002551963Y0001811571D02*
X0002551963Y0001862752D01*
X0002520280Y0001811571D02*
X0002520280Y0001862752D01*
X0002520280Y0001838380D02*
X0002491033Y0001838380D01*
X0002491033Y0001811571D02*
X0002491033Y0001862752D01*
X0002466661Y0001838380D02*
X0002449601Y0001838380D01*
X0002442290Y0001811571D02*
X0002466661Y0001811571D01*
X0002466661Y0001862752D01*
X0002442290Y0001862752D01*
X0002806650Y0001774169D02*
X0002794464Y0001722988D01*
X0002784715Y0001759546D01*
X0002774967Y0001722988D01*
X0002762781Y0001774169D01*
X0002733534Y0001774169D02*
X0002723786Y0001774169D01*
X0002718911Y0001771732D01*
X0002714037Y0001766857D01*
X0002711600Y0001757109D01*
X0002711600Y0001740048D01*
X0002714037Y0001730299D01*
X0002718911Y0001725425D01*
X0002723786Y0001722988D01*
X0002733534Y0001722988D01*
X0002738409Y0001725425D01*
X0002743283Y0001730299D01*
X0002745720Y0001740048D01*
X0002745720Y0001757109D01*
X0002743283Y0001766857D01*
X0002738409Y0001771732D01*
X0002733534Y0001774169D01*
X0002689665Y0001722988D02*
X0002689665Y0001774169D01*
X0002660418Y0001722988D01*
X0002660418Y0001774169D01*
X0002636047Y0001722988D02*
X0002636047Y0001774169D01*
X0002623861Y0001774169D01*
X0002616549Y0001771732D01*
X0002611675Y0001766857D01*
X0002609237Y0001761983D01*
X0002606800Y0001752234D01*
X0002606800Y0001744923D01*
X0002609237Y0001735174D01*
X0002611675Y0001730299D01*
X0002616549Y0001725425D01*
X0002623861Y0001722988D01*
X0002636047Y0001722988D01*
X0002584865Y0001749797D02*
X0002567805Y0001749797D01*
X0002560493Y0001722988D02*
X0002584865Y0001722988D01*
X0002584865Y0001774169D01*
X0002560493Y0001774169D01*
X0002509312Y0001722988D02*
X0002526373Y0001747360D01*
X0002538559Y0001722988D02*
X0002538559Y0001774169D01*
X0002519061Y0001774169D01*
X0002514187Y0001771732D01*
X0002511750Y0001769295D01*
X0002509312Y0001764420D01*
X0002509312Y0001757109D01*
X0002511750Y0001752234D01*
X0002514187Y0001749797D01*
X0002519061Y0001747360D01*
X0002538559Y0001747360D01*
X0002470317Y0001749797D02*
X0002487378Y0001749797D01*
X0002487378Y0001722988D02*
X0002487378Y0001774169D01*
X0002463006Y0001774169D01*
X0002443508Y0001774169D02*
X0002443508Y0001732737D01*
X0002441071Y0001727862D01*
X0002438634Y0001725425D01*
X0002433759Y0001722988D01*
X0002424011Y0001722988D01*
X0002419136Y0001725425D01*
X0002416699Y0001727862D01*
X0002414262Y0001732737D01*
X0002414262Y0001774169D01*
X0002365518Y0001722988D02*
X0002389890Y0001722988D01*
X0002389890Y0001774169D01*
D45*
X0002308053Y0002186395D02*
X0002329051Y0002178896D01*
X0002308053Y0002171397D01*
X0002329051Y0002142901D02*
X0002329051Y0002160898D01*
X0002329051Y0002151900D02*
X0002297555Y0002151900D01*
X0002302054Y0002154899D01*
X0002305054Y0002157899D01*
X0002306554Y0002160898D01*
X0002326051Y0002129402D02*
X0002327551Y0002127903D01*
X0002329051Y0002129402D01*
X0002327551Y0002130902D01*
X0002326051Y0002129402D01*
X0002329051Y0002129402D01*
X0002329051Y0002097906D02*
X0002329051Y0002115904D01*
X0002329051Y0002106905D02*
X0002297555Y0002106905D01*
X0002302054Y0002109905D01*
X0002305054Y0002112904D01*
X0002306554Y0002115904D01*
X0002305054Y0002034914D02*
X0002303554Y0002037914D01*
X0002303554Y0002043913D01*
X0002305054Y0002046913D01*
X0002308053Y0002049912D01*
X0002311053Y0002051412D01*
X0002317052Y0002051412D01*
X0002320052Y0002049912D01*
X0002323052Y0002046913D01*
X0002324551Y0002043913D01*
X0002324551Y0002037914D01*
X0002323052Y0002034914D01*
X0002293055Y0002040913D02*
X0002294555Y0002048413D01*
X0002299055Y0002055912D01*
X0002306554Y0002060411D01*
X0002314053Y0002061911D01*
X0002321552Y0002060411D01*
X0002329051Y0002055912D01*
X0002333550Y0002048413D01*
X0002335050Y0002040913D01*
X0002333550Y0002033414D01*
X0002329051Y0002025915D01*
X0002321552Y0002021416D01*
X0002314053Y0002019916D01*
X0002306554Y0002021416D01*
X0002299055Y0002025915D01*
X0002294555Y0002033414D01*
X0002293055Y0002040913D01*
X0002300554Y0001983921D02*
X0002299055Y0001982421D01*
X0002297555Y0001979421D01*
X0002297555Y0001971922D01*
X0002299055Y0001968922D01*
X0002300554Y0001967423D01*
X0002303554Y0001965923D01*
X0002306554Y0001965923D01*
X0002311053Y0001967423D01*
X0002329051Y0001985420D01*
X0002329051Y0001965923D01*
X0002297555Y0001946425D02*
X0002297555Y0001943426D01*
X0002299055Y0001940426D01*
X0002300554Y0001938926D01*
X0002303554Y0001937426D01*
X0002309553Y0001935927D01*
X0002317052Y0001935927D01*
X0002323052Y0001937426D01*
X0002326051Y0001938926D01*
X0002327551Y0001940426D01*
X0002329051Y0001943426D01*
X0002329051Y0001946425D01*
X0002327551Y0001949425D01*
X0002326051Y0001950925D01*
X0002323052Y0001952425D01*
X0002317052Y0001953924D01*
X0002309553Y0001953924D01*
X0002303554Y0001952425D01*
X0002300554Y0001950925D01*
X0002299055Y0001949425D01*
X0002297555Y0001946425D01*
X0002329051Y0001905930D02*
X0002329051Y0001923928D01*
X0002329051Y0001914929D02*
X0002297555Y0001914929D01*
X0002302054Y0001917929D01*
X0002305054Y0001920928D01*
X0002306554Y0001923928D01*
X0002311053Y0001887933D02*
X0002309553Y0001890932D01*
X0002308053Y0001892432D01*
X0002305054Y0001893932D01*
X0002303554Y0001893932D01*
X0002300554Y0001892432D01*
X0002299055Y0001890932D01*
X0002297555Y0001887933D01*
X0002297555Y0001881933D01*
X0002299055Y0001878934D01*
X0002300554Y0001877434D01*
X0002303554Y0001875934D01*
X0002305054Y0001875934D01*
X0002308053Y0001877434D01*
X0002309553Y0001878934D01*
X0002311053Y0001881933D01*
X0002311053Y0001887933D01*
X0002312553Y0001890932D01*
X0002314053Y0001892432D01*
X0002317052Y0001893932D01*
X0002323052Y0001893932D01*
X0002326051Y0001892432D01*
X0002327551Y0001890932D01*
X0002329051Y0001887933D01*
X0002329051Y0001881933D01*
X0002327551Y0001878934D01*
X0002326051Y0001877434D01*
X0002323052Y0001875934D01*
X0002317052Y0001875934D01*
X0002314053Y0001877434D01*
X0002312553Y0001878934D01*
X0002311053Y0001881933D01*
X0002317052Y0001862436D02*
X0002317052Y0001838439D01*
X0002329051Y0001806943D02*
X0002329051Y0001824940D01*
X0002329051Y0001815942D02*
X0002297555Y0001815942D01*
X0002302054Y0001818941D01*
X0002305054Y0001821941D01*
X0002306554Y0001824940D01*
X0002329051Y0001791945D02*
X0002329051Y0001785945D01*
X0002327551Y0001782946D01*
X0002326051Y0001781446D01*
X0002321552Y0001778446D01*
X0002315552Y0001776946D01*
X0002303554Y0001776946D01*
X0002300554Y0001778446D01*
X0002299055Y0001779946D01*
X0002297555Y0001782946D01*
X0002297555Y0001788945D01*
X0002299055Y0001791945D01*
X0002300554Y0001793444D01*
X0002303554Y0001794944D01*
X0002311053Y0001794944D01*
X0002314053Y0001793444D01*
X0002315552Y0001791945D01*
X0002317052Y0001788945D01*
X0002317052Y0001782946D01*
X0002315552Y0001779946D01*
X0002314053Y0001778446D01*
X0002311053Y0001776946D01*
X0002329051Y0001739451D02*
X0002297555Y0001739451D01*
X0002309553Y0001739451D02*
X0002308053Y0001736452D01*
X0002308053Y0001730452D01*
X0002309553Y0001727453D01*
X0002311053Y0001725953D01*
X0002314053Y0001724453D01*
X0002323052Y0001724453D01*
X0002326051Y0001725953D01*
X0002327551Y0001727453D01*
X0002329051Y0001730452D01*
X0002329051Y0001736452D01*
X0002327551Y0001739451D01*
X0002308053Y0001713954D02*
X0002329051Y0001706455D01*
X0002308053Y0001698956D02*
X0002329051Y0001706455D01*
X0002336550Y0001709455D01*
X0002338050Y0001710955D01*
X0002339550Y0001713954D01*
X0002297555Y0001667460D02*
X0002297555Y0001649462D01*
X0002329051Y0001658461D02*
X0002297555Y0001658461D01*
X0002327551Y0001640464D02*
X0002329051Y0001635964D01*
X0002329051Y0001628465D01*
X0002327551Y0001625465D01*
X0002326051Y0001623966D01*
X0002323052Y0001622466D01*
X0002320052Y0001622466D01*
X0002317052Y0001623966D01*
X0002315552Y0001625465D01*
X0002314053Y0001628465D01*
X0002312553Y0001634464D01*
X0002311053Y0001637464D01*
X0002309553Y0001638964D01*
X0002306554Y0001640464D01*
X0002303554Y0001640464D01*
X0002300554Y0001638964D01*
X0002299055Y0001637464D01*
X0002297555Y0001634464D01*
X0002297555Y0001626965D01*
X0002299055Y0001622466D01*
X0002312553Y0001598469D02*
X0002314053Y0001593969D01*
X0002315552Y0001592470D01*
X0002318552Y0001590970D01*
X0002323052Y0001590970D01*
X0002326051Y0001592470D01*
X0002327551Y0001593969D01*
X0002329051Y0001596969D01*
X0002329051Y0001608967D01*
X0002297555Y0001608967D01*
X0002297555Y0001598469D01*
X0002299055Y0001595469D01*
X0002300554Y0001593969D01*
X0002303554Y0001592470D01*
X0002306554Y0001592470D01*
X0002309553Y0001593969D01*
X0002311053Y0001595469D01*
X0002312553Y0001598469D01*
X0002312553Y0001608967D01*
G04 #@! TO.C,U2*
X0002427303Y0002230433D02*
X0002457303Y0002230433D01*
X0002457303Y0002230433D02*
X0002457303Y0002290433D01*
X0002457303Y0002290433D02*
X0002427303Y0002290433D01*
X0002867303Y0002170433D02*
X0002867303Y0002350433D01*
X0002867303Y0002350433D02*
X0002427303Y0002350433D01*
X0002427303Y0002350433D02*
X0002427303Y0002170433D01*
X0002427303Y0002170433D02*
X0002867303Y0002170433D01*
D46*
G04 #@! TO.C,J1*
X0002381141Y0002787027D02*
X0002381141Y0002586240D01*
X0002381141Y0002586240D02*
X0002796496Y0002586240D01*
X0002796496Y0002586240D02*
X0002796496Y0002785059D01*
G04 #@! TO.C,R1*
X0002638681Y0001943287D02*
X0002685925Y0001943287D01*
X0002685925Y0002012578D02*
X0002638681Y0002012578D01*
G04 #@! TO.C,R3*
X0002438681Y0001945787D02*
X0002485925Y0001945787D01*
X0002485925Y0002015078D02*
X0002438681Y0002015078D01*
G04 #@! TO.C,Q2*
X0002702598Y0001665354D02*
X0002739212Y0001665354D01*
X0002827007Y0001665354D02*
X0002790393Y0001665354D01*
X0002827007Y0001665354D02*
X0002827007Y0001580314D01*
X0002702598Y0001665354D02*
X0002702598Y0001607874D01*
G04 #@! TO.C,Q1*
X0002402598Y0001665354D02*
X0002439212Y0001665354D01*
X0002527007Y0001665354D02*
X0002490393Y0001665354D01*
X0002527007Y0001665354D02*
X0002527007Y0001580314D01*
X0002402598Y0001665354D02*
X0002402598Y0001607874D01*
G04 #@! TO.C,U2*
D45*
X0002424799Y0002416992D02*
X0002424799Y0002385121D01*
X0002422924Y0002381372D01*
X0002421049Y0002379497D01*
X0002417300Y0002377622D01*
X0002409801Y0002377622D01*
X0002406051Y0002379497D01*
X0002404176Y0002381372D01*
X0002402302Y0002385121D01*
X0002402302Y0002416992D01*
X0002385429Y0002413243D02*
X0002383554Y0002415118D01*
X0002379805Y0002416992D01*
X0002370431Y0002416992D01*
X0002366681Y0002415118D01*
X0002364806Y0002413243D01*
X0002362932Y0002409493D01*
X0002362932Y0002405744D01*
X0002364806Y0002400120D01*
X0002387304Y0002377622D01*
X0002362932Y0002377622D01*
G04 #@! TO.C,R1*
X0002668864Y0002027051D02*
X0002681988Y0002045799D01*
X0002691361Y0002027051D02*
X0002691361Y0002066422D01*
X0002676363Y0002066422D01*
X0002672614Y0002064547D01*
X0002670739Y0002062672D01*
X0002668864Y0002058922D01*
X0002668864Y0002053298D01*
X0002670739Y0002049549D01*
X0002672614Y0002047674D01*
X0002676363Y0002045799D01*
X0002691361Y0002045799D01*
X0002631369Y0002027051D02*
X0002653866Y0002027051D01*
X0002642618Y0002027051D02*
X0002642618Y0002066422D01*
X0002646367Y0002060797D01*
X0002650117Y0002057048D01*
X0002653866Y0002055173D01*
G04 #@! TO.C,R3*
X0002468864Y0002029551D02*
X0002481988Y0002048299D01*
X0002491362Y0002029551D02*
X0002491362Y0002068922D01*
X0002476363Y0002068922D01*
X0002472614Y0002067047D01*
X0002470739Y0002065172D01*
X0002468864Y0002061422D01*
X0002468864Y0002055798D01*
X0002470739Y0002052049D01*
X0002472614Y0002050174D01*
X0002476363Y0002048299D01*
X0002491362Y0002048299D01*
X0002455741Y0002068922D02*
X0002431369Y0002068922D01*
X0002444492Y0002053923D01*
X0002438868Y0002053923D01*
X0002435119Y0002052049D01*
X0002433244Y0002050174D01*
X0002431369Y0002046424D01*
X0002431369Y0002037051D01*
X0002433244Y0002033301D01*
X0002435119Y0002031426D01*
X0002438868Y0002029551D01*
X0002450117Y0002029551D01*
X0002453866Y0002031426D01*
X0002455741Y0002033301D01*
G04 #@! TO.C,Q2*
X0002884788Y0001639182D02*
X0002882913Y0001642932D01*
X0002879163Y0001646681D01*
X0002873539Y0001652305D01*
X0002871664Y0001656055D01*
X0002871664Y0001659805D01*
X0002881038Y0001657930D02*
X0002879163Y0001661679D01*
X0002875414Y0001665429D01*
X0002867915Y0001667304D01*
X0002854791Y0001667304D01*
X0002847292Y0001665429D01*
X0002843543Y0001661679D01*
X0002841668Y0001657930D01*
X0002841668Y0001650431D01*
X0002843543Y0001646681D01*
X0002847292Y0001642932D01*
X0002854791Y0001641057D01*
X0002867915Y0001641057D01*
X0002875414Y0001642932D01*
X0002879163Y0001646681D01*
X0002881038Y0001650431D01*
X0002881038Y0001657930D01*
X0002845418Y0001626059D02*
X0002843543Y0001624184D01*
X0002841668Y0001620434D01*
X0002841668Y0001611061D01*
X0002843543Y0001607311D01*
X0002845418Y0001605436D01*
X0002849167Y0001603562D01*
X0002852917Y0001603562D01*
X0002858541Y0001605436D01*
X0002881038Y0001627934D01*
X0002881038Y0001603562D01*
G04 #@! TO.C,Q1*
X0002584788Y0001639182D02*
X0002582913Y0001642932D01*
X0002579163Y0001646681D01*
X0002573539Y0001652305D01*
X0002571664Y0001656055D01*
X0002571664Y0001659805D01*
X0002581038Y0001657930D02*
X0002579163Y0001661679D01*
X0002575414Y0001665429D01*
X0002567915Y0001667304D01*
X0002554791Y0001667304D01*
X0002547292Y0001665429D01*
X0002543543Y0001661679D01*
X0002541668Y0001657930D01*
X0002541668Y0001650431D01*
X0002543543Y0001646681D01*
X0002547292Y0001642932D01*
X0002554791Y0001641057D01*
X0002567915Y0001641057D01*
X0002575414Y0001642932D01*
X0002579163Y0001646681D01*
X0002581038Y0001650431D01*
X0002581038Y0001657930D01*
X0002581038Y0001603562D02*
X0002581038Y0001626059D01*
X0002581038Y0001614810D02*
X0002541668Y0001614810D01*
X0002547292Y0001618560D01*
X0002551042Y0001622309D01*
X0002552917Y0001626059D01*
G04 #@! TD*
G04 next file*
G04 #@! TF.GenerationSoftware,KiCad,Pcbnew,(5.0.2)-1*
G04 #@! TF.CreationDate,2019-07-10T16:32:42+02:00*
G04 #@! TF.ProjectId,joystick tester systest,6a6f7973-7469-4636-9b20-746573746572,rev?*
G04 #@! TF.SameCoordinates,Original*
G04 #@! TF.FileFunction,Legend,Bot*
G04 #@! TF.FilePolarity,Positive*
G04 Gerber Fmt 4.6, Leading zero omitted, Abs format (unit mm)*
G04 Created by KiCad (PCBNEW (5.0.2)-1) date 10-7-2019 16:32:42*
G01G01*
G04 APERTURE LIST*
G04 APERTURE END LIST*
D47*
X0003516905Y0001811571D02*
X0003516905Y0001862752D01*
X0003492533Y0001811571D02*
X0003492533Y0001862752D01*
X0003463287Y0001811571D01*
X0003463287Y0001862752D01*
X0003446227Y0001862752D02*
X0003416980Y0001862752D01*
X0003431603Y0001811571D02*
X0003431603Y0001862752D01*
X0003390171Y0001862752D02*
X0003380422Y0001862752D01*
X0003375548Y0001860314D01*
X0003370673Y0001855440D01*
X0003368236Y0001845691D01*
X0003368236Y0001828631D01*
X0003370673Y0001818882D01*
X0003375548Y0001814008D01*
X0003380422Y0001811571D01*
X0003390171Y0001811571D01*
X0003395045Y0001814008D01*
X0003399920Y0001818882D01*
X0003402357Y0001828631D01*
X0003402357Y0001845691D01*
X0003399920Y0001855440D01*
X0003395045Y0001860314D01*
X0003390171Y0001862752D01*
X0003314618Y0001862752D02*
X0003285372Y0001862752D01*
X0003299995Y0001811571D02*
X0003299995Y0001862752D01*
X0003268311Y0001811571D02*
X0003268311Y0001862752D01*
X0003268311Y0001838380D02*
X0003239065Y0001838380D01*
X0003239065Y0001811571D02*
X0003239065Y0001862752D01*
X0003214693Y0001838380D02*
X0003197633Y0001838380D01*
X0003190321Y0001811571D02*
X0003214693Y0001811571D01*
X0003214693Y0001862752D01*
X0003190321Y0001862752D01*
X0003554682Y0001774169D02*
X0003542496Y0001722988D01*
X0003532747Y0001759546D01*
X0003522998Y0001722988D01*
X0003510812Y0001774169D01*
X0003481566Y0001774169D02*
X0003471817Y0001774169D01*
X0003466943Y0001771732D01*
X0003462068Y0001766857D01*
X0003459631Y0001757109D01*
X0003459631Y0001740048D01*
X0003462068Y0001730299D01*
X0003466943Y0001725425D01*
X0003471817Y0001722988D01*
X0003481566Y0001722988D01*
X0003486440Y0001725425D01*
X0003491315Y0001730299D01*
X0003493752Y0001740048D01*
X0003493752Y0001757109D01*
X0003491315Y0001766857D01*
X0003486440Y0001771732D01*
X0003481566Y0001774169D01*
X0003437696Y0001722988D02*
X0003437696Y0001774169D01*
X0003408450Y0001722988D01*
X0003408450Y0001774169D01*
X0003384078Y0001722988D02*
X0003384078Y0001774169D01*
X0003371892Y0001774169D01*
X0003364580Y0001771732D01*
X0003359706Y0001766857D01*
X0003357269Y0001761983D01*
X0003354832Y0001752234D01*
X0003354832Y0001744923D01*
X0003357269Y0001735174D01*
X0003359706Y0001730299D01*
X0003364580Y0001725425D01*
X0003371892Y0001722988D01*
X0003384078Y0001722988D01*
X0003332897Y0001749797D02*
X0003315837Y0001749797D01*
X0003308525Y0001722988D02*
X0003332897Y0001722988D01*
X0003332897Y0001774169D01*
X0003308525Y0001774169D01*
X0003257344Y0001722988D02*
X0003274404Y0001747360D01*
X0003286590Y0001722988D02*
X0003286590Y0001774169D01*
X0003267093Y0001774169D01*
X0003262218Y0001771732D01*
X0003259781Y0001769295D01*
X0003257344Y0001764420D01*
X0003257344Y0001757109D01*
X0003259781Y0001752234D01*
X0003262218Y0001749797D01*
X0003267093Y0001747360D01*
X0003286590Y0001747360D01*
X0003218349Y0001749797D02*
X0003235409Y0001749797D01*
X0003235409Y0001722988D02*
X0003235409Y0001774169D01*
X0003211037Y0001774169D01*
X0003191540Y0001774169D02*
X0003191540Y0001732737D01*
X0003189102Y0001727862D01*
X0003186665Y0001725425D01*
X0003181791Y0001722988D01*
X0003172042Y0001722988D01*
X0003167168Y0001725425D01*
X0003164730Y0001727862D01*
X0003162293Y0001732737D01*
X0003162293Y0001774169D01*
X0003113549Y0001722988D02*
X0003137921Y0001722988D01*
X0003137921Y0001774169D01*
D48*
X0003056085Y0002186395D02*
X0003077082Y0002178896D01*
X0003056085Y0002171397D01*
X0003077082Y0002142901D02*
X0003077082Y0002160898D01*
X0003077082Y0002151900D02*
X0003045586Y0002151900D01*
X0003050086Y0002154899D01*
X0003053085Y0002157899D01*
X0003054585Y0002160898D01*
X0003074083Y0002129402D02*
X0003075583Y0002127903D01*
X0003077082Y0002129402D01*
X0003075583Y0002130902D01*
X0003074083Y0002129402D01*
X0003077082Y0002129402D01*
X0003077082Y0002097906D02*
X0003077082Y0002115904D01*
X0003077082Y0002106905D02*
X0003045586Y0002106905D01*
X0003050086Y0002109905D01*
X0003053085Y0002112904D01*
X0003054585Y0002115904D01*
X0003053085Y0002034914D02*
X0003051586Y0002037914D01*
X0003051586Y0002043913D01*
X0003053085Y0002046913D01*
X0003056085Y0002049912D01*
X0003059085Y0002051412D01*
X0003065084Y0002051412D01*
X0003068083Y0002049912D01*
X0003071083Y0002046913D01*
X0003072583Y0002043913D01*
X0003072583Y0002037914D01*
X0003071083Y0002034914D01*
X0003041087Y0002040913D02*
X0003042587Y0002048413D01*
X0003047086Y0002055912D01*
X0003054585Y0002060411D01*
X0003062084Y0002061911D01*
X0003069583Y0002060411D01*
X0003077082Y0002055912D01*
X0003081582Y0002048413D01*
X0003083082Y0002040913D01*
X0003081582Y0002033414D01*
X0003077082Y0002025915D01*
X0003069583Y0002021416D01*
X0003062084Y0002019916D01*
X0003054585Y0002021416D01*
X0003047086Y0002025915D01*
X0003042587Y0002033414D01*
X0003041087Y0002040913D01*
X0003048586Y0001983921D02*
X0003047086Y0001982421D01*
X0003045586Y0001979421D01*
X0003045586Y0001971922D01*
X0003047086Y0001968922D01*
X0003048586Y0001967423D01*
X0003051586Y0001965923D01*
X0003054585Y0001965923D01*
X0003059085Y0001967423D01*
X0003077082Y0001985420D01*
X0003077082Y0001965923D01*
X0003045586Y0001946425D02*
X0003045586Y0001943426D01*
X0003047086Y0001940426D01*
X0003048586Y0001938926D01*
X0003051586Y0001937426D01*
X0003057585Y0001935927D01*
X0003065084Y0001935927D01*
X0003071083Y0001937426D01*
X0003074083Y0001938926D01*
X0003075583Y0001940426D01*
X0003077082Y0001943426D01*
X0003077082Y0001946425D01*
X0003075583Y0001949425D01*
X0003074083Y0001950925D01*
X0003071083Y0001952425D01*
X0003065084Y0001953924D01*
X0003057585Y0001953924D01*
X0003051586Y0001952425D01*
X0003048586Y0001950925D01*
X0003047086Y0001949425D01*
X0003045586Y0001946425D01*
X0003077082Y0001905930D02*
X0003077082Y0001923928D01*
X0003077082Y0001914929D02*
X0003045586Y0001914929D01*
X0003050086Y0001917929D01*
X0003053085Y0001920928D01*
X0003054585Y0001923928D01*
X0003059085Y0001887933D02*
X0003057585Y0001890932D01*
X0003056085Y0001892432D01*
X0003053085Y0001893932D01*
X0003051586Y0001893932D01*
X0003048586Y0001892432D01*
X0003047086Y0001890932D01*
X0003045586Y0001887933D01*
X0003045586Y0001881933D01*
X0003047086Y0001878934D01*
X0003048586Y0001877434D01*
X0003051586Y0001875934D01*
X0003053085Y0001875934D01*
X0003056085Y0001877434D01*
X0003057585Y0001878934D01*
X0003059085Y0001881933D01*
X0003059085Y0001887933D01*
X0003060584Y0001890932D01*
X0003062084Y0001892432D01*
X0003065084Y0001893932D01*
X0003071083Y0001893932D01*
X0003074083Y0001892432D01*
X0003075583Y0001890932D01*
X0003077082Y0001887933D01*
X0003077082Y0001881933D01*
X0003075583Y0001878934D01*
X0003074083Y0001877434D01*
X0003071083Y0001875934D01*
X0003065084Y0001875934D01*
X0003062084Y0001877434D01*
X0003060584Y0001878934D01*
X0003059085Y0001881933D01*
X0003065084Y0001862436D02*
X0003065084Y0001838439D01*
X0003077082Y0001806943D02*
X0003077082Y0001824940D01*
X0003077082Y0001815942D02*
X0003045586Y0001815942D01*
X0003050086Y0001818941D01*
X0003053085Y0001821941D01*
X0003054585Y0001824940D01*
X0003077082Y0001791945D02*
X0003077082Y0001785945D01*
X0003075583Y0001782946D01*
X0003074083Y0001781446D01*
X0003069583Y0001778446D01*
X0003063584Y0001776946D01*
X0003051586Y0001776946D01*
X0003048586Y0001778446D01*
X0003047086Y0001779946D01*
X0003045586Y0001782946D01*
X0003045586Y0001788945D01*
X0003047086Y0001791945D01*
X0003048586Y0001793444D01*
X0003051586Y0001794944D01*
X0003059085Y0001794944D01*
X0003062084Y0001793444D01*
X0003063584Y0001791945D01*
X0003065084Y0001788945D01*
X0003065084Y0001782946D01*
X0003063584Y0001779946D01*
X0003062084Y0001778446D01*
X0003059085Y0001776946D01*
X0003077082Y0001739451D02*
X0003045586Y0001739451D01*
X0003057585Y0001739451D02*
X0003056085Y0001736452D01*
X0003056085Y0001730452D01*
X0003057585Y0001727453D01*
X0003059085Y0001725953D01*
X0003062084Y0001724453D01*
X0003071083Y0001724453D01*
X0003074083Y0001725953D01*
X0003075583Y0001727453D01*
X0003077082Y0001730452D01*
X0003077082Y0001736452D01*
X0003075583Y0001739451D01*
X0003056085Y0001713954D02*
X0003077082Y0001706455D01*
X0003056085Y0001698956D02*
X0003077082Y0001706455D01*
X0003084581Y0001709455D01*
X0003086081Y0001710955D01*
X0003087581Y0001713954D01*
X0003045586Y0001667460D02*
X0003045586Y0001649462D01*
X0003077082Y0001658461D02*
X0003045586Y0001658461D01*
X0003075583Y0001640464D02*
X0003077082Y0001635964D01*
X0003077082Y0001628465D01*
X0003075583Y0001625465D01*
X0003074083Y0001623966D01*
X0003071083Y0001622466D01*
X0003068083Y0001622466D01*
X0003065084Y0001623966D01*
X0003063584Y0001625465D01*
X0003062084Y0001628465D01*
X0003060584Y0001634464D01*
X0003059085Y0001637464D01*
X0003057585Y0001638964D01*
X0003054585Y0001640464D01*
X0003051586Y0001640464D01*
X0003048586Y0001638964D01*
X0003047086Y0001637464D01*
X0003045586Y0001634464D01*
X0003045586Y0001626965D01*
X0003047086Y0001622466D01*
X0003060584Y0001598469D02*
X0003062084Y0001593969D01*
X0003063584Y0001592470D01*
X0003066584Y0001590970D01*
X0003071083Y0001590970D01*
X0003074083Y0001592470D01*
X0003075583Y0001593969D01*
X0003077082Y0001596969D01*
X0003077082Y0001608967D01*
X0003045586Y0001608967D01*
X0003045586Y0001598469D01*
X0003047086Y0001595469D01*
X0003048586Y0001593969D01*
X0003051586Y0001592470D01*
X0003054585Y0001592470D01*
X0003057585Y0001593969D01*
X0003059085Y0001595469D01*
X0003060584Y0001598469D01*
X0003060584Y0001608967D01*
G04 #@! TO.C,U2*
X0003175334Y0002230433D02*
X0003205334Y0002230433D01*
X0003205334Y0002230433D02*
X0003205334Y0002290433D01*
X0003205334Y0002290433D02*
X0003175334Y0002290433D01*
X0003615334Y0002170433D02*
X0003615334Y0002350433D01*
X0003615334Y0002350433D02*
X0003175334Y0002350433D01*
X0003175334Y0002350433D02*
X0003175334Y0002170433D01*
X0003175334Y0002170433D02*
X0003615334Y0002170433D01*
D49*
G04 #@! TO.C,J1*
X0003129173Y0002787027D02*
X0003129173Y0002586240D01*
X0003129173Y0002586240D02*
X0003544527Y0002586240D01*
X0003544527Y0002586240D02*
X0003544527Y0002785059D01*
G04 #@! TO.C,R1*
X0003386712Y0001943287D02*
X0003433956Y0001943287D01*
X0003433956Y0002012578D02*
X0003386712Y0002012578D01*
G04 #@! TO.C,R3*
X0003186712Y0001945787D02*
X0003233956Y0001945787D01*
X0003233956Y0002015078D02*
X0003186712Y0002015078D01*
G04 #@! TO.C,Q2*
X0003450629Y0001665354D02*
X0003487244Y0001665354D01*
X0003575039Y0001665354D02*
X0003538425Y0001665354D01*
X0003575039Y0001665354D02*
X0003575039Y0001580314D01*
X0003450629Y0001665354D02*
X0003450629Y0001607874D01*
G04 #@! TO.C,Q1*
X0003150629Y0001665354D02*
X0003187244Y0001665354D01*
X0003275039Y0001665354D02*
X0003238425Y0001665354D01*
X0003275039Y0001665354D02*
X0003275039Y0001580314D01*
X0003150629Y0001665354D02*
X0003150629Y0001607874D01*
G04 #@! TO.C,U2*
D48*
X0003172830Y0002416992D02*
X0003172830Y0002385121D01*
X0003170956Y0002381372D01*
X0003169081Y0002379497D01*
X0003165331Y0002377622D01*
X0003157832Y0002377622D01*
X0003154083Y0002379497D01*
X0003152208Y0002381372D01*
X0003150333Y0002385121D01*
X0003150333Y0002416992D01*
X0003133460Y0002413243D02*
X0003131586Y0002415118D01*
X0003127836Y0002416992D01*
X0003118462Y0002416992D01*
X0003114713Y0002415118D01*
X0003112838Y0002413243D01*
X0003110963Y0002409493D01*
X0003110963Y0002405744D01*
X0003112838Y0002400120D01*
X0003135335Y0002377622D01*
X0003110963Y0002377622D01*
G04 #@! TO.C,R1*
X0003416896Y0002027051D02*
X0003430019Y0002045799D01*
X0003439393Y0002027051D02*
X0003439393Y0002066422D01*
X0003424395Y0002066422D01*
X0003420645Y0002064547D01*
X0003418771Y0002062672D01*
X0003416896Y0002058922D01*
X0003416896Y0002053298D01*
X0003418771Y0002049549D01*
X0003420645Y0002047674D01*
X0003424395Y0002045799D01*
X0003439393Y0002045799D01*
X0003379400Y0002027051D02*
X0003401898Y0002027051D01*
X0003390649Y0002027051D02*
X0003390649Y0002066422D01*
X0003394399Y0002060797D01*
X0003398148Y0002057048D01*
X0003401898Y0002055173D01*
G04 #@! TO.C,R3*
X0003216896Y0002029551D02*
X0003230019Y0002048299D01*
X0003239393Y0002029551D02*
X0003239393Y0002068922D01*
X0003224395Y0002068922D01*
X0003220645Y0002067047D01*
X0003218771Y0002065172D01*
X0003216896Y0002061422D01*
X0003216896Y0002055798D01*
X0003218771Y0002052049D01*
X0003220645Y0002050174D01*
X0003224395Y0002048299D01*
X0003239393Y0002048299D01*
X0003203772Y0002068922D02*
X0003179400Y0002068922D01*
X0003192524Y0002053923D01*
X0003186900Y0002053923D01*
X0003183150Y0002052049D01*
X0003181275Y0002050174D01*
X0003179400Y0002046424D01*
X0003179400Y0002037051D01*
X0003181275Y0002033301D01*
X0003183150Y0002031426D01*
X0003186900Y0002029551D01*
X0003198148Y0002029551D01*
X0003201898Y0002031426D01*
X0003203772Y0002033301D01*
G04 #@! TO.C,Q2*
X0003632819Y0001639182D02*
X0003630944Y0001642932D01*
X0003627195Y0001646681D01*
X0003621570Y0001652305D01*
X0003619696Y0001656055D01*
X0003619696Y0001659805D01*
X0003629070Y0001657930D02*
X0003627195Y0001661679D01*
X0003623445Y0001665429D01*
X0003615946Y0001667304D01*
X0003602823Y0001667304D01*
X0003595324Y0001665429D01*
X0003591574Y0001661679D01*
X0003589700Y0001657930D01*
X0003589700Y0001650431D01*
X0003591574Y0001646681D01*
X0003595324Y0001642932D01*
X0003602823Y0001641057D01*
X0003615946Y0001641057D01*
X0003623445Y0001642932D01*
X0003627195Y0001646681D01*
X0003629070Y0001650431D01*
X0003629070Y0001657930D01*
X0003593449Y0001626059D02*
X0003591574Y0001624184D01*
X0003589700Y0001620434D01*
X0003589700Y0001611061D01*
X0003591574Y0001607311D01*
X0003593449Y0001605436D01*
X0003597199Y0001603562D01*
X0003600948Y0001603562D01*
X0003606572Y0001605436D01*
X0003629070Y0001627934D01*
X0003629070Y0001603562D01*
G04 #@! TO.C,Q1*
X0003332819Y0001639182D02*
X0003330944Y0001642932D01*
X0003327195Y0001646681D01*
X0003321571Y0001652305D01*
X0003319696Y0001656055D01*
X0003319696Y0001659805D01*
X0003329070Y0001657930D02*
X0003327195Y0001661679D01*
X0003323445Y0001665429D01*
X0003315946Y0001667304D01*
X0003302823Y0001667304D01*
X0003295324Y0001665429D01*
X0003291574Y0001661679D01*
X0003289700Y0001657930D01*
X0003289700Y0001650431D01*
X0003291574Y0001646681D01*
X0003295324Y0001642932D01*
X0003302823Y0001641057D01*
X0003315946Y0001641057D01*
X0003323445Y0001642932D01*
X0003327195Y0001646681D01*
X0003329070Y0001650431D01*
X0003329070Y0001657930D01*
X0003329070Y0001603562D02*
X0003329070Y0001626059D01*
X0003329070Y0001614810D02*
X0003289700Y0001614810D01*
X0003295324Y0001618560D01*
X0003299073Y0001622309D01*
X0003300948Y0001626059D01*
G04 #@! TD*
M02*