%MOIN*%
%OFA0B0*%
%FSLAX46Y46*%
%IPPOS*%
%LPD*%
%ADD10R,0.02X0.045000000000000005*%
%ADD11R,0.0610236220472441X0.023622047244094488*%
%ADD12R,0.059055118110236227X0.051181102362204731*%
%ADD13R,0.059055118110236227X0.049212598425196853*%
%ADD14R,0.070078740157480321X0.2*%
%ADD15R,0.03937007874015748X0.03937007874015748*%
%ADD16O,0.03937007874015748X0.03937007874015748*%
%ADD17R,0.035433070866141732X0.047244094488188976*%
%ADD18C,0.023622047244094488*%
%ADD19C,0.00984251968503937*%
%ADD30R,0.02X0.045000000000000005*%
%ADD31R,0.0610236220472441X0.023622047244094488*%
%ADD32R,0.059055118110236227X0.051181102362204731*%
%ADD33R,0.059055118110236227X0.049212598425196853*%
%ADD34R,0.070078740157480321X0.2*%
%ADD35R,0.03937007874015748X0.03937007874015748*%
%ADD36O,0.03937007874015748X0.03937007874015748*%
%ADD37R,0.035433070866141732X0.047244094488188976*%
%ADD38C,0.023622047244094488*%
%ADD39C,0.00984251968503937*%
%ADD40R,0.02X0.045000000000000005*%
%ADD41R,0.0610236220472441X0.023622047244094488*%
%ADD42R,0.059055118110236227X0.051181102362204731*%
%ADD43R,0.059055118110236227X0.049212598425196853*%
%ADD44R,0.070078740157480321X0.2*%
%ADD45R,0.03937007874015748X0.03937007874015748*%
%ADD46O,0.03937007874015748X0.03937007874015748*%
%ADD47R,0.035433070866141732X0.047244094488188976*%
%ADD48C,0.023622047244094488*%
%ADD49C,0.00984251968503937*%
%ADD50R,0.02X0.045000000000000005*%
%ADD51R,0.0610236220472441X0.023622047244094488*%
%ADD52R,0.059055118110236227X0.051181102362204731*%
%ADD53R,0.059055118110236227X0.049212598425196853*%
%ADD54R,0.070078740157480321X0.2*%
%ADD55R,0.03937007874015748X0.03937007874015748*%
%ADD56O,0.03937007874015748X0.03937007874015748*%
%ADD57R,0.035433070866141732X0.047244094488188976*%
%ADD58C,0.023622047244094488*%
%ADD59C,0.00984251968503937*%
%ADD60R,0.02X0.045000000000000005*%
%ADD61R,0.0610236220472441X0.023622047244094488*%
%ADD62R,0.059055118110236227X0.051181102362204731*%
%ADD63R,0.059055118110236227X0.049212598425196853*%
%ADD64R,0.070078740157480321X0.2*%
%ADD65R,0.03937007874015748X0.03937007874015748*%
%ADD66O,0.03937007874015748X0.03937007874015748*%
%ADD67R,0.035433070866141732X0.047244094488188976*%
%ADD68C,0.023622047244094488*%
%ADD69C,0.00984251968503937*%
%ADD70R,0.02X0.045000000000000005*%
%ADD71R,0.0610236220472441X0.023622047244094488*%
%ADD72R,0.059055118110236227X0.051181102362204731*%
%ADD73R,0.059055118110236227X0.049212598425196853*%
%ADD74R,0.070078740157480321X0.2*%
%ADD75R,0.03937007874015748X0.03937007874015748*%
%ADD76O,0.03937007874015748X0.03937007874015748*%
%ADD77R,0.035433070866141732X0.047244094488188976*%
%ADD78C,0.023622047244094488*%
%ADD79C,0.00984251968503937*%
%ADD80R,0.02X0.045000000000000005*%
%ADD81R,0.0610236220472441X0.023622047244094488*%
%ADD82R,0.059055118110236227X0.051181102362204731*%
%ADD83R,0.059055118110236227X0.049212598425196853*%
%ADD84R,0.070078740157480321X0.2*%
%ADD85R,0.03937007874015748X0.03937007874015748*%
%ADD86O,0.03937007874015748X0.03937007874015748*%
%ADD87R,0.035433070866141732X0.047244094488188976*%
%ADD88C,0.023622047244094488*%
%ADD89C,0.00984251968503937*%
%ADD90R,0.02X0.045000000000000005*%
%ADD91R,0.0610236220472441X0.023622047244094488*%
%ADD92R,0.059055118110236227X0.051181102362204731*%
%ADD93R,0.059055118110236227X0.049212598425196853*%
%ADD94R,0.070078740157480321X0.2*%
%ADD95R,0.03937007874015748X0.03937007874015748*%
%ADD96O,0.03937007874015748X0.03937007874015748*%
%ADD97R,0.035433070866141732X0.047244094488188976*%
%ADD98C,0.023622047244094488*%
%ADD99C,0.00984251968503937*%
%ADD100R,0.02X0.045000000000000005*%
%ADD101R,0.0610236220472441X0.023622047244094488*%
%ADD102R,0.059055118110236227X0.051181102362204731*%
%ADD103R,0.059055118110236227X0.049212598425196853*%
%ADD104R,0.070078740157480321X0.2*%
%ADD105R,0.03937007874015748X0.03937007874015748*%
%ADD106O,0.03937007874015748X0.03937007874015748*%
%ADD107R,0.035433070866141732X0.047244094488188976*%
%ADD108C,0.023622047244094488*%
%ADD109C,0.00984251968503937*%
%ADD110R,0.02X0.045000000000000005*%
%ADD111R,0.0610236220472441X0.023622047244094488*%
%ADD112R,0.059055118110236227X0.051181102362204731*%
%ADD113R,0.059055118110236227X0.049212598425196853*%
%ADD114R,0.070078740157480321X0.2*%
%ADD115R,0.03937007874015748X0.03937007874015748*%
%ADD116O,0.03937007874015748X0.03937007874015748*%
%ADD117R,0.035433070866141732X0.047244094488188976*%
%ADD118C,0.023622047244094488*%
%ADD119C,0.00984251968503937*%
G01G01*
D10*
X-0005677499Y0005077500D02*
X0000220000Y0000927500D03*
X0000320000Y0000927500D03*
X0000370000Y0000927500D03*
X0000420000Y0000927500D03*
X0000470000Y0000927500D03*
X0000520000Y0000927500D03*
X0000570000Y0000927500D03*
X0000570000Y0000677500D03*
X0000520000Y0000677500D03*
X0000470000Y0000677500D03*
X0000420000Y0000677500D03*
X0000370000Y0000677500D03*
X0000320000Y0000677500D03*
X0000270000Y0000677500D03*
X0000220000Y0000677500D03*
X0000270000Y0000927500D03*
D11*
X0000126200Y0000398500D03*
X0000126200Y0000348500D03*
X0000126200Y0000298500D03*
X0000126200Y0000248500D03*
X0000338799Y0000248500D03*
X0000338799Y0000298500D03*
X0000338799Y0000348500D03*
X0000338799Y0000398500D03*
D12*
X0000564649Y0000246500D03*
X0000458350Y0000246500D03*
X0000456350Y0000412500D03*
X0000562649Y0000412500D03*
D13*
X0000451712Y0000518500D03*
X0000353287Y0000518500D03*
X0000153287Y0000518500D03*
X0000251712Y0000518500D03*
D14*
X0000447342Y0001235000D03*
X0000337500Y0001235000D03*
X0000227263Y0001235000D03*
X0000117421Y0001235000D03*
X0000557578Y0001235000D03*
D15*
X0000102500Y0000755000D03*
D16*
X0000102500Y0000805000D03*
X0000102500Y0000855000D03*
D17*
X0000167539Y0001047500D03*
X0000297460Y0001047500D03*
D18*
X0000102500Y0000652500D03*
X0000067500Y0001065000D03*
X0000457500Y0000455000D03*
X0000207500Y0000862500D03*
X0000432500Y0000312500D03*
X0000307500Y0000187500D03*
X0000072500Y0000357500D03*
X0000537500Y0000977500D03*
X0000487500Y0001097500D03*
X0000370000Y0000630000D03*
X0000577500Y0000862500D03*
X0000522500Y0000742500D03*
X0000117500Y0000457500D03*
X0000212500Y0000457500D03*
X0000182500Y0000332500D03*
X0000282500Y0000332500D03*
X0000157500Y0000457500D03*
X0000182500Y0000292500D03*
X0000057500Y0000417500D03*
X0000287500Y0000622500D03*
X0000247500Y0000627500D03*
X0000282500Y0000287500D03*
X0000387500Y0000457500D03*
X0000452500Y0000627500D03*
X0000472500Y0000862500D03*
X0000322500Y0000862500D03*
X0000242500Y0000792500D03*
X0000272500Y0000862500D03*
X0000437500Y0001065000D03*
X0000162500Y0000977500D03*
X0000212500Y0000162500D03*
X0000372500Y0001052500D03*
X0000222500Y0000742500D03*
X0000202500Y0000627500D03*
X0000497500Y0000347500D03*
X0000292500Y0000457500D03*
X0000407500Y0000347500D03*
X0000575000Y0000200000D03*
X0000462500Y0000197500D03*
X0000327500Y0000982500D03*
D19*
X0000522500Y0000675000D02*
X0000522500Y0000672500D01*
X0000522500Y0000672500D02*
X0000527500Y0000677500D01*
X0000522500Y0000687500D02*
X0000522500Y0000675000D01*
X0000102500Y0000687500D02*
X0000102500Y0000652500D01*
X0000067500Y0000722500D02*
X0000102500Y0000687500D01*
X0000067500Y0001065000D02*
X0000067500Y0000722500D01*
X0000456350Y0000453850D02*
X0000456350Y0000412500D01*
X0000457500Y0000455000D02*
X0000456350Y0000453850D01*
X0000192500Y0000887500D02*
X0000207500Y0000872500D01*
X0000207500Y0000872500D02*
X0000207500Y0000862500D01*
X0000338799Y0000398500D02*
X0000337500Y0000397500D01*
X0000337500Y0000397500D02*
X0000357500Y0000397500D01*
X0000357500Y0000397500D02*
X0000377500Y0000377500D01*
X0000377500Y0000377500D02*
X0000407500Y0000377500D01*
X0000187500Y0000187500D02*
X0000127500Y0000247500D01*
X0000127500Y0000247500D02*
X0000126200Y0000248500D01*
X0000338799Y0000398500D02*
X0000337500Y0000397500D01*
X0000337500Y0000397500D02*
X0000442500Y0000397500D01*
X0000442500Y0000397500D02*
X0000457500Y0000412500D01*
X0000457500Y0000412500D02*
X0000456350Y0000412500D01*
X0000407500Y0000377500D02*
X0000412500Y0000372500D01*
X0000412500Y0000372500D02*
X0000422500Y0000372500D01*
X0000422500Y0000372500D02*
X0000432500Y0000362500D01*
X0000432500Y0000362500D02*
X0000432500Y0000312500D01*
X0000307500Y0000187500D02*
X0000187500Y0000187500D01*
X0000083500Y0000398500D02*
X0000126200Y0000398500D01*
X0000072500Y0000387500D02*
X0000083500Y0000398500D01*
X0000072500Y0000357500D02*
X0000072500Y0000387500D01*
X0000537500Y0000977500D02*
X0000487500Y0001027500D01*
X0000487500Y0001027500D02*
X0000487500Y0001097500D01*
X0000353287Y0000518500D02*
X0000353287Y0000530787D01*
X0000353287Y0000530787D02*
X0000370000Y0000547500D01*
X0000370000Y0000547500D02*
X0000370000Y0000630000D01*
X0000570000Y0000677500D02*
X0000572500Y0000677500D01*
X0000572500Y0000677500D02*
X0000577500Y0000682500D01*
X0000577500Y0000682500D02*
X0000577500Y0000862500D01*
X0000353287Y0000518500D02*
X0000352500Y0000517500D01*
X0000522500Y0000742500D02*
X0000572500Y0000692500D01*
X0000572500Y0000692500D02*
X0000572500Y0000677500D01*
X0000572500Y0000677500D02*
X0000570000Y0000677500D01*
X0000126200Y0000398500D02*
X0000127500Y0000397500D01*
X0000127500Y0000397500D02*
X0000117500Y0000407500D01*
X0000117500Y0000407500D02*
X0000117500Y0000457500D01*
X0000212500Y0000457500D02*
X0000252500Y0000497500D01*
X0000252500Y0000497500D02*
X0000252500Y0000517500D01*
X0000252500Y0000517500D02*
X0000251712Y0000518500D01*
X0000127500Y0000397500D02*
X0000126200Y0000398500D01*
X0000353287Y0000518500D02*
X0000352500Y0000517500D01*
X0000251712Y0000518500D02*
X0000252500Y0000517500D01*
X0000252500Y0000517500D02*
X0000352500Y0000517500D01*
X0000352500Y0000517500D02*
X0000353287Y0000518500D01*
X0000126200Y0000348500D02*
X0000127500Y0000347500D01*
X0000127500Y0000347500D02*
X0000167500Y0000347500D01*
X0000167500Y0000347500D02*
X0000182500Y0000332500D01*
X0000282500Y0000332500D02*
X0000292500Y0000322500D01*
X0000292500Y0000322500D02*
X0000312500Y0000322500D01*
X0000312500Y0000322500D02*
X0000337500Y0000297500D01*
X0000337500Y0000297500D02*
X0000338799Y0000298500D01*
X0000153287Y0000518500D02*
X0000152500Y0000517500D01*
X0000152500Y0000517500D02*
X0000182500Y0000487500D01*
X0000182500Y0000487500D02*
X0000182500Y0000442500D01*
X0000182500Y0000442500D02*
X0000172500Y0000432500D01*
X0000172500Y0000432500D02*
X0000172500Y0000372500D01*
X0000172500Y0000372500D02*
X0000152500Y0000372500D01*
X0000152500Y0000372500D02*
X0000127500Y0000347500D01*
X0000127500Y0000347500D02*
X0000126200Y0000348500D01*
X0000153287Y0000518500D02*
X0000152500Y0000517500D01*
X0000152500Y0000517500D02*
X0000157500Y0000512500D01*
X0000157500Y0000512500D02*
X0000157500Y0000457500D01*
X0000126200Y0000298500D02*
X0000127500Y0000297500D01*
X0000127500Y0000297500D02*
X0000177500Y0000297500D01*
X0000177500Y0000297500D02*
X0000182500Y0000292500D01*
X0000057500Y0000417500D02*
X0000092500Y0000452500D01*
X0000092500Y0000452500D02*
X0000092500Y0000472500D01*
X0000092500Y0000472500D02*
X0000107500Y0000487500D01*
X0000107500Y0000487500D02*
X0000107500Y0000557500D01*
X0000107500Y0000557500D02*
X0000222500Y0000557500D01*
X0000222500Y0000557500D02*
X0000287500Y0000622500D01*
X0000137500Y0000307500D02*
X0000127500Y0000297500D01*
X0000127500Y0000297500D02*
X0000126200Y0000298500D01*
X0000167539Y0001047500D02*
X0000137500Y0001047500D01*
X0000102500Y0001012500D02*
X0000102500Y0000855000D01*
X0000137500Y0001047500D02*
X0000102500Y0001012500D01*
X0000247500Y0000627500D02*
X0000242500Y0000627500D01*
X0000242500Y0000627500D02*
X0000217500Y0000602500D01*
X0000217500Y0000602500D02*
X0000187500Y0000602500D01*
X0000187500Y0000602500D02*
X0000137500Y0000652500D01*
X0000137500Y0000652500D02*
X0000137500Y0000837500D01*
X0000137500Y0000837500D02*
X0000117500Y0000837500D01*
X0000117500Y0000837500D02*
X0000102500Y0000852500D01*
X0000102500Y0000852500D02*
X0000102500Y0000855000D01*
X0000338799Y0000248500D02*
X0000337500Y0000247500D01*
X0000337500Y0000247500D02*
X0000317500Y0000247500D01*
X0000317500Y0000247500D02*
X0000282500Y0000282500D01*
X0000282500Y0000282500D02*
X0000282500Y0000287500D01*
X0000387500Y0000457500D02*
X0000392500Y0000457500D01*
X0000392500Y0000457500D02*
X0000452500Y0000517500D01*
X0000452500Y0000517500D02*
X0000451712Y0000518500D01*
X0000452500Y0000627500D02*
X0000422500Y0000657500D01*
X0000422500Y0000657500D02*
X0000422500Y0000677500D01*
X0000422500Y0000677500D02*
X0000420000Y0000677500D01*
X0000370000Y0000677500D02*
X0000372500Y0000677500D01*
X0000372500Y0000677500D02*
X0000392500Y0000697500D01*
X0000392500Y0000697500D02*
X0000392500Y0000717500D01*
X0000392500Y0000717500D02*
X0000472500Y0000797500D01*
X0000472500Y0000797500D02*
X0000472500Y0000862500D01*
X0000372500Y0000662500D02*
X0000372500Y0000675000D01*
X0000322500Y0000862500D02*
X0000322500Y0000677500D01*
X0000322500Y0000677500D02*
X0000320000Y0000677500D01*
X0000242500Y0000792500D02*
X0000247500Y0000787500D01*
X0000247500Y0000787500D02*
X0000247500Y0000727500D01*
X0000247500Y0000727500D02*
X0000222500Y0000702500D01*
X0000222500Y0000702500D02*
X0000222500Y0000677500D01*
X0000222500Y0000677500D02*
X0000220000Y0000677500D01*
X0000272500Y0000862500D02*
X0000272500Y0000677500D01*
X0000272500Y0000677500D02*
X0000270000Y0000677500D01*
X0000437500Y0001065000D02*
X0000437500Y0001100000D01*
X0000162500Y0000977500D02*
X0000167500Y0000972500D01*
X0000167500Y0000972500D02*
X0000167500Y0000877500D01*
X0000167500Y0000877500D02*
X0000172500Y0000872500D01*
X0000172500Y0000872500D02*
X0000172500Y0000867500D01*
X0000172500Y0000867500D02*
X0000182500Y0000857500D01*
X0000182500Y0000857500D02*
X0000182500Y0000847500D01*
X0000182500Y0000847500D02*
X0000192500Y0000837500D01*
X0000192500Y0000837500D02*
X0000222500Y0000837500D01*
X0000222500Y0000837500D02*
X0000247500Y0000862500D01*
X0000247500Y0000862500D02*
X0000247500Y0000877500D01*
X0000247500Y0000877500D02*
X0000272500Y0000902500D01*
X0000272500Y0000927500D02*
X0000272500Y0000902500D01*
X0000447342Y0001109842D02*
X0000447342Y0001235000D01*
X0000437500Y0001100000D02*
X0000447342Y0001109842D01*
X0000462342Y0001232500D02*
X0000462500Y0001232500D01*
X0000272500Y0000927500D02*
X0000270000Y0000927500D01*
X0000462342Y0001232500D02*
X0000462500Y0001232500D01*
X0000462500Y0001232500D02*
X0000447500Y0001217500D01*
X0000272500Y0000925000D02*
X0000272500Y0000922500D01*
X0000337500Y0001235000D02*
X0000337500Y0001027500D01*
X0000370000Y0000995000D02*
X0000370000Y0000927500D01*
X0000337500Y0001027500D02*
X0000370000Y0000995000D01*
X0000352500Y0001232500D02*
X0000372500Y0001212500D01*
X0000372500Y0000927500D02*
X0000370000Y0000927500D01*
X0000352500Y0001232500D02*
X0000322500Y0001202500D01*
X0000372500Y0000925000D02*
X0000372500Y0000922500D01*
X0000242500Y0001022500D02*
X0000242500Y0001110000D01*
X0000297500Y0000967500D02*
X0000242500Y0001022500D01*
X0000297500Y0000952500D02*
X0000297500Y0000967500D01*
X0000322500Y0000927500D02*
X0000297500Y0000952500D01*
X0000227263Y0001125236D02*
X0000227263Y0001235000D01*
X0000242500Y0001110000D02*
X0000227263Y0001125236D01*
X0000320000Y0000927500D02*
X0000322500Y0000927500D01*
X0000242500Y0001232500D02*
X0000242263Y0001232500D01*
X0000242500Y0001232500D02*
X0000242263Y0001232500D01*
X0000220000Y0000927500D02*
X0000220000Y0001085000D01*
X0000117421Y0001115078D02*
X0000117421Y0001235000D01*
X0000132500Y0001100000D02*
X0000117421Y0001115078D01*
X0000205000Y0001100000D02*
X0000132500Y0001100000D01*
X0000220000Y0001085000D02*
X0000205000Y0001100000D01*
X0000132421Y0001232500D02*
X0000132500Y0001232500D01*
X0000222500Y0000927500D02*
X0000220000Y0000927500D01*
X0000132500Y0001232500D02*
X0000132421Y0001232500D01*
X0000557578Y0001235000D02*
X0000557578Y0001082421D01*
X0000212500Y0000122500D02*
X0000212500Y0000162500D01*
X0000252500Y0000082500D02*
X0000212500Y0000122500D01*
X0000537500Y0000082500D02*
X0000252500Y0000082500D01*
X0000557578Y0001082421D02*
X0000627500Y0001012500D01*
X0000572578Y0001232500D02*
X0000572500Y0001232500D01*
X0000572578Y0001232500D02*
X0000572500Y0001232500D01*
X0000627500Y0000172500D02*
X0000537500Y0000082500D01*
X0000627500Y0001012500D02*
X0000627500Y0000172500D01*
X0000372500Y0001052500D02*
X0000375000Y0001052500D01*
X0000420000Y0001007500D02*
X0000420000Y0000927500D01*
X0000375000Y0001052500D02*
X0000420000Y0001007500D01*
X0000422500Y0000947500D02*
X0000422500Y0000927500D01*
X0000422500Y0000927500D02*
X0000420000Y0000927500D01*
X0000222500Y0000742500D02*
X0000197500Y0000717500D01*
X0000197500Y0000717500D02*
X0000192500Y0000717500D01*
X0000192500Y0000717500D02*
X0000192500Y0000637500D01*
X0000192500Y0000637500D02*
X0000202500Y0000627500D01*
X0000497500Y0000347500D02*
X0000562500Y0000412500D01*
X0000292500Y0000457500D02*
X0000292500Y0000372500D01*
X0000292500Y0000372500D02*
X0000312500Y0000372500D01*
X0000312500Y0000372500D02*
X0000337500Y0000347500D01*
X0000337500Y0000347500D02*
X0000338799Y0000348500D01*
X0000338799Y0000348500D02*
X0000337500Y0000347500D01*
X0000337500Y0000347500D02*
X0000407500Y0000347500D01*
X0000562500Y0000412500D02*
X0000562649Y0000412500D01*
X0000564649Y0000210350D02*
X0000564649Y0000246500D01*
X0000564649Y0000246500D02*
X0000562500Y0000247500D01*
X0000562500Y0000247500D02*
X0000547500Y0000262500D01*
X0000575000Y0000200000D02*
X0000564649Y0000210350D01*
X0000458350Y0000246500D02*
X0000458350Y0000201649D01*
X0000458350Y0000201649D02*
X0000462500Y0000197500D01*
X0000458350Y0000246500D02*
X0000457500Y0000247500D01*
X0000297460Y0001012539D02*
X0000297460Y0001047500D01*
X0000327500Y0000982500D02*
X0000297460Y0001012539D01*
G04 next file*
G04 #@! TF.GenerationSoftware,KiCad,Pcbnew,(5.0.2)-1*
G04 #@! TF.CreationDate,2019-07-10T16:32:42+02:00*
G04 #@! TF.ProjectId,joystick tester systest,6a6f7973-7469-4636-9b20-746573746572,rev?*
G04 #@! TF.SameCoordinates,Original*
G04 #@! TF.FileFunction,Copper,L1,Top*
G04 #@! TF.FilePolarity,Positive*
G04 Gerber Fmt 4.6, Leading zero omitted, Abs format (unit mm)*
G04 Created by KiCad (PCBNEW (5.0.2)-1) date 10-7-2019 16:32:42*
G01G01*
G04 APERTURE LIST*
G04 #@! TA.AperFunction,SMDPad,CuDef*
G04 #@! TD*
G04 #@! TA.AperFunction,SMDPad,CuDef*
G04 #@! TD*
G04 #@! TA.AperFunction,SMDPad,CuDef*
G04 #@! TD*
G04 #@! TA.AperFunction,SMDPad,CuDef*
G04 #@! TD*
G04 #@! TA.AperFunction,ConnectorPad*
G04 #@! TD*
G04 #@! TA.AperFunction,ComponentPad*
G04 #@! TD*
G04 #@! TA.AperFunction,ComponentPad*
G04 #@! TD*
G04 #@! TA.AperFunction,SMDPad,CuDef*
G04 #@! TD*
G04 #@! TA.AperFunction,ViaPad*
G04 #@! TD*
G04 #@! TA.AperFunction,Conductor*
G04 #@! TD*
G04 APERTURE END LIST*
D30*
G04 #@! TO.P,U3,16*
G04 #@! TO.N,FORWARD*
X-0005669291Y0006535433D02*
X0000228208Y0002385433D03*
G04 #@! TO.P,U3,14*
G04 #@! TO.N,BACK*
X0000328208Y0002385433D03*
G04 #@! TO.P,U3,13*
G04 #@! TO.N,LEFT*
X0000378208Y0002385433D03*
G04 #@! TO.P,U3,12*
G04 #@! TO.N,BT1*
X0000428208Y0002385433D03*
G04 #@! TO.P,U3,11*
G04 #@! TO.N,Net-(U3-Pad11)*
X0000478208Y0002385433D03*
G04 #@! TO.P,U3,10*
G04 #@! TO.N,Net-(U3-Pad10)*
X0000528208Y0002385433D03*
G04 #@! TO.P,U3,9*
G04 #@! TO.N,Net-(U3-Pad9)*
X0000578208Y0002385433D03*
G04 #@! TO.P,U3,8*
G04 #@! TO.N,GND*
X0000578208Y0002135433D03*
G04 #@! TO.P,U3,7*
G04 #@! TO.N,Net-(U3-Pad7)*
X0000528208Y0002135433D03*
G04 #@! TO.P,U3,6*
G04 #@! TO.N,Net-(U3-Pad6)*
X0000478208Y0002135433D03*
G04 #@! TO.P,U3,5*
G04 #@! TO.N,Net-(U2-Pad10)*
X0000428208Y0002135433D03*
G04 #@! TO.P,U3,4*
G04 #@! TO.N,Net-(U2-Pad7)*
X0000378208Y0002135433D03*
G04 #@! TO.P,U3,3*
G04 #@! TO.N,Net-(U2-Pad4)*
X0000328208Y0002135433D03*
G04 #@! TO.P,U3,2*
G04 #@! TO.N,Net-(U2-Pad2)*
X0000278208Y0002135433D03*
G04 #@! TO.P,U3,1*
G04 #@! TO.N,Net-(U2-Pad3)*
X0000228208Y0002135433D03*
G04 #@! TO.P,U3,15*
G04 #@! TO.N,RIGHT*
X0000278208Y0002385433D03*
G04 #@! TD*
D31*
G04 #@! TO.P,U1,1*
G04 #@! TO.N,GND*
X0000134409Y0001856433D03*
G04 #@! TO.P,U1,2*
G04 #@! TO.N,THR*
X0000134409Y0001806433D03*
G04 #@! TO.P,U1,3*
G04 #@! TO.N,Net-(U1-Pad3)*
X0000134409Y0001756433D03*
G04 #@! TO.P,U1,4*
G04 #@! TO.N,VCC*
X0000134409Y0001706433D03*
G04 #@! TO.P,U1,5*
G04 #@! TO.N,Net-(C1-Pad1)*
X0000347007Y0001706433D03*
G04 #@! TO.P,U1,6*
G04 #@! TO.N,THR*
X0000347007Y0001756433D03*
G04 #@! TO.P,U1,7*
G04 #@! TO.N,Net-(R3-Pad1)*
X0000347007Y0001806433D03*
G04 #@! TO.P,U1,8*
G04 #@! TO.N,VCC*
X0000347007Y0001856433D03*
G04 #@! TD*
D32*
G04 #@! TO.P,R2,1*
G04 #@! TO.N,Net-(JP1-Pad1)*
X0000572858Y0001704433D03*
G04 #@! TO.P,R2,2*
G04 #@! TO.N,Net-(Q2-Pad1)*
X0000466559Y0001704433D03*
G04 #@! TD*
G04 #@! TO.P,R4,1*
G04 #@! TO.N,VCC*
X0000464559Y0001870433D03*
G04 #@! TO.P,R4,2*
G04 #@! TO.N,Net-(R3-Pad1)*
X0000570858Y0001870433D03*
G04 #@! TD*
D33*
G04 #@! TO.P,C1,1*
G04 #@! TO.N,Net-(C1-Pad1)*
X0000459921Y0001976433D03*
G04 #@! TO.P,C1,2*
G04 #@! TO.N,GND*
X0000361496Y0001976433D03*
G04 #@! TD*
G04 #@! TO.P,C2,1*
G04 #@! TO.N,THR*
X0000161496Y0001976433D03*
G04 #@! TO.P,C2,2*
G04 #@! TO.N,GND*
X0000259921Y0001976433D03*
G04 #@! TD*
D34*
G04 #@! TO.P,J1,4*
G04 #@! TO.N,RIGHT*
X0000455551Y0002692933D03*
G04 #@! TO.P,J1,3*
G04 #@! TO.N,LEFT*
X0000345708Y0002692933D03*
G04 #@! TO.P,J1,2*
G04 #@! TO.N,BACK*
X0000235472Y0002692933D03*
G04 #@! TO.P,J1,1*
G04 #@! TO.N,FORWARD*
X0000125629Y0002692933D03*
G04 #@! TO.P,J1,5*
G04 #@! TO.N,BT3*
X0000565787Y0002692933D03*
G04 #@! TD*
D35*
G04 #@! TO.P,JP1,1*
G04 #@! TO.N,Net-(JP1-Pad1)*
X0000110708Y0002212933D03*
D36*
G04 #@! TO.P,JP1,2*
G04 #@! TO.N,Net-(JP1-Pad2)*
X0000110708Y0002262933D03*
G04 #@! TO.P,JP1,3*
G04 #@! TO.N,RST*
X0000110708Y0002312933D03*
G04 #@! TD*
D37*
G04 #@! TO.P,D1,1*
G04 #@! TO.N,RST*
X0000175747Y0002505433D03*
G04 #@! TO.P,D1,2*
G04 #@! TO.N,Net-(D1-Pad2)*
X0000305669Y0002505433D03*
G04 #@! TD*
D38*
G04 #@! TO.N,VCC*
X0000110708Y0002110433D03*
X0000075708Y0002522933D03*
X0000465708Y0001912933D03*
X0000215708Y0002320433D03*
X0000440708Y0001770433D03*
X0000315708Y0001645433D03*
G04 #@! TO.N,GND*
X0000080708Y0001815433D03*
X0000545708Y0002435433D03*
X0000495708Y0002555433D03*
X0000378208Y0002087933D03*
X0000585708Y0002320433D03*
X0000530708Y0002200433D03*
X0000125708Y0001915433D03*
X0000220708Y0001915433D03*
G04 #@! TO.N,THR*
X0000190708Y0001790433D03*
X0000290708Y0001790433D03*
X0000165708Y0001915433D03*
G04 #@! TO.N,Net-(U1-Pad3)*
X0000190708Y0001750433D03*
X0000065708Y0001875433D03*
X0000295708Y0002080433D03*
G04 #@! TO.N,RST*
X0000255708Y0002085433D03*
G04 #@! TO.N,Net-(C1-Pad1)*
X0000290708Y0001745433D03*
X0000395708Y0001915433D03*
G04 #@! TO.N,Net-(U2-Pad10)*
X0000460708Y0002085433D03*
G04 #@! TO.N,Net-(U2-Pad7)*
X0000480708Y0002320433D03*
G04 #@! TO.N,Net-(U2-Pad4)*
X0000330708Y0002320433D03*
G04 #@! TO.N,Net-(U2-Pad3)*
X0000250708Y0002250433D03*
G04 #@! TO.N,Net-(U2-Pad2)*
X0000280708Y0002320433D03*
G04 #@! TO.N,RIGHT*
X0000445708Y0002522933D03*
X0000170708Y0002435433D03*
G04 #@! TO.N,BT3*
X0000220708Y0001620433D03*
G04 #@! TO.N,BT1*
X0000380708Y0002510433D03*
G04 #@! TO.N,Net-(R1-Pad1)*
X0000230708Y0002200433D03*
X0000210708Y0002085433D03*
G04 #@! TO.N,Net-(R3-Pad1)*
X0000505708Y0001805433D03*
X0000300708Y0001915433D03*
X0000415708Y0001805433D03*
G04 #@! TO.N,Net-(JP1-Pad1)*
X0000583208Y0001657933D03*
G04 #@! TO.N,Net-(Q2-Pad1)*
X0000470708Y0001655433D03*
G04 #@! TO.N,Net-(D1-Pad2)*
X0000335708Y0002440433D03*
G04 #@! TD*
D39*
G04 #@! TO.N,Net-(U3-Pad7)*
X0000530708Y0002132933D02*
X0000530708Y0002130433D01*
X0000530708Y0002130433D02*
X0000535708Y0002135433D01*
X0000530708Y0002145433D02*
X0000530708Y0002132933D01*
G04 #@! TO.N,VCC*
X0000110708Y0002145433D02*
X0000110708Y0002110433D01*
X0000075708Y0002180433D02*
X0000110708Y0002145433D01*
X0000075708Y0002522933D02*
X0000075708Y0002180433D01*
X0000464559Y0001911783D02*
X0000464559Y0001870433D01*
X0000465708Y0001912933D02*
X0000464559Y0001911783D01*
X0000200708Y0002345433D02*
X0000215708Y0002330433D01*
X0000215708Y0002330433D02*
X0000215708Y0002320433D01*
X0000347007Y0001856433D02*
X0000345708Y0001855433D01*
X0000345708Y0001855433D02*
X0000365708Y0001855433D01*
X0000365708Y0001855433D02*
X0000385708Y0001835433D01*
X0000385708Y0001835433D02*
X0000415708Y0001835433D01*
X0000195708Y0001645433D02*
X0000135708Y0001705433D01*
X0000135708Y0001705433D02*
X0000134409Y0001706433D01*
X0000347007Y0001856433D02*
X0000345708Y0001855433D01*
X0000345708Y0001855433D02*
X0000450708Y0001855433D01*
X0000450708Y0001855433D02*
X0000465708Y0001870433D01*
X0000465708Y0001870433D02*
X0000464559Y0001870433D01*
X0000415708Y0001835433D02*
X0000420708Y0001830433D01*
X0000420708Y0001830433D02*
X0000430708Y0001830433D01*
X0000430708Y0001830433D02*
X0000440708Y0001820433D01*
X0000440708Y0001820433D02*
X0000440708Y0001770433D01*
X0000315708Y0001645433D02*
X0000195708Y0001645433D01*
G04 #@! TO.N,GND*
X0000091708Y0001856433D02*
X0000134409Y0001856433D01*
X0000080708Y0001845433D02*
X0000091708Y0001856433D01*
X0000080708Y0001815433D02*
X0000080708Y0001845433D01*
X0000545708Y0002435433D02*
X0000495708Y0002485433D01*
X0000495708Y0002485433D02*
X0000495708Y0002555433D01*
X0000361496Y0001976433D02*
X0000361496Y0001988720D01*
X0000361496Y0001988720D02*
X0000378208Y0002005433D01*
X0000378208Y0002005433D02*
X0000378208Y0002087933D01*
X0000578208Y0002135433D02*
X0000580708Y0002135433D01*
X0000580708Y0002135433D02*
X0000585708Y0002140433D01*
X0000585708Y0002140433D02*
X0000585708Y0002320433D01*
X0000361496Y0001976433D02*
X0000360708Y0001975433D01*
X0000530708Y0002200433D02*
X0000580708Y0002150433D01*
X0000580708Y0002150433D02*
X0000580708Y0002135433D01*
X0000580708Y0002135433D02*
X0000578208Y0002135433D01*
X0000134409Y0001856433D02*
X0000135708Y0001855433D01*
X0000135708Y0001855433D02*
X0000125708Y0001865433D01*
X0000125708Y0001865433D02*
X0000125708Y0001915433D01*
X0000220708Y0001915433D02*
X0000260708Y0001955433D01*
X0000260708Y0001955433D02*
X0000260708Y0001975433D01*
X0000260708Y0001975433D02*
X0000259921Y0001976433D01*
X0000135708Y0001855433D02*
X0000134409Y0001856433D01*
X0000361496Y0001976433D02*
X0000360708Y0001975433D01*
X0000259921Y0001976433D02*
X0000260708Y0001975433D01*
X0000260708Y0001975433D02*
X0000360708Y0001975433D01*
X0000360708Y0001975433D02*
X0000361496Y0001976433D01*
G04 #@! TO.N,THR*
X0000134409Y0001806433D02*
X0000135708Y0001805433D01*
X0000135708Y0001805433D02*
X0000175708Y0001805433D01*
X0000175708Y0001805433D02*
X0000190708Y0001790433D01*
X0000290708Y0001790433D02*
X0000300708Y0001780433D01*
X0000300708Y0001780433D02*
X0000320708Y0001780433D01*
X0000320708Y0001780433D02*
X0000345708Y0001755433D01*
X0000345708Y0001755433D02*
X0000347007Y0001756433D01*
X0000161496Y0001976433D02*
X0000160708Y0001975433D01*
X0000160708Y0001975433D02*
X0000190708Y0001945433D01*
X0000190708Y0001945433D02*
X0000190708Y0001900433D01*
X0000190708Y0001900433D02*
X0000180708Y0001890433D01*
X0000180708Y0001890433D02*
X0000180708Y0001830433D01*
X0000180708Y0001830433D02*
X0000160708Y0001830433D01*
X0000160708Y0001830433D02*
X0000135708Y0001805433D01*
X0000135708Y0001805433D02*
X0000134409Y0001806433D01*
X0000161496Y0001976433D02*
X0000160708Y0001975433D01*
X0000160708Y0001975433D02*
X0000165708Y0001970433D01*
X0000165708Y0001970433D02*
X0000165708Y0001915433D01*
G04 #@! TO.N,Net-(U1-Pad3)*
X0000134409Y0001756433D02*
X0000135708Y0001755433D01*
X0000135708Y0001755433D02*
X0000185708Y0001755433D01*
X0000185708Y0001755433D02*
X0000190708Y0001750433D01*
X0000065708Y0001875433D02*
X0000100708Y0001910433D01*
X0000100708Y0001910433D02*
X0000100708Y0001930433D01*
X0000100708Y0001930433D02*
X0000115708Y0001945433D01*
X0000115708Y0001945433D02*
X0000115708Y0002015433D01*
X0000115708Y0002015433D02*
X0000230708Y0002015433D01*
X0000230708Y0002015433D02*
X0000295708Y0002080433D01*
X0000145708Y0001765433D02*
X0000135708Y0001755433D01*
X0000135708Y0001755433D02*
X0000134409Y0001756433D01*
G04 #@! TO.N,RST*
X0000175747Y0002505433D02*
X0000145708Y0002505433D01*
X0000110708Y0002470433D02*
X0000110708Y0002312933D01*
X0000145708Y0002505433D02*
X0000110708Y0002470433D01*
X0000255708Y0002085433D02*
X0000250708Y0002085433D01*
X0000250708Y0002085433D02*
X0000225708Y0002060433D01*
X0000225708Y0002060433D02*
X0000195708Y0002060433D01*
X0000195708Y0002060433D02*
X0000145708Y0002110433D01*
X0000145708Y0002110433D02*
X0000145708Y0002295433D01*
X0000145708Y0002295433D02*
X0000125708Y0002295433D01*
X0000125708Y0002295433D02*
X0000110708Y0002310433D01*
X0000110708Y0002310433D02*
X0000110708Y0002312933D01*
G04 #@! TO.N,Net-(C1-Pad1)*
X0000347007Y0001706433D02*
X0000345708Y0001705433D01*
X0000345708Y0001705433D02*
X0000325708Y0001705433D01*
X0000325708Y0001705433D02*
X0000290708Y0001740433D01*
X0000290708Y0001740433D02*
X0000290708Y0001745433D01*
X0000395708Y0001915433D02*
X0000400708Y0001915433D01*
X0000400708Y0001915433D02*
X0000460708Y0001975433D01*
X0000460708Y0001975433D02*
X0000459921Y0001976433D01*
G04 #@! TO.N,Net-(U2-Pad10)*
X0000460708Y0002085433D02*
X0000430708Y0002115433D01*
X0000430708Y0002115433D02*
X0000430708Y0002135433D01*
X0000430708Y0002135433D02*
X0000428208Y0002135433D01*
G04 #@! TO.N,Net-(U2-Pad7)*
X0000378208Y0002135433D02*
X0000380708Y0002135433D01*
X0000380708Y0002135433D02*
X0000400708Y0002155433D01*
X0000400708Y0002155433D02*
X0000400708Y0002175433D01*
X0000400708Y0002175433D02*
X0000480708Y0002255433D01*
X0000480708Y0002255433D02*
X0000480708Y0002320433D01*
X0000380708Y0002120433D02*
X0000380708Y0002132933D01*
G04 #@! TO.N,Net-(U2-Pad4)*
X0000330708Y0002320433D02*
X0000330708Y0002135433D01*
X0000330708Y0002135433D02*
X0000328208Y0002135433D01*
G04 #@! TO.N,Net-(U2-Pad3)*
X0000250708Y0002250433D02*
X0000255708Y0002245433D01*
X0000255708Y0002245433D02*
X0000255708Y0002185433D01*
X0000255708Y0002185433D02*
X0000230708Y0002160433D01*
X0000230708Y0002160433D02*
X0000230708Y0002135433D01*
X0000230708Y0002135433D02*
X0000228208Y0002135433D01*
G04 #@! TO.N,Net-(U2-Pad2)*
X0000280708Y0002320433D02*
X0000280708Y0002135433D01*
X0000280708Y0002135433D02*
X0000278208Y0002135433D01*
G04 #@! TO.N,RIGHT*
X0000445708Y0002522933D02*
X0000445708Y0002557933D01*
X0000170708Y0002435433D02*
X0000175708Y0002430433D01*
X0000175708Y0002430433D02*
X0000175708Y0002335433D01*
X0000175708Y0002335433D02*
X0000180708Y0002330433D01*
X0000180708Y0002330433D02*
X0000180708Y0002325433D01*
X0000180708Y0002325433D02*
X0000190708Y0002315433D01*
X0000190708Y0002315433D02*
X0000190708Y0002305433D01*
X0000190708Y0002305433D02*
X0000200708Y0002295433D01*
X0000200708Y0002295433D02*
X0000230708Y0002295433D01*
X0000230708Y0002295433D02*
X0000255708Y0002320433D01*
X0000255708Y0002320433D02*
X0000255708Y0002335433D01*
X0000255708Y0002335433D02*
X0000280708Y0002360433D01*
X0000280708Y0002385433D02*
X0000280708Y0002360433D01*
X0000455551Y0002567775D02*
X0000455551Y0002692933D01*
X0000445708Y0002557933D02*
X0000455551Y0002567775D01*
X0000470551Y0002690433D02*
X0000470708Y0002690433D01*
X0000280708Y0002385433D02*
X0000278208Y0002385433D01*
X0000470551Y0002690433D02*
X0000470708Y0002690433D01*
X0000470708Y0002690433D02*
X0000455708Y0002675433D01*
X0000280708Y0002382933D02*
X0000280708Y0002380433D01*
G04 #@! TO.N,LEFT*
X0000345708Y0002692933D02*
X0000345708Y0002485433D01*
X0000378208Y0002452933D02*
X0000378208Y0002385433D01*
X0000345708Y0002485433D02*
X0000378208Y0002452933D01*
X0000360708Y0002690433D02*
X0000380708Y0002670433D01*
X0000380708Y0002385433D02*
X0000378208Y0002385433D01*
X0000360708Y0002690433D02*
X0000330708Y0002660433D01*
X0000380708Y0002382933D02*
X0000380708Y0002380433D01*
G04 #@! TO.N,BACK*
X0000250708Y0002480433D02*
X0000250708Y0002567933D01*
X0000305708Y0002425433D02*
X0000250708Y0002480433D01*
X0000305708Y0002410433D02*
X0000305708Y0002425433D01*
X0000330708Y0002385433D02*
X0000305708Y0002410433D01*
X0000235472Y0002583169D02*
X0000235472Y0002692933D01*
X0000250708Y0002567933D02*
X0000235472Y0002583169D01*
X0000328208Y0002385433D02*
X0000330708Y0002385433D01*
X0000250708Y0002690433D02*
X0000250472Y0002690433D01*
X0000250708Y0002690433D02*
X0000250472Y0002690433D01*
G04 #@! TO.N,FORWARD*
X0000228208Y0002385433D02*
X0000228208Y0002542933D01*
X0000125629Y0002573011D02*
X0000125629Y0002692933D01*
X0000140708Y0002557933D02*
X0000125629Y0002573011D01*
X0000213208Y0002557933D02*
X0000140708Y0002557933D01*
X0000228208Y0002542933D02*
X0000213208Y0002557933D01*
X0000140629Y0002690433D02*
X0000140708Y0002690433D01*
X0000230708Y0002385433D02*
X0000228208Y0002385433D01*
X0000140708Y0002690433D02*
X0000140629Y0002690433D01*
G04 #@! TO.N,BT3*
X0000565787Y0002692933D02*
X0000565787Y0002540354D01*
X0000220708Y0001580433D02*
X0000220708Y0001620433D01*
X0000260708Y0001540433D02*
X0000220708Y0001580433D01*
X0000545708Y0001540433D02*
X0000260708Y0001540433D01*
X0000565787Y0002540354D02*
X0000635708Y0002470433D01*
X0000580787Y0002690433D02*
X0000580708Y0002690433D01*
X0000580787Y0002690433D02*
X0000580708Y0002690433D01*
X0000635708Y0001630433D02*
X0000545708Y0001540433D01*
X0000635708Y0002470433D02*
X0000635708Y0001630433D01*
G04 #@! TO.N,BT1*
X0000380708Y0002510433D02*
X0000383208Y0002510433D01*
X0000428208Y0002465433D02*
X0000428208Y0002385433D01*
X0000383208Y0002510433D02*
X0000428208Y0002465433D01*
X0000430708Y0002405433D02*
X0000430708Y0002385433D01*
X0000430708Y0002385433D02*
X0000428208Y0002385433D01*
G04 #@! TO.N,Net-(R1-Pad1)*
X0000230708Y0002200433D02*
X0000205708Y0002175433D01*
X0000205708Y0002175433D02*
X0000200708Y0002175433D01*
X0000200708Y0002175433D02*
X0000200708Y0002095433D01*
X0000200708Y0002095433D02*
X0000210708Y0002085433D01*
G04 #@! TO.N,Net-(R3-Pad1)*
X0000505708Y0001805433D02*
X0000570708Y0001870433D01*
X0000300708Y0001915433D02*
X0000300708Y0001830433D01*
X0000300708Y0001830433D02*
X0000320708Y0001830433D01*
X0000320708Y0001830433D02*
X0000345708Y0001805433D01*
X0000345708Y0001805433D02*
X0000347007Y0001806433D01*
X0000347007Y0001806433D02*
X0000345708Y0001805433D01*
X0000345708Y0001805433D02*
X0000415708Y0001805433D01*
X0000570708Y0001870433D02*
X0000570858Y0001870433D01*
G04 #@! TO.N,Net-(JP1-Pad1)*
X0000572858Y0001668283D02*
X0000572858Y0001704433D01*
X0000572858Y0001704433D02*
X0000570708Y0001705433D01*
X0000570708Y0001705433D02*
X0000555708Y0001720433D01*
X0000583208Y0001657933D02*
X0000572858Y0001668283D01*
G04 #@! TO.N,Net-(Q2-Pad1)*
X0000466559Y0001704433D02*
X0000466559Y0001659582D01*
X0000466559Y0001659582D02*
X0000470708Y0001655433D01*
X0000466559Y0001704433D02*
X0000465708Y0001705433D01*
G04 #@! TO.N,Net-(D1-Pad2)*
X0000305669Y0002470472D02*
X0000305669Y0002505433D01*
X0000335708Y0002440433D02*
X0000305669Y0002470472D01*
G04 #@! TD*
G04 next file*
G04 #@! TF.GenerationSoftware,KiCad,Pcbnew,(5.0.2)-1*
G04 #@! TF.CreationDate,2019-07-10T16:32:42+02:00*
G04 #@! TF.ProjectId,joystick tester systest,6a6f7973-7469-4636-9b20-746573746572,rev?*
G04 #@! TF.SameCoordinates,Original*
G04 #@! TF.FileFunction,Copper,L1,Top*
G04 #@! TF.FilePolarity,Positive*
G04 Gerber Fmt 4.6, Leading zero omitted, Abs format (unit mm)*
G04 Created by KiCad (PCBNEW (5.0.2)-1) date 10-7-2019 16:32:42*
G01G01*
G04 APERTURE LIST*
G04 #@! TA.AperFunction,SMDPad,CuDef*
G04 #@! TD*
G04 #@! TA.AperFunction,SMDPad,CuDef*
G04 #@! TD*
G04 #@! TA.AperFunction,SMDPad,CuDef*
G04 #@! TD*
G04 #@! TA.AperFunction,SMDPad,CuDef*
G04 #@! TD*
G04 #@! TA.AperFunction,ConnectorPad*
G04 #@! TD*
G04 #@! TA.AperFunction,ComponentPad*
G04 #@! TD*
G04 #@! TA.AperFunction,ComponentPad*
G04 #@! TD*
G04 #@! TA.AperFunction,SMDPad,CuDef*
G04 #@! TD*
G04 #@! TA.AperFunction,ViaPad*
G04 #@! TD*
G04 #@! TA.AperFunction,Conductor*
G04 #@! TD*
G04 APERTURE END LIST*
D40*
G04 #@! TO.P,U3,16*
G04 #@! TO.N,FORWARD*
X-0004921259Y0005078740D02*
X0000976240Y0000928740D03*
G04 #@! TO.P,U3,14*
G04 #@! TO.N,BACK*
X0001076240Y0000928740D03*
G04 #@! TO.P,U3,13*
G04 #@! TO.N,LEFT*
X0001126240Y0000928740D03*
G04 #@! TO.P,U3,12*
G04 #@! TO.N,BT1*
X0001176240Y0000928740D03*
G04 #@! TO.P,U3,11*
G04 #@! TO.N,Net-(U3-Pad11)*
X0001226240Y0000928740D03*
G04 #@! TO.P,U3,10*
G04 #@! TO.N,Net-(U3-Pad10)*
X0001276240Y0000928740D03*
G04 #@! TO.P,U3,9*
G04 #@! TO.N,Net-(U3-Pad9)*
X0001326240Y0000928740D03*
G04 #@! TO.P,U3,8*
G04 #@! TO.N,GND*
X0001326240Y0000678740D03*
G04 #@! TO.P,U3,7*
G04 #@! TO.N,Net-(U3-Pad7)*
X0001276240Y0000678740D03*
G04 #@! TO.P,U3,6*
G04 #@! TO.N,Net-(U3-Pad6)*
X0001226240Y0000678740D03*
G04 #@! TO.P,U3,5*
G04 #@! TO.N,Net-(U2-Pad10)*
X0001176240Y0000678740D03*
G04 #@! TO.P,U3,4*
G04 #@! TO.N,Net-(U2-Pad7)*
X0001126240Y0000678740D03*
G04 #@! TO.P,U3,3*
G04 #@! TO.N,Net-(U2-Pad4)*
X0001076240Y0000678740D03*
G04 #@! TO.P,U3,2*
G04 #@! TO.N,Net-(U2-Pad2)*
X0001026240Y0000678740D03*
G04 #@! TO.P,U3,1*
G04 #@! TO.N,Net-(U2-Pad3)*
X0000976240Y0000678740D03*
G04 #@! TO.P,U3,15*
G04 #@! TO.N,RIGHT*
X0001026240Y0000928740D03*
G04 #@! TD*
D41*
G04 #@! TO.P,U1,1*
G04 #@! TO.N,GND*
X0000882440Y0000399740D03*
G04 #@! TO.P,U1,2*
G04 #@! TO.N,THR*
X0000882440Y0000349740D03*
G04 #@! TO.P,U1,3*
G04 #@! TO.N,Net-(U1-Pad3)*
X0000882440Y0000299740D03*
G04 #@! TO.P,U1,4*
G04 #@! TO.N,VCC*
X0000882440Y0000249740D03*
G04 #@! TO.P,U1,5*
G04 #@! TO.N,Net-(C1-Pad1)*
X0001095039Y0000249740D03*
G04 #@! TO.P,U1,6*
G04 #@! TO.N,THR*
X0001095039Y0000299740D03*
G04 #@! TO.P,U1,7*
G04 #@! TO.N,Net-(R3-Pad1)*
X0001095039Y0000349740D03*
G04 #@! TO.P,U1,8*
G04 #@! TO.N,VCC*
X0001095039Y0000399740D03*
G04 #@! TD*
D42*
G04 #@! TO.P,R2,1*
G04 #@! TO.N,Net-(JP1-Pad1)*
X0001320889Y0000247740D03*
G04 #@! TO.P,R2,2*
G04 #@! TO.N,Net-(Q2-Pad1)*
X0001214590Y0000247740D03*
G04 #@! TD*
G04 #@! TO.P,R4,1*
G04 #@! TO.N,VCC*
X0001212590Y0000413740D03*
G04 #@! TO.P,R4,2*
G04 #@! TO.N,Net-(R3-Pad1)*
X0001318889Y0000413740D03*
G04 #@! TD*
D43*
G04 #@! TO.P,C1,1*
G04 #@! TO.N,Net-(C1-Pad1)*
X0001207952Y0000519740D03*
G04 #@! TO.P,C1,2*
G04 #@! TO.N,GND*
X0001109527Y0000519740D03*
G04 #@! TD*
G04 #@! TO.P,C2,1*
G04 #@! TO.N,THR*
X0000909527Y0000519740D03*
G04 #@! TO.P,C2,2*
G04 #@! TO.N,GND*
X0001007952Y0000519740D03*
G04 #@! TD*
D44*
G04 #@! TO.P,J1,4*
G04 #@! TO.N,RIGHT*
X0001203582Y0001236240D03*
G04 #@! TO.P,J1,3*
G04 #@! TO.N,LEFT*
X0001093740Y0001236240D03*
G04 #@! TO.P,J1,2*
G04 #@! TO.N,BACK*
X0000983503Y0001236240D03*
G04 #@! TO.P,J1,1*
G04 #@! TO.N,FORWARD*
X0000873661Y0001236240D03*
G04 #@! TO.P,J1,5*
G04 #@! TO.N,BT3*
X0001313818Y0001236240D03*
G04 #@! TD*
D45*
G04 #@! TO.P,JP1,1*
G04 #@! TO.N,Net-(JP1-Pad1)*
X0000858740Y0000756240D03*
D46*
G04 #@! TO.P,JP1,2*
G04 #@! TO.N,Net-(JP1-Pad2)*
X0000858740Y0000806240D03*
G04 #@! TO.P,JP1,3*
G04 #@! TO.N,RST*
X0000858740Y0000856240D03*
G04 #@! TD*
D47*
G04 #@! TO.P,D1,1*
G04 #@! TO.N,RST*
X0000923779Y0001048740D03*
G04 #@! TO.P,D1,2*
G04 #@! TO.N,Net-(D1-Pad2)*
X0001053700Y0001048740D03*
G04 #@! TD*
D48*
G04 #@! TO.N,VCC*
X0000858740Y0000653740D03*
X0000823740Y0001066240D03*
X0001213740Y0000456240D03*
X0000963740Y0000863740D03*
X0001188740Y0000313740D03*
X0001063740Y0000188740D03*
G04 #@! TO.N,GND*
X0000828740Y0000358740D03*
X0001293740Y0000978740D03*
X0001243740Y0001098740D03*
X0001126240Y0000631240D03*
X0001333740Y0000863740D03*
X0001278740Y0000743740D03*
X0000873740Y0000458740D03*
X0000968740Y0000458740D03*
G04 #@! TO.N,THR*
X0000938740Y0000333740D03*
X0001038740Y0000333740D03*
X0000913740Y0000458740D03*
G04 #@! TO.N,Net-(U1-Pad3)*
X0000938740Y0000293740D03*
X0000813740Y0000418740D03*
X0001043740Y0000623740D03*
G04 #@! TO.N,RST*
X0001003740Y0000628740D03*
G04 #@! TO.N,Net-(C1-Pad1)*
X0001038740Y0000288740D03*
X0001143740Y0000458740D03*
G04 #@! TO.N,Net-(U2-Pad10)*
X0001208740Y0000628740D03*
G04 #@! TO.N,Net-(U2-Pad7)*
X0001228740Y0000863740D03*
G04 #@! TO.N,Net-(U2-Pad4)*
X0001078740Y0000863740D03*
G04 #@! TO.N,Net-(U2-Pad3)*
X0000998740Y0000793740D03*
G04 #@! TO.N,Net-(U2-Pad2)*
X0001028740Y0000863740D03*
G04 #@! TO.N,RIGHT*
X0001193740Y0001066240D03*
X0000918740Y0000978740D03*
G04 #@! TO.N,BT3*
X0000968740Y0000163740D03*
G04 #@! TO.N,BT1*
X0001128740Y0001053740D03*
G04 #@! TO.N,Net-(R1-Pad1)*
X0000978740Y0000743740D03*
X0000958740Y0000628740D03*
G04 #@! TO.N,Net-(R3-Pad1)*
X0001253740Y0000348740D03*
X0001048740Y0000458740D03*
X0001163740Y0000348740D03*
G04 #@! TO.N,Net-(JP1-Pad1)*
X0001331240Y0000201240D03*
G04 #@! TO.N,Net-(Q2-Pad1)*
X0001218740Y0000198740D03*
G04 #@! TO.N,Net-(D1-Pad2)*
X0001083740Y0000983740D03*
G04 #@! TD*
D49*
G04 #@! TO.N,Net-(U3-Pad7)*
X0001278740Y0000676240D02*
X0001278740Y0000673740D01*
X0001278740Y0000673740D02*
X0001283740Y0000678740D01*
X0001278740Y0000688740D02*
X0001278740Y0000676240D01*
G04 #@! TO.N,VCC*
X0000858740Y0000688740D02*
X0000858740Y0000653740D01*
X0000823740Y0000723740D02*
X0000858740Y0000688740D01*
X0000823740Y0001066240D02*
X0000823740Y0000723740D01*
X0001212590Y0000455090D02*
X0001212590Y0000413740D01*
X0001213740Y0000456240D02*
X0001212590Y0000455090D01*
X0000948740Y0000888740D02*
X0000963740Y0000873740D01*
X0000963740Y0000873740D02*
X0000963740Y0000863740D01*
X0001095039Y0000399740D02*
X0001093740Y0000398740D01*
X0001093740Y0000398740D02*
X0001113740Y0000398740D01*
X0001113740Y0000398740D02*
X0001133740Y0000378740D01*
X0001133740Y0000378740D02*
X0001163740Y0000378740D01*
X0000943740Y0000188740D02*
X0000883740Y0000248740D01*
X0000883740Y0000248740D02*
X0000882440Y0000249740D01*
X0001095039Y0000399740D02*
X0001093740Y0000398740D01*
X0001093740Y0000398740D02*
X0001198740Y0000398740D01*
X0001198740Y0000398740D02*
X0001213740Y0000413740D01*
X0001213740Y0000413740D02*
X0001212590Y0000413740D01*
X0001163740Y0000378740D02*
X0001168740Y0000373740D01*
X0001168740Y0000373740D02*
X0001178740Y0000373740D01*
X0001178740Y0000373740D02*
X0001188740Y0000363740D01*
X0001188740Y0000363740D02*
X0001188740Y0000313740D01*
X0001063740Y0000188740D02*
X0000943740Y0000188740D01*
G04 #@! TO.N,GND*
X0000839740Y0000399740D02*
X0000882440Y0000399740D01*
X0000828740Y0000388740D02*
X0000839740Y0000399740D01*
X0000828740Y0000358740D02*
X0000828740Y0000388740D01*
X0001293740Y0000978740D02*
X0001243740Y0001028740D01*
X0001243740Y0001028740D02*
X0001243740Y0001098740D01*
X0001109527Y0000519740D02*
X0001109527Y0000532027D01*
X0001109527Y0000532027D02*
X0001126240Y0000548740D01*
X0001126240Y0000548740D02*
X0001126240Y0000631240D01*
X0001326240Y0000678740D02*
X0001328740Y0000678740D01*
X0001328740Y0000678740D02*
X0001333740Y0000683740D01*
X0001333740Y0000683740D02*
X0001333740Y0000863740D01*
X0001109527Y0000519740D02*
X0001108740Y0000518740D01*
X0001278740Y0000743740D02*
X0001328740Y0000693740D01*
X0001328740Y0000693740D02*
X0001328740Y0000678740D01*
X0001328740Y0000678740D02*
X0001326240Y0000678740D01*
X0000882440Y0000399740D02*
X0000883740Y0000398740D01*
X0000883740Y0000398740D02*
X0000873740Y0000408740D01*
X0000873740Y0000408740D02*
X0000873740Y0000458740D01*
X0000968740Y0000458740D02*
X0001008740Y0000498740D01*
X0001008740Y0000498740D02*
X0001008740Y0000518740D01*
X0001008740Y0000518740D02*
X0001007952Y0000519740D01*
X0000883740Y0000398740D02*
X0000882440Y0000399740D01*
X0001109527Y0000519740D02*
X0001108740Y0000518740D01*
X0001007952Y0000519740D02*
X0001008740Y0000518740D01*
X0001008740Y0000518740D02*
X0001108740Y0000518740D01*
X0001108740Y0000518740D02*
X0001109527Y0000519740D01*
G04 #@! TO.N,THR*
X0000882440Y0000349740D02*
X0000883740Y0000348740D01*
X0000883740Y0000348740D02*
X0000923740Y0000348740D01*
X0000923740Y0000348740D02*
X0000938740Y0000333740D01*
X0001038740Y0000333740D02*
X0001048740Y0000323740D01*
X0001048740Y0000323740D02*
X0001068740Y0000323740D01*
X0001068740Y0000323740D02*
X0001093740Y0000298740D01*
X0001093740Y0000298740D02*
X0001095039Y0000299740D01*
X0000909527Y0000519740D02*
X0000908740Y0000518740D01*
X0000908740Y0000518740D02*
X0000938740Y0000488740D01*
X0000938740Y0000488740D02*
X0000938740Y0000443740D01*
X0000938740Y0000443740D02*
X0000928740Y0000433740D01*
X0000928740Y0000433740D02*
X0000928740Y0000373740D01*
X0000928740Y0000373740D02*
X0000908740Y0000373740D01*
X0000908740Y0000373740D02*
X0000883740Y0000348740D01*
X0000883740Y0000348740D02*
X0000882440Y0000349740D01*
X0000909527Y0000519740D02*
X0000908740Y0000518740D01*
X0000908740Y0000518740D02*
X0000913740Y0000513740D01*
X0000913740Y0000513740D02*
X0000913740Y0000458740D01*
G04 #@! TO.N,Net-(U1-Pad3)*
X0000882440Y0000299740D02*
X0000883740Y0000298740D01*
X0000883740Y0000298740D02*
X0000933740Y0000298740D01*
X0000933740Y0000298740D02*
X0000938740Y0000293740D01*
X0000813740Y0000418740D02*
X0000848740Y0000453740D01*
X0000848740Y0000453740D02*
X0000848740Y0000473740D01*
X0000848740Y0000473740D02*
X0000863740Y0000488740D01*
X0000863740Y0000488740D02*
X0000863740Y0000558740D01*
X0000863740Y0000558740D02*
X0000978740Y0000558740D01*
X0000978740Y0000558740D02*
X0001043740Y0000623740D01*
X0000893740Y0000308740D02*
X0000883740Y0000298740D01*
X0000883740Y0000298740D02*
X0000882440Y0000299740D01*
G04 #@! TO.N,RST*
X0000923779Y0001048740D02*
X0000893740Y0001048740D01*
X0000858740Y0001013740D02*
X0000858740Y0000856240D01*
X0000893740Y0001048740D02*
X0000858740Y0001013740D01*
X0001003740Y0000628740D02*
X0000998740Y0000628740D01*
X0000998740Y0000628740D02*
X0000973740Y0000603740D01*
X0000973740Y0000603740D02*
X0000943740Y0000603740D01*
X0000943740Y0000603740D02*
X0000893740Y0000653740D01*
X0000893740Y0000653740D02*
X0000893740Y0000838740D01*
X0000893740Y0000838740D02*
X0000873740Y0000838740D01*
X0000873740Y0000838740D02*
X0000858740Y0000853740D01*
X0000858740Y0000853740D02*
X0000858740Y0000856240D01*
G04 #@! TO.N,Net-(C1-Pad1)*
X0001095039Y0000249740D02*
X0001093740Y0000248740D01*
X0001093740Y0000248740D02*
X0001073740Y0000248740D01*
X0001073740Y0000248740D02*
X0001038740Y0000283740D01*
X0001038740Y0000283740D02*
X0001038740Y0000288740D01*
X0001143740Y0000458740D02*
X0001148740Y0000458740D01*
X0001148740Y0000458740D02*
X0001208740Y0000518740D01*
X0001208740Y0000518740D02*
X0001207952Y0000519740D01*
G04 #@! TO.N,Net-(U2-Pad10)*
X0001208740Y0000628740D02*
X0001178740Y0000658740D01*
X0001178740Y0000658740D02*
X0001178740Y0000678740D01*
X0001178740Y0000678740D02*
X0001176240Y0000678740D01*
G04 #@! TO.N,Net-(U2-Pad7)*
X0001126240Y0000678740D02*
X0001128740Y0000678740D01*
X0001128740Y0000678740D02*
X0001148740Y0000698740D01*
X0001148740Y0000698740D02*
X0001148740Y0000718740D01*
X0001148740Y0000718740D02*
X0001228740Y0000798740D01*
X0001228740Y0000798740D02*
X0001228740Y0000863740D01*
X0001128740Y0000663740D02*
X0001128740Y0000676240D01*
G04 #@! TO.N,Net-(U2-Pad4)*
X0001078740Y0000863740D02*
X0001078740Y0000678740D01*
X0001078740Y0000678740D02*
X0001076240Y0000678740D01*
G04 #@! TO.N,Net-(U2-Pad3)*
X0000998740Y0000793740D02*
X0001003740Y0000788740D01*
X0001003740Y0000788740D02*
X0001003740Y0000728740D01*
X0001003740Y0000728740D02*
X0000978740Y0000703740D01*
X0000978740Y0000703740D02*
X0000978740Y0000678740D01*
X0000978740Y0000678740D02*
X0000976240Y0000678740D01*
G04 #@! TO.N,Net-(U2-Pad2)*
X0001028740Y0000863740D02*
X0001028740Y0000678740D01*
X0001028740Y0000678740D02*
X0001026240Y0000678740D01*
G04 #@! TO.N,RIGHT*
X0001193740Y0001066240D02*
X0001193740Y0001101240D01*
X0000918740Y0000978740D02*
X0000923740Y0000973740D01*
X0000923740Y0000973740D02*
X0000923740Y0000878740D01*
X0000923740Y0000878740D02*
X0000928740Y0000873740D01*
X0000928740Y0000873740D02*
X0000928740Y0000868740D01*
X0000928740Y0000868740D02*
X0000938740Y0000858740D01*
X0000938740Y0000858740D02*
X0000938740Y0000848740D01*
X0000938740Y0000848740D02*
X0000948740Y0000838740D01*
X0000948740Y0000838740D02*
X0000978740Y0000838740D01*
X0000978740Y0000838740D02*
X0001003740Y0000863740D01*
X0001003740Y0000863740D02*
X0001003740Y0000878740D01*
X0001003740Y0000878740D02*
X0001028740Y0000903740D01*
X0001028740Y0000928740D02*
X0001028740Y0000903740D01*
X0001203582Y0001111082D02*
X0001203582Y0001236240D01*
X0001193740Y0001101240D02*
X0001203582Y0001111082D01*
X0001218582Y0001233740D02*
X0001218740Y0001233740D01*
X0001028740Y0000928740D02*
X0001026240Y0000928740D01*
X0001218582Y0001233740D02*
X0001218740Y0001233740D01*
X0001218740Y0001233740D02*
X0001203740Y0001218740D01*
X0001028740Y0000926240D02*
X0001028740Y0000923740D01*
G04 #@! TO.N,LEFT*
X0001093740Y0001236240D02*
X0001093740Y0001028740D01*
X0001126240Y0000996240D02*
X0001126240Y0000928740D01*
X0001093740Y0001028740D02*
X0001126240Y0000996240D01*
X0001108740Y0001233740D02*
X0001128740Y0001213740D01*
X0001128740Y0000928740D02*
X0001126240Y0000928740D01*
X0001108740Y0001233740D02*
X0001078740Y0001203740D01*
X0001128740Y0000926240D02*
X0001128740Y0000923740D01*
G04 #@! TO.N,BACK*
X0000998740Y0001023740D02*
X0000998740Y0001111240D01*
X0001053740Y0000968740D02*
X0000998740Y0001023740D01*
X0001053740Y0000953740D02*
X0001053740Y0000968740D01*
X0001078740Y0000928740D02*
X0001053740Y0000953740D01*
X0000983503Y0001126476D02*
X0000983503Y0001236240D01*
X0000998740Y0001111240D02*
X0000983503Y0001126476D01*
X0001076240Y0000928740D02*
X0001078740Y0000928740D01*
X0000998740Y0001233740D02*
X0000998503Y0001233740D01*
X0000998740Y0001233740D02*
X0000998503Y0001233740D01*
G04 #@! TO.N,FORWARD*
X0000976240Y0000928740D02*
X0000976240Y0001086240D01*
X0000873661Y0001116318D02*
X0000873661Y0001236240D01*
X0000888740Y0001101240D02*
X0000873661Y0001116318D01*
X0000961240Y0001101240D02*
X0000888740Y0001101240D01*
X0000976240Y0001086240D02*
X0000961240Y0001101240D01*
X0000888661Y0001233740D02*
X0000888740Y0001233740D01*
X0000978740Y0000928740D02*
X0000976240Y0000928740D01*
X0000888740Y0001233740D02*
X0000888661Y0001233740D01*
G04 #@! TO.N,BT3*
X0001313818Y0001236240D02*
X0001313818Y0001083661D01*
X0000968740Y0000123740D02*
X0000968740Y0000163740D01*
X0001008740Y0000083740D02*
X0000968740Y0000123740D01*
X0001293740Y0000083740D02*
X0001008740Y0000083740D01*
X0001313818Y0001083661D02*
X0001383740Y0001013740D01*
X0001328818Y0001233740D02*
X0001328740Y0001233740D01*
X0001328818Y0001233740D02*
X0001328740Y0001233740D01*
X0001383740Y0000173740D02*
X0001293740Y0000083740D01*
X0001383740Y0001013740D02*
X0001383740Y0000173740D01*
G04 #@! TO.N,BT1*
X0001128740Y0001053740D02*
X0001131240Y0001053740D01*
X0001176240Y0001008740D02*
X0001176240Y0000928740D01*
X0001131240Y0001053740D02*
X0001176240Y0001008740D01*
X0001178740Y0000948740D02*
X0001178740Y0000928740D01*
X0001178740Y0000928740D02*
X0001176240Y0000928740D01*
G04 #@! TO.N,Net-(R1-Pad1)*
X0000978740Y0000743740D02*
X0000953740Y0000718740D01*
X0000953740Y0000718740D02*
X0000948740Y0000718740D01*
X0000948740Y0000718740D02*
X0000948740Y0000638740D01*
X0000948740Y0000638740D02*
X0000958740Y0000628740D01*
G04 #@! TO.N,Net-(R3-Pad1)*
X0001253740Y0000348740D02*
X0001318740Y0000413740D01*
X0001048740Y0000458740D02*
X0001048740Y0000373740D01*
X0001048740Y0000373740D02*
X0001068740Y0000373740D01*
X0001068740Y0000373740D02*
X0001093740Y0000348740D01*
X0001093740Y0000348740D02*
X0001095039Y0000349740D01*
X0001095039Y0000349740D02*
X0001093740Y0000348740D01*
X0001093740Y0000348740D02*
X0001163740Y0000348740D01*
X0001318740Y0000413740D02*
X0001318889Y0000413740D01*
G04 #@! TO.N,Net-(JP1-Pad1)*
X0001320889Y0000211590D02*
X0001320889Y0000247740D01*
X0001320889Y0000247740D02*
X0001318740Y0000248740D01*
X0001318740Y0000248740D02*
X0001303740Y0000263740D01*
X0001331240Y0000201240D02*
X0001320889Y0000211590D01*
G04 #@! TO.N,Net-(Q2-Pad1)*
X0001214590Y0000247740D02*
X0001214590Y0000202889D01*
X0001214590Y0000202889D02*
X0001218740Y0000198740D01*
X0001214590Y0000247740D02*
X0001213740Y0000248740D01*
G04 #@! TO.N,Net-(D1-Pad2)*
X0001053700Y0001013779D02*
X0001053700Y0001048740D01*
X0001083740Y0000983740D02*
X0001053700Y0001013779D01*
G04 #@! TD*
G04 next file*
G04 #@! TF.GenerationSoftware,KiCad,Pcbnew,(5.0.2)-1*
G04 #@! TF.CreationDate,2019-07-10T16:32:42+02:00*
G04 #@! TF.ProjectId,joystick tester systest,6a6f7973-7469-4636-9b20-746573746572,rev?*
G04 #@! TF.SameCoordinates,Original*
G04 #@! TF.FileFunction,Copper,L1,Top*
G04 #@! TF.FilePolarity,Positive*
G04 Gerber Fmt 4.6, Leading zero omitted, Abs format (unit mm)*
G04 Created by KiCad (PCBNEW (5.0.2)-1) date 10-7-2019 16:32:42*
G01G01*
G04 APERTURE LIST*
G04 #@! TA.AperFunction,SMDPad,CuDef*
G04 #@! TD*
G04 #@! TA.AperFunction,SMDPad,CuDef*
G04 #@! TD*
G04 #@! TA.AperFunction,SMDPad,CuDef*
G04 #@! TD*
G04 #@! TA.AperFunction,SMDPad,CuDef*
G04 #@! TD*
G04 #@! TA.AperFunction,ConnectorPad*
G04 #@! TD*
G04 #@! TA.AperFunction,ComponentPad*
G04 #@! TD*
G04 #@! TA.AperFunction,ComponentPad*
G04 #@! TD*
G04 #@! TA.AperFunction,SMDPad,CuDef*
G04 #@! TD*
G04 #@! TA.AperFunction,ViaPad*
G04 #@! TD*
G04 #@! TA.AperFunction,Conductor*
G04 #@! TD*
G04 APERTURE END LIST*
D50*
G04 #@! TO.P,U3,16*
G04 #@! TO.N,FORWARD*
X-0004173228Y0005078740D02*
X0001724271Y0000928740D03*
G04 #@! TO.P,U3,14*
G04 #@! TO.N,BACK*
X0001824271Y0000928740D03*
G04 #@! TO.P,U3,13*
G04 #@! TO.N,LEFT*
X0001874271Y0000928740D03*
G04 #@! TO.P,U3,12*
G04 #@! TO.N,BT1*
X0001924271Y0000928740D03*
G04 #@! TO.P,U3,11*
G04 #@! TO.N,Net-(U3-Pad11)*
X0001974271Y0000928740D03*
G04 #@! TO.P,U3,10*
G04 #@! TO.N,Net-(U3-Pad10)*
X0002024271Y0000928740D03*
G04 #@! TO.P,U3,9*
G04 #@! TO.N,Net-(U3-Pad9)*
X0002074271Y0000928740D03*
G04 #@! TO.P,U3,8*
G04 #@! TO.N,GND*
X0002074271Y0000678740D03*
G04 #@! TO.P,U3,7*
G04 #@! TO.N,Net-(U3-Pad7)*
X0002024271Y0000678740D03*
G04 #@! TO.P,U3,6*
G04 #@! TO.N,Net-(U3-Pad6)*
X0001974271Y0000678740D03*
G04 #@! TO.P,U3,5*
G04 #@! TO.N,Net-(U2-Pad10)*
X0001924271Y0000678740D03*
G04 #@! TO.P,U3,4*
G04 #@! TO.N,Net-(U2-Pad7)*
X0001874271Y0000678740D03*
G04 #@! TO.P,U3,3*
G04 #@! TO.N,Net-(U2-Pad4)*
X0001824271Y0000678740D03*
G04 #@! TO.P,U3,2*
G04 #@! TO.N,Net-(U2-Pad2)*
X0001774271Y0000678740D03*
G04 #@! TO.P,U3,1*
G04 #@! TO.N,Net-(U2-Pad3)*
X0001724271Y0000678740D03*
G04 #@! TO.P,U3,15*
G04 #@! TO.N,RIGHT*
X0001774271Y0000928740D03*
G04 #@! TD*
D51*
G04 #@! TO.P,U1,1*
G04 #@! TO.N,GND*
X0001630472Y0000399740D03*
G04 #@! TO.P,U1,2*
G04 #@! TO.N,THR*
X0001630472Y0000349740D03*
G04 #@! TO.P,U1,3*
G04 #@! TO.N,Net-(U1-Pad3)*
X0001630472Y0000299740D03*
G04 #@! TO.P,U1,4*
G04 #@! TO.N,VCC*
X0001630472Y0000249740D03*
G04 #@! TO.P,U1,5*
G04 #@! TO.N,Net-(C1-Pad1)*
X0001843070Y0000249740D03*
G04 #@! TO.P,U1,6*
G04 #@! TO.N,THR*
X0001843070Y0000299740D03*
G04 #@! TO.P,U1,7*
G04 #@! TO.N,Net-(R3-Pad1)*
X0001843070Y0000349740D03*
G04 #@! TO.P,U1,8*
G04 #@! TO.N,VCC*
X0001843070Y0000399740D03*
G04 #@! TD*
D52*
G04 #@! TO.P,R2,1*
G04 #@! TO.N,Net-(JP1-Pad1)*
X0002068921Y0000247740D03*
G04 #@! TO.P,R2,2*
G04 #@! TO.N,Net-(Q2-Pad1)*
X0001962622Y0000247740D03*
G04 #@! TD*
G04 #@! TO.P,R4,1*
G04 #@! TO.N,VCC*
X0001960622Y0000413740D03*
G04 #@! TO.P,R4,2*
G04 #@! TO.N,Net-(R3-Pad1)*
X0002066921Y0000413740D03*
G04 #@! TD*
D53*
G04 #@! TO.P,C1,1*
G04 #@! TO.N,Net-(C1-Pad1)*
X0001955984Y0000519740D03*
G04 #@! TO.P,C1,2*
G04 #@! TO.N,GND*
X0001857559Y0000519740D03*
G04 #@! TD*
G04 #@! TO.P,C2,1*
G04 #@! TO.N,THR*
X0001657559Y0000519740D03*
G04 #@! TO.P,C2,2*
G04 #@! TO.N,GND*
X0001755984Y0000519740D03*
G04 #@! TD*
D54*
G04 #@! TO.P,J1,4*
G04 #@! TO.N,RIGHT*
X0001951614Y0001236240D03*
G04 #@! TO.P,J1,3*
G04 #@! TO.N,LEFT*
X0001841771Y0001236240D03*
G04 #@! TO.P,J1,2*
G04 #@! TO.N,BACK*
X0001731535Y0001236240D03*
G04 #@! TO.P,J1,1*
G04 #@! TO.N,FORWARD*
X0001621692Y0001236240D03*
G04 #@! TO.P,J1,5*
G04 #@! TO.N,BT3*
X0002061850Y0001236240D03*
G04 #@! TD*
D55*
G04 #@! TO.P,JP1,1*
G04 #@! TO.N,Net-(JP1-Pad1)*
X0001606771Y0000756240D03*
D56*
G04 #@! TO.P,JP1,2*
G04 #@! TO.N,Net-(JP1-Pad2)*
X0001606771Y0000806240D03*
G04 #@! TO.P,JP1,3*
G04 #@! TO.N,RST*
X0001606771Y0000856240D03*
G04 #@! TD*
D57*
G04 #@! TO.P,D1,1*
G04 #@! TO.N,RST*
X0001671811Y0001048740D03*
G04 #@! TO.P,D1,2*
G04 #@! TO.N,Net-(D1-Pad2)*
X0001801732Y0001048740D03*
G04 #@! TD*
D58*
G04 #@! TO.N,VCC*
X0001606771Y0000653740D03*
X0001571771Y0001066240D03*
X0001961771Y0000456240D03*
X0001711771Y0000863740D03*
X0001936771Y0000313740D03*
X0001811771Y0000188740D03*
G04 #@! TO.N,GND*
X0001576771Y0000358740D03*
X0002041771Y0000978740D03*
X0001991771Y0001098740D03*
X0001874271Y0000631240D03*
X0002081771Y0000863740D03*
X0002026771Y0000743740D03*
X0001621771Y0000458740D03*
X0001716771Y0000458740D03*
G04 #@! TO.N,THR*
X0001686771Y0000333740D03*
X0001786771Y0000333740D03*
X0001661771Y0000458740D03*
G04 #@! TO.N,Net-(U1-Pad3)*
X0001686771Y0000293740D03*
X0001561771Y0000418740D03*
X0001791771Y0000623740D03*
G04 #@! TO.N,RST*
X0001751771Y0000628740D03*
G04 #@! TO.N,Net-(C1-Pad1)*
X0001786771Y0000288740D03*
X0001891771Y0000458740D03*
G04 #@! TO.N,Net-(U2-Pad10)*
X0001956771Y0000628740D03*
G04 #@! TO.N,Net-(U2-Pad7)*
X0001976771Y0000863740D03*
G04 #@! TO.N,Net-(U2-Pad4)*
X0001826771Y0000863740D03*
G04 #@! TO.N,Net-(U2-Pad3)*
X0001746771Y0000793740D03*
G04 #@! TO.N,Net-(U2-Pad2)*
X0001776771Y0000863740D03*
G04 #@! TO.N,RIGHT*
X0001941771Y0001066240D03*
X0001666771Y0000978740D03*
G04 #@! TO.N,BT3*
X0001716771Y0000163740D03*
G04 #@! TO.N,BT1*
X0001876771Y0001053740D03*
G04 #@! TO.N,Net-(R1-Pad1)*
X0001726771Y0000743740D03*
X0001706771Y0000628740D03*
G04 #@! TO.N,Net-(R3-Pad1)*
X0002001771Y0000348740D03*
X0001796771Y0000458740D03*
X0001911771Y0000348740D03*
G04 #@! TO.N,Net-(JP1-Pad1)*
X0002079271Y0000201240D03*
G04 #@! TO.N,Net-(Q2-Pad1)*
X0001966771Y0000198740D03*
G04 #@! TO.N,Net-(D1-Pad2)*
X0001831771Y0000983740D03*
G04 #@! TD*
D59*
G04 #@! TO.N,Net-(U3-Pad7)*
X0002026771Y0000676240D02*
X0002026771Y0000673740D01*
X0002026771Y0000673740D02*
X0002031771Y0000678740D01*
X0002026771Y0000688740D02*
X0002026771Y0000676240D01*
G04 #@! TO.N,VCC*
X0001606771Y0000688740D02*
X0001606771Y0000653740D01*
X0001571771Y0000723740D02*
X0001606771Y0000688740D01*
X0001571771Y0001066240D02*
X0001571771Y0000723740D01*
X0001960622Y0000455090D02*
X0001960622Y0000413740D01*
X0001961771Y0000456240D02*
X0001960622Y0000455090D01*
X0001696771Y0000888740D02*
X0001711771Y0000873740D01*
X0001711771Y0000873740D02*
X0001711771Y0000863740D01*
X0001843070Y0000399740D02*
X0001841771Y0000398740D01*
X0001841771Y0000398740D02*
X0001861771Y0000398740D01*
X0001861771Y0000398740D02*
X0001881771Y0000378740D01*
X0001881771Y0000378740D02*
X0001911771Y0000378740D01*
X0001691771Y0000188740D02*
X0001631771Y0000248740D01*
X0001631771Y0000248740D02*
X0001630472Y0000249740D01*
X0001843070Y0000399740D02*
X0001841771Y0000398740D01*
X0001841771Y0000398740D02*
X0001946771Y0000398740D01*
X0001946771Y0000398740D02*
X0001961771Y0000413740D01*
X0001961771Y0000413740D02*
X0001960622Y0000413740D01*
X0001911771Y0000378740D02*
X0001916771Y0000373740D01*
X0001916771Y0000373740D02*
X0001926771Y0000373740D01*
X0001926771Y0000373740D02*
X0001936771Y0000363740D01*
X0001936771Y0000363740D02*
X0001936771Y0000313740D01*
X0001811771Y0000188740D02*
X0001691771Y0000188740D01*
G04 #@! TO.N,GND*
X0001587771Y0000399740D02*
X0001630472Y0000399740D01*
X0001576771Y0000388740D02*
X0001587771Y0000399740D01*
X0001576771Y0000358740D02*
X0001576771Y0000388740D01*
X0002041771Y0000978740D02*
X0001991771Y0001028740D01*
X0001991771Y0001028740D02*
X0001991771Y0001098740D01*
X0001857559Y0000519740D02*
X0001857559Y0000532027D01*
X0001857559Y0000532027D02*
X0001874271Y0000548740D01*
X0001874271Y0000548740D02*
X0001874271Y0000631240D01*
X0002074271Y0000678740D02*
X0002076771Y0000678740D01*
X0002076771Y0000678740D02*
X0002081771Y0000683740D01*
X0002081771Y0000683740D02*
X0002081771Y0000863740D01*
X0001857559Y0000519740D02*
X0001856771Y0000518740D01*
X0002026771Y0000743740D02*
X0002076771Y0000693740D01*
X0002076771Y0000693740D02*
X0002076771Y0000678740D01*
X0002076771Y0000678740D02*
X0002074271Y0000678740D01*
X0001630472Y0000399740D02*
X0001631771Y0000398740D01*
X0001631771Y0000398740D02*
X0001621771Y0000408740D01*
X0001621771Y0000408740D02*
X0001621771Y0000458740D01*
X0001716771Y0000458740D02*
X0001756771Y0000498740D01*
X0001756771Y0000498740D02*
X0001756771Y0000518740D01*
X0001756771Y0000518740D02*
X0001755984Y0000519740D01*
X0001631771Y0000398740D02*
X0001630472Y0000399740D01*
X0001857559Y0000519740D02*
X0001856771Y0000518740D01*
X0001755984Y0000519740D02*
X0001756771Y0000518740D01*
X0001756771Y0000518740D02*
X0001856771Y0000518740D01*
X0001856771Y0000518740D02*
X0001857559Y0000519740D01*
G04 #@! TO.N,THR*
X0001630472Y0000349740D02*
X0001631771Y0000348740D01*
X0001631771Y0000348740D02*
X0001671771Y0000348740D01*
X0001671771Y0000348740D02*
X0001686771Y0000333740D01*
X0001786771Y0000333740D02*
X0001796771Y0000323740D01*
X0001796771Y0000323740D02*
X0001816771Y0000323740D01*
X0001816771Y0000323740D02*
X0001841771Y0000298740D01*
X0001841771Y0000298740D02*
X0001843070Y0000299740D01*
X0001657559Y0000519740D02*
X0001656771Y0000518740D01*
X0001656771Y0000518740D02*
X0001686771Y0000488740D01*
X0001686771Y0000488740D02*
X0001686771Y0000443740D01*
X0001686771Y0000443740D02*
X0001676771Y0000433740D01*
X0001676771Y0000433740D02*
X0001676771Y0000373740D01*
X0001676771Y0000373740D02*
X0001656771Y0000373740D01*
X0001656771Y0000373740D02*
X0001631771Y0000348740D01*
X0001631771Y0000348740D02*
X0001630472Y0000349740D01*
X0001657559Y0000519740D02*
X0001656771Y0000518740D01*
X0001656771Y0000518740D02*
X0001661771Y0000513740D01*
X0001661771Y0000513740D02*
X0001661771Y0000458740D01*
G04 #@! TO.N,Net-(U1-Pad3)*
X0001630472Y0000299740D02*
X0001631771Y0000298740D01*
X0001631771Y0000298740D02*
X0001681771Y0000298740D01*
X0001681771Y0000298740D02*
X0001686771Y0000293740D01*
X0001561771Y0000418740D02*
X0001596771Y0000453740D01*
X0001596771Y0000453740D02*
X0001596771Y0000473740D01*
X0001596771Y0000473740D02*
X0001611771Y0000488740D01*
X0001611771Y0000488740D02*
X0001611771Y0000558740D01*
X0001611771Y0000558740D02*
X0001726771Y0000558740D01*
X0001726771Y0000558740D02*
X0001791771Y0000623740D01*
X0001641771Y0000308740D02*
X0001631771Y0000298740D01*
X0001631771Y0000298740D02*
X0001630472Y0000299740D01*
G04 #@! TO.N,RST*
X0001671811Y0001048740D02*
X0001641771Y0001048740D01*
X0001606771Y0001013740D02*
X0001606771Y0000856240D01*
X0001641771Y0001048740D02*
X0001606771Y0001013740D01*
X0001751771Y0000628740D02*
X0001746771Y0000628740D01*
X0001746771Y0000628740D02*
X0001721771Y0000603740D01*
X0001721771Y0000603740D02*
X0001691771Y0000603740D01*
X0001691771Y0000603740D02*
X0001641771Y0000653740D01*
X0001641771Y0000653740D02*
X0001641771Y0000838740D01*
X0001641771Y0000838740D02*
X0001621771Y0000838740D01*
X0001621771Y0000838740D02*
X0001606771Y0000853740D01*
X0001606771Y0000853740D02*
X0001606771Y0000856240D01*
G04 #@! TO.N,Net-(C1-Pad1)*
X0001843070Y0000249740D02*
X0001841771Y0000248740D01*
X0001841771Y0000248740D02*
X0001821771Y0000248740D01*
X0001821771Y0000248740D02*
X0001786771Y0000283740D01*
X0001786771Y0000283740D02*
X0001786771Y0000288740D01*
X0001891771Y0000458740D02*
X0001896771Y0000458740D01*
X0001896771Y0000458740D02*
X0001956771Y0000518740D01*
X0001956771Y0000518740D02*
X0001955984Y0000519740D01*
G04 #@! TO.N,Net-(U2-Pad10)*
X0001956771Y0000628740D02*
X0001926771Y0000658740D01*
X0001926771Y0000658740D02*
X0001926771Y0000678740D01*
X0001926771Y0000678740D02*
X0001924271Y0000678740D01*
G04 #@! TO.N,Net-(U2-Pad7)*
X0001874271Y0000678740D02*
X0001876771Y0000678740D01*
X0001876771Y0000678740D02*
X0001896771Y0000698740D01*
X0001896771Y0000698740D02*
X0001896771Y0000718740D01*
X0001896771Y0000718740D02*
X0001976771Y0000798740D01*
X0001976771Y0000798740D02*
X0001976771Y0000863740D01*
X0001876771Y0000663740D02*
X0001876771Y0000676240D01*
G04 #@! TO.N,Net-(U2-Pad4)*
X0001826771Y0000863740D02*
X0001826771Y0000678740D01*
X0001826771Y0000678740D02*
X0001824271Y0000678740D01*
G04 #@! TO.N,Net-(U2-Pad3)*
X0001746771Y0000793740D02*
X0001751771Y0000788740D01*
X0001751771Y0000788740D02*
X0001751771Y0000728740D01*
X0001751771Y0000728740D02*
X0001726771Y0000703740D01*
X0001726771Y0000703740D02*
X0001726771Y0000678740D01*
X0001726771Y0000678740D02*
X0001724271Y0000678740D01*
G04 #@! TO.N,Net-(U2-Pad2)*
X0001776771Y0000863740D02*
X0001776771Y0000678740D01*
X0001776771Y0000678740D02*
X0001774271Y0000678740D01*
G04 #@! TO.N,RIGHT*
X0001941771Y0001066240D02*
X0001941771Y0001101240D01*
X0001666771Y0000978740D02*
X0001671771Y0000973740D01*
X0001671771Y0000973740D02*
X0001671771Y0000878740D01*
X0001671771Y0000878740D02*
X0001676771Y0000873740D01*
X0001676771Y0000873740D02*
X0001676771Y0000868740D01*
X0001676771Y0000868740D02*
X0001686771Y0000858740D01*
X0001686771Y0000858740D02*
X0001686771Y0000848740D01*
X0001686771Y0000848740D02*
X0001696771Y0000838740D01*
X0001696771Y0000838740D02*
X0001726771Y0000838740D01*
X0001726771Y0000838740D02*
X0001751771Y0000863740D01*
X0001751771Y0000863740D02*
X0001751771Y0000878740D01*
X0001751771Y0000878740D02*
X0001776771Y0000903740D01*
X0001776771Y0000928740D02*
X0001776771Y0000903740D01*
X0001951614Y0001111082D02*
X0001951614Y0001236240D01*
X0001941771Y0001101240D02*
X0001951614Y0001111082D01*
X0001966614Y0001233740D02*
X0001966771Y0001233740D01*
X0001776771Y0000928740D02*
X0001774271Y0000928740D01*
X0001966614Y0001233740D02*
X0001966771Y0001233740D01*
X0001966771Y0001233740D02*
X0001951771Y0001218740D01*
X0001776771Y0000926240D02*
X0001776771Y0000923740D01*
G04 #@! TO.N,LEFT*
X0001841771Y0001236240D02*
X0001841771Y0001028740D01*
X0001874271Y0000996240D02*
X0001874271Y0000928740D01*
X0001841771Y0001028740D02*
X0001874271Y0000996240D01*
X0001856771Y0001233740D02*
X0001876771Y0001213740D01*
X0001876771Y0000928740D02*
X0001874271Y0000928740D01*
X0001856771Y0001233740D02*
X0001826771Y0001203740D01*
X0001876771Y0000926240D02*
X0001876771Y0000923740D01*
G04 #@! TO.N,BACK*
X0001746771Y0001023740D02*
X0001746771Y0001111240D01*
X0001801771Y0000968740D02*
X0001746771Y0001023740D01*
X0001801771Y0000953740D02*
X0001801771Y0000968740D01*
X0001826771Y0000928740D02*
X0001801771Y0000953740D01*
X0001731535Y0001126476D02*
X0001731535Y0001236240D01*
X0001746771Y0001111240D02*
X0001731535Y0001126476D01*
X0001824271Y0000928740D02*
X0001826771Y0000928740D01*
X0001746771Y0001233740D02*
X0001746535Y0001233740D01*
X0001746771Y0001233740D02*
X0001746535Y0001233740D01*
G04 #@! TO.N,FORWARD*
X0001724271Y0000928740D02*
X0001724271Y0001086240D01*
X0001621692Y0001116318D02*
X0001621692Y0001236240D01*
X0001636771Y0001101240D02*
X0001621692Y0001116318D01*
X0001709271Y0001101240D02*
X0001636771Y0001101240D01*
X0001724271Y0001086240D02*
X0001709271Y0001101240D01*
X0001636692Y0001233740D02*
X0001636771Y0001233740D01*
X0001726771Y0000928740D02*
X0001724271Y0000928740D01*
X0001636771Y0001233740D02*
X0001636692Y0001233740D01*
G04 #@! TO.N,BT3*
X0002061850Y0001236240D02*
X0002061850Y0001083661D01*
X0001716771Y0000123740D02*
X0001716771Y0000163740D01*
X0001756771Y0000083740D02*
X0001716771Y0000123740D01*
X0002041771Y0000083740D02*
X0001756771Y0000083740D01*
X0002061850Y0001083661D02*
X0002131771Y0001013740D01*
X0002076850Y0001233740D02*
X0002076771Y0001233740D01*
X0002076850Y0001233740D02*
X0002076771Y0001233740D01*
X0002131771Y0000173740D02*
X0002041771Y0000083740D01*
X0002131771Y0001013740D02*
X0002131771Y0000173740D01*
G04 #@! TO.N,BT1*
X0001876771Y0001053740D02*
X0001879271Y0001053740D01*
X0001924271Y0001008740D02*
X0001924271Y0000928740D01*
X0001879271Y0001053740D02*
X0001924271Y0001008740D01*
X0001926771Y0000948740D02*
X0001926771Y0000928740D01*
X0001926771Y0000928740D02*
X0001924271Y0000928740D01*
G04 #@! TO.N,Net-(R1-Pad1)*
X0001726771Y0000743740D02*
X0001701771Y0000718740D01*
X0001701771Y0000718740D02*
X0001696771Y0000718740D01*
X0001696771Y0000718740D02*
X0001696771Y0000638740D01*
X0001696771Y0000638740D02*
X0001706771Y0000628740D01*
G04 #@! TO.N,Net-(R3-Pad1)*
X0002001771Y0000348740D02*
X0002066771Y0000413740D01*
X0001796771Y0000458740D02*
X0001796771Y0000373740D01*
X0001796771Y0000373740D02*
X0001816771Y0000373740D01*
X0001816771Y0000373740D02*
X0001841771Y0000348740D01*
X0001841771Y0000348740D02*
X0001843070Y0000349740D01*
X0001843070Y0000349740D02*
X0001841771Y0000348740D01*
X0001841771Y0000348740D02*
X0001911771Y0000348740D01*
X0002066771Y0000413740D02*
X0002066921Y0000413740D01*
G04 #@! TO.N,Net-(JP1-Pad1)*
X0002068921Y0000211590D02*
X0002068921Y0000247740D01*
X0002068921Y0000247740D02*
X0002066771Y0000248740D01*
X0002066771Y0000248740D02*
X0002051771Y0000263740D01*
X0002079271Y0000201240D02*
X0002068921Y0000211590D01*
G04 #@! TO.N,Net-(Q2-Pad1)*
X0001962622Y0000247740D02*
X0001962622Y0000202889D01*
X0001962622Y0000202889D02*
X0001966771Y0000198740D01*
X0001962622Y0000247740D02*
X0001961771Y0000248740D01*
G04 #@! TO.N,Net-(D1-Pad2)*
X0001801732Y0001013779D02*
X0001801732Y0001048740D01*
X0001831771Y0000983740D02*
X0001801732Y0001013779D01*
G04 #@! TD*
G04 next file*
G04 #@! TF.GenerationSoftware,KiCad,Pcbnew,(5.0.2)-1*
G04 #@! TF.CreationDate,2019-07-10T16:32:42+02:00*
G04 #@! TF.ProjectId,joystick tester systest,6a6f7973-7469-4636-9b20-746573746572,rev?*
G04 #@! TF.SameCoordinates,Original*
G04 #@! TF.FileFunction,Copper,L1,Top*
G04 #@! TF.FilePolarity,Positive*
G04 Gerber Fmt 4.6, Leading zero omitted, Abs format (unit mm)*
G04 Created by KiCad (PCBNEW (5.0.2)-1) date 10-7-2019 16:32:42*
G01G01*
G04 APERTURE LIST*
G04 #@! TA.AperFunction,SMDPad,CuDef*
G04 #@! TD*
G04 #@! TA.AperFunction,SMDPad,CuDef*
G04 #@! TD*
G04 #@! TA.AperFunction,SMDPad,CuDef*
G04 #@! TD*
G04 #@! TA.AperFunction,SMDPad,CuDef*
G04 #@! TD*
G04 #@! TA.AperFunction,ConnectorPad*
G04 #@! TD*
G04 #@! TA.AperFunction,ComponentPad*
G04 #@! TD*
G04 #@! TA.AperFunction,ComponentPad*
G04 #@! TD*
G04 #@! TA.AperFunction,SMDPad,CuDef*
G04 #@! TD*
G04 #@! TA.AperFunction,ViaPad*
G04 #@! TD*
G04 #@! TA.AperFunction,Conductor*
G04 #@! TD*
G04 APERTURE END LIST*
D60*
G04 #@! TO.P,U3,16*
G04 #@! TO.N,FORWARD*
X-0003425196Y0005078740D02*
X0002472303Y0000928740D03*
G04 #@! TO.P,U3,14*
G04 #@! TO.N,BACK*
X0002572303Y0000928740D03*
G04 #@! TO.P,U3,13*
G04 #@! TO.N,LEFT*
X0002622303Y0000928740D03*
G04 #@! TO.P,U3,12*
G04 #@! TO.N,BT1*
X0002672303Y0000928740D03*
G04 #@! TO.P,U3,11*
G04 #@! TO.N,Net-(U3-Pad11)*
X0002722303Y0000928740D03*
G04 #@! TO.P,U3,10*
G04 #@! TO.N,Net-(U3-Pad10)*
X0002772303Y0000928740D03*
G04 #@! TO.P,U3,9*
G04 #@! TO.N,Net-(U3-Pad9)*
X0002822303Y0000928740D03*
G04 #@! TO.P,U3,8*
G04 #@! TO.N,GND*
X0002822303Y0000678740D03*
G04 #@! TO.P,U3,7*
G04 #@! TO.N,Net-(U3-Pad7)*
X0002772303Y0000678740D03*
G04 #@! TO.P,U3,6*
G04 #@! TO.N,Net-(U3-Pad6)*
X0002722303Y0000678740D03*
G04 #@! TO.P,U3,5*
G04 #@! TO.N,Net-(U2-Pad10)*
X0002672303Y0000678740D03*
G04 #@! TO.P,U3,4*
G04 #@! TO.N,Net-(U2-Pad7)*
X0002622303Y0000678740D03*
G04 #@! TO.P,U3,3*
G04 #@! TO.N,Net-(U2-Pad4)*
X0002572303Y0000678740D03*
G04 #@! TO.P,U3,2*
G04 #@! TO.N,Net-(U2-Pad2)*
X0002522303Y0000678740D03*
G04 #@! TO.P,U3,1*
G04 #@! TO.N,Net-(U2-Pad3)*
X0002472303Y0000678740D03*
G04 #@! TO.P,U3,15*
G04 #@! TO.N,RIGHT*
X0002522303Y0000928740D03*
G04 #@! TD*
D61*
G04 #@! TO.P,U1,1*
G04 #@! TO.N,GND*
X0002378503Y0000399740D03*
G04 #@! TO.P,U1,2*
G04 #@! TO.N,THR*
X0002378503Y0000349740D03*
G04 #@! TO.P,U1,3*
G04 #@! TO.N,Net-(U1-Pad3)*
X0002378503Y0000299740D03*
G04 #@! TO.P,U1,4*
G04 #@! TO.N,VCC*
X0002378503Y0000249740D03*
G04 #@! TO.P,U1,5*
G04 #@! TO.N,Net-(C1-Pad1)*
X0002591102Y0000249740D03*
G04 #@! TO.P,U1,6*
G04 #@! TO.N,THR*
X0002591102Y0000299740D03*
G04 #@! TO.P,U1,7*
G04 #@! TO.N,Net-(R3-Pad1)*
X0002591102Y0000349740D03*
G04 #@! TO.P,U1,8*
G04 #@! TO.N,VCC*
X0002591102Y0000399740D03*
G04 #@! TD*
D62*
G04 #@! TO.P,R2,1*
G04 #@! TO.N,Net-(JP1-Pad1)*
X0002816952Y0000247740D03*
G04 #@! TO.P,R2,2*
G04 #@! TO.N,Net-(Q2-Pad1)*
X0002710653Y0000247740D03*
G04 #@! TD*
G04 #@! TO.P,R4,1*
G04 #@! TO.N,VCC*
X0002708653Y0000413740D03*
G04 #@! TO.P,R4,2*
G04 #@! TO.N,Net-(R3-Pad1)*
X0002814952Y0000413740D03*
G04 #@! TD*
D63*
G04 #@! TO.P,C1,1*
G04 #@! TO.N,Net-(C1-Pad1)*
X0002704015Y0000519740D03*
G04 #@! TO.P,C1,2*
G04 #@! TO.N,GND*
X0002605590Y0000519740D03*
G04 #@! TD*
G04 #@! TO.P,C2,1*
G04 #@! TO.N,THR*
X0002405590Y0000519740D03*
G04 #@! TO.P,C2,2*
G04 #@! TO.N,GND*
X0002504015Y0000519740D03*
G04 #@! TD*
D64*
G04 #@! TO.P,J1,4*
G04 #@! TO.N,RIGHT*
X0002699645Y0001236240D03*
G04 #@! TO.P,J1,3*
G04 #@! TO.N,LEFT*
X0002589803Y0001236240D03*
G04 #@! TO.P,J1,2*
G04 #@! TO.N,BACK*
X0002479566Y0001236240D03*
G04 #@! TO.P,J1,1*
G04 #@! TO.N,FORWARD*
X0002369724Y0001236240D03*
G04 #@! TO.P,J1,5*
G04 #@! TO.N,BT3*
X0002809881Y0001236240D03*
G04 #@! TD*
D65*
G04 #@! TO.P,JP1,1*
G04 #@! TO.N,Net-(JP1-Pad1)*
X0002354803Y0000756240D03*
D66*
G04 #@! TO.P,JP1,2*
G04 #@! TO.N,Net-(JP1-Pad2)*
X0002354803Y0000806240D03*
G04 #@! TO.P,JP1,3*
G04 #@! TO.N,RST*
X0002354803Y0000856240D03*
G04 #@! TD*
D67*
G04 #@! TO.P,D1,1*
G04 #@! TO.N,RST*
X0002419842Y0001048740D03*
G04 #@! TO.P,D1,2*
G04 #@! TO.N,Net-(D1-Pad2)*
X0002549763Y0001048740D03*
G04 #@! TD*
D68*
G04 #@! TO.N,VCC*
X0002354803Y0000653740D03*
X0002319803Y0001066240D03*
X0002709803Y0000456240D03*
X0002459803Y0000863740D03*
X0002684803Y0000313740D03*
X0002559803Y0000188740D03*
G04 #@! TO.N,GND*
X0002324803Y0000358740D03*
X0002789803Y0000978740D03*
X0002739803Y0001098740D03*
X0002622303Y0000631240D03*
X0002829803Y0000863740D03*
X0002774803Y0000743740D03*
X0002369803Y0000458740D03*
X0002464803Y0000458740D03*
G04 #@! TO.N,THR*
X0002434803Y0000333740D03*
X0002534803Y0000333740D03*
X0002409803Y0000458740D03*
G04 #@! TO.N,Net-(U1-Pad3)*
X0002434803Y0000293740D03*
X0002309803Y0000418740D03*
X0002539803Y0000623740D03*
G04 #@! TO.N,RST*
X0002499803Y0000628740D03*
G04 #@! TO.N,Net-(C1-Pad1)*
X0002534803Y0000288740D03*
X0002639803Y0000458740D03*
G04 #@! TO.N,Net-(U2-Pad10)*
X0002704803Y0000628740D03*
G04 #@! TO.N,Net-(U2-Pad7)*
X0002724803Y0000863740D03*
G04 #@! TO.N,Net-(U2-Pad4)*
X0002574803Y0000863740D03*
G04 #@! TO.N,Net-(U2-Pad3)*
X0002494803Y0000793740D03*
G04 #@! TO.N,Net-(U2-Pad2)*
X0002524803Y0000863740D03*
G04 #@! TO.N,RIGHT*
X0002689803Y0001066240D03*
X0002414803Y0000978740D03*
G04 #@! TO.N,BT3*
X0002464803Y0000163740D03*
G04 #@! TO.N,BT1*
X0002624803Y0001053740D03*
G04 #@! TO.N,Net-(R1-Pad1)*
X0002474803Y0000743740D03*
X0002454803Y0000628740D03*
G04 #@! TO.N,Net-(R3-Pad1)*
X0002749803Y0000348740D03*
X0002544803Y0000458740D03*
X0002659803Y0000348740D03*
G04 #@! TO.N,Net-(JP1-Pad1)*
X0002827303Y0000201240D03*
G04 #@! TO.N,Net-(Q2-Pad1)*
X0002714803Y0000198740D03*
G04 #@! TO.N,Net-(D1-Pad2)*
X0002579803Y0000983740D03*
G04 #@! TD*
D69*
G04 #@! TO.N,Net-(U3-Pad7)*
X0002774803Y0000676240D02*
X0002774803Y0000673740D01*
X0002774803Y0000673740D02*
X0002779803Y0000678740D01*
X0002774803Y0000688740D02*
X0002774803Y0000676240D01*
G04 #@! TO.N,VCC*
X0002354803Y0000688740D02*
X0002354803Y0000653740D01*
X0002319803Y0000723740D02*
X0002354803Y0000688740D01*
X0002319803Y0001066240D02*
X0002319803Y0000723740D01*
X0002708653Y0000455090D02*
X0002708653Y0000413740D01*
X0002709803Y0000456240D02*
X0002708653Y0000455090D01*
X0002444803Y0000888740D02*
X0002459803Y0000873740D01*
X0002459803Y0000873740D02*
X0002459803Y0000863740D01*
X0002591102Y0000399740D02*
X0002589803Y0000398740D01*
X0002589803Y0000398740D02*
X0002609803Y0000398740D01*
X0002609803Y0000398740D02*
X0002629803Y0000378740D01*
X0002629803Y0000378740D02*
X0002659803Y0000378740D01*
X0002439803Y0000188740D02*
X0002379803Y0000248740D01*
X0002379803Y0000248740D02*
X0002378503Y0000249740D01*
X0002591102Y0000399740D02*
X0002589803Y0000398740D01*
X0002589803Y0000398740D02*
X0002694803Y0000398740D01*
X0002694803Y0000398740D02*
X0002709803Y0000413740D01*
X0002709803Y0000413740D02*
X0002708653Y0000413740D01*
X0002659803Y0000378740D02*
X0002664803Y0000373740D01*
X0002664803Y0000373740D02*
X0002674803Y0000373740D01*
X0002674803Y0000373740D02*
X0002684803Y0000363740D01*
X0002684803Y0000363740D02*
X0002684803Y0000313740D01*
X0002559803Y0000188740D02*
X0002439803Y0000188740D01*
G04 #@! TO.N,GND*
X0002335803Y0000399740D02*
X0002378503Y0000399740D01*
X0002324803Y0000388740D02*
X0002335803Y0000399740D01*
X0002324803Y0000358740D02*
X0002324803Y0000388740D01*
X0002789803Y0000978740D02*
X0002739803Y0001028740D01*
X0002739803Y0001028740D02*
X0002739803Y0001098740D01*
X0002605590Y0000519740D02*
X0002605590Y0000532027D01*
X0002605590Y0000532027D02*
X0002622303Y0000548740D01*
X0002622303Y0000548740D02*
X0002622303Y0000631240D01*
X0002822303Y0000678740D02*
X0002824803Y0000678740D01*
X0002824803Y0000678740D02*
X0002829803Y0000683740D01*
X0002829803Y0000683740D02*
X0002829803Y0000863740D01*
X0002605590Y0000519740D02*
X0002604803Y0000518740D01*
X0002774803Y0000743740D02*
X0002824803Y0000693740D01*
X0002824803Y0000693740D02*
X0002824803Y0000678740D01*
X0002824803Y0000678740D02*
X0002822303Y0000678740D01*
X0002378503Y0000399740D02*
X0002379803Y0000398740D01*
X0002379803Y0000398740D02*
X0002369803Y0000408740D01*
X0002369803Y0000408740D02*
X0002369803Y0000458740D01*
X0002464803Y0000458740D02*
X0002504803Y0000498740D01*
X0002504803Y0000498740D02*
X0002504803Y0000518740D01*
X0002504803Y0000518740D02*
X0002504015Y0000519740D01*
X0002379803Y0000398740D02*
X0002378503Y0000399740D01*
X0002605590Y0000519740D02*
X0002604803Y0000518740D01*
X0002504015Y0000519740D02*
X0002504803Y0000518740D01*
X0002504803Y0000518740D02*
X0002604803Y0000518740D01*
X0002604803Y0000518740D02*
X0002605590Y0000519740D01*
G04 #@! TO.N,THR*
X0002378503Y0000349740D02*
X0002379803Y0000348740D01*
X0002379803Y0000348740D02*
X0002419803Y0000348740D01*
X0002419803Y0000348740D02*
X0002434803Y0000333740D01*
X0002534803Y0000333740D02*
X0002544803Y0000323740D01*
X0002544803Y0000323740D02*
X0002564803Y0000323740D01*
X0002564803Y0000323740D02*
X0002589803Y0000298740D01*
X0002589803Y0000298740D02*
X0002591102Y0000299740D01*
X0002405590Y0000519740D02*
X0002404803Y0000518740D01*
X0002404803Y0000518740D02*
X0002434803Y0000488740D01*
X0002434803Y0000488740D02*
X0002434803Y0000443740D01*
X0002434803Y0000443740D02*
X0002424803Y0000433740D01*
X0002424803Y0000433740D02*
X0002424803Y0000373740D01*
X0002424803Y0000373740D02*
X0002404803Y0000373740D01*
X0002404803Y0000373740D02*
X0002379803Y0000348740D01*
X0002379803Y0000348740D02*
X0002378503Y0000349740D01*
X0002405590Y0000519740D02*
X0002404803Y0000518740D01*
X0002404803Y0000518740D02*
X0002409803Y0000513740D01*
X0002409803Y0000513740D02*
X0002409803Y0000458740D01*
G04 #@! TO.N,Net-(U1-Pad3)*
X0002378503Y0000299740D02*
X0002379803Y0000298740D01*
X0002379803Y0000298740D02*
X0002429803Y0000298740D01*
X0002429803Y0000298740D02*
X0002434803Y0000293740D01*
X0002309803Y0000418740D02*
X0002344803Y0000453740D01*
X0002344803Y0000453740D02*
X0002344803Y0000473740D01*
X0002344803Y0000473740D02*
X0002359803Y0000488740D01*
X0002359803Y0000488740D02*
X0002359803Y0000558740D01*
X0002359803Y0000558740D02*
X0002474803Y0000558740D01*
X0002474803Y0000558740D02*
X0002539803Y0000623740D01*
X0002389803Y0000308740D02*
X0002379803Y0000298740D01*
X0002379803Y0000298740D02*
X0002378503Y0000299740D01*
G04 #@! TO.N,RST*
X0002419842Y0001048740D02*
X0002389803Y0001048740D01*
X0002354803Y0001013740D02*
X0002354803Y0000856240D01*
X0002389803Y0001048740D02*
X0002354803Y0001013740D01*
X0002499803Y0000628740D02*
X0002494803Y0000628740D01*
X0002494803Y0000628740D02*
X0002469803Y0000603740D01*
X0002469803Y0000603740D02*
X0002439803Y0000603740D01*
X0002439803Y0000603740D02*
X0002389803Y0000653740D01*
X0002389803Y0000653740D02*
X0002389803Y0000838740D01*
X0002389803Y0000838740D02*
X0002369803Y0000838740D01*
X0002369803Y0000838740D02*
X0002354803Y0000853740D01*
X0002354803Y0000853740D02*
X0002354803Y0000856240D01*
G04 #@! TO.N,Net-(C1-Pad1)*
X0002591102Y0000249740D02*
X0002589803Y0000248740D01*
X0002589803Y0000248740D02*
X0002569803Y0000248740D01*
X0002569803Y0000248740D02*
X0002534803Y0000283740D01*
X0002534803Y0000283740D02*
X0002534803Y0000288740D01*
X0002639803Y0000458740D02*
X0002644803Y0000458740D01*
X0002644803Y0000458740D02*
X0002704803Y0000518740D01*
X0002704803Y0000518740D02*
X0002704015Y0000519740D01*
G04 #@! TO.N,Net-(U2-Pad10)*
X0002704803Y0000628740D02*
X0002674803Y0000658740D01*
X0002674803Y0000658740D02*
X0002674803Y0000678740D01*
X0002674803Y0000678740D02*
X0002672303Y0000678740D01*
G04 #@! TO.N,Net-(U2-Pad7)*
X0002622303Y0000678740D02*
X0002624803Y0000678740D01*
X0002624803Y0000678740D02*
X0002644803Y0000698740D01*
X0002644803Y0000698740D02*
X0002644803Y0000718740D01*
X0002644803Y0000718740D02*
X0002724803Y0000798740D01*
X0002724803Y0000798740D02*
X0002724803Y0000863740D01*
X0002624803Y0000663740D02*
X0002624803Y0000676240D01*
G04 #@! TO.N,Net-(U2-Pad4)*
X0002574803Y0000863740D02*
X0002574803Y0000678740D01*
X0002574803Y0000678740D02*
X0002572303Y0000678740D01*
G04 #@! TO.N,Net-(U2-Pad3)*
X0002494803Y0000793740D02*
X0002499803Y0000788740D01*
X0002499803Y0000788740D02*
X0002499803Y0000728740D01*
X0002499803Y0000728740D02*
X0002474803Y0000703740D01*
X0002474803Y0000703740D02*
X0002474803Y0000678740D01*
X0002474803Y0000678740D02*
X0002472303Y0000678740D01*
G04 #@! TO.N,Net-(U2-Pad2)*
X0002524803Y0000863740D02*
X0002524803Y0000678740D01*
X0002524803Y0000678740D02*
X0002522303Y0000678740D01*
G04 #@! TO.N,RIGHT*
X0002689803Y0001066240D02*
X0002689803Y0001101240D01*
X0002414803Y0000978740D02*
X0002419803Y0000973740D01*
X0002419803Y0000973740D02*
X0002419803Y0000878740D01*
X0002419803Y0000878740D02*
X0002424803Y0000873740D01*
X0002424803Y0000873740D02*
X0002424803Y0000868740D01*
X0002424803Y0000868740D02*
X0002434803Y0000858740D01*
X0002434803Y0000858740D02*
X0002434803Y0000848740D01*
X0002434803Y0000848740D02*
X0002444803Y0000838740D01*
X0002444803Y0000838740D02*
X0002474803Y0000838740D01*
X0002474803Y0000838740D02*
X0002499803Y0000863740D01*
X0002499803Y0000863740D02*
X0002499803Y0000878740D01*
X0002499803Y0000878740D02*
X0002524803Y0000903740D01*
X0002524803Y0000928740D02*
X0002524803Y0000903740D01*
X0002699645Y0001111082D02*
X0002699645Y0001236240D01*
X0002689803Y0001101240D02*
X0002699645Y0001111082D01*
X0002714645Y0001233740D02*
X0002714803Y0001233740D01*
X0002524803Y0000928740D02*
X0002522303Y0000928740D01*
X0002714645Y0001233740D02*
X0002714803Y0001233740D01*
X0002714803Y0001233740D02*
X0002699803Y0001218740D01*
X0002524803Y0000926240D02*
X0002524803Y0000923740D01*
G04 #@! TO.N,LEFT*
X0002589803Y0001236240D02*
X0002589803Y0001028740D01*
X0002622303Y0000996240D02*
X0002622303Y0000928740D01*
X0002589803Y0001028740D02*
X0002622303Y0000996240D01*
X0002604803Y0001233740D02*
X0002624803Y0001213740D01*
X0002624803Y0000928740D02*
X0002622303Y0000928740D01*
X0002604803Y0001233740D02*
X0002574803Y0001203740D01*
X0002624803Y0000926240D02*
X0002624803Y0000923740D01*
G04 #@! TO.N,BACK*
X0002494803Y0001023740D02*
X0002494803Y0001111240D01*
X0002549803Y0000968740D02*
X0002494803Y0001023740D01*
X0002549803Y0000953740D02*
X0002549803Y0000968740D01*
X0002574803Y0000928740D02*
X0002549803Y0000953740D01*
X0002479566Y0001126476D02*
X0002479566Y0001236240D01*
X0002494803Y0001111240D02*
X0002479566Y0001126476D01*
X0002572303Y0000928740D02*
X0002574803Y0000928740D01*
X0002494803Y0001233740D02*
X0002494566Y0001233740D01*
X0002494803Y0001233740D02*
X0002494566Y0001233740D01*
G04 #@! TO.N,FORWARD*
X0002472303Y0000928740D02*
X0002472303Y0001086240D01*
X0002369724Y0001116318D02*
X0002369724Y0001236240D01*
X0002384803Y0001101240D02*
X0002369724Y0001116318D01*
X0002457303Y0001101240D02*
X0002384803Y0001101240D01*
X0002472303Y0001086240D02*
X0002457303Y0001101240D01*
X0002384724Y0001233740D02*
X0002384803Y0001233740D01*
X0002474803Y0000928740D02*
X0002472303Y0000928740D01*
X0002384803Y0001233740D02*
X0002384724Y0001233740D01*
G04 #@! TO.N,BT3*
X0002809881Y0001236240D02*
X0002809881Y0001083661D01*
X0002464803Y0000123740D02*
X0002464803Y0000163740D01*
X0002504803Y0000083740D02*
X0002464803Y0000123740D01*
X0002789803Y0000083740D02*
X0002504803Y0000083740D01*
X0002809881Y0001083661D02*
X0002879803Y0001013740D01*
X0002824881Y0001233740D02*
X0002824803Y0001233740D01*
X0002824881Y0001233740D02*
X0002824803Y0001233740D01*
X0002879803Y0000173740D02*
X0002789803Y0000083740D01*
X0002879803Y0001013740D02*
X0002879803Y0000173740D01*
G04 #@! TO.N,BT1*
X0002624803Y0001053740D02*
X0002627303Y0001053740D01*
X0002672303Y0001008740D02*
X0002672303Y0000928740D01*
X0002627303Y0001053740D02*
X0002672303Y0001008740D01*
X0002674803Y0000948740D02*
X0002674803Y0000928740D01*
X0002674803Y0000928740D02*
X0002672303Y0000928740D01*
G04 #@! TO.N,Net-(R1-Pad1)*
X0002474803Y0000743740D02*
X0002449803Y0000718740D01*
X0002449803Y0000718740D02*
X0002444803Y0000718740D01*
X0002444803Y0000718740D02*
X0002444803Y0000638740D01*
X0002444803Y0000638740D02*
X0002454803Y0000628740D01*
G04 #@! TO.N,Net-(R3-Pad1)*
X0002749803Y0000348740D02*
X0002814803Y0000413740D01*
X0002544803Y0000458740D02*
X0002544803Y0000373740D01*
X0002544803Y0000373740D02*
X0002564803Y0000373740D01*
X0002564803Y0000373740D02*
X0002589803Y0000348740D01*
X0002589803Y0000348740D02*
X0002591102Y0000349740D01*
X0002591102Y0000349740D02*
X0002589803Y0000348740D01*
X0002589803Y0000348740D02*
X0002659803Y0000348740D01*
X0002814803Y0000413740D02*
X0002814952Y0000413740D01*
G04 #@! TO.N,Net-(JP1-Pad1)*
X0002816952Y0000211590D02*
X0002816952Y0000247740D01*
X0002816952Y0000247740D02*
X0002814803Y0000248740D01*
X0002814803Y0000248740D02*
X0002799803Y0000263740D01*
X0002827303Y0000201240D02*
X0002816952Y0000211590D01*
G04 #@! TO.N,Net-(Q2-Pad1)*
X0002710653Y0000247740D02*
X0002710653Y0000202889D01*
X0002710653Y0000202889D02*
X0002714803Y0000198740D01*
X0002710653Y0000247740D02*
X0002709803Y0000248740D01*
G04 #@! TO.N,Net-(D1-Pad2)*
X0002549763Y0001013779D02*
X0002549763Y0001048740D01*
X0002579803Y0000983740D02*
X0002549763Y0001013779D01*
G04 #@! TD*
G04 next file*
G04 #@! TF.GenerationSoftware,KiCad,Pcbnew,(5.0.2)-1*
G04 #@! TF.CreationDate,2019-07-10T16:32:42+02:00*
G04 #@! TF.ProjectId,joystick tester systest,6a6f7973-7469-4636-9b20-746573746572,rev?*
G04 #@! TF.SameCoordinates,Original*
G04 #@! TF.FileFunction,Copper,L1,Top*
G04 #@! TF.FilePolarity,Positive*
G04 Gerber Fmt 4.6, Leading zero omitted, Abs format (unit mm)*
G04 Created by KiCad (PCBNEW (5.0.2)-1) date 10-7-2019 16:32:42*
G01G01*
G04 APERTURE LIST*
G04 #@! TA.AperFunction,SMDPad,CuDef*
G04 #@! TD*
G04 #@! TA.AperFunction,SMDPad,CuDef*
G04 #@! TD*
G04 #@! TA.AperFunction,SMDPad,CuDef*
G04 #@! TD*
G04 #@! TA.AperFunction,SMDPad,CuDef*
G04 #@! TD*
G04 #@! TA.AperFunction,ConnectorPad*
G04 #@! TD*
G04 #@! TA.AperFunction,ComponentPad*
G04 #@! TD*
G04 #@! TA.AperFunction,ComponentPad*
G04 #@! TD*
G04 #@! TA.AperFunction,SMDPad,CuDef*
G04 #@! TD*
G04 #@! TA.AperFunction,ViaPad*
G04 #@! TD*
G04 #@! TA.AperFunction,Conductor*
G04 #@! TD*
G04 APERTURE END LIST*
D70*
G04 #@! TO.P,U3,16*
G04 #@! TO.N,FORWARD*
X-0002677165Y0005078740D02*
X0003220334Y0000928740D03*
G04 #@! TO.P,U3,14*
G04 #@! TO.N,BACK*
X0003320334Y0000928740D03*
G04 #@! TO.P,U3,13*
G04 #@! TO.N,LEFT*
X0003370334Y0000928740D03*
G04 #@! TO.P,U3,12*
G04 #@! TO.N,BT1*
X0003420334Y0000928740D03*
G04 #@! TO.P,U3,11*
G04 #@! TO.N,Net-(U3-Pad11)*
X0003470334Y0000928740D03*
G04 #@! TO.P,U3,10*
G04 #@! TO.N,Net-(U3-Pad10)*
X0003520334Y0000928740D03*
G04 #@! TO.P,U3,9*
G04 #@! TO.N,Net-(U3-Pad9)*
X0003570334Y0000928740D03*
G04 #@! TO.P,U3,8*
G04 #@! TO.N,GND*
X0003570334Y0000678740D03*
G04 #@! TO.P,U3,7*
G04 #@! TO.N,Net-(U3-Pad7)*
X0003520334Y0000678740D03*
G04 #@! TO.P,U3,6*
G04 #@! TO.N,Net-(U3-Pad6)*
X0003470334Y0000678740D03*
G04 #@! TO.P,U3,5*
G04 #@! TO.N,Net-(U2-Pad10)*
X0003420334Y0000678740D03*
G04 #@! TO.P,U3,4*
G04 #@! TO.N,Net-(U2-Pad7)*
X0003370334Y0000678740D03*
G04 #@! TO.P,U3,3*
G04 #@! TO.N,Net-(U2-Pad4)*
X0003320334Y0000678740D03*
G04 #@! TO.P,U3,2*
G04 #@! TO.N,Net-(U2-Pad2)*
X0003270334Y0000678740D03*
G04 #@! TO.P,U3,1*
G04 #@! TO.N,Net-(U2-Pad3)*
X0003220334Y0000678740D03*
G04 #@! TO.P,U3,15*
G04 #@! TO.N,RIGHT*
X0003270334Y0000928740D03*
G04 #@! TD*
D71*
G04 #@! TO.P,U1,1*
G04 #@! TO.N,GND*
X0003126535Y0000399740D03*
G04 #@! TO.P,U1,2*
G04 #@! TO.N,THR*
X0003126535Y0000349740D03*
G04 #@! TO.P,U1,3*
G04 #@! TO.N,Net-(U1-Pad3)*
X0003126535Y0000299740D03*
G04 #@! TO.P,U1,4*
G04 #@! TO.N,VCC*
X0003126535Y0000249740D03*
G04 #@! TO.P,U1,5*
G04 #@! TO.N,Net-(C1-Pad1)*
X0003339133Y0000249740D03*
G04 #@! TO.P,U1,6*
G04 #@! TO.N,THR*
X0003339133Y0000299740D03*
G04 #@! TO.P,U1,7*
G04 #@! TO.N,Net-(R3-Pad1)*
X0003339133Y0000349740D03*
G04 #@! TO.P,U1,8*
G04 #@! TO.N,VCC*
X0003339133Y0000399740D03*
G04 #@! TD*
D72*
G04 #@! TO.P,R2,1*
G04 #@! TO.N,Net-(JP1-Pad1)*
X0003564984Y0000247740D03*
G04 #@! TO.P,R2,2*
G04 #@! TO.N,Net-(Q2-Pad1)*
X0003458685Y0000247740D03*
G04 #@! TD*
G04 #@! TO.P,R4,1*
G04 #@! TO.N,VCC*
X0003456685Y0000413740D03*
G04 #@! TO.P,R4,2*
G04 #@! TO.N,Net-(R3-Pad1)*
X0003562984Y0000413740D03*
G04 #@! TD*
D73*
G04 #@! TO.P,C1,1*
G04 #@! TO.N,Net-(C1-Pad1)*
X0003452047Y0000519740D03*
G04 #@! TO.P,C1,2*
G04 #@! TO.N,GND*
X0003353622Y0000519740D03*
G04 #@! TD*
G04 #@! TO.P,C2,1*
G04 #@! TO.N,THR*
X0003153622Y0000519740D03*
G04 #@! TO.P,C2,2*
G04 #@! TO.N,GND*
X0003252047Y0000519740D03*
G04 #@! TD*
D74*
G04 #@! TO.P,J1,4*
G04 #@! TO.N,RIGHT*
X0003447677Y0001236240D03*
G04 #@! TO.P,J1,3*
G04 #@! TO.N,LEFT*
X0003337834Y0001236240D03*
G04 #@! TO.P,J1,2*
G04 #@! TO.N,BACK*
X0003227598Y0001236240D03*
G04 #@! TO.P,J1,1*
G04 #@! TO.N,FORWARD*
X0003117755Y0001236240D03*
G04 #@! TO.P,J1,5*
G04 #@! TO.N,BT3*
X0003557913Y0001236240D03*
G04 #@! TD*
D75*
G04 #@! TO.P,JP1,1*
G04 #@! TO.N,Net-(JP1-Pad1)*
X0003102834Y0000756240D03*
D76*
G04 #@! TO.P,JP1,2*
G04 #@! TO.N,Net-(JP1-Pad2)*
X0003102834Y0000806240D03*
G04 #@! TO.P,JP1,3*
G04 #@! TO.N,RST*
X0003102834Y0000856240D03*
G04 #@! TD*
D77*
G04 #@! TO.P,D1,1*
G04 #@! TO.N,RST*
X0003167874Y0001048740D03*
G04 #@! TO.P,D1,2*
G04 #@! TO.N,Net-(D1-Pad2)*
X0003297795Y0001048740D03*
G04 #@! TD*
D78*
G04 #@! TO.N,VCC*
X0003102834Y0000653740D03*
X0003067834Y0001066240D03*
X0003457834Y0000456240D03*
X0003207834Y0000863740D03*
X0003432834Y0000313740D03*
X0003307834Y0000188740D03*
G04 #@! TO.N,GND*
X0003072834Y0000358740D03*
X0003537834Y0000978740D03*
X0003487834Y0001098740D03*
X0003370334Y0000631240D03*
X0003577834Y0000863740D03*
X0003522834Y0000743740D03*
X0003117834Y0000458740D03*
X0003212834Y0000458740D03*
G04 #@! TO.N,THR*
X0003182834Y0000333740D03*
X0003282834Y0000333740D03*
X0003157834Y0000458740D03*
G04 #@! TO.N,Net-(U1-Pad3)*
X0003182834Y0000293740D03*
X0003057834Y0000418740D03*
X0003287834Y0000623740D03*
G04 #@! TO.N,RST*
X0003247834Y0000628740D03*
G04 #@! TO.N,Net-(C1-Pad1)*
X0003282834Y0000288740D03*
X0003387834Y0000458740D03*
G04 #@! TO.N,Net-(U2-Pad10)*
X0003452834Y0000628740D03*
G04 #@! TO.N,Net-(U2-Pad7)*
X0003472834Y0000863740D03*
G04 #@! TO.N,Net-(U2-Pad4)*
X0003322834Y0000863740D03*
G04 #@! TO.N,Net-(U2-Pad3)*
X0003242834Y0000793740D03*
G04 #@! TO.N,Net-(U2-Pad2)*
X0003272834Y0000863740D03*
G04 #@! TO.N,RIGHT*
X0003437834Y0001066240D03*
X0003162834Y0000978740D03*
G04 #@! TO.N,BT3*
X0003212834Y0000163740D03*
G04 #@! TO.N,BT1*
X0003372834Y0001053740D03*
G04 #@! TO.N,Net-(R1-Pad1)*
X0003222834Y0000743740D03*
X0003202834Y0000628740D03*
G04 #@! TO.N,Net-(R3-Pad1)*
X0003497834Y0000348740D03*
X0003292834Y0000458740D03*
X0003407834Y0000348740D03*
G04 #@! TO.N,Net-(JP1-Pad1)*
X0003575334Y0000201240D03*
G04 #@! TO.N,Net-(Q2-Pad1)*
X0003462834Y0000198740D03*
G04 #@! TO.N,Net-(D1-Pad2)*
X0003327834Y0000983740D03*
G04 #@! TD*
D79*
G04 #@! TO.N,Net-(U3-Pad7)*
X0003522834Y0000676240D02*
X0003522834Y0000673740D01*
X0003522834Y0000673740D02*
X0003527834Y0000678740D01*
X0003522834Y0000688740D02*
X0003522834Y0000676240D01*
G04 #@! TO.N,VCC*
X0003102834Y0000688740D02*
X0003102834Y0000653740D01*
X0003067834Y0000723740D02*
X0003102834Y0000688740D01*
X0003067834Y0001066240D02*
X0003067834Y0000723740D01*
X0003456685Y0000455090D02*
X0003456685Y0000413740D01*
X0003457834Y0000456240D02*
X0003456685Y0000455090D01*
X0003192834Y0000888740D02*
X0003207834Y0000873740D01*
X0003207834Y0000873740D02*
X0003207834Y0000863740D01*
X0003339133Y0000399740D02*
X0003337834Y0000398740D01*
X0003337834Y0000398740D02*
X0003357834Y0000398740D01*
X0003357834Y0000398740D02*
X0003377834Y0000378740D01*
X0003377834Y0000378740D02*
X0003407834Y0000378740D01*
X0003187834Y0000188740D02*
X0003127834Y0000248740D01*
X0003127834Y0000248740D02*
X0003126535Y0000249740D01*
X0003339133Y0000399740D02*
X0003337834Y0000398740D01*
X0003337834Y0000398740D02*
X0003442834Y0000398740D01*
X0003442834Y0000398740D02*
X0003457834Y0000413740D01*
X0003457834Y0000413740D02*
X0003456685Y0000413740D01*
X0003407834Y0000378740D02*
X0003412834Y0000373740D01*
X0003412834Y0000373740D02*
X0003422834Y0000373740D01*
X0003422834Y0000373740D02*
X0003432834Y0000363740D01*
X0003432834Y0000363740D02*
X0003432834Y0000313740D01*
X0003307834Y0000188740D02*
X0003187834Y0000188740D01*
G04 #@! TO.N,GND*
X0003083834Y0000399740D02*
X0003126535Y0000399740D01*
X0003072834Y0000388740D02*
X0003083834Y0000399740D01*
X0003072834Y0000358740D02*
X0003072834Y0000388740D01*
X0003537834Y0000978740D02*
X0003487834Y0001028740D01*
X0003487834Y0001028740D02*
X0003487834Y0001098740D01*
X0003353622Y0000519740D02*
X0003353622Y0000532027D01*
X0003353622Y0000532027D02*
X0003370334Y0000548740D01*
X0003370334Y0000548740D02*
X0003370334Y0000631240D01*
X0003570334Y0000678740D02*
X0003572834Y0000678740D01*
X0003572834Y0000678740D02*
X0003577834Y0000683740D01*
X0003577834Y0000683740D02*
X0003577834Y0000863740D01*
X0003353622Y0000519740D02*
X0003352834Y0000518740D01*
X0003522834Y0000743740D02*
X0003572834Y0000693740D01*
X0003572834Y0000693740D02*
X0003572834Y0000678740D01*
X0003572834Y0000678740D02*
X0003570334Y0000678740D01*
X0003126535Y0000399740D02*
X0003127834Y0000398740D01*
X0003127834Y0000398740D02*
X0003117834Y0000408740D01*
X0003117834Y0000408740D02*
X0003117834Y0000458740D01*
X0003212834Y0000458740D02*
X0003252834Y0000498740D01*
X0003252834Y0000498740D02*
X0003252834Y0000518740D01*
X0003252834Y0000518740D02*
X0003252047Y0000519740D01*
X0003127834Y0000398740D02*
X0003126535Y0000399740D01*
X0003353622Y0000519740D02*
X0003352834Y0000518740D01*
X0003252047Y0000519740D02*
X0003252834Y0000518740D01*
X0003252834Y0000518740D02*
X0003352834Y0000518740D01*
X0003352834Y0000518740D02*
X0003353622Y0000519740D01*
G04 #@! TO.N,THR*
X0003126535Y0000349740D02*
X0003127834Y0000348740D01*
X0003127834Y0000348740D02*
X0003167834Y0000348740D01*
X0003167834Y0000348740D02*
X0003182834Y0000333740D01*
X0003282834Y0000333740D02*
X0003292834Y0000323740D01*
X0003292834Y0000323740D02*
X0003312834Y0000323740D01*
X0003312834Y0000323740D02*
X0003337834Y0000298740D01*
X0003337834Y0000298740D02*
X0003339133Y0000299740D01*
X0003153622Y0000519740D02*
X0003152834Y0000518740D01*
X0003152834Y0000518740D02*
X0003182834Y0000488740D01*
X0003182834Y0000488740D02*
X0003182834Y0000443740D01*
X0003182834Y0000443740D02*
X0003172834Y0000433740D01*
X0003172834Y0000433740D02*
X0003172834Y0000373740D01*
X0003172834Y0000373740D02*
X0003152834Y0000373740D01*
X0003152834Y0000373740D02*
X0003127834Y0000348740D01*
X0003127834Y0000348740D02*
X0003126535Y0000349740D01*
X0003153622Y0000519740D02*
X0003152834Y0000518740D01*
X0003152834Y0000518740D02*
X0003157834Y0000513740D01*
X0003157834Y0000513740D02*
X0003157834Y0000458740D01*
G04 #@! TO.N,Net-(U1-Pad3)*
X0003126535Y0000299740D02*
X0003127834Y0000298740D01*
X0003127834Y0000298740D02*
X0003177834Y0000298740D01*
X0003177834Y0000298740D02*
X0003182834Y0000293740D01*
X0003057834Y0000418740D02*
X0003092834Y0000453740D01*
X0003092834Y0000453740D02*
X0003092834Y0000473740D01*
X0003092834Y0000473740D02*
X0003107834Y0000488740D01*
X0003107834Y0000488740D02*
X0003107834Y0000558740D01*
X0003107834Y0000558740D02*
X0003222834Y0000558740D01*
X0003222834Y0000558740D02*
X0003287834Y0000623740D01*
X0003137834Y0000308740D02*
X0003127834Y0000298740D01*
X0003127834Y0000298740D02*
X0003126535Y0000299740D01*
G04 #@! TO.N,RST*
X0003167874Y0001048740D02*
X0003137834Y0001048740D01*
X0003102834Y0001013740D02*
X0003102834Y0000856240D01*
X0003137834Y0001048740D02*
X0003102834Y0001013740D01*
X0003247834Y0000628740D02*
X0003242834Y0000628740D01*
X0003242834Y0000628740D02*
X0003217834Y0000603740D01*
X0003217834Y0000603740D02*
X0003187834Y0000603740D01*
X0003187834Y0000603740D02*
X0003137834Y0000653740D01*
X0003137834Y0000653740D02*
X0003137834Y0000838740D01*
X0003137834Y0000838740D02*
X0003117834Y0000838740D01*
X0003117834Y0000838740D02*
X0003102834Y0000853740D01*
X0003102834Y0000853740D02*
X0003102834Y0000856240D01*
G04 #@! TO.N,Net-(C1-Pad1)*
X0003339133Y0000249740D02*
X0003337834Y0000248740D01*
X0003337834Y0000248740D02*
X0003317834Y0000248740D01*
X0003317834Y0000248740D02*
X0003282834Y0000283740D01*
X0003282834Y0000283740D02*
X0003282834Y0000288740D01*
X0003387834Y0000458740D02*
X0003392834Y0000458740D01*
X0003392834Y0000458740D02*
X0003452834Y0000518740D01*
X0003452834Y0000518740D02*
X0003452047Y0000519740D01*
G04 #@! TO.N,Net-(U2-Pad10)*
X0003452834Y0000628740D02*
X0003422834Y0000658740D01*
X0003422834Y0000658740D02*
X0003422834Y0000678740D01*
X0003422834Y0000678740D02*
X0003420334Y0000678740D01*
G04 #@! TO.N,Net-(U2-Pad7)*
X0003370334Y0000678740D02*
X0003372834Y0000678740D01*
X0003372834Y0000678740D02*
X0003392834Y0000698740D01*
X0003392834Y0000698740D02*
X0003392834Y0000718740D01*
X0003392834Y0000718740D02*
X0003472834Y0000798740D01*
X0003472834Y0000798740D02*
X0003472834Y0000863740D01*
X0003372834Y0000663740D02*
X0003372834Y0000676240D01*
G04 #@! TO.N,Net-(U2-Pad4)*
X0003322834Y0000863740D02*
X0003322834Y0000678740D01*
X0003322834Y0000678740D02*
X0003320334Y0000678740D01*
G04 #@! TO.N,Net-(U2-Pad3)*
X0003242834Y0000793740D02*
X0003247834Y0000788740D01*
X0003247834Y0000788740D02*
X0003247834Y0000728740D01*
X0003247834Y0000728740D02*
X0003222834Y0000703740D01*
X0003222834Y0000703740D02*
X0003222834Y0000678740D01*
X0003222834Y0000678740D02*
X0003220334Y0000678740D01*
G04 #@! TO.N,Net-(U2-Pad2)*
X0003272834Y0000863740D02*
X0003272834Y0000678740D01*
X0003272834Y0000678740D02*
X0003270334Y0000678740D01*
G04 #@! TO.N,RIGHT*
X0003437834Y0001066240D02*
X0003437834Y0001101240D01*
X0003162834Y0000978740D02*
X0003167834Y0000973740D01*
X0003167834Y0000973740D02*
X0003167834Y0000878740D01*
X0003167834Y0000878740D02*
X0003172834Y0000873740D01*
X0003172834Y0000873740D02*
X0003172834Y0000868740D01*
X0003172834Y0000868740D02*
X0003182834Y0000858740D01*
X0003182834Y0000858740D02*
X0003182834Y0000848740D01*
X0003182834Y0000848740D02*
X0003192834Y0000838740D01*
X0003192834Y0000838740D02*
X0003222834Y0000838740D01*
X0003222834Y0000838740D02*
X0003247834Y0000863740D01*
X0003247834Y0000863740D02*
X0003247834Y0000878740D01*
X0003247834Y0000878740D02*
X0003272834Y0000903740D01*
X0003272834Y0000928740D02*
X0003272834Y0000903740D01*
X0003447677Y0001111082D02*
X0003447677Y0001236240D01*
X0003437834Y0001101240D02*
X0003447677Y0001111082D01*
X0003462677Y0001233740D02*
X0003462834Y0001233740D01*
X0003272834Y0000928740D02*
X0003270334Y0000928740D01*
X0003462677Y0001233740D02*
X0003462834Y0001233740D01*
X0003462834Y0001233740D02*
X0003447834Y0001218740D01*
X0003272834Y0000926240D02*
X0003272834Y0000923740D01*
G04 #@! TO.N,LEFT*
X0003337834Y0001236240D02*
X0003337834Y0001028740D01*
X0003370334Y0000996240D02*
X0003370334Y0000928740D01*
X0003337834Y0001028740D02*
X0003370334Y0000996240D01*
X0003352834Y0001233740D02*
X0003372834Y0001213740D01*
X0003372834Y0000928740D02*
X0003370334Y0000928740D01*
X0003352834Y0001233740D02*
X0003322834Y0001203740D01*
X0003372834Y0000926240D02*
X0003372834Y0000923740D01*
G04 #@! TO.N,BACK*
X0003242834Y0001023740D02*
X0003242834Y0001111240D01*
X0003297834Y0000968740D02*
X0003242834Y0001023740D01*
X0003297834Y0000953740D02*
X0003297834Y0000968740D01*
X0003322834Y0000928740D02*
X0003297834Y0000953740D01*
X0003227598Y0001126476D02*
X0003227598Y0001236240D01*
X0003242834Y0001111240D02*
X0003227598Y0001126476D01*
X0003320334Y0000928740D02*
X0003322834Y0000928740D01*
X0003242834Y0001233740D02*
X0003242598Y0001233740D01*
X0003242834Y0001233740D02*
X0003242598Y0001233740D01*
G04 #@! TO.N,FORWARD*
X0003220334Y0000928740D02*
X0003220334Y0001086240D01*
X0003117755Y0001116318D02*
X0003117755Y0001236240D01*
X0003132834Y0001101240D02*
X0003117755Y0001116318D01*
X0003205334Y0001101240D02*
X0003132834Y0001101240D01*
X0003220334Y0001086240D02*
X0003205334Y0001101240D01*
X0003132755Y0001233740D02*
X0003132834Y0001233740D01*
X0003222834Y0000928740D02*
X0003220334Y0000928740D01*
X0003132834Y0001233740D02*
X0003132755Y0001233740D01*
G04 #@! TO.N,BT3*
X0003557913Y0001236240D02*
X0003557913Y0001083661D01*
X0003212834Y0000123740D02*
X0003212834Y0000163740D01*
X0003252834Y0000083740D02*
X0003212834Y0000123740D01*
X0003537834Y0000083740D02*
X0003252834Y0000083740D01*
X0003557913Y0001083661D02*
X0003627834Y0001013740D01*
X0003572913Y0001233740D02*
X0003572834Y0001233740D01*
X0003572913Y0001233740D02*
X0003572834Y0001233740D01*
X0003627834Y0000173740D02*
X0003537834Y0000083740D01*
X0003627834Y0001013740D02*
X0003627834Y0000173740D01*
G04 #@! TO.N,BT1*
X0003372834Y0001053740D02*
X0003375334Y0001053740D01*
X0003420334Y0001008740D02*
X0003420334Y0000928740D01*
X0003375334Y0001053740D02*
X0003420334Y0001008740D01*
X0003422834Y0000948740D02*
X0003422834Y0000928740D01*
X0003422834Y0000928740D02*
X0003420334Y0000928740D01*
G04 #@! TO.N,Net-(R1-Pad1)*
X0003222834Y0000743740D02*
X0003197834Y0000718740D01*
X0003197834Y0000718740D02*
X0003192834Y0000718740D01*
X0003192834Y0000718740D02*
X0003192834Y0000638740D01*
X0003192834Y0000638740D02*
X0003202834Y0000628740D01*
G04 #@! TO.N,Net-(R3-Pad1)*
X0003497834Y0000348740D02*
X0003562834Y0000413740D01*
X0003292834Y0000458740D02*
X0003292834Y0000373740D01*
X0003292834Y0000373740D02*
X0003312834Y0000373740D01*
X0003312834Y0000373740D02*
X0003337834Y0000348740D01*
X0003337834Y0000348740D02*
X0003339133Y0000349740D01*
X0003339133Y0000349740D02*
X0003337834Y0000348740D01*
X0003337834Y0000348740D02*
X0003407834Y0000348740D01*
X0003562834Y0000413740D02*
X0003562984Y0000413740D01*
G04 #@! TO.N,Net-(JP1-Pad1)*
X0003564984Y0000211590D02*
X0003564984Y0000247740D01*
X0003564984Y0000247740D02*
X0003562834Y0000248740D01*
X0003562834Y0000248740D02*
X0003547834Y0000263740D01*
X0003575334Y0000201240D02*
X0003564984Y0000211590D01*
G04 #@! TO.N,Net-(Q2-Pad1)*
X0003458685Y0000247740D02*
X0003458685Y0000202889D01*
X0003458685Y0000202889D02*
X0003462834Y0000198740D01*
X0003458685Y0000247740D02*
X0003457834Y0000248740D01*
G04 #@! TO.N,Net-(D1-Pad2)*
X0003297795Y0001013779D02*
X0003297795Y0001048740D01*
X0003327834Y0000983740D02*
X0003297795Y0001013779D01*
G04 #@! TD*
G04 next file*
G04 #@! TF.GenerationSoftware,KiCad,Pcbnew,(5.0.2)-1*
G04 #@! TF.CreationDate,2019-07-10T16:32:42+02:00*
G04 #@! TF.ProjectId,joystick tester systest,6a6f7973-7469-4636-9b20-746573746572,rev?*
G04 #@! TF.SameCoordinates,Original*
G04 #@! TF.FileFunction,Copper,L1,Top*
G04 #@! TF.FilePolarity,Positive*
G04 Gerber Fmt 4.6, Leading zero omitted, Abs format (unit mm)*
G04 Created by KiCad (PCBNEW (5.0.2)-1) date 10-7-2019 16:32:42*
G01G01*
G04 APERTURE LIST*
G04 #@! TA.AperFunction,SMDPad,CuDef*
G04 #@! TD*
G04 #@! TA.AperFunction,SMDPad,CuDef*
G04 #@! TD*
G04 #@! TA.AperFunction,SMDPad,CuDef*
G04 #@! TD*
G04 #@! TA.AperFunction,SMDPad,CuDef*
G04 #@! TD*
G04 #@! TA.AperFunction,ConnectorPad*
G04 #@! TD*
G04 #@! TA.AperFunction,ComponentPad*
G04 #@! TD*
G04 #@! TA.AperFunction,ComponentPad*
G04 #@! TD*
G04 #@! TA.AperFunction,SMDPad,CuDef*
G04 #@! TD*
G04 #@! TA.AperFunction,ViaPad*
G04 #@! TD*
G04 #@! TA.AperFunction,Conductor*
G04 #@! TD*
G04 APERTURE END LIST*
D80*
G04 #@! TO.P,U3,16*
G04 #@! TO.N,FORWARD*
X-0004921259Y0006535433D02*
X0000976240Y0002385433D03*
G04 #@! TO.P,U3,14*
G04 #@! TO.N,BACK*
X0001076240Y0002385433D03*
G04 #@! TO.P,U3,13*
G04 #@! TO.N,LEFT*
X0001126240Y0002385433D03*
G04 #@! TO.P,U3,12*
G04 #@! TO.N,BT1*
X0001176240Y0002385433D03*
G04 #@! TO.P,U3,11*
G04 #@! TO.N,Net-(U3-Pad11)*
X0001226240Y0002385433D03*
G04 #@! TO.P,U3,10*
G04 #@! TO.N,Net-(U3-Pad10)*
X0001276240Y0002385433D03*
G04 #@! TO.P,U3,9*
G04 #@! TO.N,Net-(U3-Pad9)*
X0001326240Y0002385433D03*
G04 #@! TO.P,U3,8*
G04 #@! TO.N,GND*
X0001326240Y0002135433D03*
G04 #@! TO.P,U3,7*
G04 #@! TO.N,Net-(U3-Pad7)*
X0001276240Y0002135433D03*
G04 #@! TO.P,U3,6*
G04 #@! TO.N,Net-(U3-Pad6)*
X0001226240Y0002135433D03*
G04 #@! TO.P,U3,5*
G04 #@! TO.N,Net-(U2-Pad10)*
X0001176240Y0002135433D03*
G04 #@! TO.P,U3,4*
G04 #@! TO.N,Net-(U2-Pad7)*
X0001126240Y0002135433D03*
G04 #@! TO.P,U3,3*
G04 #@! TO.N,Net-(U2-Pad4)*
X0001076240Y0002135433D03*
G04 #@! TO.P,U3,2*
G04 #@! TO.N,Net-(U2-Pad2)*
X0001026240Y0002135433D03*
G04 #@! TO.P,U3,1*
G04 #@! TO.N,Net-(U2-Pad3)*
X0000976240Y0002135433D03*
G04 #@! TO.P,U3,15*
G04 #@! TO.N,RIGHT*
X0001026240Y0002385433D03*
G04 #@! TD*
D81*
G04 #@! TO.P,U1,1*
G04 #@! TO.N,GND*
X0000882440Y0001856433D03*
G04 #@! TO.P,U1,2*
G04 #@! TO.N,THR*
X0000882440Y0001806433D03*
G04 #@! TO.P,U1,3*
G04 #@! TO.N,Net-(U1-Pad3)*
X0000882440Y0001756433D03*
G04 #@! TO.P,U1,4*
G04 #@! TO.N,VCC*
X0000882440Y0001706433D03*
G04 #@! TO.P,U1,5*
G04 #@! TO.N,Net-(C1-Pad1)*
X0001095039Y0001706433D03*
G04 #@! TO.P,U1,6*
G04 #@! TO.N,THR*
X0001095039Y0001756433D03*
G04 #@! TO.P,U1,7*
G04 #@! TO.N,Net-(R3-Pad1)*
X0001095039Y0001806433D03*
G04 #@! TO.P,U1,8*
G04 #@! TO.N,VCC*
X0001095039Y0001856433D03*
G04 #@! TD*
D82*
G04 #@! TO.P,R2,1*
G04 #@! TO.N,Net-(JP1-Pad1)*
X0001320889Y0001704433D03*
G04 #@! TO.P,R2,2*
G04 #@! TO.N,Net-(Q2-Pad1)*
X0001214590Y0001704433D03*
G04 #@! TD*
G04 #@! TO.P,R4,1*
G04 #@! TO.N,VCC*
X0001212590Y0001870433D03*
G04 #@! TO.P,R4,2*
G04 #@! TO.N,Net-(R3-Pad1)*
X0001318889Y0001870433D03*
G04 #@! TD*
D83*
G04 #@! TO.P,C1,1*
G04 #@! TO.N,Net-(C1-Pad1)*
X0001207952Y0001976433D03*
G04 #@! TO.P,C1,2*
G04 #@! TO.N,GND*
X0001109527Y0001976433D03*
G04 #@! TD*
G04 #@! TO.P,C2,1*
G04 #@! TO.N,THR*
X0000909527Y0001976433D03*
G04 #@! TO.P,C2,2*
G04 #@! TO.N,GND*
X0001007952Y0001976433D03*
G04 #@! TD*
D84*
G04 #@! TO.P,J1,4*
G04 #@! TO.N,RIGHT*
X0001203582Y0002692933D03*
G04 #@! TO.P,J1,3*
G04 #@! TO.N,LEFT*
X0001093740Y0002692933D03*
G04 #@! TO.P,J1,2*
G04 #@! TO.N,BACK*
X0000983503Y0002692933D03*
G04 #@! TO.P,J1,1*
G04 #@! TO.N,FORWARD*
X0000873661Y0002692933D03*
G04 #@! TO.P,J1,5*
G04 #@! TO.N,BT3*
X0001313818Y0002692933D03*
G04 #@! TD*
D85*
G04 #@! TO.P,JP1,1*
G04 #@! TO.N,Net-(JP1-Pad1)*
X0000858740Y0002212933D03*
D86*
G04 #@! TO.P,JP1,2*
G04 #@! TO.N,Net-(JP1-Pad2)*
X0000858740Y0002262933D03*
G04 #@! TO.P,JP1,3*
G04 #@! TO.N,RST*
X0000858740Y0002312933D03*
G04 #@! TD*
D87*
G04 #@! TO.P,D1,1*
G04 #@! TO.N,RST*
X0000923779Y0002505433D03*
G04 #@! TO.P,D1,2*
G04 #@! TO.N,Net-(D1-Pad2)*
X0001053700Y0002505433D03*
G04 #@! TD*
D88*
G04 #@! TO.N,VCC*
X0000858740Y0002110433D03*
X0000823740Y0002522933D03*
X0001213740Y0001912933D03*
X0000963740Y0002320433D03*
X0001188740Y0001770433D03*
X0001063740Y0001645433D03*
G04 #@! TO.N,GND*
X0000828740Y0001815433D03*
X0001293740Y0002435433D03*
X0001243740Y0002555433D03*
X0001126240Y0002087933D03*
X0001333740Y0002320433D03*
X0001278740Y0002200433D03*
X0000873740Y0001915433D03*
X0000968740Y0001915433D03*
G04 #@! TO.N,THR*
X0000938740Y0001790433D03*
X0001038740Y0001790433D03*
X0000913740Y0001915433D03*
G04 #@! TO.N,Net-(U1-Pad3)*
X0000938740Y0001750433D03*
X0000813740Y0001875433D03*
X0001043740Y0002080433D03*
G04 #@! TO.N,RST*
X0001003740Y0002085433D03*
G04 #@! TO.N,Net-(C1-Pad1)*
X0001038740Y0001745433D03*
X0001143740Y0001915433D03*
G04 #@! TO.N,Net-(U2-Pad10)*
X0001208740Y0002085433D03*
G04 #@! TO.N,Net-(U2-Pad7)*
X0001228740Y0002320433D03*
G04 #@! TO.N,Net-(U2-Pad4)*
X0001078740Y0002320433D03*
G04 #@! TO.N,Net-(U2-Pad3)*
X0000998740Y0002250433D03*
G04 #@! TO.N,Net-(U2-Pad2)*
X0001028740Y0002320433D03*
G04 #@! TO.N,RIGHT*
X0001193740Y0002522933D03*
X0000918740Y0002435433D03*
G04 #@! TO.N,BT3*
X0000968740Y0001620433D03*
G04 #@! TO.N,BT1*
X0001128740Y0002510433D03*
G04 #@! TO.N,Net-(R1-Pad1)*
X0000978740Y0002200433D03*
X0000958740Y0002085433D03*
G04 #@! TO.N,Net-(R3-Pad1)*
X0001253740Y0001805433D03*
X0001048740Y0001915433D03*
X0001163740Y0001805433D03*
G04 #@! TO.N,Net-(JP1-Pad1)*
X0001331240Y0001657933D03*
G04 #@! TO.N,Net-(Q2-Pad1)*
X0001218740Y0001655433D03*
G04 #@! TO.N,Net-(D1-Pad2)*
X0001083740Y0002440433D03*
G04 #@! TD*
D89*
G04 #@! TO.N,Net-(U3-Pad7)*
X0001278740Y0002132933D02*
X0001278740Y0002130433D01*
X0001278740Y0002130433D02*
X0001283740Y0002135433D01*
X0001278740Y0002145433D02*
X0001278740Y0002132933D01*
G04 #@! TO.N,VCC*
X0000858740Y0002145433D02*
X0000858740Y0002110433D01*
X0000823740Y0002180433D02*
X0000858740Y0002145433D01*
X0000823740Y0002522933D02*
X0000823740Y0002180433D01*
X0001212590Y0001911783D02*
X0001212590Y0001870433D01*
X0001213740Y0001912933D02*
X0001212590Y0001911783D01*
X0000948740Y0002345433D02*
X0000963740Y0002330433D01*
X0000963740Y0002330433D02*
X0000963740Y0002320433D01*
X0001095039Y0001856433D02*
X0001093740Y0001855433D01*
X0001093740Y0001855433D02*
X0001113740Y0001855433D01*
X0001113740Y0001855433D02*
X0001133740Y0001835433D01*
X0001133740Y0001835433D02*
X0001163740Y0001835433D01*
X0000943740Y0001645433D02*
X0000883740Y0001705433D01*
X0000883740Y0001705433D02*
X0000882440Y0001706433D01*
X0001095039Y0001856433D02*
X0001093740Y0001855433D01*
X0001093740Y0001855433D02*
X0001198740Y0001855433D01*
X0001198740Y0001855433D02*
X0001213740Y0001870433D01*
X0001213740Y0001870433D02*
X0001212590Y0001870433D01*
X0001163740Y0001835433D02*
X0001168740Y0001830433D01*
X0001168740Y0001830433D02*
X0001178740Y0001830433D01*
X0001178740Y0001830433D02*
X0001188740Y0001820433D01*
X0001188740Y0001820433D02*
X0001188740Y0001770433D01*
X0001063740Y0001645433D02*
X0000943740Y0001645433D01*
G04 #@! TO.N,GND*
X0000839740Y0001856433D02*
X0000882440Y0001856433D01*
X0000828740Y0001845433D02*
X0000839740Y0001856433D01*
X0000828740Y0001815433D02*
X0000828740Y0001845433D01*
X0001293740Y0002435433D02*
X0001243740Y0002485433D01*
X0001243740Y0002485433D02*
X0001243740Y0002555433D01*
X0001109527Y0001976433D02*
X0001109527Y0001988720D01*
X0001109527Y0001988720D02*
X0001126240Y0002005433D01*
X0001126240Y0002005433D02*
X0001126240Y0002087933D01*
X0001326240Y0002135433D02*
X0001328740Y0002135433D01*
X0001328740Y0002135433D02*
X0001333740Y0002140433D01*
X0001333740Y0002140433D02*
X0001333740Y0002320433D01*
X0001109527Y0001976433D02*
X0001108740Y0001975433D01*
X0001278740Y0002200433D02*
X0001328740Y0002150433D01*
X0001328740Y0002150433D02*
X0001328740Y0002135433D01*
X0001328740Y0002135433D02*
X0001326240Y0002135433D01*
X0000882440Y0001856433D02*
X0000883740Y0001855433D01*
X0000883740Y0001855433D02*
X0000873740Y0001865433D01*
X0000873740Y0001865433D02*
X0000873740Y0001915433D01*
X0000968740Y0001915433D02*
X0001008740Y0001955433D01*
X0001008740Y0001955433D02*
X0001008740Y0001975433D01*
X0001008740Y0001975433D02*
X0001007952Y0001976433D01*
X0000883740Y0001855433D02*
X0000882440Y0001856433D01*
X0001109527Y0001976433D02*
X0001108740Y0001975433D01*
X0001007952Y0001976433D02*
X0001008740Y0001975433D01*
X0001008740Y0001975433D02*
X0001108740Y0001975433D01*
X0001108740Y0001975433D02*
X0001109527Y0001976433D01*
G04 #@! TO.N,THR*
X0000882440Y0001806433D02*
X0000883740Y0001805433D01*
X0000883740Y0001805433D02*
X0000923740Y0001805433D01*
X0000923740Y0001805433D02*
X0000938740Y0001790433D01*
X0001038740Y0001790433D02*
X0001048740Y0001780433D01*
X0001048740Y0001780433D02*
X0001068740Y0001780433D01*
X0001068740Y0001780433D02*
X0001093740Y0001755433D01*
X0001093740Y0001755433D02*
X0001095039Y0001756433D01*
X0000909527Y0001976433D02*
X0000908740Y0001975433D01*
X0000908740Y0001975433D02*
X0000938740Y0001945433D01*
X0000938740Y0001945433D02*
X0000938740Y0001900433D01*
X0000938740Y0001900433D02*
X0000928740Y0001890433D01*
X0000928740Y0001890433D02*
X0000928740Y0001830433D01*
X0000928740Y0001830433D02*
X0000908740Y0001830433D01*
X0000908740Y0001830433D02*
X0000883740Y0001805433D01*
X0000883740Y0001805433D02*
X0000882440Y0001806433D01*
X0000909527Y0001976433D02*
X0000908740Y0001975433D01*
X0000908740Y0001975433D02*
X0000913740Y0001970433D01*
X0000913740Y0001970433D02*
X0000913740Y0001915433D01*
G04 #@! TO.N,Net-(U1-Pad3)*
X0000882440Y0001756433D02*
X0000883740Y0001755433D01*
X0000883740Y0001755433D02*
X0000933740Y0001755433D01*
X0000933740Y0001755433D02*
X0000938740Y0001750433D01*
X0000813740Y0001875433D02*
X0000848740Y0001910433D01*
X0000848740Y0001910433D02*
X0000848740Y0001930433D01*
X0000848740Y0001930433D02*
X0000863740Y0001945433D01*
X0000863740Y0001945433D02*
X0000863740Y0002015433D01*
X0000863740Y0002015433D02*
X0000978740Y0002015433D01*
X0000978740Y0002015433D02*
X0001043740Y0002080433D01*
X0000893740Y0001765433D02*
X0000883740Y0001755433D01*
X0000883740Y0001755433D02*
X0000882440Y0001756433D01*
G04 #@! TO.N,RST*
X0000923779Y0002505433D02*
X0000893740Y0002505433D01*
X0000858740Y0002470433D02*
X0000858740Y0002312933D01*
X0000893740Y0002505433D02*
X0000858740Y0002470433D01*
X0001003740Y0002085433D02*
X0000998740Y0002085433D01*
X0000998740Y0002085433D02*
X0000973740Y0002060433D01*
X0000973740Y0002060433D02*
X0000943740Y0002060433D01*
X0000943740Y0002060433D02*
X0000893740Y0002110433D01*
X0000893740Y0002110433D02*
X0000893740Y0002295433D01*
X0000893740Y0002295433D02*
X0000873740Y0002295433D01*
X0000873740Y0002295433D02*
X0000858740Y0002310433D01*
X0000858740Y0002310433D02*
X0000858740Y0002312933D01*
G04 #@! TO.N,Net-(C1-Pad1)*
X0001095039Y0001706433D02*
X0001093740Y0001705433D01*
X0001093740Y0001705433D02*
X0001073740Y0001705433D01*
X0001073740Y0001705433D02*
X0001038740Y0001740433D01*
X0001038740Y0001740433D02*
X0001038740Y0001745433D01*
X0001143740Y0001915433D02*
X0001148740Y0001915433D01*
X0001148740Y0001915433D02*
X0001208740Y0001975433D01*
X0001208740Y0001975433D02*
X0001207952Y0001976433D01*
G04 #@! TO.N,Net-(U2-Pad10)*
X0001208740Y0002085433D02*
X0001178740Y0002115433D01*
X0001178740Y0002115433D02*
X0001178740Y0002135433D01*
X0001178740Y0002135433D02*
X0001176240Y0002135433D01*
G04 #@! TO.N,Net-(U2-Pad7)*
X0001126240Y0002135433D02*
X0001128740Y0002135433D01*
X0001128740Y0002135433D02*
X0001148740Y0002155433D01*
X0001148740Y0002155433D02*
X0001148740Y0002175433D01*
X0001148740Y0002175433D02*
X0001228740Y0002255433D01*
X0001228740Y0002255433D02*
X0001228740Y0002320433D01*
X0001128740Y0002120433D02*
X0001128740Y0002132933D01*
G04 #@! TO.N,Net-(U2-Pad4)*
X0001078740Y0002320433D02*
X0001078740Y0002135433D01*
X0001078740Y0002135433D02*
X0001076240Y0002135433D01*
G04 #@! TO.N,Net-(U2-Pad3)*
X0000998740Y0002250433D02*
X0001003740Y0002245433D01*
X0001003740Y0002245433D02*
X0001003740Y0002185433D01*
X0001003740Y0002185433D02*
X0000978740Y0002160433D01*
X0000978740Y0002160433D02*
X0000978740Y0002135433D01*
X0000978740Y0002135433D02*
X0000976240Y0002135433D01*
G04 #@! TO.N,Net-(U2-Pad2)*
X0001028740Y0002320433D02*
X0001028740Y0002135433D01*
X0001028740Y0002135433D02*
X0001026240Y0002135433D01*
G04 #@! TO.N,RIGHT*
X0001193740Y0002522933D02*
X0001193740Y0002557933D01*
X0000918740Y0002435433D02*
X0000923740Y0002430433D01*
X0000923740Y0002430433D02*
X0000923740Y0002335433D01*
X0000923740Y0002335433D02*
X0000928740Y0002330433D01*
X0000928740Y0002330433D02*
X0000928740Y0002325433D01*
X0000928740Y0002325433D02*
X0000938740Y0002315433D01*
X0000938740Y0002315433D02*
X0000938740Y0002305433D01*
X0000938740Y0002305433D02*
X0000948740Y0002295433D01*
X0000948740Y0002295433D02*
X0000978740Y0002295433D01*
X0000978740Y0002295433D02*
X0001003740Y0002320433D01*
X0001003740Y0002320433D02*
X0001003740Y0002335433D01*
X0001003740Y0002335433D02*
X0001028740Y0002360433D01*
X0001028740Y0002385433D02*
X0001028740Y0002360433D01*
X0001203582Y0002567775D02*
X0001203582Y0002692933D01*
X0001193740Y0002557933D02*
X0001203582Y0002567775D01*
X0001218582Y0002690433D02*
X0001218740Y0002690433D01*
X0001028740Y0002385433D02*
X0001026240Y0002385433D01*
X0001218582Y0002690433D02*
X0001218740Y0002690433D01*
X0001218740Y0002690433D02*
X0001203740Y0002675433D01*
X0001028740Y0002382933D02*
X0001028740Y0002380433D01*
G04 #@! TO.N,LEFT*
X0001093740Y0002692933D02*
X0001093740Y0002485433D01*
X0001126240Y0002452933D02*
X0001126240Y0002385433D01*
X0001093740Y0002485433D02*
X0001126240Y0002452933D01*
X0001108740Y0002690433D02*
X0001128740Y0002670433D01*
X0001128740Y0002385433D02*
X0001126240Y0002385433D01*
X0001108740Y0002690433D02*
X0001078740Y0002660433D01*
X0001128740Y0002382933D02*
X0001128740Y0002380433D01*
G04 #@! TO.N,BACK*
X0000998740Y0002480433D02*
X0000998740Y0002567933D01*
X0001053740Y0002425433D02*
X0000998740Y0002480433D01*
X0001053740Y0002410433D02*
X0001053740Y0002425433D01*
X0001078740Y0002385433D02*
X0001053740Y0002410433D01*
X0000983503Y0002583169D02*
X0000983503Y0002692933D01*
X0000998740Y0002567933D02*
X0000983503Y0002583169D01*
X0001076240Y0002385433D02*
X0001078740Y0002385433D01*
X0000998740Y0002690433D02*
X0000998503Y0002690433D01*
X0000998740Y0002690433D02*
X0000998503Y0002690433D01*
G04 #@! TO.N,FORWARD*
X0000976240Y0002385433D02*
X0000976240Y0002542933D01*
X0000873661Y0002573011D02*
X0000873661Y0002692933D01*
X0000888740Y0002557933D02*
X0000873661Y0002573011D01*
X0000961240Y0002557933D02*
X0000888740Y0002557933D01*
X0000976240Y0002542933D02*
X0000961240Y0002557933D01*
X0000888661Y0002690433D02*
X0000888740Y0002690433D01*
X0000978740Y0002385433D02*
X0000976240Y0002385433D01*
X0000888740Y0002690433D02*
X0000888661Y0002690433D01*
G04 #@! TO.N,BT3*
X0001313818Y0002692933D02*
X0001313818Y0002540354D01*
X0000968740Y0001580433D02*
X0000968740Y0001620433D01*
X0001008740Y0001540433D02*
X0000968740Y0001580433D01*
X0001293740Y0001540433D02*
X0001008740Y0001540433D01*
X0001313818Y0002540354D02*
X0001383740Y0002470433D01*
X0001328818Y0002690433D02*
X0001328740Y0002690433D01*
X0001328818Y0002690433D02*
X0001328740Y0002690433D01*
X0001383740Y0001630433D02*
X0001293740Y0001540433D01*
X0001383740Y0002470433D02*
X0001383740Y0001630433D01*
G04 #@! TO.N,BT1*
X0001128740Y0002510433D02*
X0001131240Y0002510433D01*
X0001176240Y0002465433D02*
X0001176240Y0002385433D01*
X0001131240Y0002510433D02*
X0001176240Y0002465433D01*
X0001178740Y0002405433D02*
X0001178740Y0002385433D01*
X0001178740Y0002385433D02*
X0001176240Y0002385433D01*
G04 #@! TO.N,Net-(R1-Pad1)*
X0000978740Y0002200433D02*
X0000953740Y0002175433D01*
X0000953740Y0002175433D02*
X0000948740Y0002175433D01*
X0000948740Y0002175433D02*
X0000948740Y0002095433D01*
X0000948740Y0002095433D02*
X0000958740Y0002085433D01*
G04 #@! TO.N,Net-(R3-Pad1)*
X0001253740Y0001805433D02*
X0001318740Y0001870433D01*
X0001048740Y0001915433D02*
X0001048740Y0001830433D01*
X0001048740Y0001830433D02*
X0001068740Y0001830433D01*
X0001068740Y0001830433D02*
X0001093740Y0001805433D01*
X0001093740Y0001805433D02*
X0001095039Y0001806433D01*
X0001095039Y0001806433D02*
X0001093740Y0001805433D01*
X0001093740Y0001805433D02*
X0001163740Y0001805433D01*
X0001318740Y0001870433D02*
X0001318889Y0001870433D01*
G04 #@! TO.N,Net-(JP1-Pad1)*
X0001320889Y0001668283D02*
X0001320889Y0001704433D01*
X0001320889Y0001704433D02*
X0001318740Y0001705433D01*
X0001318740Y0001705433D02*
X0001303740Y0001720433D01*
X0001331240Y0001657933D02*
X0001320889Y0001668283D01*
G04 #@! TO.N,Net-(Q2-Pad1)*
X0001214590Y0001704433D02*
X0001214590Y0001659582D01*
X0001214590Y0001659582D02*
X0001218740Y0001655433D01*
X0001214590Y0001704433D02*
X0001213740Y0001705433D01*
G04 #@! TO.N,Net-(D1-Pad2)*
X0001053700Y0002470472D02*
X0001053700Y0002505433D01*
X0001083740Y0002440433D02*
X0001053700Y0002470472D01*
G04 #@! TD*
G04 next file*
G04 #@! TF.GenerationSoftware,KiCad,Pcbnew,(5.0.2)-1*
G04 #@! TF.CreationDate,2019-07-10T16:32:42+02:00*
G04 #@! TF.ProjectId,joystick tester systest,6a6f7973-7469-4636-9b20-746573746572,rev?*
G04 #@! TF.SameCoordinates,Original*
G04 #@! TF.FileFunction,Copper,L1,Top*
G04 #@! TF.FilePolarity,Positive*
G04 Gerber Fmt 4.6, Leading zero omitted, Abs format (unit mm)*
G04 Created by KiCad (PCBNEW (5.0.2)-1) date 10-7-2019 16:32:42*
G01G01*
G04 APERTURE LIST*
G04 #@! TA.AperFunction,SMDPad,CuDef*
G04 #@! TD*
G04 #@! TA.AperFunction,SMDPad,CuDef*
G04 #@! TD*
G04 #@! TA.AperFunction,SMDPad,CuDef*
G04 #@! TD*
G04 #@! TA.AperFunction,SMDPad,CuDef*
G04 #@! TD*
G04 #@! TA.AperFunction,ConnectorPad*
G04 #@! TD*
G04 #@! TA.AperFunction,ComponentPad*
G04 #@! TD*
G04 #@! TA.AperFunction,ComponentPad*
G04 #@! TD*
G04 #@! TA.AperFunction,SMDPad,CuDef*
G04 #@! TD*
G04 #@! TA.AperFunction,ViaPad*
G04 #@! TD*
G04 #@! TA.AperFunction,Conductor*
G04 #@! TD*
G04 APERTURE END LIST*
D90*
G04 #@! TO.P,U3,16*
G04 #@! TO.N,FORWARD*
X-0004173228Y0006535433D02*
X0001724271Y0002385433D03*
G04 #@! TO.P,U3,14*
G04 #@! TO.N,BACK*
X0001824271Y0002385433D03*
G04 #@! TO.P,U3,13*
G04 #@! TO.N,LEFT*
X0001874271Y0002385433D03*
G04 #@! TO.P,U3,12*
G04 #@! TO.N,BT1*
X0001924271Y0002385433D03*
G04 #@! TO.P,U3,11*
G04 #@! TO.N,Net-(U3-Pad11)*
X0001974271Y0002385433D03*
G04 #@! TO.P,U3,10*
G04 #@! TO.N,Net-(U3-Pad10)*
X0002024271Y0002385433D03*
G04 #@! TO.P,U3,9*
G04 #@! TO.N,Net-(U3-Pad9)*
X0002074271Y0002385433D03*
G04 #@! TO.P,U3,8*
G04 #@! TO.N,GND*
X0002074271Y0002135433D03*
G04 #@! TO.P,U3,7*
G04 #@! TO.N,Net-(U3-Pad7)*
X0002024271Y0002135433D03*
G04 #@! TO.P,U3,6*
G04 #@! TO.N,Net-(U3-Pad6)*
X0001974271Y0002135433D03*
G04 #@! TO.P,U3,5*
G04 #@! TO.N,Net-(U2-Pad10)*
X0001924271Y0002135433D03*
G04 #@! TO.P,U3,4*
G04 #@! TO.N,Net-(U2-Pad7)*
X0001874271Y0002135433D03*
G04 #@! TO.P,U3,3*
G04 #@! TO.N,Net-(U2-Pad4)*
X0001824271Y0002135433D03*
G04 #@! TO.P,U3,2*
G04 #@! TO.N,Net-(U2-Pad2)*
X0001774271Y0002135433D03*
G04 #@! TO.P,U3,1*
G04 #@! TO.N,Net-(U2-Pad3)*
X0001724271Y0002135433D03*
G04 #@! TO.P,U3,15*
G04 #@! TO.N,RIGHT*
X0001774271Y0002385433D03*
G04 #@! TD*
D91*
G04 #@! TO.P,U1,1*
G04 #@! TO.N,GND*
X0001630472Y0001856433D03*
G04 #@! TO.P,U1,2*
G04 #@! TO.N,THR*
X0001630472Y0001806433D03*
G04 #@! TO.P,U1,3*
G04 #@! TO.N,Net-(U1-Pad3)*
X0001630472Y0001756433D03*
G04 #@! TO.P,U1,4*
G04 #@! TO.N,VCC*
X0001630472Y0001706433D03*
G04 #@! TO.P,U1,5*
G04 #@! TO.N,Net-(C1-Pad1)*
X0001843070Y0001706433D03*
G04 #@! TO.P,U1,6*
G04 #@! TO.N,THR*
X0001843070Y0001756433D03*
G04 #@! TO.P,U1,7*
G04 #@! TO.N,Net-(R3-Pad1)*
X0001843070Y0001806433D03*
G04 #@! TO.P,U1,8*
G04 #@! TO.N,VCC*
X0001843070Y0001856433D03*
G04 #@! TD*
D92*
G04 #@! TO.P,R2,1*
G04 #@! TO.N,Net-(JP1-Pad1)*
X0002068921Y0001704433D03*
G04 #@! TO.P,R2,2*
G04 #@! TO.N,Net-(Q2-Pad1)*
X0001962622Y0001704433D03*
G04 #@! TD*
G04 #@! TO.P,R4,1*
G04 #@! TO.N,VCC*
X0001960622Y0001870433D03*
G04 #@! TO.P,R4,2*
G04 #@! TO.N,Net-(R3-Pad1)*
X0002066921Y0001870433D03*
G04 #@! TD*
D93*
G04 #@! TO.P,C1,1*
G04 #@! TO.N,Net-(C1-Pad1)*
X0001955984Y0001976433D03*
G04 #@! TO.P,C1,2*
G04 #@! TO.N,GND*
X0001857559Y0001976433D03*
G04 #@! TD*
G04 #@! TO.P,C2,1*
G04 #@! TO.N,THR*
X0001657559Y0001976433D03*
G04 #@! TO.P,C2,2*
G04 #@! TO.N,GND*
X0001755984Y0001976433D03*
G04 #@! TD*
D94*
G04 #@! TO.P,J1,4*
G04 #@! TO.N,RIGHT*
X0001951614Y0002692933D03*
G04 #@! TO.P,J1,3*
G04 #@! TO.N,LEFT*
X0001841771Y0002692933D03*
G04 #@! TO.P,J1,2*
G04 #@! TO.N,BACK*
X0001731535Y0002692933D03*
G04 #@! TO.P,J1,1*
G04 #@! TO.N,FORWARD*
X0001621692Y0002692933D03*
G04 #@! TO.P,J1,5*
G04 #@! TO.N,BT3*
X0002061850Y0002692933D03*
G04 #@! TD*
D95*
G04 #@! TO.P,JP1,1*
G04 #@! TO.N,Net-(JP1-Pad1)*
X0001606771Y0002212933D03*
D96*
G04 #@! TO.P,JP1,2*
G04 #@! TO.N,Net-(JP1-Pad2)*
X0001606771Y0002262933D03*
G04 #@! TO.P,JP1,3*
G04 #@! TO.N,RST*
X0001606771Y0002312933D03*
G04 #@! TD*
D97*
G04 #@! TO.P,D1,1*
G04 #@! TO.N,RST*
X0001671811Y0002505433D03*
G04 #@! TO.P,D1,2*
G04 #@! TO.N,Net-(D1-Pad2)*
X0001801732Y0002505433D03*
G04 #@! TD*
D98*
G04 #@! TO.N,VCC*
X0001606771Y0002110433D03*
X0001571771Y0002522933D03*
X0001961771Y0001912933D03*
X0001711771Y0002320433D03*
X0001936771Y0001770433D03*
X0001811771Y0001645433D03*
G04 #@! TO.N,GND*
X0001576771Y0001815433D03*
X0002041771Y0002435433D03*
X0001991771Y0002555433D03*
X0001874271Y0002087933D03*
X0002081771Y0002320433D03*
X0002026771Y0002200433D03*
X0001621771Y0001915433D03*
X0001716771Y0001915433D03*
G04 #@! TO.N,THR*
X0001686771Y0001790433D03*
X0001786771Y0001790433D03*
X0001661771Y0001915433D03*
G04 #@! TO.N,Net-(U1-Pad3)*
X0001686771Y0001750433D03*
X0001561771Y0001875433D03*
X0001791771Y0002080433D03*
G04 #@! TO.N,RST*
X0001751771Y0002085433D03*
G04 #@! TO.N,Net-(C1-Pad1)*
X0001786771Y0001745433D03*
X0001891771Y0001915433D03*
G04 #@! TO.N,Net-(U2-Pad10)*
X0001956771Y0002085433D03*
G04 #@! TO.N,Net-(U2-Pad7)*
X0001976771Y0002320433D03*
G04 #@! TO.N,Net-(U2-Pad4)*
X0001826771Y0002320433D03*
G04 #@! TO.N,Net-(U2-Pad3)*
X0001746771Y0002250433D03*
G04 #@! TO.N,Net-(U2-Pad2)*
X0001776771Y0002320433D03*
G04 #@! TO.N,RIGHT*
X0001941771Y0002522933D03*
X0001666771Y0002435433D03*
G04 #@! TO.N,BT3*
X0001716771Y0001620433D03*
G04 #@! TO.N,BT1*
X0001876771Y0002510433D03*
G04 #@! TO.N,Net-(R1-Pad1)*
X0001726771Y0002200433D03*
X0001706771Y0002085433D03*
G04 #@! TO.N,Net-(R3-Pad1)*
X0002001771Y0001805433D03*
X0001796771Y0001915433D03*
X0001911771Y0001805433D03*
G04 #@! TO.N,Net-(JP1-Pad1)*
X0002079271Y0001657933D03*
G04 #@! TO.N,Net-(Q2-Pad1)*
X0001966771Y0001655433D03*
G04 #@! TO.N,Net-(D1-Pad2)*
X0001831771Y0002440433D03*
G04 #@! TD*
D99*
G04 #@! TO.N,Net-(U3-Pad7)*
X0002026771Y0002132933D02*
X0002026771Y0002130433D01*
X0002026771Y0002130433D02*
X0002031771Y0002135433D01*
X0002026771Y0002145433D02*
X0002026771Y0002132933D01*
G04 #@! TO.N,VCC*
X0001606771Y0002145433D02*
X0001606771Y0002110433D01*
X0001571771Y0002180433D02*
X0001606771Y0002145433D01*
X0001571771Y0002522933D02*
X0001571771Y0002180433D01*
X0001960622Y0001911783D02*
X0001960622Y0001870433D01*
X0001961771Y0001912933D02*
X0001960622Y0001911783D01*
X0001696771Y0002345433D02*
X0001711771Y0002330433D01*
X0001711771Y0002330433D02*
X0001711771Y0002320433D01*
X0001843070Y0001856433D02*
X0001841771Y0001855433D01*
X0001841771Y0001855433D02*
X0001861771Y0001855433D01*
X0001861771Y0001855433D02*
X0001881771Y0001835433D01*
X0001881771Y0001835433D02*
X0001911771Y0001835433D01*
X0001691771Y0001645433D02*
X0001631771Y0001705433D01*
X0001631771Y0001705433D02*
X0001630472Y0001706433D01*
X0001843070Y0001856433D02*
X0001841771Y0001855433D01*
X0001841771Y0001855433D02*
X0001946771Y0001855433D01*
X0001946771Y0001855433D02*
X0001961771Y0001870433D01*
X0001961771Y0001870433D02*
X0001960622Y0001870433D01*
X0001911771Y0001835433D02*
X0001916771Y0001830433D01*
X0001916771Y0001830433D02*
X0001926771Y0001830433D01*
X0001926771Y0001830433D02*
X0001936771Y0001820433D01*
X0001936771Y0001820433D02*
X0001936771Y0001770433D01*
X0001811771Y0001645433D02*
X0001691771Y0001645433D01*
G04 #@! TO.N,GND*
X0001587771Y0001856433D02*
X0001630472Y0001856433D01*
X0001576771Y0001845433D02*
X0001587771Y0001856433D01*
X0001576771Y0001815433D02*
X0001576771Y0001845433D01*
X0002041771Y0002435433D02*
X0001991771Y0002485433D01*
X0001991771Y0002485433D02*
X0001991771Y0002555433D01*
X0001857559Y0001976433D02*
X0001857559Y0001988720D01*
X0001857559Y0001988720D02*
X0001874271Y0002005433D01*
X0001874271Y0002005433D02*
X0001874271Y0002087933D01*
X0002074271Y0002135433D02*
X0002076771Y0002135433D01*
X0002076771Y0002135433D02*
X0002081771Y0002140433D01*
X0002081771Y0002140433D02*
X0002081771Y0002320433D01*
X0001857559Y0001976433D02*
X0001856771Y0001975433D01*
X0002026771Y0002200433D02*
X0002076771Y0002150433D01*
X0002076771Y0002150433D02*
X0002076771Y0002135433D01*
X0002076771Y0002135433D02*
X0002074271Y0002135433D01*
X0001630472Y0001856433D02*
X0001631771Y0001855433D01*
X0001631771Y0001855433D02*
X0001621771Y0001865433D01*
X0001621771Y0001865433D02*
X0001621771Y0001915433D01*
X0001716771Y0001915433D02*
X0001756771Y0001955433D01*
X0001756771Y0001955433D02*
X0001756771Y0001975433D01*
X0001756771Y0001975433D02*
X0001755984Y0001976433D01*
X0001631771Y0001855433D02*
X0001630472Y0001856433D01*
X0001857559Y0001976433D02*
X0001856771Y0001975433D01*
X0001755984Y0001976433D02*
X0001756771Y0001975433D01*
X0001756771Y0001975433D02*
X0001856771Y0001975433D01*
X0001856771Y0001975433D02*
X0001857559Y0001976433D01*
G04 #@! TO.N,THR*
X0001630472Y0001806433D02*
X0001631771Y0001805433D01*
X0001631771Y0001805433D02*
X0001671771Y0001805433D01*
X0001671771Y0001805433D02*
X0001686771Y0001790433D01*
X0001786771Y0001790433D02*
X0001796771Y0001780433D01*
X0001796771Y0001780433D02*
X0001816771Y0001780433D01*
X0001816771Y0001780433D02*
X0001841771Y0001755433D01*
X0001841771Y0001755433D02*
X0001843070Y0001756433D01*
X0001657559Y0001976433D02*
X0001656771Y0001975433D01*
X0001656771Y0001975433D02*
X0001686771Y0001945433D01*
X0001686771Y0001945433D02*
X0001686771Y0001900433D01*
X0001686771Y0001900433D02*
X0001676771Y0001890433D01*
X0001676771Y0001890433D02*
X0001676771Y0001830433D01*
X0001676771Y0001830433D02*
X0001656771Y0001830433D01*
X0001656771Y0001830433D02*
X0001631771Y0001805433D01*
X0001631771Y0001805433D02*
X0001630472Y0001806433D01*
X0001657559Y0001976433D02*
X0001656771Y0001975433D01*
X0001656771Y0001975433D02*
X0001661771Y0001970433D01*
X0001661771Y0001970433D02*
X0001661771Y0001915433D01*
G04 #@! TO.N,Net-(U1-Pad3)*
X0001630472Y0001756433D02*
X0001631771Y0001755433D01*
X0001631771Y0001755433D02*
X0001681771Y0001755433D01*
X0001681771Y0001755433D02*
X0001686771Y0001750433D01*
X0001561771Y0001875433D02*
X0001596771Y0001910433D01*
X0001596771Y0001910433D02*
X0001596771Y0001930433D01*
X0001596771Y0001930433D02*
X0001611771Y0001945433D01*
X0001611771Y0001945433D02*
X0001611771Y0002015433D01*
X0001611771Y0002015433D02*
X0001726771Y0002015433D01*
X0001726771Y0002015433D02*
X0001791771Y0002080433D01*
X0001641771Y0001765433D02*
X0001631771Y0001755433D01*
X0001631771Y0001755433D02*
X0001630472Y0001756433D01*
G04 #@! TO.N,RST*
X0001671811Y0002505433D02*
X0001641771Y0002505433D01*
X0001606771Y0002470433D02*
X0001606771Y0002312933D01*
X0001641771Y0002505433D02*
X0001606771Y0002470433D01*
X0001751771Y0002085433D02*
X0001746771Y0002085433D01*
X0001746771Y0002085433D02*
X0001721771Y0002060433D01*
X0001721771Y0002060433D02*
X0001691771Y0002060433D01*
X0001691771Y0002060433D02*
X0001641771Y0002110433D01*
X0001641771Y0002110433D02*
X0001641771Y0002295433D01*
X0001641771Y0002295433D02*
X0001621771Y0002295433D01*
X0001621771Y0002295433D02*
X0001606771Y0002310433D01*
X0001606771Y0002310433D02*
X0001606771Y0002312933D01*
G04 #@! TO.N,Net-(C1-Pad1)*
X0001843070Y0001706433D02*
X0001841771Y0001705433D01*
X0001841771Y0001705433D02*
X0001821771Y0001705433D01*
X0001821771Y0001705433D02*
X0001786771Y0001740433D01*
X0001786771Y0001740433D02*
X0001786771Y0001745433D01*
X0001891771Y0001915433D02*
X0001896771Y0001915433D01*
X0001896771Y0001915433D02*
X0001956771Y0001975433D01*
X0001956771Y0001975433D02*
X0001955984Y0001976433D01*
G04 #@! TO.N,Net-(U2-Pad10)*
X0001956771Y0002085433D02*
X0001926771Y0002115433D01*
X0001926771Y0002115433D02*
X0001926771Y0002135433D01*
X0001926771Y0002135433D02*
X0001924271Y0002135433D01*
G04 #@! TO.N,Net-(U2-Pad7)*
X0001874271Y0002135433D02*
X0001876771Y0002135433D01*
X0001876771Y0002135433D02*
X0001896771Y0002155433D01*
X0001896771Y0002155433D02*
X0001896771Y0002175433D01*
X0001896771Y0002175433D02*
X0001976771Y0002255433D01*
X0001976771Y0002255433D02*
X0001976771Y0002320433D01*
X0001876771Y0002120433D02*
X0001876771Y0002132933D01*
G04 #@! TO.N,Net-(U2-Pad4)*
X0001826771Y0002320433D02*
X0001826771Y0002135433D01*
X0001826771Y0002135433D02*
X0001824271Y0002135433D01*
G04 #@! TO.N,Net-(U2-Pad3)*
X0001746771Y0002250433D02*
X0001751771Y0002245433D01*
X0001751771Y0002245433D02*
X0001751771Y0002185433D01*
X0001751771Y0002185433D02*
X0001726771Y0002160433D01*
X0001726771Y0002160433D02*
X0001726771Y0002135433D01*
X0001726771Y0002135433D02*
X0001724271Y0002135433D01*
G04 #@! TO.N,Net-(U2-Pad2)*
X0001776771Y0002320433D02*
X0001776771Y0002135433D01*
X0001776771Y0002135433D02*
X0001774271Y0002135433D01*
G04 #@! TO.N,RIGHT*
X0001941771Y0002522933D02*
X0001941771Y0002557933D01*
X0001666771Y0002435433D02*
X0001671771Y0002430433D01*
X0001671771Y0002430433D02*
X0001671771Y0002335433D01*
X0001671771Y0002335433D02*
X0001676771Y0002330433D01*
X0001676771Y0002330433D02*
X0001676771Y0002325433D01*
X0001676771Y0002325433D02*
X0001686771Y0002315433D01*
X0001686771Y0002315433D02*
X0001686771Y0002305433D01*
X0001686771Y0002305433D02*
X0001696771Y0002295433D01*
X0001696771Y0002295433D02*
X0001726771Y0002295433D01*
X0001726771Y0002295433D02*
X0001751771Y0002320433D01*
X0001751771Y0002320433D02*
X0001751771Y0002335433D01*
X0001751771Y0002335433D02*
X0001776771Y0002360433D01*
X0001776771Y0002385433D02*
X0001776771Y0002360433D01*
X0001951614Y0002567775D02*
X0001951614Y0002692933D01*
X0001941771Y0002557933D02*
X0001951614Y0002567775D01*
X0001966614Y0002690433D02*
X0001966771Y0002690433D01*
X0001776771Y0002385433D02*
X0001774271Y0002385433D01*
X0001966614Y0002690433D02*
X0001966771Y0002690433D01*
X0001966771Y0002690433D02*
X0001951771Y0002675433D01*
X0001776771Y0002382933D02*
X0001776771Y0002380433D01*
G04 #@! TO.N,LEFT*
X0001841771Y0002692933D02*
X0001841771Y0002485433D01*
X0001874271Y0002452933D02*
X0001874271Y0002385433D01*
X0001841771Y0002485433D02*
X0001874271Y0002452933D01*
X0001856771Y0002690433D02*
X0001876771Y0002670433D01*
X0001876771Y0002385433D02*
X0001874271Y0002385433D01*
X0001856771Y0002690433D02*
X0001826771Y0002660433D01*
X0001876771Y0002382933D02*
X0001876771Y0002380433D01*
G04 #@! TO.N,BACK*
X0001746771Y0002480433D02*
X0001746771Y0002567933D01*
X0001801771Y0002425433D02*
X0001746771Y0002480433D01*
X0001801771Y0002410433D02*
X0001801771Y0002425433D01*
X0001826771Y0002385433D02*
X0001801771Y0002410433D01*
X0001731535Y0002583169D02*
X0001731535Y0002692933D01*
X0001746771Y0002567933D02*
X0001731535Y0002583169D01*
X0001824271Y0002385433D02*
X0001826771Y0002385433D01*
X0001746771Y0002690433D02*
X0001746535Y0002690433D01*
X0001746771Y0002690433D02*
X0001746535Y0002690433D01*
G04 #@! TO.N,FORWARD*
X0001724271Y0002385433D02*
X0001724271Y0002542933D01*
X0001621692Y0002573011D02*
X0001621692Y0002692933D01*
X0001636771Y0002557933D02*
X0001621692Y0002573011D01*
X0001709271Y0002557933D02*
X0001636771Y0002557933D01*
X0001724271Y0002542933D02*
X0001709271Y0002557933D01*
X0001636692Y0002690433D02*
X0001636771Y0002690433D01*
X0001726771Y0002385433D02*
X0001724271Y0002385433D01*
X0001636771Y0002690433D02*
X0001636692Y0002690433D01*
G04 #@! TO.N,BT3*
X0002061850Y0002692933D02*
X0002061850Y0002540354D01*
X0001716771Y0001580433D02*
X0001716771Y0001620433D01*
X0001756771Y0001540433D02*
X0001716771Y0001580433D01*
X0002041771Y0001540433D02*
X0001756771Y0001540433D01*
X0002061850Y0002540354D02*
X0002131771Y0002470433D01*
X0002076850Y0002690433D02*
X0002076771Y0002690433D01*
X0002076850Y0002690433D02*
X0002076771Y0002690433D01*
X0002131771Y0001630433D02*
X0002041771Y0001540433D01*
X0002131771Y0002470433D02*
X0002131771Y0001630433D01*
G04 #@! TO.N,BT1*
X0001876771Y0002510433D02*
X0001879271Y0002510433D01*
X0001924271Y0002465433D02*
X0001924271Y0002385433D01*
X0001879271Y0002510433D02*
X0001924271Y0002465433D01*
X0001926771Y0002405433D02*
X0001926771Y0002385433D01*
X0001926771Y0002385433D02*
X0001924271Y0002385433D01*
G04 #@! TO.N,Net-(R1-Pad1)*
X0001726771Y0002200433D02*
X0001701771Y0002175433D01*
X0001701771Y0002175433D02*
X0001696771Y0002175433D01*
X0001696771Y0002175433D02*
X0001696771Y0002095433D01*
X0001696771Y0002095433D02*
X0001706771Y0002085433D01*
G04 #@! TO.N,Net-(R3-Pad1)*
X0002001771Y0001805433D02*
X0002066771Y0001870433D01*
X0001796771Y0001915433D02*
X0001796771Y0001830433D01*
X0001796771Y0001830433D02*
X0001816771Y0001830433D01*
X0001816771Y0001830433D02*
X0001841771Y0001805433D01*
X0001841771Y0001805433D02*
X0001843070Y0001806433D01*
X0001843070Y0001806433D02*
X0001841771Y0001805433D01*
X0001841771Y0001805433D02*
X0001911771Y0001805433D01*
X0002066771Y0001870433D02*
X0002066921Y0001870433D01*
G04 #@! TO.N,Net-(JP1-Pad1)*
X0002068921Y0001668283D02*
X0002068921Y0001704433D01*
X0002068921Y0001704433D02*
X0002066771Y0001705433D01*
X0002066771Y0001705433D02*
X0002051771Y0001720433D01*
X0002079271Y0001657933D02*
X0002068921Y0001668283D01*
G04 #@! TO.N,Net-(Q2-Pad1)*
X0001962622Y0001704433D02*
X0001962622Y0001659582D01*
X0001962622Y0001659582D02*
X0001966771Y0001655433D01*
X0001962622Y0001704433D02*
X0001961771Y0001705433D01*
G04 #@! TO.N,Net-(D1-Pad2)*
X0001801732Y0002470472D02*
X0001801732Y0002505433D01*
X0001831771Y0002440433D02*
X0001801732Y0002470472D01*
G04 #@! TD*
G04 next file*
G04 #@! TF.GenerationSoftware,KiCad,Pcbnew,(5.0.2)-1*
G04 #@! TF.CreationDate,2019-07-10T16:32:42+02:00*
G04 #@! TF.ProjectId,joystick tester systest,6a6f7973-7469-4636-9b20-746573746572,rev?*
G04 #@! TF.SameCoordinates,Original*
G04 #@! TF.FileFunction,Copper,L1,Top*
G04 #@! TF.FilePolarity,Positive*
G04 Gerber Fmt 4.6, Leading zero omitted, Abs format (unit mm)*
G04 Created by KiCad (PCBNEW (5.0.2)-1) date 10-7-2019 16:32:42*
G01G01*
G04 APERTURE LIST*
G04 #@! TA.AperFunction,SMDPad,CuDef*
G04 #@! TD*
G04 #@! TA.AperFunction,SMDPad,CuDef*
G04 #@! TD*
G04 #@! TA.AperFunction,SMDPad,CuDef*
G04 #@! TD*
G04 #@! TA.AperFunction,SMDPad,CuDef*
G04 #@! TD*
G04 #@! TA.AperFunction,ConnectorPad*
G04 #@! TD*
G04 #@! TA.AperFunction,ComponentPad*
G04 #@! TD*
G04 #@! TA.AperFunction,ComponentPad*
G04 #@! TD*
G04 #@! TA.AperFunction,SMDPad,CuDef*
G04 #@! TD*
G04 #@! TA.AperFunction,ViaPad*
G04 #@! TD*
G04 #@! TA.AperFunction,Conductor*
G04 #@! TD*
G04 APERTURE END LIST*
D100*
G04 #@! TO.P,U3,16*
G04 #@! TO.N,FORWARD*
X-0003425196Y0006535433D02*
X0002472303Y0002385433D03*
G04 #@! TO.P,U3,14*
G04 #@! TO.N,BACK*
X0002572303Y0002385433D03*
G04 #@! TO.P,U3,13*
G04 #@! TO.N,LEFT*
X0002622303Y0002385433D03*
G04 #@! TO.P,U3,12*
G04 #@! TO.N,BT1*
X0002672303Y0002385433D03*
G04 #@! TO.P,U3,11*
G04 #@! TO.N,Net-(U3-Pad11)*
X0002722303Y0002385433D03*
G04 #@! TO.P,U3,10*
G04 #@! TO.N,Net-(U3-Pad10)*
X0002772303Y0002385433D03*
G04 #@! TO.P,U3,9*
G04 #@! TO.N,Net-(U3-Pad9)*
X0002822303Y0002385433D03*
G04 #@! TO.P,U3,8*
G04 #@! TO.N,GND*
X0002822303Y0002135433D03*
G04 #@! TO.P,U3,7*
G04 #@! TO.N,Net-(U3-Pad7)*
X0002772303Y0002135433D03*
G04 #@! TO.P,U3,6*
G04 #@! TO.N,Net-(U3-Pad6)*
X0002722303Y0002135433D03*
G04 #@! TO.P,U3,5*
G04 #@! TO.N,Net-(U2-Pad10)*
X0002672303Y0002135433D03*
G04 #@! TO.P,U3,4*
G04 #@! TO.N,Net-(U2-Pad7)*
X0002622303Y0002135433D03*
G04 #@! TO.P,U3,3*
G04 #@! TO.N,Net-(U2-Pad4)*
X0002572303Y0002135433D03*
G04 #@! TO.P,U3,2*
G04 #@! TO.N,Net-(U2-Pad2)*
X0002522303Y0002135433D03*
G04 #@! TO.P,U3,1*
G04 #@! TO.N,Net-(U2-Pad3)*
X0002472303Y0002135433D03*
G04 #@! TO.P,U3,15*
G04 #@! TO.N,RIGHT*
X0002522303Y0002385433D03*
G04 #@! TD*
D101*
G04 #@! TO.P,U1,1*
G04 #@! TO.N,GND*
X0002378503Y0001856433D03*
G04 #@! TO.P,U1,2*
G04 #@! TO.N,THR*
X0002378503Y0001806433D03*
G04 #@! TO.P,U1,3*
G04 #@! TO.N,Net-(U1-Pad3)*
X0002378503Y0001756433D03*
G04 #@! TO.P,U1,4*
G04 #@! TO.N,VCC*
X0002378503Y0001706433D03*
G04 #@! TO.P,U1,5*
G04 #@! TO.N,Net-(C1-Pad1)*
X0002591102Y0001706433D03*
G04 #@! TO.P,U1,6*
G04 #@! TO.N,THR*
X0002591102Y0001756433D03*
G04 #@! TO.P,U1,7*
G04 #@! TO.N,Net-(R3-Pad1)*
X0002591102Y0001806433D03*
G04 #@! TO.P,U1,8*
G04 #@! TO.N,VCC*
X0002591102Y0001856433D03*
G04 #@! TD*
D102*
G04 #@! TO.P,R2,1*
G04 #@! TO.N,Net-(JP1-Pad1)*
X0002816952Y0001704433D03*
G04 #@! TO.P,R2,2*
G04 #@! TO.N,Net-(Q2-Pad1)*
X0002710653Y0001704433D03*
G04 #@! TD*
G04 #@! TO.P,R4,1*
G04 #@! TO.N,VCC*
X0002708653Y0001870433D03*
G04 #@! TO.P,R4,2*
G04 #@! TO.N,Net-(R3-Pad1)*
X0002814952Y0001870433D03*
G04 #@! TD*
D103*
G04 #@! TO.P,C1,1*
G04 #@! TO.N,Net-(C1-Pad1)*
X0002704015Y0001976433D03*
G04 #@! TO.P,C1,2*
G04 #@! TO.N,GND*
X0002605590Y0001976433D03*
G04 #@! TD*
G04 #@! TO.P,C2,1*
G04 #@! TO.N,THR*
X0002405590Y0001976433D03*
G04 #@! TO.P,C2,2*
G04 #@! TO.N,GND*
X0002504015Y0001976433D03*
G04 #@! TD*
D104*
G04 #@! TO.P,J1,4*
G04 #@! TO.N,RIGHT*
X0002699645Y0002692933D03*
G04 #@! TO.P,J1,3*
G04 #@! TO.N,LEFT*
X0002589803Y0002692933D03*
G04 #@! TO.P,J1,2*
G04 #@! TO.N,BACK*
X0002479566Y0002692933D03*
G04 #@! TO.P,J1,1*
G04 #@! TO.N,FORWARD*
X0002369724Y0002692933D03*
G04 #@! TO.P,J1,5*
G04 #@! TO.N,BT3*
X0002809881Y0002692933D03*
G04 #@! TD*
D105*
G04 #@! TO.P,JP1,1*
G04 #@! TO.N,Net-(JP1-Pad1)*
X0002354803Y0002212933D03*
D106*
G04 #@! TO.P,JP1,2*
G04 #@! TO.N,Net-(JP1-Pad2)*
X0002354803Y0002262933D03*
G04 #@! TO.P,JP1,3*
G04 #@! TO.N,RST*
X0002354803Y0002312933D03*
G04 #@! TD*
D107*
G04 #@! TO.P,D1,1*
G04 #@! TO.N,RST*
X0002419842Y0002505433D03*
G04 #@! TO.P,D1,2*
G04 #@! TO.N,Net-(D1-Pad2)*
X0002549763Y0002505433D03*
G04 #@! TD*
D108*
G04 #@! TO.N,VCC*
X0002354803Y0002110433D03*
X0002319803Y0002522933D03*
X0002709803Y0001912933D03*
X0002459803Y0002320433D03*
X0002684803Y0001770433D03*
X0002559803Y0001645433D03*
G04 #@! TO.N,GND*
X0002324803Y0001815433D03*
X0002789803Y0002435433D03*
X0002739803Y0002555433D03*
X0002622303Y0002087933D03*
X0002829803Y0002320433D03*
X0002774803Y0002200433D03*
X0002369803Y0001915433D03*
X0002464803Y0001915433D03*
G04 #@! TO.N,THR*
X0002434803Y0001790433D03*
X0002534803Y0001790433D03*
X0002409803Y0001915433D03*
G04 #@! TO.N,Net-(U1-Pad3)*
X0002434803Y0001750433D03*
X0002309803Y0001875433D03*
X0002539803Y0002080433D03*
G04 #@! TO.N,RST*
X0002499803Y0002085433D03*
G04 #@! TO.N,Net-(C1-Pad1)*
X0002534803Y0001745433D03*
X0002639803Y0001915433D03*
G04 #@! TO.N,Net-(U2-Pad10)*
X0002704803Y0002085433D03*
G04 #@! TO.N,Net-(U2-Pad7)*
X0002724803Y0002320433D03*
G04 #@! TO.N,Net-(U2-Pad4)*
X0002574803Y0002320433D03*
G04 #@! TO.N,Net-(U2-Pad3)*
X0002494803Y0002250433D03*
G04 #@! TO.N,Net-(U2-Pad2)*
X0002524803Y0002320433D03*
G04 #@! TO.N,RIGHT*
X0002689803Y0002522933D03*
X0002414803Y0002435433D03*
G04 #@! TO.N,BT3*
X0002464803Y0001620433D03*
G04 #@! TO.N,BT1*
X0002624803Y0002510433D03*
G04 #@! TO.N,Net-(R1-Pad1)*
X0002474803Y0002200433D03*
X0002454803Y0002085433D03*
G04 #@! TO.N,Net-(R3-Pad1)*
X0002749803Y0001805433D03*
X0002544803Y0001915433D03*
X0002659803Y0001805433D03*
G04 #@! TO.N,Net-(JP1-Pad1)*
X0002827303Y0001657933D03*
G04 #@! TO.N,Net-(Q2-Pad1)*
X0002714803Y0001655433D03*
G04 #@! TO.N,Net-(D1-Pad2)*
X0002579803Y0002440433D03*
G04 #@! TD*
D109*
G04 #@! TO.N,Net-(U3-Pad7)*
X0002774803Y0002132933D02*
X0002774803Y0002130433D01*
X0002774803Y0002130433D02*
X0002779803Y0002135433D01*
X0002774803Y0002145433D02*
X0002774803Y0002132933D01*
G04 #@! TO.N,VCC*
X0002354803Y0002145433D02*
X0002354803Y0002110433D01*
X0002319803Y0002180433D02*
X0002354803Y0002145433D01*
X0002319803Y0002522933D02*
X0002319803Y0002180433D01*
X0002708653Y0001911783D02*
X0002708653Y0001870433D01*
X0002709803Y0001912933D02*
X0002708653Y0001911783D01*
X0002444803Y0002345433D02*
X0002459803Y0002330433D01*
X0002459803Y0002330433D02*
X0002459803Y0002320433D01*
X0002591102Y0001856433D02*
X0002589803Y0001855433D01*
X0002589803Y0001855433D02*
X0002609803Y0001855433D01*
X0002609803Y0001855433D02*
X0002629803Y0001835433D01*
X0002629803Y0001835433D02*
X0002659803Y0001835433D01*
X0002439803Y0001645433D02*
X0002379803Y0001705433D01*
X0002379803Y0001705433D02*
X0002378503Y0001706433D01*
X0002591102Y0001856433D02*
X0002589803Y0001855433D01*
X0002589803Y0001855433D02*
X0002694803Y0001855433D01*
X0002694803Y0001855433D02*
X0002709803Y0001870433D01*
X0002709803Y0001870433D02*
X0002708653Y0001870433D01*
X0002659803Y0001835433D02*
X0002664803Y0001830433D01*
X0002664803Y0001830433D02*
X0002674803Y0001830433D01*
X0002674803Y0001830433D02*
X0002684803Y0001820433D01*
X0002684803Y0001820433D02*
X0002684803Y0001770433D01*
X0002559803Y0001645433D02*
X0002439803Y0001645433D01*
G04 #@! TO.N,GND*
X0002335803Y0001856433D02*
X0002378503Y0001856433D01*
X0002324803Y0001845433D02*
X0002335803Y0001856433D01*
X0002324803Y0001815433D02*
X0002324803Y0001845433D01*
X0002789803Y0002435433D02*
X0002739803Y0002485433D01*
X0002739803Y0002485433D02*
X0002739803Y0002555433D01*
X0002605590Y0001976433D02*
X0002605590Y0001988720D01*
X0002605590Y0001988720D02*
X0002622303Y0002005433D01*
X0002622303Y0002005433D02*
X0002622303Y0002087933D01*
X0002822303Y0002135433D02*
X0002824803Y0002135433D01*
X0002824803Y0002135433D02*
X0002829803Y0002140433D01*
X0002829803Y0002140433D02*
X0002829803Y0002320433D01*
X0002605590Y0001976433D02*
X0002604803Y0001975433D01*
X0002774803Y0002200433D02*
X0002824803Y0002150433D01*
X0002824803Y0002150433D02*
X0002824803Y0002135433D01*
X0002824803Y0002135433D02*
X0002822303Y0002135433D01*
X0002378503Y0001856433D02*
X0002379803Y0001855433D01*
X0002379803Y0001855433D02*
X0002369803Y0001865433D01*
X0002369803Y0001865433D02*
X0002369803Y0001915433D01*
X0002464803Y0001915433D02*
X0002504803Y0001955433D01*
X0002504803Y0001955433D02*
X0002504803Y0001975433D01*
X0002504803Y0001975433D02*
X0002504015Y0001976433D01*
X0002379803Y0001855433D02*
X0002378503Y0001856433D01*
X0002605590Y0001976433D02*
X0002604803Y0001975433D01*
X0002504015Y0001976433D02*
X0002504803Y0001975433D01*
X0002504803Y0001975433D02*
X0002604803Y0001975433D01*
X0002604803Y0001975433D02*
X0002605590Y0001976433D01*
G04 #@! TO.N,THR*
X0002378503Y0001806433D02*
X0002379803Y0001805433D01*
X0002379803Y0001805433D02*
X0002419803Y0001805433D01*
X0002419803Y0001805433D02*
X0002434803Y0001790433D01*
X0002534803Y0001790433D02*
X0002544803Y0001780433D01*
X0002544803Y0001780433D02*
X0002564803Y0001780433D01*
X0002564803Y0001780433D02*
X0002589803Y0001755433D01*
X0002589803Y0001755433D02*
X0002591102Y0001756433D01*
X0002405590Y0001976433D02*
X0002404803Y0001975433D01*
X0002404803Y0001975433D02*
X0002434803Y0001945433D01*
X0002434803Y0001945433D02*
X0002434803Y0001900433D01*
X0002434803Y0001900433D02*
X0002424803Y0001890433D01*
X0002424803Y0001890433D02*
X0002424803Y0001830433D01*
X0002424803Y0001830433D02*
X0002404803Y0001830433D01*
X0002404803Y0001830433D02*
X0002379803Y0001805433D01*
X0002379803Y0001805433D02*
X0002378503Y0001806433D01*
X0002405590Y0001976433D02*
X0002404803Y0001975433D01*
X0002404803Y0001975433D02*
X0002409803Y0001970433D01*
X0002409803Y0001970433D02*
X0002409803Y0001915433D01*
G04 #@! TO.N,Net-(U1-Pad3)*
X0002378503Y0001756433D02*
X0002379803Y0001755433D01*
X0002379803Y0001755433D02*
X0002429803Y0001755433D01*
X0002429803Y0001755433D02*
X0002434803Y0001750433D01*
X0002309803Y0001875433D02*
X0002344803Y0001910433D01*
X0002344803Y0001910433D02*
X0002344803Y0001930433D01*
X0002344803Y0001930433D02*
X0002359803Y0001945433D01*
X0002359803Y0001945433D02*
X0002359803Y0002015433D01*
X0002359803Y0002015433D02*
X0002474803Y0002015433D01*
X0002474803Y0002015433D02*
X0002539803Y0002080433D01*
X0002389803Y0001765433D02*
X0002379803Y0001755433D01*
X0002379803Y0001755433D02*
X0002378503Y0001756433D01*
G04 #@! TO.N,RST*
X0002419842Y0002505433D02*
X0002389803Y0002505433D01*
X0002354803Y0002470433D02*
X0002354803Y0002312933D01*
X0002389803Y0002505433D02*
X0002354803Y0002470433D01*
X0002499803Y0002085433D02*
X0002494803Y0002085433D01*
X0002494803Y0002085433D02*
X0002469803Y0002060433D01*
X0002469803Y0002060433D02*
X0002439803Y0002060433D01*
X0002439803Y0002060433D02*
X0002389803Y0002110433D01*
X0002389803Y0002110433D02*
X0002389803Y0002295433D01*
X0002389803Y0002295433D02*
X0002369803Y0002295433D01*
X0002369803Y0002295433D02*
X0002354803Y0002310433D01*
X0002354803Y0002310433D02*
X0002354803Y0002312933D01*
G04 #@! TO.N,Net-(C1-Pad1)*
X0002591102Y0001706433D02*
X0002589803Y0001705433D01*
X0002589803Y0001705433D02*
X0002569803Y0001705433D01*
X0002569803Y0001705433D02*
X0002534803Y0001740433D01*
X0002534803Y0001740433D02*
X0002534803Y0001745433D01*
X0002639803Y0001915433D02*
X0002644803Y0001915433D01*
X0002644803Y0001915433D02*
X0002704803Y0001975433D01*
X0002704803Y0001975433D02*
X0002704015Y0001976433D01*
G04 #@! TO.N,Net-(U2-Pad10)*
X0002704803Y0002085433D02*
X0002674803Y0002115433D01*
X0002674803Y0002115433D02*
X0002674803Y0002135433D01*
X0002674803Y0002135433D02*
X0002672303Y0002135433D01*
G04 #@! TO.N,Net-(U2-Pad7)*
X0002622303Y0002135433D02*
X0002624803Y0002135433D01*
X0002624803Y0002135433D02*
X0002644803Y0002155433D01*
X0002644803Y0002155433D02*
X0002644803Y0002175433D01*
X0002644803Y0002175433D02*
X0002724803Y0002255433D01*
X0002724803Y0002255433D02*
X0002724803Y0002320433D01*
X0002624803Y0002120433D02*
X0002624803Y0002132933D01*
G04 #@! TO.N,Net-(U2-Pad4)*
X0002574803Y0002320433D02*
X0002574803Y0002135433D01*
X0002574803Y0002135433D02*
X0002572303Y0002135433D01*
G04 #@! TO.N,Net-(U2-Pad3)*
X0002494803Y0002250433D02*
X0002499803Y0002245433D01*
X0002499803Y0002245433D02*
X0002499803Y0002185433D01*
X0002499803Y0002185433D02*
X0002474803Y0002160433D01*
X0002474803Y0002160433D02*
X0002474803Y0002135433D01*
X0002474803Y0002135433D02*
X0002472303Y0002135433D01*
G04 #@! TO.N,Net-(U2-Pad2)*
X0002524803Y0002320433D02*
X0002524803Y0002135433D01*
X0002524803Y0002135433D02*
X0002522303Y0002135433D01*
G04 #@! TO.N,RIGHT*
X0002689803Y0002522933D02*
X0002689803Y0002557933D01*
X0002414803Y0002435433D02*
X0002419803Y0002430433D01*
X0002419803Y0002430433D02*
X0002419803Y0002335433D01*
X0002419803Y0002335433D02*
X0002424803Y0002330433D01*
X0002424803Y0002330433D02*
X0002424803Y0002325433D01*
X0002424803Y0002325433D02*
X0002434803Y0002315433D01*
X0002434803Y0002315433D02*
X0002434803Y0002305433D01*
X0002434803Y0002305433D02*
X0002444803Y0002295433D01*
X0002444803Y0002295433D02*
X0002474803Y0002295433D01*
X0002474803Y0002295433D02*
X0002499803Y0002320433D01*
X0002499803Y0002320433D02*
X0002499803Y0002335433D01*
X0002499803Y0002335433D02*
X0002524803Y0002360433D01*
X0002524803Y0002385433D02*
X0002524803Y0002360433D01*
X0002699645Y0002567775D02*
X0002699645Y0002692933D01*
X0002689803Y0002557933D02*
X0002699645Y0002567775D01*
X0002714645Y0002690433D02*
X0002714803Y0002690433D01*
X0002524803Y0002385433D02*
X0002522303Y0002385433D01*
X0002714645Y0002690433D02*
X0002714803Y0002690433D01*
X0002714803Y0002690433D02*
X0002699803Y0002675433D01*
X0002524803Y0002382933D02*
X0002524803Y0002380433D01*
G04 #@! TO.N,LEFT*
X0002589803Y0002692933D02*
X0002589803Y0002485433D01*
X0002622303Y0002452933D02*
X0002622303Y0002385433D01*
X0002589803Y0002485433D02*
X0002622303Y0002452933D01*
X0002604803Y0002690433D02*
X0002624803Y0002670433D01*
X0002624803Y0002385433D02*
X0002622303Y0002385433D01*
X0002604803Y0002690433D02*
X0002574803Y0002660433D01*
X0002624803Y0002382933D02*
X0002624803Y0002380433D01*
G04 #@! TO.N,BACK*
X0002494803Y0002480433D02*
X0002494803Y0002567933D01*
X0002549803Y0002425433D02*
X0002494803Y0002480433D01*
X0002549803Y0002410433D02*
X0002549803Y0002425433D01*
X0002574803Y0002385433D02*
X0002549803Y0002410433D01*
X0002479566Y0002583169D02*
X0002479566Y0002692933D01*
X0002494803Y0002567933D02*
X0002479566Y0002583169D01*
X0002572303Y0002385433D02*
X0002574803Y0002385433D01*
X0002494803Y0002690433D02*
X0002494566Y0002690433D01*
X0002494803Y0002690433D02*
X0002494566Y0002690433D01*
G04 #@! TO.N,FORWARD*
X0002472303Y0002385433D02*
X0002472303Y0002542933D01*
X0002369724Y0002573011D02*
X0002369724Y0002692933D01*
X0002384803Y0002557933D02*
X0002369724Y0002573011D01*
X0002457303Y0002557933D02*
X0002384803Y0002557933D01*
X0002472303Y0002542933D02*
X0002457303Y0002557933D01*
X0002384724Y0002690433D02*
X0002384803Y0002690433D01*
X0002474803Y0002385433D02*
X0002472303Y0002385433D01*
X0002384803Y0002690433D02*
X0002384724Y0002690433D01*
G04 #@! TO.N,BT3*
X0002809881Y0002692933D02*
X0002809881Y0002540354D01*
X0002464803Y0001580433D02*
X0002464803Y0001620433D01*
X0002504803Y0001540433D02*
X0002464803Y0001580433D01*
X0002789803Y0001540433D02*
X0002504803Y0001540433D01*
X0002809881Y0002540354D02*
X0002879803Y0002470433D01*
X0002824881Y0002690433D02*
X0002824803Y0002690433D01*
X0002824881Y0002690433D02*
X0002824803Y0002690433D01*
X0002879803Y0001630433D02*
X0002789803Y0001540433D01*
X0002879803Y0002470433D02*
X0002879803Y0001630433D01*
G04 #@! TO.N,BT1*
X0002624803Y0002510433D02*
X0002627303Y0002510433D01*
X0002672303Y0002465433D02*
X0002672303Y0002385433D01*
X0002627303Y0002510433D02*
X0002672303Y0002465433D01*
X0002674803Y0002405433D02*
X0002674803Y0002385433D01*
X0002674803Y0002385433D02*
X0002672303Y0002385433D01*
G04 #@! TO.N,Net-(R1-Pad1)*
X0002474803Y0002200433D02*
X0002449803Y0002175433D01*
X0002449803Y0002175433D02*
X0002444803Y0002175433D01*
X0002444803Y0002175433D02*
X0002444803Y0002095433D01*
X0002444803Y0002095433D02*
X0002454803Y0002085433D01*
G04 #@! TO.N,Net-(R3-Pad1)*
X0002749803Y0001805433D02*
X0002814803Y0001870433D01*
X0002544803Y0001915433D02*
X0002544803Y0001830433D01*
X0002544803Y0001830433D02*
X0002564803Y0001830433D01*
X0002564803Y0001830433D02*
X0002589803Y0001805433D01*
X0002589803Y0001805433D02*
X0002591102Y0001806433D01*
X0002591102Y0001806433D02*
X0002589803Y0001805433D01*
X0002589803Y0001805433D02*
X0002659803Y0001805433D01*
X0002814803Y0001870433D02*
X0002814952Y0001870433D01*
G04 #@! TO.N,Net-(JP1-Pad1)*
X0002816952Y0001668283D02*
X0002816952Y0001704433D01*
X0002816952Y0001704433D02*
X0002814803Y0001705433D01*
X0002814803Y0001705433D02*
X0002799803Y0001720433D01*
X0002827303Y0001657933D02*
X0002816952Y0001668283D01*
G04 #@! TO.N,Net-(Q2-Pad1)*
X0002710653Y0001704433D02*
X0002710653Y0001659582D01*
X0002710653Y0001659582D02*
X0002714803Y0001655433D01*
X0002710653Y0001704433D02*
X0002709803Y0001705433D01*
G04 #@! TO.N,Net-(D1-Pad2)*
X0002549763Y0002470472D02*
X0002549763Y0002505433D01*
X0002579803Y0002440433D02*
X0002549763Y0002470472D01*
G04 #@! TD*
G04 next file*
G04 #@! TF.GenerationSoftware,KiCad,Pcbnew,(5.0.2)-1*
G04 #@! TF.CreationDate,2019-07-10T16:32:42+02:00*
G04 #@! TF.ProjectId,joystick tester systest,6a6f7973-7469-4636-9b20-746573746572,rev?*
G04 #@! TF.SameCoordinates,Original*
G04 #@! TF.FileFunction,Copper,L1,Top*
G04 #@! TF.FilePolarity,Positive*
G04 Gerber Fmt 4.6, Leading zero omitted, Abs format (unit mm)*
G04 Created by KiCad (PCBNEW (5.0.2)-1) date 10-7-2019 16:32:42*
G01G01*
G04 APERTURE LIST*
G04 #@! TA.AperFunction,SMDPad,CuDef*
G04 #@! TD*
G04 #@! TA.AperFunction,SMDPad,CuDef*
G04 #@! TD*
G04 #@! TA.AperFunction,SMDPad,CuDef*
G04 #@! TD*
G04 #@! TA.AperFunction,SMDPad,CuDef*
G04 #@! TD*
G04 #@! TA.AperFunction,ConnectorPad*
G04 #@! TD*
G04 #@! TA.AperFunction,ComponentPad*
G04 #@! TD*
G04 #@! TA.AperFunction,ComponentPad*
G04 #@! TD*
G04 #@! TA.AperFunction,SMDPad,CuDef*
G04 #@! TD*
G04 #@! TA.AperFunction,ViaPad*
G04 #@! TD*
G04 #@! TA.AperFunction,Conductor*
G04 #@! TD*
G04 APERTURE END LIST*
D110*
G04 #@! TO.P,U3,16*
G04 #@! TO.N,FORWARD*
X-0002677165Y0006535433D02*
X0003220334Y0002385433D03*
G04 #@! TO.P,U3,14*
G04 #@! TO.N,BACK*
X0003320334Y0002385433D03*
G04 #@! TO.P,U3,13*
G04 #@! TO.N,LEFT*
X0003370334Y0002385433D03*
G04 #@! TO.P,U3,12*
G04 #@! TO.N,BT1*
X0003420334Y0002385433D03*
G04 #@! TO.P,U3,11*
G04 #@! TO.N,Net-(U3-Pad11)*
X0003470334Y0002385433D03*
G04 #@! TO.P,U3,10*
G04 #@! TO.N,Net-(U3-Pad10)*
X0003520334Y0002385433D03*
G04 #@! TO.P,U3,9*
G04 #@! TO.N,Net-(U3-Pad9)*
X0003570334Y0002385433D03*
G04 #@! TO.P,U3,8*
G04 #@! TO.N,GND*
X0003570334Y0002135433D03*
G04 #@! TO.P,U3,7*
G04 #@! TO.N,Net-(U3-Pad7)*
X0003520334Y0002135433D03*
G04 #@! TO.P,U3,6*
G04 #@! TO.N,Net-(U3-Pad6)*
X0003470334Y0002135433D03*
G04 #@! TO.P,U3,5*
G04 #@! TO.N,Net-(U2-Pad10)*
X0003420334Y0002135433D03*
G04 #@! TO.P,U3,4*
G04 #@! TO.N,Net-(U2-Pad7)*
X0003370334Y0002135433D03*
G04 #@! TO.P,U3,3*
G04 #@! TO.N,Net-(U2-Pad4)*
X0003320334Y0002135433D03*
G04 #@! TO.P,U3,2*
G04 #@! TO.N,Net-(U2-Pad2)*
X0003270334Y0002135433D03*
G04 #@! TO.P,U3,1*
G04 #@! TO.N,Net-(U2-Pad3)*
X0003220334Y0002135433D03*
G04 #@! TO.P,U3,15*
G04 #@! TO.N,RIGHT*
X0003270334Y0002385433D03*
G04 #@! TD*
D111*
G04 #@! TO.P,U1,1*
G04 #@! TO.N,GND*
X0003126535Y0001856433D03*
G04 #@! TO.P,U1,2*
G04 #@! TO.N,THR*
X0003126535Y0001806433D03*
G04 #@! TO.P,U1,3*
G04 #@! TO.N,Net-(U1-Pad3)*
X0003126535Y0001756433D03*
G04 #@! TO.P,U1,4*
G04 #@! TO.N,VCC*
X0003126535Y0001706433D03*
G04 #@! TO.P,U1,5*
G04 #@! TO.N,Net-(C1-Pad1)*
X0003339133Y0001706433D03*
G04 #@! TO.P,U1,6*
G04 #@! TO.N,THR*
X0003339133Y0001756433D03*
G04 #@! TO.P,U1,7*
G04 #@! TO.N,Net-(R3-Pad1)*
X0003339133Y0001806433D03*
G04 #@! TO.P,U1,8*
G04 #@! TO.N,VCC*
X0003339133Y0001856433D03*
G04 #@! TD*
D112*
G04 #@! TO.P,R2,1*
G04 #@! TO.N,Net-(JP1-Pad1)*
X0003564984Y0001704433D03*
G04 #@! TO.P,R2,2*
G04 #@! TO.N,Net-(Q2-Pad1)*
X0003458685Y0001704433D03*
G04 #@! TD*
G04 #@! TO.P,R4,1*
G04 #@! TO.N,VCC*
X0003456685Y0001870433D03*
G04 #@! TO.P,R4,2*
G04 #@! TO.N,Net-(R3-Pad1)*
X0003562984Y0001870433D03*
G04 #@! TD*
D113*
G04 #@! TO.P,C1,1*
G04 #@! TO.N,Net-(C1-Pad1)*
X0003452047Y0001976433D03*
G04 #@! TO.P,C1,2*
G04 #@! TO.N,GND*
X0003353622Y0001976433D03*
G04 #@! TD*
G04 #@! TO.P,C2,1*
G04 #@! TO.N,THR*
X0003153622Y0001976433D03*
G04 #@! TO.P,C2,2*
G04 #@! TO.N,GND*
X0003252047Y0001976433D03*
G04 #@! TD*
D114*
G04 #@! TO.P,J1,4*
G04 #@! TO.N,RIGHT*
X0003447677Y0002692933D03*
G04 #@! TO.P,J1,3*
G04 #@! TO.N,LEFT*
X0003337834Y0002692933D03*
G04 #@! TO.P,J1,2*
G04 #@! TO.N,BACK*
X0003227598Y0002692933D03*
G04 #@! TO.P,J1,1*
G04 #@! TO.N,FORWARD*
X0003117755Y0002692933D03*
G04 #@! TO.P,J1,5*
G04 #@! TO.N,BT3*
X0003557913Y0002692933D03*
G04 #@! TD*
D115*
G04 #@! TO.P,JP1,1*
G04 #@! TO.N,Net-(JP1-Pad1)*
X0003102834Y0002212933D03*
D116*
G04 #@! TO.P,JP1,2*
G04 #@! TO.N,Net-(JP1-Pad2)*
X0003102834Y0002262933D03*
G04 #@! TO.P,JP1,3*
G04 #@! TO.N,RST*
X0003102834Y0002312933D03*
G04 #@! TD*
D117*
G04 #@! TO.P,D1,1*
G04 #@! TO.N,RST*
X0003167874Y0002505433D03*
G04 #@! TO.P,D1,2*
G04 #@! TO.N,Net-(D1-Pad2)*
X0003297795Y0002505433D03*
G04 #@! TD*
D118*
G04 #@! TO.N,VCC*
X0003102834Y0002110433D03*
X0003067834Y0002522933D03*
X0003457834Y0001912933D03*
X0003207834Y0002320433D03*
X0003432834Y0001770433D03*
X0003307834Y0001645433D03*
G04 #@! TO.N,GND*
X0003072834Y0001815433D03*
X0003537834Y0002435433D03*
X0003487834Y0002555433D03*
X0003370334Y0002087933D03*
X0003577834Y0002320433D03*
X0003522834Y0002200433D03*
X0003117834Y0001915433D03*
X0003212834Y0001915433D03*
G04 #@! TO.N,THR*
X0003182834Y0001790433D03*
X0003282834Y0001790433D03*
X0003157834Y0001915433D03*
G04 #@! TO.N,Net-(U1-Pad3)*
X0003182834Y0001750433D03*
X0003057834Y0001875433D03*
X0003287834Y0002080433D03*
G04 #@! TO.N,RST*
X0003247834Y0002085433D03*
G04 #@! TO.N,Net-(C1-Pad1)*
X0003282834Y0001745433D03*
X0003387834Y0001915433D03*
G04 #@! TO.N,Net-(U2-Pad10)*
X0003452834Y0002085433D03*
G04 #@! TO.N,Net-(U2-Pad7)*
X0003472834Y0002320433D03*
G04 #@! TO.N,Net-(U2-Pad4)*
X0003322834Y0002320433D03*
G04 #@! TO.N,Net-(U2-Pad3)*
X0003242834Y0002250433D03*
G04 #@! TO.N,Net-(U2-Pad2)*
X0003272834Y0002320433D03*
G04 #@! TO.N,RIGHT*
X0003437834Y0002522933D03*
X0003162834Y0002435433D03*
G04 #@! TO.N,BT3*
X0003212834Y0001620433D03*
G04 #@! TO.N,BT1*
X0003372834Y0002510433D03*
G04 #@! TO.N,Net-(R1-Pad1)*
X0003222834Y0002200433D03*
X0003202834Y0002085433D03*
G04 #@! TO.N,Net-(R3-Pad1)*
X0003497834Y0001805433D03*
X0003292834Y0001915433D03*
X0003407834Y0001805433D03*
G04 #@! TO.N,Net-(JP1-Pad1)*
X0003575334Y0001657933D03*
G04 #@! TO.N,Net-(Q2-Pad1)*
X0003462834Y0001655433D03*
G04 #@! TO.N,Net-(D1-Pad2)*
X0003327834Y0002440433D03*
G04 #@! TD*
D119*
G04 #@! TO.N,Net-(U3-Pad7)*
X0003522834Y0002132933D02*
X0003522834Y0002130433D01*
X0003522834Y0002130433D02*
X0003527834Y0002135433D01*
X0003522834Y0002145433D02*
X0003522834Y0002132933D01*
G04 #@! TO.N,VCC*
X0003102834Y0002145433D02*
X0003102834Y0002110433D01*
X0003067834Y0002180433D02*
X0003102834Y0002145433D01*
X0003067834Y0002522933D02*
X0003067834Y0002180433D01*
X0003456685Y0001911783D02*
X0003456685Y0001870433D01*
X0003457834Y0001912933D02*
X0003456685Y0001911783D01*
X0003192834Y0002345433D02*
X0003207834Y0002330433D01*
X0003207834Y0002330433D02*
X0003207834Y0002320433D01*
X0003339133Y0001856433D02*
X0003337834Y0001855433D01*
X0003337834Y0001855433D02*
X0003357834Y0001855433D01*
X0003357834Y0001855433D02*
X0003377834Y0001835433D01*
X0003377834Y0001835433D02*
X0003407834Y0001835433D01*
X0003187834Y0001645433D02*
X0003127834Y0001705433D01*
X0003127834Y0001705433D02*
X0003126535Y0001706433D01*
X0003339133Y0001856433D02*
X0003337834Y0001855433D01*
X0003337834Y0001855433D02*
X0003442834Y0001855433D01*
X0003442834Y0001855433D02*
X0003457834Y0001870433D01*
X0003457834Y0001870433D02*
X0003456685Y0001870433D01*
X0003407834Y0001835433D02*
X0003412834Y0001830433D01*
X0003412834Y0001830433D02*
X0003422834Y0001830433D01*
X0003422834Y0001830433D02*
X0003432834Y0001820433D01*
X0003432834Y0001820433D02*
X0003432834Y0001770433D01*
X0003307834Y0001645433D02*
X0003187834Y0001645433D01*
G04 #@! TO.N,GND*
X0003083834Y0001856433D02*
X0003126535Y0001856433D01*
X0003072834Y0001845433D02*
X0003083834Y0001856433D01*
X0003072834Y0001815433D02*
X0003072834Y0001845433D01*
X0003537834Y0002435433D02*
X0003487834Y0002485433D01*
X0003487834Y0002485433D02*
X0003487834Y0002555433D01*
X0003353622Y0001976433D02*
X0003353622Y0001988720D01*
X0003353622Y0001988720D02*
X0003370334Y0002005433D01*
X0003370334Y0002005433D02*
X0003370334Y0002087933D01*
X0003570334Y0002135433D02*
X0003572834Y0002135433D01*
X0003572834Y0002135433D02*
X0003577834Y0002140433D01*
X0003577834Y0002140433D02*
X0003577834Y0002320433D01*
X0003353622Y0001976433D02*
X0003352834Y0001975433D01*
X0003522834Y0002200433D02*
X0003572834Y0002150433D01*
X0003572834Y0002150433D02*
X0003572834Y0002135433D01*
X0003572834Y0002135433D02*
X0003570334Y0002135433D01*
X0003126535Y0001856433D02*
X0003127834Y0001855433D01*
X0003127834Y0001855433D02*
X0003117834Y0001865433D01*
X0003117834Y0001865433D02*
X0003117834Y0001915433D01*
X0003212834Y0001915433D02*
X0003252834Y0001955433D01*
X0003252834Y0001955433D02*
X0003252834Y0001975433D01*
X0003252834Y0001975433D02*
X0003252047Y0001976433D01*
X0003127834Y0001855433D02*
X0003126535Y0001856433D01*
X0003353622Y0001976433D02*
X0003352834Y0001975433D01*
X0003252047Y0001976433D02*
X0003252834Y0001975433D01*
X0003252834Y0001975433D02*
X0003352834Y0001975433D01*
X0003352834Y0001975433D02*
X0003353622Y0001976433D01*
G04 #@! TO.N,THR*
X0003126535Y0001806433D02*
X0003127834Y0001805433D01*
X0003127834Y0001805433D02*
X0003167834Y0001805433D01*
X0003167834Y0001805433D02*
X0003182834Y0001790433D01*
X0003282834Y0001790433D02*
X0003292834Y0001780433D01*
X0003292834Y0001780433D02*
X0003312834Y0001780433D01*
X0003312834Y0001780433D02*
X0003337834Y0001755433D01*
X0003337834Y0001755433D02*
X0003339133Y0001756433D01*
X0003153622Y0001976433D02*
X0003152834Y0001975433D01*
X0003152834Y0001975433D02*
X0003182834Y0001945433D01*
X0003182834Y0001945433D02*
X0003182834Y0001900433D01*
X0003182834Y0001900433D02*
X0003172834Y0001890433D01*
X0003172834Y0001890433D02*
X0003172834Y0001830433D01*
X0003172834Y0001830433D02*
X0003152834Y0001830433D01*
X0003152834Y0001830433D02*
X0003127834Y0001805433D01*
X0003127834Y0001805433D02*
X0003126535Y0001806433D01*
X0003153622Y0001976433D02*
X0003152834Y0001975433D01*
X0003152834Y0001975433D02*
X0003157834Y0001970433D01*
X0003157834Y0001970433D02*
X0003157834Y0001915433D01*
G04 #@! TO.N,Net-(U1-Pad3)*
X0003126535Y0001756433D02*
X0003127834Y0001755433D01*
X0003127834Y0001755433D02*
X0003177834Y0001755433D01*
X0003177834Y0001755433D02*
X0003182834Y0001750433D01*
X0003057834Y0001875433D02*
X0003092834Y0001910433D01*
X0003092834Y0001910433D02*
X0003092834Y0001930433D01*
X0003092834Y0001930433D02*
X0003107834Y0001945433D01*
X0003107834Y0001945433D02*
X0003107834Y0002015433D01*
X0003107834Y0002015433D02*
X0003222834Y0002015433D01*
X0003222834Y0002015433D02*
X0003287834Y0002080433D01*
X0003137834Y0001765433D02*
X0003127834Y0001755433D01*
X0003127834Y0001755433D02*
X0003126535Y0001756433D01*
G04 #@! TO.N,RST*
X0003167874Y0002505433D02*
X0003137834Y0002505433D01*
X0003102834Y0002470433D02*
X0003102834Y0002312933D01*
X0003137834Y0002505433D02*
X0003102834Y0002470433D01*
X0003247834Y0002085433D02*
X0003242834Y0002085433D01*
X0003242834Y0002085433D02*
X0003217834Y0002060433D01*
X0003217834Y0002060433D02*
X0003187834Y0002060433D01*
X0003187834Y0002060433D02*
X0003137834Y0002110433D01*
X0003137834Y0002110433D02*
X0003137834Y0002295433D01*
X0003137834Y0002295433D02*
X0003117834Y0002295433D01*
X0003117834Y0002295433D02*
X0003102834Y0002310433D01*
X0003102834Y0002310433D02*
X0003102834Y0002312933D01*
G04 #@! TO.N,Net-(C1-Pad1)*
X0003339133Y0001706433D02*
X0003337834Y0001705433D01*
X0003337834Y0001705433D02*
X0003317834Y0001705433D01*
X0003317834Y0001705433D02*
X0003282834Y0001740433D01*
X0003282834Y0001740433D02*
X0003282834Y0001745433D01*
X0003387834Y0001915433D02*
X0003392834Y0001915433D01*
X0003392834Y0001915433D02*
X0003452834Y0001975433D01*
X0003452834Y0001975433D02*
X0003452047Y0001976433D01*
G04 #@! TO.N,Net-(U2-Pad10)*
X0003452834Y0002085433D02*
X0003422834Y0002115433D01*
X0003422834Y0002115433D02*
X0003422834Y0002135433D01*
X0003422834Y0002135433D02*
X0003420334Y0002135433D01*
G04 #@! TO.N,Net-(U2-Pad7)*
X0003370334Y0002135433D02*
X0003372834Y0002135433D01*
X0003372834Y0002135433D02*
X0003392834Y0002155433D01*
X0003392834Y0002155433D02*
X0003392834Y0002175433D01*
X0003392834Y0002175433D02*
X0003472834Y0002255433D01*
X0003472834Y0002255433D02*
X0003472834Y0002320433D01*
X0003372834Y0002120433D02*
X0003372834Y0002132933D01*
G04 #@! TO.N,Net-(U2-Pad4)*
X0003322834Y0002320433D02*
X0003322834Y0002135433D01*
X0003322834Y0002135433D02*
X0003320334Y0002135433D01*
G04 #@! TO.N,Net-(U2-Pad3)*
X0003242834Y0002250433D02*
X0003247834Y0002245433D01*
X0003247834Y0002245433D02*
X0003247834Y0002185433D01*
X0003247834Y0002185433D02*
X0003222834Y0002160433D01*
X0003222834Y0002160433D02*
X0003222834Y0002135433D01*
X0003222834Y0002135433D02*
X0003220334Y0002135433D01*
G04 #@! TO.N,Net-(U2-Pad2)*
X0003272834Y0002320433D02*
X0003272834Y0002135433D01*
X0003272834Y0002135433D02*
X0003270334Y0002135433D01*
G04 #@! TO.N,RIGHT*
X0003437834Y0002522933D02*
X0003437834Y0002557933D01*
X0003162834Y0002435433D02*
X0003167834Y0002430433D01*
X0003167834Y0002430433D02*
X0003167834Y0002335433D01*
X0003167834Y0002335433D02*
X0003172834Y0002330433D01*
X0003172834Y0002330433D02*
X0003172834Y0002325433D01*
X0003172834Y0002325433D02*
X0003182834Y0002315433D01*
X0003182834Y0002315433D02*
X0003182834Y0002305433D01*
X0003182834Y0002305433D02*
X0003192834Y0002295433D01*
X0003192834Y0002295433D02*
X0003222834Y0002295433D01*
X0003222834Y0002295433D02*
X0003247834Y0002320433D01*
X0003247834Y0002320433D02*
X0003247834Y0002335433D01*
X0003247834Y0002335433D02*
X0003272834Y0002360433D01*
X0003272834Y0002385433D02*
X0003272834Y0002360433D01*
X0003447677Y0002567775D02*
X0003447677Y0002692933D01*
X0003437834Y0002557933D02*
X0003447677Y0002567775D01*
X0003462677Y0002690433D02*
X0003462834Y0002690433D01*
X0003272834Y0002385433D02*
X0003270334Y0002385433D01*
X0003462677Y0002690433D02*
X0003462834Y0002690433D01*
X0003462834Y0002690433D02*
X0003447834Y0002675433D01*
X0003272834Y0002382933D02*
X0003272834Y0002380433D01*
G04 #@! TO.N,LEFT*
X0003337834Y0002692933D02*
X0003337834Y0002485433D01*
X0003370334Y0002452933D02*
X0003370334Y0002385433D01*
X0003337834Y0002485433D02*
X0003370334Y0002452933D01*
X0003352834Y0002690433D02*
X0003372834Y0002670433D01*
X0003372834Y0002385433D02*
X0003370334Y0002385433D01*
X0003352834Y0002690433D02*
X0003322834Y0002660433D01*
X0003372834Y0002382933D02*
X0003372834Y0002380433D01*
G04 #@! TO.N,BACK*
X0003242834Y0002480433D02*
X0003242834Y0002567933D01*
X0003297834Y0002425433D02*
X0003242834Y0002480433D01*
X0003297834Y0002410433D02*
X0003297834Y0002425433D01*
X0003322834Y0002385433D02*
X0003297834Y0002410433D01*
X0003227598Y0002583169D02*
X0003227598Y0002692933D01*
X0003242834Y0002567933D02*
X0003227598Y0002583169D01*
X0003320334Y0002385433D02*
X0003322834Y0002385433D01*
X0003242834Y0002690433D02*
X0003242598Y0002690433D01*
X0003242834Y0002690433D02*
X0003242598Y0002690433D01*
G04 #@! TO.N,FORWARD*
X0003220334Y0002385433D02*
X0003220334Y0002542933D01*
X0003117755Y0002573011D02*
X0003117755Y0002692933D01*
X0003132834Y0002557933D02*
X0003117755Y0002573011D01*
X0003205334Y0002557933D02*
X0003132834Y0002557933D01*
X0003220334Y0002542933D02*
X0003205334Y0002557933D01*
X0003132755Y0002690433D02*
X0003132834Y0002690433D01*
X0003222834Y0002385433D02*
X0003220334Y0002385433D01*
X0003132834Y0002690433D02*
X0003132755Y0002690433D01*
G04 #@! TO.N,BT3*
X0003557913Y0002692933D02*
X0003557913Y0002540354D01*
X0003212834Y0001580433D02*
X0003212834Y0001620433D01*
X0003252834Y0001540433D02*
X0003212834Y0001580433D01*
X0003537834Y0001540433D02*
X0003252834Y0001540433D01*
X0003557913Y0002540354D02*
X0003627834Y0002470433D01*
X0003572913Y0002690433D02*
X0003572834Y0002690433D01*
X0003572913Y0002690433D02*
X0003572834Y0002690433D01*
X0003627834Y0001630433D02*
X0003537834Y0001540433D01*
X0003627834Y0002470433D02*
X0003627834Y0001630433D01*
G04 #@! TO.N,BT1*
X0003372834Y0002510433D02*
X0003375334Y0002510433D01*
X0003420334Y0002465433D02*
X0003420334Y0002385433D01*
X0003375334Y0002510433D02*
X0003420334Y0002465433D01*
X0003422834Y0002405433D02*
X0003422834Y0002385433D01*
X0003422834Y0002385433D02*
X0003420334Y0002385433D01*
G04 #@! TO.N,Net-(R1-Pad1)*
X0003222834Y0002200433D02*
X0003197834Y0002175433D01*
X0003197834Y0002175433D02*
X0003192834Y0002175433D01*
X0003192834Y0002175433D02*
X0003192834Y0002095433D01*
X0003192834Y0002095433D02*
X0003202834Y0002085433D01*
G04 #@! TO.N,Net-(R3-Pad1)*
X0003497834Y0001805433D02*
X0003562834Y0001870433D01*
X0003292834Y0001915433D02*
X0003292834Y0001830433D01*
X0003292834Y0001830433D02*
X0003312834Y0001830433D01*
X0003312834Y0001830433D02*
X0003337834Y0001805433D01*
X0003337834Y0001805433D02*
X0003339133Y0001806433D01*
X0003339133Y0001806433D02*
X0003337834Y0001805433D01*
X0003337834Y0001805433D02*
X0003407834Y0001805433D01*
X0003562834Y0001870433D02*
X0003562984Y0001870433D01*
G04 #@! TO.N,Net-(JP1-Pad1)*
X0003564984Y0001668283D02*
X0003564984Y0001704433D01*
X0003564984Y0001704433D02*
X0003562834Y0001705433D01*
X0003562834Y0001705433D02*
X0003547834Y0001720433D01*
X0003575334Y0001657933D02*
X0003564984Y0001668283D01*
G04 #@! TO.N,Net-(Q2-Pad1)*
X0003458685Y0001704433D02*
X0003458685Y0001659582D01*
X0003458685Y0001659582D02*
X0003462834Y0001655433D01*
X0003458685Y0001704433D02*
X0003457834Y0001705433D01*
G04 #@! TO.N,Net-(D1-Pad2)*
X0003297795Y0002470472D02*
X0003297795Y0002505433D01*
X0003327834Y0002440433D02*
X0003297795Y0002470472D01*
G04 #@! TD*
M02*