%
M48
METRIC,000.000
T01C0.40
T02C0.65
T10C0.50
%
T01
X001460Y010604
X001714Y027050
X001841Y009080
X002603Y016573
X002984Y011620
X004000Y011620
X004127Y024828
X004635Y008445
X004635Y007429
X005143Y015938
X005270Y021907
X005397Y011620
X005397Y004127
X005651Y018859
X006159Y020129
X006286Y015938
X006921Y021907
X007175Y008445
X007175Y007302
X007302Y015811
X007429Y011620
X007810Y004762
X008191Y021907
X008318Y024955
X009397Y016001
X009461Y026733
X009842Y011620
X010350Y008826
X010985Y007937
X011112Y027050
X011493Y015938
X011620Y011557
X011747Y005016
X012001Y021907
X012382Y027876
X012636Y008826
X013271Y018859
X013652Y024828
X014605Y005079
X014668Y021907
X001669Y047635
X001923Y064081
X002050Y046111
X002812Y053605
X003193Y048652
X004209Y048652
X004336Y061860
X004843Y045477
X004843Y044461
X005352Y052970
X005479Y058938
X005605Y048652
X005605Y041159
X005860Y055891
X006367Y057161
X006495Y052970
X007129Y058938
X007383Y045477
X007383Y044334
X007510Y052843
X007638Y048652
X008019Y041794
X008400Y058938
X008526Y061986
X009605Y053033
X009669Y063765
X010050Y048652
X010558Y045858
X011193Y044968
X011320Y064081
X011701Y052970
X011829Y048589
X011955Y042048
X012210Y058938
X012591Y064908
X012844Y045858
X013479Y055891
X013860Y061860
X014813Y042111
X014877Y058938
X020669Y010635
X020923Y027081
X021050Y009111
X021812Y016605
X022193Y011652
X023209Y011652
X023336Y024860
X023843Y008477
X023843Y007460
X024352Y015969
X024479Y021938
X024605Y011652
X024605Y004159
X024860Y018891
X025367Y020161
X025495Y015969
X026129Y021938
X026383Y008477
X026383Y007334
X026510Y015843
X026638Y011652
X027019Y004793
X027400Y021938
X027526Y024986
X028605Y016033
X028669Y026765
X029050Y011652
X029558Y008858
X030193Y007968
X030320Y027081
X030702Y015969
X030829Y011588
X030955Y005048
X031210Y021938
X031591Y027908
X031845Y008858
X032479Y018891
X032860Y024860
X033813Y005111
X033877Y021938
X039669Y010635
X039923Y027081
X040050Y009111
X040812Y016605
X041193Y011652
X042209Y011652
X042336Y024860
X042843Y008477
X042843Y007460
X043352Y015969
X043479Y021938
X043605Y011652
X043605Y004159
X043860Y018891
X044367Y020161
X044495Y015969
X045129Y021938
X045383Y008477
X045383Y007334
X045510Y015843
X045638Y011652
X046019Y004793
X046400Y021938
X046526Y024986
X047605Y016033
X047669Y026765
X048050Y011652
X048559Y008858
X049193Y007968
X049321Y027081
X049702Y015969
X049829Y011588
X049955Y005048
X050210Y021938
X050591Y027908
X050845Y008858
X051479Y018891
X051860Y024860
X052813Y005111
X052877Y021938
X058669Y010635
X058923Y027081
X059050Y009111
X059812Y016605
X060193Y011652
X061209Y011652
X061336Y024860
X061843Y008477
X061843Y007460
X062352Y015969
X062479Y021938
X062605Y011652
X062605Y004159
X062860Y018891
X063367Y020161
X063495Y015969
X064129Y021938
X064382Y008477
X064382Y007334
X064510Y015843
X064638Y011652
X065019Y004793
X065400Y021938
X065525Y024986
X066606Y016033
X066669Y026765
X067050Y011652
X067559Y008858
X068193Y007968
X068321Y027081
X068702Y015969
X068829Y011588
X068955Y005048
X069210Y021938
X069591Y027908
X069845Y008858
X070479Y018891
X070860Y024860
X071814Y005111
X071877Y021938
X077669Y010635
X077923Y027081
X078050Y009111
X078812Y016605
X079193Y011652
X080209Y011652
X080336Y024860
X080844Y008477
X080844Y007460
X081352Y015969
X081479Y021938
X081606Y011652
X081606Y004159
X081860Y018891
X082368Y020161
X082495Y015969
X083130Y021938
X083383Y008477
X083383Y007334
X083511Y015843
X083638Y011652
X084019Y004793
X084400Y021938
X084526Y024986
X085606Y016033
X085669Y026765
X086050Y011652
X086559Y008858
X087193Y007968
X087321Y027081
X087702Y015969
X087829Y011588
X087955Y005048
X088210Y021938
X088591Y027908
X088845Y008858
X089479Y018891
X089860Y024860
X090814Y005111
X090877Y021938
X020669Y047635
X020923Y064081
X021050Y046111
X021812Y053605
X022193Y048652
X023209Y048652
X023336Y061860
X023843Y045477
X023843Y044461
X024352Y052970
X024479Y058938
X024605Y048652
X024605Y041159
X024860Y055891
X025367Y057161
X025495Y052970
X026129Y058938
X026383Y045477
X026383Y044334
X026510Y052843
X026638Y048652
X027019Y041794
X027400Y058938
X027526Y061986
X028605Y053033
X028669Y063765
X029050Y048652
X029558Y045858
X030193Y044968
X030320Y064081
X030702Y052970
X030829Y048589
X030955Y042048
X031210Y058938
X031591Y064908
X031845Y045858
X032479Y055891
X032860Y061860
X033813Y042111
X033877Y058938
X039669Y047635
X039923Y064081
X040050Y046111
X040812Y053605
X041193Y048652
X042209Y048652
X042336Y061860
X042843Y045477
X042843Y044461
X043352Y052970
X043479Y058938
X043605Y048652
X043605Y041159
X043860Y055891
X044367Y057161
X044495Y052970
X045129Y058938
X045383Y045477
X045383Y044334
X045510Y052843
X045638Y048652
X046019Y041794
X046400Y058938
X046526Y061986
X047605Y053033
X047669Y063765
X048050Y048652
X048559Y045858
X049193Y044968
X049321Y064081
X049702Y052970
X049829Y048589
X049955Y042048
X050210Y058938
X050591Y064908
X050845Y045858
X051479Y055891
X051860Y061860
X052813Y042111
X052877Y058938
X058669Y047635
X058923Y064081
X059050Y046111
X059812Y053605
X060193Y048652
X061209Y048652
X061336Y061860
X061843Y045477
X061843Y044461
X062352Y052970
X062479Y058938
X062605Y048652
X062605Y041159
X062860Y055891
X063367Y057161
X063495Y052970
X064129Y058938
X064382Y045477
X064382Y044334
X064510Y052843
X064638Y048652
X065019Y041794
X065400Y058938
X065525Y061986
X066606Y053033
X066669Y063765
X067050Y048652
X067559Y045858
X068193Y044968
X068321Y064081
X068702Y052970
X068829Y048589
X068955Y042048
X069210Y058938
X069591Y064908
X069845Y045858
X070479Y055891
X070860Y061860
X071814Y042111
X071877Y058938
X077669Y047635
X077923Y064081
X078050Y046111
X078812Y053605
X079193Y048652
X080209Y048652
X080336Y061860
X080844Y045477
X080844Y044461
X081352Y052970
X081479Y058938
X081606Y048652
X081606Y041159
X081860Y055891
X082368Y057161
X082495Y052970
X083130Y058938
X083383Y045477
X083383Y044334
X083511Y052843
X083638Y048652
X084019Y041794
X084400Y058938
X084526Y061986
X085606Y053033
X085669Y063765
X086050Y048652
X086559Y045858
X087193Y044968
X087321Y064081
X087702Y052970
X087829Y048589
X087955Y042048
X088210Y058938
X088591Y064908
X088845Y045858
X089479Y055891
X089860Y061860
X090814Y042111
X090877Y058938
T02
X002603Y021717
X002603Y020446
X002603Y019176
X002812Y058748
X002812Y057477
X002812Y056208
X021812Y021748
X021812Y020477
X021812Y019208
X040812Y021748
X040812Y020477
X040812Y019208
X059812Y021748
X059812Y020477
X059812Y019208
X078812Y021748
X078812Y020477
X078812Y019208
X021812Y058748
X021812Y057477
X021812Y056208
X040812Y058748
X040812Y057477
X040812Y056208
X059812Y058748
X059812Y057477
X059812Y056208
X078812Y058748
X078812Y057477
X078812Y056208
T10
X017222Y061638
X017222Y062638
X017222Y063638
X017222Y064638
X017222Y065638
X017222Y066638
X018958Y066172
X018958Y065172
X018958Y064172
X018958Y063172
X018958Y062172
X018958Y061172
X017222Y042638
X017222Y043638
X017222Y044638
X017222Y045638
X017222Y046638
X017222Y047638
X018958Y047172
X018958Y046172
X018958Y045172
X018958Y044172
X018958Y043172
X018958Y042172
X030857Y034381
X029857Y034381
X028857Y034381
X027857Y034381
X026857Y034381
X025857Y034381
X025674Y036781
X026674Y036781
X027674Y036781
X028674Y036781
X029674Y036781
X049857Y034381
X048857Y034381
X047857Y034381
X046857Y034381
X045857Y034381
X044857Y034381
X044674Y036781
X045674Y036781
X046674Y036781
X047674Y036781
X048674Y036781
X049674Y036781
X069857Y034381
X068857Y034381
X067857Y034381
X066857Y034381
X065857Y034381
X064857Y034381
X064674Y036781
X065674Y036781
X066674Y036781
X067674Y036781
X068674Y036781
X087857Y034381
X086857Y034381
X085857Y034381
X084857Y034381
X083857Y034381
X082857Y034381
X082674Y036781
X083674Y036781
X084674Y036781
X085674Y036781
X086674Y036781
X011648Y034349
X010648Y034349
X009648Y034349
X008648Y034349
X007648Y034349
X006648Y034349
X006674Y036781
X007674Y036781
X008674Y036781
X009674Y036781
X010674Y036781
X017014Y026607
X017014Y027607
X017014Y028607
X017014Y029607
X017014Y030607
X018958Y031172
X018958Y030172
X018958Y029172
X018958Y028172
X018958Y027172
X018958Y026172
X017014Y005607
X017014Y006607
X017014Y007607
X017014Y008607
X017014Y009607
X017014Y010607
X018958Y010172
X018958Y009172
X018958Y008172
X018958Y007172
X018958Y006172
X036222Y026638
X036222Y027638
X036222Y028638
X036222Y029638
X036222Y030638
X037958Y031172
X037958Y030172
X037958Y029172
X037958Y028172
X037958Y027172
X037958Y026172
X036222Y004638
X036222Y005638
X036222Y006638
X036222Y007638
X036222Y008638
X036222Y009638
X037958Y009172
X037958Y008172
X037958Y007172
X037958Y006172
X037958Y005172
X055222Y004638
X055222Y005638
X055222Y006638
X055222Y007638
X055222Y008638
X055222Y009638
X056958Y009172
X056958Y008172
X056958Y007172
X056958Y006172
X056958Y005172
X055222Y025638
X055222Y026638
X055222Y027638
X055222Y028638
X055222Y029638
X055222Y030638
X056958Y030172
X056958Y029172
X056958Y028172
X056958Y027172
X056958Y026172
X056958Y025172
X074222Y025638
X074222Y026638
X074222Y027638
X074222Y028638
X074222Y029638
X074222Y030638
X075958Y030172
X075958Y029172
X075958Y028172
X075958Y027172
X075958Y026172
X075958Y025172
X074222Y004638
X074222Y005638
X074222Y006638
X074222Y007638
X074222Y008638
X074222Y009638
X075958Y009172
X075958Y008172
X075958Y007172
X075958Y006172
X075958Y005172
X075958Y004172
X074222Y042638
X074222Y043638
X074222Y044638
X074222Y045638
X074222Y046638
X074222Y047638
X075958Y047172
X075958Y046172
X075958Y045172
X075958Y044172
X075958Y043172
X075958Y042172
X074222Y061638
X074222Y062638
X074222Y063638
X074222Y064638
X074222Y065638
X074222Y066638
X075958Y066172
X075958Y065172
X075958Y064172
X075958Y063172
X075958Y062172
X075958Y061172
X055222Y061638
X055222Y062638
X055222Y063638
X055222Y064638
X055222Y065638
X055222Y066638
X056958Y066172
X056958Y065172
X056958Y064172
X056958Y063172
X056958Y062172
X056958Y061172
X055222Y042638
X055222Y043638
X055222Y044638
X055222Y045638
X055222Y046638
X055222Y047638
X056958Y047172
X056958Y046172
X056958Y045172
X056958Y044172
X056958Y043172
X056958Y042172
X036222Y061638
X036222Y062638
X036222Y063638
X036222Y064638
X036222Y065638
X036222Y066638
X037958Y066172
X037958Y065172
X037958Y064172
X037958Y063172
X037958Y062172
X037958Y061172
X036222Y042638
X036222Y043638
X036222Y044638
X036222Y045638
X036222Y046638
X036222Y047638
X037958Y047172
X037958Y046172
X037958Y045172
X037958Y044172
X037958Y043172
X037958Y042172
M30