%MOIN*%
%OFA0B0*%
%FSLAX46Y46*%
%IPPOS*%
%LPD*%
%ADD10C,0.0039370078740157488*%
%ADD21C,0.0039370078740157488*%
%ADD22C,0.0039370078740157488*%
%ADD23C,0.0039370078740157488*%
%ADD24C,0.0039370078740157488*%
%ADD25C,0.0039370078740157488*%
%ADD26C,0.0039370078740157488*%
%ADD27C,0.0039370078740157488*%
%ADD28C,0.0039370078740157488*%
%ADD29C,0.0039370078740157488*%
G01G01*
D10*
G36*
X0000273523Y0000112539D02*
X0000226279Y0000112539D01*
X0000226279Y0000163720D01*
X0000273523Y0000163720D01*
X0000273523Y0000112539D01*
X0000273523Y0000112539D01*
G37*
G36*
X0000198720Y0000112539D02*
X0000151476Y0000112539D01*
X0000151476Y0000163720D01*
X0000198720Y0000163720D01*
X0000198720Y0000112539D01*
X0000198720Y0000112539D01*
G37*
G36*
X0000573523Y0000112539D02*
X0000526279Y0000112539D01*
X0000526279Y0000163720D01*
X0000573523Y0000163720D01*
X0000573523Y0000112539D01*
X0000573523Y0000112539D01*
G37*
G36*
X0000498720Y0000112539D02*
X0000451476Y0000112539D01*
X0000451476Y0000163720D01*
X0000498720Y0000163720D01*
X0000498720Y0000112539D01*
X0000498720Y0000112539D01*
G37*
G36*
X0000236122Y0000191279D02*
X0000188878Y0000191279D01*
X0000188878Y0000242460D01*
X0000236122Y0000242460D01*
X0000236122Y0000191279D01*
X0000236122Y0000191279D01*
G37*
G36*
X0000536122Y0000191279D02*
X0000488878Y0000191279D01*
X0000488878Y0000242460D01*
X0000536122Y0000242460D01*
X0000536122Y0000191279D01*
X0000536122Y0000191279D01*
G37*
G36*
X0000394252Y0000486535D02*
X0000319448Y0000486535D01*
X0000319448Y0000553464D01*
X0000394252Y0000553464D01*
X0000394252Y0000486535D01*
X0000394252Y0000486535D01*
G37*
G36*
X0000500551Y0000486535D02*
X0000425748Y0000486535D01*
X0000425748Y0000553464D01*
X0000500551Y0000553464D01*
X0000500551Y0000486535D01*
X0000500551Y0000486535D01*
G37*
G36*
X0000300551Y0000489035D02*
X0000225748Y0000489035D01*
X0000225748Y0000555964D01*
X0000300551Y0000555964D01*
X0000300551Y0000489035D01*
X0000300551Y0000489035D01*
G37*
G36*
X0000194252Y0000489035D02*
X0000119448Y0000489035D01*
X0000119448Y0000555964D01*
X0000194252Y0000555964D01*
X0000194252Y0000489035D01*
X0000194252Y0000489035D01*
G37*
G36*
X0000387874Y0000647126D02*
X0000352126Y0000647126D01*
X0000352126Y0000707874D01*
X0000387874Y0000707874D01*
X0000387874Y0000647126D01*
X0000387874Y0000647126D01*
G37*
G36*
X0000237874Y0000647126D02*
X0000202126Y0000647126D01*
X0000202126Y0000707874D01*
X0000237874Y0000707874D01*
X0000237874Y0000647126D01*
X0000237874Y0000647126D01*
G37*
G36*
X0000337874Y0000647126D02*
X0000302126Y0000647126D01*
X0000302126Y0000707874D01*
X0000337874Y0000707874D01*
X0000337874Y0000647126D01*
X0000337874Y0000647126D01*
G37*
G36*
X0000437874Y0000647126D02*
X0000402126Y0000647126D01*
X0000402126Y0000707874D01*
X0000437874Y0000707874D01*
X0000437874Y0000647126D01*
X0000437874Y0000647126D01*
G37*
G36*
X0000537874Y0000647126D02*
X0000502126Y0000647126D01*
X0000502126Y0000707874D01*
X0000537874Y0000707874D01*
X0000537874Y0000647126D01*
X0000537874Y0000647126D01*
G37*
G36*
X0000287874Y0000647126D02*
X0000252126Y0000647126D01*
X0000252126Y0000707874D01*
X0000287874Y0000707874D01*
X0000287874Y0000647126D01*
X0000287874Y0000647126D01*
G37*
G36*
X0000587874Y0000647126D02*
X0000552126Y0000647126D01*
X0000552126Y0000707874D01*
X0000587874Y0000707874D01*
X0000587874Y0000647126D01*
X0000587874Y0000647126D01*
G37*
G36*
X0000487874Y0000647126D02*
X0000452126Y0000647126D01*
X0000452126Y0000707874D01*
X0000487874Y0000707874D01*
X0000487874Y0000647126D01*
X0000487874Y0000647126D01*
G37*
G36*
X0000107902Y0000882160D02*
X0000113097Y0000880584D01*
X0000117885Y0000878025D01*
X0000122081Y0000874581D01*
X0000125525Y0000870385D01*
X0000128084Y0000865597D01*
X0000129660Y0000860402D01*
X0000130192Y0000855000D01*
X0000129660Y0000849597D01*
X0000128084Y0000844402D01*
X0000125525Y0000839615D01*
X0000122081Y0000835418D01*
X0000120114Y0000833804D01*
X0000119432Y0000833122D01*
X0000118896Y0000832320D01*
X0000118527Y0000831428D01*
X0000118338Y0000830482D01*
X0000118338Y0000829517D01*
X0000118527Y0000828571D01*
X0000118896Y0000827680D01*
X0000119432Y0000826878D01*
X0000120114Y0000826196D01*
X0000122081Y0000824581D01*
X0000125525Y0000820385D01*
X0000128084Y0000815597D01*
X0000129660Y0000810402D01*
X0000130192Y0000805000D01*
X0000129660Y0000799597D01*
X0000128084Y0000794402D01*
X0000128084Y0000794402D01*
X0000125624Y0000789800D01*
X0000125255Y0000788909D01*
X0000125067Y0000787962D01*
X0000125067Y0000786998D01*
X0000125255Y0000786051D01*
X0000125624Y0000785160D01*
X0000126160Y0000784358D01*
X0000126842Y0000783676D01*
X0000127644Y0000783140D01*
X0000128536Y0000782771D01*
X0000129964Y0000782559D01*
X0000130059Y0000782559D01*
X0000130059Y0000727441D01*
X0000074941Y0000727441D01*
X0000074941Y0000782559D01*
X0000075035Y0000782559D01*
X0000075995Y0000782653D01*
X0000076918Y0000782933D01*
X0000077769Y0000783388D01*
X0000078515Y0000784000D01*
X0000079127Y0000784746D01*
X0000079582Y0000785597D01*
X0000079862Y0000786520D01*
X0000079956Y0000787480D01*
X0000079862Y0000788440D01*
X0000079375Y0000789800D01*
X0000076915Y0000794402D01*
X0000076915Y0000794402D01*
X0000075339Y0000799597D01*
X0000074807Y0000805000D01*
X0000075339Y0000810402D01*
X0000076915Y0000815597D01*
X0000079474Y0000820385D01*
X0000082918Y0000824581D01*
X0000084885Y0000826196D01*
X0000085567Y0000826878D01*
X0000086103Y0000827680D01*
X0000086473Y0000828571D01*
X0000086661Y0000829517D01*
X0000086661Y0000830482D01*
X0000086473Y0000831428D01*
X0000086103Y0000832320D01*
X0000085567Y0000833122D01*
X0000084885Y0000833804D01*
X0000082918Y0000835418D01*
X0000079474Y0000839615D01*
X0000076915Y0000844402D01*
X0000075339Y0000849597D01*
X0000074807Y0000855000D01*
X0000075339Y0000860402D01*
X0000076915Y0000865597D01*
X0000079474Y0000870385D01*
X0000082918Y0000874581D01*
X0000087115Y0000878025D01*
X0000091902Y0000880584D01*
X0000097097Y0000882160D01*
X0000101146Y0000882559D01*
X0000103854Y0000882559D01*
X0000107902Y0000882160D01*
X0000107902Y0000882160D01*
G37*
G36*
X0000237874Y0000897126D02*
X0000202126Y0000897126D01*
X0000202126Y0000957874D01*
X0000237874Y0000957874D01*
X0000237874Y0000897126D01*
X0000237874Y0000897126D01*
G37*
G36*
X0000437874Y0000897126D02*
X0000402126Y0000897126D01*
X0000402126Y0000957874D01*
X0000437874Y0000957874D01*
X0000437874Y0000897126D01*
X0000437874Y0000897126D01*
G37*
G36*
X0000387874Y0000897126D02*
X0000352126Y0000897126D01*
X0000352126Y0000957874D01*
X0000387874Y0000957874D01*
X0000387874Y0000897126D01*
X0000387874Y0000897126D01*
G37*
G36*
X0000287874Y0000897126D02*
X0000252126Y0000897126D01*
X0000252126Y0000957874D01*
X0000287874Y0000957874D01*
X0000287874Y0000897126D01*
X0000287874Y0000897126D01*
G37*
G36*
X0000337874Y0000897126D02*
X0000302126Y0000897126D01*
X0000302126Y0000957874D01*
X0000337874Y0000957874D01*
X0000337874Y0000897126D01*
X0000337874Y0000897126D01*
G37*
G36*
X0000537874Y0000897126D02*
X0000502126Y0000897126D01*
X0000502126Y0000957874D01*
X0000537874Y0000957874D01*
X0000537874Y0000897126D01*
X0000537874Y0000897126D01*
G37*
G36*
X0000587874Y0000897126D02*
X0000552126Y0000897126D01*
X0000552126Y0000957874D01*
X0000587874Y0000957874D01*
X0000587874Y0000897126D01*
X0000587874Y0000897126D01*
G37*
G36*
X0000487874Y0000897126D02*
X0000452126Y0000897126D01*
X0000452126Y0000957874D01*
X0000487874Y0000957874D01*
X0000487874Y0000897126D01*
X0000487874Y0000897126D01*
G37*
G36*
X0000545374Y0001127126D02*
X0000459547Y0001127126D01*
X0000459547Y0001342874D01*
X0000545374Y0001342874D01*
X0000545374Y0001127126D01*
X0000545374Y0001127126D01*
G37*
G36*
X0000435531Y0001127126D02*
X0000349704Y0001127126D01*
X0000349704Y0001342874D01*
X0000435531Y0001342874D01*
X0000435531Y0001127126D01*
X0000435531Y0001127126D01*
G37*
G36*
X0000325295Y0001127126D02*
X0000239468Y0001127126D01*
X0000239468Y0001342874D01*
X0000325295Y0001342874D01*
X0000325295Y0001127126D01*
X0000325295Y0001127126D01*
G37*
G36*
X0000215452Y0001127126D02*
X0000129626Y0001127126D01*
X0000129626Y0001342874D01*
X0000215452Y0001342874D01*
X0000215452Y0001127126D01*
X0000215452Y0001127126D01*
G37*
G04 next file*
G04 #@! TF.GenerationSoftware,KiCad,Pcbnew,(5.0.2)-1*
G04 #@! TF.CreationDate,2019-07-10T16:32:42+02:00*
G04 #@! TF.ProjectId,joystick tester systest,6a6f7973-7469-4636-9b20-746573746572,rev?*
G04 #@! TF.SameCoordinates,Original*
G04 #@! TF.FileFunction,Soldermask,Bot*
G04 #@! TF.FilePolarity,Negative*
G04 Gerber Fmt 4.6, Leading zero omitted, Abs format (unit mm)*
G04 Created by KiCad (PCBNEW (5.0.2)-1) date 10-7-2019 16:32:42*
G01G01*
G04 APERTURE LIST*
G04 APERTURE END LIST*
D21*
G36*
X0000281732Y0001570472D02*
X0000234488Y0001570472D01*
X0000234488Y0001621653D01*
X0000281732Y0001621653D01*
X0000281732Y0001570472D01*
X0000281732Y0001570472D01*
G37*
G36*
X0000206929Y0001570472D02*
X0000159685Y0001570472D01*
X0000159685Y0001621653D01*
X0000206929Y0001621653D01*
X0000206929Y0001570472D01*
X0000206929Y0001570472D01*
G37*
G36*
X0000581732Y0001570472D02*
X0000534488Y0001570472D01*
X0000534488Y0001621653D01*
X0000581732Y0001621653D01*
X0000581732Y0001570472D01*
X0000581732Y0001570472D01*
G37*
G36*
X0000506929Y0001570472D02*
X0000459685Y0001570472D01*
X0000459685Y0001621653D01*
X0000506929Y0001621653D01*
X0000506929Y0001570472D01*
X0000506929Y0001570472D01*
G37*
G36*
X0000244330Y0001649212D02*
X0000197086Y0001649212D01*
X0000197086Y0001700393D01*
X0000244330Y0001700393D01*
X0000244330Y0001649212D01*
X0000244330Y0001649212D01*
G37*
G36*
X0000544330Y0001649212D02*
X0000497086Y0001649212D01*
X0000497086Y0001700393D01*
X0000544330Y0001700393D01*
X0000544330Y0001649212D01*
X0000544330Y0001649212D01*
G37*
G36*
X0000402460Y0001944468D02*
X0000327657Y0001944468D01*
X0000327657Y0002011397D01*
X0000402460Y0002011397D01*
X0000402460Y0001944468D01*
X0000402460Y0001944468D01*
G37*
G36*
X0000508759Y0001944468D02*
X0000433956Y0001944468D01*
X0000433956Y0002011397D01*
X0000508759Y0002011397D01*
X0000508759Y0001944468D01*
X0000508759Y0001944468D01*
G37*
G36*
X0000308759Y0001946968D02*
X0000233956Y0001946968D01*
X0000233956Y0002013897D01*
X0000308759Y0002013897D01*
X0000308759Y0001946968D01*
X0000308759Y0001946968D01*
G37*
G36*
X0000202460Y0001946968D02*
X0000127657Y0001946968D01*
X0000127657Y0002013897D01*
X0000202460Y0002013897D01*
X0000202460Y0001946968D01*
X0000202460Y0001946968D01*
G37*
G36*
X0000396082Y0002105059D02*
X0000360334Y0002105059D01*
X0000360334Y0002165807D01*
X0000396082Y0002165807D01*
X0000396082Y0002105059D01*
X0000396082Y0002105059D01*
G37*
G36*
X0000246082Y0002105059D02*
X0000210334Y0002105059D01*
X0000210334Y0002165807D01*
X0000246082Y0002165807D01*
X0000246082Y0002105059D01*
X0000246082Y0002105059D01*
G37*
G36*
X0000346082Y0002105059D02*
X0000310334Y0002105059D01*
X0000310334Y0002165807D01*
X0000346082Y0002165807D01*
X0000346082Y0002105059D01*
X0000346082Y0002105059D01*
G37*
G36*
X0000446082Y0002105059D02*
X0000410334Y0002105059D01*
X0000410334Y0002165807D01*
X0000446082Y0002165807D01*
X0000446082Y0002105059D01*
X0000446082Y0002105059D01*
G37*
G36*
X0000546082Y0002105059D02*
X0000510334Y0002105059D01*
X0000510334Y0002165807D01*
X0000546082Y0002165807D01*
X0000546082Y0002105059D01*
X0000546082Y0002105059D01*
G37*
G36*
X0000296082Y0002105059D02*
X0000260334Y0002105059D01*
X0000260334Y0002165807D01*
X0000296082Y0002165807D01*
X0000296082Y0002105059D01*
X0000296082Y0002105059D01*
G37*
G36*
X0000596082Y0002105059D02*
X0000560334Y0002105059D01*
X0000560334Y0002165807D01*
X0000596082Y0002165807D01*
X0000596082Y0002105059D01*
X0000596082Y0002105059D01*
G37*
G36*
X0000496082Y0002105059D02*
X0000460334Y0002105059D01*
X0000460334Y0002165807D01*
X0000496082Y0002165807D01*
X0000496082Y0002105059D01*
X0000496082Y0002105059D01*
G37*
G36*
X0000116111Y0002340093D02*
X0000121306Y0002338517D01*
X0000126093Y0002335958D01*
X0000130290Y0002332514D01*
X0000133734Y0002328318D01*
X0000136293Y0002323530D01*
X0000137868Y0002318335D01*
X0000138401Y0002312933D01*
X0000137868Y0002307530D01*
X0000136293Y0002302335D01*
X0000133734Y0002297547D01*
X0000130290Y0002293351D01*
X0000128322Y0002291737D01*
X0000127640Y0002291055D01*
X0000127104Y0002290252D01*
X0000126735Y0002289361D01*
X0000126547Y0002288415D01*
X0000126547Y0002287450D01*
X0000126735Y0002286504D01*
X0000127104Y0002285613D01*
X0000127640Y0002284811D01*
X0000128322Y0002284129D01*
X0000130290Y0002282514D01*
X0000133734Y0002278318D01*
X0000136293Y0002273530D01*
X0000137868Y0002268335D01*
X0000138401Y0002262933D01*
X0000137868Y0002257530D01*
X0000136293Y0002252335D01*
X0000136292Y0002252335D01*
X0000133833Y0002247733D01*
X0000133463Y0002246841D01*
X0000133275Y0002245895D01*
X0000133275Y0002244930D01*
X0000133463Y0002243984D01*
X0000133833Y0002243093D01*
X0000134369Y0002242291D01*
X0000135051Y0002241609D01*
X0000135853Y0002241073D01*
X0000136744Y0002240704D01*
X0000138173Y0002240492D01*
X0000138267Y0002240492D01*
X0000138267Y0002185374D01*
X0000083149Y0002185374D01*
X0000083149Y0002240492D01*
X0000083244Y0002240492D01*
X0000084204Y0002240586D01*
X0000085127Y0002240866D01*
X0000085978Y0002241321D01*
X0000086723Y0002241933D01*
X0000087335Y0002242679D01*
X0000087790Y0002243530D01*
X0000088070Y0002244453D01*
X0000088165Y0002245413D01*
X0000088070Y0002246373D01*
X0000087584Y0002247733D01*
X0000085124Y0002252335D01*
X0000085124Y0002252335D01*
X0000083548Y0002257530D01*
X0000083016Y0002262933D01*
X0000083548Y0002268335D01*
X0000085124Y0002273530D01*
X0000087683Y0002278318D01*
X0000091127Y0002282514D01*
X0000093094Y0002284129D01*
X0000093776Y0002284811D01*
X0000094312Y0002285613D01*
X0000094681Y0002286504D01*
X0000094869Y0002287450D01*
X0000094869Y0002288415D01*
X0000094681Y0002289361D01*
X0000094312Y0002290252D01*
X0000093776Y0002291055D01*
X0000093094Y0002291737D01*
X0000091127Y0002293351D01*
X0000087683Y0002297547D01*
X0000085124Y0002302335D01*
X0000083548Y0002307530D01*
X0000083016Y0002312933D01*
X0000083548Y0002318335D01*
X0000085124Y0002323530D01*
X0000087683Y0002328318D01*
X0000091127Y0002332514D01*
X0000095323Y0002335958D01*
X0000100111Y0002338517D01*
X0000105306Y0002340093D01*
X0000109354Y0002340492D01*
X0000112062Y0002340492D01*
X0000116111Y0002340093D01*
X0000116111Y0002340093D01*
G37*
G36*
X0000246082Y0002355059D02*
X0000210334Y0002355059D01*
X0000210334Y0002415807D01*
X0000246082Y0002415807D01*
X0000246082Y0002355059D01*
X0000246082Y0002355059D01*
G37*
G36*
X0000446082Y0002355059D02*
X0000410334Y0002355059D01*
X0000410334Y0002415807D01*
X0000446082Y0002415807D01*
X0000446082Y0002355059D01*
X0000446082Y0002355059D01*
G37*
G36*
X0000396082Y0002355059D02*
X0000360334Y0002355059D01*
X0000360334Y0002415807D01*
X0000396082Y0002415807D01*
X0000396082Y0002355059D01*
X0000396082Y0002355059D01*
G37*
G36*
X0000296082Y0002355059D02*
X0000260334Y0002355059D01*
X0000260334Y0002415807D01*
X0000296082Y0002415807D01*
X0000296082Y0002355059D01*
X0000296082Y0002355059D01*
G37*
G36*
X0000346082Y0002355059D02*
X0000310334Y0002355059D01*
X0000310334Y0002415807D01*
X0000346082Y0002415807D01*
X0000346082Y0002355059D01*
X0000346082Y0002355059D01*
G37*
G36*
X0000546082Y0002355059D02*
X0000510334Y0002355059D01*
X0000510334Y0002415807D01*
X0000546082Y0002415807D01*
X0000546082Y0002355059D01*
X0000546082Y0002355059D01*
G37*
G36*
X0000596082Y0002355059D02*
X0000560334Y0002355059D01*
X0000560334Y0002415807D01*
X0000596082Y0002415807D01*
X0000596082Y0002355059D01*
X0000596082Y0002355059D01*
G37*
G36*
X0000496082Y0002355059D02*
X0000460334Y0002355059D01*
X0000460334Y0002415807D01*
X0000496082Y0002415807D01*
X0000496082Y0002355059D01*
X0000496082Y0002355059D01*
G37*
G36*
X0000553582Y0002585059D02*
X0000467755Y0002585059D01*
X0000467755Y0002800807D01*
X0000553582Y0002800807D01*
X0000553582Y0002585059D01*
X0000553582Y0002585059D01*
G37*
G36*
X0000443740Y0002585059D02*
X0000357913Y0002585059D01*
X0000357913Y0002800807D01*
X0000443740Y0002800807D01*
X0000443740Y0002585059D01*
X0000443740Y0002585059D01*
G37*
G36*
X0000333503Y0002585059D02*
X0000247677Y0002585059D01*
X0000247677Y0002800807D01*
X0000333503Y0002800807D01*
X0000333503Y0002585059D01*
X0000333503Y0002585059D01*
G37*
G36*
X0000223661Y0002585059D02*
X0000137834Y0002585059D01*
X0000137834Y0002800807D01*
X0000223661Y0002800807D01*
X0000223661Y0002585059D01*
X0000223661Y0002585059D01*
G37*
G04 next file*
G04 #@! TF.GenerationSoftware,KiCad,Pcbnew,(5.0.2)-1*
G04 #@! TF.CreationDate,2019-07-10T16:32:42+02:00*
G04 #@! TF.ProjectId,joystick tester systest,6a6f7973-7469-4636-9b20-746573746572,rev?*
G04 #@! TF.SameCoordinates,Original*
G04 #@! TF.FileFunction,Soldermask,Bot*
G04 #@! TF.FilePolarity,Negative*
G04 Gerber Fmt 4.6, Leading zero omitted, Abs format (unit mm)*
G04 Created by KiCad (PCBNEW (5.0.2)-1) date 10-7-2019 16:32:42*
G01G01*
G04 APERTURE LIST*
G04 APERTURE END LIST*
D22*
G36*
X0001029763Y0000113779D02*
X0000982519Y0000113779D01*
X0000982519Y0000164960D01*
X0001029763Y0000164960D01*
X0001029763Y0000113779D01*
X0001029763Y0000113779D01*
G37*
G36*
X0000954960Y0000113779D02*
X0000907716Y0000113779D01*
X0000907716Y0000164960D01*
X0000954960Y0000164960D01*
X0000954960Y0000113779D01*
X0000954960Y0000113779D01*
G37*
G36*
X0001329763Y0000113779D02*
X0001282519Y0000113779D01*
X0001282519Y0000164960D01*
X0001329763Y0000164960D01*
X0001329763Y0000113779D01*
X0001329763Y0000113779D01*
G37*
G36*
X0001254960Y0000113779D02*
X0001207716Y0000113779D01*
X0001207716Y0000164960D01*
X0001254960Y0000164960D01*
X0001254960Y0000113779D01*
X0001254960Y0000113779D01*
G37*
G36*
X0000992362Y0000192519D02*
X0000945118Y0000192519D01*
X0000945118Y0000243700D01*
X0000992362Y0000243700D01*
X0000992362Y0000192519D01*
X0000992362Y0000192519D01*
G37*
G36*
X0001292362Y0000192519D02*
X0001245118Y0000192519D01*
X0001245118Y0000243700D01*
X0001292362Y0000243700D01*
X0001292362Y0000192519D01*
X0001292362Y0000192519D01*
G37*
G36*
X0001150492Y0000487775D02*
X0001075688Y0000487775D01*
X0001075688Y0000554704D01*
X0001150492Y0000554704D01*
X0001150492Y0000487775D01*
X0001150492Y0000487775D01*
G37*
G36*
X0001256791Y0000487775D02*
X0001181988Y0000487775D01*
X0001181988Y0000554704D01*
X0001256791Y0000554704D01*
X0001256791Y0000487775D01*
X0001256791Y0000487775D01*
G37*
G36*
X0001056791Y0000490275D02*
X0000981988Y0000490275D01*
X0000981988Y0000557204D01*
X0001056791Y0000557204D01*
X0001056791Y0000490275D01*
X0001056791Y0000490275D01*
G37*
G36*
X0000950492Y0000490275D02*
X0000875688Y0000490275D01*
X0000875688Y0000557204D01*
X0000950492Y0000557204D01*
X0000950492Y0000490275D01*
X0000950492Y0000490275D01*
G37*
G36*
X0001144114Y0000648366D02*
X0001108366Y0000648366D01*
X0001108366Y0000709114D01*
X0001144114Y0000709114D01*
X0001144114Y0000648366D01*
X0001144114Y0000648366D01*
G37*
G36*
X0000994114Y0000648366D02*
X0000958366Y0000648366D01*
X0000958366Y0000709114D01*
X0000994114Y0000709114D01*
X0000994114Y0000648366D01*
X0000994114Y0000648366D01*
G37*
G36*
X0001094114Y0000648366D02*
X0001058366Y0000648366D01*
X0001058366Y0000709114D01*
X0001094114Y0000709114D01*
X0001094114Y0000648366D01*
X0001094114Y0000648366D01*
G37*
G36*
X0001194114Y0000648366D02*
X0001158366Y0000648366D01*
X0001158366Y0000709114D01*
X0001194114Y0000709114D01*
X0001194114Y0000648366D01*
X0001194114Y0000648366D01*
G37*
G36*
X0001294114Y0000648366D02*
X0001258366Y0000648366D01*
X0001258366Y0000709114D01*
X0001294114Y0000709114D01*
X0001294114Y0000648366D01*
X0001294114Y0000648366D01*
G37*
G36*
X0001044114Y0000648366D02*
X0001008366Y0000648366D01*
X0001008366Y0000709114D01*
X0001044114Y0000709114D01*
X0001044114Y0000648366D01*
X0001044114Y0000648366D01*
G37*
G36*
X0001344114Y0000648366D02*
X0001308366Y0000648366D01*
X0001308366Y0000709114D01*
X0001344114Y0000709114D01*
X0001344114Y0000648366D01*
X0001344114Y0000648366D01*
G37*
G36*
X0001244114Y0000648366D02*
X0001208366Y0000648366D01*
X0001208366Y0000709114D01*
X0001244114Y0000709114D01*
X0001244114Y0000648366D01*
X0001244114Y0000648366D01*
G37*
G36*
X0000864142Y0000883400D02*
X0000869337Y0000881824D01*
X0000874125Y0000879265D01*
X0000878321Y0000875821D01*
X0000881765Y0000871625D01*
X0000884324Y0000866837D01*
X0000885900Y0000861642D01*
X0000886432Y0000856240D01*
X0000885900Y0000850837D01*
X0000884324Y0000845642D01*
X0000881765Y0000840855D01*
X0000878321Y0000836658D01*
X0000876354Y0000835044D01*
X0000875672Y0000834362D01*
X0000875136Y0000833560D01*
X0000874767Y0000832668D01*
X0000874578Y0000831722D01*
X0000874578Y0000830757D01*
X0000874767Y0000829811D01*
X0000875136Y0000828920D01*
X0000875672Y0000828118D01*
X0000876354Y0000827436D01*
X0000878321Y0000825821D01*
X0000881765Y0000821625D01*
X0000884324Y0000816837D01*
X0000885900Y0000811642D01*
X0000886432Y0000806240D01*
X0000885900Y0000800837D01*
X0000884324Y0000795642D01*
X0000884324Y0000795642D01*
X0000881864Y0000791040D01*
X0000881495Y0000790148D01*
X0000881307Y0000789202D01*
X0000881307Y0000788238D01*
X0000881495Y0000787291D01*
X0000881864Y0000786400D01*
X0000882400Y0000785598D01*
X0000883082Y0000784916D01*
X0000883884Y0000784380D01*
X0000884776Y0000784011D01*
X0000886204Y0000783799D01*
X0000886299Y0000783799D01*
X0000886299Y0000728681D01*
X0000831181Y0000728681D01*
X0000831181Y0000783799D01*
X0000831275Y0000783799D01*
X0000832235Y0000783893D01*
X0000833158Y0000784173D01*
X0000834009Y0000784628D01*
X0000834755Y0000785240D01*
X0000835367Y0000785986D01*
X0000835822Y0000786837D01*
X0000836102Y0000787760D01*
X0000836196Y0000788720D01*
X0000836102Y0000789680D01*
X0000835615Y0000791040D01*
X0000833155Y0000795642D01*
X0000833155Y0000795642D01*
X0000831579Y0000800837D01*
X0000831047Y0000806240D01*
X0000831579Y0000811642D01*
X0000833155Y0000816837D01*
X0000835714Y0000821625D01*
X0000839158Y0000825821D01*
X0000841125Y0000827436D01*
X0000841807Y0000828118D01*
X0000842343Y0000828920D01*
X0000842713Y0000829811D01*
X0000842901Y0000830757D01*
X0000842901Y0000831722D01*
X0000842713Y0000832668D01*
X0000842343Y0000833560D01*
X0000841807Y0000834362D01*
X0000841125Y0000835044D01*
X0000839158Y0000836658D01*
X0000835714Y0000840855D01*
X0000833155Y0000845642D01*
X0000831579Y0000850837D01*
X0000831047Y0000856240D01*
X0000831579Y0000861642D01*
X0000833155Y0000866837D01*
X0000835714Y0000871625D01*
X0000839158Y0000875821D01*
X0000843355Y0000879265D01*
X0000848142Y0000881824D01*
X0000853337Y0000883400D01*
X0000857386Y0000883799D01*
X0000860094Y0000883799D01*
X0000864142Y0000883400D01*
X0000864142Y0000883400D01*
G37*
G36*
X0000994114Y0000898366D02*
X0000958366Y0000898366D01*
X0000958366Y0000959114D01*
X0000994114Y0000959114D01*
X0000994114Y0000898366D01*
X0000994114Y0000898366D01*
G37*
G36*
X0001194114Y0000898366D02*
X0001158366Y0000898366D01*
X0001158366Y0000959114D01*
X0001194114Y0000959114D01*
X0001194114Y0000898366D01*
X0001194114Y0000898366D01*
G37*
G36*
X0001144114Y0000898366D02*
X0001108366Y0000898366D01*
X0001108366Y0000959114D01*
X0001144114Y0000959114D01*
X0001144114Y0000898366D01*
X0001144114Y0000898366D01*
G37*
G36*
X0001044114Y0000898366D02*
X0001008366Y0000898366D01*
X0001008366Y0000959114D01*
X0001044114Y0000959114D01*
X0001044114Y0000898366D01*
X0001044114Y0000898366D01*
G37*
G36*
X0001094114Y0000898366D02*
X0001058366Y0000898366D01*
X0001058366Y0000959114D01*
X0001094114Y0000959114D01*
X0001094114Y0000898366D01*
X0001094114Y0000898366D01*
G37*
G36*
X0001294114Y0000898366D02*
X0001258366Y0000898366D01*
X0001258366Y0000959114D01*
X0001294114Y0000959114D01*
X0001294114Y0000898366D01*
X0001294114Y0000898366D01*
G37*
G36*
X0001344114Y0000898366D02*
X0001308366Y0000898366D01*
X0001308366Y0000959114D01*
X0001344114Y0000959114D01*
X0001344114Y0000898366D01*
X0001344114Y0000898366D01*
G37*
G36*
X0001244114Y0000898366D02*
X0001208366Y0000898366D01*
X0001208366Y0000959114D01*
X0001244114Y0000959114D01*
X0001244114Y0000898366D01*
X0001244114Y0000898366D01*
G37*
G36*
X0001301614Y0001128366D02*
X0001215787Y0001128366D01*
X0001215787Y0001344114D01*
X0001301614Y0001344114D01*
X0001301614Y0001128366D01*
X0001301614Y0001128366D01*
G37*
G36*
X0001191771Y0001128366D02*
X0001105944Y0001128366D01*
X0001105944Y0001344114D01*
X0001191771Y0001344114D01*
X0001191771Y0001128366D01*
X0001191771Y0001128366D01*
G37*
G36*
X0001081535Y0001128366D02*
X0000995708Y0001128366D01*
X0000995708Y0001344114D01*
X0001081535Y0001344114D01*
X0001081535Y0001128366D01*
X0001081535Y0001128366D01*
G37*
G36*
X0000971692Y0001128366D02*
X0000885866Y0001128366D01*
X0000885866Y0001344114D01*
X0000971692Y0001344114D01*
X0000971692Y0001128366D01*
X0000971692Y0001128366D01*
G37*
G04 next file*
G04 #@! TF.GenerationSoftware,KiCad,Pcbnew,(5.0.2)-1*
G04 #@! TF.CreationDate,2019-07-10T16:32:42+02:00*
G04 #@! TF.ProjectId,joystick tester systest,6a6f7973-7469-4636-9b20-746573746572,rev?*
G04 #@! TF.SameCoordinates,Original*
G04 #@! TF.FileFunction,Soldermask,Bot*
G04 #@! TF.FilePolarity,Negative*
G04 Gerber Fmt 4.6, Leading zero omitted, Abs format (unit mm)*
G04 Created by KiCad (PCBNEW (5.0.2)-1) date 10-7-2019 16:32:42*
G01G01*
G04 APERTURE LIST*
G04 APERTURE END LIST*
D23*
G36*
X0001777795Y0000113779D02*
X0001730551Y0000113779D01*
X0001730551Y0000164960D01*
X0001777795Y0000164960D01*
X0001777795Y0000113779D01*
X0001777795Y0000113779D01*
G37*
G36*
X0001702992Y0000113779D02*
X0001655748Y0000113779D01*
X0001655748Y0000164960D01*
X0001702992Y0000164960D01*
X0001702992Y0000113779D01*
X0001702992Y0000113779D01*
G37*
G36*
X0002077795Y0000113779D02*
X0002030551Y0000113779D01*
X0002030551Y0000164960D01*
X0002077795Y0000164960D01*
X0002077795Y0000113779D01*
X0002077795Y0000113779D01*
G37*
G36*
X0002002992Y0000113779D02*
X0001955747Y0000113779D01*
X0001955747Y0000164960D01*
X0002002992Y0000164960D01*
X0002002992Y0000113779D01*
X0002002992Y0000113779D01*
G37*
G36*
X0001740393Y0000192519D02*
X0001693149Y0000192519D01*
X0001693149Y0000243700D01*
X0001740393Y0000243700D01*
X0001740393Y0000192519D01*
X0001740393Y0000192519D01*
G37*
G36*
X0002040393Y0000192519D02*
X0001993149Y0000192519D01*
X0001993149Y0000243700D01*
X0002040393Y0000243700D01*
X0002040393Y0000192519D01*
X0002040393Y0000192519D01*
G37*
G36*
X0001898523Y0000487775D02*
X0001823720Y0000487775D01*
X0001823720Y0000554704D01*
X0001898523Y0000554704D01*
X0001898523Y0000487775D01*
X0001898523Y0000487775D01*
G37*
G36*
X0002004822Y0000487775D02*
X0001930019Y0000487775D01*
X0001930019Y0000554704D01*
X0002004822Y0000554704D01*
X0002004822Y0000487775D01*
X0002004822Y0000487775D01*
G37*
G36*
X0001804822Y0000490275D02*
X0001730019Y0000490275D01*
X0001730019Y0000557204D01*
X0001804822Y0000557204D01*
X0001804822Y0000490275D01*
X0001804822Y0000490275D01*
G37*
G36*
X0001698523Y0000490275D02*
X0001623720Y0000490275D01*
X0001623720Y0000557204D01*
X0001698523Y0000557204D01*
X0001698523Y0000490275D01*
X0001698523Y0000490275D01*
G37*
G36*
X0001892145Y0000648366D02*
X0001856397Y0000648366D01*
X0001856397Y0000709114D01*
X0001892145Y0000709114D01*
X0001892145Y0000648366D01*
X0001892145Y0000648366D01*
G37*
G36*
X0001742145Y0000648366D02*
X0001706397Y0000648366D01*
X0001706397Y0000709114D01*
X0001742145Y0000709114D01*
X0001742145Y0000648366D01*
X0001742145Y0000648366D01*
G37*
G36*
X0001842145Y0000648366D02*
X0001806397Y0000648366D01*
X0001806397Y0000709114D01*
X0001842145Y0000709114D01*
X0001842145Y0000648366D01*
X0001842145Y0000648366D01*
G37*
G36*
X0001942145Y0000648366D02*
X0001906397Y0000648366D01*
X0001906397Y0000709114D01*
X0001942145Y0000709114D01*
X0001942145Y0000648366D01*
X0001942145Y0000648366D01*
G37*
G36*
X0002042145Y0000648366D02*
X0002006397Y0000648366D01*
X0002006397Y0000709114D01*
X0002042145Y0000709114D01*
X0002042145Y0000648366D01*
X0002042145Y0000648366D01*
G37*
G36*
X0001792145Y0000648366D02*
X0001756397Y0000648366D01*
X0001756397Y0000709114D01*
X0001792145Y0000709114D01*
X0001792145Y0000648366D01*
X0001792145Y0000648366D01*
G37*
G36*
X0002092145Y0000648366D02*
X0002056397Y0000648366D01*
X0002056397Y0000709114D01*
X0002092145Y0000709114D01*
X0002092145Y0000648366D01*
X0002092145Y0000648366D01*
G37*
G36*
X0001992145Y0000648366D02*
X0001956397Y0000648366D01*
X0001956397Y0000709114D01*
X0001992145Y0000709114D01*
X0001992145Y0000648366D01*
X0001992145Y0000648366D01*
G37*
G36*
X0001612174Y0000883400D02*
X0001617369Y0000881824D01*
X0001622156Y0000879265D01*
X0001626353Y0000875821D01*
X0001629797Y0000871625D01*
X0001632356Y0000866837D01*
X0001633931Y0000861642D01*
X0001634464Y0000856240D01*
X0001633931Y0000850837D01*
X0001632356Y0000845642D01*
X0001629797Y0000840855D01*
X0001626353Y0000836658D01*
X0001624385Y0000835044D01*
X0001623703Y0000834362D01*
X0001623167Y0000833560D01*
X0001622798Y0000832668D01*
X0001622610Y0000831722D01*
X0001622610Y0000830757D01*
X0001622798Y0000829811D01*
X0001623167Y0000828920D01*
X0001623703Y0000828118D01*
X0001624385Y0000827436D01*
X0001626353Y0000825821D01*
X0001629797Y0000821625D01*
X0001632356Y0000816837D01*
X0001633931Y0000811642D01*
X0001634464Y0000806240D01*
X0001633931Y0000800837D01*
X0001632356Y0000795642D01*
X0001632355Y0000795642D01*
X0001629896Y0000791040D01*
X0001629526Y0000790148D01*
X0001629338Y0000789202D01*
X0001629338Y0000788238D01*
X0001629526Y0000787291D01*
X0001629896Y0000786400D01*
X0001630432Y0000785598D01*
X0001631114Y0000784916D01*
X0001631916Y0000784380D01*
X0001632807Y0000784011D01*
X0001634236Y0000783799D01*
X0001634330Y0000783799D01*
X0001634330Y0000728681D01*
X0001579212Y0000728681D01*
X0001579212Y0000783799D01*
X0001579307Y0000783799D01*
X0001580267Y0000783893D01*
X0001581190Y0000784173D01*
X0001582041Y0000784628D01*
X0001582786Y0000785240D01*
X0001583398Y0000785986D01*
X0001583853Y0000786837D01*
X0001584133Y0000787760D01*
X0001584228Y0000788720D01*
X0001584133Y0000789680D01*
X0001583647Y0000791040D01*
X0001581187Y0000795642D01*
X0001581187Y0000795642D01*
X0001579611Y0000800837D01*
X0001579079Y0000806240D01*
X0001579611Y0000811642D01*
X0001581187Y0000816837D01*
X0001583746Y0000821625D01*
X0001587190Y0000825821D01*
X0001589157Y0000827436D01*
X0001589839Y0000828118D01*
X0001590375Y0000828920D01*
X0001590744Y0000829811D01*
X0001590932Y0000830757D01*
X0001590932Y0000831722D01*
X0001590744Y0000832668D01*
X0001590375Y0000833560D01*
X0001589839Y0000834362D01*
X0001589157Y0000835044D01*
X0001587190Y0000836658D01*
X0001583746Y0000840855D01*
X0001581187Y0000845642D01*
X0001579611Y0000850837D01*
X0001579079Y0000856240D01*
X0001579611Y0000861642D01*
X0001581187Y0000866837D01*
X0001583746Y0000871625D01*
X0001587190Y0000875821D01*
X0001591386Y0000879265D01*
X0001596174Y0000881824D01*
X0001601369Y0000883400D01*
X0001605417Y0000883799D01*
X0001608125Y0000883799D01*
X0001612174Y0000883400D01*
X0001612174Y0000883400D01*
G37*
G36*
X0001742145Y0000898366D02*
X0001706397Y0000898366D01*
X0001706397Y0000959114D01*
X0001742145Y0000959114D01*
X0001742145Y0000898366D01*
X0001742145Y0000898366D01*
G37*
G36*
X0001942145Y0000898366D02*
X0001906397Y0000898366D01*
X0001906397Y0000959114D01*
X0001942145Y0000959114D01*
X0001942145Y0000898366D01*
X0001942145Y0000898366D01*
G37*
G36*
X0001892145Y0000898366D02*
X0001856397Y0000898366D01*
X0001856397Y0000959114D01*
X0001892145Y0000959114D01*
X0001892145Y0000898366D01*
X0001892145Y0000898366D01*
G37*
G36*
X0001792145Y0000898366D02*
X0001756397Y0000898366D01*
X0001756397Y0000959114D01*
X0001792145Y0000959114D01*
X0001792145Y0000898366D01*
X0001792145Y0000898366D01*
G37*
G36*
X0001842145Y0000898366D02*
X0001806397Y0000898366D01*
X0001806397Y0000959114D01*
X0001842145Y0000959114D01*
X0001842145Y0000898366D01*
X0001842145Y0000898366D01*
G37*
G36*
X0002042145Y0000898366D02*
X0002006397Y0000898366D01*
X0002006397Y0000959114D01*
X0002042145Y0000959114D01*
X0002042145Y0000898366D01*
X0002042145Y0000898366D01*
G37*
G36*
X0002092145Y0000898366D02*
X0002056397Y0000898366D01*
X0002056397Y0000959114D01*
X0002092145Y0000959114D01*
X0002092145Y0000898366D01*
X0002092145Y0000898366D01*
G37*
G36*
X0001992145Y0000898366D02*
X0001956397Y0000898366D01*
X0001956397Y0000959114D01*
X0001992145Y0000959114D01*
X0001992145Y0000898366D01*
X0001992145Y0000898366D01*
G37*
G36*
X0002049645Y0001128366D02*
X0001963818Y0001128366D01*
X0001963818Y0001344114D01*
X0002049645Y0001344114D01*
X0002049645Y0001128366D01*
X0002049645Y0001128366D01*
G37*
G36*
X0001939803Y0001128366D02*
X0001853976Y0001128366D01*
X0001853976Y0001344114D01*
X0001939803Y0001344114D01*
X0001939803Y0001128366D01*
X0001939803Y0001128366D01*
G37*
G36*
X0001829566Y0001128366D02*
X0001743740Y0001128366D01*
X0001743740Y0001344114D01*
X0001829566Y0001344114D01*
X0001829566Y0001128366D01*
X0001829566Y0001128366D01*
G37*
G36*
X0001719724Y0001128366D02*
X0001633897Y0001128366D01*
X0001633897Y0001344114D01*
X0001719724Y0001344114D01*
X0001719724Y0001128366D01*
X0001719724Y0001128366D01*
G37*
G04 next file*
G04 #@! TF.GenerationSoftware,KiCad,Pcbnew,(5.0.2)-1*
G04 #@! TF.CreationDate,2019-07-10T16:32:42+02:00*
G04 #@! TF.ProjectId,joystick tester systest,6a6f7973-7469-4636-9b20-746573746572,rev?*
G04 #@! TF.SameCoordinates,Original*
G04 #@! TF.FileFunction,Soldermask,Bot*
G04 #@! TF.FilePolarity,Negative*
G04 Gerber Fmt 4.6, Leading zero omitted, Abs format (unit mm)*
G04 Created by KiCad (PCBNEW (5.0.2)-1) date 10-7-2019 16:32:42*
G01G01*
G04 APERTURE LIST*
G04 APERTURE END LIST*
D24*
G36*
X0002525826Y0000113779D02*
X0002478582Y0000113779D01*
X0002478582Y0000164960D01*
X0002525826Y0000164960D01*
X0002525826Y0000113779D01*
X0002525826Y0000113779D01*
G37*
G36*
X0002451023Y0000113779D02*
X0002403779Y0000113779D01*
X0002403779Y0000164960D01*
X0002451023Y0000164960D01*
X0002451023Y0000113779D01*
X0002451023Y0000113779D01*
G37*
G36*
X0002825826Y0000113779D02*
X0002778582Y0000113779D01*
X0002778582Y0000164960D01*
X0002825826Y0000164960D01*
X0002825826Y0000113779D01*
X0002825826Y0000113779D01*
G37*
G36*
X0002751023Y0000113779D02*
X0002703779Y0000113779D01*
X0002703779Y0000164960D01*
X0002751023Y0000164960D01*
X0002751023Y0000113779D01*
X0002751023Y0000113779D01*
G37*
G36*
X0002488425Y0000192519D02*
X0002441181Y0000192519D01*
X0002441181Y0000243700D01*
X0002488425Y0000243700D01*
X0002488425Y0000192519D01*
X0002488425Y0000192519D01*
G37*
G36*
X0002788425Y0000192519D02*
X0002741181Y0000192519D01*
X0002741181Y0000243700D01*
X0002788425Y0000243700D01*
X0002788425Y0000192519D01*
X0002788425Y0000192519D01*
G37*
G36*
X0002646555Y0000487775D02*
X0002571751Y0000487775D01*
X0002571751Y0000554704D01*
X0002646555Y0000554704D01*
X0002646555Y0000487775D01*
X0002646555Y0000487775D01*
G37*
G36*
X0002752854Y0000487775D02*
X0002678051Y0000487775D01*
X0002678051Y0000554704D01*
X0002752854Y0000554704D01*
X0002752854Y0000487775D01*
X0002752854Y0000487775D01*
G37*
G36*
X0002552854Y0000490275D02*
X0002478051Y0000490275D01*
X0002478051Y0000557204D01*
X0002552854Y0000557204D01*
X0002552854Y0000490275D01*
X0002552854Y0000490275D01*
G37*
G36*
X0002446555Y0000490275D02*
X0002371751Y0000490275D01*
X0002371751Y0000557204D01*
X0002446555Y0000557204D01*
X0002446555Y0000490275D01*
X0002446555Y0000490275D01*
G37*
G36*
X0002640177Y0000648366D02*
X0002604429Y0000648366D01*
X0002604429Y0000709114D01*
X0002640177Y0000709114D01*
X0002640177Y0000648366D01*
X0002640177Y0000648366D01*
G37*
G36*
X0002490177Y0000648366D02*
X0002454429Y0000648366D01*
X0002454429Y0000709114D01*
X0002490177Y0000709114D01*
X0002490177Y0000648366D01*
X0002490177Y0000648366D01*
G37*
G36*
X0002590177Y0000648366D02*
X0002554429Y0000648366D01*
X0002554429Y0000709114D01*
X0002590177Y0000709114D01*
X0002590177Y0000648366D01*
X0002590177Y0000648366D01*
G37*
G36*
X0002690177Y0000648366D02*
X0002654429Y0000648366D01*
X0002654429Y0000709114D01*
X0002690177Y0000709114D01*
X0002690177Y0000648366D01*
X0002690177Y0000648366D01*
G37*
G36*
X0002790177Y0000648366D02*
X0002754429Y0000648366D01*
X0002754429Y0000709114D01*
X0002790177Y0000709114D01*
X0002790177Y0000648366D01*
X0002790177Y0000648366D01*
G37*
G36*
X0002540177Y0000648366D02*
X0002504429Y0000648366D01*
X0002504429Y0000709114D01*
X0002540177Y0000709114D01*
X0002540177Y0000648366D01*
X0002540177Y0000648366D01*
G37*
G36*
X0002840177Y0000648366D02*
X0002804429Y0000648366D01*
X0002804429Y0000709114D01*
X0002840177Y0000709114D01*
X0002840177Y0000648366D01*
X0002840177Y0000648366D01*
G37*
G36*
X0002740177Y0000648366D02*
X0002704429Y0000648366D01*
X0002704429Y0000709114D01*
X0002740177Y0000709114D01*
X0002740177Y0000648366D01*
X0002740177Y0000648366D01*
G37*
G36*
X0002360205Y0000883400D02*
X0002365400Y0000881824D01*
X0002370188Y0000879265D01*
X0002374384Y0000875821D01*
X0002377828Y0000871625D01*
X0002380387Y0000866837D01*
X0002381963Y0000861642D01*
X0002382495Y0000856240D01*
X0002381963Y0000850837D01*
X0002380387Y0000845642D01*
X0002377828Y0000840855D01*
X0002374384Y0000836658D01*
X0002372417Y0000835044D01*
X0002371735Y0000834362D01*
X0002371199Y0000833560D01*
X0002370830Y0000832668D01*
X0002370641Y0000831722D01*
X0002370641Y0000830757D01*
X0002370830Y0000829811D01*
X0002371199Y0000828920D01*
X0002371735Y0000828118D01*
X0002372417Y0000827436D01*
X0002374384Y0000825821D01*
X0002377828Y0000821625D01*
X0002380387Y0000816837D01*
X0002381963Y0000811642D01*
X0002382495Y0000806240D01*
X0002381963Y0000800837D01*
X0002380387Y0000795642D01*
X0002380387Y0000795642D01*
X0002377927Y0000791040D01*
X0002377558Y0000790148D01*
X0002377370Y0000789202D01*
X0002377370Y0000788238D01*
X0002377558Y0000787291D01*
X0002377927Y0000786400D01*
X0002378463Y0000785598D01*
X0002379145Y0000784916D01*
X0002379947Y0000784380D01*
X0002380839Y0000784011D01*
X0002382267Y0000783799D01*
X0002382362Y0000783799D01*
X0002382362Y0000728681D01*
X0002327244Y0000728681D01*
X0002327244Y0000783799D01*
X0002327338Y0000783799D01*
X0002328298Y0000783893D01*
X0002329221Y0000784173D01*
X0002330072Y0000784628D01*
X0002330818Y0000785240D01*
X0002331430Y0000785986D01*
X0002331885Y0000786837D01*
X0002332165Y0000787760D01*
X0002332259Y0000788720D01*
X0002332165Y0000789680D01*
X0002331678Y0000791040D01*
X0002329218Y0000795642D01*
X0002329218Y0000795642D01*
X0002327642Y0000800837D01*
X0002327110Y0000806240D01*
X0002327642Y0000811642D01*
X0002329218Y0000816837D01*
X0002331777Y0000821625D01*
X0002335221Y0000825821D01*
X0002337188Y0000827436D01*
X0002337870Y0000828118D01*
X0002338406Y0000828920D01*
X0002338776Y0000829811D01*
X0002338964Y0000830757D01*
X0002338964Y0000831722D01*
X0002338776Y0000832668D01*
X0002338406Y0000833560D01*
X0002337870Y0000834362D01*
X0002337188Y0000835044D01*
X0002335221Y0000836658D01*
X0002331777Y0000840855D01*
X0002329218Y0000845642D01*
X0002327642Y0000850837D01*
X0002327110Y0000856240D01*
X0002327642Y0000861642D01*
X0002329218Y0000866837D01*
X0002331777Y0000871625D01*
X0002335221Y0000875821D01*
X0002339418Y0000879265D01*
X0002344205Y0000881824D01*
X0002349400Y0000883400D01*
X0002353449Y0000883799D01*
X0002356157Y0000883799D01*
X0002360205Y0000883400D01*
X0002360205Y0000883400D01*
G37*
G36*
X0002490177Y0000898366D02*
X0002454429Y0000898366D01*
X0002454429Y0000959114D01*
X0002490177Y0000959114D01*
X0002490177Y0000898366D01*
X0002490177Y0000898366D01*
G37*
G36*
X0002690177Y0000898366D02*
X0002654429Y0000898366D01*
X0002654429Y0000959114D01*
X0002690177Y0000959114D01*
X0002690177Y0000898366D01*
X0002690177Y0000898366D01*
G37*
G36*
X0002640177Y0000898366D02*
X0002604429Y0000898366D01*
X0002604429Y0000959114D01*
X0002640177Y0000959114D01*
X0002640177Y0000898366D01*
X0002640177Y0000898366D01*
G37*
G36*
X0002540177Y0000898366D02*
X0002504429Y0000898366D01*
X0002504429Y0000959114D01*
X0002540177Y0000959114D01*
X0002540177Y0000898366D01*
X0002540177Y0000898366D01*
G37*
G36*
X0002590177Y0000898366D02*
X0002554429Y0000898366D01*
X0002554429Y0000959114D01*
X0002590177Y0000959114D01*
X0002590177Y0000898366D01*
X0002590177Y0000898366D01*
G37*
G36*
X0002790177Y0000898366D02*
X0002754429Y0000898366D01*
X0002754429Y0000959114D01*
X0002790177Y0000959114D01*
X0002790177Y0000898366D01*
X0002790177Y0000898366D01*
G37*
G36*
X0002840177Y0000898366D02*
X0002804429Y0000898366D01*
X0002804429Y0000959114D01*
X0002840177Y0000959114D01*
X0002840177Y0000898366D01*
X0002840177Y0000898366D01*
G37*
G36*
X0002740177Y0000898366D02*
X0002704429Y0000898366D01*
X0002704429Y0000959114D01*
X0002740177Y0000959114D01*
X0002740177Y0000898366D01*
X0002740177Y0000898366D01*
G37*
G36*
X0002797677Y0001128366D02*
X0002711850Y0001128366D01*
X0002711850Y0001344114D01*
X0002797677Y0001344114D01*
X0002797677Y0001128366D01*
X0002797677Y0001128366D01*
G37*
G36*
X0002687834Y0001128366D02*
X0002602007Y0001128366D01*
X0002602007Y0001344114D01*
X0002687834Y0001344114D01*
X0002687834Y0001128366D01*
X0002687834Y0001128366D01*
G37*
G36*
X0002577598Y0001128366D02*
X0002491771Y0001128366D01*
X0002491771Y0001344114D01*
X0002577598Y0001344114D01*
X0002577598Y0001128366D01*
X0002577598Y0001128366D01*
G37*
G36*
X0002467755Y0001128366D02*
X0002381929Y0001128366D01*
X0002381929Y0001344114D01*
X0002467755Y0001344114D01*
X0002467755Y0001128366D01*
X0002467755Y0001128366D01*
G37*
G04 next file*
G04 #@! TF.GenerationSoftware,KiCad,Pcbnew,(5.0.2)-1*
G04 #@! TF.CreationDate,2019-07-10T16:32:42+02:00*
G04 #@! TF.ProjectId,joystick tester systest,6a6f7973-7469-4636-9b20-746573746572,rev?*
G04 #@! TF.SameCoordinates,Original*
G04 #@! TF.FileFunction,Soldermask,Bot*
G04 #@! TF.FilePolarity,Negative*
G04 Gerber Fmt 4.6, Leading zero omitted, Abs format (unit mm)*
G04 Created by KiCad (PCBNEW (5.0.2)-1) date 10-7-2019 16:32:42*
G01G01*
G04 APERTURE LIST*
G04 APERTURE END LIST*
D25*
G36*
X0003273858Y0000113779D02*
X0003226614Y0000113779D01*
X0003226614Y0000164960D01*
X0003273858Y0000164960D01*
X0003273858Y0000113779D01*
X0003273858Y0000113779D01*
G37*
G36*
X0003199055Y0000113779D02*
X0003151811Y0000113779D01*
X0003151811Y0000164960D01*
X0003199055Y0000164960D01*
X0003199055Y0000113779D01*
X0003199055Y0000113779D01*
G37*
G36*
X0003573858Y0000113779D02*
X0003526614Y0000113779D01*
X0003526614Y0000164960D01*
X0003573858Y0000164960D01*
X0003573858Y0000113779D01*
X0003573858Y0000113779D01*
G37*
G36*
X0003499055Y0000113779D02*
X0003451810Y0000113779D01*
X0003451810Y0000164960D01*
X0003499055Y0000164960D01*
X0003499055Y0000113779D01*
X0003499055Y0000113779D01*
G37*
G36*
X0003236456Y0000192519D02*
X0003189212Y0000192519D01*
X0003189212Y0000243700D01*
X0003236456Y0000243700D01*
X0003236456Y0000192519D01*
X0003236456Y0000192519D01*
G37*
G36*
X0003536456Y0000192519D02*
X0003489212Y0000192519D01*
X0003489212Y0000243700D01*
X0003536456Y0000243700D01*
X0003536456Y0000192519D01*
X0003536456Y0000192519D01*
G37*
G36*
X0003394586Y0000487775D02*
X0003319783Y0000487775D01*
X0003319783Y0000554704D01*
X0003394586Y0000554704D01*
X0003394586Y0000487775D01*
X0003394586Y0000487775D01*
G37*
G36*
X0003500885Y0000487775D02*
X0003426082Y0000487775D01*
X0003426082Y0000554704D01*
X0003500885Y0000554704D01*
X0003500885Y0000487775D01*
X0003500885Y0000487775D01*
G37*
G36*
X0003300885Y0000490275D02*
X0003226082Y0000490275D01*
X0003226082Y0000557204D01*
X0003300885Y0000557204D01*
X0003300885Y0000490275D01*
X0003300885Y0000490275D01*
G37*
G36*
X0003194586Y0000490275D02*
X0003119783Y0000490275D01*
X0003119783Y0000557204D01*
X0003194586Y0000557204D01*
X0003194586Y0000490275D01*
X0003194586Y0000490275D01*
G37*
G36*
X0003388208Y0000648366D02*
X0003352460Y0000648366D01*
X0003352460Y0000709114D01*
X0003388208Y0000709114D01*
X0003388208Y0000648366D01*
X0003388208Y0000648366D01*
G37*
G36*
X0003238208Y0000648366D02*
X0003202460Y0000648366D01*
X0003202460Y0000709114D01*
X0003238208Y0000709114D01*
X0003238208Y0000648366D01*
X0003238208Y0000648366D01*
G37*
G36*
X0003338208Y0000648366D02*
X0003302460Y0000648366D01*
X0003302460Y0000709114D01*
X0003338208Y0000709114D01*
X0003338208Y0000648366D01*
X0003338208Y0000648366D01*
G37*
G36*
X0003438208Y0000648366D02*
X0003402460Y0000648366D01*
X0003402460Y0000709114D01*
X0003438208Y0000709114D01*
X0003438208Y0000648366D01*
X0003438208Y0000648366D01*
G37*
G36*
X0003538208Y0000648366D02*
X0003502460Y0000648366D01*
X0003502460Y0000709114D01*
X0003538208Y0000709114D01*
X0003538208Y0000648366D01*
X0003538208Y0000648366D01*
G37*
G36*
X0003288208Y0000648366D02*
X0003252460Y0000648366D01*
X0003252460Y0000709114D01*
X0003288208Y0000709114D01*
X0003288208Y0000648366D01*
X0003288208Y0000648366D01*
G37*
G36*
X0003588208Y0000648366D02*
X0003552460Y0000648366D01*
X0003552460Y0000709114D01*
X0003588208Y0000709114D01*
X0003588208Y0000648366D01*
X0003588208Y0000648366D01*
G37*
G36*
X0003488208Y0000648366D02*
X0003452460Y0000648366D01*
X0003452460Y0000709114D01*
X0003488208Y0000709114D01*
X0003488208Y0000648366D01*
X0003488208Y0000648366D01*
G37*
G36*
X0003108237Y0000883400D02*
X0003113432Y0000881824D01*
X0003118219Y0000879265D01*
X0003122416Y0000875821D01*
X0003125860Y0000871625D01*
X0003128419Y0000866837D01*
X0003129994Y0000861642D01*
X0003130527Y0000856240D01*
X0003129994Y0000850837D01*
X0003128419Y0000845642D01*
X0003125860Y0000840855D01*
X0003122416Y0000836658D01*
X0003120448Y0000835044D01*
X0003119766Y0000834362D01*
X0003119230Y0000833560D01*
X0003118861Y0000832668D01*
X0003118673Y0000831722D01*
X0003118673Y0000830757D01*
X0003118861Y0000829811D01*
X0003119230Y0000828920D01*
X0003119766Y0000828118D01*
X0003120448Y0000827436D01*
X0003122416Y0000825821D01*
X0003125860Y0000821625D01*
X0003128419Y0000816837D01*
X0003129994Y0000811642D01*
X0003130527Y0000806240D01*
X0003129994Y0000800837D01*
X0003128419Y0000795642D01*
X0003128418Y0000795642D01*
X0003125959Y0000791040D01*
X0003125589Y0000790148D01*
X0003125401Y0000789202D01*
X0003125401Y0000788238D01*
X0003125589Y0000787291D01*
X0003125959Y0000786400D01*
X0003126495Y0000785598D01*
X0003127177Y0000784916D01*
X0003127979Y0000784380D01*
X0003128870Y0000784011D01*
X0003130299Y0000783799D01*
X0003130393Y0000783799D01*
X0003130393Y0000728681D01*
X0003075275Y0000728681D01*
X0003075275Y0000783799D01*
X0003075370Y0000783799D01*
X0003076330Y0000783893D01*
X0003077253Y0000784173D01*
X0003078104Y0000784628D01*
X0003078849Y0000785240D01*
X0003079461Y0000785986D01*
X0003079916Y0000786837D01*
X0003080196Y0000787760D01*
X0003080291Y0000788720D01*
X0003080196Y0000789680D01*
X0003079710Y0000791040D01*
X0003077250Y0000795642D01*
X0003077250Y0000795642D01*
X0003075674Y0000800837D01*
X0003075142Y0000806240D01*
X0003075674Y0000811642D01*
X0003077250Y0000816837D01*
X0003079809Y0000821625D01*
X0003083253Y0000825821D01*
X0003085220Y0000827436D01*
X0003085902Y0000828118D01*
X0003086438Y0000828920D01*
X0003086807Y0000829811D01*
X0003086995Y0000830757D01*
X0003086995Y0000831722D01*
X0003086807Y0000832668D01*
X0003086438Y0000833560D01*
X0003085902Y0000834362D01*
X0003085220Y0000835044D01*
X0003083253Y0000836658D01*
X0003079809Y0000840855D01*
X0003077250Y0000845642D01*
X0003075674Y0000850837D01*
X0003075142Y0000856240D01*
X0003075674Y0000861642D01*
X0003077250Y0000866837D01*
X0003079809Y0000871625D01*
X0003083253Y0000875821D01*
X0003087449Y0000879265D01*
X0003092237Y0000881824D01*
X0003097432Y0000883400D01*
X0003101480Y0000883799D01*
X0003104188Y0000883799D01*
X0003108237Y0000883400D01*
X0003108237Y0000883400D01*
G37*
G36*
X0003238208Y0000898366D02*
X0003202460Y0000898366D01*
X0003202460Y0000959114D01*
X0003238208Y0000959114D01*
X0003238208Y0000898366D01*
X0003238208Y0000898366D01*
G37*
G36*
X0003438208Y0000898366D02*
X0003402460Y0000898366D01*
X0003402460Y0000959114D01*
X0003438208Y0000959114D01*
X0003438208Y0000898366D01*
X0003438208Y0000898366D01*
G37*
G36*
X0003388208Y0000898366D02*
X0003352460Y0000898366D01*
X0003352460Y0000959114D01*
X0003388208Y0000959114D01*
X0003388208Y0000898366D01*
X0003388208Y0000898366D01*
G37*
G36*
X0003288208Y0000898366D02*
X0003252460Y0000898366D01*
X0003252460Y0000959114D01*
X0003288208Y0000959114D01*
X0003288208Y0000898366D01*
X0003288208Y0000898366D01*
G37*
G36*
X0003338208Y0000898366D02*
X0003302460Y0000898366D01*
X0003302460Y0000959114D01*
X0003338208Y0000959114D01*
X0003338208Y0000898366D01*
X0003338208Y0000898366D01*
G37*
G36*
X0003538208Y0000898366D02*
X0003502460Y0000898366D01*
X0003502460Y0000959114D01*
X0003538208Y0000959114D01*
X0003538208Y0000898366D01*
X0003538208Y0000898366D01*
G37*
G36*
X0003588208Y0000898366D02*
X0003552460Y0000898366D01*
X0003552460Y0000959114D01*
X0003588208Y0000959114D01*
X0003588208Y0000898366D01*
X0003588208Y0000898366D01*
G37*
G36*
X0003488208Y0000898366D02*
X0003452460Y0000898366D01*
X0003452460Y0000959114D01*
X0003488208Y0000959114D01*
X0003488208Y0000898366D01*
X0003488208Y0000898366D01*
G37*
G36*
X0003545708Y0001128366D02*
X0003459881Y0001128366D01*
X0003459881Y0001344114D01*
X0003545708Y0001344114D01*
X0003545708Y0001128366D01*
X0003545708Y0001128366D01*
G37*
G36*
X0003435866Y0001128366D02*
X0003350039Y0001128366D01*
X0003350039Y0001344114D01*
X0003435866Y0001344114D01*
X0003435866Y0001128366D01*
X0003435866Y0001128366D01*
G37*
G36*
X0003325629Y0001128366D02*
X0003239803Y0001128366D01*
X0003239803Y0001344114D01*
X0003325629Y0001344114D01*
X0003325629Y0001128366D01*
X0003325629Y0001128366D01*
G37*
G36*
X0003215787Y0001128366D02*
X0003129960Y0001128366D01*
X0003129960Y0001344114D01*
X0003215787Y0001344114D01*
X0003215787Y0001128366D01*
X0003215787Y0001128366D01*
G37*
G04 next file*
G04 #@! TF.GenerationSoftware,KiCad,Pcbnew,(5.0.2)-1*
G04 #@! TF.CreationDate,2019-07-10T16:32:42+02:00*
G04 #@! TF.ProjectId,joystick tester systest,6a6f7973-7469-4636-9b20-746573746572,rev?*
G04 #@! TF.SameCoordinates,Original*
G04 #@! TF.FileFunction,Soldermask,Bot*
G04 #@! TF.FilePolarity,Negative*
G04 Gerber Fmt 4.6, Leading zero omitted, Abs format (unit mm)*
G04 Created by KiCad (PCBNEW (5.0.2)-1) date 10-7-2019 16:32:42*
G01G01*
G04 APERTURE LIST*
G04 APERTURE END LIST*
D26*
G36*
X0001029763Y0001570472D02*
X0000982519Y0001570472D01*
X0000982519Y0001621653D01*
X0001029763Y0001621653D01*
X0001029763Y0001570472D01*
X0001029763Y0001570472D01*
G37*
G36*
X0000954960Y0001570472D02*
X0000907716Y0001570472D01*
X0000907716Y0001621653D01*
X0000954960Y0001621653D01*
X0000954960Y0001570472D01*
X0000954960Y0001570472D01*
G37*
G36*
X0001329763Y0001570472D02*
X0001282519Y0001570472D01*
X0001282519Y0001621653D01*
X0001329763Y0001621653D01*
X0001329763Y0001570472D01*
X0001329763Y0001570472D01*
G37*
G36*
X0001254960Y0001570472D02*
X0001207716Y0001570472D01*
X0001207716Y0001621653D01*
X0001254960Y0001621653D01*
X0001254960Y0001570472D01*
X0001254960Y0001570472D01*
G37*
G36*
X0000992362Y0001649212D02*
X0000945118Y0001649212D01*
X0000945118Y0001700393D01*
X0000992362Y0001700393D01*
X0000992362Y0001649212D01*
X0000992362Y0001649212D01*
G37*
G36*
X0001292362Y0001649212D02*
X0001245118Y0001649212D01*
X0001245118Y0001700393D01*
X0001292362Y0001700393D01*
X0001292362Y0001649212D01*
X0001292362Y0001649212D01*
G37*
G36*
X0001150492Y0001944468D02*
X0001075688Y0001944468D01*
X0001075688Y0002011397D01*
X0001150492Y0002011397D01*
X0001150492Y0001944468D01*
X0001150492Y0001944468D01*
G37*
G36*
X0001256791Y0001944468D02*
X0001181988Y0001944468D01*
X0001181988Y0002011397D01*
X0001256791Y0002011397D01*
X0001256791Y0001944468D01*
X0001256791Y0001944468D01*
G37*
G36*
X0001056791Y0001946968D02*
X0000981988Y0001946968D01*
X0000981988Y0002013897D01*
X0001056791Y0002013897D01*
X0001056791Y0001946968D01*
X0001056791Y0001946968D01*
G37*
G36*
X0000950492Y0001946968D02*
X0000875688Y0001946968D01*
X0000875688Y0002013897D01*
X0000950492Y0002013897D01*
X0000950492Y0001946968D01*
X0000950492Y0001946968D01*
G37*
G36*
X0001144114Y0002105059D02*
X0001108366Y0002105059D01*
X0001108366Y0002165807D01*
X0001144114Y0002165807D01*
X0001144114Y0002105059D01*
X0001144114Y0002105059D01*
G37*
G36*
X0000994114Y0002105059D02*
X0000958366Y0002105059D01*
X0000958366Y0002165807D01*
X0000994114Y0002165807D01*
X0000994114Y0002105059D01*
X0000994114Y0002105059D01*
G37*
G36*
X0001094114Y0002105059D02*
X0001058366Y0002105059D01*
X0001058366Y0002165807D01*
X0001094114Y0002165807D01*
X0001094114Y0002105059D01*
X0001094114Y0002105059D01*
G37*
G36*
X0001194114Y0002105059D02*
X0001158366Y0002105059D01*
X0001158366Y0002165807D01*
X0001194114Y0002165807D01*
X0001194114Y0002105059D01*
X0001194114Y0002105059D01*
G37*
G36*
X0001294114Y0002105059D02*
X0001258366Y0002105059D01*
X0001258366Y0002165807D01*
X0001294114Y0002165807D01*
X0001294114Y0002105059D01*
X0001294114Y0002105059D01*
G37*
G36*
X0001044114Y0002105059D02*
X0001008366Y0002105059D01*
X0001008366Y0002165807D01*
X0001044114Y0002165807D01*
X0001044114Y0002105059D01*
X0001044114Y0002105059D01*
G37*
G36*
X0001344114Y0002105059D02*
X0001308366Y0002105059D01*
X0001308366Y0002165807D01*
X0001344114Y0002165807D01*
X0001344114Y0002105059D01*
X0001344114Y0002105059D01*
G37*
G36*
X0001244114Y0002105059D02*
X0001208366Y0002105059D01*
X0001208366Y0002165807D01*
X0001244114Y0002165807D01*
X0001244114Y0002105059D01*
X0001244114Y0002105059D01*
G37*
G36*
X0000864142Y0002340093D02*
X0000869337Y0002338517D01*
X0000874125Y0002335958D01*
X0000878321Y0002332514D01*
X0000881765Y0002328318D01*
X0000884324Y0002323530D01*
X0000885900Y0002318335D01*
X0000886432Y0002312933D01*
X0000885900Y0002307530D01*
X0000884324Y0002302335D01*
X0000881765Y0002297547D01*
X0000878321Y0002293351D01*
X0000876354Y0002291737D01*
X0000875672Y0002291055D01*
X0000875136Y0002290252D01*
X0000874767Y0002289361D01*
X0000874578Y0002288415D01*
X0000874578Y0002287450D01*
X0000874767Y0002286504D01*
X0000875136Y0002285613D01*
X0000875672Y0002284811D01*
X0000876354Y0002284129D01*
X0000878321Y0002282514D01*
X0000881765Y0002278318D01*
X0000884324Y0002273530D01*
X0000885900Y0002268335D01*
X0000886432Y0002262933D01*
X0000885900Y0002257530D01*
X0000884324Y0002252335D01*
X0000884324Y0002252335D01*
X0000881864Y0002247733D01*
X0000881495Y0002246841D01*
X0000881307Y0002245895D01*
X0000881307Y0002244930D01*
X0000881495Y0002243984D01*
X0000881864Y0002243093D01*
X0000882400Y0002242291D01*
X0000883082Y0002241609D01*
X0000883884Y0002241073D01*
X0000884776Y0002240704D01*
X0000886204Y0002240492D01*
X0000886299Y0002240492D01*
X0000886299Y0002185374D01*
X0000831181Y0002185374D01*
X0000831181Y0002240492D01*
X0000831275Y0002240492D01*
X0000832235Y0002240586D01*
X0000833158Y0002240866D01*
X0000834009Y0002241321D01*
X0000834755Y0002241933D01*
X0000835367Y0002242679D01*
X0000835822Y0002243530D01*
X0000836102Y0002244453D01*
X0000836196Y0002245413D01*
X0000836102Y0002246373D01*
X0000835615Y0002247733D01*
X0000833155Y0002252335D01*
X0000833155Y0002252335D01*
X0000831579Y0002257530D01*
X0000831047Y0002262933D01*
X0000831579Y0002268335D01*
X0000833155Y0002273530D01*
X0000835714Y0002278318D01*
X0000839158Y0002282514D01*
X0000841125Y0002284129D01*
X0000841807Y0002284811D01*
X0000842343Y0002285613D01*
X0000842713Y0002286504D01*
X0000842901Y0002287450D01*
X0000842901Y0002288415D01*
X0000842713Y0002289361D01*
X0000842343Y0002290252D01*
X0000841807Y0002291055D01*
X0000841125Y0002291737D01*
X0000839158Y0002293351D01*
X0000835714Y0002297547D01*
X0000833155Y0002302335D01*
X0000831579Y0002307530D01*
X0000831047Y0002312933D01*
X0000831579Y0002318335D01*
X0000833155Y0002323530D01*
X0000835714Y0002328318D01*
X0000839158Y0002332514D01*
X0000843355Y0002335958D01*
X0000848142Y0002338517D01*
X0000853337Y0002340093D01*
X0000857386Y0002340492D01*
X0000860094Y0002340492D01*
X0000864142Y0002340093D01*
X0000864142Y0002340093D01*
G37*
G36*
X0000994114Y0002355059D02*
X0000958366Y0002355059D01*
X0000958366Y0002415807D01*
X0000994114Y0002415807D01*
X0000994114Y0002355059D01*
X0000994114Y0002355059D01*
G37*
G36*
X0001194114Y0002355059D02*
X0001158366Y0002355059D01*
X0001158366Y0002415807D01*
X0001194114Y0002415807D01*
X0001194114Y0002355059D01*
X0001194114Y0002355059D01*
G37*
G36*
X0001144114Y0002355059D02*
X0001108366Y0002355059D01*
X0001108366Y0002415807D01*
X0001144114Y0002415807D01*
X0001144114Y0002355059D01*
X0001144114Y0002355059D01*
G37*
G36*
X0001044114Y0002355059D02*
X0001008366Y0002355059D01*
X0001008366Y0002415807D01*
X0001044114Y0002415807D01*
X0001044114Y0002355059D01*
X0001044114Y0002355059D01*
G37*
G36*
X0001094114Y0002355059D02*
X0001058366Y0002355059D01*
X0001058366Y0002415807D01*
X0001094114Y0002415807D01*
X0001094114Y0002355059D01*
X0001094114Y0002355059D01*
G37*
G36*
X0001294114Y0002355059D02*
X0001258366Y0002355059D01*
X0001258366Y0002415807D01*
X0001294114Y0002415807D01*
X0001294114Y0002355059D01*
X0001294114Y0002355059D01*
G37*
G36*
X0001344114Y0002355059D02*
X0001308366Y0002355059D01*
X0001308366Y0002415807D01*
X0001344114Y0002415807D01*
X0001344114Y0002355059D01*
X0001344114Y0002355059D01*
G37*
G36*
X0001244114Y0002355059D02*
X0001208366Y0002355059D01*
X0001208366Y0002415807D01*
X0001244114Y0002415807D01*
X0001244114Y0002355059D01*
X0001244114Y0002355059D01*
G37*
G36*
X0001301614Y0002585059D02*
X0001215787Y0002585059D01*
X0001215787Y0002800807D01*
X0001301614Y0002800807D01*
X0001301614Y0002585059D01*
X0001301614Y0002585059D01*
G37*
G36*
X0001191771Y0002585059D02*
X0001105944Y0002585059D01*
X0001105944Y0002800807D01*
X0001191771Y0002800807D01*
X0001191771Y0002585059D01*
X0001191771Y0002585059D01*
G37*
G36*
X0001081535Y0002585059D02*
X0000995708Y0002585059D01*
X0000995708Y0002800807D01*
X0001081535Y0002800807D01*
X0001081535Y0002585059D01*
X0001081535Y0002585059D01*
G37*
G36*
X0000971692Y0002585059D02*
X0000885866Y0002585059D01*
X0000885866Y0002800807D01*
X0000971692Y0002800807D01*
X0000971692Y0002585059D01*
X0000971692Y0002585059D01*
G37*
G04 next file*
G04 #@! TF.GenerationSoftware,KiCad,Pcbnew,(5.0.2)-1*
G04 #@! TF.CreationDate,2019-07-10T16:32:42+02:00*
G04 #@! TF.ProjectId,joystick tester systest,6a6f7973-7469-4636-9b20-746573746572,rev?*
G04 #@! TF.SameCoordinates,Original*
G04 #@! TF.FileFunction,Soldermask,Bot*
G04 #@! TF.FilePolarity,Negative*
G04 Gerber Fmt 4.6, Leading zero omitted, Abs format (unit mm)*
G04 Created by KiCad (PCBNEW (5.0.2)-1) date 10-7-2019 16:32:42*
G01G01*
G04 APERTURE LIST*
G04 APERTURE END LIST*
D27*
G36*
X0001777795Y0001570472D02*
X0001730551Y0001570472D01*
X0001730551Y0001621653D01*
X0001777795Y0001621653D01*
X0001777795Y0001570472D01*
X0001777795Y0001570472D01*
G37*
G36*
X0001702992Y0001570472D02*
X0001655748Y0001570472D01*
X0001655748Y0001621653D01*
X0001702992Y0001621653D01*
X0001702992Y0001570472D01*
X0001702992Y0001570472D01*
G37*
G36*
X0002077795Y0001570472D02*
X0002030551Y0001570472D01*
X0002030551Y0001621653D01*
X0002077795Y0001621653D01*
X0002077795Y0001570472D01*
X0002077795Y0001570472D01*
G37*
G36*
X0002002992Y0001570472D02*
X0001955747Y0001570472D01*
X0001955747Y0001621653D01*
X0002002992Y0001621653D01*
X0002002992Y0001570472D01*
X0002002992Y0001570472D01*
G37*
G36*
X0001740393Y0001649212D02*
X0001693149Y0001649212D01*
X0001693149Y0001700393D01*
X0001740393Y0001700393D01*
X0001740393Y0001649212D01*
X0001740393Y0001649212D01*
G37*
G36*
X0002040393Y0001649212D02*
X0001993149Y0001649212D01*
X0001993149Y0001700393D01*
X0002040393Y0001700393D01*
X0002040393Y0001649212D01*
X0002040393Y0001649212D01*
G37*
G36*
X0001898523Y0001944468D02*
X0001823720Y0001944468D01*
X0001823720Y0002011397D01*
X0001898523Y0002011397D01*
X0001898523Y0001944468D01*
X0001898523Y0001944468D01*
G37*
G36*
X0002004822Y0001944468D02*
X0001930019Y0001944468D01*
X0001930019Y0002011397D01*
X0002004822Y0002011397D01*
X0002004822Y0001944468D01*
X0002004822Y0001944468D01*
G37*
G36*
X0001804822Y0001946968D02*
X0001730019Y0001946968D01*
X0001730019Y0002013897D01*
X0001804822Y0002013897D01*
X0001804822Y0001946968D01*
X0001804822Y0001946968D01*
G37*
G36*
X0001698523Y0001946968D02*
X0001623720Y0001946968D01*
X0001623720Y0002013897D01*
X0001698523Y0002013897D01*
X0001698523Y0001946968D01*
X0001698523Y0001946968D01*
G37*
G36*
X0001892145Y0002105059D02*
X0001856397Y0002105059D01*
X0001856397Y0002165807D01*
X0001892145Y0002165807D01*
X0001892145Y0002105059D01*
X0001892145Y0002105059D01*
G37*
G36*
X0001742145Y0002105059D02*
X0001706397Y0002105059D01*
X0001706397Y0002165807D01*
X0001742145Y0002165807D01*
X0001742145Y0002105059D01*
X0001742145Y0002105059D01*
G37*
G36*
X0001842145Y0002105059D02*
X0001806397Y0002105059D01*
X0001806397Y0002165807D01*
X0001842145Y0002165807D01*
X0001842145Y0002105059D01*
X0001842145Y0002105059D01*
G37*
G36*
X0001942145Y0002105059D02*
X0001906397Y0002105059D01*
X0001906397Y0002165807D01*
X0001942145Y0002165807D01*
X0001942145Y0002105059D01*
X0001942145Y0002105059D01*
G37*
G36*
X0002042145Y0002105059D02*
X0002006397Y0002105059D01*
X0002006397Y0002165807D01*
X0002042145Y0002165807D01*
X0002042145Y0002105059D01*
X0002042145Y0002105059D01*
G37*
G36*
X0001792145Y0002105059D02*
X0001756397Y0002105059D01*
X0001756397Y0002165807D01*
X0001792145Y0002165807D01*
X0001792145Y0002105059D01*
X0001792145Y0002105059D01*
G37*
G36*
X0002092145Y0002105059D02*
X0002056397Y0002105059D01*
X0002056397Y0002165807D01*
X0002092145Y0002165807D01*
X0002092145Y0002105059D01*
X0002092145Y0002105059D01*
G37*
G36*
X0001992145Y0002105059D02*
X0001956397Y0002105059D01*
X0001956397Y0002165807D01*
X0001992145Y0002165807D01*
X0001992145Y0002105059D01*
X0001992145Y0002105059D01*
G37*
G36*
X0001612174Y0002340093D02*
X0001617369Y0002338517D01*
X0001622156Y0002335958D01*
X0001626353Y0002332514D01*
X0001629797Y0002328318D01*
X0001632356Y0002323530D01*
X0001633931Y0002318335D01*
X0001634464Y0002312933D01*
X0001633931Y0002307530D01*
X0001632356Y0002302335D01*
X0001629797Y0002297547D01*
X0001626353Y0002293351D01*
X0001624385Y0002291737D01*
X0001623703Y0002291055D01*
X0001623167Y0002290252D01*
X0001622798Y0002289361D01*
X0001622610Y0002288415D01*
X0001622610Y0002287450D01*
X0001622798Y0002286504D01*
X0001623167Y0002285613D01*
X0001623703Y0002284811D01*
X0001624385Y0002284129D01*
X0001626353Y0002282514D01*
X0001629797Y0002278318D01*
X0001632356Y0002273530D01*
X0001633931Y0002268335D01*
X0001634464Y0002262933D01*
X0001633931Y0002257530D01*
X0001632356Y0002252335D01*
X0001632355Y0002252335D01*
X0001629896Y0002247733D01*
X0001629526Y0002246841D01*
X0001629338Y0002245895D01*
X0001629338Y0002244930D01*
X0001629526Y0002243984D01*
X0001629896Y0002243093D01*
X0001630432Y0002242291D01*
X0001631114Y0002241609D01*
X0001631916Y0002241073D01*
X0001632807Y0002240704D01*
X0001634236Y0002240492D01*
X0001634330Y0002240492D01*
X0001634330Y0002185374D01*
X0001579212Y0002185374D01*
X0001579212Y0002240492D01*
X0001579307Y0002240492D01*
X0001580267Y0002240586D01*
X0001581190Y0002240866D01*
X0001582041Y0002241321D01*
X0001582786Y0002241933D01*
X0001583398Y0002242679D01*
X0001583853Y0002243530D01*
X0001584133Y0002244453D01*
X0001584228Y0002245413D01*
X0001584133Y0002246373D01*
X0001583647Y0002247733D01*
X0001581187Y0002252335D01*
X0001581187Y0002252335D01*
X0001579611Y0002257530D01*
X0001579079Y0002262933D01*
X0001579611Y0002268335D01*
X0001581187Y0002273530D01*
X0001583746Y0002278318D01*
X0001587190Y0002282514D01*
X0001589157Y0002284129D01*
X0001589839Y0002284811D01*
X0001590375Y0002285613D01*
X0001590744Y0002286504D01*
X0001590932Y0002287450D01*
X0001590932Y0002288415D01*
X0001590744Y0002289361D01*
X0001590375Y0002290252D01*
X0001589839Y0002291055D01*
X0001589157Y0002291737D01*
X0001587190Y0002293351D01*
X0001583746Y0002297547D01*
X0001581187Y0002302335D01*
X0001579611Y0002307530D01*
X0001579079Y0002312933D01*
X0001579611Y0002318335D01*
X0001581187Y0002323530D01*
X0001583746Y0002328318D01*
X0001587190Y0002332514D01*
X0001591386Y0002335958D01*
X0001596174Y0002338517D01*
X0001601369Y0002340093D01*
X0001605417Y0002340492D01*
X0001608125Y0002340492D01*
X0001612174Y0002340093D01*
X0001612174Y0002340093D01*
G37*
G36*
X0001742145Y0002355059D02*
X0001706397Y0002355059D01*
X0001706397Y0002415807D01*
X0001742145Y0002415807D01*
X0001742145Y0002355059D01*
X0001742145Y0002355059D01*
G37*
G36*
X0001942145Y0002355059D02*
X0001906397Y0002355059D01*
X0001906397Y0002415807D01*
X0001942145Y0002415807D01*
X0001942145Y0002355059D01*
X0001942145Y0002355059D01*
G37*
G36*
X0001892145Y0002355059D02*
X0001856397Y0002355059D01*
X0001856397Y0002415807D01*
X0001892145Y0002415807D01*
X0001892145Y0002355059D01*
X0001892145Y0002355059D01*
G37*
G36*
X0001792145Y0002355059D02*
X0001756397Y0002355059D01*
X0001756397Y0002415807D01*
X0001792145Y0002415807D01*
X0001792145Y0002355059D01*
X0001792145Y0002355059D01*
G37*
G36*
X0001842145Y0002355059D02*
X0001806397Y0002355059D01*
X0001806397Y0002415807D01*
X0001842145Y0002415807D01*
X0001842145Y0002355059D01*
X0001842145Y0002355059D01*
G37*
G36*
X0002042145Y0002355059D02*
X0002006397Y0002355059D01*
X0002006397Y0002415807D01*
X0002042145Y0002415807D01*
X0002042145Y0002355059D01*
X0002042145Y0002355059D01*
G37*
G36*
X0002092145Y0002355059D02*
X0002056397Y0002355059D01*
X0002056397Y0002415807D01*
X0002092145Y0002415807D01*
X0002092145Y0002355059D01*
X0002092145Y0002355059D01*
G37*
G36*
X0001992145Y0002355059D02*
X0001956397Y0002355059D01*
X0001956397Y0002415807D01*
X0001992145Y0002415807D01*
X0001992145Y0002355059D01*
X0001992145Y0002355059D01*
G37*
G36*
X0002049645Y0002585059D02*
X0001963818Y0002585059D01*
X0001963818Y0002800807D01*
X0002049645Y0002800807D01*
X0002049645Y0002585059D01*
X0002049645Y0002585059D01*
G37*
G36*
X0001939803Y0002585059D02*
X0001853976Y0002585059D01*
X0001853976Y0002800807D01*
X0001939803Y0002800807D01*
X0001939803Y0002585059D01*
X0001939803Y0002585059D01*
G37*
G36*
X0001829566Y0002585059D02*
X0001743740Y0002585059D01*
X0001743740Y0002800807D01*
X0001829566Y0002800807D01*
X0001829566Y0002585059D01*
X0001829566Y0002585059D01*
G37*
G36*
X0001719724Y0002585059D02*
X0001633897Y0002585059D01*
X0001633897Y0002800807D01*
X0001719724Y0002800807D01*
X0001719724Y0002585059D01*
X0001719724Y0002585059D01*
G37*
G04 next file*
G04 #@! TF.GenerationSoftware,KiCad,Pcbnew,(5.0.2)-1*
G04 #@! TF.CreationDate,2019-07-10T16:32:42+02:00*
G04 #@! TF.ProjectId,joystick tester systest,6a6f7973-7469-4636-9b20-746573746572,rev?*
G04 #@! TF.SameCoordinates,Original*
G04 #@! TF.FileFunction,Soldermask,Bot*
G04 #@! TF.FilePolarity,Negative*
G04 Gerber Fmt 4.6, Leading zero omitted, Abs format (unit mm)*
G04 Created by KiCad (PCBNEW (5.0.2)-1) date 10-7-2019 16:32:42*
G01G01*
G04 APERTURE LIST*
G04 APERTURE END LIST*
D28*
G36*
X0002525826Y0001570472D02*
X0002478582Y0001570472D01*
X0002478582Y0001621653D01*
X0002525826Y0001621653D01*
X0002525826Y0001570472D01*
X0002525826Y0001570472D01*
G37*
G36*
X0002451023Y0001570472D02*
X0002403779Y0001570472D01*
X0002403779Y0001621653D01*
X0002451023Y0001621653D01*
X0002451023Y0001570472D01*
X0002451023Y0001570472D01*
G37*
G36*
X0002825826Y0001570472D02*
X0002778582Y0001570472D01*
X0002778582Y0001621653D01*
X0002825826Y0001621653D01*
X0002825826Y0001570472D01*
X0002825826Y0001570472D01*
G37*
G36*
X0002751023Y0001570472D02*
X0002703779Y0001570472D01*
X0002703779Y0001621653D01*
X0002751023Y0001621653D01*
X0002751023Y0001570472D01*
X0002751023Y0001570472D01*
G37*
G36*
X0002488425Y0001649212D02*
X0002441181Y0001649212D01*
X0002441181Y0001700393D01*
X0002488425Y0001700393D01*
X0002488425Y0001649212D01*
X0002488425Y0001649212D01*
G37*
G36*
X0002788425Y0001649212D02*
X0002741181Y0001649212D01*
X0002741181Y0001700393D01*
X0002788425Y0001700393D01*
X0002788425Y0001649212D01*
X0002788425Y0001649212D01*
G37*
G36*
X0002646555Y0001944468D02*
X0002571751Y0001944468D01*
X0002571751Y0002011397D01*
X0002646555Y0002011397D01*
X0002646555Y0001944468D01*
X0002646555Y0001944468D01*
G37*
G36*
X0002752854Y0001944468D02*
X0002678051Y0001944468D01*
X0002678051Y0002011397D01*
X0002752854Y0002011397D01*
X0002752854Y0001944468D01*
X0002752854Y0001944468D01*
G37*
G36*
X0002552854Y0001946968D02*
X0002478051Y0001946968D01*
X0002478051Y0002013897D01*
X0002552854Y0002013897D01*
X0002552854Y0001946968D01*
X0002552854Y0001946968D01*
G37*
G36*
X0002446555Y0001946968D02*
X0002371751Y0001946968D01*
X0002371751Y0002013897D01*
X0002446555Y0002013897D01*
X0002446555Y0001946968D01*
X0002446555Y0001946968D01*
G37*
G36*
X0002640177Y0002105059D02*
X0002604429Y0002105059D01*
X0002604429Y0002165807D01*
X0002640177Y0002165807D01*
X0002640177Y0002105059D01*
X0002640177Y0002105059D01*
G37*
G36*
X0002490177Y0002105059D02*
X0002454429Y0002105059D01*
X0002454429Y0002165807D01*
X0002490177Y0002165807D01*
X0002490177Y0002105059D01*
X0002490177Y0002105059D01*
G37*
G36*
X0002590177Y0002105059D02*
X0002554429Y0002105059D01*
X0002554429Y0002165807D01*
X0002590177Y0002165807D01*
X0002590177Y0002105059D01*
X0002590177Y0002105059D01*
G37*
G36*
X0002690177Y0002105059D02*
X0002654429Y0002105059D01*
X0002654429Y0002165807D01*
X0002690177Y0002165807D01*
X0002690177Y0002105059D01*
X0002690177Y0002105059D01*
G37*
G36*
X0002790177Y0002105059D02*
X0002754429Y0002105059D01*
X0002754429Y0002165807D01*
X0002790177Y0002165807D01*
X0002790177Y0002105059D01*
X0002790177Y0002105059D01*
G37*
G36*
X0002540177Y0002105059D02*
X0002504429Y0002105059D01*
X0002504429Y0002165807D01*
X0002540177Y0002165807D01*
X0002540177Y0002105059D01*
X0002540177Y0002105059D01*
G37*
G36*
X0002840177Y0002105059D02*
X0002804429Y0002105059D01*
X0002804429Y0002165807D01*
X0002840177Y0002165807D01*
X0002840177Y0002105059D01*
X0002840177Y0002105059D01*
G37*
G36*
X0002740177Y0002105059D02*
X0002704429Y0002105059D01*
X0002704429Y0002165807D01*
X0002740177Y0002165807D01*
X0002740177Y0002105059D01*
X0002740177Y0002105059D01*
G37*
G36*
X0002360205Y0002340093D02*
X0002365400Y0002338517D01*
X0002370188Y0002335958D01*
X0002374384Y0002332514D01*
X0002377828Y0002328318D01*
X0002380387Y0002323530D01*
X0002381963Y0002318335D01*
X0002382495Y0002312933D01*
X0002381963Y0002307530D01*
X0002380387Y0002302335D01*
X0002377828Y0002297547D01*
X0002374384Y0002293351D01*
X0002372417Y0002291737D01*
X0002371735Y0002291055D01*
X0002371199Y0002290252D01*
X0002370830Y0002289361D01*
X0002370641Y0002288415D01*
X0002370641Y0002287450D01*
X0002370830Y0002286504D01*
X0002371199Y0002285613D01*
X0002371735Y0002284811D01*
X0002372417Y0002284129D01*
X0002374384Y0002282514D01*
X0002377828Y0002278318D01*
X0002380387Y0002273530D01*
X0002381963Y0002268335D01*
X0002382495Y0002262933D01*
X0002381963Y0002257530D01*
X0002380387Y0002252335D01*
X0002380387Y0002252335D01*
X0002377927Y0002247733D01*
X0002377558Y0002246841D01*
X0002377370Y0002245895D01*
X0002377370Y0002244930D01*
X0002377558Y0002243984D01*
X0002377927Y0002243093D01*
X0002378463Y0002242291D01*
X0002379145Y0002241609D01*
X0002379947Y0002241073D01*
X0002380839Y0002240704D01*
X0002382267Y0002240492D01*
X0002382362Y0002240492D01*
X0002382362Y0002185374D01*
X0002327244Y0002185374D01*
X0002327244Y0002240492D01*
X0002327338Y0002240492D01*
X0002328298Y0002240586D01*
X0002329221Y0002240866D01*
X0002330072Y0002241321D01*
X0002330818Y0002241933D01*
X0002331430Y0002242679D01*
X0002331885Y0002243530D01*
X0002332165Y0002244453D01*
X0002332259Y0002245413D01*
X0002332165Y0002246373D01*
X0002331678Y0002247733D01*
X0002329218Y0002252335D01*
X0002329218Y0002252335D01*
X0002327642Y0002257530D01*
X0002327110Y0002262933D01*
X0002327642Y0002268335D01*
X0002329218Y0002273530D01*
X0002331777Y0002278318D01*
X0002335221Y0002282514D01*
X0002337188Y0002284129D01*
X0002337870Y0002284811D01*
X0002338406Y0002285613D01*
X0002338776Y0002286504D01*
X0002338964Y0002287450D01*
X0002338964Y0002288415D01*
X0002338776Y0002289361D01*
X0002338406Y0002290252D01*
X0002337870Y0002291055D01*
X0002337188Y0002291737D01*
X0002335221Y0002293351D01*
X0002331777Y0002297547D01*
X0002329218Y0002302335D01*
X0002327642Y0002307530D01*
X0002327110Y0002312933D01*
X0002327642Y0002318335D01*
X0002329218Y0002323530D01*
X0002331777Y0002328318D01*
X0002335221Y0002332514D01*
X0002339418Y0002335958D01*
X0002344205Y0002338517D01*
X0002349400Y0002340093D01*
X0002353449Y0002340492D01*
X0002356157Y0002340492D01*
X0002360205Y0002340093D01*
X0002360205Y0002340093D01*
G37*
G36*
X0002490177Y0002355059D02*
X0002454429Y0002355059D01*
X0002454429Y0002415807D01*
X0002490177Y0002415807D01*
X0002490177Y0002355059D01*
X0002490177Y0002355059D01*
G37*
G36*
X0002690177Y0002355059D02*
X0002654429Y0002355059D01*
X0002654429Y0002415807D01*
X0002690177Y0002415807D01*
X0002690177Y0002355059D01*
X0002690177Y0002355059D01*
G37*
G36*
X0002640177Y0002355059D02*
X0002604429Y0002355059D01*
X0002604429Y0002415807D01*
X0002640177Y0002415807D01*
X0002640177Y0002355059D01*
X0002640177Y0002355059D01*
G37*
G36*
X0002540177Y0002355059D02*
X0002504429Y0002355059D01*
X0002504429Y0002415807D01*
X0002540177Y0002415807D01*
X0002540177Y0002355059D01*
X0002540177Y0002355059D01*
G37*
G36*
X0002590177Y0002355059D02*
X0002554429Y0002355059D01*
X0002554429Y0002415807D01*
X0002590177Y0002415807D01*
X0002590177Y0002355059D01*
X0002590177Y0002355059D01*
G37*
G36*
X0002790177Y0002355059D02*
X0002754429Y0002355059D01*
X0002754429Y0002415807D01*
X0002790177Y0002415807D01*
X0002790177Y0002355059D01*
X0002790177Y0002355059D01*
G37*
G36*
X0002840177Y0002355059D02*
X0002804429Y0002355059D01*
X0002804429Y0002415807D01*
X0002840177Y0002415807D01*
X0002840177Y0002355059D01*
X0002840177Y0002355059D01*
G37*
G36*
X0002740177Y0002355059D02*
X0002704429Y0002355059D01*
X0002704429Y0002415807D01*
X0002740177Y0002415807D01*
X0002740177Y0002355059D01*
X0002740177Y0002355059D01*
G37*
G36*
X0002797677Y0002585059D02*
X0002711850Y0002585059D01*
X0002711850Y0002800807D01*
X0002797677Y0002800807D01*
X0002797677Y0002585059D01*
X0002797677Y0002585059D01*
G37*
G36*
X0002687834Y0002585059D02*
X0002602007Y0002585059D01*
X0002602007Y0002800807D01*
X0002687834Y0002800807D01*
X0002687834Y0002585059D01*
X0002687834Y0002585059D01*
G37*
G36*
X0002577598Y0002585059D02*
X0002491771Y0002585059D01*
X0002491771Y0002800807D01*
X0002577598Y0002800807D01*
X0002577598Y0002585059D01*
X0002577598Y0002585059D01*
G37*
G36*
X0002467755Y0002585059D02*
X0002381929Y0002585059D01*
X0002381929Y0002800807D01*
X0002467755Y0002800807D01*
X0002467755Y0002585059D01*
X0002467755Y0002585059D01*
G37*
G04 next file*
G04 #@! TF.GenerationSoftware,KiCad,Pcbnew,(5.0.2)-1*
G04 #@! TF.CreationDate,2019-07-10T16:32:42+02:00*
G04 #@! TF.ProjectId,joystick tester systest,6a6f7973-7469-4636-9b20-746573746572,rev?*
G04 #@! TF.SameCoordinates,Original*
G04 #@! TF.FileFunction,Soldermask,Bot*
G04 #@! TF.FilePolarity,Negative*
G04 Gerber Fmt 4.6, Leading zero omitted, Abs format (unit mm)*
G04 Created by KiCad (PCBNEW (5.0.2)-1) date 10-7-2019 16:32:42*
G01G01*
G04 APERTURE LIST*
G04 APERTURE END LIST*
D29*
G36*
X0003273858Y0001570472D02*
X0003226614Y0001570472D01*
X0003226614Y0001621653D01*
X0003273858Y0001621653D01*
X0003273858Y0001570472D01*
X0003273858Y0001570472D01*
G37*
G36*
X0003199055Y0001570472D02*
X0003151811Y0001570472D01*
X0003151811Y0001621653D01*
X0003199055Y0001621653D01*
X0003199055Y0001570472D01*
X0003199055Y0001570472D01*
G37*
G36*
X0003573858Y0001570472D02*
X0003526614Y0001570472D01*
X0003526614Y0001621653D01*
X0003573858Y0001621653D01*
X0003573858Y0001570472D01*
X0003573858Y0001570472D01*
G37*
G36*
X0003499055Y0001570472D02*
X0003451810Y0001570472D01*
X0003451810Y0001621653D01*
X0003499055Y0001621653D01*
X0003499055Y0001570472D01*
X0003499055Y0001570472D01*
G37*
G36*
X0003236456Y0001649212D02*
X0003189212Y0001649212D01*
X0003189212Y0001700393D01*
X0003236456Y0001700393D01*
X0003236456Y0001649212D01*
X0003236456Y0001649212D01*
G37*
G36*
X0003536456Y0001649212D02*
X0003489212Y0001649212D01*
X0003489212Y0001700393D01*
X0003536456Y0001700393D01*
X0003536456Y0001649212D01*
X0003536456Y0001649212D01*
G37*
G36*
X0003394586Y0001944468D02*
X0003319783Y0001944468D01*
X0003319783Y0002011397D01*
X0003394586Y0002011397D01*
X0003394586Y0001944468D01*
X0003394586Y0001944468D01*
G37*
G36*
X0003500885Y0001944468D02*
X0003426082Y0001944468D01*
X0003426082Y0002011397D01*
X0003500885Y0002011397D01*
X0003500885Y0001944468D01*
X0003500885Y0001944468D01*
G37*
G36*
X0003300885Y0001946968D02*
X0003226082Y0001946968D01*
X0003226082Y0002013897D01*
X0003300885Y0002013897D01*
X0003300885Y0001946968D01*
X0003300885Y0001946968D01*
G37*
G36*
X0003194586Y0001946968D02*
X0003119783Y0001946968D01*
X0003119783Y0002013897D01*
X0003194586Y0002013897D01*
X0003194586Y0001946968D01*
X0003194586Y0001946968D01*
G37*
G36*
X0003388208Y0002105059D02*
X0003352460Y0002105059D01*
X0003352460Y0002165807D01*
X0003388208Y0002165807D01*
X0003388208Y0002105059D01*
X0003388208Y0002105059D01*
G37*
G36*
X0003238208Y0002105059D02*
X0003202460Y0002105059D01*
X0003202460Y0002165807D01*
X0003238208Y0002165807D01*
X0003238208Y0002105059D01*
X0003238208Y0002105059D01*
G37*
G36*
X0003338208Y0002105059D02*
X0003302460Y0002105059D01*
X0003302460Y0002165807D01*
X0003338208Y0002165807D01*
X0003338208Y0002105059D01*
X0003338208Y0002105059D01*
G37*
G36*
X0003438208Y0002105059D02*
X0003402460Y0002105059D01*
X0003402460Y0002165807D01*
X0003438208Y0002165807D01*
X0003438208Y0002105059D01*
X0003438208Y0002105059D01*
G37*
G36*
X0003538208Y0002105059D02*
X0003502460Y0002105059D01*
X0003502460Y0002165807D01*
X0003538208Y0002165807D01*
X0003538208Y0002105059D01*
X0003538208Y0002105059D01*
G37*
G36*
X0003288208Y0002105059D02*
X0003252460Y0002105059D01*
X0003252460Y0002165807D01*
X0003288208Y0002165807D01*
X0003288208Y0002105059D01*
X0003288208Y0002105059D01*
G37*
G36*
X0003588208Y0002105059D02*
X0003552460Y0002105059D01*
X0003552460Y0002165807D01*
X0003588208Y0002165807D01*
X0003588208Y0002105059D01*
X0003588208Y0002105059D01*
G37*
G36*
X0003488208Y0002105059D02*
X0003452460Y0002105059D01*
X0003452460Y0002165807D01*
X0003488208Y0002165807D01*
X0003488208Y0002105059D01*
X0003488208Y0002105059D01*
G37*
G36*
X0003108237Y0002340093D02*
X0003113432Y0002338517D01*
X0003118219Y0002335958D01*
X0003122416Y0002332514D01*
X0003125860Y0002328318D01*
X0003128419Y0002323530D01*
X0003129994Y0002318335D01*
X0003130527Y0002312933D01*
X0003129994Y0002307530D01*
X0003128419Y0002302335D01*
X0003125860Y0002297547D01*
X0003122416Y0002293351D01*
X0003120448Y0002291737D01*
X0003119766Y0002291055D01*
X0003119230Y0002290252D01*
X0003118861Y0002289361D01*
X0003118673Y0002288415D01*
X0003118673Y0002287450D01*
X0003118861Y0002286504D01*
X0003119230Y0002285613D01*
X0003119766Y0002284811D01*
X0003120448Y0002284129D01*
X0003122416Y0002282514D01*
X0003125860Y0002278318D01*
X0003128419Y0002273530D01*
X0003129994Y0002268335D01*
X0003130527Y0002262933D01*
X0003129994Y0002257530D01*
X0003128419Y0002252335D01*
X0003128418Y0002252335D01*
X0003125959Y0002247733D01*
X0003125589Y0002246841D01*
X0003125401Y0002245895D01*
X0003125401Y0002244930D01*
X0003125589Y0002243984D01*
X0003125959Y0002243093D01*
X0003126495Y0002242291D01*
X0003127177Y0002241609D01*
X0003127979Y0002241073D01*
X0003128870Y0002240704D01*
X0003130299Y0002240492D01*
X0003130393Y0002240492D01*
X0003130393Y0002185374D01*
X0003075275Y0002185374D01*
X0003075275Y0002240492D01*
X0003075370Y0002240492D01*
X0003076330Y0002240586D01*
X0003077253Y0002240866D01*
X0003078104Y0002241321D01*
X0003078849Y0002241933D01*
X0003079461Y0002242679D01*
X0003079916Y0002243530D01*
X0003080196Y0002244453D01*
X0003080291Y0002245413D01*
X0003080196Y0002246373D01*
X0003079710Y0002247733D01*
X0003077250Y0002252335D01*
X0003077250Y0002252335D01*
X0003075674Y0002257530D01*
X0003075142Y0002262933D01*
X0003075674Y0002268335D01*
X0003077250Y0002273530D01*
X0003079809Y0002278318D01*
X0003083253Y0002282514D01*
X0003085220Y0002284129D01*
X0003085902Y0002284811D01*
X0003086438Y0002285613D01*
X0003086807Y0002286504D01*
X0003086995Y0002287450D01*
X0003086995Y0002288415D01*
X0003086807Y0002289361D01*
X0003086438Y0002290252D01*
X0003085902Y0002291055D01*
X0003085220Y0002291737D01*
X0003083253Y0002293351D01*
X0003079809Y0002297547D01*
X0003077250Y0002302335D01*
X0003075674Y0002307530D01*
X0003075142Y0002312933D01*
X0003075674Y0002318335D01*
X0003077250Y0002323530D01*
X0003079809Y0002328318D01*
X0003083253Y0002332514D01*
X0003087449Y0002335958D01*
X0003092237Y0002338517D01*
X0003097432Y0002340093D01*
X0003101480Y0002340492D01*
X0003104188Y0002340492D01*
X0003108237Y0002340093D01*
X0003108237Y0002340093D01*
G37*
G36*
X0003238208Y0002355059D02*
X0003202460Y0002355059D01*
X0003202460Y0002415807D01*
X0003238208Y0002415807D01*
X0003238208Y0002355059D01*
X0003238208Y0002355059D01*
G37*
G36*
X0003438208Y0002355059D02*
X0003402460Y0002355059D01*
X0003402460Y0002415807D01*
X0003438208Y0002415807D01*
X0003438208Y0002355059D01*
X0003438208Y0002355059D01*
G37*
G36*
X0003388208Y0002355059D02*
X0003352460Y0002355059D01*
X0003352460Y0002415807D01*
X0003388208Y0002415807D01*
X0003388208Y0002355059D01*
X0003388208Y0002355059D01*
G37*
G36*
X0003288208Y0002355059D02*
X0003252460Y0002355059D01*
X0003252460Y0002415807D01*
X0003288208Y0002415807D01*
X0003288208Y0002355059D01*
X0003288208Y0002355059D01*
G37*
G36*
X0003338208Y0002355059D02*
X0003302460Y0002355059D01*
X0003302460Y0002415807D01*
X0003338208Y0002415807D01*
X0003338208Y0002355059D01*
X0003338208Y0002355059D01*
G37*
G36*
X0003538208Y0002355059D02*
X0003502460Y0002355059D01*
X0003502460Y0002415807D01*
X0003538208Y0002415807D01*
X0003538208Y0002355059D01*
X0003538208Y0002355059D01*
G37*
G36*
X0003588208Y0002355059D02*
X0003552460Y0002355059D01*
X0003552460Y0002415807D01*
X0003588208Y0002415807D01*
X0003588208Y0002355059D01*
X0003588208Y0002355059D01*
G37*
G36*
X0003488208Y0002355059D02*
X0003452460Y0002355059D01*
X0003452460Y0002415807D01*
X0003488208Y0002415807D01*
X0003488208Y0002355059D01*
X0003488208Y0002355059D01*
G37*
G36*
X0003545708Y0002585059D02*
X0003459881Y0002585059D01*
X0003459881Y0002800807D01*
X0003545708Y0002800807D01*
X0003545708Y0002585059D01*
X0003545708Y0002585059D01*
G37*
G36*
X0003435866Y0002585059D02*
X0003350039Y0002585059D01*
X0003350039Y0002800807D01*
X0003435866Y0002800807D01*
X0003435866Y0002585059D01*
X0003435866Y0002585059D01*
G37*
G36*
X0003325629Y0002585059D02*
X0003239803Y0002585059D01*
X0003239803Y0002800807D01*
X0003325629Y0002800807D01*
X0003325629Y0002585059D01*
X0003325629Y0002585059D01*
G37*
G36*
X0003215787Y0002585059D02*
X0003129960Y0002585059D01*
X0003129960Y0002800807D01*
X0003215787Y0002800807D01*
X0003215787Y0002585059D01*
X0003215787Y0002585059D01*
G37*
M02*