%MOIN*%
%OFA0B0*%
%FSLAX46Y46*%
%IPPOS*%
%LPD*%
%ADD10R,0.02X0.045000000000000005*%
%ADD11R,0.070078740157480321X0.2*%
%ADD12R,0.059055118110236227X0.051181102362204731*%
%ADD13R,0.03937007874015748X0.03937007874015748*%
%ADD14O,0.03937007874015748X0.03937007874015748*%
%ADD15R,0.031496062992125991X0.035433070866141732*%
%ADD16C,0.023622047244094488*%
%ADD17C,0.00984251968503937*%
%ADD28R,0.02X0.045000000000000005*%
%ADD29R,0.070078740157480321X0.2*%
%ADD30R,0.059055118110236227X0.051181102362204731*%
%ADD31R,0.03937007874015748X0.03937007874015748*%
%ADD32O,0.03937007874015748X0.03937007874015748*%
%ADD33R,0.031496062992125991X0.035433070866141732*%
%ADD34C,0.023622047244094488*%
%ADD35C,0.00984251968503937*%
%ADD36R,0.02X0.045000000000000005*%
%ADD37R,0.070078740157480321X0.2*%
%ADD38R,0.059055118110236227X0.051181102362204731*%
%ADD39R,0.03937007874015748X0.03937007874015748*%
%ADD40O,0.03937007874015748X0.03937007874015748*%
%ADD41R,0.031496062992125991X0.035433070866141732*%
%ADD42C,0.023622047244094488*%
%ADD43C,0.00984251968503937*%
%ADD44R,0.02X0.045000000000000005*%
%ADD45R,0.070078740157480321X0.2*%
%ADD46R,0.059055118110236227X0.051181102362204731*%
%ADD47R,0.03937007874015748X0.03937007874015748*%
%ADD48O,0.03937007874015748X0.03937007874015748*%
%ADD49R,0.031496062992125991X0.035433070866141732*%
%ADD50C,0.023622047244094488*%
%ADD51C,0.00984251968503937*%
%ADD52R,0.02X0.045000000000000005*%
%ADD53R,0.070078740157480321X0.2*%
%ADD54R,0.059055118110236227X0.051181102362204731*%
%ADD55R,0.03937007874015748X0.03937007874015748*%
%ADD56O,0.03937007874015748X0.03937007874015748*%
%ADD57R,0.031496062992125991X0.035433070866141732*%
%ADD58C,0.023622047244094488*%
%ADD59C,0.00984251968503937*%
%ADD60R,0.02X0.045000000000000005*%
%ADD61R,0.070078740157480321X0.2*%
%ADD62R,0.059055118110236227X0.051181102362204731*%
%ADD63R,0.03937007874015748X0.03937007874015748*%
%ADD64O,0.03937007874015748X0.03937007874015748*%
%ADD65R,0.031496062992125991X0.035433070866141732*%
%ADD66C,0.023622047244094488*%
%ADD67C,0.00984251968503937*%
%ADD68R,0.02X0.045000000000000005*%
%ADD69R,0.070078740157480321X0.2*%
%ADD70R,0.059055118110236227X0.051181102362204731*%
%ADD71R,0.03937007874015748X0.03937007874015748*%
%ADD72O,0.03937007874015748X0.03937007874015748*%
%ADD73R,0.031496062992125991X0.035433070866141732*%
%ADD74C,0.023622047244094488*%
%ADD75C,0.00984251968503937*%
%ADD76R,0.02X0.045000000000000005*%
%ADD77R,0.070078740157480321X0.2*%
%ADD78R,0.059055118110236227X0.051181102362204731*%
%ADD79R,0.03937007874015748X0.03937007874015748*%
%ADD80O,0.03937007874015748X0.03937007874015748*%
%ADD81R,0.031496062992125991X0.035433070866141732*%
%ADD82C,0.023622047244094488*%
%ADD83C,0.00984251968503937*%
%ADD84R,0.02X0.045000000000000005*%
%ADD85R,0.070078740157480321X0.2*%
%ADD86R,0.059055118110236227X0.051181102362204731*%
%ADD87R,0.03937007874015748X0.03937007874015748*%
%ADD88O,0.03937007874015748X0.03937007874015748*%
%ADD89R,0.031496062992125991X0.035433070866141732*%
%ADD90C,0.023622047244094488*%
%ADD91C,0.00984251968503937*%
%ADD92R,0.02X0.045000000000000005*%
%ADD93R,0.070078740157480321X0.2*%
%ADD94R,0.059055118110236227X0.051181102362204731*%
%ADD95R,0.03937007874015748X0.03937007874015748*%
%ADD96O,0.03937007874015748X0.03937007874015748*%
%ADD97R,0.031496062992125991X0.035433070866141732*%
%ADD98C,0.023622047244094488*%
%ADD99C,0.00984251968503937*%
G01G01*
D10*
X-0005677499Y0005077500D02*
X0000220000Y0000677500D03*
X0000320000Y0000677500D03*
X0000370000Y0000677500D03*
X0000420000Y0000677500D03*
X0000470000Y0000677500D03*
X0000520000Y0000677500D03*
X0000570000Y0000677500D03*
X0000570000Y0000927500D03*
X0000520000Y0000927500D03*
X0000470000Y0000927500D03*
X0000420000Y0000927500D03*
X0000370000Y0000927500D03*
X0000320000Y0000927500D03*
X0000270000Y0000927500D03*
X0000220000Y0000927500D03*
X0000270000Y0000677500D03*
D11*
X0000172539Y0001235000D03*
X0000282382Y0001235000D03*
X0000392618Y0001235000D03*
X0000502460Y0001235000D03*
D12*
X0000463149Y0000520000D03*
X0000356850Y0000520000D03*
X0000263149Y0000522500D03*
X0000156850Y0000522500D03*
D13*
X0000102500Y0000755000D03*
D14*
X0000102500Y0000805000D03*
X0000102500Y0000855000D03*
D15*
X0000549901Y0000138130D03*
X0000475098Y0000138130D03*
X0000512500Y0000216870D03*
X0000249901Y0000138130D03*
X0000175098Y0000138130D03*
X0000212500Y0000216870D03*
D16*
X0000102500Y0000652500D03*
X0000067500Y0001065000D03*
X0000457500Y0000455000D03*
X0000207500Y0000862500D03*
X0000432500Y0000312500D03*
X0000307500Y0000187500D03*
X0000072500Y0000357500D03*
X0000537500Y0000977500D03*
X0000487500Y0001097500D03*
X0000370000Y0000630000D03*
X0000577500Y0000862500D03*
X0000522500Y0000742500D03*
X0000117500Y0000457500D03*
X0000212500Y0000457500D03*
X0000182500Y0000332500D03*
X0000282500Y0000332500D03*
X0000157500Y0000457500D03*
X0000182500Y0000292500D03*
X0000057500Y0000417500D03*
X0000287500Y0000622500D03*
X0000247500Y0000627500D03*
X0000282500Y0000287500D03*
X0000387500Y0000457500D03*
X0000452500Y0000627500D03*
X0000472500Y0000862500D03*
X0000322500Y0000862500D03*
X0000242500Y0000792500D03*
X0000272500Y0000862500D03*
X0000437500Y0001065000D03*
X0000162500Y0000977500D03*
X0000212500Y0000162500D03*
X0000372500Y0001052500D03*
X0000222500Y0000742500D03*
X0000202500Y0000627500D03*
X0000497500Y0000347500D03*
X0000292500Y0000457500D03*
X0000407500Y0000347500D03*
X0000575000Y0000200000D03*
X0000462500Y0000197500D03*
X0000327500Y0000982500D03*
D17*
X0000172500Y0000677500D02*
X0000172500Y0000675000D01*
X0000472500Y0000677500D02*
X0000472500Y0000662500D01*
X0000067500Y0001065000D02*
X0000255000Y0001065000D01*
X0000220000Y0000677500D02*
X0000202500Y0000677500D01*
X0000192500Y0000667500D02*
X0000202500Y0000677500D01*
X0000117500Y0000667500D02*
X0000192500Y0000667500D01*
X0000102500Y0000652500D02*
X0000117500Y0000667500D01*
X0000282382Y0001092382D02*
X0000282382Y0001235000D01*
X0000255000Y0001065000D02*
X0000282382Y0001092382D01*
X0000282382Y0001235000D02*
X0000282500Y0001232500D01*
X0000220000Y0000677500D02*
X0000220000Y0000685000D01*
X0000220000Y0000685000D02*
X0000262500Y0000727500D01*
X0000500000Y0000455000D02*
X0000457500Y0000455000D01*
X0000525000Y0000480000D02*
X0000500000Y0000455000D01*
X0000525000Y0000557500D02*
X0000525000Y0000480000D01*
X0000495000Y0000587500D02*
X0000525000Y0000557500D01*
X0000370000Y0000587500D02*
X0000495000Y0000587500D01*
X0000345000Y0000612500D02*
X0000370000Y0000587500D01*
X0000345000Y0000722500D02*
X0000345000Y0000612500D01*
X0000340000Y0000727500D02*
X0000345000Y0000722500D01*
X0000262500Y0000727500D02*
X0000340000Y0000727500D01*
X0000207500Y0000862500D02*
X0000207500Y0000767500D01*
X0000207500Y0000767500D02*
X0000197500Y0000757500D01*
X0000197500Y0000757500D02*
X0000197500Y0000702500D01*
X0000222500Y0000677500D02*
X0000197500Y0000702500D01*
X0000297382Y0001232500D02*
X0000297500Y0001232500D01*
X0000297500Y0001232500D02*
X0000297500Y0001177500D01*
X0000222500Y0000677500D02*
X0000220000Y0000677500D01*
X0000297382Y0001232500D02*
X0000297500Y0001232500D01*
X0000222500Y0000677500D02*
X0000222500Y0000692500D01*
X0000432500Y0000312500D02*
X0000307500Y0000187500D01*
X0000175098Y0000138130D02*
X0000141870Y0000138130D01*
X0000072500Y0000207500D02*
X0000072500Y0000357500D01*
X0000141870Y0000138130D02*
X0000072500Y0000207500D01*
X0000175098Y0000138130D02*
X0000175098Y0000114901D01*
X0000175098Y0000114901D02*
X0000212500Y0000077500D01*
X0000212500Y0000077500D02*
X0000432500Y0000077500D01*
X0000432500Y0000077500D02*
X0000475098Y0000120098D01*
X0000475098Y0000120098D02*
X0000475098Y0000138130D01*
X0000487500Y0001097500D02*
X0000422500Y0001097500D01*
X0000572500Y0000942500D02*
X0000537500Y0000977500D01*
X0000392618Y0001127382D02*
X0000392618Y0001235000D01*
X0000422500Y0001097500D02*
X0000392618Y0001127382D01*
X0000370000Y0000630000D02*
X0000370000Y0000677500D01*
X0000570000Y0000927500D02*
X0000572500Y0000927500D01*
X0000572500Y0000927500D02*
X0000572500Y0000942500D01*
X0000407500Y0001232500D02*
X0000407618Y0001232500D01*
X0000577500Y0000862500D02*
X0000577500Y0000922500D01*
X0000577500Y0000922500D02*
X0000572500Y0000927500D01*
X0000572500Y0000927500D02*
X0000570000Y0000927500D01*
X0000372500Y0000677500D02*
X0000370000Y0000677500D01*
X0000370000Y0000677500D02*
X0000372500Y0000677500D01*
X0000372500Y0000677500D02*
X0000372500Y0000697500D01*
X0000372500Y0000697500D02*
X0000417500Y0000742500D01*
X0000417500Y0000742500D02*
X0000522500Y0000742500D01*
X0000407500Y0001232500D02*
X0000407618Y0001232500D01*
X0000117500Y0000457500D02*
X0000142500Y0000432500D01*
X0000142500Y0000432500D02*
X0000172500Y0000432500D01*
X0000172500Y0000432500D02*
X0000197500Y0000457500D01*
X0000197500Y0000457500D02*
X0000212500Y0000457500D01*
X0000182500Y0000332500D02*
X0000282500Y0000332500D01*
X0000157500Y0000457500D02*
X0000157500Y0000522500D01*
X0000157500Y0000522500D02*
X0000156850Y0000522500D01*
X0000182500Y0000292500D02*
X0000057500Y0000417500D01*
X0000287500Y0000622500D02*
X0000287500Y0000627500D01*
X0000287500Y0000627500D02*
X0000297500Y0000637500D01*
X0000297500Y0000637500D02*
X0000297500Y0000652500D01*
X0000297500Y0000652500D02*
X0000322500Y0000677500D01*
X0000322500Y0000677500D02*
X0000320000Y0000677500D01*
X0000322500Y0000677500D02*
X0000322500Y0000692500D01*
X0000270000Y0000677500D02*
X0000272500Y0000677500D01*
X0000272500Y0000677500D02*
X0000272500Y0000652500D01*
X0000272500Y0000652500D02*
X0000247500Y0000627500D01*
X0000282500Y0000287500D02*
X0000282500Y0000292500D01*
X0000282500Y0000292500D02*
X0000307500Y0000317500D01*
X0000307500Y0000317500D02*
X0000307500Y0000377500D01*
X0000307500Y0000377500D02*
X0000387500Y0000457500D01*
X0000520000Y0000677500D02*
X0000522500Y0000677500D01*
X0000522500Y0000677500D02*
X0000522500Y0000662500D01*
X0000522500Y0000662500D02*
X0000487500Y0000627500D01*
X0000487500Y0000627500D02*
X0000452500Y0000627500D01*
X0000472500Y0000862500D02*
X0000497500Y0000887500D01*
X0000497500Y0000887500D02*
X0000497500Y0000902500D01*
X0000497500Y0000902500D02*
X0000522500Y0000927500D01*
X0000522500Y0000927500D02*
X0000520000Y0000927500D01*
X0000522500Y0000927500D02*
X0000522500Y0000942500D01*
X0000527500Y0000922500D02*
X0000522500Y0000927500D01*
X0000370000Y0000927500D02*
X0000372500Y0000927500D01*
X0000372500Y0000927500D02*
X0000372500Y0000912500D01*
X0000372500Y0000912500D02*
X0000322500Y0000862500D01*
X0000320000Y0000927500D02*
X0000322500Y0000927500D01*
X0000322500Y0000927500D02*
X0000322500Y0000902500D01*
X0000322500Y0000902500D02*
X0000297500Y0000877500D01*
X0000297500Y0000877500D02*
X0000297500Y0000847500D01*
X0000297500Y0000847500D02*
X0000242500Y0000792500D01*
X0000322500Y0000927500D02*
X0000322500Y0000907500D01*
X0000270000Y0000927500D02*
X0000272500Y0000927500D01*
X0000272500Y0000927500D02*
X0000272500Y0000862500D01*
X0000162500Y0000980000D02*
X0000207500Y0001025000D01*
X0000207500Y0001025000D02*
X0000397500Y0001025000D01*
X0000397500Y0001025000D02*
X0000437500Y0001065000D01*
X0000162500Y0000977500D02*
X0000162500Y0000980000D01*
X0000212500Y0000162500D02*
X0000212500Y0000216870D01*
X0000172539Y0001127539D02*
X0000145000Y0001100000D01*
X0000145000Y0001100000D02*
X0000055000Y0001100000D01*
X0000055000Y0001100000D02*
X0000035000Y0001080000D01*
X0000035000Y0001080000D02*
X0000035000Y0001047500D01*
X0000035000Y0001047500D02*
X0000047500Y0001035000D01*
X0000047500Y0001035000D02*
X0000177500Y0001035000D01*
X0000177500Y0001035000D02*
X0000187500Y0001045000D01*
X0000187500Y0001045000D02*
X0000365000Y0001045000D01*
X0000365000Y0001045000D02*
X0000372500Y0001052500D01*
X0000172539Y0001235000D02*
X0000172539Y0001127539D01*
X0000187539Y0001232500D02*
X0000187500Y0001232500D01*
X0000187500Y0001232500D02*
X0000187539Y0001232500D01*
X0000502460Y0001235000D02*
X0000502460Y0001132539D01*
X0000617500Y0000321870D02*
X0000512500Y0000216870D01*
X0000617500Y0001017500D02*
X0000617500Y0000321870D01*
X0000502460Y0001132539D02*
X0000617500Y0001017500D01*
X0000517500Y0001232500D02*
X0000517460Y0001232500D01*
X0000420000Y0000927500D02*
X0000422500Y0000927500D01*
X0000422500Y0000927500D02*
X0000422500Y0000912500D01*
X0000422500Y0000912500D02*
X0000252500Y0000742500D01*
X0000252500Y0000742500D02*
X0000222500Y0000742500D01*
X0000202500Y0000627500D02*
X0000267500Y0000562500D01*
X0000267500Y0000562500D02*
X0000402500Y0000562500D01*
X0000402500Y0000562500D02*
X0000447500Y0000517500D01*
X0000447500Y0000517500D02*
X0000462500Y0000517500D01*
X0000462500Y0000517500D02*
X0000463149Y0000520000D01*
X0000463149Y0000520000D02*
X0000462500Y0000517500D01*
X0000263149Y0000522500D02*
X0000262500Y0000522500D01*
X0000262500Y0000522500D02*
X0000262500Y0000487500D01*
X0000262500Y0000487500D02*
X0000292500Y0000457500D01*
X0000407500Y0000347500D02*
X0000497500Y0000347500D01*
X0000102500Y0000755000D02*
X0000102500Y0000700000D01*
X0000102500Y0000700000D02*
X0000027500Y0000625000D01*
X0000027500Y0000625000D02*
X0000027500Y0000175000D01*
X0000027500Y0000175000D02*
X0000155000Y0000047500D01*
X0000617500Y0000157500D02*
X0000575000Y0000200000D01*
X0000617500Y0000075000D02*
X0000617500Y0000157500D01*
X0000590000Y0000047500D02*
X0000617500Y0000075000D01*
X0000155000Y0000047500D02*
X0000590000Y0000047500D01*
X0000102500Y0000805000D02*
X0000102500Y0000802500D01*
X0000102500Y0000802500D02*
X0000122500Y0000822500D01*
X0000122500Y0000822500D02*
X0000137500Y0000822500D01*
X0000137500Y0000822500D02*
X0000137500Y0000842500D01*
X0000137500Y0000842500D02*
X0000222500Y0000927500D01*
X0000222500Y0000927500D02*
X0000220000Y0000927500D01*
X0000462500Y0000197500D02*
X0000482500Y0000177500D01*
X0000510531Y0000177500D02*
X0000549901Y0000138130D01*
X0000482500Y0000177500D02*
X0000510531Y0000177500D01*
X0000249901Y0000174901D02*
X0000352500Y0000277500D01*
X0000249901Y0000138130D02*
X0000249901Y0000174901D01*
X0000422500Y0000467500D02*
X0000370000Y0000520000D01*
X0000422500Y0000432500D02*
X0000422500Y0000467500D01*
X0000352500Y0000362500D02*
X0000422500Y0000432500D01*
X0000352500Y0000277500D02*
X0000352500Y0000362500D01*
X0000370000Y0000520000D02*
X0000356850Y0000520000D01*
X0000356850Y0000520000D02*
X0000357500Y0000517500D01*
X0000470000Y0000927500D02*
X0000470000Y0000960000D01*
X0000447500Y0000982500D02*
X0000327500Y0000982500D01*
X0000470000Y0000960000D02*
X0000447500Y0000982500D01*
X0000472500Y0000927500D02*
X0000470000Y0000927500D01*
G04 next file*
G04 #@! TF.GenerationSoftware,KiCad,Pcbnew,(5.0.2)-1*
G04 #@! TF.CreationDate,2019-07-10T16:32:42+02:00*
G04 #@! TF.ProjectId,joystick tester systest,6a6f7973-7469-4636-9b20-746573746572,rev?*
G04 #@! TF.SameCoordinates,Original*
G04 #@! TF.FileFunction,Copper,L2,Bot*
G04 #@! TF.FilePolarity,Positive*
G04 Gerber Fmt 4.6, Leading zero omitted, Abs format (unit mm)*
G04 Created by KiCad (PCBNEW (5.0.2)-1) date 10-7-2019 16:32:42*
G01G01*
G04 APERTURE LIST*
G04 #@! TA.AperFunction,SMDPad,CuDef*
G04 #@! TD*
G04 #@! TA.AperFunction,ConnectorPad*
G04 #@! TD*
G04 #@! TA.AperFunction,SMDPad,CuDef*
G04 #@! TD*
G04 #@! TA.AperFunction,ComponentPad*
G04 #@! TD*
G04 #@! TA.AperFunction,ComponentPad*
G04 #@! TD*
G04 #@! TA.AperFunction,SMDPad,CuDef*
G04 #@! TD*
G04 #@! TA.AperFunction,ViaPad*
G04 #@! TD*
G04 #@! TA.AperFunction,Conductor*
G04 #@! TD*
G04 APERTURE END LIST*
D28*
G04 #@! TO.P,U2,16*
G04 #@! TO.N,VCC*
X-0005669291Y0006535433D02*
X0000228208Y0002135433D03*
G04 #@! TO.P,U2,14*
G04 #@! TO.N,Net-(U1-Pad3)*
X0000328208Y0002135433D03*
G04 #@! TO.P,U2,13*
G04 #@! TO.N,GND*
X0000378208Y0002135433D03*
G04 #@! TO.P,U2,12*
G04 #@! TO.N,Net-(U2-Pad12)*
X0000428208Y0002135433D03*
G04 #@! TO.P,U2,11*
G04 #@! TO.N,Net-(U2-Pad11)*
X0000478208Y0002135433D03*
G04 #@! TO.P,U2,10*
G04 #@! TO.N,Net-(U2-Pad10)*
X0000528208Y0002135433D03*
G04 #@! TO.P,U2,9*
G04 #@! TO.N,Net-(U2-Pad9)*
X0000578208Y0002135433D03*
G04 #@! TO.P,U2,8*
G04 #@! TO.N,GND*
X0000578208Y0002385433D03*
G04 #@! TO.P,U2,7*
G04 #@! TO.N,Net-(U2-Pad7)*
X0000528208Y0002385433D03*
G04 #@! TO.P,U2,6*
G04 #@! TO.N,Net-(D1-Pad2)*
X0000478208Y0002385433D03*
G04 #@! TO.P,U2,5*
G04 #@! TO.N,Net-(R1-Pad1)*
X0000428208Y0002385433D03*
G04 #@! TO.P,U2,4*
G04 #@! TO.N,Net-(U2-Pad4)*
X0000378208Y0002385433D03*
G04 #@! TO.P,U2,3*
G04 #@! TO.N,Net-(U2-Pad3)*
X0000328208Y0002385433D03*
G04 #@! TO.P,U2,2*
G04 #@! TO.N,Net-(U2-Pad2)*
X0000278208Y0002385433D03*
G04 #@! TO.P,U2,1*
G04 #@! TO.N,Net-(JP1-Pad2)*
X0000228208Y0002385433D03*
G04 #@! TO.P,U2,15*
G04 #@! TO.N,RST*
X0000278208Y0002135433D03*
G04 #@! TD*
D29*
G04 #@! TO.P,J1,6*
G04 #@! TO.N,BT1*
X0000180748Y0002692933D03*
G04 #@! TO.P,J1,7*
G04 #@! TO.N,VCC*
X0000290590Y0002692933D03*
G04 #@! TO.P,J1,8*
G04 #@! TO.N,GND*
X0000400826Y0002692933D03*
G04 #@! TO.P,J1,9*
G04 #@! TO.N,BT2*
X0000510669Y0002692933D03*
G04 #@! TD*
D30*
G04 #@! TO.P,R1,1*
G04 #@! TO.N,Net-(R1-Pad1)*
X0000471358Y0001977933D03*
G04 #@! TO.P,R1,2*
G04 #@! TO.N,Net-(Q1-Pad1)*
X0000365059Y0001977933D03*
G04 #@! TD*
G04 #@! TO.P,R3,1*
G04 #@! TO.N,Net-(R3-Pad1)*
X0000271358Y0001980433D03*
G04 #@! TO.P,R3,2*
G04 #@! TO.N,THR*
X0000165059Y0001980433D03*
G04 #@! TD*
D31*
G04 #@! TO.P,JP1,1*
G04 #@! TO.N,Net-(JP1-Pad1)*
X0000110708Y0002212933D03*
D32*
G04 #@! TO.P,JP1,2*
G04 #@! TO.N,Net-(JP1-Pad2)*
X0000110708Y0002262933D03*
G04 #@! TO.P,JP1,3*
G04 #@! TO.N,RST*
X0000110708Y0002312933D03*
G04 #@! TD*
D33*
G04 #@! TO.P,Q2,1*
G04 #@! TO.N,Net-(Q2-Pad1)*
X0000558110Y0001596062D03*
G04 #@! TO.P,Q2,2*
G04 #@! TO.N,GND*
X0000483307Y0001596062D03*
G04 #@! TO.P,Q2,3*
G04 #@! TO.N,BT2*
X0000520708Y0001674803D03*
G04 #@! TD*
G04 #@! TO.P,Q1,1*
G04 #@! TO.N,Net-(Q1-Pad1)*
X0000258110Y0001596062D03*
G04 #@! TO.P,Q1,2*
G04 #@! TO.N,GND*
X0000183307Y0001596062D03*
G04 #@! TO.P,Q1,3*
G04 #@! TO.N,BT3*
X0000220708Y0001674803D03*
G04 #@! TD*
D34*
G04 #@! TO.N,VCC*
X0000110708Y0002110433D03*
X0000075708Y0002522933D03*
X0000465708Y0001912933D03*
X0000215708Y0002320433D03*
X0000440708Y0001770433D03*
X0000315708Y0001645433D03*
G04 #@! TO.N,GND*
X0000080708Y0001815433D03*
X0000545708Y0002435433D03*
X0000495708Y0002555433D03*
X0000378208Y0002087933D03*
X0000585708Y0002320433D03*
X0000530708Y0002200433D03*
X0000125708Y0001915433D03*
X0000220708Y0001915433D03*
G04 #@! TO.N,THR*
X0000190708Y0001790433D03*
X0000290708Y0001790433D03*
X0000165708Y0001915433D03*
G04 #@! TO.N,Net-(U1-Pad3)*
X0000190708Y0001750433D03*
X0000065708Y0001875433D03*
X0000295708Y0002080433D03*
G04 #@! TO.N,RST*
X0000255708Y0002085433D03*
G04 #@! TO.N,Net-(C1-Pad1)*
X0000290708Y0001745433D03*
X0000395708Y0001915433D03*
G04 #@! TO.N,Net-(U2-Pad10)*
X0000460708Y0002085433D03*
G04 #@! TO.N,Net-(U2-Pad7)*
X0000480708Y0002320433D03*
G04 #@! TO.N,Net-(U2-Pad4)*
X0000330708Y0002320433D03*
G04 #@! TO.N,Net-(U2-Pad3)*
X0000250708Y0002250433D03*
G04 #@! TO.N,Net-(U2-Pad2)*
X0000280708Y0002320433D03*
G04 #@! TO.N,RIGHT*
X0000445708Y0002522933D03*
X0000170708Y0002435433D03*
G04 #@! TO.N,BT3*
X0000220708Y0001620433D03*
G04 #@! TO.N,BT1*
X0000380708Y0002510433D03*
G04 #@! TO.N,Net-(R1-Pad1)*
X0000230708Y0002200433D03*
X0000210708Y0002085433D03*
G04 #@! TO.N,Net-(R3-Pad1)*
X0000505708Y0001805433D03*
X0000300708Y0001915433D03*
X0000415708Y0001805433D03*
G04 #@! TO.N,Net-(JP1-Pad1)*
X0000583208Y0001657933D03*
G04 #@! TO.N,Net-(Q2-Pad1)*
X0000470708Y0001655433D03*
G04 #@! TO.N,Net-(D1-Pad2)*
X0000335708Y0002440433D03*
G04 #@! TD*
D35*
G04 #@! TO.N,*
X0000180708Y0002135433D02*
X0000180708Y0002132933D01*
G04 #@! TO.N,Net-(U2-Pad11)*
X0000480708Y0002135433D02*
X0000480708Y0002120433D01*
G04 #@! TO.N,VCC*
X0000075708Y0002522933D02*
X0000263208Y0002522933D01*
X0000228208Y0002135433D02*
X0000210708Y0002135433D01*
X0000200708Y0002125433D02*
X0000210708Y0002135433D01*
X0000125708Y0002125433D02*
X0000200708Y0002125433D01*
X0000110708Y0002110433D02*
X0000125708Y0002125433D01*
X0000290590Y0002550314D02*
X0000290590Y0002692933D01*
X0000263208Y0002522933D02*
X0000290590Y0002550314D01*
X0000290590Y0002692933D02*
X0000290708Y0002690433D01*
X0000228208Y0002135433D02*
X0000228208Y0002142933D01*
X0000228208Y0002142933D02*
X0000270708Y0002185433D01*
X0000508208Y0001912933D02*
X0000465708Y0001912933D01*
X0000533208Y0001937933D02*
X0000508208Y0001912933D01*
X0000533208Y0002015433D02*
X0000533208Y0001937933D01*
X0000503208Y0002045433D02*
X0000533208Y0002015433D01*
X0000378208Y0002045433D02*
X0000503208Y0002045433D01*
X0000353208Y0002070433D02*
X0000378208Y0002045433D01*
X0000353208Y0002180433D02*
X0000353208Y0002070433D01*
X0000348208Y0002185433D02*
X0000353208Y0002180433D01*
X0000270708Y0002185433D02*
X0000348208Y0002185433D01*
X0000215708Y0002320433D02*
X0000215708Y0002225433D01*
X0000215708Y0002225433D02*
X0000205708Y0002215433D01*
X0000205708Y0002215433D02*
X0000205708Y0002160433D01*
X0000230708Y0002135433D02*
X0000205708Y0002160433D01*
X0000305590Y0002690433D02*
X0000305708Y0002690433D01*
X0000305708Y0002690433D02*
X0000305708Y0002635433D01*
X0000230708Y0002135433D02*
X0000228208Y0002135433D01*
X0000305590Y0002690433D02*
X0000305708Y0002690433D01*
X0000230708Y0002135433D02*
X0000230708Y0002150433D01*
X0000440708Y0001770433D02*
X0000315708Y0001645433D01*
G04 #@! TO.N,GND*
X0000183307Y0001596062D02*
X0000150078Y0001596062D01*
X0000080708Y0001665433D02*
X0000080708Y0001815433D01*
X0000150078Y0001596062D02*
X0000080708Y0001665433D01*
X0000183307Y0001596062D02*
X0000183307Y0001572834D01*
X0000183307Y0001572834D02*
X0000220708Y0001535433D01*
X0000220708Y0001535433D02*
X0000440708Y0001535433D01*
X0000440708Y0001535433D02*
X0000483307Y0001578031D01*
X0000483307Y0001578031D02*
X0000483307Y0001596062D01*
X0000495708Y0002555433D02*
X0000430708Y0002555433D01*
X0000580708Y0002400433D02*
X0000545708Y0002435433D01*
X0000400826Y0002585314D02*
X0000400826Y0002692933D01*
X0000430708Y0002555433D02*
X0000400826Y0002585314D01*
X0000378208Y0002087933D02*
X0000378208Y0002135433D01*
X0000578208Y0002385433D02*
X0000580708Y0002385433D01*
X0000580708Y0002385433D02*
X0000580708Y0002400433D01*
X0000415708Y0002690433D02*
X0000415826Y0002690433D01*
X0000585708Y0002320433D02*
X0000585708Y0002380433D01*
X0000585708Y0002380433D02*
X0000580708Y0002385433D01*
X0000580708Y0002385433D02*
X0000578208Y0002385433D01*
X0000380708Y0002135433D02*
X0000378208Y0002135433D01*
X0000378208Y0002135433D02*
X0000380708Y0002135433D01*
X0000380708Y0002135433D02*
X0000380708Y0002155433D01*
X0000380708Y0002155433D02*
X0000425708Y0002200433D01*
X0000425708Y0002200433D02*
X0000530708Y0002200433D01*
X0000415708Y0002690433D02*
X0000415826Y0002690433D01*
X0000125708Y0001915433D02*
X0000150708Y0001890433D01*
X0000150708Y0001890433D02*
X0000180708Y0001890433D01*
X0000180708Y0001890433D02*
X0000205708Y0001915433D01*
X0000205708Y0001915433D02*
X0000220708Y0001915433D01*
G04 #@! TO.N,THR*
X0000190708Y0001790433D02*
X0000290708Y0001790433D01*
X0000165708Y0001915433D02*
X0000165708Y0001980433D01*
X0000165708Y0001980433D02*
X0000165059Y0001980433D01*
G04 #@! TO.N,Net-(U1-Pad3)*
X0000190708Y0001750433D02*
X0000065708Y0001875433D01*
X0000295708Y0002080433D02*
X0000295708Y0002085433D01*
X0000295708Y0002085433D02*
X0000305708Y0002095433D01*
X0000305708Y0002095433D02*
X0000305708Y0002110433D01*
X0000305708Y0002110433D02*
X0000330708Y0002135433D01*
X0000330708Y0002135433D02*
X0000328208Y0002135433D01*
X0000330708Y0002135433D02*
X0000330708Y0002150433D01*
G04 #@! TO.N,RST*
X0000278208Y0002135433D02*
X0000280708Y0002135433D01*
X0000280708Y0002135433D02*
X0000280708Y0002110433D01*
X0000280708Y0002110433D02*
X0000255708Y0002085433D01*
G04 #@! TO.N,Net-(C1-Pad1)*
X0000290708Y0001745433D02*
X0000290708Y0001750433D01*
X0000290708Y0001750433D02*
X0000315708Y0001775433D01*
X0000315708Y0001775433D02*
X0000315708Y0001835433D01*
X0000315708Y0001835433D02*
X0000395708Y0001915433D01*
G04 #@! TO.N,Net-(U2-Pad10)*
X0000528208Y0002135433D02*
X0000530708Y0002135433D01*
X0000530708Y0002135433D02*
X0000530708Y0002120433D01*
X0000530708Y0002120433D02*
X0000495708Y0002085433D01*
X0000495708Y0002085433D02*
X0000460708Y0002085433D01*
G04 #@! TO.N,Net-(U2-Pad7)*
X0000480708Y0002320433D02*
X0000505708Y0002345433D01*
X0000505708Y0002345433D02*
X0000505708Y0002360433D01*
X0000505708Y0002360433D02*
X0000530708Y0002385433D01*
X0000530708Y0002385433D02*
X0000528208Y0002385433D01*
X0000530708Y0002385433D02*
X0000530708Y0002400433D01*
X0000535708Y0002380433D02*
X0000530708Y0002385433D01*
G04 #@! TO.N,Net-(U2-Pad4)*
X0000378208Y0002385433D02*
X0000380708Y0002385433D01*
X0000380708Y0002385433D02*
X0000380708Y0002370433D01*
X0000380708Y0002370433D02*
X0000330708Y0002320433D01*
G04 #@! TO.N,Net-(U2-Pad3)*
X0000328208Y0002385433D02*
X0000330708Y0002385433D01*
X0000330708Y0002385433D02*
X0000330708Y0002360433D01*
X0000330708Y0002360433D02*
X0000305708Y0002335433D01*
X0000305708Y0002335433D02*
X0000305708Y0002305433D01*
X0000305708Y0002305433D02*
X0000250708Y0002250433D01*
X0000330708Y0002385433D02*
X0000330708Y0002365433D01*
G04 #@! TO.N,Net-(U2-Pad2)*
X0000278208Y0002385433D02*
X0000280708Y0002385433D01*
X0000280708Y0002385433D02*
X0000280708Y0002320433D01*
G04 #@! TO.N,RIGHT*
X0000170708Y0002437933D02*
X0000215708Y0002482933D01*
X0000215708Y0002482933D02*
X0000405708Y0002482933D01*
X0000405708Y0002482933D02*
X0000445708Y0002522933D01*
X0000170708Y0002435433D02*
X0000170708Y0002437933D01*
G04 #@! TO.N,BT3*
X0000220708Y0001620433D02*
X0000220708Y0001674803D01*
G04 #@! TO.N,BT1*
X0000180748Y0002585472D02*
X0000153208Y0002557933D01*
X0000153208Y0002557933D02*
X0000063208Y0002557933D01*
X0000063208Y0002557933D02*
X0000043208Y0002537933D01*
X0000043208Y0002537933D02*
X0000043208Y0002505433D01*
X0000043208Y0002505433D02*
X0000055708Y0002492933D01*
X0000055708Y0002492933D02*
X0000185708Y0002492933D01*
X0000185708Y0002492933D02*
X0000195708Y0002502933D01*
X0000195708Y0002502933D02*
X0000373208Y0002502933D01*
X0000373208Y0002502933D02*
X0000380708Y0002510433D01*
X0000180748Y0002692933D02*
X0000180748Y0002585472D01*
X0000195748Y0002690433D02*
X0000195708Y0002690433D01*
X0000195708Y0002690433D02*
X0000195748Y0002690433D01*
G04 #@! TO.N,BT2*
X0000510669Y0002692933D02*
X0000510669Y0002590472D01*
X0000625708Y0001779803D02*
X0000520708Y0001674803D01*
X0000625708Y0002475433D02*
X0000625708Y0001779803D01*
X0000510669Y0002590472D02*
X0000625708Y0002475433D01*
X0000525708Y0002690433D02*
X0000525669Y0002690433D01*
G04 #@! TO.N,Net-(R1-Pad1)*
X0000428208Y0002385433D02*
X0000430708Y0002385433D01*
X0000430708Y0002385433D02*
X0000430708Y0002370433D01*
X0000430708Y0002370433D02*
X0000260708Y0002200433D01*
X0000260708Y0002200433D02*
X0000230708Y0002200433D01*
X0000210708Y0002085433D02*
X0000275708Y0002020433D01*
X0000275708Y0002020433D02*
X0000410708Y0002020433D01*
X0000410708Y0002020433D02*
X0000455708Y0001975433D01*
X0000455708Y0001975433D02*
X0000470708Y0001975433D01*
X0000470708Y0001975433D02*
X0000471358Y0001977933D01*
X0000471358Y0001977933D02*
X0000470708Y0001975433D01*
G04 #@! TO.N,Net-(R3-Pad1)*
X0000271358Y0001980433D02*
X0000270708Y0001980433D01*
X0000270708Y0001980433D02*
X0000270708Y0001945433D01*
X0000270708Y0001945433D02*
X0000300708Y0001915433D01*
X0000415708Y0001805433D02*
X0000505708Y0001805433D01*
G04 #@! TO.N,Net-(JP1-Pad1)*
X0000110708Y0002212933D02*
X0000110708Y0002157933D01*
X0000110708Y0002157933D02*
X0000035708Y0002082933D01*
X0000035708Y0002082933D02*
X0000035708Y0001632933D01*
X0000035708Y0001632933D02*
X0000163208Y0001505433D01*
X0000625708Y0001615433D02*
X0000583208Y0001657933D01*
X0000625708Y0001532933D02*
X0000625708Y0001615433D01*
X0000598208Y0001505433D02*
X0000625708Y0001532933D01*
X0000163208Y0001505433D02*
X0000598208Y0001505433D01*
G04 #@! TO.N,Net-(JP1-Pad2)*
X0000110708Y0002262933D02*
X0000110708Y0002260433D01*
X0000110708Y0002260433D02*
X0000130708Y0002280433D01*
X0000130708Y0002280433D02*
X0000145708Y0002280433D01*
X0000145708Y0002280433D02*
X0000145708Y0002300433D01*
X0000145708Y0002300433D02*
X0000230708Y0002385433D01*
X0000230708Y0002385433D02*
X0000228208Y0002385433D01*
G04 #@! TO.N,Net-(Q2-Pad1)*
X0000470708Y0001655433D02*
X0000490708Y0001635433D01*
X0000518740Y0001635433D02*
X0000558110Y0001596062D01*
X0000490708Y0001635433D02*
X0000518740Y0001635433D01*
G04 #@! TO.N,Net-(Q1-Pad1)*
X0000258110Y0001632834D02*
X0000360708Y0001735433D01*
X0000258110Y0001596062D02*
X0000258110Y0001632834D01*
X0000430708Y0001925433D02*
X0000378208Y0001977933D01*
X0000430708Y0001890433D02*
X0000430708Y0001925433D01*
X0000360708Y0001820433D02*
X0000430708Y0001890433D01*
X0000360708Y0001735433D02*
X0000360708Y0001820433D01*
X0000378208Y0001977933D02*
X0000365059Y0001977933D01*
X0000365059Y0001977933D02*
X0000365708Y0001975433D01*
G04 #@! TO.N,Net-(D1-Pad2)*
X0000478208Y0002385433D02*
X0000478208Y0002417933D01*
X0000455708Y0002440433D02*
X0000335708Y0002440433D01*
X0000478208Y0002417933D02*
X0000455708Y0002440433D01*
X0000480708Y0002385433D02*
X0000478208Y0002385433D01*
G04 #@! TD*
G04 next file*
G04 #@! TF.GenerationSoftware,KiCad,Pcbnew,(5.0.2)-1*
G04 #@! TF.CreationDate,2019-07-10T16:32:42+02:00*
G04 #@! TF.ProjectId,joystick tester systest,6a6f7973-7469-4636-9b20-746573746572,rev?*
G04 #@! TF.SameCoordinates,Original*
G04 #@! TF.FileFunction,Copper,L2,Bot*
G04 #@! TF.FilePolarity,Positive*
G04 Gerber Fmt 4.6, Leading zero omitted, Abs format (unit mm)*
G04 Created by KiCad (PCBNEW (5.0.2)-1) date 10-7-2019 16:32:42*
G01G01*
G04 APERTURE LIST*
G04 #@! TA.AperFunction,SMDPad,CuDef*
G04 #@! TD*
G04 #@! TA.AperFunction,ConnectorPad*
G04 #@! TD*
G04 #@! TA.AperFunction,SMDPad,CuDef*
G04 #@! TD*
G04 #@! TA.AperFunction,ComponentPad*
G04 #@! TD*
G04 #@! TA.AperFunction,ComponentPad*
G04 #@! TD*
G04 #@! TA.AperFunction,SMDPad,CuDef*
G04 #@! TD*
G04 #@! TA.AperFunction,ViaPad*
G04 #@! TD*
G04 #@! TA.AperFunction,Conductor*
G04 #@! TD*
G04 APERTURE END LIST*
D36*
G04 #@! TO.P,U2,16*
G04 #@! TO.N,VCC*
X-0004921259Y0005078740D02*
X0000976240Y0000678740D03*
G04 #@! TO.P,U2,14*
G04 #@! TO.N,Net-(U1-Pad3)*
X0001076240Y0000678740D03*
G04 #@! TO.P,U2,13*
G04 #@! TO.N,GND*
X0001126240Y0000678740D03*
G04 #@! TO.P,U2,12*
G04 #@! TO.N,Net-(U2-Pad12)*
X0001176240Y0000678740D03*
G04 #@! TO.P,U2,11*
G04 #@! TO.N,Net-(U2-Pad11)*
X0001226240Y0000678740D03*
G04 #@! TO.P,U2,10*
G04 #@! TO.N,Net-(U2-Pad10)*
X0001276240Y0000678740D03*
G04 #@! TO.P,U2,9*
G04 #@! TO.N,Net-(U2-Pad9)*
X0001326240Y0000678740D03*
G04 #@! TO.P,U2,8*
G04 #@! TO.N,GND*
X0001326240Y0000928740D03*
G04 #@! TO.P,U2,7*
G04 #@! TO.N,Net-(U2-Pad7)*
X0001276240Y0000928740D03*
G04 #@! TO.P,U2,6*
G04 #@! TO.N,Net-(D1-Pad2)*
X0001226240Y0000928740D03*
G04 #@! TO.P,U2,5*
G04 #@! TO.N,Net-(R1-Pad1)*
X0001176240Y0000928740D03*
G04 #@! TO.P,U2,4*
G04 #@! TO.N,Net-(U2-Pad4)*
X0001126240Y0000928740D03*
G04 #@! TO.P,U2,3*
G04 #@! TO.N,Net-(U2-Pad3)*
X0001076240Y0000928740D03*
G04 #@! TO.P,U2,2*
G04 #@! TO.N,Net-(U2-Pad2)*
X0001026240Y0000928740D03*
G04 #@! TO.P,U2,1*
G04 #@! TO.N,Net-(JP1-Pad2)*
X0000976240Y0000928740D03*
G04 #@! TO.P,U2,15*
G04 #@! TO.N,RST*
X0001026240Y0000678740D03*
G04 #@! TD*
D37*
G04 #@! TO.P,J1,6*
G04 #@! TO.N,BT1*
X0000928779Y0001236240D03*
G04 #@! TO.P,J1,7*
G04 #@! TO.N,VCC*
X0001038622Y0001236240D03*
G04 #@! TO.P,J1,8*
G04 #@! TO.N,GND*
X0001148858Y0001236240D03*
G04 #@! TO.P,J1,9*
G04 #@! TO.N,BT2*
X0001258700Y0001236240D03*
G04 #@! TD*
D38*
G04 #@! TO.P,R1,1*
G04 #@! TO.N,Net-(R1-Pad1)*
X0001219389Y0000521240D03*
G04 #@! TO.P,R1,2*
G04 #@! TO.N,Net-(Q1-Pad1)*
X0001113090Y0000521240D03*
G04 #@! TD*
G04 #@! TO.P,R3,1*
G04 #@! TO.N,Net-(R3-Pad1)*
X0001019389Y0000523740D03*
G04 #@! TO.P,R3,2*
G04 #@! TO.N,THR*
X0000913090Y0000523740D03*
G04 #@! TD*
D39*
G04 #@! TO.P,JP1,1*
G04 #@! TO.N,Net-(JP1-Pad1)*
X0000858740Y0000756240D03*
D40*
G04 #@! TO.P,JP1,2*
G04 #@! TO.N,Net-(JP1-Pad2)*
X0000858740Y0000806240D03*
G04 #@! TO.P,JP1,3*
G04 #@! TO.N,RST*
X0000858740Y0000856240D03*
G04 #@! TD*
D41*
G04 #@! TO.P,Q2,1*
G04 #@! TO.N,Net-(Q2-Pad1)*
X0001306141Y0000139370D03*
G04 #@! TO.P,Q2,2*
G04 #@! TO.N,GND*
X0001231338Y0000139370D03*
G04 #@! TO.P,Q2,3*
G04 #@! TO.N,BT2*
X0001268740Y0000218110D03*
G04 #@! TD*
G04 #@! TO.P,Q1,1*
G04 #@! TO.N,Net-(Q1-Pad1)*
X0001006141Y0000139370D03*
G04 #@! TO.P,Q1,2*
G04 #@! TO.N,GND*
X0000931338Y0000139370D03*
G04 #@! TO.P,Q1,3*
G04 #@! TO.N,BT3*
X0000968740Y0000218110D03*
G04 #@! TD*
D42*
G04 #@! TO.N,VCC*
X0000858740Y0000653740D03*
X0000823740Y0001066240D03*
X0001213740Y0000456240D03*
X0000963740Y0000863740D03*
X0001188740Y0000313740D03*
X0001063740Y0000188740D03*
G04 #@! TO.N,GND*
X0000828740Y0000358740D03*
X0001293740Y0000978740D03*
X0001243740Y0001098740D03*
X0001126240Y0000631240D03*
X0001333740Y0000863740D03*
X0001278740Y0000743740D03*
X0000873740Y0000458740D03*
X0000968740Y0000458740D03*
G04 #@! TO.N,THR*
X0000938740Y0000333740D03*
X0001038740Y0000333740D03*
X0000913740Y0000458740D03*
G04 #@! TO.N,Net-(U1-Pad3)*
X0000938740Y0000293740D03*
X0000813740Y0000418740D03*
X0001043740Y0000623740D03*
G04 #@! TO.N,RST*
X0001003740Y0000628740D03*
G04 #@! TO.N,Net-(C1-Pad1)*
X0001038740Y0000288740D03*
X0001143740Y0000458740D03*
G04 #@! TO.N,Net-(U2-Pad10)*
X0001208740Y0000628740D03*
G04 #@! TO.N,Net-(U2-Pad7)*
X0001228740Y0000863740D03*
G04 #@! TO.N,Net-(U2-Pad4)*
X0001078740Y0000863740D03*
G04 #@! TO.N,Net-(U2-Pad3)*
X0000998740Y0000793740D03*
G04 #@! TO.N,Net-(U2-Pad2)*
X0001028740Y0000863740D03*
G04 #@! TO.N,RIGHT*
X0001193740Y0001066240D03*
X0000918740Y0000978740D03*
G04 #@! TO.N,BT3*
X0000968740Y0000163740D03*
G04 #@! TO.N,BT1*
X0001128740Y0001053740D03*
G04 #@! TO.N,Net-(R1-Pad1)*
X0000978740Y0000743740D03*
X0000958740Y0000628740D03*
G04 #@! TO.N,Net-(R3-Pad1)*
X0001253740Y0000348740D03*
X0001048740Y0000458740D03*
X0001163740Y0000348740D03*
G04 #@! TO.N,Net-(JP1-Pad1)*
X0001331240Y0000201240D03*
G04 #@! TO.N,Net-(Q2-Pad1)*
X0001218740Y0000198740D03*
G04 #@! TO.N,Net-(D1-Pad2)*
X0001083740Y0000983740D03*
G04 #@! TD*
D43*
G04 #@! TO.N,*
X0000928740Y0000678740D02*
X0000928740Y0000676240D01*
G04 #@! TO.N,Net-(U2-Pad11)*
X0001228740Y0000678740D02*
X0001228740Y0000663740D01*
G04 #@! TO.N,VCC*
X0000823740Y0001066240D02*
X0001011240Y0001066240D01*
X0000976240Y0000678740D02*
X0000958740Y0000678740D01*
X0000948740Y0000668740D02*
X0000958740Y0000678740D01*
X0000873740Y0000668740D02*
X0000948740Y0000668740D01*
X0000858740Y0000653740D02*
X0000873740Y0000668740D01*
X0001038622Y0001093622D02*
X0001038622Y0001236240D01*
X0001011240Y0001066240D02*
X0001038622Y0001093622D01*
X0001038622Y0001236240D02*
X0001038740Y0001233740D01*
X0000976240Y0000678740D02*
X0000976240Y0000686240D01*
X0000976240Y0000686240D02*
X0001018740Y0000728740D01*
X0001256240Y0000456240D02*
X0001213740Y0000456240D01*
X0001281240Y0000481240D02*
X0001256240Y0000456240D01*
X0001281240Y0000558740D02*
X0001281240Y0000481240D01*
X0001251240Y0000588740D02*
X0001281240Y0000558740D01*
X0001126240Y0000588740D02*
X0001251240Y0000588740D01*
X0001101240Y0000613740D02*
X0001126240Y0000588740D01*
X0001101240Y0000723740D02*
X0001101240Y0000613740D01*
X0001096240Y0000728740D02*
X0001101240Y0000723740D01*
X0001018740Y0000728740D02*
X0001096240Y0000728740D01*
X0000963740Y0000863740D02*
X0000963740Y0000768740D01*
X0000963740Y0000768740D02*
X0000953740Y0000758740D01*
X0000953740Y0000758740D02*
X0000953740Y0000703740D01*
X0000978740Y0000678740D02*
X0000953740Y0000703740D01*
X0001053622Y0001233740D02*
X0001053740Y0001233740D01*
X0001053740Y0001233740D02*
X0001053740Y0001178740D01*
X0000978740Y0000678740D02*
X0000976240Y0000678740D01*
X0001053622Y0001233740D02*
X0001053740Y0001233740D01*
X0000978740Y0000678740D02*
X0000978740Y0000693740D01*
X0001188740Y0000313740D02*
X0001063740Y0000188740D01*
G04 #@! TO.N,GND*
X0000931338Y0000139370D02*
X0000898110Y0000139370D01*
X0000828740Y0000208740D02*
X0000828740Y0000358740D01*
X0000898110Y0000139370D02*
X0000828740Y0000208740D01*
X0000931338Y0000139370D02*
X0000931338Y0000116141D01*
X0000931338Y0000116141D02*
X0000968740Y0000078740D01*
X0000968740Y0000078740D02*
X0001188740Y0000078740D01*
X0001188740Y0000078740D02*
X0001231338Y0000121338D01*
X0001231338Y0000121338D02*
X0001231338Y0000139370D01*
X0001243740Y0001098740D02*
X0001178740Y0001098740D01*
X0001328740Y0000943740D02*
X0001293740Y0000978740D01*
X0001148858Y0001128622D02*
X0001148858Y0001236240D01*
X0001178740Y0001098740D02*
X0001148858Y0001128622D01*
X0001126240Y0000631240D02*
X0001126240Y0000678740D01*
X0001326240Y0000928740D02*
X0001328740Y0000928740D01*
X0001328740Y0000928740D02*
X0001328740Y0000943740D01*
X0001163740Y0001233740D02*
X0001163858Y0001233740D01*
X0001333740Y0000863740D02*
X0001333740Y0000923740D01*
X0001333740Y0000923740D02*
X0001328740Y0000928740D01*
X0001328740Y0000928740D02*
X0001326240Y0000928740D01*
X0001128740Y0000678740D02*
X0001126240Y0000678740D01*
X0001126240Y0000678740D02*
X0001128740Y0000678740D01*
X0001128740Y0000678740D02*
X0001128740Y0000698740D01*
X0001128740Y0000698740D02*
X0001173740Y0000743740D01*
X0001173740Y0000743740D02*
X0001278740Y0000743740D01*
X0001163740Y0001233740D02*
X0001163858Y0001233740D01*
X0000873740Y0000458740D02*
X0000898740Y0000433740D01*
X0000898740Y0000433740D02*
X0000928740Y0000433740D01*
X0000928740Y0000433740D02*
X0000953740Y0000458740D01*
X0000953740Y0000458740D02*
X0000968740Y0000458740D01*
G04 #@! TO.N,THR*
X0000938740Y0000333740D02*
X0001038740Y0000333740D01*
X0000913740Y0000458740D02*
X0000913740Y0000523740D01*
X0000913740Y0000523740D02*
X0000913090Y0000523740D01*
G04 #@! TO.N,Net-(U1-Pad3)*
X0000938740Y0000293740D02*
X0000813740Y0000418740D01*
X0001043740Y0000623740D02*
X0001043740Y0000628740D01*
X0001043740Y0000628740D02*
X0001053740Y0000638740D01*
X0001053740Y0000638740D02*
X0001053740Y0000653740D01*
X0001053740Y0000653740D02*
X0001078740Y0000678740D01*
X0001078740Y0000678740D02*
X0001076240Y0000678740D01*
X0001078740Y0000678740D02*
X0001078740Y0000693740D01*
G04 #@! TO.N,RST*
X0001026240Y0000678740D02*
X0001028740Y0000678740D01*
X0001028740Y0000678740D02*
X0001028740Y0000653740D01*
X0001028740Y0000653740D02*
X0001003740Y0000628740D01*
G04 #@! TO.N,Net-(C1-Pad1)*
X0001038740Y0000288740D02*
X0001038740Y0000293740D01*
X0001038740Y0000293740D02*
X0001063740Y0000318740D01*
X0001063740Y0000318740D02*
X0001063740Y0000378740D01*
X0001063740Y0000378740D02*
X0001143740Y0000458740D01*
G04 #@! TO.N,Net-(U2-Pad10)*
X0001276240Y0000678740D02*
X0001278740Y0000678740D01*
X0001278740Y0000678740D02*
X0001278740Y0000663740D01*
X0001278740Y0000663740D02*
X0001243740Y0000628740D01*
X0001243740Y0000628740D02*
X0001208740Y0000628740D01*
G04 #@! TO.N,Net-(U2-Pad7)*
X0001228740Y0000863740D02*
X0001253740Y0000888740D01*
X0001253740Y0000888740D02*
X0001253740Y0000903740D01*
X0001253740Y0000903740D02*
X0001278740Y0000928740D01*
X0001278740Y0000928740D02*
X0001276240Y0000928740D01*
X0001278740Y0000928740D02*
X0001278740Y0000943740D01*
X0001283740Y0000923740D02*
X0001278740Y0000928740D01*
G04 #@! TO.N,Net-(U2-Pad4)*
X0001126240Y0000928740D02*
X0001128740Y0000928740D01*
X0001128740Y0000928740D02*
X0001128740Y0000913740D01*
X0001128740Y0000913740D02*
X0001078740Y0000863740D01*
G04 #@! TO.N,Net-(U2-Pad3)*
X0001076240Y0000928740D02*
X0001078740Y0000928740D01*
X0001078740Y0000928740D02*
X0001078740Y0000903740D01*
X0001078740Y0000903740D02*
X0001053740Y0000878740D01*
X0001053740Y0000878740D02*
X0001053740Y0000848740D01*
X0001053740Y0000848740D02*
X0000998740Y0000793740D01*
X0001078740Y0000928740D02*
X0001078740Y0000908740D01*
G04 #@! TO.N,Net-(U2-Pad2)*
X0001026240Y0000928740D02*
X0001028740Y0000928740D01*
X0001028740Y0000928740D02*
X0001028740Y0000863740D01*
G04 #@! TO.N,RIGHT*
X0000918740Y0000981240D02*
X0000963740Y0001026240D01*
X0000963740Y0001026240D02*
X0001153740Y0001026240D01*
X0001153740Y0001026240D02*
X0001193740Y0001066240D01*
X0000918740Y0000978740D02*
X0000918740Y0000981240D01*
G04 #@! TO.N,BT3*
X0000968740Y0000163740D02*
X0000968740Y0000218110D01*
G04 #@! TO.N,BT1*
X0000928779Y0001128779D02*
X0000901240Y0001101240D01*
X0000901240Y0001101240D02*
X0000811240Y0001101240D01*
X0000811240Y0001101240D02*
X0000791240Y0001081240D01*
X0000791240Y0001081240D02*
X0000791240Y0001048740D01*
X0000791240Y0001048740D02*
X0000803740Y0001036240D01*
X0000803740Y0001036240D02*
X0000933740Y0001036240D01*
X0000933740Y0001036240D02*
X0000943740Y0001046240D01*
X0000943740Y0001046240D02*
X0001121240Y0001046240D01*
X0001121240Y0001046240D02*
X0001128740Y0001053740D01*
X0000928779Y0001236240D02*
X0000928779Y0001128779D01*
X0000943779Y0001233740D02*
X0000943740Y0001233740D01*
X0000943740Y0001233740D02*
X0000943779Y0001233740D01*
G04 #@! TO.N,BT2*
X0001258700Y0001236240D02*
X0001258700Y0001133779D01*
X0001373740Y0000323110D02*
X0001268740Y0000218110D01*
X0001373740Y0001018740D02*
X0001373740Y0000323110D01*
X0001258700Y0001133779D02*
X0001373740Y0001018740D01*
X0001273740Y0001233740D02*
X0001273700Y0001233740D01*
G04 #@! TO.N,Net-(R1-Pad1)*
X0001176240Y0000928740D02*
X0001178740Y0000928740D01*
X0001178740Y0000928740D02*
X0001178740Y0000913740D01*
X0001178740Y0000913740D02*
X0001008740Y0000743740D01*
X0001008740Y0000743740D02*
X0000978740Y0000743740D01*
X0000958740Y0000628740D02*
X0001023740Y0000563740D01*
X0001023740Y0000563740D02*
X0001158740Y0000563740D01*
X0001158740Y0000563740D02*
X0001203740Y0000518740D01*
X0001203740Y0000518740D02*
X0001218740Y0000518740D01*
X0001218740Y0000518740D02*
X0001219389Y0000521240D01*
X0001219389Y0000521240D02*
X0001218740Y0000518740D01*
G04 #@! TO.N,Net-(R3-Pad1)*
X0001019389Y0000523740D02*
X0001018740Y0000523740D01*
X0001018740Y0000523740D02*
X0001018740Y0000488740D01*
X0001018740Y0000488740D02*
X0001048740Y0000458740D01*
X0001163740Y0000348740D02*
X0001253740Y0000348740D01*
G04 #@! TO.N,Net-(JP1-Pad1)*
X0000858740Y0000756240D02*
X0000858740Y0000701240D01*
X0000858740Y0000701240D02*
X0000783740Y0000626240D01*
X0000783740Y0000626240D02*
X0000783740Y0000176240D01*
X0000783740Y0000176240D02*
X0000911240Y0000048740D01*
X0001373740Y0000158740D02*
X0001331240Y0000201240D01*
X0001373740Y0000076240D02*
X0001373740Y0000158740D01*
X0001346240Y0000048740D02*
X0001373740Y0000076240D01*
X0000911240Y0000048740D02*
X0001346240Y0000048740D01*
G04 #@! TO.N,Net-(JP1-Pad2)*
X0000858740Y0000806240D02*
X0000858740Y0000803740D01*
X0000858740Y0000803740D02*
X0000878740Y0000823740D01*
X0000878740Y0000823740D02*
X0000893740Y0000823740D01*
X0000893740Y0000823740D02*
X0000893740Y0000843740D01*
X0000893740Y0000843740D02*
X0000978740Y0000928740D01*
X0000978740Y0000928740D02*
X0000976240Y0000928740D01*
G04 #@! TO.N,Net-(Q2-Pad1)*
X0001218740Y0000198740D02*
X0001238740Y0000178740D01*
X0001266771Y0000178740D02*
X0001306141Y0000139370D01*
X0001238740Y0000178740D02*
X0001266771Y0000178740D01*
G04 #@! TO.N,Net-(Q1-Pad1)*
X0001006141Y0000176141D02*
X0001108740Y0000278740D01*
X0001006141Y0000139370D02*
X0001006141Y0000176141D01*
X0001178740Y0000468740D02*
X0001126240Y0000521240D01*
X0001178740Y0000433740D02*
X0001178740Y0000468740D01*
X0001108740Y0000363740D02*
X0001178740Y0000433740D01*
X0001108740Y0000278740D02*
X0001108740Y0000363740D01*
X0001126240Y0000521240D02*
X0001113090Y0000521240D01*
X0001113090Y0000521240D02*
X0001113740Y0000518740D01*
G04 #@! TO.N,Net-(D1-Pad2)*
X0001226240Y0000928740D02*
X0001226240Y0000961240D01*
X0001203740Y0000983740D02*
X0001083740Y0000983740D01*
X0001226240Y0000961240D02*
X0001203740Y0000983740D01*
X0001228740Y0000928740D02*
X0001226240Y0000928740D01*
G04 #@! TD*
G04 next file*
G04 #@! TF.GenerationSoftware,KiCad,Pcbnew,(5.0.2)-1*
G04 #@! TF.CreationDate,2019-07-10T16:32:42+02:00*
G04 #@! TF.ProjectId,joystick tester systest,6a6f7973-7469-4636-9b20-746573746572,rev?*
G04 #@! TF.SameCoordinates,Original*
G04 #@! TF.FileFunction,Copper,L2,Bot*
G04 #@! TF.FilePolarity,Positive*
G04 Gerber Fmt 4.6, Leading zero omitted, Abs format (unit mm)*
G04 Created by KiCad (PCBNEW (5.0.2)-1) date 10-7-2019 16:32:42*
G01G01*
G04 APERTURE LIST*
G04 #@! TA.AperFunction,SMDPad,CuDef*
G04 #@! TD*
G04 #@! TA.AperFunction,ConnectorPad*
G04 #@! TD*
G04 #@! TA.AperFunction,SMDPad,CuDef*
G04 #@! TD*
G04 #@! TA.AperFunction,ComponentPad*
G04 #@! TD*
G04 #@! TA.AperFunction,ComponentPad*
G04 #@! TD*
G04 #@! TA.AperFunction,SMDPad,CuDef*
G04 #@! TD*
G04 #@! TA.AperFunction,ViaPad*
G04 #@! TD*
G04 #@! TA.AperFunction,Conductor*
G04 #@! TD*
G04 APERTURE END LIST*
D44*
G04 #@! TO.P,U2,16*
G04 #@! TO.N,VCC*
X-0004173228Y0005078740D02*
X0001724271Y0000678740D03*
G04 #@! TO.P,U2,14*
G04 #@! TO.N,Net-(U1-Pad3)*
X0001824271Y0000678740D03*
G04 #@! TO.P,U2,13*
G04 #@! TO.N,GND*
X0001874271Y0000678740D03*
G04 #@! TO.P,U2,12*
G04 #@! TO.N,Net-(U2-Pad12)*
X0001924271Y0000678740D03*
G04 #@! TO.P,U2,11*
G04 #@! TO.N,Net-(U2-Pad11)*
X0001974271Y0000678740D03*
G04 #@! TO.P,U2,10*
G04 #@! TO.N,Net-(U2-Pad10)*
X0002024271Y0000678740D03*
G04 #@! TO.P,U2,9*
G04 #@! TO.N,Net-(U2-Pad9)*
X0002074271Y0000678740D03*
G04 #@! TO.P,U2,8*
G04 #@! TO.N,GND*
X0002074271Y0000928740D03*
G04 #@! TO.P,U2,7*
G04 #@! TO.N,Net-(U2-Pad7)*
X0002024271Y0000928740D03*
G04 #@! TO.P,U2,6*
G04 #@! TO.N,Net-(D1-Pad2)*
X0001974271Y0000928740D03*
G04 #@! TO.P,U2,5*
G04 #@! TO.N,Net-(R1-Pad1)*
X0001924271Y0000928740D03*
G04 #@! TO.P,U2,4*
G04 #@! TO.N,Net-(U2-Pad4)*
X0001874271Y0000928740D03*
G04 #@! TO.P,U2,3*
G04 #@! TO.N,Net-(U2-Pad3)*
X0001824271Y0000928740D03*
G04 #@! TO.P,U2,2*
G04 #@! TO.N,Net-(U2-Pad2)*
X0001774271Y0000928740D03*
G04 #@! TO.P,U2,1*
G04 #@! TO.N,Net-(JP1-Pad2)*
X0001724271Y0000928740D03*
G04 #@! TO.P,U2,15*
G04 #@! TO.N,RST*
X0001774271Y0000678740D03*
G04 #@! TD*
D45*
G04 #@! TO.P,J1,6*
G04 #@! TO.N,BT1*
X0001676811Y0001236240D03*
G04 #@! TO.P,J1,7*
G04 #@! TO.N,VCC*
X0001786653Y0001236240D03*
G04 #@! TO.P,J1,8*
G04 #@! TO.N,GND*
X0001896889Y0001236240D03*
G04 #@! TO.P,J1,9*
G04 #@! TO.N,BT2*
X0002006732Y0001236240D03*
G04 #@! TD*
D46*
G04 #@! TO.P,R1,1*
G04 #@! TO.N,Net-(R1-Pad1)*
X0001967421Y0000521240D03*
G04 #@! TO.P,R1,2*
G04 #@! TO.N,Net-(Q1-Pad1)*
X0001861122Y0000521240D03*
G04 #@! TD*
G04 #@! TO.P,R3,1*
G04 #@! TO.N,Net-(R3-Pad1)*
X0001767421Y0000523740D03*
G04 #@! TO.P,R3,2*
G04 #@! TO.N,THR*
X0001661122Y0000523740D03*
G04 #@! TD*
D47*
G04 #@! TO.P,JP1,1*
G04 #@! TO.N,Net-(JP1-Pad1)*
X0001606771Y0000756240D03*
D48*
G04 #@! TO.P,JP1,2*
G04 #@! TO.N,Net-(JP1-Pad2)*
X0001606771Y0000806240D03*
G04 #@! TO.P,JP1,3*
G04 #@! TO.N,RST*
X0001606771Y0000856240D03*
G04 #@! TD*
D49*
G04 #@! TO.P,Q2,1*
G04 #@! TO.N,Net-(Q2-Pad1)*
X0002054173Y0000139370D03*
G04 #@! TO.P,Q2,2*
G04 #@! TO.N,GND*
X0001979370Y0000139370D03*
G04 #@! TO.P,Q2,3*
G04 #@! TO.N,BT2*
X0002016771Y0000218110D03*
G04 #@! TD*
G04 #@! TO.P,Q1,1*
G04 #@! TO.N,Net-(Q1-Pad1)*
X0001754173Y0000139370D03*
G04 #@! TO.P,Q1,2*
G04 #@! TO.N,GND*
X0001679370Y0000139370D03*
G04 #@! TO.P,Q1,3*
G04 #@! TO.N,BT3*
X0001716771Y0000218110D03*
G04 #@! TD*
D50*
G04 #@! TO.N,VCC*
X0001606771Y0000653740D03*
X0001571771Y0001066240D03*
X0001961771Y0000456240D03*
X0001711771Y0000863740D03*
X0001936771Y0000313740D03*
X0001811771Y0000188740D03*
G04 #@! TO.N,GND*
X0001576771Y0000358740D03*
X0002041771Y0000978740D03*
X0001991771Y0001098740D03*
X0001874271Y0000631240D03*
X0002081771Y0000863740D03*
X0002026771Y0000743740D03*
X0001621771Y0000458740D03*
X0001716771Y0000458740D03*
G04 #@! TO.N,THR*
X0001686771Y0000333740D03*
X0001786771Y0000333740D03*
X0001661771Y0000458740D03*
G04 #@! TO.N,Net-(U1-Pad3)*
X0001686771Y0000293740D03*
X0001561771Y0000418740D03*
X0001791771Y0000623740D03*
G04 #@! TO.N,RST*
X0001751771Y0000628740D03*
G04 #@! TO.N,Net-(C1-Pad1)*
X0001786771Y0000288740D03*
X0001891771Y0000458740D03*
G04 #@! TO.N,Net-(U2-Pad10)*
X0001956771Y0000628740D03*
G04 #@! TO.N,Net-(U2-Pad7)*
X0001976771Y0000863740D03*
G04 #@! TO.N,Net-(U2-Pad4)*
X0001826771Y0000863740D03*
G04 #@! TO.N,Net-(U2-Pad3)*
X0001746771Y0000793740D03*
G04 #@! TO.N,Net-(U2-Pad2)*
X0001776771Y0000863740D03*
G04 #@! TO.N,RIGHT*
X0001941771Y0001066240D03*
X0001666771Y0000978740D03*
G04 #@! TO.N,BT3*
X0001716771Y0000163740D03*
G04 #@! TO.N,BT1*
X0001876771Y0001053740D03*
G04 #@! TO.N,Net-(R1-Pad1)*
X0001726771Y0000743740D03*
X0001706771Y0000628740D03*
G04 #@! TO.N,Net-(R3-Pad1)*
X0002001771Y0000348740D03*
X0001796771Y0000458740D03*
X0001911771Y0000348740D03*
G04 #@! TO.N,Net-(JP1-Pad1)*
X0002079271Y0000201240D03*
G04 #@! TO.N,Net-(Q2-Pad1)*
X0001966771Y0000198740D03*
G04 #@! TO.N,Net-(D1-Pad2)*
X0001831771Y0000983740D03*
G04 #@! TD*
D51*
G04 #@! TO.N,*
X0001676771Y0000678740D02*
X0001676771Y0000676240D01*
G04 #@! TO.N,Net-(U2-Pad11)*
X0001976771Y0000678740D02*
X0001976771Y0000663740D01*
G04 #@! TO.N,VCC*
X0001571771Y0001066240D02*
X0001759271Y0001066240D01*
X0001724271Y0000678740D02*
X0001706771Y0000678740D01*
X0001696771Y0000668740D02*
X0001706771Y0000678740D01*
X0001621771Y0000668740D02*
X0001696771Y0000668740D01*
X0001606771Y0000653740D02*
X0001621771Y0000668740D01*
X0001786653Y0001093622D02*
X0001786653Y0001236240D01*
X0001759271Y0001066240D02*
X0001786653Y0001093622D01*
X0001786653Y0001236240D02*
X0001786771Y0001233740D01*
X0001724271Y0000678740D02*
X0001724271Y0000686240D01*
X0001724271Y0000686240D02*
X0001766771Y0000728740D01*
X0002004271Y0000456240D02*
X0001961771Y0000456240D01*
X0002029271Y0000481240D02*
X0002004271Y0000456240D01*
X0002029271Y0000558740D02*
X0002029271Y0000481240D01*
X0001999271Y0000588740D02*
X0002029271Y0000558740D01*
X0001874271Y0000588740D02*
X0001999271Y0000588740D01*
X0001849271Y0000613740D02*
X0001874271Y0000588740D01*
X0001849271Y0000723740D02*
X0001849271Y0000613740D01*
X0001844271Y0000728740D02*
X0001849271Y0000723740D01*
X0001766771Y0000728740D02*
X0001844271Y0000728740D01*
X0001711771Y0000863740D02*
X0001711771Y0000768740D01*
X0001711771Y0000768740D02*
X0001701771Y0000758740D01*
X0001701771Y0000758740D02*
X0001701771Y0000703740D01*
X0001726771Y0000678740D02*
X0001701771Y0000703740D01*
X0001801653Y0001233740D02*
X0001801771Y0001233740D01*
X0001801771Y0001233740D02*
X0001801771Y0001178740D01*
X0001726771Y0000678740D02*
X0001724271Y0000678740D01*
X0001801653Y0001233740D02*
X0001801771Y0001233740D01*
X0001726771Y0000678740D02*
X0001726771Y0000693740D01*
X0001936771Y0000313740D02*
X0001811771Y0000188740D01*
G04 #@! TO.N,GND*
X0001679370Y0000139370D02*
X0001646141Y0000139370D01*
X0001576771Y0000208740D02*
X0001576771Y0000358740D01*
X0001646141Y0000139370D02*
X0001576771Y0000208740D01*
X0001679370Y0000139370D02*
X0001679370Y0000116141D01*
X0001679370Y0000116141D02*
X0001716771Y0000078740D01*
X0001716771Y0000078740D02*
X0001936771Y0000078740D01*
X0001936771Y0000078740D02*
X0001979370Y0000121338D01*
X0001979370Y0000121338D02*
X0001979370Y0000139370D01*
X0001991771Y0001098740D02*
X0001926771Y0001098740D01*
X0002076771Y0000943740D02*
X0002041771Y0000978740D01*
X0001896889Y0001128622D02*
X0001896889Y0001236240D01*
X0001926771Y0001098740D02*
X0001896889Y0001128622D01*
X0001874271Y0000631240D02*
X0001874271Y0000678740D01*
X0002074271Y0000928740D02*
X0002076771Y0000928740D01*
X0002076771Y0000928740D02*
X0002076771Y0000943740D01*
X0001911771Y0001233740D02*
X0001911889Y0001233740D01*
X0002081771Y0000863740D02*
X0002081771Y0000923740D01*
X0002081771Y0000923740D02*
X0002076771Y0000928740D01*
X0002076771Y0000928740D02*
X0002074271Y0000928740D01*
X0001876771Y0000678740D02*
X0001874271Y0000678740D01*
X0001874271Y0000678740D02*
X0001876771Y0000678740D01*
X0001876771Y0000678740D02*
X0001876771Y0000698740D01*
X0001876771Y0000698740D02*
X0001921771Y0000743740D01*
X0001921771Y0000743740D02*
X0002026771Y0000743740D01*
X0001911771Y0001233740D02*
X0001911889Y0001233740D01*
X0001621771Y0000458740D02*
X0001646771Y0000433740D01*
X0001646771Y0000433740D02*
X0001676771Y0000433740D01*
X0001676771Y0000433740D02*
X0001701771Y0000458740D01*
X0001701771Y0000458740D02*
X0001716771Y0000458740D01*
G04 #@! TO.N,THR*
X0001686771Y0000333740D02*
X0001786771Y0000333740D01*
X0001661771Y0000458740D02*
X0001661771Y0000523740D01*
X0001661771Y0000523740D02*
X0001661122Y0000523740D01*
G04 #@! TO.N,Net-(U1-Pad3)*
X0001686771Y0000293740D02*
X0001561771Y0000418740D01*
X0001791771Y0000623740D02*
X0001791771Y0000628740D01*
X0001791771Y0000628740D02*
X0001801771Y0000638740D01*
X0001801771Y0000638740D02*
X0001801771Y0000653740D01*
X0001801771Y0000653740D02*
X0001826771Y0000678740D01*
X0001826771Y0000678740D02*
X0001824271Y0000678740D01*
X0001826771Y0000678740D02*
X0001826771Y0000693740D01*
G04 #@! TO.N,RST*
X0001774271Y0000678740D02*
X0001776771Y0000678740D01*
X0001776771Y0000678740D02*
X0001776771Y0000653740D01*
X0001776771Y0000653740D02*
X0001751771Y0000628740D01*
G04 #@! TO.N,Net-(C1-Pad1)*
X0001786771Y0000288740D02*
X0001786771Y0000293740D01*
X0001786771Y0000293740D02*
X0001811771Y0000318740D01*
X0001811771Y0000318740D02*
X0001811771Y0000378740D01*
X0001811771Y0000378740D02*
X0001891771Y0000458740D01*
G04 #@! TO.N,Net-(U2-Pad10)*
X0002024271Y0000678740D02*
X0002026771Y0000678740D01*
X0002026771Y0000678740D02*
X0002026771Y0000663740D01*
X0002026771Y0000663740D02*
X0001991771Y0000628740D01*
X0001991771Y0000628740D02*
X0001956771Y0000628740D01*
G04 #@! TO.N,Net-(U2-Pad7)*
X0001976771Y0000863740D02*
X0002001771Y0000888740D01*
X0002001771Y0000888740D02*
X0002001771Y0000903740D01*
X0002001771Y0000903740D02*
X0002026771Y0000928740D01*
X0002026771Y0000928740D02*
X0002024271Y0000928740D01*
X0002026771Y0000928740D02*
X0002026771Y0000943740D01*
X0002031771Y0000923740D02*
X0002026771Y0000928740D01*
G04 #@! TO.N,Net-(U2-Pad4)*
X0001874271Y0000928740D02*
X0001876771Y0000928740D01*
X0001876771Y0000928740D02*
X0001876771Y0000913740D01*
X0001876771Y0000913740D02*
X0001826771Y0000863740D01*
G04 #@! TO.N,Net-(U2-Pad3)*
X0001824271Y0000928740D02*
X0001826771Y0000928740D01*
X0001826771Y0000928740D02*
X0001826771Y0000903740D01*
X0001826771Y0000903740D02*
X0001801771Y0000878740D01*
X0001801771Y0000878740D02*
X0001801771Y0000848740D01*
X0001801771Y0000848740D02*
X0001746771Y0000793740D01*
X0001826771Y0000928740D02*
X0001826771Y0000908740D01*
G04 #@! TO.N,Net-(U2-Pad2)*
X0001774271Y0000928740D02*
X0001776771Y0000928740D01*
X0001776771Y0000928740D02*
X0001776771Y0000863740D01*
G04 #@! TO.N,RIGHT*
X0001666771Y0000981240D02*
X0001711771Y0001026240D01*
X0001711771Y0001026240D02*
X0001901771Y0001026240D01*
X0001901771Y0001026240D02*
X0001941771Y0001066240D01*
X0001666771Y0000978740D02*
X0001666771Y0000981240D01*
G04 #@! TO.N,BT3*
X0001716771Y0000163740D02*
X0001716771Y0000218110D01*
G04 #@! TO.N,BT1*
X0001676811Y0001128779D02*
X0001649271Y0001101240D01*
X0001649271Y0001101240D02*
X0001559271Y0001101240D01*
X0001559271Y0001101240D02*
X0001539271Y0001081240D01*
X0001539271Y0001081240D02*
X0001539271Y0001048740D01*
X0001539271Y0001048740D02*
X0001551771Y0001036240D01*
X0001551771Y0001036240D02*
X0001681771Y0001036240D01*
X0001681771Y0001036240D02*
X0001691771Y0001046240D01*
X0001691771Y0001046240D02*
X0001869271Y0001046240D01*
X0001869271Y0001046240D02*
X0001876771Y0001053740D01*
X0001676811Y0001236240D02*
X0001676811Y0001128779D01*
X0001691811Y0001233740D02*
X0001691771Y0001233740D01*
X0001691771Y0001233740D02*
X0001691811Y0001233740D01*
G04 #@! TO.N,BT2*
X0002006732Y0001236240D02*
X0002006732Y0001133779D01*
X0002121771Y0000323110D02*
X0002016771Y0000218110D01*
X0002121771Y0001018740D02*
X0002121771Y0000323110D01*
X0002006732Y0001133779D02*
X0002121771Y0001018740D01*
X0002021771Y0001233740D02*
X0002021732Y0001233740D01*
G04 #@! TO.N,Net-(R1-Pad1)*
X0001924271Y0000928740D02*
X0001926771Y0000928740D01*
X0001926771Y0000928740D02*
X0001926771Y0000913740D01*
X0001926771Y0000913740D02*
X0001756771Y0000743740D01*
X0001756771Y0000743740D02*
X0001726771Y0000743740D01*
X0001706771Y0000628740D02*
X0001771771Y0000563740D01*
X0001771771Y0000563740D02*
X0001906771Y0000563740D01*
X0001906771Y0000563740D02*
X0001951771Y0000518740D01*
X0001951771Y0000518740D02*
X0001966771Y0000518740D01*
X0001966771Y0000518740D02*
X0001967421Y0000521240D01*
X0001967421Y0000521240D02*
X0001966771Y0000518740D01*
G04 #@! TO.N,Net-(R3-Pad1)*
X0001767421Y0000523740D02*
X0001766771Y0000523740D01*
X0001766771Y0000523740D02*
X0001766771Y0000488740D01*
X0001766771Y0000488740D02*
X0001796771Y0000458740D01*
X0001911771Y0000348740D02*
X0002001771Y0000348740D01*
G04 #@! TO.N,Net-(JP1-Pad1)*
X0001606771Y0000756240D02*
X0001606771Y0000701240D01*
X0001606771Y0000701240D02*
X0001531771Y0000626240D01*
X0001531771Y0000626240D02*
X0001531771Y0000176240D01*
X0001531771Y0000176240D02*
X0001659271Y0000048740D01*
X0002121771Y0000158740D02*
X0002079271Y0000201240D01*
X0002121771Y0000076240D02*
X0002121771Y0000158740D01*
X0002094271Y0000048740D02*
X0002121771Y0000076240D01*
X0001659271Y0000048740D02*
X0002094271Y0000048740D01*
G04 #@! TO.N,Net-(JP1-Pad2)*
X0001606771Y0000806240D02*
X0001606771Y0000803740D01*
X0001606771Y0000803740D02*
X0001626771Y0000823740D01*
X0001626771Y0000823740D02*
X0001641771Y0000823740D01*
X0001641771Y0000823740D02*
X0001641771Y0000843740D01*
X0001641771Y0000843740D02*
X0001726771Y0000928740D01*
X0001726771Y0000928740D02*
X0001724271Y0000928740D01*
G04 #@! TO.N,Net-(Q2-Pad1)*
X0001966771Y0000198740D02*
X0001986771Y0000178740D01*
X0002014803Y0000178740D02*
X0002054173Y0000139370D01*
X0001986771Y0000178740D02*
X0002014803Y0000178740D01*
G04 #@! TO.N,Net-(Q1-Pad1)*
X0001754173Y0000176141D02*
X0001856771Y0000278740D01*
X0001754173Y0000139370D02*
X0001754173Y0000176141D01*
X0001926771Y0000468740D02*
X0001874271Y0000521240D01*
X0001926771Y0000433740D02*
X0001926771Y0000468740D01*
X0001856771Y0000363740D02*
X0001926771Y0000433740D01*
X0001856771Y0000278740D02*
X0001856771Y0000363740D01*
X0001874271Y0000521240D02*
X0001861122Y0000521240D01*
X0001861122Y0000521240D02*
X0001861771Y0000518740D01*
G04 #@! TO.N,Net-(D1-Pad2)*
X0001974271Y0000928740D02*
X0001974271Y0000961240D01*
X0001951771Y0000983740D02*
X0001831771Y0000983740D01*
X0001974271Y0000961240D02*
X0001951771Y0000983740D01*
X0001976771Y0000928740D02*
X0001974271Y0000928740D01*
G04 #@! TD*
G04 next file*
G04 #@! TF.GenerationSoftware,KiCad,Pcbnew,(5.0.2)-1*
G04 #@! TF.CreationDate,2019-07-10T16:32:42+02:00*
G04 #@! TF.ProjectId,joystick tester systest,6a6f7973-7469-4636-9b20-746573746572,rev?*
G04 #@! TF.SameCoordinates,Original*
G04 #@! TF.FileFunction,Copper,L2,Bot*
G04 #@! TF.FilePolarity,Positive*
G04 Gerber Fmt 4.6, Leading zero omitted, Abs format (unit mm)*
G04 Created by KiCad (PCBNEW (5.0.2)-1) date 10-7-2019 16:32:42*
G01G01*
G04 APERTURE LIST*
G04 #@! TA.AperFunction,SMDPad,CuDef*
G04 #@! TD*
G04 #@! TA.AperFunction,ConnectorPad*
G04 #@! TD*
G04 #@! TA.AperFunction,SMDPad,CuDef*
G04 #@! TD*
G04 #@! TA.AperFunction,ComponentPad*
G04 #@! TD*
G04 #@! TA.AperFunction,ComponentPad*
G04 #@! TD*
G04 #@! TA.AperFunction,SMDPad,CuDef*
G04 #@! TD*
G04 #@! TA.AperFunction,ViaPad*
G04 #@! TD*
G04 #@! TA.AperFunction,Conductor*
G04 #@! TD*
G04 APERTURE END LIST*
D52*
G04 #@! TO.P,U2,16*
G04 #@! TO.N,VCC*
X-0003425196Y0005078740D02*
X0002472303Y0000678740D03*
G04 #@! TO.P,U2,14*
G04 #@! TO.N,Net-(U1-Pad3)*
X0002572303Y0000678740D03*
G04 #@! TO.P,U2,13*
G04 #@! TO.N,GND*
X0002622303Y0000678740D03*
G04 #@! TO.P,U2,12*
G04 #@! TO.N,Net-(U2-Pad12)*
X0002672303Y0000678740D03*
G04 #@! TO.P,U2,11*
G04 #@! TO.N,Net-(U2-Pad11)*
X0002722303Y0000678740D03*
G04 #@! TO.P,U2,10*
G04 #@! TO.N,Net-(U2-Pad10)*
X0002772303Y0000678740D03*
G04 #@! TO.P,U2,9*
G04 #@! TO.N,Net-(U2-Pad9)*
X0002822303Y0000678740D03*
G04 #@! TO.P,U2,8*
G04 #@! TO.N,GND*
X0002822303Y0000928740D03*
G04 #@! TO.P,U2,7*
G04 #@! TO.N,Net-(U2-Pad7)*
X0002772303Y0000928740D03*
G04 #@! TO.P,U2,6*
G04 #@! TO.N,Net-(D1-Pad2)*
X0002722303Y0000928740D03*
G04 #@! TO.P,U2,5*
G04 #@! TO.N,Net-(R1-Pad1)*
X0002672303Y0000928740D03*
G04 #@! TO.P,U2,4*
G04 #@! TO.N,Net-(U2-Pad4)*
X0002622303Y0000928740D03*
G04 #@! TO.P,U2,3*
G04 #@! TO.N,Net-(U2-Pad3)*
X0002572303Y0000928740D03*
G04 #@! TO.P,U2,2*
G04 #@! TO.N,Net-(U2-Pad2)*
X0002522303Y0000928740D03*
G04 #@! TO.P,U2,1*
G04 #@! TO.N,Net-(JP1-Pad2)*
X0002472303Y0000928740D03*
G04 #@! TO.P,U2,15*
G04 #@! TO.N,RST*
X0002522303Y0000678740D03*
G04 #@! TD*
D53*
G04 #@! TO.P,J1,6*
G04 #@! TO.N,BT1*
X0002424842Y0001236240D03*
G04 #@! TO.P,J1,7*
G04 #@! TO.N,VCC*
X0002534685Y0001236240D03*
G04 #@! TO.P,J1,8*
G04 #@! TO.N,GND*
X0002644921Y0001236240D03*
G04 #@! TO.P,J1,9*
G04 #@! TO.N,BT2*
X0002754763Y0001236240D03*
G04 #@! TD*
D54*
G04 #@! TO.P,R1,1*
G04 #@! TO.N,Net-(R1-Pad1)*
X0002715452Y0000521240D03*
G04 #@! TO.P,R1,2*
G04 #@! TO.N,Net-(Q1-Pad1)*
X0002609153Y0000521240D03*
G04 #@! TD*
G04 #@! TO.P,R3,1*
G04 #@! TO.N,Net-(R3-Pad1)*
X0002515452Y0000523740D03*
G04 #@! TO.P,R3,2*
G04 #@! TO.N,THR*
X0002409153Y0000523740D03*
G04 #@! TD*
D55*
G04 #@! TO.P,JP1,1*
G04 #@! TO.N,Net-(JP1-Pad1)*
X0002354803Y0000756240D03*
D56*
G04 #@! TO.P,JP1,2*
G04 #@! TO.N,Net-(JP1-Pad2)*
X0002354803Y0000806240D03*
G04 #@! TO.P,JP1,3*
G04 #@! TO.N,RST*
X0002354803Y0000856240D03*
G04 #@! TD*
D57*
G04 #@! TO.P,Q2,1*
G04 #@! TO.N,Net-(Q2-Pad1)*
X0002802204Y0000139370D03*
G04 #@! TO.P,Q2,2*
G04 #@! TO.N,GND*
X0002727401Y0000139370D03*
G04 #@! TO.P,Q2,3*
G04 #@! TO.N,BT2*
X0002764803Y0000218110D03*
G04 #@! TD*
G04 #@! TO.P,Q1,1*
G04 #@! TO.N,Net-(Q1-Pad1)*
X0002502204Y0000139370D03*
G04 #@! TO.P,Q1,2*
G04 #@! TO.N,GND*
X0002427401Y0000139370D03*
G04 #@! TO.P,Q1,3*
G04 #@! TO.N,BT3*
X0002464803Y0000218110D03*
G04 #@! TD*
D58*
G04 #@! TO.N,VCC*
X0002354803Y0000653740D03*
X0002319803Y0001066240D03*
X0002709803Y0000456240D03*
X0002459803Y0000863740D03*
X0002684803Y0000313740D03*
X0002559803Y0000188740D03*
G04 #@! TO.N,GND*
X0002324803Y0000358740D03*
X0002789803Y0000978740D03*
X0002739803Y0001098740D03*
X0002622303Y0000631240D03*
X0002829803Y0000863740D03*
X0002774803Y0000743740D03*
X0002369803Y0000458740D03*
X0002464803Y0000458740D03*
G04 #@! TO.N,THR*
X0002434803Y0000333740D03*
X0002534803Y0000333740D03*
X0002409803Y0000458740D03*
G04 #@! TO.N,Net-(U1-Pad3)*
X0002434803Y0000293740D03*
X0002309803Y0000418740D03*
X0002539803Y0000623740D03*
G04 #@! TO.N,RST*
X0002499803Y0000628740D03*
G04 #@! TO.N,Net-(C1-Pad1)*
X0002534803Y0000288740D03*
X0002639803Y0000458740D03*
G04 #@! TO.N,Net-(U2-Pad10)*
X0002704803Y0000628740D03*
G04 #@! TO.N,Net-(U2-Pad7)*
X0002724803Y0000863740D03*
G04 #@! TO.N,Net-(U2-Pad4)*
X0002574803Y0000863740D03*
G04 #@! TO.N,Net-(U2-Pad3)*
X0002494803Y0000793740D03*
G04 #@! TO.N,Net-(U2-Pad2)*
X0002524803Y0000863740D03*
G04 #@! TO.N,RIGHT*
X0002689803Y0001066240D03*
X0002414803Y0000978740D03*
G04 #@! TO.N,BT3*
X0002464803Y0000163740D03*
G04 #@! TO.N,BT1*
X0002624803Y0001053740D03*
G04 #@! TO.N,Net-(R1-Pad1)*
X0002474803Y0000743740D03*
X0002454803Y0000628740D03*
G04 #@! TO.N,Net-(R3-Pad1)*
X0002749803Y0000348740D03*
X0002544803Y0000458740D03*
X0002659803Y0000348740D03*
G04 #@! TO.N,Net-(JP1-Pad1)*
X0002827303Y0000201240D03*
G04 #@! TO.N,Net-(Q2-Pad1)*
X0002714803Y0000198740D03*
G04 #@! TO.N,Net-(D1-Pad2)*
X0002579803Y0000983740D03*
G04 #@! TD*
D59*
G04 #@! TO.N,*
X0002424803Y0000678740D02*
X0002424803Y0000676240D01*
G04 #@! TO.N,Net-(U2-Pad11)*
X0002724803Y0000678740D02*
X0002724803Y0000663740D01*
G04 #@! TO.N,VCC*
X0002319803Y0001066240D02*
X0002507303Y0001066240D01*
X0002472303Y0000678740D02*
X0002454803Y0000678740D01*
X0002444803Y0000668740D02*
X0002454803Y0000678740D01*
X0002369803Y0000668740D02*
X0002444803Y0000668740D01*
X0002354803Y0000653740D02*
X0002369803Y0000668740D01*
X0002534685Y0001093622D02*
X0002534685Y0001236240D01*
X0002507303Y0001066240D02*
X0002534685Y0001093622D01*
X0002534685Y0001236240D02*
X0002534803Y0001233740D01*
X0002472303Y0000678740D02*
X0002472303Y0000686240D01*
X0002472303Y0000686240D02*
X0002514803Y0000728740D01*
X0002752303Y0000456240D02*
X0002709803Y0000456240D01*
X0002777303Y0000481240D02*
X0002752303Y0000456240D01*
X0002777303Y0000558740D02*
X0002777303Y0000481240D01*
X0002747303Y0000588740D02*
X0002777303Y0000558740D01*
X0002622303Y0000588740D02*
X0002747303Y0000588740D01*
X0002597303Y0000613740D02*
X0002622303Y0000588740D01*
X0002597303Y0000723740D02*
X0002597303Y0000613740D01*
X0002592303Y0000728740D02*
X0002597303Y0000723740D01*
X0002514803Y0000728740D02*
X0002592303Y0000728740D01*
X0002459803Y0000863740D02*
X0002459803Y0000768740D01*
X0002459803Y0000768740D02*
X0002449803Y0000758740D01*
X0002449803Y0000758740D02*
X0002449803Y0000703740D01*
X0002474803Y0000678740D02*
X0002449803Y0000703740D01*
X0002549685Y0001233740D02*
X0002549803Y0001233740D01*
X0002549803Y0001233740D02*
X0002549803Y0001178740D01*
X0002474803Y0000678740D02*
X0002472303Y0000678740D01*
X0002549685Y0001233740D02*
X0002549803Y0001233740D01*
X0002474803Y0000678740D02*
X0002474803Y0000693740D01*
X0002684803Y0000313740D02*
X0002559803Y0000188740D01*
G04 #@! TO.N,GND*
X0002427401Y0000139370D02*
X0002394173Y0000139370D01*
X0002324803Y0000208740D02*
X0002324803Y0000358740D01*
X0002394173Y0000139370D02*
X0002324803Y0000208740D01*
X0002427401Y0000139370D02*
X0002427401Y0000116141D01*
X0002427401Y0000116141D02*
X0002464803Y0000078740D01*
X0002464803Y0000078740D02*
X0002684803Y0000078740D01*
X0002684803Y0000078740D02*
X0002727401Y0000121338D01*
X0002727401Y0000121338D02*
X0002727401Y0000139370D01*
X0002739803Y0001098740D02*
X0002674803Y0001098740D01*
X0002824803Y0000943740D02*
X0002789803Y0000978740D01*
X0002644921Y0001128622D02*
X0002644921Y0001236240D01*
X0002674803Y0001098740D02*
X0002644921Y0001128622D01*
X0002622303Y0000631240D02*
X0002622303Y0000678740D01*
X0002822303Y0000928740D02*
X0002824803Y0000928740D01*
X0002824803Y0000928740D02*
X0002824803Y0000943740D01*
X0002659803Y0001233740D02*
X0002659921Y0001233740D01*
X0002829803Y0000863740D02*
X0002829803Y0000923740D01*
X0002829803Y0000923740D02*
X0002824803Y0000928740D01*
X0002824803Y0000928740D02*
X0002822303Y0000928740D01*
X0002624803Y0000678740D02*
X0002622303Y0000678740D01*
X0002622303Y0000678740D02*
X0002624803Y0000678740D01*
X0002624803Y0000678740D02*
X0002624803Y0000698740D01*
X0002624803Y0000698740D02*
X0002669803Y0000743740D01*
X0002669803Y0000743740D02*
X0002774803Y0000743740D01*
X0002659803Y0001233740D02*
X0002659921Y0001233740D01*
X0002369803Y0000458740D02*
X0002394803Y0000433740D01*
X0002394803Y0000433740D02*
X0002424803Y0000433740D01*
X0002424803Y0000433740D02*
X0002449803Y0000458740D01*
X0002449803Y0000458740D02*
X0002464803Y0000458740D01*
G04 #@! TO.N,THR*
X0002434803Y0000333740D02*
X0002534803Y0000333740D01*
X0002409803Y0000458740D02*
X0002409803Y0000523740D01*
X0002409803Y0000523740D02*
X0002409153Y0000523740D01*
G04 #@! TO.N,Net-(U1-Pad3)*
X0002434803Y0000293740D02*
X0002309803Y0000418740D01*
X0002539803Y0000623740D02*
X0002539803Y0000628740D01*
X0002539803Y0000628740D02*
X0002549803Y0000638740D01*
X0002549803Y0000638740D02*
X0002549803Y0000653740D01*
X0002549803Y0000653740D02*
X0002574803Y0000678740D01*
X0002574803Y0000678740D02*
X0002572303Y0000678740D01*
X0002574803Y0000678740D02*
X0002574803Y0000693740D01*
G04 #@! TO.N,RST*
X0002522303Y0000678740D02*
X0002524803Y0000678740D01*
X0002524803Y0000678740D02*
X0002524803Y0000653740D01*
X0002524803Y0000653740D02*
X0002499803Y0000628740D01*
G04 #@! TO.N,Net-(C1-Pad1)*
X0002534803Y0000288740D02*
X0002534803Y0000293740D01*
X0002534803Y0000293740D02*
X0002559803Y0000318740D01*
X0002559803Y0000318740D02*
X0002559803Y0000378740D01*
X0002559803Y0000378740D02*
X0002639803Y0000458740D01*
G04 #@! TO.N,Net-(U2-Pad10)*
X0002772303Y0000678740D02*
X0002774803Y0000678740D01*
X0002774803Y0000678740D02*
X0002774803Y0000663740D01*
X0002774803Y0000663740D02*
X0002739803Y0000628740D01*
X0002739803Y0000628740D02*
X0002704803Y0000628740D01*
G04 #@! TO.N,Net-(U2-Pad7)*
X0002724803Y0000863740D02*
X0002749803Y0000888740D01*
X0002749803Y0000888740D02*
X0002749803Y0000903740D01*
X0002749803Y0000903740D02*
X0002774803Y0000928740D01*
X0002774803Y0000928740D02*
X0002772303Y0000928740D01*
X0002774803Y0000928740D02*
X0002774803Y0000943740D01*
X0002779803Y0000923740D02*
X0002774803Y0000928740D01*
G04 #@! TO.N,Net-(U2-Pad4)*
X0002622303Y0000928740D02*
X0002624803Y0000928740D01*
X0002624803Y0000928740D02*
X0002624803Y0000913740D01*
X0002624803Y0000913740D02*
X0002574803Y0000863740D01*
G04 #@! TO.N,Net-(U2-Pad3)*
X0002572303Y0000928740D02*
X0002574803Y0000928740D01*
X0002574803Y0000928740D02*
X0002574803Y0000903740D01*
X0002574803Y0000903740D02*
X0002549803Y0000878740D01*
X0002549803Y0000878740D02*
X0002549803Y0000848740D01*
X0002549803Y0000848740D02*
X0002494803Y0000793740D01*
X0002574803Y0000928740D02*
X0002574803Y0000908740D01*
G04 #@! TO.N,Net-(U2-Pad2)*
X0002522303Y0000928740D02*
X0002524803Y0000928740D01*
X0002524803Y0000928740D02*
X0002524803Y0000863740D01*
G04 #@! TO.N,RIGHT*
X0002414803Y0000981240D02*
X0002459803Y0001026240D01*
X0002459803Y0001026240D02*
X0002649803Y0001026240D01*
X0002649803Y0001026240D02*
X0002689803Y0001066240D01*
X0002414803Y0000978740D02*
X0002414803Y0000981240D01*
G04 #@! TO.N,BT3*
X0002464803Y0000163740D02*
X0002464803Y0000218110D01*
G04 #@! TO.N,BT1*
X0002424842Y0001128779D02*
X0002397303Y0001101240D01*
X0002397303Y0001101240D02*
X0002307303Y0001101240D01*
X0002307303Y0001101240D02*
X0002287303Y0001081240D01*
X0002287303Y0001081240D02*
X0002287303Y0001048740D01*
X0002287303Y0001048740D02*
X0002299803Y0001036240D01*
X0002299803Y0001036240D02*
X0002429803Y0001036240D01*
X0002429803Y0001036240D02*
X0002439803Y0001046240D01*
X0002439803Y0001046240D02*
X0002617303Y0001046240D01*
X0002617303Y0001046240D02*
X0002624803Y0001053740D01*
X0002424842Y0001236240D02*
X0002424842Y0001128779D01*
X0002439842Y0001233740D02*
X0002439803Y0001233740D01*
X0002439803Y0001233740D02*
X0002439842Y0001233740D01*
G04 #@! TO.N,BT2*
X0002754763Y0001236240D02*
X0002754763Y0001133779D01*
X0002869803Y0000323110D02*
X0002764803Y0000218110D01*
X0002869803Y0001018740D02*
X0002869803Y0000323110D01*
X0002754763Y0001133779D02*
X0002869803Y0001018740D01*
X0002769803Y0001233740D02*
X0002769763Y0001233740D01*
G04 #@! TO.N,Net-(R1-Pad1)*
X0002672303Y0000928740D02*
X0002674803Y0000928740D01*
X0002674803Y0000928740D02*
X0002674803Y0000913740D01*
X0002674803Y0000913740D02*
X0002504803Y0000743740D01*
X0002504803Y0000743740D02*
X0002474803Y0000743740D01*
X0002454803Y0000628740D02*
X0002519803Y0000563740D01*
X0002519803Y0000563740D02*
X0002654803Y0000563740D01*
X0002654803Y0000563740D02*
X0002699803Y0000518740D01*
X0002699803Y0000518740D02*
X0002714803Y0000518740D01*
X0002714803Y0000518740D02*
X0002715452Y0000521240D01*
X0002715452Y0000521240D02*
X0002714803Y0000518740D01*
G04 #@! TO.N,Net-(R3-Pad1)*
X0002515452Y0000523740D02*
X0002514803Y0000523740D01*
X0002514803Y0000523740D02*
X0002514803Y0000488740D01*
X0002514803Y0000488740D02*
X0002544803Y0000458740D01*
X0002659803Y0000348740D02*
X0002749803Y0000348740D01*
G04 #@! TO.N,Net-(JP1-Pad1)*
X0002354803Y0000756240D02*
X0002354803Y0000701240D01*
X0002354803Y0000701240D02*
X0002279803Y0000626240D01*
X0002279803Y0000626240D02*
X0002279803Y0000176240D01*
X0002279803Y0000176240D02*
X0002407303Y0000048740D01*
X0002869803Y0000158740D02*
X0002827303Y0000201240D01*
X0002869803Y0000076240D02*
X0002869803Y0000158740D01*
X0002842303Y0000048740D02*
X0002869803Y0000076240D01*
X0002407303Y0000048740D02*
X0002842303Y0000048740D01*
G04 #@! TO.N,Net-(JP1-Pad2)*
X0002354803Y0000806240D02*
X0002354803Y0000803740D01*
X0002354803Y0000803740D02*
X0002374803Y0000823740D01*
X0002374803Y0000823740D02*
X0002389803Y0000823740D01*
X0002389803Y0000823740D02*
X0002389803Y0000843740D01*
X0002389803Y0000843740D02*
X0002474803Y0000928740D01*
X0002474803Y0000928740D02*
X0002472303Y0000928740D01*
G04 #@! TO.N,Net-(Q2-Pad1)*
X0002714803Y0000198740D02*
X0002734803Y0000178740D01*
X0002762834Y0000178740D02*
X0002802204Y0000139370D01*
X0002734803Y0000178740D02*
X0002762834Y0000178740D01*
G04 #@! TO.N,Net-(Q1-Pad1)*
X0002502204Y0000176141D02*
X0002604803Y0000278740D01*
X0002502204Y0000139370D02*
X0002502204Y0000176141D01*
X0002674803Y0000468740D02*
X0002622303Y0000521240D01*
X0002674803Y0000433740D02*
X0002674803Y0000468740D01*
X0002604803Y0000363740D02*
X0002674803Y0000433740D01*
X0002604803Y0000278740D02*
X0002604803Y0000363740D01*
X0002622303Y0000521240D02*
X0002609153Y0000521240D01*
X0002609153Y0000521240D02*
X0002609803Y0000518740D01*
G04 #@! TO.N,Net-(D1-Pad2)*
X0002722303Y0000928740D02*
X0002722303Y0000961240D01*
X0002699803Y0000983740D02*
X0002579803Y0000983740D01*
X0002722303Y0000961240D02*
X0002699803Y0000983740D01*
X0002724803Y0000928740D02*
X0002722303Y0000928740D01*
G04 #@! TD*
G04 next file*
G04 #@! TF.GenerationSoftware,KiCad,Pcbnew,(5.0.2)-1*
G04 #@! TF.CreationDate,2019-07-10T16:32:42+02:00*
G04 #@! TF.ProjectId,joystick tester systest,6a6f7973-7469-4636-9b20-746573746572,rev?*
G04 #@! TF.SameCoordinates,Original*
G04 #@! TF.FileFunction,Copper,L2,Bot*
G04 #@! TF.FilePolarity,Positive*
G04 Gerber Fmt 4.6, Leading zero omitted, Abs format (unit mm)*
G04 Created by KiCad (PCBNEW (5.0.2)-1) date 10-7-2019 16:32:42*
G01G01*
G04 APERTURE LIST*
G04 #@! TA.AperFunction,SMDPad,CuDef*
G04 #@! TD*
G04 #@! TA.AperFunction,ConnectorPad*
G04 #@! TD*
G04 #@! TA.AperFunction,SMDPad,CuDef*
G04 #@! TD*
G04 #@! TA.AperFunction,ComponentPad*
G04 #@! TD*
G04 #@! TA.AperFunction,ComponentPad*
G04 #@! TD*
G04 #@! TA.AperFunction,SMDPad,CuDef*
G04 #@! TD*
G04 #@! TA.AperFunction,ViaPad*
G04 #@! TD*
G04 #@! TA.AperFunction,Conductor*
G04 #@! TD*
G04 APERTURE END LIST*
D60*
G04 #@! TO.P,U2,16*
G04 #@! TO.N,VCC*
X-0002677165Y0005078740D02*
X0003220334Y0000678740D03*
G04 #@! TO.P,U2,14*
G04 #@! TO.N,Net-(U1-Pad3)*
X0003320334Y0000678740D03*
G04 #@! TO.P,U2,13*
G04 #@! TO.N,GND*
X0003370334Y0000678740D03*
G04 #@! TO.P,U2,12*
G04 #@! TO.N,Net-(U2-Pad12)*
X0003420334Y0000678740D03*
G04 #@! TO.P,U2,11*
G04 #@! TO.N,Net-(U2-Pad11)*
X0003470334Y0000678740D03*
G04 #@! TO.P,U2,10*
G04 #@! TO.N,Net-(U2-Pad10)*
X0003520334Y0000678740D03*
G04 #@! TO.P,U2,9*
G04 #@! TO.N,Net-(U2-Pad9)*
X0003570334Y0000678740D03*
G04 #@! TO.P,U2,8*
G04 #@! TO.N,GND*
X0003570334Y0000928740D03*
G04 #@! TO.P,U2,7*
G04 #@! TO.N,Net-(U2-Pad7)*
X0003520334Y0000928740D03*
G04 #@! TO.P,U2,6*
G04 #@! TO.N,Net-(D1-Pad2)*
X0003470334Y0000928740D03*
G04 #@! TO.P,U2,5*
G04 #@! TO.N,Net-(R1-Pad1)*
X0003420334Y0000928740D03*
G04 #@! TO.P,U2,4*
G04 #@! TO.N,Net-(U2-Pad4)*
X0003370334Y0000928740D03*
G04 #@! TO.P,U2,3*
G04 #@! TO.N,Net-(U2-Pad3)*
X0003320334Y0000928740D03*
G04 #@! TO.P,U2,2*
G04 #@! TO.N,Net-(U2-Pad2)*
X0003270334Y0000928740D03*
G04 #@! TO.P,U2,1*
G04 #@! TO.N,Net-(JP1-Pad2)*
X0003220334Y0000928740D03*
G04 #@! TO.P,U2,15*
G04 #@! TO.N,RST*
X0003270334Y0000678740D03*
G04 #@! TD*
D61*
G04 #@! TO.P,J1,6*
G04 #@! TO.N,BT1*
X0003172874Y0001236240D03*
G04 #@! TO.P,J1,7*
G04 #@! TO.N,VCC*
X0003282716Y0001236240D03*
G04 #@! TO.P,J1,8*
G04 #@! TO.N,GND*
X0003392952Y0001236240D03*
G04 #@! TO.P,J1,9*
G04 #@! TO.N,BT2*
X0003502795Y0001236240D03*
G04 #@! TD*
D62*
G04 #@! TO.P,R1,1*
G04 #@! TO.N,Net-(R1-Pad1)*
X0003463484Y0000521240D03*
G04 #@! TO.P,R1,2*
G04 #@! TO.N,Net-(Q1-Pad1)*
X0003357185Y0000521240D03*
G04 #@! TD*
G04 #@! TO.P,R3,1*
G04 #@! TO.N,Net-(R3-Pad1)*
X0003263484Y0000523740D03*
G04 #@! TO.P,R3,2*
G04 #@! TO.N,THR*
X0003157185Y0000523740D03*
G04 #@! TD*
D63*
G04 #@! TO.P,JP1,1*
G04 #@! TO.N,Net-(JP1-Pad1)*
X0003102834Y0000756240D03*
D64*
G04 #@! TO.P,JP1,2*
G04 #@! TO.N,Net-(JP1-Pad2)*
X0003102834Y0000806240D03*
G04 #@! TO.P,JP1,3*
G04 #@! TO.N,RST*
X0003102834Y0000856240D03*
G04 #@! TD*
D65*
G04 #@! TO.P,Q2,1*
G04 #@! TO.N,Net-(Q2-Pad1)*
X0003550236Y0000139370D03*
G04 #@! TO.P,Q2,2*
G04 #@! TO.N,GND*
X0003475433Y0000139370D03*
G04 #@! TO.P,Q2,3*
G04 #@! TO.N,BT2*
X0003512834Y0000218110D03*
G04 #@! TD*
G04 #@! TO.P,Q1,1*
G04 #@! TO.N,Net-(Q1-Pad1)*
X0003250236Y0000139370D03*
G04 #@! TO.P,Q1,2*
G04 #@! TO.N,GND*
X0003175433Y0000139370D03*
G04 #@! TO.P,Q1,3*
G04 #@! TO.N,BT3*
X0003212834Y0000218110D03*
G04 #@! TD*
D66*
G04 #@! TO.N,VCC*
X0003102834Y0000653740D03*
X0003067834Y0001066240D03*
X0003457834Y0000456240D03*
X0003207834Y0000863740D03*
X0003432834Y0000313740D03*
X0003307834Y0000188740D03*
G04 #@! TO.N,GND*
X0003072834Y0000358740D03*
X0003537834Y0000978740D03*
X0003487834Y0001098740D03*
X0003370334Y0000631240D03*
X0003577834Y0000863740D03*
X0003522834Y0000743740D03*
X0003117834Y0000458740D03*
X0003212834Y0000458740D03*
G04 #@! TO.N,THR*
X0003182834Y0000333740D03*
X0003282834Y0000333740D03*
X0003157834Y0000458740D03*
G04 #@! TO.N,Net-(U1-Pad3)*
X0003182834Y0000293740D03*
X0003057834Y0000418740D03*
X0003287834Y0000623740D03*
G04 #@! TO.N,RST*
X0003247834Y0000628740D03*
G04 #@! TO.N,Net-(C1-Pad1)*
X0003282834Y0000288740D03*
X0003387834Y0000458740D03*
G04 #@! TO.N,Net-(U2-Pad10)*
X0003452834Y0000628740D03*
G04 #@! TO.N,Net-(U2-Pad7)*
X0003472834Y0000863740D03*
G04 #@! TO.N,Net-(U2-Pad4)*
X0003322834Y0000863740D03*
G04 #@! TO.N,Net-(U2-Pad3)*
X0003242834Y0000793740D03*
G04 #@! TO.N,Net-(U2-Pad2)*
X0003272834Y0000863740D03*
G04 #@! TO.N,RIGHT*
X0003437834Y0001066240D03*
X0003162834Y0000978740D03*
G04 #@! TO.N,BT3*
X0003212834Y0000163740D03*
G04 #@! TO.N,BT1*
X0003372834Y0001053740D03*
G04 #@! TO.N,Net-(R1-Pad1)*
X0003222834Y0000743740D03*
X0003202834Y0000628740D03*
G04 #@! TO.N,Net-(R3-Pad1)*
X0003497834Y0000348740D03*
X0003292834Y0000458740D03*
X0003407834Y0000348740D03*
G04 #@! TO.N,Net-(JP1-Pad1)*
X0003575334Y0000201240D03*
G04 #@! TO.N,Net-(Q2-Pad1)*
X0003462834Y0000198740D03*
G04 #@! TO.N,Net-(D1-Pad2)*
X0003327834Y0000983740D03*
G04 #@! TD*
D67*
G04 #@! TO.N,*
X0003172834Y0000678740D02*
X0003172834Y0000676240D01*
G04 #@! TO.N,Net-(U2-Pad11)*
X0003472834Y0000678740D02*
X0003472834Y0000663740D01*
G04 #@! TO.N,VCC*
X0003067834Y0001066240D02*
X0003255334Y0001066240D01*
X0003220334Y0000678740D02*
X0003202834Y0000678740D01*
X0003192834Y0000668740D02*
X0003202834Y0000678740D01*
X0003117834Y0000668740D02*
X0003192834Y0000668740D01*
X0003102834Y0000653740D02*
X0003117834Y0000668740D01*
X0003282716Y0001093622D02*
X0003282716Y0001236240D01*
X0003255334Y0001066240D02*
X0003282716Y0001093622D01*
X0003282716Y0001236240D02*
X0003282834Y0001233740D01*
X0003220334Y0000678740D02*
X0003220334Y0000686240D01*
X0003220334Y0000686240D02*
X0003262834Y0000728740D01*
X0003500334Y0000456240D02*
X0003457834Y0000456240D01*
X0003525334Y0000481240D02*
X0003500334Y0000456240D01*
X0003525334Y0000558740D02*
X0003525334Y0000481240D01*
X0003495334Y0000588740D02*
X0003525334Y0000558740D01*
X0003370334Y0000588740D02*
X0003495334Y0000588740D01*
X0003345334Y0000613740D02*
X0003370334Y0000588740D01*
X0003345334Y0000723740D02*
X0003345334Y0000613740D01*
X0003340334Y0000728740D02*
X0003345334Y0000723740D01*
X0003262834Y0000728740D02*
X0003340334Y0000728740D01*
X0003207834Y0000863740D02*
X0003207834Y0000768740D01*
X0003207834Y0000768740D02*
X0003197834Y0000758740D01*
X0003197834Y0000758740D02*
X0003197834Y0000703740D01*
X0003222834Y0000678740D02*
X0003197834Y0000703740D01*
X0003297716Y0001233740D02*
X0003297834Y0001233740D01*
X0003297834Y0001233740D02*
X0003297834Y0001178740D01*
X0003222834Y0000678740D02*
X0003220334Y0000678740D01*
X0003297716Y0001233740D02*
X0003297834Y0001233740D01*
X0003222834Y0000678740D02*
X0003222834Y0000693740D01*
X0003432834Y0000313740D02*
X0003307834Y0000188740D01*
G04 #@! TO.N,GND*
X0003175433Y0000139370D02*
X0003142204Y0000139370D01*
X0003072834Y0000208740D02*
X0003072834Y0000358740D01*
X0003142204Y0000139370D02*
X0003072834Y0000208740D01*
X0003175433Y0000139370D02*
X0003175433Y0000116141D01*
X0003175433Y0000116141D02*
X0003212834Y0000078740D01*
X0003212834Y0000078740D02*
X0003432834Y0000078740D01*
X0003432834Y0000078740D02*
X0003475433Y0000121338D01*
X0003475433Y0000121338D02*
X0003475433Y0000139370D01*
X0003487834Y0001098740D02*
X0003422834Y0001098740D01*
X0003572834Y0000943740D02*
X0003537834Y0000978740D01*
X0003392952Y0001128622D02*
X0003392952Y0001236240D01*
X0003422834Y0001098740D02*
X0003392952Y0001128622D01*
X0003370334Y0000631240D02*
X0003370334Y0000678740D01*
X0003570334Y0000928740D02*
X0003572834Y0000928740D01*
X0003572834Y0000928740D02*
X0003572834Y0000943740D01*
X0003407834Y0001233740D02*
X0003407952Y0001233740D01*
X0003577834Y0000863740D02*
X0003577834Y0000923740D01*
X0003577834Y0000923740D02*
X0003572834Y0000928740D01*
X0003572834Y0000928740D02*
X0003570334Y0000928740D01*
X0003372834Y0000678740D02*
X0003370334Y0000678740D01*
X0003370334Y0000678740D02*
X0003372834Y0000678740D01*
X0003372834Y0000678740D02*
X0003372834Y0000698740D01*
X0003372834Y0000698740D02*
X0003417834Y0000743740D01*
X0003417834Y0000743740D02*
X0003522834Y0000743740D01*
X0003407834Y0001233740D02*
X0003407952Y0001233740D01*
X0003117834Y0000458740D02*
X0003142834Y0000433740D01*
X0003142834Y0000433740D02*
X0003172834Y0000433740D01*
X0003172834Y0000433740D02*
X0003197834Y0000458740D01*
X0003197834Y0000458740D02*
X0003212834Y0000458740D01*
G04 #@! TO.N,THR*
X0003182834Y0000333740D02*
X0003282834Y0000333740D01*
X0003157834Y0000458740D02*
X0003157834Y0000523740D01*
X0003157834Y0000523740D02*
X0003157185Y0000523740D01*
G04 #@! TO.N,Net-(U1-Pad3)*
X0003182834Y0000293740D02*
X0003057834Y0000418740D01*
X0003287834Y0000623740D02*
X0003287834Y0000628740D01*
X0003287834Y0000628740D02*
X0003297834Y0000638740D01*
X0003297834Y0000638740D02*
X0003297834Y0000653740D01*
X0003297834Y0000653740D02*
X0003322834Y0000678740D01*
X0003322834Y0000678740D02*
X0003320334Y0000678740D01*
X0003322834Y0000678740D02*
X0003322834Y0000693740D01*
G04 #@! TO.N,RST*
X0003270334Y0000678740D02*
X0003272834Y0000678740D01*
X0003272834Y0000678740D02*
X0003272834Y0000653740D01*
X0003272834Y0000653740D02*
X0003247834Y0000628740D01*
G04 #@! TO.N,Net-(C1-Pad1)*
X0003282834Y0000288740D02*
X0003282834Y0000293740D01*
X0003282834Y0000293740D02*
X0003307834Y0000318740D01*
X0003307834Y0000318740D02*
X0003307834Y0000378740D01*
X0003307834Y0000378740D02*
X0003387834Y0000458740D01*
G04 #@! TO.N,Net-(U2-Pad10)*
X0003520334Y0000678740D02*
X0003522834Y0000678740D01*
X0003522834Y0000678740D02*
X0003522834Y0000663740D01*
X0003522834Y0000663740D02*
X0003487834Y0000628740D01*
X0003487834Y0000628740D02*
X0003452834Y0000628740D01*
G04 #@! TO.N,Net-(U2-Pad7)*
X0003472834Y0000863740D02*
X0003497834Y0000888740D01*
X0003497834Y0000888740D02*
X0003497834Y0000903740D01*
X0003497834Y0000903740D02*
X0003522834Y0000928740D01*
X0003522834Y0000928740D02*
X0003520334Y0000928740D01*
X0003522834Y0000928740D02*
X0003522834Y0000943740D01*
X0003527834Y0000923740D02*
X0003522834Y0000928740D01*
G04 #@! TO.N,Net-(U2-Pad4)*
X0003370334Y0000928740D02*
X0003372834Y0000928740D01*
X0003372834Y0000928740D02*
X0003372834Y0000913740D01*
X0003372834Y0000913740D02*
X0003322834Y0000863740D01*
G04 #@! TO.N,Net-(U2-Pad3)*
X0003320334Y0000928740D02*
X0003322834Y0000928740D01*
X0003322834Y0000928740D02*
X0003322834Y0000903740D01*
X0003322834Y0000903740D02*
X0003297834Y0000878740D01*
X0003297834Y0000878740D02*
X0003297834Y0000848740D01*
X0003297834Y0000848740D02*
X0003242834Y0000793740D01*
X0003322834Y0000928740D02*
X0003322834Y0000908740D01*
G04 #@! TO.N,Net-(U2-Pad2)*
X0003270334Y0000928740D02*
X0003272834Y0000928740D01*
X0003272834Y0000928740D02*
X0003272834Y0000863740D01*
G04 #@! TO.N,RIGHT*
X0003162834Y0000981240D02*
X0003207834Y0001026240D01*
X0003207834Y0001026240D02*
X0003397834Y0001026240D01*
X0003397834Y0001026240D02*
X0003437834Y0001066240D01*
X0003162834Y0000978740D02*
X0003162834Y0000981240D01*
G04 #@! TO.N,BT3*
X0003212834Y0000163740D02*
X0003212834Y0000218110D01*
G04 #@! TO.N,BT1*
X0003172874Y0001128779D02*
X0003145334Y0001101240D01*
X0003145334Y0001101240D02*
X0003055334Y0001101240D01*
X0003055334Y0001101240D02*
X0003035334Y0001081240D01*
X0003035334Y0001081240D02*
X0003035334Y0001048740D01*
X0003035334Y0001048740D02*
X0003047834Y0001036240D01*
X0003047834Y0001036240D02*
X0003177834Y0001036240D01*
X0003177834Y0001036240D02*
X0003187834Y0001046240D01*
X0003187834Y0001046240D02*
X0003365334Y0001046240D01*
X0003365334Y0001046240D02*
X0003372834Y0001053740D01*
X0003172874Y0001236240D02*
X0003172874Y0001128779D01*
X0003187874Y0001233740D02*
X0003187834Y0001233740D01*
X0003187834Y0001233740D02*
X0003187874Y0001233740D01*
G04 #@! TO.N,BT2*
X0003502795Y0001236240D02*
X0003502795Y0001133779D01*
X0003617834Y0000323110D02*
X0003512834Y0000218110D01*
X0003617834Y0001018740D02*
X0003617834Y0000323110D01*
X0003502795Y0001133779D02*
X0003617834Y0001018740D01*
X0003517834Y0001233740D02*
X0003517795Y0001233740D01*
G04 #@! TO.N,Net-(R1-Pad1)*
X0003420334Y0000928740D02*
X0003422834Y0000928740D01*
X0003422834Y0000928740D02*
X0003422834Y0000913740D01*
X0003422834Y0000913740D02*
X0003252834Y0000743740D01*
X0003252834Y0000743740D02*
X0003222834Y0000743740D01*
X0003202834Y0000628740D02*
X0003267834Y0000563740D01*
X0003267834Y0000563740D02*
X0003402834Y0000563740D01*
X0003402834Y0000563740D02*
X0003447834Y0000518740D01*
X0003447834Y0000518740D02*
X0003462834Y0000518740D01*
X0003462834Y0000518740D02*
X0003463484Y0000521240D01*
X0003463484Y0000521240D02*
X0003462834Y0000518740D01*
G04 #@! TO.N,Net-(R3-Pad1)*
X0003263484Y0000523740D02*
X0003262834Y0000523740D01*
X0003262834Y0000523740D02*
X0003262834Y0000488740D01*
X0003262834Y0000488740D02*
X0003292834Y0000458740D01*
X0003407834Y0000348740D02*
X0003497834Y0000348740D01*
G04 #@! TO.N,Net-(JP1-Pad1)*
X0003102834Y0000756240D02*
X0003102834Y0000701240D01*
X0003102834Y0000701240D02*
X0003027834Y0000626240D01*
X0003027834Y0000626240D02*
X0003027834Y0000176240D01*
X0003027834Y0000176240D02*
X0003155334Y0000048740D01*
X0003617834Y0000158740D02*
X0003575334Y0000201240D01*
X0003617834Y0000076240D02*
X0003617834Y0000158740D01*
X0003590334Y0000048740D02*
X0003617834Y0000076240D01*
X0003155334Y0000048740D02*
X0003590334Y0000048740D01*
G04 #@! TO.N,Net-(JP1-Pad2)*
X0003102834Y0000806240D02*
X0003102834Y0000803740D01*
X0003102834Y0000803740D02*
X0003122834Y0000823740D01*
X0003122834Y0000823740D02*
X0003137834Y0000823740D01*
X0003137834Y0000823740D02*
X0003137834Y0000843740D01*
X0003137834Y0000843740D02*
X0003222834Y0000928740D01*
X0003222834Y0000928740D02*
X0003220334Y0000928740D01*
G04 #@! TO.N,Net-(Q2-Pad1)*
X0003462834Y0000198740D02*
X0003482834Y0000178740D01*
X0003510866Y0000178740D02*
X0003550236Y0000139370D01*
X0003482834Y0000178740D02*
X0003510866Y0000178740D01*
G04 #@! TO.N,Net-(Q1-Pad1)*
X0003250236Y0000176141D02*
X0003352834Y0000278740D01*
X0003250236Y0000139370D02*
X0003250236Y0000176141D01*
X0003422834Y0000468740D02*
X0003370334Y0000521240D01*
X0003422834Y0000433740D02*
X0003422834Y0000468740D01*
X0003352834Y0000363740D02*
X0003422834Y0000433740D01*
X0003352834Y0000278740D02*
X0003352834Y0000363740D01*
X0003370334Y0000521240D02*
X0003357185Y0000521240D01*
X0003357185Y0000521240D02*
X0003357834Y0000518740D01*
G04 #@! TO.N,Net-(D1-Pad2)*
X0003470334Y0000928740D02*
X0003470334Y0000961240D01*
X0003447834Y0000983740D02*
X0003327834Y0000983740D01*
X0003470334Y0000961240D02*
X0003447834Y0000983740D01*
X0003472834Y0000928740D02*
X0003470334Y0000928740D01*
G04 #@! TD*
G04 next file*
G04 #@! TF.GenerationSoftware,KiCad,Pcbnew,(5.0.2)-1*
G04 #@! TF.CreationDate,2019-07-10T16:32:42+02:00*
G04 #@! TF.ProjectId,joystick tester systest,6a6f7973-7469-4636-9b20-746573746572,rev?*
G04 #@! TF.SameCoordinates,Original*
G04 #@! TF.FileFunction,Copper,L2,Bot*
G04 #@! TF.FilePolarity,Positive*
G04 Gerber Fmt 4.6, Leading zero omitted, Abs format (unit mm)*
G04 Created by KiCad (PCBNEW (5.0.2)-1) date 10-7-2019 16:32:42*
G01G01*
G04 APERTURE LIST*
G04 #@! TA.AperFunction,SMDPad,CuDef*
G04 #@! TD*
G04 #@! TA.AperFunction,ConnectorPad*
G04 #@! TD*
G04 #@! TA.AperFunction,SMDPad,CuDef*
G04 #@! TD*
G04 #@! TA.AperFunction,ComponentPad*
G04 #@! TD*
G04 #@! TA.AperFunction,ComponentPad*
G04 #@! TD*
G04 #@! TA.AperFunction,SMDPad,CuDef*
G04 #@! TD*
G04 #@! TA.AperFunction,ViaPad*
G04 #@! TD*
G04 #@! TA.AperFunction,Conductor*
G04 #@! TD*
G04 APERTURE END LIST*
D68*
G04 #@! TO.P,U2,16*
G04 #@! TO.N,VCC*
X-0004921259Y0006535433D02*
X0000976240Y0002135433D03*
G04 #@! TO.P,U2,14*
G04 #@! TO.N,Net-(U1-Pad3)*
X0001076240Y0002135433D03*
G04 #@! TO.P,U2,13*
G04 #@! TO.N,GND*
X0001126240Y0002135433D03*
G04 #@! TO.P,U2,12*
G04 #@! TO.N,Net-(U2-Pad12)*
X0001176240Y0002135433D03*
G04 #@! TO.P,U2,11*
G04 #@! TO.N,Net-(U2-Pad11)*
X0001226240Y0002135433D03*
G04 #@! TO.P,U2,10*
G04 #@! TO.N,Net-(U2-Pad10)*
X0001276240Y0002135433D03*
G04 #@! TO.P,U2,9*
G04 #@! TO.N,Net-(U2-Pad9)*
X0001326240Y0002135433D03*
G04 #@! TO.P,U2,8*
G04 #@! TO.N,GND*
X0001326240Y0002385433D03*
G04 #@! TO.P,U2,7*
G04 #@! TO.N,Net-(U2-Pad7)*
X0001276240Y0002385433D03*
G04 #@! TO.P,U2,6*
G04 #@! TO.N,Net-(D1-Pad2)*
X0001226240Y0002385433D03*
G04 #@! TO.P,U2,5*
G04 #@! TO.N,Net-(R1-Pad1)*
X0001176240Y0002385433D03*
G04 #@! TO.P,U2,4*
G04 #@! TO.N,Net-(U2-Pad4)*
X0001126240Y0002385433D03*
G04 #@! TO.P,U2,3*
G04 #@! TO.N,Net-(U2-Pad3)*
X0001076240Y0002385433D03*
G04 #@! TO.P,U2,2*
G04 #@! TO.N,Net-(U2-Pad2)*
X0001026240Y0002385433D03*
G04 #@! TO.P,U2,1*
G04 #@! TO.N,Net-(JP1-Pad2)*
X0000976240Y0002385433D03*
G04 #@! TO.P,U2,15*
G04 #@! TO.N,RST*
X0001026240Y0002135433D03*
G04 #@! TD*
D69*
G04 #@! TO.P,J1,6*
G04 #@! TO.N,BT1*
X0000928779Y0002692933D03*
G04 #@! TO.P,J1,7*
G04 #@! TO.N,VCC*
X0001038622Y0002692933D03*
G04 #@! TO.P,J1,8*
G04 #@! TO.N,GND*
X0001148858Y0002692933D03*
G04 #@! TO.P,J1,9*
G04 #@! TO.N,BT2*
X0001258700Y0002692933D03*
G04 #@! TD*
D70*
G04 #@! TO.P,R1,1*
G04 #@! TO.N,Net-(R1-Pad1)*
X0001219389Y0001977933D03*
G04 #@! TO.P,R1,2*
G04 #@! TO.N,Net-(Q1-Pad1)*
X0001113090Y0001977933D03*
G04 #@! TD*
G04 #@! TO.P,R3,1*
G04 #@! TO.N,Net-(R3-Pad1)*
X0001019389Y0001980433D03*
G04 #@! TO.P,R3,2*
G04 #@! TO.N,THR*
X0000913090Y0001980433D03*
G04 #@! TD*
D71*
G04 #@! TO.P,JP1,1*
G04 #@! TO.N,Net-(JP1-Pad1)*
X0000858740Y0002212933D03*
D72*
G04 #@! TO.P,JP1,2*
G04 #@! TO.N,Net-(JP1-Pad2)*
X0000858740Y0002262933D03*
G04 #@! TO.P,JP1,3*
G04 #@! TO.N,RST*
X0000858740Y0002312933D03*
G04 #@! TD*
D73*
G04 #@! TO.P,Q2,1*
G04 #@! TO.N,Net-(Q2-Pad1)*
X0001306141Y0001596062D03*
G04 #@! TO.P,Q2,2*
G04 #@! TO.N,GND*
X0001231338Y0001596062D03*
G04 #@! TO.P,Q2,3*
G04 #@! TO.N,BT2*
X0001268740Y0001674803D03*
G04 #@! TD*
G04 #@! TO.P,Q1,1*
G04 #@! TO.N,Net-(Q1-Pad1)*
X0001006141Y0001596062D03*
G04 #@! TO.P,Q1,2*
G04 #@! TO.N,GND*
X0000931338Y0001596062D03*
G04 #@! TO.P,Q1,3*
G04 #@! TO.N,BT3*
X0000968740Y0001674803D03*
G04 #@! TD*
D74*
G04 #@! TO.N,VCC*
X0000858740Y0002110433D03*
X0000823740Y0002522933D03*
X0001213740Y0001912933D03*
X0000963740Y0002320433D03*
X0001188740Y0001770433D03*
X0001063740Y0001645433D03*
G04 #@! TO.N,GND*
X0000828740Y0001815433D03*
X0001293740Y0002435433D03*
X0001243740Y0002555433D03*
X0001126240Y0002087933D03*
X0001333740Y0002320433D03*
X0001278740Y0002200433D03*
X0000873740Y0001915433D03*
X0000968740Y0001915433D03*
G04 #@! TO.N,THR*
X0000938740Y0001790433D03*
X0001038740Y0001790433D03*
X0000913740Y0001915433D03*
G04 #@! TO.N,Net-(U1-Pad3)*
X0000938740Y0001750433D03*
X0000813740Y0001875433D03*
X0001043740Y0002080433D03*
G04 #@! TO.N,RST*
X0001003740Y0002085433D03*
G04 #@! TO.N,Net-(C1-Pad1)*
X0001038740Y0001745433D03*
X0001143740Y0001915433D03*
G04 #@! TO.N,Net-(U2-Pad10)*
X0001208740Y0002085433D03*
G04 #@! TO.N,Net-(U2-Pad7)*
X0001228740Y0002320433D03*
G04 #@! TO.N,Net-(U2-Pad4)*
X0001078740Y0002320433D03*
G04 #@! TO.N,Net-(U2-Pad3)*
X0000998740Y0002250433D03*
G04 #@! TO.N,Net-(U2-Pad2)*
X0001028740Y0002320433D03*
G04 #@! TO.N,RIGHT*
X0001193740Y0002522933D03*
X0000918740Y0002435433D03*
G04 #@! TO.N,BT3*
X0000968740Y0001620433D03*
G04 #@! TO.N,BT1*
X0001128740Y0002510433D03*
G04 #@! TO.N,Net-(R1-Pad1)*
X0000978740Y0002200433D03*
X0000958740Y0002085433D03*
G04 #@! TO.N,Net-(R3-Pad1)*
X0001253740Y0001805433D03*
X0001048740Y0001915433D03*
X0001163740Y0001805433D03*
G04 #@! TO.N,Net-(JP1-Pad1)*
X0001331240Y0001657933D03*
G04 #@! TO.N,Net-(Q2-Pad1)*
X0001218740Y0001655433D03*
G04 #@! TO.N,Net-(D1-Pad2)*
X0001083740Y0002440433D03*
G04 #@! TD*
D75*
G04 #@! TO.N,*
X0000928740Y0002135433D02*
X0000928740Y0002132933D01*
G04 #@! TO.N,Net-(U2-Pad11)*
X0001228740Y0002135433D02*
X0001228740Y0002120433D01*
G04 #@! TO.N,VCC*
X0000823740Y0002522933D02*
X0001011240Y0002522933D01*
X0000976240Y0002135433D02*
X0000958740Y0002135433D01*
X0000948740Y0002125433D02*
X0000958740Y0002135433D01*
X0000873740Y0002125433D02*
X0000948740Y0002125433D01*
X0000858740Y0002110433D02*
X0000873740Y0002125433D01*
X0001038622Y0002550314D02*
X0001038622Y0002692933D01*
X0001011240Y0002522933D02*
X0001038622Y0002550314D01*
X0001038622Y0002692933D02*
X0001038740Y0002690433D01*
X0000976240Y0002135433D02*
X0000976240Y0002142933D01*
X0000976240Y0002142933D02*
X0001018740Y0002185433D01*
X0001256240Y0001912933D02*
X0001213740Y0001912933D01*
X0001281240Y0001937933D02*
X0001256240Y0001912933D01*
X0001281240Y0002015433D02*
X0001281240Y0001937933D01*
X0001251240Y0002045433D02*
X0001281240Y0002015433D01*
X0001126240Y0002045433D02*
X0001251240Y0002045433D01*
X0001101240Y0002070433D02*
X0001126240Y0002045433D01*
X0001101240Y0002180433D02*
X0001101240Y0002070433D01*
X0001096240Y0002185433D02*
X0001101240Y0002180433D01*
X0001018740Y0002185433D02*
X0001096240Y0002185433D01*
X0000963740Y0002320433D02*
X0000963740Y0002225433D01*
X0000963740Y0002225433D02*
X0000953740Y0002215433D01*
X0000953740Y0002215433D02*
X0000953740Y0002160433D01*
X0000978740Y0002135433D02*
X0000953740Y0002160433D01*
X0001053622Y0002690433D02*
X0001053740Y0002690433D01*
X0001053740Y0002690433D02*
X0001053740Y0002635433D01*
X0000978740Y0002135433D02*
X0000976240Y0002135433D01*
X0001053622Y0002690433D02*
X0001053740Y0002690433D01*
X0000978740Y0002135433D02*
X0000978740Y0002150433D01*
X0001188740Y0001770433D02*
X0001063740Y0001645433D01*
G04 #@! TO.N,GND*
X0000931338Y0001596062D02*
X0000898110Y0001596062D01*
X0000828740Y0001665433D02*
X0000828740Y0001815433D01*
X0000898110Y0001596062D02*
X0000828740Y0001665433D01*
X0000931338Y0001596062D02*
X0000931338Y0001572834D01*
X0000931338Y0001572834D02*
X0000968740Y0001535433D01*
X0000968740Y0001535433D02*
X0001188740Y0001535433D01*
X0001188740Y0001535433D02*
X0001231338Y0001578031D01*
X0001231338Y0001578031D02*
X0001231338Y0001596062D01*
X0001243740Y0002555433D02*
X0001178740Y0002555433D01*
X0001328740Y0002400433D02*
X0001293740Y0002435433D01*
X0001148858Y0002585314D02*
X0001148858Y0002692933D01*
X0001178740Y0002555433D02*
X0001148858Y0002585314D01*
X0001126240Y0002087933D02*
X0001126240Y0002135433D01*
X0001326240Y0002385433D02*
X0001328740Y0002385433D01*
X0001328740Y0002385433D02*
X0001328740Y0002400433D01*
X0001163740Y0002690433D02*
X0001163858Y0002690433D01*
X0001333740Y0002320433D02*
X0001333740Y0002380433D01*
X0001333740Y0002380433D02*
X0001328740Y0002385433D01*
X0001328740Y0002385433D02*
X0001326240Y0002385433D01*
X0001128740Y0002135433D02*
X0001126240Y0002135433D01*
X0001126240Y0002135433D02*
X0001128740Y0002135433D01*
X0001128740Y0002135433D02*
X0001128740Y0002155433D01*
X0001128740Y0002155433D02*
X0001173740Y0002200433D01*
X0001173740Y0002200433D02*
X0001278740Y0002200433D01*
X0001163740Y0002690433D02*
X0001163858Y0002690433D01*
X0000873740Y0001915433D02*
X0000898740Y0001890433D01*
X0000898740Y0001890433D02*
X0000928740Y0001890433D01*
X0000928740Y0001890433D02*
X0000953740Y0001915433D01*
X0000953740Y0001915433D02*
X0000968740Y0001915433D01*
G04 #@! TO.N,THR*
X0000938740Y0001790433D02*
X0001038740Y0001790433D01*
X0000913740Y0001915433D02*
X0000913740Y0001980433D01*
X0000913740Y0001980433D02*
X0000913090Y0001980433D01*
G04 #@! TO.N,Net-(U1-Pad3)*
X0000938740Y0001750433D02*
X0000813740Y0001875433D01*
X0001043740Y0002080433D02*
X0001043740Y0002085433D01*
X0001043740Y0002085433D02*
X0001053740Y0002095433D01*
X0001053740Y0002095433D02*
X0001053740Y0002110433D01*
X0001053740Y0002110433D02*
X0001078740Y0002135433D01*
X0001078740Y0002135433D02*
X0001076240Y0002135433D01*
X0001078740Y0002135433D02*
X0001078740Y0002150433D01*
G04 #@! TO.N,RST*
X0001026240Y0002135433D02*
X0001028740Y0002135433D01*
X0001028740Y0002135433D02*
X0001028740Y0002110433D01*
X0001028740Y0002110433D02*
X0001003740Y0002085433D01*
G04 #@! TO.N,Net-(C1-Pad1)*
X0001038740Y0001745433D02*
X0001038740Y0001750433D01*
X0001038740Y0001750433D02*
X0001063740Y0001775433D01*
X0001063740Y0001775433D02*
X0001063740Y0001835433D01*
X0001063740Y0001835433D02*
X0001143740Y0001915433D01*
G04 #@! TO.N,Net-(U2-Pad10)*
X0001276240Y0002135433D02*
X0001278740Y0002135433D01*
X0001278740Y0002135433D02*
X0001278740Y0002120433D01*
X0001278740Y0002120433D02*
X0001243740Y0002085433D01*
X0001243740Y0002085433D02*
X0001208740Y0002085433D01*
G04 #@! TO.N,Net-(U2-Pad7)*
X0001228740Y0002320433D02*
X0001253740Y0002345433D01*
X0001253740Y0002345433D02*
X0001253740Y0002360433D01*
X0001253740Y0002360433D02*
X0001278740Y0002385433D01*
X0001278740Y0002385433D02*
X0001276240Y0002385433D01*
X0001278740Y0002385433D02*
X0001278740Y0002400433D01*
X0001283740Y0002380433D02*
X0001278740Y0002385433D01*
G04 #@! TO.N,Net-(U2-Pad4)*
X0001126240Y0002385433D02*
X0001128740Y0002385433D01*
X0001128740Y0002385433D02*
X0001128740Y0002370433D01*
X0001128740Y0002370433D02*
X0001078740Y0002320433D01*
G04 #@! TO.N,Net-(U2-Pad3)*
X0001076240Y0002385433D02*
X0001078740Y0002385433D01*
X0001078740Y0002385433D02*
X0001078740Y0002360433D01*
X0001078740Y0002360433D02*
X0001053740Y0002335433D01*
X0001053740Y0002335433D02*
X0001053740Y0002305433D01*
X0001053740Y0002305433D02*
X0000998740Y0002250433D01*
X0001078740Y0002385433D02*
X0001078740Y0002365433D01*
G04 #@! TO.N,Net-(U2-Pad2)*
X0001026240Y0002385433D02*
X0001028740Y0002385433D01*
X0001028740Y0002385433D02*
X0001028740Y0002320433D01*
G04 #@! TO.N,RIGHT*
X0000918740Y0002437933D02*
X0000963740Y0002482933D01*
X0000963740Y0002482933D02*
X0001153740Y0002482933D01*
X0001153740Y0002482933D02*
X0001193740Y0002522933D01*
X0000918740Y0002435433D02*
X0000918740Y0002437933D01*
G04 #@! TO.N,BT3*
X0000968740Y0001620433D02*
X0000968740Y0001674803D01*
G04 #@! TO.N,BT1*
X0000928779Y0002585472D02*
X0000901240Y0002557933D01*
X0000901240Y0002557933D02*
X0000811240Y0002557933D01*
X0000811240Y0002557933D02*
X0000791240Y0002537933D01*
X0000791240Y0002537933D02*
X0000791240Y0002505433D01*
X0000791240Y0002505433D02*
X0000803740Y0002492933D01*
X0000803740Y0002492933D02*
X0000933740Y0002492933D01*
X0000933740Y0002492933D02*
X0000943740Y0002502933D01*
X0000943740Y0002502933D02*
X0001121240Y0002502933D01*
X0001121240Y0002502933D02*
X0001128740Y0002510433D01*
X0000928779Y0002692933D02*
X0000928779Y0002585472D01*
X0000943779Y0002690433D02*
X0000943740Y0002690433D01*
X0000943740Y0002690433D02*
X0000943779Y0002690433D01*
G04 #@! TO.N,BT2*
X0001258700Y0002692933D02*
X0001258700Y0002590472D01*
X0001373740Y0001779803D02*
X0001268740Y0001674803D01*
X0001373740Y0002475433D02*
X0001373740Y0001779803D01*
X0001258700Y0002590472D02*
X0001373740Y0002475433D01*
X0001273740Y0002690433D02*
X0001273700Y0002690433D01*
G04 #@! TO.N,Net-(R1-Pad1)*
X0001176240Y0002385433D02*
X0001178740Y0002385433D01*
X0001178740Y0002385433D02*
X0001178740Y0002370433D01*
X0001178740Y0002370433D02*
X0001008740Y0002200433D01*
X0001008740Y0002200433D02*
X0000978740Y0002200433D01*
X0000958740Y0002085433D02*
X0001023740Y0002020433D01*
X0001023740Y0002020433D02*
X0001158740Y0002020433D01*
X0001158740Y0002020433D02*
X0001203740Y0001975433D01*
X0001203740Y0001975433D02*
X0001218740Y0001975433D01*
X0001218740Y0001975433D02*
X0001219389Y0001977933D01*
X0001219389Y0001977933D02*
X0001218740Y0001975433D01*
G04 #@! TO.N,Net-(R3-Pad1)*
X0001019389Y0001980433D02*
X0001018740Y0001980433D01*
X0001018740Y0001980433D02*
X0001018740Y0001945433D01*
X0001018740Y0001945433D02*
X0001048740Y0001915433D01*
X0001163740Y0001805433D02*
X0001253740Y0001805433D01*
G04 #@! TO.N,Net-(JP1-Pad1)*
X0000858740Y0002212933D02*
X0000858740Y0002157933D01*
X0000858740Y0002157933D02*
X0000783740Y0002082933D01*
X0000783740Y0002082933D02*
X0000783740Y0001632933D01*
X0000783740Y0001632933D02*
X0000911240Y0001505433D01*
X0001373740Y0001615433D02*
X0001331240Y0001657933D01*
X0001373740Y0001532933D02*
X0001373740Y0001615433D01*
X0001346240Y0001505433D02*
X0001373740Y0001532933D01*
X0000911240Y0001505433D02*
X0001346240Y0001505433D01*
G04 #@! TO.N,Net-(JP1-Pad2)*
X0000858740Y0002262933D02*
X0000858740Y0002260433D01*
X0000858740Y0002260433D02*
X0000878740Y0002280433D01*
X0000878740Y0002280433D02*
X0000893740Y0002280433D01*
X0000893740Y0002280433D02*
X0000893740Y0002300433D01*
X0000893740Y0002300433D02*
X0000978740Y0002385433D01*
X0000978740Y0002385433D02*
X0000976240Y0002385433D01*
G04 #@! TO.N,Net-(Q2-Pad1)*
X0001218740Y0001655433D02*
X0001238740Y0001635433D01*
X0001266771Y0001635433D02*
X0001306141Y0001596062D01*
X0001238740Y0001635433D02*
X0001266771Y0001635433D01*
G04 #@! TO.N,Net-(Q1-Pad1)*
X0001006141Y0001632834D02*
X0001108740Y0001735433D01*
X0001006141Y0001596062D02*
X0001006141Y0001632834D01*
X0001178740Y0001925433D02*
X0001126240Y0001977933D01*
X0001178740Y0001890433D02*
X0001178740Y0001925433D01*
X0001108740Y0001820433D02*
X0001178740Y0001890433D01*
X0001108740Y0001735433D02*
X0001108740Y0001820433D01*
X0001126240Y0001977933D02*
X0001113090Y0001977933D01*
X0001113090Y0001977933D02*
X0001113740Y0001975433D01*
G04 #@! TO.N,Net-(D1-Pad2)*
X0001226240Y0002385433D02*
X0001226240Y0002417933D01*
X0001203740Y0002440433D02*
X0001083740Y0002440433D01*
X0001226240Y0002417933D02*
X0001203740Y0002440433D01*
X0001228740Y0002385433D02*
X0001226240Y0002385433D01*
G04 #@! TD*
G04 next file*
G04 #@! TF.GenerationSoftware,KiCad,Pcbnew,(5.0.2)-1*
G04 #@! TF.CreationDate,2019-07-10T16:32:42+02:00*
G04 #@! TF.ProjectId,joystick tester systest,6a6f7973-7469-4636-9b20-746573746572,rev?*
G04 #@! TF.SameCoordinates,Original*
G04 #@! TF.FileFunction,Copper,L2,Bot*
G04 #@! TF.FilePolarity,Positive*
G04 Gerber Fmt 4.6, Leading zero omitted, Abs format (unit mm)*
G04 Created by KiCad (PCBNEW (5.0.2)-1) date 10-7-2019 16:32:42*
G01G01*
G04 APERTURE LIST*
G04 #@! TA.AperFunction,SMDPad,CuDef*
G04 #@! TD*
G04 #@! TA.AperFunction,ConnectorPad*
G04 #@! TD*
G04 #@! TA.AperFunction,SMDPad,CuDef*
G04 #@! TD*
G04 #@! TA.AperFunction,ComponentPad*
G04 #@! TD*
G04 #@! TA.AperFunction,ComponentPad*
G04 #@! TD*
G04 #@! TA.AperFunction,SMDPad,CuDef*
G04 #@! TD*
G04 #@! TA.AperFunction,ViaPad*
G04 #@! TD*
G04 #@! TA.AperFunction,Conductor*
G04 #@! TD*
G04 APERTURE END LIST*
D76*
G04 #@! TO.P,U2,16*
G04 #@! TO.N,VCC*
X-0004173228Y0006535433D02*
X0001724271Y0002135433D03*
G04 #@! TO.P,U2,14*
G04 #@! TO.N,Net-(U1-Pad3)*
X0001824271Y0002135433D03*
G04 #@! TO.P,U2,13*
G04 #@! TO.N,GND*
X0001874271Y0002135433D03*
G04 #@! TO.P,U2,12*
G04 #@! TO.N,Net-(U2-Pad12)*
X0001924271Y0002135433D03*
G04 #@! TO.P,U2,11*
G04 #@! TO.N,Net-(U2-Pad11)*
X0001974271Y0002135433D03*
G04 #@! TO.P,U2,10*
G04 #@! TO.N,Net-(U2-Pad10)*
X0002024271Y0002135433D03*
G04 #@! TO.P,U2,9*
G04 #@! TO.N,Net-(U2-Pad9)*
X0002074271Y0002135433D03*
G04 #@! TO.P,U2,8*
G04 #@! TO.N,GND*
X0002074271Y0002385433D03*
G04 #@! TO.P,U2,7*
G04 #@! TO.N,Net-(U2-Pad7)*
X0002024271Y0002385433D03*
G04 #@! TO.P,U2,6*
G04 #@! TO.N,Net-(D1-Pad2)*
X0001974271Y0002385433D03*
G04 #@! TO.P,U2,5*
G04 #@! TO.N,Net-(R1-Pad1)*
X0001924271Y0002385433D03*
G04 #@! TO.P,U2,4*
G04 #@! TO.N,Net-(U2-Pad4)*
X0001874271Y0002385433D03*
G04 #@! TO.P,U2,3*
G04 #@! TO.N,Net-(U2-Pad3)*
X0001824271Y0002385433D03*
G04 #@! TO.P,U2,2*
G04 #@! TO.N,Net-(U2-Pad2)*
X0001774271Y0002385433D03*
G04 #@! TO.P,U2,1*
G04 #@! TO.N,Net-(JP1-Pad2)*
X0001724271Y0002385433D03*
G04 #@! TO.P,U2,15*
G04 #@! TO.N,RST*
X0001774271Y0002135433D03*
G04 #@! TD*
D77*
G04 #@! TO.P,J1,6*
G04 #@! TO.N,BT1*
X0001676811Y0002692933D03*
G04 #@! TO.P,J1,7*
G04 #@! TO.N,VCC*
X0001786653Y0002692933D03*
G04 #@! TO.P,J1,8*
G04 #@! TO.N,GND*
X0001896889Y0002692933D03*
G04 #@! TO.P,J1,9*
G04 #@! TO.N,BT2*
X0002006732Y0002692933D03*
G04 #@! TD*
D78*
G04 #@! TO.P,R1,1*
G04 #@! TO.N,Net-(R1-Pad1)*
X0001967421Y0001977933D03*
G04 #@! TO.P,R1,2*
G04 #@! TO.N,Net-(Q1-Pad1)*
X0001861122Y0001977933D03*
G04 #@! TD*
G04 #@! TO.P,R3,1*
G04 #@! TO.N,Net-(R3-Pad1)*
X0001767421Y0001980433D03*
G04 #@! TO.P,R3,2*
G04 #@! TO.N,THR*
X0001661122Y0001980433D03*
G04 #@! TD*
D79*
G04 #@! TO.P,JP1,1*
G04 #@! TO.N,Net-(JP1-Pad1)*
X0001606771Y0002212933D03*
D80*
G04 #@! TO.P,JP1,2*
G04 #@! TO.N,Net-(JP1-Pad2)*
X0001606771Y0002262933D03*
G04 #@! TO.P,JP1,3*
G04 #@! TO.N,RST*
X0001606771Y0002312933D03*
G04 #@! TD*
D81*
G04 #@! TO.P,Q2,1*
G04 #@! TO.N,Net-(Q2-Pad1)*
X0002054173Y0001596062D03*
G04 #@! TO.P,Q2,2*
G04 #@! TO.N,GND*
X0001979370Y0001596062D03*
G04 #@! TO.P,Q2,3*
G04 #@! TO.N,BT2*
X0002016771Y0001674803D03*
G04 #@! TD*
G04 #@! TO.P,Q1,1*
G04 #@! TO.N,Net-(Q1-Pad1)*
X0001754173Y0001596062D03*
G04 #@! TO.P,Q1,2*
G04 #@! TO.N,GND*
X0001679370Y0001596062D03*
G04 #@! TO.P,Q1,3*
G04 #@! TO.N,BT3*
X0001716771Y0001674803D03*
G04 #@! TD*
D82*
G04 #@! TO.N,VCC*
X0001606771Y0002110433D03*
X0001571771Y0002522933D03*
X0001961771Y0001912933D03*
X0001711771Y0002320433D03*
X0001936771Y0001770433D03*
X0001811771Y0001645433D03*
G04 #@! TO.N,GND*
X0001576771Y0001815433D03*
X0002041771Y0002435433D03*
X0001991771Y0002555433D03*
X0001874271Y0002087933D03*
X0002081771Y0002320433D03*
X0002026771Y0002200433D03*
X0001621771Y0001915433D03*
X0001716771Y0001915433D03*
G04 #@! TO.N,THR*
X0001686771Y0001790433D03*
X0001786771Y0001790433D03*
X0001661771Y0001915433D03*
G04 #@! TO.N,Net-(U1-Pad3)*
X0001686771Y0001750433D03*
X0001561771Y0001875433D03*
X0001791771Y0002080433D03*
G04 #@! TO.N,RST*
X0001751771Y0002085433D03*
G04 #@! TO.N,Net-(C1-Pad1)*
X0001786771Y0001745433D03*
X0001891771Y0001915433D03*
G04 #@! TO.N,Net-(U2-Pad10)*
X0001956771Y0002085433D03*
G04 #@! TO.N,Net-(U2-Pad7)*
X0001976771Y0002320433D03*
G04 #@! TO.N,Net-(U2-Pad4)*
X0001826771Y0002320433D03*
G04 #@! TO.N,Net-(U2-Pad3)*
X0001746771Y0002250433D03*
G04 #@! TO.N,Net-(U2-Pad2)*
X0001776771Y0002320433D03*
G04 #@! TO.N,RIGHT*
X0001941771Y0002522933D03*
X0001666771Y0002435433D03*
G04 #@! TO.N,BT3*
X0001716771Y0001620433D03*
G04 #@! TO.N,BT1*
X0001876771Y0002510433D03*
G04 #@! TO.N,Net-(R1-Pad1)*
X0001726771Y0002200433D03*
X0001706771Y0002085433D03*
G04 #@! TO.N,Net-(R3-Pad1)*
X0002001771Y0001805433D03*
X0001796771Y0001915433D03*
X0001911771Y0001805433D03*
G04 #@! TO.N,Net-(JP1-Pad1)*
X0002079271Y0001657933D03*
G04 #@! TO.N,Net-(Q2-Pad1)*
X0001966771Y0001655433D03*
G04 #@! TO.N,Net-(D1-Pad2)*
X0001831771Y0002440433D03*
G04 #@! TD*
D83*
G04 #@! TO.N,*
X0001676771Y0002135433D02*
X0001676771Y0002132933D01*
G04 #@! TO.N,Net-(U2-Pad11)*
X0001976771Y0002135433D02*
X0001976771Y0002120433D01*
G04 #@! TO.N,VCC*
X0001571771Y0002522933D02*
X0001759271Y0002522933D01*
X0001724271Y0002135433D02*
X0001706771Y0002135433D01*
X0001696771Y0002125433D02*
X0001706771Y0002135433D01*
X0001621771Y0002125433D02*
X0001696771Y0002125433D01*
X0001606771Y0002110433D02*
X0001621771Y0002125433D01*
X0001786653Y0002550314D02*
X0001786653Y0002692933D01*
X0001759271Y0002522933D02*
X0001786653Y0002550314D01*
X0001786653Y0002692933D02*
X0001786771Y0002690433D01*
X0001724271Y0002135433D02*
X0001724271Y0002142933D01*
X0001724271Y0002142933D02*
X0001766771Y0002185433D01*
X0002004271Y0001912933D02*
X0001961771Y0001912933D01*
X0002029271Y0001937933D02*
X0002004271Y0001912933D01*
X0002029271Y0002015433D02*
X0002029271Y0001937933D01*
X0001999271Y0002045433D02*
X0002029271Y0002015433D01*
X0001874271Y0002045433D02*
X0001999271Y0002045433D01*
X0001849271Y0002070433D02*
X0001874271Y0002045433D01*
X0001849271Y0002180433D02*
X0001849271Y0002070433D01*
X0001844271Y0002185433D02*
X0001849271Y0002180433D01*
X0001766771Y0002185433D02*
X0001844271Y0002185433D01*
X0001711771Y0002320433D02*
X0001711771Y0002225433D01*
X0001711771Y0002225433D02*
X0001701771Y0002215433D01*
X0001701771Y0002215433D02*
X0001701771Y0002160433D01*
X0001726771Y0002135433D02*
X0001701771Y0002160433D01*
X0001801653Y0002690433D02*
X0001801771Y0002690433D01*
X0001801771Y0002690433D02*
X0001801771Y0002635433D01*
X0001726771Y0002135433D02*
X0001724271Y0002135433D01*
X0001801653Y0002690433D02*
X0001801771Y0002690433D01*
X0001726771Y0002135433D02*
X0001726771Y0002150433D01*
X0001936771Y0001770433D02*
X0001811771Y0001645433D01*
G04 #@! TO.N,GND*
X0001679370Y0001596062D02*
X0001646141Y0001596062D01*
X0001576771Y0001665433D02*
X0001576771Y0001815433D01*
X0001646141Y0001596062D02*
X0001576771Y0001665433D01*
X0001679370Y0001596062D02*
X0001679370Y0001572834D01*
X0001679370Y0001572834D02*
X0001716771Y0001535433D01*
X0001716771Y0001535433D02*
X0001936771Y0001535433D01*
X0001936771Y0001535433D02*
X0001979370Y0001578031D01*
X0001979370Y0001578031D02*
X0001979370Y0001596062D01*
X0001991771Y0002555433D02*
X0001926771Y0002555433D01*
X0002076771Y0002400433D02*
X0002041771Y0002435433D01*
X0001896889Y0002585314D02*
X0001896889Y0002692933D01*
X0001926771Y0002555433D02*
X0001896889Y0002585314D01*
X0001874271Y0002087933D02*
X0001874271Y0002135433D01*
X0002074271Y0002385433D02*
X0002076771Y0002385433D01*
X0002076771Y0002385433D02*
X0002076771Y0002400433D01*
X0001911771Y0002690433D02*
X0001911889Y0002690433D01*
X0002081771Y0002320433D02*
X0002081771Y0002380433D01*
X0002081771Y0002380433D02*
X0002076771Y0002385433D01*
X0002076771Y0002385433D02*
X0002074271Y0002385433D01*
X0001876771Y0002135433D02*
X0001874271Y0002135433D01*
X0001874271Y0002135433D02*
X0001876771Y0002135433D01*
X0001876771Y0002135433D02*
X0001876771Y0002155433D01*
X0001876771Y0002155433D02*
X0001921771Y0002200433D01*
X0001921771Y0002200433D02*
X0002026771Y0002200433D01*
X0001911771Y0002690433D02*
X0001911889Y0002690433D01*
X0001621771Y0001915433D02*
X0001646771Y0001890433D01*
X0001646771Y0001890433D02*
X0001676771Y0001890433D01*
X0001676771Y0001890433D02*
X0001701771Y0001915433D01*
X0001701771Y0001915433D02*
X0001716771Y0001915433D01*
G04 #@! TO.N,THR*
X0001686771Y0001790433D02*
X0001786771Y0001790433D01*
X0001661771Y0001915433D02*
X0001661771Y0001980433D01*
X0001661771Y0001980433D02*
X0001661122Y0001980433D01*
G04 #@! TO.N,Net-(U1-Pad3)*
X0001686771Y0001750433D02*
X0001561771Y0001875433D01*
X0001791771Y0002080433D02*
X0001791771Y0002085433D01*
X0001791771Y0002085433D02*
X0001801771Y0002095433D01*
X0001801771Y0002095433D02*
X0001801771Y0002110433D01*
X0001801771Y0002110433D02*
X0001826771Y0002135433D01*
X0001826771Y0002135433D02*
X0001824271Y0002135433D01*
X0001826771Y0002135433D02*
X0001826771Y0002150433D01*
G04 #@! TO.N,RST*
X0001774271Y0002135433D02*
X0001776771Y0002135433D01*
X0001776771Y0002135433D02*
X0001776771Y0002110433D01*
X0001776771Y0002110433D02*
X0001751771Y0002085433D01*
G04 #@! TO.N,Net-(C1-Pad1)*
X0001786771Y0001745433D02*
X0001786771Y0001750433D01*
X0001786771Y0001750433D02*
X0001811771Y0001775433D01*
X0001811771Y0001775433D02*
X0001811771Y0001835433D01*
X0001811771Y0001835433D02*
X0001891771Y0001915433D01*
G04 #@! TO.N,Net-(U2-Pad10)*
X0002024271Y0002135433D02*
X0002026771Y0002135433D01*
X0002026771Y0002135433D02*
X0002026771Y0002120433D01*
X0002026771Y0002120433D02*
X0001991771Y0002085433D01*
X0001991771Y0002085433D02*
X0001956771Y0002085433D01*
G04 #@! TO.N,Net-(U2-Pad7)*
X0001976771Y0002320433D02*
X0002001771Y0002345433D01*
X0002001771Y0002345433D02*
X0002001771Y0002360433D01*
X0002001771Y0002360433D02*
X0002026771Y0002385433D01*
X0002026771Y0002385433D02*
X0002024271Y0002385433D01*
X0002026771Y0002385433D02*
X0002026771Y0002400433D01*
X0002031771Y0002380433D02*
X0002026771Y0002385433D01*
G04 #@! TO.N,Net-(U2-Pad4)*
X0001874271Y0002385433D02*
X0001876771Y0002385433D01*
X0001876771Y0002385433D02*
X0001876771Y0002370433D01*
X0001876771Y0002370433D02*
X0001826771Y0002320433D01*
G04 #@! TO.N,Net-(U2-Pad3)*
X0001824271Y0002385433D02*
X0001826771Y0002385433D01*
X0001826771Y0002385433D02*
X0001826771Y0002360433D01*
X0001826771Y0002360433D02*
X0001801771Y0002335433D01*
X0001801771Y0002335433D02*
X0001801771Y0002305433D01*
X0001801771Y0002305433D02*
X0001746771Y0002250433D01*
X0001826771Y0002385433D02*
X0001826771Y0002365433D01*
G04 #@! TO.N,Net-(U2-Pad2)*
X0001774271Y0002385433D02*
X0001776771Y0002385433D01*
X0001776771Y0002385433D02*
X0001776771Y0002320433D01*
G04 #@! TO.N,RIGHT*
X0001666771Y0002437933D02*
X0001711771Y0002482933D01*
X0001711771Y0002482933D02*
X0001901771Y0002482933D01*
X0001901771Y0002482933D02*
X0001941771Y0002522933D01*
X0001666771Y0002435433D02*
X0001666771Y0002437933D01*
G04 #@! TO.N,BT3*
X0001716771Y0001620433D02*
X0001716771Y0001674803D01*
G04 #@! TO.N,BT1*
X0001676811Y0002585472D02*
X0001649271Y0002557933D01*
X0001649271Y0002557933D02*
X0001559271Y0002557933D01*
X0001559271Y0002557933D02*
X0001539271Y0002537933D01*
X0001539271Y0002537933D02*
X0001539271Y0002505433D01*
X0001539271Y0002505433D02*
X0001551771Y0002492933D01*
X0001551771Y0002492933D02*
X0001681771Y0002492933D01*
X0001681771Y0002492933D02*
X0001691771Y0002502933D01*
X0001691771Y0002502933D02*
X0001869271Y0002502933D01*
X0001869271Y0002502933D02*
X0001876771Y0002510433D01*
X0001676811Y0002692933D02*
X0001676811Y0002585472D01*
X0001691811Y0002690433D02*
X0001691771Y0002690433D01*
X0001691771Y0002690433D02*
X0001691811Y0002690433D01*
G04 #@! TO.N,BT2*
X0002006732Y0002692933D02*
X0002006732Y0002590472D01*
X0002121771Y0001779803D02*
X0002016771Y0001674803D01*
X0002121771Y0002475433D02*
X0002121771Y0001779803D01*
X0002006732Y0002590472D02*
X0002121771Y0002475433D01*
X0002021771Y0002690433D02*
X0002021732Y0002690433D01*
G04 #@! TO.N,Net-(R1-Pad1)*
X0001924271Y0002385433D02*
X0001926771Y0002385433D01*
X0001926771Y0002385433D02*
X0001926771Y0002370433D01*
X0001926771Y0002370433D02*
X0001756771Y0002200433D01*
X0001756771Y0002200433D02*
X0001726771Y0002200433D01*
X0001706771Y0002085433D02*
X0001771771Y0002020433D01*
X0001771771Y0002020433D02*
X0001906771Y0002020433D01*
X0001906771Y0002020433D02*
X0001951771Y0001975433D01*
X0001951771Y0001975433D02*
X0001966771Y0001975433D01*
X0001966771Y0001975433D02*
X0001967421Y0001977933D01*
X0001967421Y0001977933D02*
X0001966771Y0001975433D01*
G04 #@! TO.N,Net-(R3-Pad1)*
X0001767421Y0001980433D02*
X0001766771Y0001980433D01*
X0001766771Y0001980433D02*
X0001766771Y0001945433D01*
X0001766771Y0001945433D02*
X0001796771Y0001915433D01*
X0001911771Y0001805433D02*
X0002001771Y0001805433D01*
G04 #@! TO.N,Net-(JP1-Pad1)*
X0001606771Y0002212933D02*
X0001606771Y0002157933D01*
X0001606771Y0002157933D02*
X0001531771Y0002082933D01*
X0001531771Y0002082933D02*
X0001531771Y0001632933D01*
X0001531771Y0001632933D02*
X0001659271Y0001505433D01*
X0002121771Y0001615433D02*
X0002079271Y0001657933D01*
X0002121771Y0001532933D02*
X0002121771Y0001615433D01*
X0002094271Y0001505433D02*
X0002121771Y0001532933D01*
X0001659271Y0001505433D02*
X0002094271Y0001505433D01*
G04 #@! TO.N,Net-(JP1-Pad2)*
X0001606771Y0002262933D02*
X0001606771Y0002260433D01*
X0001606771Y0002260433D02*
X0001626771Y0002280433D01*
X0001626771Y0002280433D02*
X0001641771Y0002280433D01*
X0001641771Y0002280433D02*
X0001641771Y0002300433D01*
X0001641771Y0002300433D02*
X0001726771Y0002385433D01*
X0001726771Y0002385433D02*
X0001724271Y0002385433D01*
G04 #@! TO.N,Net-(Q2-Pad1)*
X0001966771Y0001655433D02*
X0001986771Y0001635433D01*
X0002014803Y0001635433D02*
X0002054173Y0001596062D01*
X0001986771Y0001635433D02*
X0002014803Y0001635433D01*
G04 #@! TO.N,Net-(Q1-Pad1)*
X0001754173Y0001632834D02*
X0001856771Y0001735433D01*
X0001754173Y0001596062D02*
X0001754173Y0001632834D01*
X0001926771Y0001925433D02*
X0001874271Y0001977933D01*
X0001926771Y0001890433D02*
X0001926771Y0001925433D01*
X0001856771Y0001820433D02*
X0001926771Y0001890433D01*
X0001856771Y0001735433D02*
X0001856771Y0001820433D01*
X0001874271Y0001977933D02*
X0001861122Y0001977933D01*
X0001861122Y0001977933D02*
X0001861771Y0001975433D01*
G04 #@! TO.N,Net-(D1-Pad2)*
X0001974271Y0002385433D02*
X0001974271Y0002417933D01*
X0001951771Y0002440433D02*
X0001831771Y0002440433D01*
X0001974271Y0002417933D02*
X0001951771Y0002440433D01*
X0001976771Y0002385433D02*
X0001974271Y0002385433D01*
G04 #@! TD*
G04 next file*
G04 #@! TF.GenerationSoftware,KiCad,Pcbnew,(5.0.2)-1*
G04 #@! TF.CreationDate,2019-07-10T16:32:42+02:00*
G04 #@! TF.ProjectId,joystick tester systest,6a6f7973-7469-4636-9b20-746573746572,rev?*
G04 #@! TF.SameCoordinates,Original*
G04 #@! TF.FileFunction,Copper,L2,Bot*
G04 #@! TF.FilePolarity,Positive*
G04 Gerber Fmt 4.6, Leading zero omitted, Abs format (unit mm)*
G04 Created by KiCad (PCBNEW (5.0.2)-1) date 10-7-2019 16:32:42*
G01G01*
G04 APERTURE LIST*
G04 #@! TA.AperFunction,SMDPad,CuDef*
G04 #@! TD*
G04 #@! TA.AperFunction,ConnectorPad*
G04 #@! TD*
G04 #@! TA.AperFunction,SMDPad,CuDef*
G04 #@! TD*
G04 #@! TA.AperFunction,ComponentPad*
G04 #@! TD*
G04 #@! TA.AperFunction,ComponentPad*
G04 #@! TD*
G04 #@! TA.AperFunction,SMDPad,CuDef*
G04 #@! TD*
G04 #@! TA.AperFunction,ViaPad*
G04 #@! TD*
G04 #@! TA.AperFunction,Conductor*
G04 #@! TD*
G04 APERTURE END LIST*
D84*
G04 #@! TO.P,U2,16*
G04 #@! TO.N,VCC*
X-0003425196Y0006535433D02*
X0002472303Y0002135433D03*
G04 #@! TO.P,U2,14*
G04 #@! TO.N,Net-(U1-Pad3)*
X0002572303Y0002135433D03*
G04 #@! TO.P,U2,13*
G04 #@! TO.N,GND*
X0002622303Y0002135433D03*
G04 #@! TO.P,U2,12*
G04 #@! TO.N,Net-(U2-Pad12)*
X0002672303Y0002135433D03*
G04 #@! TO.P,U2,11*
G04 #@! TO.N,Net-(U2-Pad11)*
X0002722303Y0002135433D03*
G04 #@! TO.P,U2,10*
G04 #@! TO.N,Net-(U2-Pad10)*
X0002772303Y0002135433D03*
G04 #@! TO.P,U2,9*
G04 #@! TO.N,Net-(U2-Pad9)*
X0002822303Y0002135433D03*
G04 #@! TO.P,U2,8*
G04 #@! TO.N,GND*
X0002822303Y0002385433D03*
G04 #@! TO.P,U2,7*
G04 #@! TO.N,Net-(U2-Pad7)*
X0002772303Y0002385433D03*
G04 #@! TO.P,U2,6*
G04 #@! TO.N,Net-(D1-Pad2)*
X0002722303Y0002385433D03*
G04 #@! TO.P,U2,5*
G04 #@! TO.N,Net-(R1-Pad1)*
X0002672303Y0002385433D03*
G04 #@! TO.P,U2,4*
G04 #@! TO.N,Net-(U2-Pad4)*
X0002622303Y0002385433D03*
G04 #@! TO.P,U2,3*
G04 #@! TO.N,Net-(U2-Pad3)*
X0002572303Y0002385433D03*
G04 #@! TO.P,U2,2*
G04 #@! TO.N,Net-(U2-Pad2)*
X0002522303Y0002385433D03*
G04 #@! TO.P,U2,1*
G04 #@! TO.N,Net-(JP1-Pad2)*
X0002472303Y0002385433D03*
G04 #@! TO.P,U2,15*
G04 #@! TO.N,RST*
X0002522303Y0002135433D03*
G04 #@! TD*
D85*
G04 #@! TO.P,J1,6*
G04 #@! TO.N,BT1*
X0002424842Y0002692933D03*
G04 #@! TO.P,J1,7*
G04 #@! TO.N,VCC*
X0002534685Y0002692933D03*
G04 #@! TO.P,J1,8*
G04 #@! TO.N,GND*
X0002644921Y0002692933D03*
G04 #@! TO.P,J1,9*
G04 #@! TO.N,BT2*
X0002754763Y0002692933D03*
G04 #@! TD*
D86*
G04 #@! TO.P,R1,1*
G04 #@! TO.N,Net-(R1-Pad1)*
X0002715452Y0001977933D03*
G04 #@! TO.P,R1,2*
G04 #@! TO.N,Net-(Q1-Pad1)*
X0002609153Y0001977933D03*
G04 #@! TD*
G04 #@! TO.P,R3,1*
G04 #@! TO.N,Net-(R3-Pad1)*
X0002515452Y0001980433D03*
G04 #@! TO.P,R3,2*
G04 #@! TO.N,THR*
X0002409153Y0001980433D03*
G04 #@! TD*
D87*
G04 #@! TO.P,JP1,1*
G04 #@! TO.N,Net-(JP1-Pad1)*
X0002354803Y0002212933D03*
D88*
G04 #@! TO.P,JP1,2*
G04 #@! TO.N,Net-(JP1-Pad2)*
X0002354803Y0002262933D03*
G04 #@! TO.P,JP1,3*
G04 #@! TO.N,RST*
X0002354803Y0002312933D03*
G04 #@! TD*
D89*
G04 #@! TO.P,Q2,1*
G04 #@! TO.N,Net-(Q2-Pad1)*
X0002802204Y0001596062D03*
G04 #@! TO.P,Q2,2*
G04 #@! TO.N,GND*
X0002727401Y0001596062D03*
G04 #@! TO.P,Q2,3*
G04 #@! TO.N,BT2*
X0002764803Y0001674803D03*
G04 #@! TD*
G04 #@! TO.P,Q1,1*
G04 #@! TO.N,Net-(Q1-Pad1)*
X0002502204Y0001596062D03*
G04 #@! TO.P,Q1,2*
G04 #@! TO.N,GND*
X0002427401Y0001596062D03*
G04 #@! TO.P,Q1,3*
G04 #@! TO.N,BT3*
X0002464803Y0001674803D03*
G04 #@! TD*
D90*
G04 #@! TO.N,VCC*
X0002354803Y0002110433D03*
X0002319803Y0002522933D03*
X0002709803Y0001912933D03*
X0002459803Y0002320433D03*
X0002684803Y0001770433D03*
X0002559803Y0001645433D03*
G04 #@! TO.N,GND*
X0002324803Y0001815433D03*
X0002789803Y0002435433D03*
X0002739803Y0002555433D03*
X0002622303Y0002087933D03*
X0002829803Y0002320433D03*
X0002774803Y0002200433D03*
X0002369803Y0001915433D03*
X0002464803Y0001915433D03*
G04 #@! TO.N,THR*
X0002434803Y0001790433D03*
X0002534803Y0001790433D03*
X0002409803Y0001915433D03*
G04 #@! TO.N,Net-(U1-Pad3)*
X0002434803Y0001750433D03*
X0002309803Y0001875433D03*
X0002539803Y0002080433D03*
G04 #@! TO.N,RST*
X0002499803Y0002085433D03*
G04 #@! TO.N,Net-(C1-Pad1)*
X0002534803Y0001745433D03*
X0002639803Y0001915433D03*
G04 #@! TO.N,Net-(U2-Pad10)*
X0002704803Y0002085433D03*
G04 #@! TO.N,Net-(U2-Pad7)*
X0002724803Y0002320433D03*
G04 #@! TO.N,Net-(U2-Pad4)*
X0002574803Y0002320433D03*
G04 #@! TO.N,Net-(U2-Pad3)*
X0002494803Y0002250433D03*
G04 #@! TO.N,Net-(U2-Pad2)*
X0002524803Y0002320433D03*
G04 #@! TO.N,RIGHT*
X0002689803Y0002522933D03*
X0002414803Y0002435433D03*
G04 #@! TO.N,BT3*
X0002464803Y0001620433D03*
G04 #@! TO.N,BT1*
X0002624803Y0002510433D03*
G04 #@! TO.N,Net-(R1-Pad1)*
X0002474803Y0002200433D03*
X0002454803Y0002085433D03*
G04 #@! TO.N,Net-(R3-Pad1)*
X0002749803Y0001805433D03*
X0002544803Y0001915433D03*
X0002659803Y0001805433D03*
G04 #@! TO.N,Net-(JP1-Pad1)*
X0002827303Y0001657933D03*
G04 #@! TO.N,Net-(Q2-Pad1)*
X0002714803Y0001655433D03*
G04 #@! TO.N,Net-(D1-Pad2)*
X0002579803Y0002440433D03*
G04 #@! TD*
D91*
G04 #@! TO.N,*
X0002424803Y0002135433D02*
X0002424803Y0002132933D01*
G04 #@! TO.N,Net-(U2-Pad11)*
X0002724803Y0002135433D02*
X0002724803Y0002120433D01*
G04 #@! TO.N,VCC*
X0002319803Y0002522933D02*
X0002507303Y0002522933D01*
X0002472303Y0002135433D02*
X0002454803Y0002135433D01*
X0002444803Y0002125433D02*
X0002454803Y0002135433D01*
X0002369803Y0002125433D02*
X0002444803Y0002125433D01*
X0002354803Y0002110433D02*
X0002369803Y0002125433D01*
X0002534685Y0002550314D02*
X0002534685Y0002692933D01*
X0002507303Y0002522933D02*
X0002534685Y0002550314D01*
X0002534685Y0002692933D02*
X0002534803Y0002690433D01*
X0002472303Y0002135433D02*
X0002472303Y0002142933D01*
X0002472303Y0002142933D02*
X0002514803Y0002185433D01*
X0002752303Y0001912933D02*
X0002709803Y0001912933D01*
X0002777303Y0001937933D02*
X0002752303Y0001912933D01*
X0002777303Y0002015433D02*
X0002777303Y0001937933D01*
X0002747303Y0002045433D02*
X0002777303Y0002015433D01*
X0002622303Y0002045433D02*
X0002747303Y0002045433D01*
X0002597303Y0002070433D02*
X0002622303Y0002045433D01*
X0002597303Y0002180433D02*
X0002597303Y0002070433D01*
X0002592303Y0002185433D02*
X0002597303Y0002180433D01*
X0002514803Y0002185433D02*
X0002592303Y0002185433D01*
X0002459803Y0002320433D02*
X0002459803Y0002225433D01*
X0002459803Y0002225433D02*
X0002449803Y0002215433D01*
X0002449803Y0002215433D02*
X0002449803Y0002160433D01*
X0002474803Y0002135433D02*
X0002449803Y0002160433D01*
X0002549685Y0002690433D02*
X0002549803Y0002690433D01*
X0002549803Y0002690433D02*
X0002549803Y0002635433D01*
X0002474803Y0002135433D02*
X0002472303Y0002135433D01*
X0002549685Y0002690433D02*
X0002549803Y0002690433D01*
X0002474803Y0002135433D02*
X0002474803Y0002150433D01*
X0002684803Y0001770433D02*
X0002559803Y0001645433D01*
G04 #@! TO.N,GND*
X0002427401Y0001596062D02*
X0002394173Y0001596062D01*
X0002324803Y0001665433D02*
X0002324803Y0001815433D01*
X0002394173Y0001596062D02*
X0002324803Y0001665433D01*
X0002427401Y0001596062D02*
X0002427401Y0001572834D01*
X0002427401Y0001572834D02*
X0002464803Y0001535433D01*
X0002464803Y0001535433D02*
X0002684803Y0001535433D01*
X0002684803Y0001535433D02*
X0002727401Y0001578031D01*
X0002727401Y0001578031D02*
X0002727401Y0001596062D01*
X0002739803Y0002555433D02*
X0002674803Y0002555433D01*
X0002824803Y0002400433D02*
X0002789803Y0002435433D01*
X0002644921Y0002585314D02*
X0002644921Y0002692933D01*
X0002674803Y0002555433D02*
X0002644921Y0002585314D01*
X0002622303Y0002087933D02*
X0002622303Y0002135433D01*
X0002822303Y0002385433D02*
X0002824803Y0002385433D01*
X0002824803Y0002385433D02*
X0002824803Y0002400433D01*
X0002659803Y0002690433D02*
X0002659921Y0002690433D01*
X0002829803Y0002320433D02*
X0002829803Y0002380433D01*
X0002829803Y0002380433D02*
X0002824803Y0002385433D01*
X0002824803Y0002385433D02*
X0002822303Y0002385433D01*
X0002624803Y0002135433D02*
X0002622303Y0002135433D01*
X0002622303Y0002135433D02*
X0002624803Y0002135433D01*
X0002624803Y0002135433D02*
X0002624803Y0002155433D01*
X0002624803Y0002155433D02*
X0002669803Y0002200433D01*
X0002669803Y0002200433D02*
X0002774803Y0002200433D01*
X0002659803Y0002690433D02*
X0002659921Y0002690433D01*
X0002369803Y0001915433D02*
X0002394803Y0001890433D01*
X0002394803Y0001890433D02*
X0002424803Y0001890433D01*
X0002424803Y0001890433D02*
X0002449803Y0001915433D01*
X0002449803Y0001915433D02*
X0002464803Y0001915433D01*
G04 #@! TO.N,THR*
X0002434803Y0001790433D02*
X0002534803Y0001790433D01*
X0002409803Y0001915433D02*
X0002409803Y0001980433D01*
X0002409803Y0001980433D02*
X0002409153Y0001980433D01*
G04 #@! TO.N,Net-(U1-Pad3)*
X0002434803Y0001750433D02*
X0002309803Y0001875433D01*
X0002539803Y0002080433D02*
X0002539803Y0002085433D01*
X0002539803Y0002085433D02*
X0002549803Y0002095433D01*
X0002549803Y0002095433D02*
X0002549803Y0002110433D01*
X0002549803Y0002110433D02*
X0002574803Y0002135433D01*
X0002574803Y0002135433D02*
X0002572303Y0002135433D01*
X0002574803Y0002135433D02*
X0002574803Y0002150433D01*
G04 #@! TO.N,RST*
X0002522303Y0002135433D02*
X0002524803Y0002135433D01*
X0002524803Y0002135433D02*
X0002524803Y0002110433D01*
X0002524803Y0002110433D02*
X0002499803Y0002085433D01*
G04 #@! TO.N,Net-(C1-Pad1)*
X0002534803Y0001745433D02*
X0002534803Y0001750433D01*
X0002534803Y0001750433D02*
X0002559803Y0001775433D01*
X0002559803Y0001775433D02*
X0002559803Y0001835433D01*
X0002559803Y0001835433D02*
X0002639803Y0001915433D01*
G04 #@! TO.N,Net-(U2-Pad10)*
X0002772303Y0002135433D02*
X0002774803Y0002135433D01*
X0002774803Y0002135433D02*
X0002774803Y0002120433D01*
X0002774803Y0002120433D02*
X0002739803Y0002085433D01*
X0002739803Y0002085433D02*
X0002704803Y0002085433D01*
G04 #@! TO.N,Net-(U2-Pad7)*
X0002724803Y0002320433D02*
X0002749803Y0002345433D01*
X0002749803Y0002345433D02*
X0002749803Y0002360433D01*
X0002749803Y0002360433D02*
X0002774803Y0002385433D01*
X0002774803Y0002385433D02*
X0002772303Y0002385433D01*
X0002774803Y0002385433D02*
X0002774803Y0002400433D01*
X0002779803Y0002380433D02*
X0002774803Y0002385433D01*
G04 #@! TO.N,Net-(U2-Pad4)*
X0002622303Y0002385433D02*
X0002624803Y0002385433D01*
X0002624803Y0002385433D02*
X0002624803Y0002370433D01*
X0002624803Y0002370433D02*
X0002574803Y0002320433D01*
G04 #@! TO.N,Net-(U2-Pad3)*
X0002572303Y0002385433D02*
X0002574803Y0002385433D01*
X0002574803Y0002385433D02*
X0002574803Y0002360433D01*
X0002574803Y0002360433D02*
X0002549803Y0002335433D01*
X0002549803Y0002335433D02*
X0002549803Y0002305433D01*
X0002549803Y0002305433D02*
X0002494803Y0002250433D01*
X0002574803Y0002385433D02*
X0002574803Y0002365433D01*
G04 #@! TO.N,Net-(U2-Pad2)*
X0002522303Y0002385433D02*
X0002524803Y0002385433D01*
X0002524803Y0002385433D02*
X0002524803Y0002320433D01*
G04 #@! TO.N,RIGHT*
X0002414803Y0002437933D02*
X0002459803Y0002482933D01*
X0002459803Y0002482933D02*
X0002649803Y0002482933D01*
X0002649803Y0002482933D02*
X0002689803Y0002522933D01*
X0002414803Y0002435433D02*
X0002414803Y0002437933D01*
G04 #@! TO.N,BT3*
X0002464803Y0001620433D02*
X0002464803Y0001674803D01*
G04 #@! TO.N,BT1*
X0002424842Y0002585472D02*
X0002397303Y0002557933D01*
X0002397303Y0002557933D02*
X0002307303Y0002557933D01*
X0002307303Y0002557933D02*
X0002287303Y0002537933D01*
X0002287303Y0002537933D02*
X0002287303Y0002505433D01*
X0002287303Y0002505433D02*
X0002299803Y0002492933D01*
X0002299803Y0002492933D02*
X0002429803Y0002492933D01*
X0002429803Y0002492933D02*
X0002439803Y0002502933D01*
X0002439803Y0002502933D02*
X0002617303Y0002502933D01*
X0002617303Y0002502933D02*
X0002624803Y0002510433D01*
X0002424842Y0002692933D02*
X0002424842Y0002585472D01*
X0002439842Y0002690433D02*
X0002439803Y0002690433D01*
X0002439803Y0002690433D02*
X0002439842Y0002690433D01*
G04 #@! TO.N,BT2*
X0002754763Y0002692933D02*
X0002754763Y0002590472D01*
X0002869803Y0001779803D02*
X0002764803Y0001674803D01*
X0002869803Y0002475433D02*
X0002869803Y0001779803D01*
X0002754763Y0002590472D02*
X0002869803Y0002475433D01*
X0002769803Y0002690433D02*
X0002769763Y0002690433D01*
G04 #@! TO.N,Net-(R1-Pad1)*
X0002672303Y0002385433D02*
X0002674803Y0002385433D01*
X0002674803Y0002385433D02*
X0002674803Y0002370433D01*
X0002674803Y0002370433D02*
X0002504803Y0002200433D01*
X0002504803Y0002200433D02*
X0002474803Y0002200433D01*
X0002454803Y0002085433D02*
X0002519803Y0002020433D01*
X0002519803Y0002020433D02*
X0002654803Y0002020433D01*
X0002654803Y0002020433D02*
X0002699803Y0001975433D01*
X0002699803Y0001975433D02*
X0002714803Y0001975433D01*
X0002714803Y0001975433D02*
X0002715452Y0001977933D01*
X0002715452Y0001977933D02*
X0002714803Y0001975433D01*
G04 #@! TO.N,Net-(R3-Pad1)*
X0002515452Y0001980433D02*
X0002514803Y0001980433D01*
X0002514803Y0001980433D02*
X0002514803Y0001945433D01*
X0002514803Y0001945433D02*
X0002544803Y0001915433D01*
X0002659803Y0001805433D02*
X0002749803Y0001805433D01*
G04 #@! TO.N,Net-(JP1-Pad1)*
X0002354803Y0002212933D02*
X0002354803Y0002157933D01*
X0002354803Y0002157933D02*
X0002279803Y0002082933D01*
X0002279803Y0002082933D02*
X0002279803Y0001632933D01*
X0002279803Y0001632933D02*
X0002407303Y0001505433D01*
X0002869803Y0001615433D02*
X0002827303Y0001657933D01*
X0002869803Y0001532933D02*
X0002869803Y0001615433D01*
X0002842303Y0001505433D02*
X0002869803Y0001532933D01*
X0002407303Y0001505433D02*
X0002842303Y0001505433D01*
G04 #@! TO.N,Net-(JP1-Pad2)*
X0002354803Y0002262933D02*
X0002354803Y0002260433D01*
X0002354803Y0002260433D02*
X0002374803Y0002280433D01*
X0002374803Y0002280433D02*
X0002389803Y0002280433D01*
X0002389803Y0002280433D02*
X0002389803Y0002300433D01*
X0002389803Y0002300433D02*
X0002474803Y0002385433D01*
X0002474803Y0002385433D02*
X0002472303Y0002385433D01*
G04 #@! TO.N,Net-(Q2-Pad1)*
X0002714803Y0001655433D02*
X0002734803Y0001635433D01*
X0002762834Y0001635433D02*
X0002802204Y0001596062D01*
X0002734803Y0001635433D02*
X0002762834Y0001635433D01*
G04 #@! TO.N,Net-(Q1-Pad1)*
X0002502204Y0001632834D02*
X0002604803Y0001735433D01*
X0002502204Y0001596062D02*
X0002502204Y0001632834D01*
X0002674803Y0001925433D02*
X0002622303Y0001977933D01*
X0002674803Y0001890433D02*
X0002674803Y0001925433D01*
X0002604803Y0001820433D02*
X0002674803Y0001890433D01*
X0002604803Y0001735433D02*
X0002604803Y0001820433D01*
X0002622303Y0001977933D02*
X0002609153Y0001977933D01*
X0002609153Y0001977933D02*
X0002609803Y0001975433D01*
G04 #@! TO.N,Net-(D1-Pad2)*
X0002722303Y0002385433D02*
X0002722303Y0002417933D01*
X0002699803Y0002440433D02*
X0002579803Y0002440433D01*
X0002722303Y0002417933D02*
X0002699803Y0002440433D01*
X0002724803Y0002385433D02*
X0002722303Y0002385433D01*
G04 #@! TD*
G04 next file*
G04 #@! TF.GenerationSoftware,KiCad,Pcbnew,(5.0.2)-1*
G04 #@! TF.CreationDate,2019-07-10T16:32:42+02:00*
G04 #@! TF.ProjectId,joystick tester systest,6a6f7973-7469-4636-9b20-746573746572,rev?*
G04 #@! TF.SameCoordinates,Original*
G04 #@! TF.FileFunction,Copper,L2,Bot*
G04 #@! TF.FilePolarity,Positive*
G04 Gerber Fmt 4.6, Leading zero omitted, Abs format (unit mm)*
G04 Created by KiCad (PCBNEW (5.0.2)-1) date 10-7-2019 16:32:42*
G01G01*
G04 APERTURE LIST*
G04 #@! TA.AperFunction,SMDPad,CuDef*
G04 #@! TD*
G04 #@! TA.AperFunction,ConnectorPad*
G04 #@! TD*
G04 #@! TA.AperFunction,SMDPad,CuDef*
G04 #@! TD*
G04 #@! TA.AperFunction,ComponentPad*
G04 #@! TD*
G04 #@! TA.AperFunction,ComponentPad*
G04 #@! TD*
G04 #@! TA.AperFunction,SMDPad,CuDef*
G04 #@! TD*
G04 #@! TA.AperFunction,ViaPad*
G04 #@! TD*
G04 #@! TA.AperFunction,Conductor*
G04 #@! TD*
G04 APERTURE END LIST*
D92*
G04 #@! TO.P,U2,16*
G04 #@! TO.N,VCC*
X-0002677165Y0006535433D02*
X0003220334Y0002135433D03*
G04 #@! TO.P,U2,14*
G04 #@! TO.N,Net-(U1-Pad3)*
X0003320334Y0002135433D03*
G04 #@! TO.P,U2,13*
G04 #@! TO.N,GND*
X0003370334Y0002135433D03*
G04 #@! TO.P,U2,12*
G04 #@! TO.N,Net-(U2-Pad12)*
X0003420334Y0002135433D03*
G04 #@! TO.P,U2,11*
G04 #@! TO.N,Net-(U2-Pad11)*
X0003470334Y0002135433D03*
G04 #@! TO.P,U2,10*
G04 #@! TO.N,Net-(U2-Pad10)*
X0003520334Y0002135433D03*
G04 #@! TO.P,U2,9*
G04 #@! TO.N,Net-(U2-Pad9)*
X0003570334Y0002135433D03*
G04 #@! TO.P,U2,8*
G04 #@! TO.N,GND*
X0003570334Y0002385433D03*
G04 #@! TO.P,U2,7*
G04 #@! TO.N,Net-(U2-Pad7)*
X0003520334Y0002385433D03*
G04 #@! TO.P,U2,6*
G04 #@! TO.N,Net-(D1-Pad2)*
X0003470334Y0002385433D03*
G04 #@! TO.P,U2,5*
G04 #@! TO.N,Net-(R1-Pad1)*
X0003420334Y0002385433D03*
G04 #@! TO.P,U2,4*
G04 #@! TO.N,Net-(U2-Pad4)*
X0003370334Y0002385433D03*
G04 #@! TO.P,U2,3*
G04 #@! TO.N,Net-(U2-Pad3)*
X0003320334Y0002385433D03*
G04 #@! TO.P,U2,2*
G04 #@! TO.N,Net-(U2-Pad2)*
X0003270334Y0002385433D03*
G04 #@! TO.P,U2,1*
G04 #@! TO.N,Net-(JP1-Pad2)*
X0003220334Y0002385433D03*
G04 #@! TO.P,U2,15*
G04 #@! TO.N,RST*
X0003270334Y0002135433D03*
G04 #@! TD*
D93*
G04 #@! TO.P,J1,6*
G04 #@! TO.N,BT1*
X0003172874Y0002692933D03*
G04 #@! TO.P,J1,7*
G04 #@! TO.N,VCC*
X0003282716Y0002692933D03*
G04 #@! TO.P,J1,8*
G04 #@! TO.N,GND*
X0003392952Y0002692933D03*
G04 #@! TO.P,J1,9*
G04 #@! TO.N,BT2*
X0003502795Y0002692933D03*
G04 #@! TD*
D94*
G04 #@! TO.P,R1,1*
G04 #@! TO.N,Net-(R1-Pad1)*
X0003463484Y0001977933D03*
G04 #@! TO.P,R1,2*
G04 #@! TO.N,Net-(Q1-Pad1)*
X0003357185Y0001977933D03*
G04 #@! TD*
G04 #@! TO.P,R3,1*
G04 #@! TO.N,Net-(R3-Pad1)*
X0003263484Y0001980433D03*
G04 #@! TO.P,R3,2*
G04 #@! TO.N,THR*
X0003157185Y0001980433D03*
G04 #@! TD*
D95*
G04 #@! TO.P,JP1,1*
G04 #@! TO.N,Net-(JP1-Pad1)*
X0003102834Y0002212933D03*
D96*
G04 #@! TO.P,JP1,2*
G04 #@! TO.N,Net-(JP1-Pad2)*
X0003102834Y0002262933D03*
G04 #@! TO.P,JP1,3*
G04 #@! TO.N,RST*
X0003102834Y0002312933D03*
G04 #@! TD*
D97*
G04 #@! TO.P,Q2,1*
G04 #@! TO.N,Net-(Q2-Pad1)*
X0003550236Y0001596062D03*
G04 #@! TO.P,Q2,2*
G04 #@! TO.N,GND*
X0003475433Y0001596062D03*
G04 #@! TO.P,Q2,3*
G04 #@! TO.N,BT2*
X0003512834Y0001674803D03*
G04 #@! TD*
G04 #@! TO.P,Q1,1*
G04 #@! TO.N,Net-(Q1-Pad1)*
X0003250236Y0001596062D03*
G04 #@! TO.P,Q1,2*
G04 #@! TO.N,GND*
X0003175433Y0001596062D03*
G04 #@! TO.P,Q1,3*
G04 #@! TO.N,BT3*
X0003212834Y0001674803D03*
G04 #@! TD*
D98*
G04 #@! TO.N,VCC*
X0003102834Y0002110433D03*
X0003067834Y0002522933D03*
X0003457834Y0001912933D03*
X0003207834Y0002320433D03*
X0003432834Y0001770433D03*
X0003307834Y0001645433D03*
G04 #@! TO.N,GND*
X0003072834Y0001815433D03*
X0003537834Y0002435433D03*
X0003487834Y0002555433D03*
X0003370334Y0002087933D03*
X0003577834Y0002320433D03*
X0003522834Y0002200433D03*
X0003117834Y0001915433D03*
X0003212834Y0001915433D03*
G04 #@! TO.N,THR*
X0003182834Y0001790433D03*
X0003282834Y0001790433D03*
X0003157834Y0001915433D03*
G04 #@! TO.N,Net-(U1-Pad3)*
X0003182834Y0001750433D03*
X0003057834Y0001875433D03*
X0003287834Y0002080433D03*
G04 #@! TO.N,RST*
X0003247834Y0002085433D03*
G04 #@! TO.N,Net-(C1-Pad1)*
X0003282834Y0001745433D03*
X0003387834Y0001915433D03*
G04 #@! TO.N,Net-(U2-Pad10)*
X0003452834Y0002085433D03*
G04 #@! TO.N,Net-(U2-Pad7)*
X0003472834Y0002320433D03*
G04 #@! TO.N,Net-(U2-Pad4)*
X0003322834Y0002320433D03*
G04 #@! TO.N,Net-(U2-Pad3)*
X0003242834Y0002250433D03*
G04 #@! TO.N,Net-(U2-Pad2)*
X0003272834Y0002320433D03*
G04 #@! TO.N,RIGHT*
X0003437834Y0002522933D03*
X0003162834Y0002435433D03*
G04 #@! TO.N,BT3*
X0003212834Y0001620433D03*
G04 #@! TO.N,BT1*
X0003372834Y0002510433D03*
G04 #@! TO.N,Net-(R1-Pad1)*
X0003222834Y0002200433D03*
X0003202834Y0002085433D03*
G04 #@! TO.N,Net-(R3-Pad1)*
X0003497834Y0001805433D03*
X0003292834Y0001915433D03*
X0003407834Y0001805433D03*
G04 #@! TO.N,Net-(JP1-Pad1)*
X0003575334Y0001657933D03*
G04 #@! TO.N,Net-(Q2-Pad1)*
X0003462834Y0001655433D03*
G04 #@! TO.N,Net-(D1-Pad2)*
X0003327834Y0002440433D03*
G04 #@! TD*
D99*
G04 #@! TO.N,*
X0003172834Y0002135433D02*
X0003172834Y0002132933D01*
G04 #@! TO.N,Net-(U2-Pad11)*
X0003472834Y0002135433D02*
X0003472834Y0002120433D01*
G04 #@! TO.N,VCC*
X0003067834Y0002522933D02*
X0003255334Y0002522933D01*
X0003220334Y0002135433D02*
X0003202834Y0002135433D01*
X0003192834Y0002125433D02*
X0003202834Y0002135433D01*
X0003117834Y0002125433D02*
X0003192834Y0002125433D01*
X0003102834Y0002110433D02*
X0003117834Y0002125433D01*
X0003282716Y0002550314D02*
X0003282716Y0002692933D01*
X0003255334Y0002522933D02*
X0003282716Y0002550314D01*
X0003282716Y0002692933D02*
X0003282834Y0002690433D01*
X0003220334Y0002135433D02*
X0003220334Y0002142933D01*
X0003220334Y0002142933D02*
X0003262834Y0002185433D01*
X0003500334Y0001912933D02*
X0003457834Y0001912933D01*
X0003525334Y0001937933D02*
X0003500334Y0001912933D01*
X0003525334Y0002015433D02*
X0003525334Y0001937933D01*
X0003495334Y0002045433D02*
X0003525334Y0002015433D01*
X0003370334Y0002045433D02*
X0003495334Y0002045433D01*
X0003345334Y0002070433D02*
X0003370334Y0002045433D01*
X0003345334Y0002180433D02*
X0003345334Y0002070433D01*
X0003340334Y0002185433D02*
X0003345334Y0002180433D01*
X0003262834Y0002185433D02*
X0003340334Y0002185433D01*
X0003207834Y0002320433D02*
X0003207834Y0002225433D01*
X0003207834Y0002225433D02*
X0003197834Y0002215433D01*
X0003197834Y0002215433D02*
X0003197834Y0002160433D01*
X0003222834Y0002135433D02*
X0003197834Y0002160433D01*
X0003297716Y0002690433D02*
X0003297834Y0002690433D01*
X0003297834Y0002690433D02*
X0003297834Y0002635433D01*
X0003222834Y0002135433D02*
X0003220334Y0002135433D01*
X0003297716Y0002690433D02*
X0003297834Y0002690433D01*
X0003222834Y0002135433D02*
X0003222834Y0002150433D01*
X0003432834Y0001770433D02*
X0003307834Y0001645433D01*
G04 #@! TO.N,GND*
X0003175433Y0001596062D02*
X0003142204Y0001596062D01*
X0003072834Y0001665433D02*
X0003072834Y0001815433D01*
X0003142204Y0001596062D02*
X0003072834Y0001665433D01*
X0003175433Y0001596062D02*
X0003175433Y0001572834D01*
X0003175433Y0001572834D02*
X0003212834Y0001535433D01*
X0003212834Y0001535433D02*
X0003432834Y0001535433D01*
X0003432834Y0001535433D02*
X0003475433Y0001578031D01*
X0003475433Y0001578031D02*
X0003475433Y0001596062D01*
X0003487834Y0002555433D02*
X0003422834Y0002555433D01*
X0003572834Y0002400433D02*
X0003537834Y0002435433D01*
X0003392952Y0002585314D02*
X0003392952Y0002692933D01*
X0003422834Y0002555433D02*
X0003392952Y0002585314D01*
X0003370334Y0002087933D02*
X0003370334Y0002135433D01*
X0003570334Y0002385433D02*
X0003572834Y0002385433D01*
X0003572834Y0002385433D02*
X0003572834Y0002400433D01*
X0003407834Y0002690433D02*
X0003407952Y0002690433D01*
X0003577834Y0002320433D02*
X0003577834Y0002380433D01*
X0003577834Y0002380433D02*
X0003572834Y0002385433D01*
X0003572834Y0002385433D02*
X0003570334Y0002385433D01*
X0003372834Y0002135433D02*
X0003370334Y0002135433D01*
X0003370334Y0002135433D02*
X0003372834Y0002135433D01*
X0003372834Y0002135433D02*
X0003372834Y0002155433D01*
X0003372834Y0002155433D02*
X0003417834Y0002200433D01*
X0003417834Y0002200433D02*
X0003522834Y0002200433D01*
X0003407834Y0002690433D02*
X0003407952Y0002690433D01*
X0003117834Y0001915433D02*
X0003142834Y0001890433D01*
X0003142834Y0001890433D02*
X0003172834Y0001890433D01*
X0003172834Y0001890433D02*
X0003197834Y0001915433D01*
X0003197834Y0001915433D02*
X0003212834Y0001915433D01*
G04 #@! TO.N,THR*
X0003182834Y0001790433D02*
X0003282834Y0001790433D01*
X0003157834Y0001915433D02*
X0003157834Y0001980433D01*
X0003157834Y0001980433D02*
X0003157185Y0001980433D01*
G04 #@! TO.N,Net-(U1-Pad3)*
X0003182834Y0001750433D02*
X0003057834Y0001875433D01*
X0003287834Y0002080433D02*
X0003287834Y0002085433D01*
X0003287834Y0002085433D02*
X0003297834Y0002095433D01*
X0003297834Y0002095433D02*
X0003297834Y0002110433D01*
X0003297834Y0002110433D02*
X0003322834Y0002135433D01*
X0003322834Y0002135433D02*
X0003320334Y0002135433D01*
X0003322834Y0002135433D02*
X0003322834Y0002150433D01*
G04 #@! TO.N,RST*
X0003270334Y0002135433D02*
X0003272834Y0002135433D01*
X0003272834Y0002135433D02*
X0003272834Y0002110433D01*
X0003272834Y0002110433D02*
X0003247834Y0002085433D01*
G04 #@! TO.N,Net-(C1-Pad1)*
X0003282834Y0001745433D02*
X0003282834Y0001750433D01*
X0003282834Y0001750433D02*
X0003307834Y0001775433D01*
X0003307834Y0001775433D02*
X0003307834Y0001835433D01*
X0003307834Y0001835433D02*
X0003387834Y0001915433D01*
G04 #@! TO.N,Net-(U2-Pad10)*
X0003520334Y0002135433D02*
X0003522834Y0002135433D01*
X0003522834Y0002135433D02*
X0003522834Y0002120433D01*
X0003522834Y0002120433D02*
X0003487834Y0002085433D01*
X0003487834Y0002085433D02*
X0003452834Y0002085433D01*
G04 #@! TO.N,Net-(U2-Pad7)*
X0003472834Y0002320433D02*
X0003497834Y0002345433D01*
X0003497834Y0002345433D02*
X0003497834Y0002360433D01*
X0003497834Y0002360433D02*
X0003522834Y0002385433D01*
X0003522834Y0002385433D02*
X0003520334Y0002385433D01*
X0003522834Y0002385433D02*
X0003522834Y0002400433D01*
X0003527834Y0002380433D02*
X0003522834Y0002385433D01*
G04 #@! TO.N,Net-(U2-Pad4)*
X0003370334Y0002385433D02*
X0003372834Y0002385433D01*
X0003372834Y0002385433D02*
X0003372834Y0002370433D01*
X0003372834Y0002370433D02*
X0003322834Y0002320433D01*
G04 #@! TO.N,Net-(U2-Pad3)*
X0003320334Y0002385433D02*
X0003322834Y0002385433D01*
X0003322834Y0002385433D02*
X0003322834Y0002360433D01*
X0003322834Y0002360433D02*
X0003297834Y0002335433D01*
X0003297834Y0002335433D02*
X0003297834Y0002305433D01*
X0003297834Y0002305433D02*
X0003242834Y0002250433D01*
X0003322834Y0002385433D02*
X0003322834Y0002365433D01*
G04 #@! TO.N,Net-(U2-Pad2)*
X0003270334Y0002385433D02*
X0003272834Y0002385433D01*
X0003272834Y0002385433D02*
X0003272834Y0002320433D01*
G04 #@! TO.N,RIGHT*
X0003162834Y0002437933D02*
X0003207834Y0002482933D01*
X0003207834Y0002482933D02*
X0003397834Y0002482933D01*
X0003397834Y0002482933D02*
X0003437834Y0002522933D01*
X0003162834Y0002435433D02*
X0003162834Y0002437933D01*
G04 #@! TO.N,BT3*
X0003212834Y0001620433D02*
X0003212834Y0001674803D01*
G04 #@! TO.N,BT1*
X0003172874Y0002585472D02*
X0003145334Y0002557933D01*
X0003145334Y0002557933D02*
X0003055334Y0002557933D01*
X0003055334Y0002557933D02*
X0003035334Y0002537933D01*
X0003035334Y0002537933D02*
X0003035334Y0002505433D01*
X0003035334Y0002505433D02*
X0003047834Y0002492933D01*
X0003047834Y0002492933D02*
X0003177834Y0002492933D01*
X0003177834Y0002492933D02*
X0003187834Y0002502933D01*
X0003187834Y0002502933D02*
X0003365334Y0002502933D01*
X0003365334Y0002502933D02*
X0003372834Y0002510433D01*
X0003172874Y0002692933D02*
X0003172874Y0002585472D01*
X0003187874Y0002690433D02*
X0003187834Y0002690433D01*
X0003187834Y0002690433D02*
X0003187874Y0002690433D01*
G04 #@! TO.N,BT2*
X0003502795Y0002692933D02*
X0003502795Y0002590472D01*
X0003617834Y0001779803D02*
X0003512834Y0001674803D01*
X0003617834Y0002475433D02*
X0003617834Y0001779803D01*
X0003502795Y0002590472D02*
X0003617834Y0002475433D01*
X0003517834Y0002690433D02*
X0003517795Y0002690433D01*
G04 #@! TO.N,Net-(R1-Pad1)*
X0003420334Y0002385433D02*
X0003422834Y0002385433D01*
X0003422834Y0002385433D02*
X0003422834Y0002370433D01*
X0003422834Y0002370433D02*
X0003252834Y0002200433D01*
X0003252834Y0002200433D02*
X0003222834Y0002200433D01*
X0003202834Y0002085433D02*
X0003267834Y0002020433D01*
X0003267834Y0002020433D02*
X0003402834Y0002020433D01*
X0003402834Y0002020433D02*
X0003447834Y0001975433D01*
X0003447834Y0001975433D02*
X0003462834Y0001975433D01*
X0003462834Y0001975433D02*
X0003463484Y0001977933D01*
X0003463484Y0001977933D02*
X0003462834Y0001975433D01*
G04 #@! TO.N,Net-(R3-Pad1)*
X0003263484Y0001980433D02*
X0003262834Y0001980433D01*
X0003262834Y0001980433D02*
X0003262834Y0001945433D01*
X0003262834Y0001945433D02*
X0003292834Y0001915433D01*
X0003407834Y0001805433D02*
X0003497834Y0001805433D01*
G04 #@! TO.N,Net-(JP1-Pad1)*
X0003102834Y0002212933D02*
X0003102834Y0002157933D01*
X0003102834Y0002157933D02*
X0003027834Y0002082933D01*
X0003027834Y0002082933D02*
X0003027834Y0001632933D01*
X0003027834Y0001632933D02*
X0003155334Y0001505433D01*
X0003617834Y0001615433D02*
X0003575334Y0001657933D01*
X0003617834Y0001532933D02*
X0003617834Y0001615433D01*
X0003590334Y0001505433D02*
X0003617834Y0001532933D01*
X0003155334Y0001505433D02*
X0003590334Y0001505433D01*
G04 #@! TO.N,Net-(JP1-Pad2)*
X0003102834Y0002262933D02*
X0003102834Y0002260433D01*
X0003102834Y0002260433D02*
X0003122834Y0002280433D01*
X0003122834Y0002280433D02*
X0003137834Y0002280433D01*
X0003137834Y0002280433D02*
X0003137834Y0002300433D01*
X0003137834Y0002300433D02*
X0003222834Y0002385433D01*
X0003222834Y0002385433D02*
X0003220334Y0002385433D01*
G04 #@! TO.N,Net-(Q2-Pad1)*
X0003462834Y0001655433D02*
X0003482834Y0001635433D01*
X0003510866Y0001635433D02*
X0003550236Y0001596062D01*
X0003482834Y0001635433D02*
X0003510866Y0001635433D01*
G04 #@! TO.N,Net-(Q1-Pad1)*
X0003250236Y0001632834D02*
X0003352834Y0001735433D01*
X0003250236Y0001596062D02*
X0003250236Y0001632834D01*
X0003422834Y0001925433D02*
X0003370334Y0001977933D01*
X0003422834Y0001890433D02*
X0003422834Y0001925433D01*
X0003352834Y0001820433D02*
X0003422834Y0001890433D01*
X0003352834Y0001735433D02*
X0003352834Y0001820433D01*
X0003370334Y0001977933D02*
X0003357185Y0001977933D01*
X0003357185Y0001977933D02*
X0003357834Y0001975433D01*
G04 #@! TO.N,Net-(D1-Pad2)*
X0003470334Y0002385433D02*
X0003470334Y0002417933D01*
X0003447834Y0002440433D02*
X0003327834Y0002440433D01*
X0003470334Y0002417933D02*
X0003447834Y0002440433D01*
X0003472834Y0002385433D02*
X0003470334Y0002385433D01*
G04 #@! TD*
M02*