%MOIN*%
%OFA0B0*%
%FSLAX44Y44*%
%IPPOS*%
%LPD*%
%ADD10C,0*%
D10*
X00029123Y00018826D02*
X00029123Y00018826D01*
X00029123Y00024087D01*
X00029123Y00024112D01*
X00029126Y00024137D01*
X00029130Y00024161D01*
X00029135Y00024186D01*
X00029142Y00024210D01*
X00029151Y00024233D01*
X00029161Y00024256D01*
X00029172Y00024278D01*
X00029185Y00024300D01*
X00029199Y00024321D01*
X00029215Y00024340D01*
X00029232Y00024359D01*
X00029250Y00024376D01*
X00029269Y00024393D01*
X00029288Y00024408D01*
X00029309Y00024422D01*
X00029331Y00024434D01*
X00029353Y00024445D01*
X00029377Y00024455D01*
X00029400Y00024463D01*
X00029493Y00024492D01*
X00029529Y00024501D01*
X00029565Y00024507D01*
X00029602Y00024509D01*
X00029639Y00024508D01*
X00029675Y00024503D01*
X00029711Y00024496D01*
X00029746Y00024484D01*
X00029780Y00024470D01*
X00029812Y00024453D01*
X00029843Y00024432D01*
X00029872Y00024409D01*
X00029898Y00024383D01*
X00029922Y00024355D01*
X00029943Y00024325D01*
X00029961Y00024293D01*
X00029976Y00024259D01*
X00029987Y00024224D01*
X00029996Y00024189D01*
X00030001Y00024152D01*
X00030003Y00024115D01*
X00030003Y00018797D01*
X00030001Y00018760D01*
X00029996Y00018724D01*
X00029987Y00018688D01*
X00029976Y00018653D01*
X00029961Y00018620D01*
X00029943Y00018588D01*
X00029922Y00018557D01*
X00029898Y00018529D01*
X00029872Y00018504D01*
X00029843Y00018480D01*
X00029812Y00018460D01*
X00029780Y00018442D01*
X00029746Y00018428D01*
X00029711Y00018417D01*
X00029675Y00018409D01*
X00029639Y00018404D01*
X00029602Y00018403D01*
X00029565Y00018406D01*
X00029529Y00018412D01*
X00029493Y00018421D01*
X00029400Y00018449D01*
X00029377Y00018458D01*
X00029353Y00018467D01*
X00029331Y00018478D01*
X00029309Y00018491D01*
X00029288Y00018505D01*
X00029269Y00018520D01*
X00029250Y00018536D01*
X00029232Y00018554D01*
X00029215Y00018572D01*
X00029199Y00018592D01*
X00029185Y00018612D01*
X00029172Y00018634D01*
X00029161Y00018656D01*
X00029151Y00018679D01*
X00029142Y00018703D01*
X00029135Y00018727D01*
X00029130Y00018751D01*
X00029126Y00018776D01*
X00029123Y00018801D01*
X00029123Y00018826D01*
X00029123Y00013437D02*
X00029123Y00013437D01*
X00027508Y00013437D01*
X00027490Y00013437D01*
X00027471Y00013439D01*
X00027453Y00013441D01*
X00027435Y00013444D01*
X00027417Y00013448D01*
X00027399Y00013452D01*
X00027381Y00013458D01*
X00027364Y00013464D01*
X00027347Y00013471D01*
X00027330Y00013479D01*
X00027314Y00013488D01*
X00027298Y00013497D01*
X00027283Y00013507D01*
X00027268Y00013518D01*
X00027254Y00013530D01*
X00027240Y00013542D01*
X00027227Y00013555D01*
X00027214Y00013568D01*
X00027202Y00013582D01*
X00027191Y00013597D01*
X00026930Y00013952D01*
X00026906Y00013988D01*
X00026886Y00014027D01*
X00026871Y00014067D01*
X00026860Y00014109D01*
X00026854Y00014152D01*
X00026853Y00014196D01*
X00026857Y00014239D01*
X00026865Y00014281D01*
X00026878Y00014323D01*
X00026895Y00014363D01*
X00026917Y00014400D01*
X00026942Y00014435D01*
X00026972Y00014467D01*
X00027005Y00014496D01*
X00027040Y00014520D01*
X00027078Y00014541D01*
X00027119Y00014557D01*
X00027160Y00014569D01*
X00027203Y00014576D01*
X00027247Y00014579D01*
X00029123Y00014579D01*
X00029123Y00016606D01*
X00029123Y00016631D01*
X00029126Y00016656D01*
X00029130Y00016681D01*
X00029135Y00016705D01*
X00029142Y00016729D01*
X00029151Y00016753D01*
X00029161Y00016776D01*
X00029172Y00016798D01*
X00029185Y00016820D01*
X00029199Y00016840D01*
X00029215Y00016860D01*
X00029232Y00016878D01*
X00029250Y00016896D01*
X00029269Y00016912D01*
X00029288Y00016927D01*
X00029309Y00016941D01*
X00029331Y00016954D01*
X00029353Y00016965D01*
X00029377Y00016974D01*
X00029400Y00016983D01*
X00029493Y00017011D01*
X00029529Y00017020D01*
X00029565Y00017026D01*
X00029602Y00017029D01*
X00029639Y00017028D01*
X00029675Y00017023D01*
X00029711Y00017015D01*
X00029746Y00017004D01*
X00029780Y00016990D01*
X00029812Y00016972D01*
X00029843Y00016952D01*
X00029872Y00016929D01*
X00029898Y00016903D01*
X00029922Y00016875D01*
X00029943Y00016844D01*
X00029961Y00016812D01*
X00029976Y00016779D01*
X00029987Y00016744D01*
X00029996Y00016708D01*
X00030001Y00016672D01*
X00030003Y00016635D01*
X00030003Y00014579D01*
X00032595Y00014579D01*
X00032638Y00014576D01*
X00032681Y00014569D01*
X00032723Y00014557D01*
X00032763Y00014541D01*
X00032801Y00014520D01*
X00032837Y00014496D01*
X00032870Y00014467D01*
X00032899Y00014435D01*
X00032925Y00014400D01*
X00032946Y00014363D01*
X00032964Y00014323D01*
X00032977Y00014281D01*
X00032985Y00014239D01*
X00032989Y00014196D01*
X00032987Y00014152D01*
X00032981Y00014109D01*
X00032971Y00014067D01*
X00032955Y00014027D01*
X00032936Y00013988D01*
X00032912Y00013952D01*
X00032650Y00013597D01*
X00032639Y00013582D01*
X00032627Y00013568D01*
X00032615Y00013555D01*
X00032602Y00013542D01*
X00032588Y00013530D01*
X00032573Y00013518D01*
X00032559Y00013507D01*
X00032543Y00013497D01*
X00032527Y00013488D01*
X00032511Y00013479D01*
X00032494Y00013471D01*
X00032478Y00013464D01*
X00032460Y00013458D01*
X00032443Y00013452D01*
X00032425Y00013448D01*
X00032407Y00013444D01*
X00032389Y00013441D01*
X00032370Y00013439D01*
X00032352Y00013437D01*
X00032334Y00013437D01*
X00030003Y00013437D01*
X00030003Y00012104D01*
X00030001Y00012067D01*
X00029996Y00012031D01*
X00029987Y00011995D01*
X00029976Y00011960D01*
X00029961Y00011927D01*
X00029943Y00011895D01*
X00029922Y00011865D01*
X00029898Y00011836D01*
X00029872Y00011811D01*
X00029843Y00011787D01*
X00029812Y00011767D01*
X00029780Y00011749D01*
X00029746Y00011735D01*
X00029711Y00011724D01*
X00029675Y00011716D01*
X00029639Y00011712D01*
X00029602Y00011711D01*
X00029565Y00011713D01*
X00029529Y00011719D01*
X00029493Y00011728D01*
X00029400Y00011757D01*
X00029377Y00011765D01*
X00029353Y00011774D01*
X00029331Y00011785D01*
X00029309Y00011798D01*
X00029288Y00011812D01*
X00029269Y00011827D01*
X00029250Y00011843D01*
X00029232Y00011861D01*
X00029215Y00011879D01*
X00029199Y00011899D01*
X00029185Y00011920D01*
X00029172Y00011941D01*
X00029161Y00011963D01*
X00029151Y00011986D01*
X00029142Y00012010D01*
X00029135Y00012034D01*
X00029130Y00012058D01*
X00029126Y00012083D01*
X00029123Y00012108D01*
X00029123Y00012133D01*
X00029123Y00013437D01*
X00014162Y00012368D02*
X00014162Y00012368D01*
X00014162Y00013437D01*
X00012154Y00013437D01*
X00012135Y00013437D01*
X00012117Y00013439D01*
X00012099Y00013441D01*
X00012080Y00013444D01*
X00012062Y00013448D01*
X00012045Y00013452D01*
X00012027Y00013458D01*
X00012010Y00013464D01*
X00011993Y00013471D01*
X00011976Y00013479D01*
X00011960Y00013488D01*
X00011944Y00013497D01*
X00011929Y00013507D01*
X00011914Y00013518D01*
X00011899Y00013530D01*
X00011886Y00013542D01*
X00011872Y00013555D01*
X00011860Y00013568D01*
X00011848Y00013582D01*
X00011837Y00013597D01*
X00011575Y00013952D01*
X00011552Y00013988D01*
X00011532Y00014027D01*
X00011517Y00014067D01*
X00011506Y00014109D01*
X00011500Y00014152D01*
X00011499Y00014196D01*
X00011502Y00014239D01*
X00011510Y00014281D01*
X00011523Y00014323D01*
X00011541Y00014363D01*
X00011562Y00014400D01*
X00011588Y00014435D01*
X00011618Y00014467D01*
X00011650Y00014496D01*
X00011686Y00014520D01*
X00011724Y00014541D01*
X00011764Y00014557D01*
X00011806Y00014569D01*
X00011849Y00014576D01*
X00011892Y00014579D01*
X00014162Y00014579D01*
X00014162Y00016606D01*
X00014163Y00016631D01*
X00014165Y00016656D01*
X00014169Y00016681D01*
X00014175Y00016705D01*
X00014182Y00016729D01*
X00014190Y00016753D01*
X00014200Y00016776D01*
X00014212Y00016798D01*
X00014225Y00016820D01*
X00014239Y00016840D01*
X00014254Y00016860D01*
X00014271Y00016878D01*
X00014289Y00016896D01*
X00014308Y00016912D01*
X00014328Y00016927D01*
X00014349Y00016941D01*
X00014370Y00016954D01*
X00014393Y00016965D01*
X00014416Y00016974D01*
X00014440Y00016983D01*
X00014533Y00017011D01*
X00014568Y00017020D01*
X00014605Y00017026D01*
X00014641Y00017029D01*
X00014678Y00017028D01*
X00014715Y00017023D01*
X00014750Y00017015D01*
X00014786Y00017004D01*
X00014819Y00016990D01*
X00014852Y00016972D01*
X00014882Y00016952D01*
X00014911Y00016929D01*
X00014937Y00016903D01*
X00014961Y00016875D01*
X00014982Y00016844D01*
X00015000Y00016812D01*
X00015015Y00016779D01*
X00015027Y00016744D01*
X00015035Y00016708D01*
X00015040Y00016672D01*
X00015042Y00016635D01*
X00015042Y00014579D01*
X00017620Y00014579D01*
X00017652Y00014577D01*
X00017685Y00014574D01*
X00017716Y00014567D01*
X00017747Y00014558D01*
X00017778Y00014546D01*
X00017807Y00014532D01*
X00017835Y00014515D01*
X00017861Y00014496D01*
X00017886Y00014476D01*
X00017909Y00014453D01*
X00017930Y00014428D01*
X00017949Y00014402D01*
X00017966Y00014374D01*
X00017980Y00014345D01*
X00017992Y00014315D01*
X00018001Y00014284D01*
X00018008Y00014252D01*
X00018012Y00014220D01*
X00018014Y00014188D01*
X00018013Y00014155D01*
X00017986Y00013801D01*
X00017982Y00013771D01*
X00017977Y00013742D01*
X00017969Y00013714D01*
X00017959Y00013686D01*
X00017947Y00013659D01*
X00017934Y00013633D01*
X00017918Y00013609D01*
X00017901Y00013585D01*
X00017881Y00013563D01*
X00017861Y00013542D01*
X00017838Y00013523D01*
X00017815Y00013505D01*
X00017790Y00013490D01*
X00017764Y00013476D01*
X00017737Y00013464D01*
X00017709Y00013454D01*
X00017680Y00013447D01*
X00017652Y00013441D01*
X00017622Y00013438D01*
X00017593Y00013437D01*
X00015042Y00013437D01*
X00015042Y00012466D01*
X00015042Y00012451D01*
X00015041Y00012436D01*
X00015040Y00012421D01*
X00015038Y00012406D01*
X00015035Y00012392D01*
X00015032Y00012377D01*
X00015028Y00012362D01*
X00015024Y00012348D01*
X00015019Y00012334D01*
X00015014Y00012320D01*
X00015008Y00012306D01*
X00015002Y00012293D01*
X00014995Y00012279D01*
X00014988Y00012266D01*
X00014980Y00012254D01*
X00014972Y00012241D01*
X00014963Y00012229D01*
X00014954Y00012217D01*
X00014944Y00012206D01*
X00014934Y00012195D01*
X00014841Y00012097D01*
X00014807Y00012065D01*
X00014769Y00012037D01*
X00014728Y00012014D01*
X00014685Y00011996D01*
X00014640Y00011983D01*
X00014594Y00011976D01*
X00014547Y00011974D01*
X00014500Y00011978D01*
X00014454Y00011987D01*
X00014410Y00012002D01*
X00014367Y00012022D01*
X00014328Y00012047D01*
X00014291Y00012076D01*
X00014258Y00012110D01*
X00014230Y00012147D01*
X00014206Y00012187D01*
X00014187Y00012230D01*
X00014173Y00012275D01*
X00014165Y00012321D01*
X00014162Y00012368D01*
X00006600Y00012192D02*
X00006600Y00012192D01*
X00006600Y00013425D01*
X00004669Y00013425D01*
X00004651Y00013425D01*
X00004632Y00013426D01*
X00004613Y00013429D01*
X00004594Y00013432D01*
X00004576Y00013436D01*
X00004558Y00013441D01*
X00004540Y00013446D01*
X00004522Y00013453D01*
X00004505Y00013461D01*
X00004488Y00013469D01*
X00004471Y00013478D01*
X00004455Y00013488D01*
X00004440Y00013499D01*
X00004425Y00013510D01*
X00004410Y00013522D01*
X00004396Y00013535D01*
X00004383Y00013548D01*
X00004370Y00013562D01*
X00004358Y00013577D01*
X00004347Y00013592D01*
X00004090Y00013959D01*
X00004067Y00013995D01*
X00004048Y00014034D01*
X00004034Y00014075D01*
X00004024Y00014116D01*
X00004019Y00014159D01*
X00004019Y00014202D01*
X00004023Y00014245D01*
X00004032Y00014287D01*
X00004045Y00014328D01*
X00004063Y00014367D01*
X00004084Y00014404D01*
X00004110Y00014438D01*
X00004140Y00014469D01*
X00004172Y00014497D01*
X00004208Y00014522D01*
X00004245Y00014542D01*
X00004285Y00014558D01*
X00004327Y00014569D01*
X00004369Y00014576D01*
X00004412Y00014579D01*
X00006682Y00014579D01*
X00006682Y00016606D01*
X00006682Y00016631D01*
X00006685Y00016656D01*
X00006689Y00016681D01*
X00006694Y00016705D01*
X00006701Y00016729D01*
X00006710Y00016753D01*
X00006720Y00016776D01*
X00006731Y00016798D01*
X00006744Y00016820D01*
X00006759Y00016840D01*
X00006774Y00016860D01*
X00006791Y00016878D01*
X00006809Y00016896D01*
X00006828Y00016912D01*
X00006848Y00016927D01*
X00006868Y00016941D01*
X00006890Y00016954D01*
X00006913Y00016965D01*
X00006936Y00016974D01*
X00006959Y00016983D01*
X00007052Y00017011D01*
X00007088Y00017020D01*
X00007124Y00017026D01*
X00007161Y00017029D01*
X00007198Y00017028D01*
X00007234Y00017023D01*
X00007270Y00017015D01*
X00007305Y00017004D01*
X00007339Y00016990D01*
X00007371Y00016972D01*
X00007402Y00016952D01*
X00007431Y00016929D01*
X00007457Y00016903D01*
X00007481Y00016875D01*
X00007502Y00016844D01*
X00007520Y00016812D01*
X00007535Y00016779D01*
X00007547Y00016744D01*
X00007555Y00016708D01*
X00007560Y00016672D01*
X00007562Y00016635D01*
X00007562Y00014579D01*
X00010154Y00014579D01*
X00010197Y00014576D01*
X00010240Y00014569D01*
X00010282Y00014557D01*
X00010322Y00014541D01*
X00010360Y00014520D01*
X00010396Y00014496D01*
X00010429Y00014467D01*
X00010458Y00014435D01*
X00010484Y00014400D01*
X00010505Y00014363D01*
X00010523Y00014323D01*
X00010536Y00014281D01*
X00010544Y00014239D01*
X00010548Y00014196D01*
X00010546Y00014152D01*
X00010540Y00014109D01*
X00010530Y00014067D01*
X00010514Y00014027D01*
X00010495Y00013988D01*
X00010471Y00013952D01*
X00010210Y00013597D01*
X00010198Y00013582D01*
X00010186Y00013568D01*
X00010174Y00013555D01*
X00010161Y00013542D01*
X00010147Y00013530D01*
X00010132Y00013518D01*
X00010118Y00013507D01*
X00010102Y00013497D01*
X00010086Y00013488D01*
X00010070Y00013479D01*
X00010054Y00013471D01*
X00010037Y00013464D01*
X00010019Y00013458D01*
X00010002Y00013452D01*
X00009984Y00013448D01*
X00009966Y00013444D01*
X00009948Y00013441D01*
X00009929Y00013439D01*
X00009911Y00013437D01*
X00009893Y00013437D01*
X00007562Y00013437D01*
X00007562Y00012334D01*
X00007562Y00012316D01*
X00007560Y00012299D01*
X00007558Y00012281D01*
X00007556Y00012264D01*
X00007552Y00012247D01*
X00007548Y00012230D01*
X00007543Y00012213D01*
X00007537Y00012197D01*
X00007531Y00012180D01*
X00007524Y00012164D01*
X00007516Y00012149D01*
X00007507Y00012133D01*
X00007498Y00012119D01*
X00007488Y00012104D01*
X00007477Y00012090D01*
X00007466Y00012077D01*
X00007455Y00012064D01*
X00007442Y00012051D01*
X00007429Y00012039D01*
X00007416Y00012028D01*
X00007241Y00011886D01*
X00007205Y00011860D01*
X00007167Y00011838D01*
X00007126Y00011821D01*
X00007083Y00011809D01*
X00007040Y00011801D01*
X00006995Y00011798D01*
X00006951Y00011800D01*
X00006907Y00011808D01*
X00006865Y00011820D01*
X00006824Y00011837D01*
X00006785Y00011858D01*
X00006749Y00011883D01*
X00006716Y00011913D01*
X00006686Y00011946D01*
X00006660Y00011982D01*
X00006639Y00012021D01*
X00006622Y00012061D01*
X00006609Y00012104D01*
X00006602Y00012148D01*
X00006600Y00012192D01*
X00014162Y00024087D02*
X00014162Y00024087D01*
X00014163Y00024112D01*
X00014165Y00024137D01*
X00014169Y00024161D01*
X00014175Y00024186D01*
X00014182Y00024210D01*
X00014190Y00024233D01*
X00014200Y00024256D01*
X00014212Y00024278D01*
X00014225Y00024300D01*
X00014239Y00024321D01*
X00014254Y00024340D01*
X00014271Y00024359D01*
X00014289Y00024376D01*
X00014308Y00024393D01*
X00014328Y00024408D01*
X00014349Y00024422D01*
X00014370Y00024434D01*
X00014393Y00024445D01*
X00014416Y00024455D01*
X00014440Y00024463D01*
X00014533Y00024492D01*
X00014568Y00024501D01*
X00014605Y00024507D01*
X00014641Y00024509D01*
X00014678Y00024508D01*
X00014715Y00024503D01*
X00014750Y00024496D01*
X00014786Y00024484D01*
X00014819Y00024470D01*
X00014852Y00024453D01*
X00014882Y00024432D01*
X00014911Y00024409D01*
X00014937Y00024383D01*
X00014961Y00024355D01*
X00014982Y00024325D01*
X00015000Y00024293D01*
X00015015Y00024259D01*
X00015027Y00024224D01*
X00015035Y00024189D01*
X00015040Y00024152D01*
X00015042Y00024115D01*
X00015042Y00018797D01*
X00015040Y00018760D01*
X00015035Y00018724D01*
X00015027Y00018688D01*
X00015015Y00018653D01*
X00015000Y00018620D01*
X00014982Y00018588D01*
X00014961Y00018557D01*
X00014937Y00018529D01*
X00014911Y00018504D01*
X00014882Y00018480D01*
X00014852Y00018460D01*
X00014819Y00018442D01*
X00014786Y00018428D01*
X00014750Y00018417D01*
X00014715Y00018409D01*
X00014678Y00018404D01*
X00014641Y00018403D01*
X00014605Y00018406D01*
X00014568Y00018412D01*
X00014533Y00018421D01*
X00014440Y00018449D01*
X00014416Y00018458D01*
X00014393Y00018467D01*
X00014370Y00018478D01*
X00014349Y00018491D01*
X00014328Y00018505D01*
X00014308Y00018520D01*
X00014289Y00018536D01*
X00014271Y00018554D01*
X00014254Y00018572D01*
X00014239Y00018592D01*
X00014225Y00018612D01*
X00014212Y00018634D01*
X00014200Y00018656D01*
X00014190Y00018679D01*
X00014182Y00018703D01*
X00014175Y00018727D01*
X00014169Y00018751D01*
X00014165Y00018776D01*
X00014163Y00018801D01*
X00014162Y00018826D01*
X00014162Y00024087D01*
X00021642Y00024087D02*
X00021642Y00024087D01*
X00021643Y00024112D01*
X00021645Y00024137D01*
X00021649Y00024161D01*
X00021655Y00024186D01*
X00021662Y00024210D01*
X00021671Y00024233D01*
X00021681Y00024256D01*
X00021692Y00024278D01*
X00021705Y00024300D01*
X00021719Y00024321D01*
X00021735Y00024340D01*
X00021751Y00024359D01*
X00021769Y00024376D01*
X00021788Y00024393D01*
X00021808Y00024408D01*
X00021829Y00024422D01*
X00021851Y00024434D01*
X00021873Y00024445D01*
X00021896Y00024455D01*
X00021920Y00024463D01*
X00022013Y00024492D01*
X00022049Y00024501D01*
X00022085Y00024507D01*
X00022122Y00024509D01*
X00022158Y00024508D01*
X00022195Y00024503D01*
X00022231Y00024496D01*
X00022266Y00024484D01*
X00022300Y00024470D01*
X00022332Y00024453D01*
X00022363Y00024432D01*
X00022391Y00024409D01*
X00022417Y00024383D01*
X00022441Y00024355D01*
X00022462Y00024325D01*
X00022480Y00024293D01*
X00022495Y00024259D01*
X00022507Y00024224D01*
X00022516Y00024189D01*
X00022521Y00024152D01*
X00022523Y00024115D01*
X00022523Y00018627D01*
X00022520Y00018579D01*
X00022511Y00018532D01*
X00022497Y00018487D01*
X00022477Y00018443D01*
X00022452Y00018402D01*
X00022422Y00018364D01*
X00022388Y00018331D01*
X00022350Y00018301D01*
X00022309Y00018277D01*
X00022265Y00018258D01*
X00022219Y00018244D01*
X00022172Y00018236D01*
X00022124Y00018234D01*
X00022076Y00018237D01*
X00022029Y00018246D01*
X00021983Y00018261D01*
X00021940Y00018282D01*
X00021899Y00018307D01*
X00021862Y00018338D01*
X00021829Y00018372D01*
X00021736Y00018481D01*
X00021727Y00018492D01*
X00021719Y00018503D01*
X00021711Y00018514D01*
X00021703Y00018526D01*
X00021696Y00018538D01*
X00021689Y00018550D01*
X00021683Y00018562D01*
X00021677Y00018575D01*
X00021671Y00018588D01*
X00021666Y00018601D01*
X00021662Y00018614D01*
X00021658Y00018627D01*
X00021654Y00018640D01*
X00021651Y00018654D01*
X00021648Y00018667D01*
X00021646Y00018681D01*
X00021644Y00018695D01*
X00021643Y00018709D01*
X00021642Y00018723D01*
X00021642Y00018736D01*
X00021642Y00024087D01*
X00029123Y00009913D02*
X00029123Y00009913D01*
X00029123Y00009938D01*
X00029126Y00009963D01*
X00029130Y00009988D01*
X00029135Y00010013D01*
X00029142Y00010037D01*
X00029151Y00010060D01*
X00029161Y00010083D01*
X00029172Y00010105D01*
X00029185Y00010127D01*
X00029199Y00010147D01*
X00029215Y00010167D01*
X00029232Y00010186D01*
X00029250Y00010203D01*
X00029269Y00010219D01*
X00029288Y00010235D01*
X00029309Y00010248D01*
X00029331Y00010261D01*
X00029353Y00010272D01*
X00029377Y00010282D01*
X00029400Y00010290D01*
X00029493Y00010318D01*
X00029529Y00010328D01*
X00029565Y00010333D01*
X00029602Y00010336D01*
X00029639Y00010335D01*
X00029675Y00010330D01*
X00029711Y00010322D01*
X00029746Y00010311D01*
X00029780Y00010297D01*
X00029812Y00010279D01*
X00029843Y00010259D01*
X00029872Y00010236D01*
X00029898Y00010210D01*
X00029922Y00010182D01*
X00029943Y00010152D01*
X00029961Y00010119D01*
X00029976Y00010086D01*
X00029987Y00010051D01*
X00029996Y00010015D01*
X00030001Y00009979D01*
X00030003Y00009942D01*
X00030003Y00003836D01*
X00030001Y00003800D01*
X00029996Y00003763D01*
X00029987Y00003727D01*
X00029976Y00003693D01*
X00029961Y00003659D01*
X00029943Y00003627D01*
X00029922Y00003597D01*
X00029898Y00003569D01*
X00029872Y00003543D01*
X00029843Y00003520D01*
X00029812Y00003499D01*
X00029780Y00003482D01*
X00029746Y00003467D01*
X00029711Y00003456D01*
X00029675Y00003448D01*
X00029639Y00003444D01*
X00029602Y00003443D01*
X00029565Y00003445D01*
X00029529Y00003451D01*
X00029493Y00003460D01*
X00029400Y00003489D01*
X00029377Y00003497D01*
X00029353Y00003507D01*
X00029331Y00003518D01*
X00029309Y00003530D01*
X00029288Y00003544D01*
X00029269Y00003559D01*
X00029250Y00003575D01*
X00029232Y00003593D01*
X00029215Y00003612D01*
X00029199Y00003631D01*
X00029185Y00003652D01*
X00029172Y00003673D01*
X00029161Y00003696D01*
X00029151Y00003718D01*
X00029142Y00003742D01*
X00029135Y00003766D01*
X00029130Y00003790D01*
X00029126Y00003815D01*
X00029123Y00003840D01*
X00029123Y00003865D01*
X00029123Y00009913D01*
X00022523Y00012104D02*
X00022523Y00012104D01*
X00022521Y00012067D01*
X00022516Y00012031D01*
X00022507Y00011995D01*
X00022495Y00011960D01*
X00022480Y00011927D01*
X00022462Y00011895D01*
X00022441Y00011865D01*
X00022417Y00011836D01*
X00022391Y00011811D01*
X00022363Y00011787D01*
X00022332Y00011767D01*
X00022300Y00011749D01*
X00022266Y00011735D01*
X00022231Y00011724D01*
X00022195Y00011716D01*
X00022158Y00011712D01*
X00022122Y00011711D01*
X00022085Y00011713D01*
X00022049Y00011719D01*
X00022013Y00011728D01*
X00021920Y00011757D01*
X00021896Y00011765D01*
X00021873Y00011774D01*
X00021851Y00011785D01*
X00021829Y00011798D01*
X00021808Y00011812D01*
X00021788Y00011827D01*
X00021769Y00011843D01*
X00021751Y00011861D01*
X00021735Y00011879D01*
X00021719Y00011899D01*
X00021705Y00011920D01*
X00021692Y00011941D01*
X00021681Y00011963D01*
X00021671Y00011986D01*
X00021662Y00012010D01*
X00021655Y00012034D01*
X00021649Y00012058D01*
X00021645Y00012083D01*
X00021643Y00012108D01*
X00021642Y00012133D01*
X00021642Y00013437D01*
X00019687Y00013437D01*
X00019658Y00013438D01*
X00019629Y00013441D01*
X00019600Y00013447D01*
X00019571Y00013454D01*
X00019543Y00013464D01*
X00019516Y00013476D01*
X00019490Y00013490D01*
X00019466Y00013505D01*
X00019442Y00013523D01*
X00019420Y00013542D01*
X00019399Y00013563D01*
X00019380Y00013585D01*
X00019362Y00013609D01*
X00019346Y00013633D01*
X00019333Y00013659D01*
X00019321Y00013686D01*
X00019311Y00013714D01*
X00019303Y00013742D01*
X00019298Y00013771D01*
X00019295Y00013801D01*
X00019267Y00014155D01*
X00019266Y00014188D01*
X00019268Y00014220D01*
X00019272Y00014252D01*
X00019279Y00014284D01*
X00019288Y00014315D01*
X00019300Y00014345D01*
X00019315Y00014374D01*
X00019331Y00014402D01*
X00019350Y00014428D01*
X00019371Y00014453D01*
X00019394Y00014476D01*
X00019419Y00014496D01*
X00019445Y00014515D01*
X00019473Y00014532D01*
X00019502Y00014546D01*
X00019533Y00014558D01*
X00019564Y00014567D01*
X00019595Y00014574D01*
X00019628Y00014577D01*
X00019660Y00014579D01*
X00021642Y00014579D01*
X00021642Y00016455D01*
X00021642Y00016468D01*
X00021643Y00016482D01*
X00021644Y00016496D01*
X00021646Y00016510D01*
X00021648Y00016524D01*
X00021651Y00016537D01*
X00021654Y00016551D01*
X00021658Y00016564D01*
X00021662Y00016577D01*
X00021666Y00016591D01*
X00021671Y00016603D01*
X00021677Y00016616D01*
X00021683Y00016629D01*
X00021689Y00016641D01*
X00021696Y00016653D01*
X00021703Y00016665D01*
X00021711Y00016677D01*
X00021719Y00016688D01*
X00021727Y00016699D01*
X00021736Y00016710D01*
X00021829Y00016819D01*
X00021862Y00016853D01*
X00021899Y00016884D01*
X00021940Y00016909D01*
X00021983Y00016930D01*
X00022029Y00016945D01*
X00022076Y00016954D01*
X00022124Y00016957D01*
X00022172Y00016955D01*
X00022219Y00016947D01*
X00022265Y00016933D01*
X00022309Y00016914D01*
X00022350Y00016890D01*
X00022388Y00016860D01*
X00022422Y00016827D01*
X00022452Y00016789D01*
X00022477Y00016748D01*
X00022497Y00016705D01*
X00022511Y00016659D01*
X00022520Y00016612D01*
X00022523Y00016564D01*
X00022523Y00014579D01*
X00025508Y00014579D01*
X00025552Y00014576D01*
X00025595Y00014569D01*
X00025636Y00014557D01*
X00025676Y00014541D01*
X00025715Y00014520D01*
X00025750Y00014496D01*
X00025783Y00014467D01*
X00025812Y00014435D01*
X00025838Y00014400D01*
X00025860Y00014363D01*
X00025877Y00014323D01*
X00025890Y00014281D01*
X00025898Y00014239D01*
X00025902Y00014196D01*
X00025901Y00014152D01*
X00025895Y00014109D01*
X00025884Y00014067D01*
X00025869Y00014027D01*
X00025849Y00013988D01*
X00025825Y00013952D01*
X00025564Y00013597D01*
X00025553Y00013582D01*
X00025541Y00013568D01*
X00025528Y00013555D01*
X00025515Y00013542D01*
X00025501Y00013530D01*
X00025487Y00013518D01*
X00025472Y00013507D01*
X00025457Y00013497D01*
X00025441Y00013488D01*
X00025424Y00013479D01*
X00025408Y00013471D01*
X00025391Y00013464D01*
X00025374Y00013458D01*
X00025356Y00013452D01*
X00025338Y00013448D01*
X00025320Y00013444D01*
X00025302Y00013441D01*
X00025284Y00013439D01*
X00025265Y00013437D01*
X00025247Y00013437D01*
X00022523Y00013437D01*
X00022523Y00012104D01*
X00022523Y00003874D02*
X00022523Y00003874D01*
X00022521Y00003836D01*
X00022515Y00003797D01*
X00022506Y00003760D01*
X00022493Y00003724D01*
X00022476Y00003689D01*
X00022456Y00003656D01*
X00022433Y00003625D01*
X00022407Y00003596D01*
X00022379Y00003570D01*
X00022348Y00003547D01*
X00022315Y00003527D01*
X00022280Y00003511D01*
X00022243Y00003497D01*
X00022206Y00003488D01*
X00022168Y00003482D01*
X00022129Y00003480D01*
X00022091Y00003482D01*
X00022052Y00003488D01*
X00022015Y00003497D01*
X00021979Y00003510D01*
X00021886Y00003549D01*
X00021864Y00003558D01*
X00021844Y00003569D01*
X00021824Y00003581D01*
X00021805Y00003594D01*
X00021786Y00003608D01*
X00021769Y00003623D01*
X00021752Y00003639D01*
X00021737Y00003657D01*
X00021722Y00003675D01*
X00021709Y00003694D01*
X00021696Y00003713D01*
X00021685Y00003734D01*
X00021675Y00003755D01*
X00021667Y00003776D01*
X00021659Y00003798D01*
X00021653Y00003821D01*
X00021648Y00003843D01*
X00021645Y00003866D01*
X00021643Y00003889D01*
X00021642Y00003913D01*
X00021642Y00009913D01*
X00021643Y00009938D01*
X00021645Y00009963D01*
X00021649Y00009988D01*
X00021655Y00010013D01*
X00021662Y00010037D01*
X00021671Y00010060D01*
X00021681Y00010083D01*
X00021692Y00010105D01*
X00021705Y00010127D01*
X00021719Y00010147D01*
X00021735Y00010167D01*
X00021751Y00010186D01*
X00021769Y00010203D01*
X00021788Y00010219D01*
X00021808Y00010235D01*
X00021829Y00010248D01*
X00021851Y00010261D01*
X00021873Y00010272D01*
X00021896Y00010282D01*
X00021920Y00010290D01*
X00022013Y00010318D01*
X00022049Y00010328D01*
X00022085Y00010333D01*
X00022122Y00010336D01*
X00022158Y00010335D01*
X00022195Y00010330D01*
X00022231Y00010322D01*
X00022266Y00010311D01*
X00022300Y00010297D01*
X00022332Y00010279D01*
X00022363Y00010259D01*
X00022391Y00010236D01*
X00022417Y00010210D01*
X00022441Y00010182D01*
X00022462Y00010152D01*
X00022480Y00010119D01*
X00022495Y00010086D01*
X00022507Y00010051D01*
X00022516Y00010015D01*
X00022521Y00009979D01*
X00022523Y00009942D01*
X00022523Y00003874D01*
X00014162Y00010289D02*
X00014162Y00010289D01*
X00014165Y00010336D01*
X00014173Y00010382D01*
X00014187Y00010427D01*
X00014206Y00010470D01*
X00014230Y00010510D01*
X00014258Y00010547D01*
X00014291Y00010581D01*
X00014328Y00010610D01*
X00014367Y00010635D01*
X00014410Y00010655D01*
X00014454Y00010670D01*
X00014500Y00010679D01*
X00014547Y00010683D01*
X00014594Y00010681D01*
X00014640Y00010674D01*
X00014685Y00010661D01*
X00014728Y00010643D01*
X00014769Y00010620D01*
X00014807Y00010592D01*
X00014841Y00010560D01*
X00014934Y00010462D01*
X00014944Y00010451D01*
X00014954Y00010440D01*
X00014963Y00010428D01*
X00014972Y00010416D01*
X00014980Y00010404D01*
X00014988Y00010391D01*
X00014995Y00010378D01*
X00015002Y00010364D01*
X00015008Y00010351D01*
X00015014Y00010337D01*
X00015019Y00010323D01*
X00015024Y00010309D01*
X00015028Y00010295D01*
X00015032Y00010280D01*
X00015035Y00010266D01*
X00015038Y00010251D01*
X00015040Y00010236D01*
X00015041Y00010221D01*
X00015042Y00010206D01*
X00015042Y00010191D01*
X00015042Y00003871D01*
X00015039Y00003823D01*
X00015030Y00003775D01*
X00015016Y00003729D01*
X00014996Y00003685D01*
X00014970Y00003644D01*
X00014940Y00003606D01*
X00014906Y00003573D01*
X00014867Y00003543D01*
X00014825Y00003519D01*
X00014781Y00003500D01*
X00014734Y00003487D01*
X00014687Y00003479D01*
X00014638Y00003477D01*
X00014590Y00003481D01*
X00014543Y00003492D01*
X00014497Y00003507D01*
X00014454Y00003529D01*
X00014414Y00003555D01*
X00014377Y00003586D01*
X00014344Y00003621D01*
X00014251Y00003735D01*
X00014243Y00003746D01*
X00014235Y00003756D01*
X00014227Y00003768D01*
X00014220Y00003779D01*
X00014213Y00003791D01*
X00014206Y00003803D01*
X00014200Y00003815D01*
X00014195Y00003827D01*
X00014190Y00003839D01*
X00014185Y00003852D01*
X00014181Y00003865D01*
X00014177Y00003878D01*
X00014173Y00003891D01*
X00014170Y00003904D01*
X00014168Y00003917D01*
X00014166Y00003931D01*
X00014164Y00003944D01*
X00014163Y00003957D01*
X00014162Y00003971D01*
X00014162Y00003984D01*
X00014162Y00010289D01*
X00006600Y00010204D02*
X00006600Y00010204D01*
X00006602Y00010248D01*
X00006609Y00010292D01*
X00006622Y00010335D01*
X00006639Y00010376D01*
X00006660Y00010414D01*
X00006686Y00010450D01*
X00006716Y00010483D01*
X00006749Y00010513D01*
X00006785Y00010538D01*
X00006824Y00010560D01*
X00006865Y00010576D01*
X00006907Y00010588D01*
X00006951Y00010596D01*
X00006995Y00010598D01*
X00007040Y00010595D01*
X00007083Y00010587D01*
X00007126Y00010575D01*
X00007167Y00010558D01*
X00007205Y00010536D01*
X00007241Y00010510D01*
X00007416Y00010368D01*
X00007429Y00010357D01*
X00007442Y00010345D01*
X00007455Y00010332D01*
X00007466Y00010319D01*
X00007477Y00010306D01*
X00007488Y00010292D01*
X00007498Y00010277D01*
X00007507Y00010263D01*
X00007516Y00010247D01*
X00007524Y00010232D01*
X00007531Y00010216D01*
X00007537Y00010199D01*
X00007543Y00010183D01*
X00007548Y00010166D01*
X00007552Y00010149D01*
X00007556Y00010132D01*
X00007558Y00010115D01*
X00007560Y00010097D01*
X00007562Y00010080D01*
X00007562Y00010062D01*
X00007562Y00004074D01*
X00007559Y00004028D01*
X00007551Y00003982D01*
X00007538Y00003938D01*
X00007519Y00003896D01*
X00007496Y00003856D01*
X00007468Y00003819D01*
X00007436Y00003785D01*
X00007400Y00003756D01*
X00007361Y00003731D01*
X00007319Y00003711D01*
X00007276Y00003695D01*
X00007230Y00003685D01*
X00007184Y00003681D01*
X00007138Y00003682D01*
X00007092Y00003688D01*
X00007047Y00003699D01*
X00007004Y00003716D01*
X00006963Y00003738D01*
X00006925Y00003764D01*
X00006891Y00003795D01*
X00006716Y00003969D01*
X00006705Y00003980D01*
X00006695Y00003992D01*
X00006685Y00004004D01*
X00006675Y00004016D01*
X00006666Y00004029D01*
X00006658Y00004042D01*
X00006650Y00004055D01*
X00006643Y00004069D01*
X00006636Y00004083D01*
X00006630Y00004097D01*
X00006624Y00004111D01*
X00006619Y00004126D01*
X00006614Y00004141D01*
X00006610Y00004156D01*
X00006607Y00004171D01*
X00006604Y00004186D01*
X00006602Y00004202D01*
X00006601Y00004217D01*
X00006600Y00004233D01*
X00006600Y00004248D01*
X00006600Y00010204D01*
X00006682Y00024087D02*
X00006682Y00024087D01*
X00006682Y00024112D01*
X00006685Y00024137D01*
X00006689Y00024161D01*
X00006694Y00024186D01*
X00006701Y00024210D01*
X00006710Y00024233D01*
X00006720Y00024256D01*
X00006731Y00024278D01*
X00006744Y00024300D01*
X00006759Y00024321D01*
X00006774Y00024340D01*
X00006791Y00024359D01*
X00006809Y00024376D01*
X00006828Y00024393D01*
X00006848Y00024408D01*
X00006868Y00024422D01*
X00006890Y00024434D01*
X00006913Y00024445D01*
X00006936Y00024455D01*
X00006959Y00024463D01*
X00007052Y00024492D01*
X00007088Y00024501D01*
X00007124Y00024507D01*
X00007161Y00024509D01*
X00007198Y00024508D01*
X00007234Y00024503D01*
X00007270Y00024496D01*
X00007305Y00024484D01*
X00007339Y00024470D01*
X00007371Y00024453D01*
X00007402Y00024432D01*
X00007431Y00024409D01*
X00007457Y00024383D01*
X00007481Y00024355D01*
X00007502Y00024325D01*
X00007520Y00024293D01*
X00007535Y00024259D01*
X00007547Y00024224D01*
X00007555Y00024189D01*
X00007560Y00024152D01*
X00007562Y00024115D01*
X00007562Y00018797D01*
X00007560Y00018760D01*
X00007555Y00018724D01*
X00007547Y00018688D01*
X00007535Y00018653D01*
X00007520Y00018620D01*
X00007502Y00018588D01*
X00007481Y00018557D01*
X00007457Y00018529D01*
X00007431Y00018504D01*
X00007402Y00018480D01*
X00007371Y00018460D01*
X00007339Y00018442D01*
X00007305Y00018428D01*
X00007270Y00018417D01*
X00007234Y00018409D01*
X00007198Y00018404D01*
X00007161Y00018403D01*
X00007124Y00018406D01*
X00007088Y00018412D01*
X00007052Y00018421D01*
X00006959Y00018449D01*
X00006936Y00018458D01*
X00006913Y00018467D01*
X00006890Y00018478D01*
X00006868Y00018491D01*
X00006848Y00018505D01*
X00006828Y00018520D01*
X00006809Y00018536D01*
X00006791Y00018554D01*
X00006774Y00018572D01*
X00006759Y00018592D01*
X00006744Y00018612D01*
X00006731Y00018634D01*
X00006720Y00018656D01*
X00006710Y00018679D01*
X00006701Y00018703D01*
X00006694Y00018727D01*
X00006689Y00018751D01*
X00006685Y00018776D01*
X00006682Y00018801D01*
X00006682Y00018826D01*
X00006682Y00024087D01*
X00007562Y00026277D02*
X00007562Y00026277D01*
X00007560Y00026241D01*
X00007555Y00026204D01*
X00007547Y00026168D01*
X00007535Y00026134D01*
X00007520Y00026100D01*
X00007502Y00026068D01*
X00007481Y00026038D01*
X00007457Y00026010D01*
X00007431Y00025984D01*
X00007402Y00025961D01*
X00007371Y00025940D01*
X00007339Y00025923D01*
X00007305Y00025908D01*
X00007270Y00025897D01*
X00007234Y00025889D01*
X00007198Y00025885D01*
X00007161Y00025884D01*
X00007124Y00025886D01*
X00007088Y00025892D01*
X00007052Y00025901D01*
X00006959Y00025930D01*
X00006936Y00025938D01*
X00006913Y00025948D01*
X00006890Y00025959D01*
X00006868Y00025971D01*
X00006848Y00025985D01*
X00006828Y00026000D01*
X00006809Y00026016D01*
X00006791Y00026034D01*
X00006774Y00026053D01*
X00006759Y00026072D01*
X00006744Y00026093D01*
X00006731Y00026114D01*
X00006720Y00026136D01*
X00006710Y00026159D01*
X00006701Y00026183D01*
X00006694Y00026207D01*
X00006689Y00026231D01*
X00006685Y00026256D01*
X00006682Y00026281D01*
X00006682Y00026306D01*
X00006682Y00028004D01*
X00000082Y00028004D01*
X00000082Y00014579D01*
X00002674Y00014579D01*
X00002717Y00014576D01*
X00002759Y00014569D01*
X00002800Y00014558D01*
X00002840Y00014542D01*
X00002878Y00014522D01*
X00002913Y00014497D01*
X00002946Y00014469D01*
X00002975Y00014438D01*
X00003001Y00014404D01*
X00003023Y00014367D01*
X00003041Y00014328D01*
X00003054Y00014287D01*
X00003063Y00014245D01*
X00003067Y00014202D01*
X00003067Y00014159D01*
X00003061Y00014116D01*
X00003052Y00014075D01*
X00003037Y00014034D01*
X00003019Y00013995D01*
X00002996Y00013959D01*
X00002738Y00013592D01*
X00002727Y00013577D01*
X00002715Y00013562D01*
X00002703Y00013548D01*
X00002689Y00013535D01*
X00002676Y00013522D01*
X00002661Y00013510D01*
X00002646Y00013499D01*
X00002630Y00013488D01*
X00002614Y00013478D01*
X00002598Y00013469D01*
X00002581Y00013461D01*
X00002563Y00013453D01*
X00002546Y00013446D01*
X00002528Y00013441D01*
X00002510Y00013436D01*
X00002491Y00013432D01*
X00002473Y00013429D01*
X00002454Y00013426D01*
X00002435Y00013425D01*
X00002416Y00013425D01*
X00000000Y00013425D01*
X00000000Y00000000D01*
X00006600Y00000000D01*
X00006600Y00001958D01*
X00006600Y00001974D01*
X00006601Y00001989D01*
X00006602Y00002005D01*
X00006604Y00002020D01*
X00006607Y00002035D01*
X00006610Y00002050D01*
X00006614Y00002065D01*
X00006619Y00002080D01*
X00006624Y00002095D01*
X00006630Y00002109D01*
X00006636Y00002124D01*
X00006643Y00002138D01*
X00006650Y00002151D01*
X00006658Y00002165D01*
X00006666Y00002178D01*
X00006675Y00002190D01*
X00006685Y00002203D01*
X00006695Y00002215D01*
X00006705Y00002226D01*
X00006716Y00002237D01*
X00006891Y00002411D01*
X00006925Y00002442D01*
X00006963Y00002468D01*
X00007004Y00002490D01*
X00007047Y00002507D01*
X00007092Y00002518D01*
X00007138Y00002525D01*
X00007184Y00002526D01*
X00007230Y00002521D01*
X00007276Y00002511D01*
X00007319Y00002496D01*
X00007361Y00002475D01*
X00007400Y00002450D01*
X00007436Y00002421D01*
X00007468Y00002388D01*
X00007496Y00002351D01*
X00007519Y00002311D01*
X00007538Y00002268D01*
X00007551Y00002224D01*
X00007559Y00002178D01*
X00007562Y00002132D01*
X00007562Y00000012D01*
X00014162Y00000012D01*
X00014162Y00001700D01*
X00014162Y00001713D01*
X00014163Y00001727D01*
X00014164Y00001740D01*
X00014166Y00001754D01*
X00014168Y00001767D01*
X00014170Y00001780D01*
X00014173Y00001793D01*
X00014177Y00001806D01*
X00014181Y00001819D01*
X00014185Y00001832D01*
X00014190Y00001845D01*
X00014195Y00001857D01*
X00014200Y00001869D01*
X00014206Y00001882D01*
X00014213Y00001893D01*
X00014220Y00001905D01*
X00014227Y00001916D01*
X00014235Y00001928D01*
X00014243Y00001938D01*
X00014251Y00001949D01*
X00014344Y00002063D01*
X00014377Y00002098D01*
X00014414Y00002129D01*
X00014454Y00002156D01*
X00014497Y00002177D01*
X00014543Y00002193D01*
X00014590Y00002203D01*
X00014638Y00002207D01*
X00014687Y00002205D01*
X00014734Y00002197D01*
X00014781Y00002184D01*
X00014825Y00002165D01*
X00014867Y00002141D01*
X00014906Y00002111D01*
X00014940Y00002078D01*
X00014970Y00002040D01*
X00014996Y00001999D01*
X00015016Y00001955D01*
X00015030Y00001909D01*
X00015039Y00001861D01*
X00015042Y00001813D01*
X00015042Y00000012D01*
X00021642Y00000012D01*
X00021642Y00001685D01*
X00021643Y00001708D01*
X00021645Y00001731D01*
X00021648Y00001754D01*
X00021653Y00001777D01*
X00021659Y00001799D01*
X00021667Y00001821D01*
X00021675Y00001842D01*
X00021685Y00001863D01*
X00021696Y00001884D01*
X00021709Y00001903D01*
X00021722Y00001922D01*
X00021737Y00001940D01*
X00021752Y00001958D01*
X00021769Y00001974D01*
X00021786Y00001989D01*
X00021805Y00002003D01*
X00021824Y00002016D01*
X00021844Y00002028D01*
X00021864Y00002039D01*
X00021886Y00002048D01*
X00021979Y00002087D01*
X00022015Y00002100D01*
X00022052Y00002109D01*
X00022091Y00002115D01*
X00022129Y00002117D01*
X00022168Y00002115D01*
X00022206Y00002109D01*
X00022243Y00002100D01*
X00022280Y00002087D01*
X00022315Y00002070D01*
X00022348Y00002050D01*
X00022379Y00002027D01*
X00022407Y00002001D01*
X00022433Y00001973D01*
X00022456Y00001942D01*
X00022476Y00001908D01*
X00022493Y00001873D01*
X00022506Y00001837D01*
X00022515Y00001800D01*
X00022521Y00001761D01*
X00022523Y00001723D01*
X00022523Y00000012D01*
X00029123Y00000012D01*
X00029123Y00001646D01*
X00029123Y00001671D01*
X00029126Y00001696D01*
X00029130Y00001720D01*
X00029135Y00001745D01*
X00029142Y00001769D01*
X00029151Y00001792D01*
X00029161Y00001815D01*
X00029172Y00001838D01*
X00029185Y00001859D01*
X00029199Y00001880D01*
X00029215Y00001899D01*
X00029232Y00001918D01*
X00029250Y00001935D01*
X00029269Y00001952D01*
X00029288Y00001967D01*
X00029309Y00001981D01*
X00029331Y00001993D01*
X00029353Y00002004D01*
X00029377Y00002014D01*
X00029400Y00002022D01*
X00029493Y00002051D01*
X00029529Y00002060D01*
X00029565Y00002066D01*
X00029602Y00002068D01*
X00029639Y00002067D01*
X00029675Y00002062D01*
X00029711Y00002055D01*
X00029746Y00002043D01*
X00029780Y00002029D01*
X00029812Y00002012D01*
X00029843Y00001991D01*
X00029872Y00001968D01*
X00029898Y00001942D01*
X00029922Y00001914D01*
X00029943Y00001884D01*
X00029961Y00001852D01*
X00029976Y00001818D01*
X00029987Y00001783D01*
X00029996Y00001748D01*
X00030001Y00001711D01*
X00030003Y00001674D01*
X00030003Y00000012D01*
X00036603Y00000012D01*
X00036603Y00013437D01*
X00034595Y00013437D01*
X00034576Y00013437D01*
X00034558Y00013439D01*
X00034539Y00013441D01*
X00034521Y00013444D01*
X00034503Y00013448D01*
X00034485Y00013452D01*
X00034468Y00013458D01*
X00034451Y00013464D01*
X00034434Y00013471D01*
X00034417Y00013479D01*
X00034401Y00013488D01*
X00034385Y00013497D01*
X00034370Y00013507D01*
X00034355Y00013518D01*
X00034340Y00013530D01*
X00034327Y00013542D01*
X00034313Y00013555D01*
X00034301Y00013568D01*
X00034289Y00013582D01*
X00034278Y00013597D01*
X00034016Y00013952D01*
X00033992Y00013988D01*
X00033973Y00014027D01*
X00033958Y00014067D01*
X00033947Y00014109D01*
X00033941Y00014152D01*
X00033940Y00014196D01*
X00033943Y00014239D01*
X00033951Y00014281D01*
X00033964Y00014323D01*
X00033982Y00014363D01*
X00034003Y00014400D01*
X00034029Y00014435D01*
X00034058Y00014467D01*
X00034091Y00014496D01*
X00034127Y00014520D01*
X00034165Y00014541D01*
X00034205Y00014557D01*
X00034247Y00014569D01*
X00034290Y00014576D01*
X00034333Y00014579D01*
X00036603Y00014579D01*
X00036603Y00028004D01*
X00030003Y00028004D01*
X00030003Y00026277D01*
X00030001Y00026241D01*
X00029996Y00026204D01*
X00029987Y00026168D01*
X00029976Y00026134D01*
X00029961Y00026100D01*
X00029943Y00026068D01*
X00029922Y00026038D01*
X00029898Y00026010D01*
X00029872Y00025984D01*
X00029843Y00025961D01*
X00029812Y00025940D01*
X00029780Y00025923D01*
X00029746Y00025908D01*
X00029711Y00025897D01*
X00029675Y00025889D01*
X00029639Y00025885D01*
X00029602Y00025884D01*
X00029565Y00025886D01*
X00029529Y00025892D01*
X00029493Y00025901D01*
X00029400Y00025930D01*
X00029377Y00025938D01*
X00029353Y00025948D01*
X00029331Y00025959D01*
X00029309Y00025971D01*
X00029288Y00025985D01*
X00029269Y00026000D01*
X00029250Y00026016D01*
X00029232Y00026034D01*
X00029215Y00026053D01*
X00029199Y00026072D01*
X00029185Y00026093D01*
X00029172Y00026114D01*
X00029161Y00026136D01*
X00029151Y00026159D01*
X00029142Y00026183D01*
X00029135Y00026207D01*
X00029130Y00026231D01*
X00029126Y00026256D01*
X00029123Y00026281D01*
X00029123Y00026306D01*
X00029123Y00028004D01*
X00022523Y00028004D01*
X00022523Y00026277D01*
X00022521Y00026241D01*
X00022516Y00026204D01*
X00022507Y00026168D01*
X00022495Y00026134D01*
X00022480Y00026100D01*
X00022462Y00026068D01*
X00022441Y00026038D01*
X00022417Y00026010D01*
X00022391Y00025984D01*
X00022363Y00025961D01*
X00022332Y00025940D01*
X00022300Y00025923D01*
X00022266Y00025908D01*
X00022231Y00025897D01*
X00022195Y00025889D01*
X00022158Y00025885D01*
X00022122Y00025884D01*
X00022085Y00025886D01*
X00022049Y00025892D01*
X00022013Y00025901D01*
X00021920Y00025930D01*
X00021896Y00025938D01*
X00021873Y00025948D01*
X00021851Y00025959D01*
X00021829Y00025971D01*
X00021808Y00025985D01*
X00021788Y00026000D01*
X00021769Y00026016D01*
X00021751Y00026034D01*
X00021735Y00026053D01*
X00021719Y00026072D01*
X00021705Y00026093D01*
X00021692Y00026114D01*
X00021681Y00026136D01*
X00021671Y00026159D01*
X00021662Y00026183D01*
X00021655Y00026207D01*
X00021649Y00026231D01*
X00021645Y00026256D01*
X00021643Y00026281D01*
X00021642Y00026306D01*
X00021642Y00028004D01*
X00015042Y00028004D01*
X00015042Y00026277D01*
X00015040Y00026241D01*
X00015035Y00026204D01*
X00015027Y00026168D01*
X00015015Y00026134D01*
X00015000Y00026100D01*
X00014982Y00026068D01*
X00014961Y00026038D01*
X00014937Y00026010D01*
X00014911Y00025984D01*
X00014882Y00025961D01*
X00014852Y00025940D01*
X00014819Y00025923D01*
X00014786Y00025908D01*
X00014750Y00025897D01*
X00014715Y00025889D01*
X00014678Y00025885D01*
X00014641Y00025884D01*
X00014605Y00025886D01*
X00014568Y00025892D01*
X00014533Y00025901D01*
X00014440Y00025930D01*
X00014416Y00025938D01*
X00014393Y00025948D01*
X00014370Y00025959D01*
X00014349Y00025971D01*
X00014328Y00025985D01*
X00014308Y00026000D01*
X00014289Y00026016D01*
X00014271Y00026034D01*
X00014254Y00026053D01*
X00014239Y00026072D01*
X00014225Y00026093D01*
X00014212Y00026114D01*
X00014200Y00026136D01*
X00014190Y00026159D01*
X00014182Y00026183D01*
X00014175Y00026207D01*
X00014169Y00026231D01*
X00014165Y00026256D01*
X00014163Y00026281D01*
X00014162Y00026306D01*
X00014162Y00028004D01*
X00007562Y00028004D01*
X00007562Y00026277D01*
M02*